<svg width="38" height="38" viewBox="0 0 38 38" fill="none" xmlns="http://www.w3.org/2000/svg">
<path d="M30.875 38H24.5417C24.1047 38 23.75 37.6454 23.75 37.2084V26.125C23.75 25.688 23.3953 25.3334 22.9583 25.3334H15.0417C14.6047 25.3334 14.25 25.688 14.25 26.125V37.2084C14.25 37.6454 13.8953 38 13.4583 38H7.125C5.81558 38 4.75 36.9344 4.75 35.625V20.5834H1.58333C0.710917 20.5834 0 19.8724 0 19C0 18.5804 0.171 18.1688 0.468667 17.8711L18.4458 0.226449C18.753 -0.0743844 19.247 -0.0743844 19.5542 0.226449L37.525 17.8648C37.829 18.1688 38 18.5804 38 19C38 19.8724 37.2891 20.5834 36.4167 20.5834H33.25V35.625C33.25 36.9344 32.1844 38 30.875 38ZM25.3333 36.4167H30.875C31.312 36.4167 31.6667 36.062 31.6667 35.625V19.7917C31.6667 19.3547 32.0213 19 32.4583 19H36.4167L19 1.90162L1.58333 18.9953L5.54167 19C5.97867 19 6.33333 19.3547 6.33333 19.7917V35.625C6.33333 36.062 6.688 36.4167 7.125 36.4167H12.6667V26.125C12.6667 24.8156 13.7323 23.75 15.0417 23.75H22.9583C24.2678 23.75 25.3333 24.8156 25.3333 26.125V36.4167Z" fill="black"/>
</svg>
