<svg width="38" height="38" viewBox="0 0 38 38" fill="none" xmlns="http://www.w3.org/2000/svg">
<path d="M16.625 33.25H3.95833C1.7765 33.25 0 31.4735 0 29.2917V8.70833C0 6.5265 1.7765 4.75 3.95833 4.75H7.125C7.562 4.75 7.91667 5.10467 7.91667 5.54167C7.91667 5.97867 7.562 6.33333 7.125 6.33333H3.95833C2.64892 6.33333 1.58333 7.39892 1.58333 8.70833V29.2917C1.58333 30.6011 2.64892 31.6667 3.95833 31.6667H16.625C17.062 31.6667 17.4167 32.0213 17.4167 32.4583C17.4167 32.8953 17.062 33.25 16.625 33.25Z" fill="black"/>
<path d="M26.125 14.25C25.688 14.25 25.3333 13.8953 25.3333 13.4583V8.70833C25.3333 7.39892 24.2677 6.33333 22.9583 6.33333H19.7917C19.3547 6.33333 19 5.97867 19 5.54167C19 5.10467 19.3547 4.75 19.7917 4.75H22.9583C25.1402 4.75 26.9167 6.5265 26.9167 8.70833V13.4583C26.9167 13.8953 26.562 14.25 26.125 14.25Z" fill="black"/>
<path d="M18.2083 9.5H8.70833C7.39892 9.5 6.33333 8.43442 6.33333 7.125V3.95833C6.33333 3.52133 6.688 3.16667 7.125 3.16667H9.57917C9.94808 1.36167 11.5457 0 13.4583 0C15.371 0 16.9686 1.36167 17.3375 3.16667H19.7917C20.2287 3.16667 20.5833 3.52133 20.5833 3.95833V7.125C20.5833 8.43442 19.5178 9.5 18.2083 9.5ZM7.91667 4.75V7.125C7.91667 7.562 8.27133 7.91667 8.70833 7.91667H18.2083C18.6453 7.91667 19 7.562 19 7.125V4.75H16.625C16.188 4.75 15.8333 4.39533 15.8333 3.95833C15.8333 2.64892 14.7678 1.58333 13.4583 1.58333C12.1489 1.58333 11.0833 2.64892 11.0833 3.95833C11.0833 4.39533 10.7287 4.75 10.2917 4.75H7.91667Z" fill="black"/>
<path d="M35.625 38H21.375C20.0656 38 19 36.9344 19 35.625V18.2083C19 16.8989 20.0656 15.8333 21.375 15.8333H31.1457C32.2018 15.8333 33.1962 16.245 33.9451 16.9923L36.841 19.8883C37.5883 20.6356 38 21.6299 38 22.6876V35.625C38 36.9344 36.9344 38 35.625 38ZM21.375 17.4167C20.938 17.4167 20.5833 17.7713 20.5833 18.2083V35.625C20.5833 36.062 20.938 36.4167 21.375 36.4167H35.625C36.062 36.4167 36.4167 36.062 36.4167 35.625V22.6876C36.4167 22.0622 36.1633 21.451 35.7216 21.0077L32.8257 18.1118C32.3839 17.67 31.7712 17.4167 31.1457 17.4167H21.375Z" fill="black"/>
<path d="M32.4583 26.9167H24.5417C24.1047 26.9167 23.75 26.562 23.75 26.125C23.75 25.688 24.1047 25.3333 24.5417 25.3333H32.4583C32.8953 25.3333 33.25 25.688 33.25 26.125C33.25 26.562 32.8953 26.9167 32.4583 26.9167Z" fill="black"/>
<path d="M32.4583 31.6667H24.5417C24.1047 31.6667 23.75 31.312 23.75 30.875C23.75 30.438 24.1047 30.0833 24.5417 30.0833H32.4583C32.8953 30.0833 33.25 30.438 33.25 30.875C33.25 31.312 32.8953 31.6667 32.4583 31.6667Z" fill="black"/>
</svg>
