<svg width="38" height="38" viewBox="0 0 38 38" fill="none" xmlns="http://www.w3.org/2000/svg">
<path d="M34.0417 28.5H30.875C30.438 28.5 30.0833 28.1453 30.0833 27.7083C30.0833 27.2713 30.438 26.9167 30.875 26.9167H34.0417C35.3511 26.9167 36.4167 25.8511 36.4167 24.5417V13.4583C36.4167 12.1489 35.3511 11.0833 34.0417 11.0833H3.95833C2.64892 11.0833 1.58333 12.1489 1.58333 13.4583V24.5417C1.58333 25.8511 2.64892 26.9167 3.95833 26.9167H7.125C7.562 26.9167 7.91667 27.2713 7.91667 27.7083C7.91667 28.1453 7.562 28.5 7.125 28.5H3.95833C1.77492 28.5 0 26.7235 0 24.5417V13.4583C0 11.2765 1.77492 9.5 3.95833 9.5H34.0417C36.2251 9.5 38 11.2765 38 13.4583V24.5417C38 26.7235 36.2251 28.5 34.0417 28.5Z" fill="black"/>
<path d="M32.4583 17.4167C31.1489 17.4167 30.0833 16.3511 30.0833 15.0417C30.0833 13.7322 31.1489 12.6667 32.4583 12.6667C33.7678 12.6667 34.8333 13.7322 34.8333 15.0417C34.8333 16.3511 33.7678 17.4167 32.4583 17.4167ZM32.4583 14.25C32.0229 14.25 31.6667 14.6047 31.6667 15.0417C31.6667 15.4787 32.0229 15.8333 32.4583 15.8333C32.8938 15.8333 33.25 15.4787 33.25 15.0417C33.25 14.6047 32.8938 14.25 32.4583 14.25Z" fill="black"/>
<path d="M27.7083 38H10.2917C8.10825 38 6.33334 36.2235 6.33334 34.0417V21.375C6.33334 20.938 6.688 20.5833 7.125 20.5833H30.875C31.312 20.5833 31.6667 20.938 31.6667 21.375V34.0417C31.6667 36.2235 29.8918 38 27.7083 38ZM7.91667 22.1667V34.0417C7.91667 35.3511 8.98225 36.4167 10.2917 36.4167H27.7083C29.0178 36.4167 30.0833 35.3511 30.0833 34.0417V22.1667H7.91667Z" fill="black"/>
<path d="M26.125 28.5H11.875C11.438 28.5 11.0833 28.1453 11.0833 27.7083C11.0833 27.2713 11.438 26.9167 11.875 26.9167H26.125C26.562 26.9167 26.9167 27.2713 26.9167 27.7083C26.9167 28.1453 26.562 28.5 26.125 28.5Z" fill="black"/>
<path d="M26.125 33.25H11.875C11.438 33.25 11.0833 32.8953 11.0833 32.4583C11.0833 32.0213 11.438 31.6667 11.875 31.6667H26.125C26.562 31.6667 26.9167 32.0213 26.9167 32.4583C26.9167 32.8953 26.562 33.25 26.125 33.25Z" fill="black"/>
<path d="M30.875 11.0833C30.438 11.0833 30.0833 10.7287 30.0833 10.2917V7.11392C30.0833 6.05783 29.6717 5.0635 28.9243 4.31458L27.3537 2.74392C26.6174 2.00608 25.5962 1.58333 24.5543 1.58333H10.2917C8.98225 1.58333 7.91667 2.64892 7.91667 3.95833V10.2917C7.91667 10.7287 7.562 11.0833 7.125 11.0833C6.688 11.0833 6.33334 10.7287 6.33334 10.2917V3.95833C6.33334 1.7765 8.10825 0 10.2917 0H24.5543C26.0142 0 27.4408 0.592167 28.4731 1.62292L30.0438 3.19358C31.0903 4.24175 31.6667 5.6335 31.6667 7.11392V10.2917C31.6667 10.7287 31.312 11.0833 30.875 11.0833Z" fill="black"/>
</svg>
