<svg width="30" height="38" viewBox="0 0 30 38" fill="none" xmlns="http://www.w3.org/2000/svg">
<path d="M1.54167 38C1.10467 38 0.75 37.6453 0.75 37.2083V0.791667C0.75 0.354667 1.10467 0 1.54167 0C1.97867 0 2.33333 0.354667 2.33333 0.791667V37.2083C2.33333 37.6453 1.97867 38 1.54167 38Z" fill="black"/>
<path d="M26.875 20.5833H1.54167C1.10467 20.5833 0.75 20.2287 0.75 19.7917V0.791667C0.75 0.354667 1.10467 0 1.54167 0H26.875C28.1844 0 29.25 1.06558 29.25 2.375V18.2083C29.25 19.5178 28.1844 20.5833 26.875 20.5833ZM2.33333 19H26.875C27.3104 19 27.6667 18.6453 27.6667 18.2083V2.375C27.6667 1.938 27.3104 1.58333 26.875 1.58333H2.33333V19Z" fill="black"/>
</svg>
