<svg width="38" height="38" viewBox="0 0 38 38" fill="none" xmlns="http://www.w3.org/2000/svg">
<path d="M19 31.6667C12.0159 31.6667 6.33333 25.9841 6.33333 19C6.33333 12.0159 12.0159 6.33334 19 6.33334C25.9841 6.33334 31.6667 12.0159 31.6667 19C31.6667 25.9841 25.9841 31.6667 19 31.6667ZM19 7.91668C12.8899 7.91668 7.91667 12.8883 7.91667 19C7.91667 25.1117 12.8899 30.0833 19 30.0833C25.1101 30.0833 30.0833 25.1117 30.0833 19C30.0833 12.8883 25.1101 7.91668 19 7.91668Z" fill="black"/>
<path d="M19 4.75C18.563 4.75 18.2083 4.39533 18.2083 3.95833V0.791667C18.2083 0.354667 18.563 0 19 0C19.437 0 19.7917 0.354667 19.7917 0.791667V3.95833C19.7917 4.39533 19.437 4.75 19 4.75Z" fill="black"/>
<path d="M19 38C18.563 38 18.2083 37.6453 18.2083 37.2083V34.0417C18.2083 33.6047 18.563 33.25 19 33.25C19.437 33.25 19.7917 33.6047 19.7917 34.0417V37.2083C19.7917 37.6453 19.437 38 19 38Z" fill="black"/>
<path d="M34.7684 28.8958C34.6338 28.8958 34.4977 28.8626 34.3726 28.7897L31.6318 27.2064C31.2534 26.9879 31.1236 26.5034 31.3421 26.125C31.5606 25.745 32.0451 25.6183 32.4235 25.8352L35.1642 27.4186C35.5427 27.6371 35.6725 28.1216 35.454 28.5C35.3083 28.7549 35.0407 28.8958 34.7684 28.8958Z" fill="black"/>
<path d="M5.97233 12.2708C5.83775 12.2708 5.70158 12.2376 5.5765 12.1648L2.83575 10.5814C2.45733 10.3629 2.3275 9.87843 2.546 9.50001C2.7645 9.12001 3.249 8.99493 3.62742 9.21026L6.36817 10.7936C6.74817 11.0121 6.878 11.4966 6.65792 11.875C6.51225 12.1299 6.24467 12.2708 5.97233 12.2708Z" fill="black"/>
<path d="M32.0277 12.2708C31.7553 12.2708 31.4878 12.1299 31.3421 11.875C31.122 11.4966 31.2518 11.0121 31.6318 10.7936L34.3726 9.21023C34.7494 8.99332 35.2355 9.11998 35.454 9.49998C35.6741 9.8784 35.5442 10.3629 35.1642 10.5814L32.4235 12.1647C32.2968 12.2376 32.1607 12.2708 32.0277 12.2708Z" fill="black"/>
<path d="M3.23158 28.8958C2.95925 28.8958 2.69167 28.7549 2.546 28.5C2.32592 28.1216 2.45575 27.6371 2.83575 27.4186L5.5765 25.8352C5.95333 25.6167 6.43942 25.7434 6.65792 26.125C6.878 26.5034 6.74817 26.9879 6.36817 27.2064L3.62742 28.7897C3.50233 28.8626 3.36617 28.8958 3.23158 28.8958Z" fill="black"/>
</svg>
