<svg width="38" height="38" viewBox="0 0 38 38" fill="none" xmlns="http://www.w3.org/2000/svg">
<path d="M19 38C8.52308 38 0 29.4769 0 19C0 8.52308 8.52308 0 19 0C29.4769 0 38 8.52308 38 19C38 29.4769 29.4769 38 19 38ZM19 1.58333C9.39708 1.58333 1.58333 9.39708 1.58333 19C1.58333 28.6029 9.39708 36.4167 19 36.4167C28.6029 36.4167 36.4167 28.6029 36.4167 19C36.4167 9.39708 28.6029 1.58333 19 1.58333Z" fill="black"/>
<path d="M18.2083 25.3333C18.0057 25.3333 17.803 25.2558 17.6478 25.1022L12.1062 19.5605C11.7974 19.2518 11.7974 18.7498 12.1062 18.4411C12.4149 18.1323 12.9168 18.1323 13.2256 18.4411L18.2067 23.4223L27.1462 14.4828C27.455 14.174 27.9569 14.174 28.2657 14.4828C28.5744 14.7915 28.5744 15.2934 28.2657 15.6022L18.7657 25.1022C18.6137 25.2558 18.411 25.3333 18.2083 25.3333Z" fill="black"/>
</svg>
