<svg width="38" height="38" viewBox="0 0 38 38" fill="none" xmlns="http://www.w3.org/2000/svg">
<path d="M20.6752 31.293C19.9357 31.293 19.2391 31.0048 18.7166 30.4808L7.51925 19.285C6.99517 18.7609 6.707 18.0658 6.707 17.3264C6.707 16.587 6.99517 15.8903 7.51925 15.3678L8.27133 14.6142C9.09467 13.7908 10.1872 13.338 11.3509 13.338H13.205C13.7338 13.338 14.231 13.1322 14.6031 12.7585L19.1425 8.2191C19.5953 7.76626 19.7505 7.10918 19.5478 6.50276C19.0602 5.0366 19.4354 3.44693 20.5279 2.35601L22.0748 0.809096C23.1563 -0.270738 24.9122 -0.272321 25.9936 0.809096L37.1893 12.0048C38.2708 13.0847 38.2708 14.8438 37.1893 15.9236L35.6424 17.4705C34.5499 18.563 32.9587 18.9367 31.4957 18.4506C30.8892 18.2495 30.2322 18.4031 29.7793 18.8559L25.2399 23.3938C24.8662 23.7674 24.6604 24.2646 24.6604 24.7934V26.6475C24.6604 27.8113 24.2076 28.9038 23.3842 29.7271L22.6322 30.4792C22.1097 31.0048 21.4146 31.293 20.6752 31.293ZM11.3493 15.7146C10.8205 15.7146 10.3233 15.9204 9.94967 16.2941L9.19917 17.0462C9.04558 17.2013 9.04558 17.4515 9.19917 17.6067L20.3949 28.8024C20.5501 28.9576 20.8002 28.9576 20.9554 28.8024L21.7075 28.0503C22.0812 27.6767 22.287 27.1795 22.287 26.6507V24.795C22.287 23.6313 22.7398 22.5372 23.5632 21.7154L28.101 17.1776C29.1919 16.0835 30.78 15.7083 32.2478 16.1975C32.8542 16.3986 33.5128 16.2434 33.9641 15.7922L35.511 14.2453C35.6662 14.0901 35.6662 13.8399 35.511 13.6848L24.3153 2.48901C24.1601 2.33385 23.9099 2.33543 23.7548 2.48901L22.2062 4.03751C21.7534 4.49035 21.5982 5.14743 21.8009 5.75385C22.2902 7.22001 21.9149 8.80809 20.8208 9.90059L16.283 14.4384C15.4628 15.2618 14.3688 15.7146 13.205 15.7146H11.3493Z" fill="black"/>
<path d="M1.18749 38C0.883486 38 0.579485 37.8844 0.346735 37.6517C-0.115598 37.1878 -0.115598 36.4357 0.348319 35.9718L13.1258 23.2101C13.5882 22.7478 14.3418 22.7462 14.8057 23.2117C15.2681 23.6756 15.2681 24.4277 14.8042 24.8916L2.02665 37.6533C1.79549 37.8844 1.49149 38 1.18749 38Z" fill="black"/>
</svg>
