<svg width="32" height="38" viewBox="0 0 32 38" fill="none" xmlns="http://www.w3.org/2000/svg">
<path d="M1.35416 38C0.698656 38 0.166656 37.468 0.166656 36.8125V1.1875C0.166656 0.532 0.698656 0 1.35416 0C2.00966 0 2.54166 0.532 2.54166 1.1875V36.8125C2.54166 37.468 2.00966 38 1.35416 38Z" fill="black"/>
<path d="M17.9792 20.5833H1.35416C0.698657 20.5833 0.166656 20.0513 0.166656 19.3958C0.166656 18.7403 0.698657 18.2083 1.35416 18.2083H17.9792C18.1977 18.2083 18.375 18.031 18.375 17.8125V2.77083C18.375 2.55233 18.1977 2.375 17.9792 2.375H1.35416C0.698657 2.375 0.166656 1.843 0.166656 1.1875C0.166656 0.532 0.698657 0 1.35416 0H17.9792C19.5071 0 20.75 1.24292 20.75 2.77083V17.8125C20.75 19.3404 19.5071 20.5833 17.9792 20.5833Z" fill="black"/>
<path d="M29.0625 26.9167H13.2292C11.7013 26.9167 10.4583 25.6738 10.4583 24.1458V19.3958C10.4583 18.7403 10.9903 18.2083 11.6458 18.2083C12.3013 18.2083 12.8333 18.7403 12.8333 19.3958V24.1458C12.8333 24.3612 13.0138 24.5417 13.2292 24.5417H29.0625C29.2778 24.5417 29.4583 24.3612 29.4583 24.1458V9.10418C29.4583 8.88884 29.2778 8.70834 29.0625 8.70834H19.5625C18.907 8.70834 18.375 8.17634 18.375 7.52084C18.375 6.86534 18.907 6.33334 19.5625 6.33334H29.0625C30.5904 6.33334 31.8333 7.57626 31.8333 9.10418V24.1458C31.8333 25.6738 30.5904 26.9167 29.0625 26.9167Z" fill="black"/>
</svg>
