<svg width="36" height="38" viewBox="0 0 36 38" fill="none" xmlns="http://www.w3.org/2000/svg">
<path d="M27.8958 38H8.10417C5.70225 38 3.75 36.0478 3.75 33.6458V13.0625C3.75 12.407 4.282 11.875 4.9375 11.875C5.593 11.875 6.125 12.407 6.125 13.0625V33.6458C6.125 34.7368 7.01325 35.625 8.10417 35.625H27.8958C28.9868 35.625 29.875 34.7368 29.875 33.6458V13.0625C29.875 12.407 30.407 11.875 31.0625 11.875C31.718 11.875 32.25 12.407 32.25 13.0625V33.6458C32.25 36.0478 30.2978 38 27.8958 38Z" fill="black"/>
<path d="M34.2292 14.25H1.77083C1.11533 14.25 0.583328 13.718 0.583328 13.0625V9.10417C0.583328 6.70225 2.53558 4.75 4.9375 4.75H31.0625C33.4644 4.75 35.4167 6.70225 35.4167 9.10417V13.0625C35.4167 13.718 34.8847 14.25 34.2292 14.25ZM2.95833 11.875H33.0417V9.10417C33.0417 8.01325 32.1534 7.125 31.0625 7.125H4.9375C3.84658 7.125 2.95833 8.01325 2.95833 9.10417V11.875Z" fill="black"/>
<path d="M24.7292 7.125C24.0737 7.125 23.5417 6.593 23.5417 5.9375V2.77083C23.5417 2.55233 23.3643 2.375 23.1458 2.375H12.8542C12.6357 2.375 12.4583 2.55233 12.4583 2.77083V5.9375C12.4583 6.593 11.9263 7.125 11.2708 7.125C10.6153 7.125 10.0833 6.593 10.0833 5.9375V2.77083C10.0833 1.24292 11.3262 0 12.8542 0H23.1458C24.6737 0 25.9167 1.24292 25.9167 2.77083V5.9375C25.9167 6.593 25.3847 7.125 24.7292 7.125Z" fill="black"/>
<path d="M18 31.6667C17.3445 31.6667 16.8125 31.1347 16.8125 30.4792V20.1875C16.8125 19.532 17.3445 19 18 19C18.6555 19 19.1875 19.532 19.1875 20.1875V30.4792C19.1875 31.1347 18.6555 31.6667 18 31.6667Z" fill="black"/>
<path d="M11.2708 31.6667C10.6153 31.6667 10.0833 31.1347 10.0833 30.4792V20.1875C10.0833 19.532 10.6153 19 11.2708 19C11.9263 19 12.4583 19.532 12.4583 20.1875V30.4792C12.4583 31.1347 11.9263 31.6667 11.2708 31.6667Z" fill="black"/>
<path d="M24.7292 31.6667C24.0737 31.6667 23.5417 31.1347 23.5417 30.4792V20.1875C23.5417 19.532 24.0737 19 24.7292 19C25.3847 19 25.9167 19.532 25.9167 20.1875V30.4792C25.9167 31.1347 25.3847 31.6667 24.7292 31.6667Z" fill="black"/>
</svg>
