<svg width="38" height="38" viewBox="0 0 38 38" fill="none" xmlns="http://www.w3.org/2000/svg">
<path d="M33.6458 38H4.35417C1.95225 38 0 36.0478 0 33.6458V26.5208C0 25.8653 0.532 25.3333 1.1875 25.3333C1.843 25.3333 2.375 25.8653 2.375 26.5208V33.6458C2.375 34.7368 3.26325 35.625 4.35417 35.625H33.6458C34.7368 35.625 35.625 34.7368 35.625 33.6458V26.5208C35.625 25.8653 36.157 25.3333 36.8125 25.3333C37.468 25.3333 38 25.8653 38 26.5208V33.6458C38 36.0478 36.0478 38 33.6458 38Z" fill="black"/>
<path d="M19 26.9167C18.3445 26.9167 17.8125 26.3847 17.8125 25.7292V1.1875C17.8125 0.532 18.3445 0 19 0C19.6555 0 20.1875 0.532 20.1875 1.1875V25.7292C20.1875 26.3847 19.6555 26.9167 19 26.9167Z" fill="black"/>
<path d="M25.3333 8.70833C25.0293 8.70833 24.7253 8.59275 24.4942 8.36L19 2.86741L13.5058 8.36C13.0419 8.82391 12.2898 8.82391 11.8259 8.36C11.362 7.89608 11.362 7.144 11.8259 6.68008L18.1592 0.346747C18.6232 -0.117169 19.3752 -0.117169 19.8392 0.346747L26.1725 6.68008C26.6364 7.144 26.6364 7.89608 26.1725 8.36C25.9413 8.59275 25.6373 8.70833 25.3333 8.70833Z" fill="black"/>
</svg>
