<svg width="38" height="38" viewBox="0 0 38 38" fill="none" xmlns="http://www.w3.org/2000/svg">
<path d="M8.50566 37.2067C8.08925 37.2067 7.676 37.0769 7.32291 36.822C6.66583 36.3454 6.35866 35.5268 6.53758 34.7367L8.98225 23.9685L0.691915 16.6978C0.0823318 16.1658 -0.150418 15.3235 0.0997484 14.5524C0.349915 13.7829 1.03075 13.2382 1.83666 13.1638L12.806 12.1679L17.1427 2.01874C17.4626 1.27299 18.1909 0.791656 19 0.791656C19.8091 0.791656 20.5374 1.27299 20.8572 2.01716L25.194 12.1679L36.1617 13.1638C36.9692 13.2367 37.6501 13.7829 37.9002 14.5524C38.1504 15.3219 37.9192 16.1658 37.3097 16.6978L29.0193 23.9669L31.464 34.7352C31.6429 35.5268 31.3357 36.3454 30.6787 36.8204C30.0232 37.2954 29.1492 37.3318 28.4588 36.917L19 31.2645L9.54116 36.9202C9.22133 37.1102 8.86508 37.2067 8.50566 37.2067ZM19 28.8293C19.3594 28.8293 19.7157 28.9259 20.0355 29.1159L28.9623 34.4549L26.6554 24.2915C26.4907 23.5679 26.7362 22.8127 27.2951 22.3234L35.1231 15.4581L24.7665 14.5176C24.0207 14.4495 23.3795 13.9808 23.0882 13.2937L19 3.71607L14.9071 13.2952C14.6189 13.9777 13.9777 14.4463 13.2335 14.5144L2.87533 15.4549L10.7033 22.3202C11.2638 22.8111 11.5092 23.5647 11.343 24.2899L9.03766 34.4533L17.9645 29.1159C18.2843 28.9259 18.6406 28.8293 19 28.8293ZM12.7221 12.3642C12.7221 12.3642 12.7221 12.3658 12.7205 12.3674L12.7221 12.3642ZM25.2747 12.3595L25.2763 12.3627C25.2763 12.3611 25.2763 12.3611 25.2747 12.3595Z" fill="black"/>
</svg>
