<svg width="36" height="33" viewBox="0 0 36 33" fill="none" xmlns="http://www.w3.org/2000/svg">
<path d="M34.8125 32.8333H13.4375C12.782 32.8333 12.25 32.3013 12.25 31.6458C12.25 30.9903 12.782 30.4583 13.4375 30.4583H34.8125C35.468 30.4583 36 30.9903 36 31.6458C36 32.3013 35.468 32.8333 34.8125 32.8333Z" fill="black"/>
<path d="M1.56251 32.8333C1.2506 32.8333 0.948181 32.7114 0.723348 32.485C0.432014 32.1937 0.313264 31.7741 0.406681 31.3735L2.13251 24.0506C2.18318 23.8352 2.29243 23.6389 2.44918 23.4837L24.2818 1.65116C25.6244 0.30691 27.9741 0.303743 29.3199 1.65116L31.5588 3.88999C32.2317 4.56291 32.6022 5.45749 32.6022 6.40908C32.6022 7.36066 32.2317 8.25683 31.5588 8.92816L9.72618 30.7592C9.56943 30.9159 9.3731 31.0252 9.15935 31.0758L1.83643 32.8017C1.7446 32.8238 1.65276 32.8333 1.56251 32.8333ZM4.3666 24.923L3.15851 30.0498L8.28535 28.8417L29.8788 7.24824C30.1037 7.02341 30.2272 6.72574 30.2272 6.40908C30.2272 6.09241 30.1037 5.79316 29.8788 5.56991L27.64 3.32949C27.1919 2.88141 26.4082 2.88141 25.9617 3.32949L4.3666 24.923ZM8.88543 29.92H8.90127H8.88543Z" fill="black"/>
<path d="M25.9284 14.0645C25.6244 14.0645 25.3204 13.9489 25.0893 13.7161L19.4906 8.11748C19.0267 7.65357 19.0267 6.90148 19.4906 6.43757C19.9545 5.97365 20.7066 5.97365 21.1705 6.43757L26.7692 12.0362C27.2331 12.5001 27.2331 13.2522 26.7692 13.7161C26.5364 13.9489 26.2324 14.0645 25.9284 14.0645Z" fill="black"/>
</svg>
