<svg width="132" height="140" viewBox="0 0 132 140" fill="none" xmlns="http://www.w3.org/2000/svg">
<path d="M106.136 92.3866L90.9601 78.7786C90.8811 78.7083 90.8489 78.5994 90.8769 78.4972C90.9044 78.395 90.9864 78.3174 91.09 78.2956L102.962 75.8167L107.73 61.7417C107.755 61.6683 107.809 61.6084 107.88 61.5762C107.95 61.5451 108.03 61.5437 108.103 61.5726C113.345 63.7456 130.481 70.9237 130.861 72.0457C130.887 72.1221 130.877 72.2579 130.836 72.3276C130.478 72.9473 126.027 83.3286 123.723 88.7314C123.687 88.8157 123.612 88.8773 123.522 88.8961L106.381 92.4524C106.362 92.4563 106.343 92.4582 106.324 92.4582C106.255 92.4585 106.188 92.4333 106.136 92.3866ZM130.279 72.1846C129.128 71.1236 116.346 65.602 108.164 62.2056L103.441 76.1485C103.41 76.2423 103.33 76.3126 103.233 76.3328L91.7466 78.7312L106.405 91.8747L123.265 88.377C123.935 86.805 129.475 73.8251 130.279 72.1846Z" fill="#251626"/>
<path d="M126.533 72.7731C126.533 72.7731 122.172 83.4949 121.534 84.9114C121.376 85.2611 106.11 76.1468 106.11 75.63C106.11 75.1131 110.152 64.9018 110.152 64.9018L126.533 72.7731Z" fill="#E9546A"/>
<path d="M96.2484 79.765C96.1677 79.6933 96.1361 79.5819 96.1658 79.4783C96.1955 79.3747 96.282 79.2977 96.3881 79.2795C97.0758 79.1619 103.124 78.1301 103.664 78.1301C104.645 78.1301 114.488 85.1844 117.481 87.3466C117.57 87.4112 117.614 87.5221 117.592 87.6302C117.569 87.738 117.486 87.8231 117.378 87.8472C114.036 88.599 108.933 89.7764 108.576 89.936C108.537 89.9553 108.478 89.9688 108.434 89.9688C107.781 89.969 100.519 83.5761 96.2484 79.765ZM103.664 78.6909C103.317 78.6909 99.717 79.2826 97.0567 79.7345C101.221 83.4408 107.558 88.9594 108.434 89.3936C109.324 89.1016 114.566 87.908 116.648 87.4373C111.82 83.9614 104.419 78.7926 103.664 78.6909Z" fill="#251626"/>
<path d="M105.472 94.6459C105.929 94.6459 113.635 93.2215 121.895 91.6824C123.294 91.422 124.214 91.2503 124.284 91.2394C124.465 91.2346 124.473 91.2439 128.049 82.5387C129.352 79.366 131.581 73.92 131.665 73.6341C131.836 73.0531 131.036 72.2254 130.787 71.9855C130.676 71.8788 130.498 71.8816 130.391 71.993C130.283 72.1045 130.287 72.282 130.398 72.3892C130.818 72.7941 131.172 73.3219 131.127 73.4756C130.977 73.9598 124.72 89.1985 124.053 90.7113C123.809 90.755 123.227 90.8636 121.792 91.131C117.545 91.9223 106.374 94.0038 105.504 94.0828C104.355 93.5544 92.1928 82.4362 91.7695 81.5189C91.6407 80.8265 91.4284 78.566 91.4262 78.5434C91.4114 78.3891 91.2697 78.2751 91.1207 78.2902C90.9667 78.3048 90.8536 78.4417 90.8676 78.5957C90.8763 78.6895 91.0849 80.9052 91.2274 81.6536C91.3892 82.5042 104.702 94.6459 105.472 94.6459Z" fill="#251626"/>
<path d="M124.245 91.2422C124.275 91.2422 124.304 91.2374 124.334 91.2276C124.48 91.1789 124.56 91.0202 124.511 90.8732L123.731 88.5329C123.682 88.3862 123.523 88.3067 123.377 88.3557C123.23 88.4044 123.15 88.5632 123.199 88.7102L123.979 91.0504C124.018 91.168 124.128 91.2422 124.245 91.2422Z" fill="#251626"/>
<path d="M118.243 73.0055C118.243 73.0055 115.464 78.0654 115.107 77.6379C114.751 77.2103 112.471 73.0055 112.471 73.0055H118.243Z" fill="white"/>
<path d="M123.465 88.9022C123.559 88.9022 123.65 88.8552 123.704 88.7695C123.785 88.6379 123.745 88.4652 123.613 88.3834L103.324 75.8201C103.193 75.7389 103.02 75.7792 102.938 75.9111C102.856 76.0427 102.897 76.2154 103.028 76.2972L123.317 88.8605C123.363 88.8888 123.415 88.9022 123.465 88.9022Z" fill="#251626"/>
<path d="M110.873 89.3393C110.952 89.3393 111.03 89.3066 111.085 89.2424C111.187 89.1251 111.174 88.9482 111.057 88.8468L99.5064 78.8581C99.3894 78.7573 99.2124 78.7693 99.1111 78.8869C99.0097 79.0042 99.0223 79.1812 99.1396 79.2826L110.69 89.2713C110.743 89.3169 110.808 89.3393 110.873 89.3393Z" fill="#251626"/>
<path d="M99.6473 82.6778C99.6753 82.6778 99.7041 82.6736 99.7327 82.6647L106.767 80.4208C106.914 80.3737 106.996 80.2161 106.949 80.0685C106.901 79.9212 106.746 79.8395 106.596 79.8865L99.5619 82.1304C99.4146 82.1775 99.3331 82.3351 99.3802 82.4827C99.4185 82.6022 99.5286 82.6778 99.6473 82.6778Z" fill="#251626"/>
<path d="M106.111 88.2395C106.146 88.2395 106.182 88.233 106.216 88.2188L113.692 85.171C113.836 85.1127 113.905 84.9489 113.846 84.8056C113.788 84.6619 113.624 84.5928 113.481 84.6518L106.005 87.6996C105.862 87.7579 105.792 87.9217 105.851 88.065C105.895 88.1737 106 88.2395 106.111 88.2395Z" fill="#251626"/>
<path d="M105.898 84.6171C105.931 84.6171 105.964 84.6112 105.997 84.5989L110.463 82.9144C110.607 82.8598 110.68 82.6983 110.626 82.5532C110.571 82.4082 110.411 82.3346 110.264 82.3897L105.799 84.0742C105.654 84.1288 105.581 84.2904 105.636 84.4354C105.678 84.5482 105.785 84.6171 105.898 84.6171Z" fill="#251626"/>
<path d="M113.587 88.3943C113.669 88.3943 113.751 88.3579 113.806 88.2882C113.902 88.167 113.882 87.9906 113.761 87.8945L101.869 78.4658C101.748 78.3692 101.572 78.3897 101.475 78.5112C101.379 78.6324 101.399 78.8088 101.52 78.9049L113.412 88.3336C113.464 88.3745 113.525 88.3943 113.587 88.3943Z" fill="#251626"/>
<path d="M105.472 94.6459C105.585 94.6459 105.69 94.5781 105.734 94.467L106.585 92.2793C106.641 92.1351 106.569 91.9727 106.425 91.9165C106.281 91.8602 106.119 91.9319 106.062 92.0761L105.211 94.2637C105.155 94.4079 105.227 94.5703 105.37 94.6266C105.404 94.64 105.439 94.6459 105.472 94.6459Z" fill="#251626"/>
<path d="M30.6679 6.71076C30.6679 6.71076 26.6701 -2.73056 18.6747 1.267C10.6793 5.26456 16.7628 13.7816 16.5889 7.69804C16.4148 1.61476 8.76715 3.96508 6.50755 10.0033C4.24795 16.0415 9.11491 24.1954 9.11491 20.0315C9.11491 15.8676 6.50755 14.8092 3.55271 20.0315C0.597867 25.2538 2.33611 38.5 5.29095 34.9185C8.24579 31.337 1.16039 30.1568 0.705386 34.9185C0.250387 39.6802 0.946186 46.8574 6.19283 46.1807C10.5026 45.6246 9.81015 39.1944 4.59571 43.3482C-0.618733 47.502 0.597867 59.0165 7.37667 58.9084C14.1555 58.8003 17.6317 52.1206 13.8077 51.7233C9.98375 51.326 10.679 61.1767 16.5887 57.4681C22.4983 53.7594 20.7601 40.3757 16.7625 42.2876C12.765 44.1994 18.5008 50.4221 21.1079 46.0942C23.7149 41.7662 23.9415 34.8382 20.2911 36.4456C16.641 38.0531 20.5862 42.46 23.8888 37.662C27.1914 32.8639 21.6816 25.9468 19.0219 27.9992C16.3621 30.0516 23.8888 28.1 25.2793 24.6781C26.6698 21.2559 23.0197 15.8791 19.5435 17.9665C16.0673 20.0536 26.3223 22.538 22.3245 13.2958C20.2816 8.57304 28.0197 10.827 28.0197 10.827" fill="#DD7C2E"/>
<path d="M1.71085 54.7887C0.701727 51.9756 0.868607 48.1298 2.55365 45.2964C-0.0889927 42.6493 0.255967 36.6713 0.425647 34.8916C0.549407 33.6028 1.16065 32.5833 2.11657 32.0057C1.42665 28.2932 1.67585 22.7791 3.30825 19.8934C4.20565 18.3078 5.11537 17.2105 5.97833 16.6502C5.50793 14.5933 5.40713 12.1447 6.24489 9.905C7.78573 5.78872 11.5806 3.486 14.1574 3.91188C14.4668 3.9634 14.7527 4.05272 15.0134 4.17788C15.6481 3.04052 16.7496 1.91604 18.5492 1.01612C20.7931 -0.105283 22.9458 -0.299883 24.9483 0.438757C28.8944 1.89392 30.8448 6.41004 30.9258 6.60156C30.9865 6.7438 30.9196 6.90844 30.7774 6.96892C30.6354 7.02912 30.4702 6.96276 30.41 6.82024C30.391 6.77544 28.4688 2.33268 24.7512 0.963477C22.9015 0.281677 20.899 0.468157 18.8001 1.5176C17.1075 2.36376 16.0813 3.41544 15.4964 4.47132C16.3414 5.1086 16.8269 6.22076 16.8692 7.6902C16.9218 9.53848 16.4201 10.0164 15.9897 10.092C15.4269 10.1889 14.8322 9.58468 14.5018 8.58508C14.1902 7.64008 14.1008 6.17624 14.763 4.67964C14.5505 4.57884 14.3178 4.5066 14.0653 4.4646C11.7567 4.0782 8.19201 6.3014 6.77045 10.1013C6.01249 12.1262 6.07661 14.4183 6.49325 16.3769C6.90289 16.21 7.29937 16.1736 7.67541 16.2719C8.75201 16.5556 9.39489 17.9606 9.39489 20.0312C9.39489 20.8104 9.22997 21.2601 8.89061 21.4052C8.70497 21.4852 8.40061 21.4978 7.99909 21.1142C7.41165 20.5531 6.62849 19.0929 6.12421 17.234C5.38921 17.7738 4.58281 18.7799 3.79629 20.1692C2.17873 23.0278 2.01073 28.261 2.62617 31.7528C2.79361 31.6862 2.96889 31.6316 3.15117 31.5885C4.36413 31.3054 5.55721 31.6635 6.05281 32.4615C6.31405 32.8821 6.59013 33.7837 5.50681 35.0969C4.70237 36.0713 4.01749 35.8285 3.67897 35.5958C3.06073 35.1705 2.56961 34.064 2.23837 32.5998C1.53137 33.1047 1.08141 33.9256 0.983967 34.9451C0.651047 38.4264 0.978367 42.8005 2.86389 44.8109C3.29817 44.1801 3.81561 43.6108 4.42069 43.1287C6.72425 41.2938 7.98649 41.5912 8.53529 41.9317C9.15801 42.3186 9.42737 43.0962 9.23949 43.9614C9.02221 44.9621 8.10325 46.2165 6.22837 46.4587C4.95801 46.6214 3.86881 46.3571 2.97897 45.6716C1.42833 48.342 1.28805 51.9498 2.23809 54.5994C3.15817 57.1645 4.99469 58.6286 7.28565 58.6286C7.31421 58.6286 7.34305 58.6284 7.37217 58.6278C9.12777 58.5998 10.6748 58.1078 11.9143 57.3966C11.032 56.1532 10.9489 54.2352 11.496 52.9623C11.956 51.8913 12.8058 51.3394 13.8365 51.4444C15.0318 51.5687 15.7164 52.2973 15.6688 53.3938C15.612 54.6868 14.56 56.3231 12.7843 57.5271C13.6671 58.2806 14.9308 58.177 16.44 57.2306C19.3892 55.3798 20.3129 51.0339 20.0716 47.5429C19.3422 47.9478 18.6242 47.9063 18.1622 47.8069C16.6603 47.4824 15.2978 46.0244 15.1259 44.5564C14.9971 43.4594 15.5356 42.5634 16.6416 42.0344C17.7593 41.5005 18.8379 41.9874 19.6 43.3717C20.0256 44.1445 20.3479 45.2147 20.5266 46.4332C20.6433 46.293 20.7576 46.1325 20.8676 45.9494C22.0828 43.9328 22.778 41.2849 22.7727 39.2977C21.8818 40.0011 20.93 40.2704 20.0506 40.0347C19.2156 39.8093 18.6147 39.1308 18.5551 38.3463C18.5234 37.9268 18.6181 36.8763 20.1788 36.1892C21.4301 35.6378 22.1643 36.0587 22.5596 36.5078C22.8875 36.8805 23.1084 37.4192 23.2288 38.0694C23.375 37.8949 23.5189 37.7059 23.6581 37.5032C25.7357 34.4848 24.1223 30.7146 22.3138 29.001C22.0565 28.7574 21.7661 28.5298 21.4618 28.3464C20.325 28.8624 19.2587 29.1346 18.7721 29.1164C18.3801 29.1012 18.2432 28.9276 18.1972 28.7846C18.1068 28.502 18.3022 28.2005 18.851 27.7774C19.5678 27.2247 20.5128 27.2168 21.4872 27.7155C22.9696 26.9954 24.4852 25.8896 25.0203 24.5728C25.8449 22.542 24.7618 19.9212 23.2854 18.6572C23.2669 18.6413 23.2476 18.6253 23.2286 18.6091C22.8912 19.3474 22.3536 19.7218 21.984 19.9013C20.6954 20.5274 19.0708 20.1051 18.6441 19.3194C18.5038 19.061 18.2969 18.3879 19.3993 17.726C20.5252 17.05 21.7737 17.0554 22.9248 17.7156C23.1143 16.6418 22.8307 15.1704 22.0677 13.4075C21.5682 12.2531 21.5796 11.368 22.1016 10.7769C23.4657 9.23132 27.9099 10.5036 28.0983 10.5582C28.2473 10.6016 28.3327 10.757 28.2896 10.9057C28.2459 11.0541 28.093 11.1398 27.9418 11.0967C26.7524 10.75 23.4615 10.0842 22.5224 11.1482C22.1567 11.5623 22.1769 12.2478 22.5826 13.1849C23.5749 15.4792 23.6794 17.0195 23.4232 18.0477C23.4999 18.1059 23.5755 18.167 23.6505 18.2314C25.3104 19.6524 26.4712 22.4918 25.5397 24.7839C24.9724 26.1811 23.5055 27.3067 22.0526 28.0602C22.2693 28.2139 22.4863 28.392 22.6999 28.5944C24.6538 30.4447 26.3858 34.5307 24.1209 37.8218C23.8664 38.1912 23.5979 38.5196 23.3198 38.8041C23.4682 40.952 22.7509 43.9116 21.3492 46.2392C21.1176 46.6234 20.869 46.9224 20.6139 47.1528C20.9709 50.881 20.022 55.6455 16.7387 57.706C14.4251 59.1587 13.0394 58.4833 12.4183 57.9516C12.3755 57.9152 12.334 57.8774 12.294 57.8385C10.9665 58.6208 9.29857 59.1584 7.38225 59.1892C7.35005 59.1898 7.31757 59.19 7.28537 59.19C4.74325 59.1895 2.71521 57.5904 1.71085 54.7887ZM12.0115 53.1835C11.5346 54.294 11.6116 56.0305 12.3931 57.1015C14.0566 56.0008 15.0582 54.5138 15.1086 53.3694C15.1436 52.5689 14.6835 52.0962 13.7786 52.0024C13.7128 51.9957 13.6498 51.9924 13.5884 51.9924C12.6675 51.9924 12.208 52.726 12.0115 53.1835ZM19.1086 43.6425C18.6783 42.8596 17.9413 42.0342 16.8832 42.5407C15.7646 43.0758 15.6128 43.8967 15.6823 44.4914C15.8262 45.7187 17.0156 46.986 18.2801 47.259C18.7707 47.3648 19.4021 47.3533 20.0144 46.9157C19.8655 45.596 19.5468 44.4377 19.1086 43.6425ZM4.77013 43.5677C4.18745 44.0314 3.69185 44.5824 3.27857 45.1937C4.05725 45.8105 5.02493 46.0499 6.15613 45.9026C7.74205 45.6982 8.51289 44.6653 8.69209 43.843C8.82789 43.216 8.65485 42.6664 8.23989 42.4085C8.05761 42.2951 7.83641 42.24 7.58329 42.24C6.85277 42.2397 5.85709 42.7017 4.77013 43.5677ZM22.1391 36.8782C21.7373 36.4224 21.1708 36.3653 20.4042 36.7021C19.5362 37.0846 19.0658 37.6684 19.114 38.304C19.1557 38.852 19.5902 39.3296 20.1964 39.4932C20.9942 39.7104 21.8972 39.3778 22.7377 38.5902C22.6638 37.8524 22.4681 37.2523 22.1391 36.8782ZM3.27969 32.135C3.08845 32.1796 2.90673 32.2403 2.73593 32.3165C3.03609 33.7268 3.47401 34.7743 3.99705 35.1341C4.12837 35.2246 4.47725 35.4642 5.07477 34.7402C5.71261 33.9674 5.89069 33.2634 5.57681 32.7578C5.30017 32.312 4.67773 32.0538 3.97129 32.0538C3.74617 32.0541 3.51293 32.0804 3.27969 32.135ZM19.1935 28.2212C18.9947 28.3746 18.8813 28.4844 18.8172 28.5578C18.82 28.5578 18.8222 28.5578 18.8242 28.5578C19.0935 28.5578 19.6838 28.46 20.5935 28.1058C20.657 28.0812 20.7212 28.0554 20.7856 28.0288C20.2292 27.8443 19.6644 27.8569 19.1935 28.2212ZM6.62317 16.9344C7.03001 18.5335 7.65637 19.852 8.21721 20.5257C8.48657 20.8485 8.65037 20.8953 8.66997 20.89C8.67165 20.8891 8.83433 20.7752 8.83433 20.0315C8.83433 18.2588 8.33537 17.026 7.53261 16.8146C7.44497 16.7913 7.35341 16.7798 7.25989 16.7798C7.05913 16.7798 6.84605 16.8322 6.62317 16.9344ZM19.688 18.2067C19.4032 18.3775 18.9535 18.7144 19.1366 19.0523C19.4026 19.5437 20.7021 19.901 21.7381 19.3973C22.2234 19.1615 22.5666 18.7821 22.7677 18.2764C22.0285 17.815 20.925 17.4639 19.688 18.2067ZM15.0346 8.40952C15.2953 9.19996 15.6924 9.57516 15.8928 9.53988C16.0802 9.50712 16.345 8.99136 16.3084 7.70616C16.2728 6.46072 15.9038 5.5328 15.2444 4.98652C14.6838 6.30644 14.7608 7.58072 15.0346 8.40952Z" fill="#251626"/>
<path d="M105.372 18.4027C105.372 18.4027 109.886 7.93744 111.416 8.27064C112.947 8.60384 110.142 13.5447 109.667 13.8606C109.191 14.1767 114.863 9.03364 114.995 10.0302C115.127 11.0267 110.809 16.5192 110.809 16.5192C110.809 16.5192 117.743 10.1125 117.204 12.1716C116.664 14.2307 111.81 19.3648 111.81 19.3648C111.81 19.3648 119.719 18.1896 118.881 19.2856C118.043 20.3815 108.24 23.3299 106.6 22.9124C104.96 22.4949 105.372 18.4027 105.372 18.4027Z" fill="#EA8060"/>
<path d="M70.6174 51.2299L105.835 17.9665L108.265 21.5891L78.5216 61.2049L70.6174 51.2299Z" fill="#EA8060"/>
<path d="M78.9833 72.1165L80.1388 87.8133L62.8287 89.7003L64.715 72.1165H78.9833Z" fill="#EA8060"/>
<path d="M93.8378 129.585L92.1357 139.629L94.8495 140L94.4023 136.88C94.4023 136.88 95.0197 141.234 102.187 139.61C102.187 139.61 93.0667 135.443 98.8778 129.937L93.8378 129.585Z" fill="#251426"/>
<path d="M32.8981 13.5472L27.8953 11.0785C27.8242 11.0432 27.771 10.9791 27.7497 10.9018C27.7285 10.8248 27.7405 10.7425 27.7836 10.6753L30.4319 6.559C30.4795 6.48536 30.559 6.43804 30.6466 6.43104C30.7348 6.42208 30.8191 6.45904 30.8776 6.52428L35.1499 11.3355C35.2512 11.4498 35.2425 11.6239 35.1308 11.7275L33.2131 13.501C33.1599 13.55 33.0916 13.5755 33.0224 13.5755C32.9801 13.5764 32.9376 13.5668 32.8981 13.5472ZM30.7035 7.17332L28.4254 10.7145L32.9737 12.959L34.5481 11.503L30.7035 7.17332Z" fill="#251626"/>
<path d="M65.4862 18.4957C65.4862 18.4957 60.8166 -6.27901 37.6203 6.71076C20.8225 16.1176 28.6706 34.4901 36.7957 36.3031C44.9207 38.1161 67.1194 24.0713 65.4862 18.4957Z" fill="#DD7C2E"/>
<path d="M26.8022 129.534L19.1952 136.31L17.4399 134.207L20.3208 132.929C20.3208 132.929 16.3033 134.718 13.8741 127.782C13.8741 127.782 22.248 133.298 23.8278 125.45L26.8022 129.534Z" fill="#251426"/>
<path d="M33.6499 26.5191C33.6499 26.5191 39.6466 8.95636 55.269 9.82128C66.9573 10.4686 79.041 45.0425 62.5904 50.6825C50.9295 54.6804 32.0166 35.7776 33.6499 26.5191Z" fill="#EA8060"/>
<path d="M55.164 33.7996C55.183 33.7996 55.2023 33.7977 55.2214 33.7938C55.3894 33.759 59.3508 32.9378 60.5139 32.5702C60.6808 32.5175 60.7906 32.3949 60.8158 32.2333C60.9614 31.3009 56.2462 27.8127 53.4229 25.8166C53.2969 25.7281 53.1216 25.7566 53.032 25.8838C52.9427 26.0103 52.973 26.1853 53.099 26.2744C56.3794 28.5936 59.8206 31.3093 60.2241 32.0729C58.9459 32.4495 55.1474 33.2366 55.108 33.2447C54.9562 33.276 54.8588 33.4244 54.8907 33.5759C54.9176 33.7084 55.0343 33.7996 55.164 33.7996Z" fill="#251626"/>
<path d="M47.7362 31.6392C47.8428 31.6392 47.9436 31.619 48.0374 31.5748C49.2143 31.0232 47.8266 27.6315 47.3733 26.605C47.3114 26.4634 47.1448 26.4001 47.0037 26.462C46.8623 26.5247 46.7979 26.6902 46.8609 26.8318C47.6698 28.6642 48.2539 30.854 47.8 31.0671C47.3083 31.2956 45.688 29.615 44.4708 27.9045C44.3804 27.7788 44.2051 27.7502 44.0799 27.8387C43.9539 27.9286 43.9245 28.1036 44.0141 28.2296C44.6147 29.0746 46.5403 31.6392 47.7362 31.6392Z" fill="#251626"/>
<path d="M59.5622 25.8009C59.6837 25.8009 59.7943 25.7796 59.8923 25.7334C61.0697 25.1815 59.682 21.7899 59.2287 20.7634C59.1668 20.622 59.0002 20.5579 58.8591 20.6203C58.7177 20.683 58.6533 20.8485 58.7163 20.9902C59.5252 22.8225 60.1093 25.0124 59.6549 25.2258C59.1307 25.4666 57.1212 23.9361 55.5534 22.3748C55.444 22.2659 55.2664 22.2662 55.157 22.3756C55.048 22.4854 55.048 22.6629 55.1581 22.7724C55.9144 23.5259 58.3039 25.8003 59.5622 25.8009Z" fill="#251626"/>
<path d="M35.7334 43.0682C37.6568 43.0682 39.216 41.509 39.216 39.5856C39.216 37.6622 37.6568 36.1029 35.7334 36.1029C33.81 36.1029 32.2507 37.6622 32.2507 39.5856C32.2507 41.509 33.81 43.0682 35.7334 43.0682Z" fill="#EA8060"/>
<path d="M69.148 22.5372C70.942 22.5372 72.3963 21.0829 72.3963 19.2889C72.3963 17.4949 70.942 16.0406 69.148 16.0406C67.354 16.0406 65.8997 17.4949 65.8997 19.2889C65.8997 21.0829 67.354 22.5372 69.148 22.5372Z" fill="#EA8060"/>
<path d="M37.5887 40.894C37.6259 40.894 37.6637 40.8867 37.6998 40.871C37.8421 40.8097 37.9073 40.6445 37.846 40.5026C37.4232 39.5237 36.8341 38.9455 36.0943 38.7845C34.8452 38.5132 33.6773 39.5539 33.6281 39.5982C33.513 39.7018 33.5043 39.8784 33.6079 39.9935C33.7109 40.1092 33.8887 40.1187 34.0033 40.0145C34.0136 40.0056 35.0118 39.121 35.9773 39.3324C36.5291 39.4537 36.9847 39.9221 37.3313 40.7246C37.3767 40.8307 37.4803 40.894 37.5887 40.894Z" fill="#251626"/>
<path d="M69.7494 21.8694C69.8194 21.8694 69.8897 21.8434 69.9438 21.791C70.0555 21.6838 70.0588 21.506 69.9513 21.3945C69.1004 20.5103 68.7204 19.7254 68.8523 19.1251C68.9909 18.4932 69.6486 18.2297 69.6551 18.2274C69.7996 18.1712 69.871 18.0088 69.8144 17.8643C69.7581 17.7198 69.5954 17.6484 69.4512 17.705C69.4129 17.7201 68.5065 18.083 68.3041 19.005C68.1277 19.8083 68.546 20.743 69.547 21.7834C69.6027 21.8408 69.6761 21.8694 69.7494 21.8694Z" fill="#251626"/>
<path d="M46.148 40.9822C47.9817 40.9822 49.4682 39.4957 49.4682 37.662C49.4682 35.8282 47.9817 34.3417 46.148 34.3417C44.3143 34.3417 42.8277 35.8282 42.8277 37.662C42.8277 39.4957 44.3143 40.9822 46.148 40.9822Z" fill="#E66357"/>
<path d="M64.1377 31.8802C65.9714 31.8802 67.4579 30.3937 67.4579 28.56C67.4579 26.7263 65.9714 25.2398 64.1377 25.2398C62.304 25.2398 60.8174 26.7263 60.8174 28.56C60.8174 30.3937 62.304 31.8802 64.1377 31.8802Z" fill="#E66357"/>
<path d="M80.1388 87.8133L108.467 100.946L102.187 135.615L89.3606 133.355L97.3815 105.587L78.3885 97.4848L80.1388 87.8133Z" fill="#E9546A"/>
<path d="M70.914 92.0587L27.0464 136.353L20.3381 125.606L62.8287 89.189L70.914 92.0587Z" fill="#E9546A"/>
<path d="M53.2608 47.2122L60.5408 57.468L55.3558 61.8134C55.3558 61.8134 70.8454 77.3315 77.4382 66.383C79.349 63.21 70.6174 51.2296 70.6174 51.2296L63.7843 55.309L61.0358 46.0939L53.2608 47.2122Z" fill="#EA8060"/>
<path d="M56.5007 61.8668L16.9188 92.7651L20.1864 96.3206L61.0092 70.4088L56.5007 61.8668Z" fill="#EA8060"/>
<path d="M80.1388 87.8133L62.8287 89.189L65.1765 97.8522L78.9833 97.4683L80.1388 87.8133Z" fill="#E9546A"/>
<path d="M67.7399 52.8587C67.7399 52.8587 74.5366 64.3605 70.6174 64.9015C66.6983 65.4424 58.5534 58.9534 58.8222 58.9084C59.091 58.8633 55.3555 61.5199 55.3555 61.5199C55.3555 61.5199 56.1095 76.9563 65.9784 78.7038C75.8473 80.4516 88.9031 72.219 84.5855 63.6392C80.2679 55.0595 70.6174 51.2299 70.6174 51.2299L67.7399 52.8587Z" fill="#F7C67C"/>
<path d="M61.5583 73.9749L59.605 82.6104L83.4549 81.788L77.7706 72.1165L61.5583 73.9749Z" fill="#F7C67C"/>
<path d="M19.3116 90.8972C19.3116 90.8972 9.6032 85.6344 8.59492 86.833C7.58664 88.0314 12.8252 90.2308 13.3944 90.1911C13.9636 90.1513 6.33196 89.542 6.83568 90.412C7.3394 91.282 14.1134 92.9936 14.1134 92.9936C14.1134 92.9936 4.70992 92.1553 6.3944 93.4564C8.07888 94.7576 15.0584 95.8586 15.0584 95.8586C15.0584 95.8586 8.07748 99.7584 9.41084 100.114C10.7442 100.47 20.3068 96.8187 21.3506 95.4862C22.3944 94.1536 19.3116 90.8972 19.3116 90.8972Z" fill="#EA8060"/>
<path d="M65.9247 78.3238C70.0239 78.3238 74.0903 75.8419 74.1516 75.8039C74.2829 75.7224 74.3235 75.5493 74.2421 75.4177C74.1611 75.2864 73.9881 75.2453 73.8559 75.3273C73.7672 75.3822 64.9878 80.7352 60.6142 75.4088C60.5151 75.2895 60.3381 75.2718 60.2194 75.3701C60.1001 75.4684 60.0825 75.6451 60.1805 75.7647C61.7577 77.6849 63.8454 78.3238 65.9247 78.3238Z" fill="#251626"/>
<path d="M69.433 66.5386C70.8238 66.5386 72.0225 66.1256 72.9941 65.2985C74.1085 64.3499 74.701 63.1658 74.755 61.7786C74.9084 57.8698 70.7692 53.6976 70.5928 53.522C70.4845 53.4131 70.3069 53.4125 70.1963 53.5226C70.0874 53.632 70.0874 53.8098 70.1969 53.919C70.2386 53.9605 74.3395 58.0952 74.1947 61.7574C74.146 62.981 73.6199 64.0287 72.6304 64.8712C68.0224 68.7943 59.3444 61.0747 59.2573 60.9963C59.1433 60.8924 58.9661 60.9017 58.8614 61.017C58.7578 61.1321 58.7673 61.3094 58.8826 61.413C58.905 61.4331 61.1655 63.4553 63.9938 64.9401C66.0215 66.005 67.8516 66.5384 69.433 66.5386Z" fill="#251626"/>
<path d="M78.0554 75.8461C78.0761 75.8461 78.0971 75.8439 78.1184 75.8391C78.3463 75.7865 83.7186 74.5049 84.9697 70.3749C85.0145 70.2268 84.9307 70.0703 84.7823 70.0252C84.6356 69.9801 84.478 70.0641 84.4329 70.2122C83.2748 74.0348 78.0447 75.2805 77.9921 75.2926C77.8414 75.3273 77.7474 75.4779 77.7818 75.6288C77.8123 75.7585 77.9271 75.8461 78.0554 75.8461Z" fill="#251626"/>
<path d="M62.8287 90.6587C62.832 90.6587 62.8351 90.6587 62.8385 90.6584L82.3046 89.9805C82.4589 89.9752 82.5807 89.8456 82.5751 89.6904C82.5695 89.5359 82.4312 89.4082 82.285 89.4203L62.8189 90.0981C62.6646 90.1034 62.5428 90.2331 62.5484 90.3882C62.5537 90.5397 62.678 90.6587 62.8287 90.6587Z" fill="#251626"/>
<path d="M99.5694 105.91C101.38 105.91 103.538 105.871 103.675 105.868C103.829 105.865 103.953 105.737 103.95 105.582C103.947 105.429 103.822 105.307 103.669 105.307C103.668 105.307 103.666 105.307 103.664 105.307C103.619 105.308 99.4622 105.385 97.8124 105.328C98.5877 104.841 100.511 103.925 102.298 103.157C102.441 103.096 102.506 102.931 102.445 102.789C102.384 102.646 102.219 102.582 102.077 102.642C96.8313 104.896 96.903 105.326 96.9414 105.557C96.959 105.662 97.0365 105.842 97.3608 105.867C97.7805 105.899 98.6278 105.91 99.5694 105.91Z" fill="#251626"/>
<path d="M102.188 133.155C102.323 133.155 102.441 133.057 102.464 132.92C102.489 132.767 102.386 132.623 102.233 132.598L90.1211 130.603C89.9716 130.577 89.8238 130.681 89.7991 130.834C89.7739 130.987 89.8775 131.131 90.0301 131.156L102.142 133.151C102.157 133.153 102.173 133.155 102.188 133.155Z" fill="#251626"/>
<path d="M29.6481 134.006C29.7013 134.006 29.7543 133.991 29.8016 133.961C29.9312 133.876 29.9676 133.702 29.8831 133.572L23.1384 123.254C23.053 123.124 22.8783 123.088 22.7501 123.173C22.6204 123.257 22.584 123.431 22.6686 123.561L29.4132 133.879C29.4675 133.961 29.5566 134.006 29.6481 134.006Z" fill="#251626"/>
<path d="M42.6023 109.433C42.679 109.433 42.7558 109.402 42.8109 109.34C43.215 108.89 44.4663 107.916 44.4789 107.906C44.6015 107.811 44.6234 107.635 44.5282 107.512C44.433 107.39 44.2566 107.368 44.135 107.463C44.0818 107.505 42.8319 108.479 42.3937 108.965C42.2901 109.08 42.2996 109.257 42.415 109.361C42.4682 109.409 42.5357 109.433 42.6023 109.433Z" fill="#251626"/>
<path d="M45.9887 108.422C46.0654 108.422 46.1421 108.391 46.1973 108.329C46.6019 107.879 47.8526 106.905 47.8652 106.895C47.9879 106.8 48.0097 106.624 47.9145 106.502C47.8199 106.379 47.6429 106.357 47.5214 106.453C47.4682 106.494 46.2183 107.468 45.7801 107.954C45.6765 108.069 45.686 108.246 45.8013 108.35C45.8545 108.398 45.922 108.422 45.9887 108.422Z" fill="#251626"/>
<path d="M45.6263 106.031C45.7031 106.031 45.7792 106 45.8349 105.939C46.239 105.489 47.4903 104.514 47.5029 104.504C47.6255 104.409 47.6474 104.233 47.5522 104.111C47.4575 103.989 47.2806 103.967 47.1591 104.062C47.1059 104.103 45.8559 105.077 45.4177 105.563C45.3141 105.678 45.3236 105.856 45.439 105.959C45.4919 106.007 45.5594 106.031 45.6263 106.031Z" fill="#251626"/>
<path d="M49.0958 105.727C49.1725 105.727 49.2487 105.696 49.3039 105.634C49.709 105.185 50.9598 104.21 50.9724 104.2C51.095 104.105 51.1168 103.929 51.0216 103.807C50.9264 103.684 50.7501 103.662 50.6285 103.758C50.5753 103.799 49.3257 104.773 48.8878 105.259C48.7836 105.374 48.7931 105.551 48.9079 105.655C48.9614 105.703 49.0289 105.727 49.0958 105.727Z" fill="#251626"/>
<path d="M49.38 103.312C49.4567 103.312 49.5335 103.281 49.5886 103.22C49.9927 102.77 51.244 101.795 51.2566 101.785C51.3792 101.69 51.4011 101.514 51.3059 101.392C51.2112 101.27 51.0343 101.247 50.9127 101.343C50.8595 101.384 49.6096 102.358 49.1714 102.845C49.0678 102.96 49.0773 103.137 49.1927 103.24C49.2456 103.289 49.3131 103.312 49.38 103.312Z" fill="#251626"/>
<path d="M42.3248 111.883C42.4016 111.883 42.4777 111.852 42.5334 111.79C42.9375 111.34 44.1888 110.366 44.2014 110.356C44.324 110.261 44.3459 110.085 44.2507 109.962C44.1555 109.84 43.9797 109.818 43.8576 109.913C43.8044 109.955 42.5545 110.929 42.1162 111.415C42.0126 111.53 42.0222 111.707 42.1375 111.811C42.1907 111.859 42.2579 111.883 42.3248 111.883Z" fill="#251626"/>
<path d="M39.3891 112.262C39.4658 112.262 39.5425 112.23 39.5977 112.169C40.0017 111.719 41.253 110.744 41.2656 110.734C41.3882 110.639 41.4101 110.463 41.3149 110.341C41.2203 110.218 41.0433 110.197 40.9218 110.292C40.8686 110.333 39.6187 111.307 39.1805 111.794C39.0769 111.909 39.0864 112.086 39.2017 112.19C39.2549 112.238 39.3224 112.262 39.3891 112.262Z" fill="#251626"/>
<path d="M103.008 117.464C103.125 117.464 103.234 117.391 103.274 117.275C103.295 117.211 103.81 115.713 103.911 115.066C103.935 114.913 103.831 114.77 103.678 114.746C103.529 114.722 103.382 114.826 103.357 114.979C103.264 115.577 102.748 117.077 102.743 117.092C102.693 117.239 102.771 117.398 102.917 117.449C102.948 117.459 102.978 117.464 103.008 117.464Z" fill="#251626"/>
<path d="M100.725 120.161C100.841 120.161 100.95 120.089 100.99 119.972C101.012 119.909 101.527 118.41 101.628 117.764C101.652 117.61 101.547 117.467 101.394 117.443C101.242 117.423 101.097 117.524 101.074 117.677C100.981 118.275 100.465 119.774 100.46 119.79C100.41 119.936 100.488 120.096 100.634 120.146C100.664 120.156 100.695 120.161 100.725 120.161Z" fill="#251626"/>
<path d="M102.335 121.965C102.452 121.965 102.56 121.893 102.6 121.776C102.622 121.713 103.137 120.214 103.238 119.568C103.261 119.414 103.157 119.271 103.004 119.247C102.85 119.227 102.707 119.328 102.684 119.481C102.591 120.079 102.075 121.579 102.07 121.594C102.02 121.74 102.098 121.9 102.244 121.95C102.275 121.96 102.305 121.965 102.335 121.965Z" fill="#251626"/>
<path d="M99.5952 124.116C99.712 124.116 99.8203 124.043 99.8604 123.927C99.8822 123.864 100.397 122.364 100.498 121.718C100.521 121.565 100.417 121.422 100.264 121.398C100.112 121.377 99.9671 121.479 99.9435 121.632C99.8506 122.23 99.3351 123.729 99.3303 123.745C99.2799 123.891 99.3578 124.05 99.5039 124.101C99.5344 124.111 99.5652 124.116 99.5952 124.116Z" fill="#251626"/>
<path d="M100.677 126.294C100.794 126.294 100.902 126.221 100.942 126.104C100.964 126.041 101.479 124.542 101.58 123.896C101.604 123.743 101.499 123.6 101.346 123.575C101.195 123.552 101.05 123.656 101.026 123.809C100.932 124.407 100.417 125.907 100.412 125.922C100.362 126.068 100.439 126.228 100.586 126.278C100.616 126.289 100.647 126.294 100.677 126.294Z" fill="#251626"/>
<path d="M101.903 115.261C102.019 115.261 102.128 115.188 102.168 115.072C102.19 115.008 102.705 113.509 102.805 112.863C102.829 112.71 102.724 112.566 102.571 112.543C102.418 112.521 102.275 112.623 102.251 112.776C102.158 113.375 101.643 114.874 101.638 114.889C101.587 115.035 101.665 115.195 101.811 115.245C101.842 115.256 101.873 115.261 101.903 115.261Z" fill="#251626"/>
<path d="M104.154 113.34C104.271 113.34 104.38 113.267 104.42 113.15C104.441 113.087 104.956 111.588 105.057 110.941C105.08 110.788 104.976 110.645 104.823 110.621C104.672 110.599 104.526 110.702 104.503 110.855C104.41 111.453 103.894 112.953 103.89 112.968C103.839 113.114 103.917 113.274 104.063 113.324C104.094 113.334 104.124 113.34 104.154 113.34Z" fill="#251626"/>
<path d="M15.3648 91.3374C15.4678 91.3374 15.5675 91.2803 15.6162 91.1814C15.6845 91.0426 15.6282 90.8746 15.4891 90.8057C15.3006 90.7127 13.6268 89.8929 12.9089 89.8363C12.7675 89.8265 12.6196 89.9394 12.6076 90.0939C12.595 90.2482 12.7106 90.3832 12.8649 90.3955C13.3824 90.4364 14.7552 91.0686 15.2404 91.3086C15.2805 91.3282 15.3228 91.3374 15.3648 91.3374Z" fill="#251626"/>
<path d="M15.3653 93.5614C15.5011 93.5614 15.621 93.462 15.642 93.3232C15.6655 93.17 15.5599 93.0269 15.407 93.004C15.1419 92.9636 12.8109 92.6106 12.5104 92.591C12.3598 92.5851 12.2229 92.6982 12.2125 92.8528C12.2027 93.0073 12.3198 93.1409 12.4743 93.1507C12.6835 93.1641 14.2924 93.4018 15.3228 93.5581C15.337 93.5603 15.3513 93.5614 15.3653 93.5614Z" fill="#251626"/>
<path d="M110.062 17.887C110.188 17.887 110.302 17.8021 110.334 17.6747C110.428 17.2976 111.11 16.6026 111.518 16.2532C111.636 16.1524 111.65 15.9754 111.549 15.8578C111.448 15.7402 111.271 15.727 111.154 15.827C111.032 15.9314 109.959 16.8652 109.79 17.5381C109.752 17.6884 109.843 17.8408 109.994 17.878C110.017 17.8842 110.039 17.887 110.062 17.887Z" fill="#251626"/>
<path d="M108.648 16.3206C108.658 16.3206 108.667 16.3201 108.677 16.3192C108.831 16.3038 108.943 16.1664 108.928 16.0126C108.904 15.7674 109.413 14.7801 109.903 14.0118C109.986 13.8813 109.948 13.708 109.818 13.6245C109.688 13.5419 109.514 13.5786 109.43 13.7099C109.168 14.1215 108.314 15.5078 108.37 16.0678C108.385 16.2126 108.506 16.3206 108.648 16.3206Z" fill="#251626"/>
<path d="M58.4506 51.6216C60.4871 51.6216 63.1641 50.7587 63.3131 50.7102C63.4604 50.6621 63.5405 50.5039 63.4926 50.3569C63.4444 50.2093 63.2868 50.1298 63.1389 50.1771C61.8571 50.5949 58.2622 51.5203 57.0436 50.7973C56.9106 50.7184 56.7387 50.762 56.6597 50.8956C56.5802 51.0286 56.6247 51.2005 56.7577 51.2798C57.1763 51.5273 57.7789 51.6216 58.4506 51.6216Z" fill="#251626"/>
<path d="M56.5164 40.9833C56.5164 40.9833 57.4829 37.9308 58.2157 37.6622C58.9484 37.3937 59.5241 39.5858 59.5241 39.5858C59.5241 39.5858 59.3992 37.3937 60.0637 37.3414C60.7281 37.289 61.7426 38.8066 61.7426 38.8066C61.7426 38.8066 65.8488 43.4596 63.2263 45.2522C60.6038 47.0448 55.1555 45.5442 56.5164 40.9833Z" fill="#E66357"/>
<path d="M59.4704 43.5364C59.588 43.5364 59.7019 43.517 59.8108 43.4756C62.3504 42.5135 62.017 36.2004 62.0018 35.9321C61.9926 35.7784 61.87 35.6653 61.7062 35.6684C61.5513 35.677 61.4334 35.8098 61.4421 35.9643C61.5401 37.6776 61.4026 42.2727 59.6126 42.9509C58.655 43.3115 56.4038 40.236 55.1105 37.9364C55.0349 37.8014 54.8635 37.7532 54.7288 37.8294C54.5942 37.9056 54.546 38.0764 54.6222 38.2113C55.1466 39.1446 57.7108 43.5364 59.4704 43.5364Z" fill="#251626"/>
<path d="M33.4057 32.1208C33.2733 32.0407 33.231 31.8679 33.3111 31.7355C33.3912 31.603 33.5636 31.5619 33.6961 31.6411C34.559 32.165 35.3268 32.1602 35.9784 31.6322C37.0144 30.7919 37.562 28.7302 37.3168 26.9763C37.221 26.9886 37.123 26.9962 37.0216 26.999C34.9916 27.0441 33.0708 26.166 32.5562 25.3044C32.3756 25.002 32.3574 24.6935 32.5052 24.435C32.7824 23.9504 33.6031 23.6967 34.9426 23.7196C36.1934 23.7289 37.1446 24.4829 37.6208 25.8426C37.6712 25.9857 37.7149 26.133 37.7527 26.283C38.8825 25.8118 39.3801 24.3564 39.4562 23.0896C39.4798 22.6971 39.466 22.2933 39.4145 21.9024C37.6754 21.9447 36.5806 21.3909 36.1088 20.7376C35.7765 20.2782 35.7278 19.7562 35.9792 19.3424C36.2777 18.851 36.9348 18.6284 37.7446 18.7468C38.8901 18.9154 39.5982 20.001 39.8835 21.3158C40.3363 21.2783 40.8347 21.2008 41.379 21.075C42.8406 20.7376 43.7391 20.0796 43.978 19.1716C44.048 18.905 44.0594 18.6284 44.025 18.3515C41.6288 18.6197 39.7144 17.39 39.3672 16.2579C39.1547 15.5655 39.5106 14.9783 40.3195 14.6874C41.1124 14.3998 42.1456 14.742 43.0814 15.5985C43.64 16.1098 44.2056 16.87 44.4629 17.7153C44.5539 17.6968 44.6452 17.6761 44.7373 17.6529C46.1298 17.2984 46.7284 16.0773 46.9852 15.1152C47.0263 14.9604 47.0613 14.8039 47.0899 14.6479C45.8601 13.8933 45.1086 12.7789 44.9647 11.8591C44.8415 11.0757 45.1668 10.4891 45.8355 10.29C46.2056 10.1791 46.5752 10.2819 46.8788 10.577C47.5566 11.2356 47.8764 12.8226 47.7003 14.3405C48.4434 14.7274 49.3545 14.9716 50.39 14.9512C51.6796 14.9232 52.3301 14.2901 52.6554 13.6021C50.8133 12.4295 49.9795 10.6652 50.1343 9.57768C50.2301 8.90456 50.6924 8.50276 51.3719 8.50276C52.6417 8.50276 53.5148 10.3258 53.5332 12.0291C53.5383 12.4762 53.4817 12.9326 53.3515 13.3619C53.7583 13.5817 54.2145 13.7724 54.7221 13.9196C55.8234 14.2388 56.7454 14.0865 57.3944 13.4798C57.1525 13.2261 56.9417 12.9262 56.7681 12.5843C56.2341 11.5321 56.1848 10.2869 56.6535 9.68772C56.896 9.37776 57.2511 9.25764 57.6557 9.35088C58.1546 9.46596 58.529 9.87588 58.7093 10.5059C58.9442 11.328 58.8182 12.5213 58.1793 13.4268C58.5822 13.7194 59.1114 13.9303 59.8203 13.907C60.4571 13.8866 60.8953 13.6763 61.1593 13.2642C62.0267 11.9118 60.7847 8.9222 60.7721 8.89224C60.7119 8.74944 60.7791 8.58508 60.9216 8.52488C61.065 8.46468 61.2287 8.53188 61.2889 8.6744C61.3452 8.80796 62.6573 11.9661 61.6317 13.5666C61.2654 14.138 60.662 14.441 59.8377 14.4673C59.0854 14.495 58.3865 14.2758 57.8156 13.853C57.2488 14.4032 56.2313 14.9428 54.5656 14.4581C54.0465 14.3074 53.5727 14.1131 53.1452 13.8872C52.7 14.7949 51.8392 15.4806 50.4023 15.512C49.333 15.533 48.3916 15.3048 47.6056 14.9285C47.5827 15.0405 47.5564 15.1511 47.5272 15.26C47.1095 16.8246 46.1681 17.8674 44.8759 18.1961C44.7779 18.2213 44.6799 18.2437 44.583 18.2636C44.6273 18.6094 44.6133 18.963 44.5206 19.3144C44.3154 20.097 43.6249 21.1324 41.5056 21.6216C40.9548 21.7487 40.446 21.8294 39.9784 21.8705C40.0294 22.2821 40.042 22.7058 40.0174 23.123C39.9275 24.6131 39.3028 26.3292 37.8653 26.8456C38.1582 28.8058 37.534 31.0932 36.3326 32.0676C35.9056 32.4139 35.4237 32.5872 34.9132 32.5872C34.4286 32.5875 33.9187 32.4318 33.4057 32.1208ZM37.0914 26.0282C36.8136 25.2361 36.2147 24.2903 34.9376 24.2805C33.6731 24.2726 33.1148 24.4983 32.991 24.7139C32.9751 24.7425 32.9247 24.8298 33.037 25.0169C33.4032 25.6309 35.0062 26.5003 37.0071 26.4382C37.076 26.4365 37.1434 26.4317 37.2098 26.4239C37.1759 26.2889 37.1364 26.1565 37.0914 26.0282ZM37.662 19.3018C37.0855 19.2181 36.6352 19.341 36.4577 19.6336C36.3275 19.8486 36.3667 20.1384 36.5624 20.4092C36.9194 20.9026 37.7978 21.3436 39.2373 21.3436C39.2625 21.3436 39.2877 21.3433 39.3129 21.343C39.0645 20.288 38.5152 19.4275 37.662 19.3018ZM42.7026 16.0126C41.9342 15.3104 41.0937 15.0049 40.5085 15.2155C39.9854 15.4039 39.7819 15.6996 39.9028 16.0941C40.1504 16.9025 41.7816 18.0062 43.897 17.8004C43.6708 17.1198 43.2085 16.4758 42.7026 16.0126ZM45.9948 10.8276C45.5014 10.9749 45.4631 11.4229 45.518 11.7726C45.6308 12.4911 46.2177 13.372 47.1711 14.0241C47.2806 12.682 46.9614 11.44 46.4876 10.9794C46.3479 10.8438 46.2258 10.8066 46.1272 10.8066C46.0763 10.8069 46.032 10.8167 45.9948 10.8276ZM50.6887 9.65692C50.5742 10.4616 51.24 11.9896 52.8489 13.0609C52.9578 12.6412 52.9738 12.2559 52.9716 12.0352C52.955 10.5081 52.1769 9.06388 51.3711 9.06388C50.974 9.06388 50.7444 9.26352 50.6887 9.65692ZM57.0937 10.0335C56.8045 10.404 56.7882 11.3873 57.2667 12.3309C57.374 12.542 57.5327 12.8013 57.7573 13.0486C58.2568 12.2993 58.356 11.3148 58.1686 10.6607C58.0986 10.4146 57.9217 9.98816 57.5285 9.898C57.4815 9.88708 57.437 9.88148 57.3961 9.88148C57.2718 9.88148 57.1738 9.93132 57.0937 10.0335Z" fill="#251626"/>
<path d="M29.8573 12.0142C29.9433 12.0142 30.0281 11.9748 30.083 11.9003L32.4753 8.65872C32.5674 8.53412 32.5411 8.35856 32.4162 8.26672C32.2925 8.17516 32.1155 8.20092 32.0242 8.3258L29.6319 11.5674C29.5398 11.692 29.5661 11.8675 29.691 11.9594C29.7408 11.9966 29.7993 12.0142 29.8573 12.0142Z" fill="#251626"/>
<path d="M40.7286 9.06388C40.8392 9.06388 40.9444 8.99752 40.9887 8.88832C41.0466 8.74496 40.9772 8.58144 40.8338 8.52348C40.6521 8.4504 36.3622 6.74799 34.2961 8.57332C34.1799 8.67608 34.169 8.85304 34.2715 8.96924C34.374 9.08572 34.5518 9.09636 34.6674 8.99388C36.4745 7.39759 40.5824 9.02692 40.6236 9.04372C40.658 9.05744 40.6936 9.06388 40.7286 9.06388Z" fill="#251626"/>
<path d="M37.6206 6.99132C37.6875 6.99132 37.7541 6.9678 37.8079 6.91992C40.4183 4.58108 45.9998 6.49768 46.0556 6.517C46.2012 6.56908 46.361 6.49152 46.4126 6.34536C46.4641 6.1992 46.3868 6.03932 46.2406 5.98808C45.9998 5.90324 40.2906 3.94296 37.4332 6.50216C37.3182 6.60576 37.3084 6.78272 37.412 6.89808C37.4671 6.95968 37.5438 6.99132 37.6206 6.99132Z" fill="#251626"/>
<path d="M36.6448 14.9156C36.7478 14.9156 36.8469 14.8588 36.8957 14.7602C36.9645 14.6213 36.9083 14.4533 36.7697 14.3842C36.7302 14.3646 32.8194 12.395 32.9656 10.372C32.9765 10.2178 32.8606 10.0831 32.706 10.0722C32.5548 10.0582 32.4173 10.1766 32.4059 10.3314C32.2328 12.7282 36.3446 14.7991 36.5199 14.8862C36.5599 14.9064 36.6025 14.9156 36.6448 14.9156Z" fill="#251626"/>
<path d="M31.9875 19.9842C32.0517 19.9842 32.1158 19.9623 32.1687 19.9175C32.2863 19.8176 32.3011 19.6406 32.2015 19.5224C32.1757 19.4922 29.6666 16.4632 30.9328 12.7912C30.9832 12.6448 30.9053 12.4852 30.7592 12.4348C30.613 12.3847 30.4531 12.4622 30.4027 12.6084C29.0305 16.5886 31.6611 19.7526 31.7739 19.8853C31.8291 19.9506 31.908 19.9842 31.9875 19.9842Z" fill="#251626"/>
</svg>
