<svg width="70" height="70" viewBox="0 0 70 70" fill="none" xmlns="http://www.w3.org/2000/svg">
<path d="M26.6336 31.2063C26.6336 31.2063 36.0123 23.8805 37.0929 22.7744C38.1732 21.6682 27.386 17.8783 27.386 17.8783L28.8932 14.0967C28.8932 14.0967 41.7245 21.0672 42.2965 22.4423C42.8686 23.8174 28.4511 34.7715 28.4511 34.7715L26.6336 31.2063Z" fill="#EA8060"/>
<path d="M16.6587 28.8287C16.6587 28.8287 4.7488 20.4719 5.16362 19.8321L16.0962 10.722L14.0955 7.4907C14.0955 7.4907 -0.272575 17.9375 0.00392489 19.9248C0.280425 21.9121 14.3833 32.1735 14.3833 32.1735L16.6587 28.8287Z" fill="#EA8060"/>
<path d="M43.7333 50.267C43.7333 50.267 37.6572 66.9561 29.0149 63.1407L38.9039 44.6755L43.7333 50.267Z" fill="#F7C67C"/>
<path d="M25.9895 39.3929C25.9895 39.3929 27.6741 49.5904 32.1927 51.2669L21.4481 57.9524C21.4481 57.9524 18.068 50.1792 16.2625 40.931L25.9895 39.3929Z" fill="#EA8060"/>
<path d="M63.1216 56.9863L67.2333 60.5359L68.1518 59.4003L66.6053 58.7429C66.6053 58.7429 68.7618 59.6635 69.9998 55.9454C69.9998 55.9454 65.5809 58.9553 64.6737 54.7842L63.1216 56.9863Z" fill="#251426"/>
<path d="M54.8589 60.1544L58.9705 63.7039L59.8891 62.5684L58.3426 61.9109C58.3426 61.9109 60.4992 62.8316 61.7372 59.1135C61.7372 59.1135 57.3182 62.1233 56.411 57.9523L54.8589 60.1544Z" fill="#251426"/>
<path d="M14.967 8.41778C14.967 8.41778 21.88 1.33756 29.2026 5.3354C34.6811 8.3265 32.5723 27.741 23.3598 26.685C16.8297 25.9363 10.1135 13.4253 14.967 8.41778Z" fill="#EA8060"/>
<path d="M26.5503 17.4922C26.5378 17.4922 26.5254 17.4913 26.5125 17.4895C25.8684 17.3996 23.7728 16.8868 23.6839 16.865C23.6037 16.8454 23.5547 16.7644 23.5743 16.6842C23.5942 16.6039 23.6762 16.5557 23.7552 16.5747C23.7761 16.5796 25.7855 17.0713 26.4869 17.1832C26.4676 16.7233 25.4337 14.6272 24.3862 12.7585C24.3457 12.6867 24.3715 12.5955 24.4434 12.5549C24.516 12.5146 24.6067 12.5404 24.647 12.6125C25.5486 14.2206 27.0189 16.9807 26.7351 17.3965C26.6928 17.4586 26.6267 17.4922 26.5503 17.4922Z" fill="#251626"/>
<path d="M23.6023 22.5918C23.5131 22.5918 23.4279 22.5623 23.3507 22.5036C22.693 22.0046 22.7417 19.0918 22.7493 18.7613C22.7511 18.6787 22.82 18.6136 22.9023 18.6152C22.9848 18.6173 23.0502 18.6857 23.0483 18.7683C23.0208 19.9574 23.1274 21.9587 23.5316 22.2656C23.5679 22.293 23.6001 22.2989 23.6431 22.286C24.3127 22.0819 25.4668 19.9674 25.8551 19.1698C25.8912 19.096 25.9808 19.0646 26.0548 19.1009C26.1292 19.1367 26.16 19.2265 26.1239 19.3005C25.9752 19.606 24.6452 22.293 23.73 22.5722C23.687 22.5855 23.6442 22.5918 23.6023 22.5918Z" fill="#251626"/>
<path d="M20.7364 14.1498C20.7357 14.1498 20.735 14.1498 20.7341 14.1498C20.0609 14.146 19.6683 12.2102 19.5639 11.6172C19.5497 11.5357 19.6041 11.4584 19.6854 11.444C19.7667 11.4279 19.844 11.4841 19.8586 11.5653C20.0525 12.6678 20.4515 13.8491 20.736 13.8509C20.7361 13.8509 20.7362 13.8509 20.7365 13.8509C21.0041 13.8509 21.2246 12.6637 21.2549 11.5968C21.2573 11.5144 21.3276 11.4507 21.4087 11.4517C21.4913 11.4541 21.5562 11.523 21.5538 11.6056C21.5369 12.2027 21.4276 14.1498 20.7364 14.1498Z" fill="#251626"/>
<path d="M27.7829 14.0556C27.7822 14.0556 27.7815 14.0556 27.7806 14.0556C27.126 14.0518 26.39 12.1325 26.1801 11.5445C26.1523 11.4668 26.1929 11.3813 26.2706 11.3536C26.3474 11.3259 26.434 11.3662 26.4615 11.444C26.8583 12.5546 27.4761 13.7547 27.7823 13.7565C27.7824 13.7565 27.7826 13.7565 27.7829 13.7565C28.0503 13.7565 28.2708 12.5691 28.3013 11.5021C28.3037 11.4198 28.3779 11.3541 28.455 11.3571C28.5376 11.3595 28.6026 11.4283 28.6002 11.5109C28.5834 12.108 28.4742 14.0556 27.7829 14.0556Z" fill="#251626"/>
<path d="M35.2463 13.8815C35.6921 13.0352 35.3673 11.9877 34.521 11.542C33.6746 11.0963 32.6272 11.421 32.1815 12.2673C31.7357 13.1137 32.0605 14.1611 32.9068 14.6068C33.7531 15.0526 34.8006 14.7278 35.2463 13.8815Z" fill="#EA8060"/>
<path d="M33.4762 14.4696C33.4137 14.4696 33.3554 14.4298 33.3346 14.3674C33.0911 13.6368 33.104 13.0911 33.3731 12.7449C33.6818 12.3476 34.202 12.3799 34.2232 12.382C34.3055 12.3882 34.3674 12.4597 34.3615 12.542C34.3555 12.6244 34.288 12.6889 34.2022 12.6805C34.1985 12.6805 33.8163 12.6598 33.6077 12.9304C33.4081 13.1894 33.4116 13.6536 33.6181 14.2729C33.6442 14.3511 33.6018 14.4358 33.5236 14.4621C33.5077 14.4672 33.4918 14.4696 33.4762 14.4696Z" fill="#251626"/>
<path d="M19.1819 18.2507C20.0668 17.8347 20.4469 16.7802 20.031 15.8953C19.615 15.0104 18.5605 14.6302 17.6756 15.0462C16.7907 15.4621 16.4105 16.5167 16.8265 17.4016C17.2424 18.2865 18.297 18.6666 19.1819 18.2507Z" fill="#E45442"/>
<path d="M30.9222 16.7755C30.8514 17.7507 30.0034 18.4838 29.0283 18.4129C28.0531 18.3421 27.32 17.4941 27.3907 16.5189C27.4616 15.5436 28.3095 14.8106 29.2848 14.8814C30.2599 14.9523 30.9931 15.8003 30.9222 16.7755Z" fill="#E45442"/>
<path d="M24.4427 23.9025L23.144 31.2063H26.6335C26.6335 31.2063 24.6117 36.4784 22.0667 36.6024C19.5216 36.7265 16.6586 28.8288 16.6586 28.8288L21.07 30.253L21.4043 23.9025H24.4427V23.9025Z" fill="#EA8060"/>
<path d="M29.0149 58.1294L36.9065 39.3929L59.4402 56.2705L55.6262 63.1407L37.2193 44.6755L34.3053 59.8087L29.0149 58.1294Z" fill="#F7C67C"/>
<path d="M33.7298 57.7308L45.8205 38.3169L66.6516 53.6045L63.8253 59.8087L47.4807 43.835L37.5802 60.8282L33.7298 57.7308Z" fill="#F7C67C"/>
<path d="M20.1996 29.6145C20.1996 29.6145 21.448 35.0078 23.144 35.4064C25.1464 35.8771 24.2276 31.0016 24.2276 31.0016L26.6336 31.2063C26.6336 31.2063 37.003 37.8174 27.8798 41.9461C18.7565 46.075 14.2181 40.8502 14.0955 35.2902C13.9729 29.7303 16.6588 28.8287 16.6588 28.8287L20.1996 29.6145Z" fill="#E9546A"/>
<path d="M39.6427 41.4422C39.6427 41.4422 35.3165 62.3715 30.5354 63.1407C25.7543 63.9099 21.448 57.9523 21.448 57.9523L36.9065 39.3928L39.6427 41.4422Z" fill="#F7C67C"/>
<path d="M29.015 63.2904C28.9607 63.2904 28.9085 63.2608 28.8819 63.2092C28.8442 63.1359 28.873 63.0456 28.9465 63.008C29.0452 62.9572 38.8128 57.7976 38.2935 46.5226C38.2907 46.4612 38.3256 46.4043 38.3816 46.3792C38.4374 46.3544 38.5032 46.3655 38.5469 46.4085L43.4393 51.1598C43.4986 51.2173 43.5001 51.312 43.4426 51.3712C43.3852 51.4301 43.2905 51.4317 43.2312 51.3741L38.6058 46.8822C38.9045 58.093 29.1826 63.2229 29.0832 63.2737C29.0613 63.285 29.038 63.2904 29.015 63.2904Z" fill="#251626"/>
<path d="M38.4196 46.6813C38.3004 46.6813 38.1105 46.5347 36.9559 43.8949C36.9228 43.8193 36.9573 43.7311 37.0331 43.6981C37.1085 43.665 37.197 43.6999 37.2299 43.7752C37.6326 44.6958 38.0929 45.6854 38.3433 46.1488C38.4101 45.55 38.5193 44.2977 38.5911 43.4176C38.598 43.3356 38.6715 43.2743 38.7523 43.281C38.8346 43.2877 38.8959 43.3598 38.8892 43.4421C38.8654 43.7329 38.655 46.2918 38.5879 46.5529C38.572 46.6145 38.5053 46.6753 38.4416 46.6802C38.4343 46.6808 38.4272 46.6813 38.4196 46.6813Z" fill="#251626"/>
<path d="M52.9556 60.6113C52.9225 60.6113 52.8894 60.6005 52.8616 60.578C52.7974 60.5261 52.7874 60.432 52.8395 60.3677L57.3981 54.734C57.45 54.67 57.5444 54.6595 57.6083 54.7117C57.6726 54.7637 57.6825 54.8577 57.6305 54.922L53.0719 60.5557C53.0425 60.5924 52.9993 60.6113 52.9556 60.6113Z" fill="#251626"/>
<path d="M61.7371 57.083C61.7137 57.083 61.6899 57.0776 61.6678 57.0658C61.5945 57.0276 61.5664 56.937 61.6048 56.8641L64.2344 51.8581C64.273 51.7852 64.363 51.7573 64.4363 51.7954C64.5095 51.8336 64.5376 51.9242 64.4993 51.9971L61.8696 57.0031C61.8428 57.0539 61.7908 57.083 61.7371 57.083Z" fill="#251626"/>
<path d="M47.4806 43.9846C47.4193 43.9846 47.3629 43.9467 47.3407 43.8878L46.4438 41.495C46.4148 41.4176 46.454 41.3315 46.5314 41.3027C46.6081 41.2723 46.6948 41.3126 46.7238 41.39L47.3312 43.0108V41.4425C47.3312 41.3599 47.3981 41.293 47.4807 41.293C47.5633 41.293 47.6303 41.3599 47.6303 41.4425V43.8353C47.6303 43.9076 47.5786 43.9697 47.5075 43.9824C47.4984 43.9837 47.4896 43.9846 47.4806 43.9846Z" fill="#251626"/>
<path d="M46.0698 46.4057C46.0387 46.4057 46.0072 46.396 45.9804 46.3759L42.2068 43.5495C42.1407 43.4998 42.1273 43.4062 42.1767 43.3402C42.2261 43.2746 42.3196 43.2606 42.386 43.3101L46.1596 46.1364C46.2256 46.1861 46.2391 46.2798 46.1897 46.3457C46.1603 46.3849 46.1155 46.4057 46.0698 46.4057Z" fill="#251626"/>
<path d="M13.9674 62.0798C13.9441 62.0798 13.9206 62.0745 13.8988 62.0631C13.8155 62.0199 11.8506 60.9792 11.2153 58.7366C10.7565 57.1169 11.1178 55.3055 12.2893 53.353C14.2988 50.0034 18.3928 48.5141 21.6824 47.3172C22.9443 46.8579 24.0706 46.4482 24.8798 46.0047C24.5028 45.9889 24.2452 45.8899 24.1081 45.7072C23.9172 45.4525 23.9821 45.0835 24.2915 44.6674C24.7353 44.07 25.578 43.5329 26.0771 43.7156C26.2772 43.7888 26.5079 43.9996 26.4704 44.5872C26.4466 44.9606 26.271 45.2873 25.9743 45.5848C26.5552 45.4622 27.3399 45.2344 28.3991 44.8403C30.3775 44.1042 31.6792 42.8809 32.2682 41.204C33.7109 37.0966 30.4409 31.554 30.4076 31.4986C30.3653 31.4276 30.3883 31.3359 30.4591 31.2936C30.5299 31.2507 30.6218 31.2743 30.6642 31.345C30.6726 31.3593 31.5188 32.7837 32.17 34.7068C32.774 36.4903 33.3302 39.0824 32.5501 41.3032C31.9304 43.0676 30.5687 44.352 28.5033 45.1206C27.2408 45.5904 26.2391 45.8737 25.5035 45.9697C24.6526 46.5548 23.3141 47.0415 21.7846 47.598C18.5394 48.7788 14.5006 50.2481 12.5457 53.5065C11.4192 55.3841 11.0681 57.115 11.502 58.6515C12.0999 60.7687 14.0172 61.7873 14.0365 61.7975C14.1096 61.8355 14.1383 61.9258 14.1002 61.999C14.0735 62.0502 14.0213 62.0798 13.9674 62.0798ZM25.8489 43.9764C25.4926 43.9764 24.891 44.3618 24.5312 44.8456C24.3145 45.1377 24.2455 45.3925 24.3471 45.528C24.4104 45.6121 24.6341 45.773 25.3999 45.6819C25.8654 45.3484 26.1451 44.9875 26.1719 44.568C26.186 44.3456 26.1632 44.0658 25.9741 43.9963C25.937 43.9828 25.895 43.9764 25.8489 43.9764Z" fill="#251626"/>
<path d="M20.5579 69.8303C20.5239 69.8303 20.4898 69.819 20.462 69.7956L12.7281 63.3238C12.697 63.2978 12.6778 63.2601 12.6749 63.2198C12.672 63.1795 12.6855 63.1394 12.7126 63.1095L16.5474 58.8203C16.5742 58.7902 16.6118 58.7724 16.652 58.7706C16.6964 58.7668 16.7314 58.7832 16.7608 58.8104L24.3296 65.8658C24.3593 65.8935 24.3764 65.9317 24.3772 65.9723C24.3779 66.0127 24.3624 66.0517 24.334 66.0804L20.6641 69.786C20.635 69.8155 20.5964 69.8303 20.5579 69.8303ZM13.0383 63.1936L20.5484 69.478L24.0129 65.9798L16.6685 59.1333L13.0383 63.1936Z" fill="#251626"/>
<path d="M31.9817 13.5152C31.9817 13.5152 30.8134 4.11194 24.0667 5.17496C6.22986 7.98532 16.1773 21.3578 16.1773 21.3578C16.1773 21.3578 9.60904 22.2638 7.8372 15.6789C6.52974 10.8199 7.13706 0.850078 19.4439 0.188998C28.754 -0.311082 35.9654 9.02188 31.9817 13.5152Z" fill="#F7C67C"/>
<path d="M14.9338 15.43C14.9279 16.4556 14.0916 17.2822 13.0661 17.2761C12.0404 17.2701 11.2139 16.4339 11.2199 15.4083C11.2259 14.3826 12.0621 13.5561 13.0878 13.5621C14.1131 13.5681 14.9397 14.4043 14.9338 15.43Z" fill="#EA8060"/>
<path d="M13.7344 16.4889C13.7326 16.4889 13.7306 16.4889 13.7287 16.4889C13.6462 16.4857 13.5818 16.4165 13.5849 16.3338C13.602 15.8675 13.4897 15.5372 13.2511 15.3524C12.8331 15.0286 12.1521 15.2265 12.1457 15.2289C12.0653 15.252 11.9833 15.2069 11.9598 15.1283C11.9361 15.0492 11.9811 14.9659 12.0602 14.9422C12.094 14.9323 12.8961 14.6993 13.4343 15.1159C13.7535 15.3632 13.9047 15.7767 13.8837 16.3449C13.8807 16.4255 13.8145 16.4889 13.7344 16.4889Z" fill="#251626"/>
<path d="M26.7777 32.1801C20.9355 32.1804 17.1038 27.6588 15.5646 25.4176C13.3049 22.1273 11.5644 17.1958 12.7074 15.7688C12.7589 15.7045 12.853 15.6943 12.9174 15.7454C12.9819 15.797 12.9923 15.8911 12.9406 15.9557C12.0842 17.0246 13.1737 21.4084 15.811 25.2484C17.3197 27.445 21.0756 31.8781 26.7869 31.8787C27.9425 31.8787 29.177 31.6974 30.4902 31.2792C33.7238 30.2499 35.8085 28.4815 36.6866 26.0225C38.6075 20.644 34.1324 13.6662 34.0871 13.5964C34.042 13.5272 34.0616 13.4347 34.1309 13.3896C34.1999 13.3447 34.2926 13.3643 34.3377 13.4334C34.384 13.5044 38.9384 20.6065 36.9683 26.1229C36.057 28.6745 33.908 30.5052 30.5811 31.5643C29.2322 31.9936 27.9632 32.1798 26.7777 32.1801Z" fill="#251626"/>
<path d="M13.736 13.4158C13.7098 13.4158 13.6832 13.4091 13.6593 13.3945C13.567 13.3393 11.3963 12.0207 11.2444 10.4394C11.1852 9.82212 11.4405 9.25274 12.0032 8.74762C12.6414 8.17474 13.1681 7.95032 13.5747 7.89096C13.6002 6.92916 13.9168 5.7218 14.502 4.91512C15.0797 4.11894 15.8357 3.7919 16.6889 3.96536C17.2314 4.07694 17.6462 4.21974 17.9631 4.3729C18.7027 2.2309 20.2782 1.62428 21.4473 1.9761C22.2813 2.22628 22.8264 2.57138 23.1536 2.93762C23.2819 2.75422 23.4292 2.5788 23.5918 2.4241C24.3814 1.67454 25.3726 1.51774 26.3833 1.98352C27.5895 2.53918 28.1654 3.47648 28.3425 4.29072C28.4084 4.27756 28.4762 4.26622 28.5456 4.25656C29.4055 4.13392 30.5143 4.29212 31.051 5.09516C31.4192 5.64606 31.5273 6.30742 31.4762 6.9153C31.9367 6.96934 32.348 7.26362 32.65 7.76118C33.7024 9.49382 31.7606 11.6045 31.6774 11.6936C31.6215 11.7538 31.5267 11.7573 31.4661 11.7006C31.4058 11.6442 31.4026 11.5497 31.459 11.4895C31.4776 11.4694 33.329 9.45504 32.3945 7.91658C32.0849 7.40712 31.7256 7.24444 31.4384 7.21168C31.3845 7.52444 31.2902 7.81396 31.1703 8.05602C30.9796 8.44116 30.7444 8.66124 30.5081 8.67622C30.3996 8.6835 30.239 8.64878 30.105 8.4462C29.948 8.20848 29.9408 7.91126 30.0854 7.63042C30.2851 7.24332 30.7129 6.96444 31.1716 6.91418C31.2216 6.37966 31.1439 5.77262 30.8024 5.26162C30.3424 4.5731 29.357 4.44402 28.5872 4.55266C28.5201 4.56204 28.4543 4.57338 28.3902 4.58654C28.4011 4.68958 28.4054 4.7894 28.4039 4.8846C28.3952 5.39322 28.2225 5.7673 27.9418 5.88518C27.8226 5.936 27.5782 5.97828 27.2829 5.69856C27.0228 5.45216 27.0259 5.21948 27.0743 5.06758C27.1691 4.77092 27.5352 4.51332 28.0524 4.36156C27.8949 3.6232 27.369 2.76654 26.2583 2.25498C24.8566 1.60944 23.9315 2.42172 23.5046 2.96338C23.446 3.03814 23.3919 3.11318 23.3425 3.18794C23.5313 3.4902 23.5871 3.79554 23.5476 4.06476C23.4884 4.46796 23.2143 4.76056 22.896 4.76056C22.7754 4.76056 22.6783 4.69168 22.6304 4.57142C22.5238 4.30402 22.6691 3.74304 22.9866 3.19886C22.7072 2.85222 22.1946 2.51272 21.3613 2.2624C19.6616 1.75378 18.584 3.48194 18.2298 4.51766C18.7558 4.83714 18.9192 5.17286 18.9697 5.35094C19.0438 5.61106 18.9836 5.86516 18.8087 6.03036C18.6311 6.19794 18.3687 6.24344 18.1066 6.15244C17.7401 6.02462 17.6533 5.44754 17.8726 4.66074C17.5769 4.51304 17.1749 4.3708 16.6284 4.25866C15.8886 4.10564 15.2544 4.38648 14.7438 5.09082C14.1728 5.87832 13.8984 7.00532 13.8728 7.87542C14.1378 7.88704 14.329 7.9688 14.4428 8.03544C14.7919 8.23928 14.9841 8.61476 14.9102 8.9488C14.8498 9.2218 14.6223 9.40254 14.3016 9.43264C14.0963 9.45098 13.9118 9.34276 13.7872 9.12436C13.6623 8.9054 13.5927 8.5792 13.5765 8.1956C13.1632 8.27148 12.6867 8.53608 12.2026 8.9705C11.7144 9.4087 11.4921 9.8931 11.5415 10.4108C11.6785 11.8418 13.7913 13.1257 13.8127 13.1384C13.8835 13.1807 13.9065 13.2727 13.8639 13.3434C13.8362 13.3899 13.7868 13.4158 13.736 13.4158ZM13.8743 8.17362C13.8883 8.5176 13.9471 8.80054 14.0472 8.97568C14.1448 9.14648 14.2379 9.13808 14.2741 9.13458C14.4645 9.1168 14.5869 9.02804 14.6187 8.88412C14.6574 8.708 14.558 8.44844 14.2923 8.29346C14.1681 8.22094 14.0276 8.18146 13.8743 8.17362ZM31.1283 7.2226C30.7989 7.28266 30.4931 7.49266 30.3516 7.7672C30.2843 7.89768 30.2304 8.09298 30.3547 8.281C30.4212 8.38138 30.472 8.38026 30.4896 8.3776C30.5861 8.37144 30.7514 8.22864 30.9025 7.92302C30.9931 7.7406 31.0758 7.4977 31.1283 7.2226ZM18.1416 4.81376C17.9906 5.40624 18.0468 5.81462 18.2053 5.86964C18.3623 5.92452 18.5076 5.90352 18.6038 5.81266C18.6973 5.72418 18.7261 5.58586 18.6824 5.43256C18.6523 5.3263 18.5409 5.07486 18.1416 4.81376ZM28.0976 4.66116C27.7066 4.78296 27.42 4.96888 27.3595 5.15872C27.3475 5.19666 27.3105 5.3123 27.4889 5.48142C27.5788 5.56668 27.7099 5.65782 27.8263 5.60966C27.96 5.55366 28.0983 5.306 28.1054 4.8797C28.1064 4.80914 28.104 4.7362 28.0976 4.66116ZM23.1667 3.4853C22.9116 3.97264 22.8496 4.38928 22.9134 4.47048C23.0394 4.46138 23.2115 4.29674 23.2519 4.02136C23.2763 3.85616 23.2525 3.67304 23.1667 3.4853Z" fill="#251626"/>
<path d="M23.254 36.2802C20.4292 36.2802 19.746 31.1986 19.718 30.9802C19.7075 30.8984 19.7655 30.8234 19.8474 30.8129C19.9307 30.8021 20.004 30.8605 20.0147 30.9422C20.0211 30.9931 20.6916 35.9806 23.2569 35.9813C23.2802 35.9813 23.3034 35.9807 23.3269 35.9799C24.0037 35.9565 24.5283 35.7235 24.8857 35.2878C25.682 34.3176 25.4218 32.6515 25.419 32.6346C25.4057 32.5531 25.461 32.4764 25.5424 32.4632C25.6262 32.4484 25.7009 32.5049 25.7141 32.5867C25.726 32.6603 25.9979 34.404 25.1167 35.4775C24.7024 35.9824 24.1037 36.2519 23.3374 36.2788C23.3093 36.2796 23.2814 36.2802 23.254 36.2802Z" fill="#251626"/>
<path d="M22.9389 42.4605C22.9118 42.4605 22.8847 42.4599 22.8574 42.4591C22.0807 42.4295 21.3573 42.0553 20.8494 41.5647C20.4064 41.9047 19.838 42.1094 19.216 41.9493C18.2582 41.7024 17.6385 40.8485 17.3907 40.0217C17.0075 40.193 16.5791 40.2584 16.1987 40.0782C14.9214 39.473 15.5273 37.0871 15.5537 36.9859C15.5744 36.9057 15.6565 36.8565 15.736 36.8791C15.8158 36.8998 15.8637 36.9816 15.843 37.0612C15.8371 37.0838 15.272 39.3082 16.3265 39.8079C16.6342 39.9542 16.9935 39.8856 17.318 39.7278C17.2642 39.4527 17.2537 39.1894 17.2878 38.9623C17.3652 38.4455 17.6652 38.1403 18.0956 38.1678C18.4381 38.1829 18.5658 38.3403 18.6123 38.4696C18.7351 38.8098 18.4164 39.2601 18.0772 39.5681C17.9565 39.6775 17.8153 39.7849 17.6614 39.8785C17.8724 40.6321 18.432 41.4379 19.2906 41.6595C19.7971 41.7903 20.2679 41.6254 20.6431 41.3459C20.3427 40.9936 20.1523 40.6034 20.1221 40.2467C20.0782 39.7289 20.3759 39.3645 20.9387 39.2466C21.4088 39.1485 21.63 39.3158 21.7328 39.4741C21.9492 39.8066 21.8197 40.4131 21.4103 40.983C21.315 41.1156 21.2033 41.2461 21.0776 41.3676C21.5222 41.7928 22.156 42.1332 22.8686 42.16C23.8589 42.198 24.3771 41.459 24.5545 41.1398C24.5601 41.1296 24.5655 41.1194 24.571 41.1095C24.1612 40.8193 23.9497 40.4467 23.9263 40.1331C23.8988 39.7655 24.1263 39.4969 24.5059 39.4496C24.7117 39.4239 24.8861 39.5004 24.9973 39.6648C25.1894 39.9492 25.1661 40.4763 24.9556 40.9936C25.3123 41.1819 25.7993 41.3072 26.4223 41.2929C27.2667 41.2722 27.643 40.9007 27.8099 40.5927C27.8263 40.5626 27.841 40.5325 27.8544 40.5019C27.3952 40.435 27.1267 40.2152 27.0031 40.0831C26.7379 39.7999 26.6419 39.4121 26.7639 39.1178C26.8591 38.8884 27.0689 38.752 27.3393 38.7435C27.6164 38.731 27.8755 38.8912 28.0491 39.173C28.2317 39.4688 28.2964 39.8542 28.2418 40.2201C28.4479 40.2087 28.6881 40.1641 28.9667 40.0691C29.5462 39.872 29.9033 39.5718 30.0285 39.1775C30.2529 38.4706 29.6804 37.6709 29.6747 37.6629C29.6261 37.596 29.6409 37.5026 29.7077 37.4542C29.7748 37.4058 29.8683 37.4203 29.9165 37.4872C29.9439 37.5249 30.5829 38.4187 30.3134 39.268C30.1578 39.7579 29.7371 40.1229 29.063 40.3525C28.7175 40.4698 28.4203 40.518 28.1672 40.5219C28.1411 40.5958 28.1096 40.6674 28.0727 40.7354C27.7834 41.2688 27.1999 41.573 26.4295 41.5921C25.7606 41.6093 25.2248 41.4735 24.8265 41.2656C24.823 41.272 24.8193 41.2787 24.8157 41.2852C24.3989 42.0357 23.718 42.4605 22.9389 42.4605ZM21.1973 39.5167C21.1303 39.5167 21.0617 39.5263 21.0001 39.5392C20.5843 39.6262 20.3892 39.8558 20.4201 40.2216C20.4438 40.5013 20.6073 40.8374 20.8727 41.1504C20.984 41.0426 21.083 40.9264 21.1677 40.8085C21.4897 40.3601 21.6251 39.8566 21.4822 39.6371C21.4228 39.5457 21.3126 39.5167 21.1973 39.5167ZM24.5843 39.7436C24.5713 39.7436 24.5575 39.7445 24.5431 39.7463C24.3222 39.774 24.2091 39.9034 24.2246 40.111C24.2414 40.3361 24.3988 40.6065 24.6988 40.8319C24.8658 40.3972 24.8661 40.0043 24.7498 39.8321C24.709 39.7719 24.6569 39.7436 24.5843 39.7436ZM27.3617 39.0422C27.3574 39.0422 27.3531 39.0422 27.3487 39.0425C27.1964 39.0473 27.0899 39.1129 27.0402 39.2323C26.9634 39.4171 27.0379 39.6829 27.2213 39.8787C27.3223 39.9865 27.5461 40.166 27.9426 40.2119C28.0034 39.873 27.9248 39.5412 27.7946 39.3298C27.7278 39.2216 27.5836 39.0422 27.3617 39.0422ZM18.0571 38.4658C17.7332 38.4658 17.6207 38.7579 17.5833 39.0065C17.5584 39.1735 17.5622 39.3651 17.5937 39.5681C17.6963 39.4989 17.7918 39.4233 17.8762 39.3467C18.2356 39.0202 18.3788 38.7036 18.331 38.5713C18.3026 38.4924 18.18 38.4707 18.082 38.4661C18.0736 38.4658 18.0653 38.4658 18.0571 38.4658Z" fill="#251626"/>
<path d="M15.0406 63.7077L17.2082 60.8282L22.6647 65.9529L20.3476 68.2326L15.0406 63.7077Z" fill="#3D9C91"/>
<path d="M15.0406 62.3276C15.0053 62.3276 14.9699 62.3153 14.9416 62.2899C14.8798 62.2353 14.8739 62.141 14.9286 62.0791L15.7882 61.1073C15.8431 61.0455 15.938 61.0393 15.9992 61.0945C16.0611 61.1491 16.067 61.2434 16.0122 61.3053L15.1526 62.277C15.1231 62.3106 15.0819 62.3276 15.0406 62.3276Z" fill="#251626"/>
<path d="M58.1361 48.3935C59.3473 48.6895 59.5547 49.4231 59.563 49.4543C59.5841 49.534 59.5364 49.6159 59.4567 49.6371C59.3775 49.6574 59.2959 49.6114 59.2743 49.5321C59.2669 49.5069 59.0906 48.9345 58.065 48.6839C57.9848 48.6643 57.9356 48.5834 57.9552 48.5031C57.975 48.4231 58.0558 48.3739 58.1361 48.3935Z" fill="#251626"/>
<path d="M60.3187 49.7665C61.5296 50.0625 61.7372 50.7958 61.7455 50.827C61.7666 50.9067 61.7189 50.9886 61.6392 51.01C61.5597 51.0303 61.4783 50.9842 61.4568 50.905C61.4488 50.8775 61.2707 50.307 60.2477 50.057C60.1675 50.0374 60.1184 49.9565 60.138 49.8763C60.1576 49.7959 60.2385 49.7469 60.3187 49.7665Z" fill="#251626"/>
<path d="M58.2343 50.1687C59.4451 50.4647 59.6526 51.1983 59.661 51.2295C59.6821 51.3092 59.6344 51.3911 59.5547 51.4125C59.4755 51.4328 59.394 51.3864 59.3722 51.3075C59.3642 51.2798 59.1865 50.7094 58.1634 50.4594C58.0832 50.4398 58.0341 50.359 58.0537 50.2786C58.0731 50.1981 58.154 50.1491 58.2343 50.1687Z" fill="#251626"/>
<path d="M55.6833 48.11C56.8942 48.406 57.1018 49.1393 57.1101 49.1705C57.1312 49.2502 57.0835 49.3321 57.0038 49.3535C56.9247 49.3735 56.8431 49.3275 56.8214 49.2485C56.8143 49.2239 56.6383 48.6513 55.6124 48.4005C55.5321 48.3809 55.483 48.3001 55.5026 48.2198C55.5222 48.1394 55.603 48.0904 55.6833 48.11Z" fill="#251626"/>
<path d="M53.7623 46.198C54.9731 46.494 55.1807 47.2273 55.189 47.2585C55.2101 47.3382 55.1624 47.4201 55.0827 47.4415C55.0035 47.4621 54.922 47.4155 54.9003 47.3365C54.8923 47.3099 54.7155 46.7389 53.6913 46.4885C53.6111 46.4689 53.5619 46.3882 53.5815 46.3078C53.6011 46.2274 53.6819 46.1784 53.7623 46.198Z" fill="#251626"/>
<path d="M55.9317 46.4124C57.1425 46.7083 57.3502 47.4417 57.3584 47.4729C57.3795 47.5525 57.3318 47.6344 57.2521 47.6559C57.1729 47.6762 57.0914 47.6298 57.0699 47.5509C57.0626 47.5262 56.8868 46.9536 55.8608 46.7029C55.7806 46.6833 55.7315 46.6025 55.7511 46.5221C55.7705 46.4418 55.8513 46.3928 55.9317 46.4124Z" fill="#251626"/>
<path d="M49.0213 49.8085C50.2324 50.1045 50.4399 50.8381 50.4483 50.8693C50.4695 50.9489 50.4217 51.0308 50.3421 51.0521C50.2628 51.0724 50.1812 51.0264 50.1596 50.9471C50.1522 50.9219 49.976 50.3495 48.9503 50.0989C48.8701 50.0793 48.821 49.9983 48.8406 49.9181C48.8603 49.838 48.9411 49.7889 49.0213 49.8085Z" fill="#251626"/>
<path d="M51.204 51.1815C52.4149 51.4774 52.6225 52.2108 52.6307 52.242C52.6519 52.3216 52.6041 52.4035 52.5245 52.425C52.445 52.4453 52.3636 52.3992 52.3422 52.32C52.3342 52.2924 52.1562 51.722 51.1332 51.472C51.053 51.4524 51.0038 51.3716 51.0234 51.2912C51.0429 51.211 51.1238 51.1619 51.204 51.1815Z" fill="#251626"/>
<path d="M49.1196 51.5837C50.3304 51.8797 50.5379 52.6133 50.5463 52.6445C50.5675 52.7241 50.5197 52.806 50.4401 52.8275C50.3608 52.8478 50.2793 52.8014 50.2575 52.7225C50.2495 52.6947 50.0719 52.1244 49.0487 51.8743C48.9685 51.8547 48.9194 51.774 48.939 51.6936C48.9584 51.6131 49.0392 51.5641 49.1196 51.5837Z" fill="#251626"/>
<path d="M46.5685 49.525C47.7793 49.821 47.987 50.5543 47.9952 50.5855C48.0164 50.6652 47.9686 50.7471 47.889 50.7685C47.8099 50.7885 47.7282 50.7424 47.7067 50.6635C47.6995 50.6388 47.5236 50.0662 46.4976 49.8155C46.4174 49.7959 46.3683 49.715 46.3879 49.6348C46.4075 49.5544 46.4883 49.5054 46.5685 49.525Z" fill="#251626"/>
<path d="M44.6474 47.613C45.8583 47.909 46.0659 48.6423 46.0742 48.6735C46.0953 48.7532 46.0476 48.8351 45.9678 48.8565C45.8885 48.8771 45.807 48.8305 45.7855 48.7515C45.7775 48.7249 45.6007 48.1538 44.5764 47.9035C44.4962 47.8839 44.4471 47.8031 44.4667 47.7228C44.4864 47.6424 44.5672 47.5934 44.6474 47.613Z" fill="#251626"/>
<path d="M46.817 47.8274C48.0279 48.1233 48.2355 48.8566 48.2437 48.8879C48.2649 48.9675 48.2171 49.0494 48.1375 49.0708C48.0582 49.0911 47.9767 49.0448 47.9552 48.9658C47.948 48.9412 47.7721 48.3686 46.7461 48.1179C46.6659 48.0983 46.6168 48.0173 46.6364 47.9371C46.6558 47.8568 46.7366 47.8078 46.817 47.8274Z" fill="#251626"/>
<path d="M24.1242 26.8685C21.7385 26.8685 20.2026 25.6512 20.1356 25.5969C20.0714 25.5452 20.0613 25.4512 20.1131 25.387C20.1648 25.3225 20.2586 25.3126 20.3234 25.3642C20.3398 25.3774 21.9829 26.6746 24.4353 26.5625C24.5168 26.5502 24.5878 26.6224 24.5916 26.7047C24.5953 26.7873 24.5315 26.8572 24.449 26.861C24.3393 26.8661 24.2308 26.8685 24.1242 26.8685Z" fill="#251626"/>
</svg>
