<svg width="56" height="70" viewBox="0 0 56 70" fill="none" xmlns="http://www.w3.org/2000/svg">
<path d="M51.8316 49.1569C51.8316 49.1569 55.0556 50.8477 55.8222 46.6137C55.8222 46.6137 51.6765 45.4671 51.8316 49.1569Z" fill="#3D9C91"/>
<path d="M50.0587 51.4171C50.0587 51.4171 51.5456 54.74 54.7673 51.8878C54.7673 51.8878 52.2196 48.4222 50.0587 51.4171Z" fill="#757A91"/>
<path d="M49.8313 51.3198C49.8313 51.3198 52.4406 48.7813 48.6549 46.7364C48.6549 46.7364 46.2762 50.3201 49.8313 51.3198Z" fill="#3D9C91"/>
<path d="M48.2772 57.127C48.3491 57.127 48.4093 57.0709 48.4133 56.9984C48.417 56.9355 48.8237 50.6907 53.3413 48.4179C53.4085 48.384 53.4358 48.302 53.4019 48.2348C53.3681 48.1673 53.2861 48.1401 53.2188 48.1742C48.559 50.5186 48.1445 56.9186 48.1411 56.9828C48.1369 57.0581 48.1944 57.1224 48.2695 57.1267C48.2721 57.1269 48.2748 57.127 48.2772 57.127Z" fill="#251426"/>
<path d="M51.9676 51.6572C52.2225 51.6572 52.4196 51.6445 52.4927 51.6103C52.561 51.5785 52.5905 51.4972 52.5587 51.429C52.5269 51.3611 52.4465 51.3318 52.3785 51.3625C52.2305 51.4184 51.1511 51.3694 50.1586 51.2883L49.2734 48.7378C49.2484 48.6665 49.1708 48.6292 49.0997 48.6538C49.0286 48.6784 48.991 48.7563 49.0155 48.8274L49.9302 51.4619C49.9481 51.5127 49.9941 51.5486 50.0476 51.553C50.4081 51.5831 51.3548 51.6572 51.9676 51.6572Z" fill="#251426"/>
<path d="M48.65 55.2181C48.65 55.2181 51.1703 57.8451 53.2416 54.0736C53.2416 54.0736 49.6745 51.6701 48.65 55.2181Z" fill="#3D9C91"/>
<path d="M48.403 55.2033C48.403 55.2033 50.0037 51.9336 45.75 51.2848C45.75 51.2848 44.7191 55.4607 48.403 55.2033Z" fill="#757A91"/>
<path d="M48.6501 55.3545C48.6619 55.3545 48.6735 55.3531 48.6853 55.35C49.1806 55.218 50.8116 54.7726 51.0066 54.5794C51.0601 54.5264 51.0604 54.4401 51.0075 54.3865C50.9547 54.3332 50.869 54.3327 50.8154 54.385C50.6951 54.4872 49.6622 54.805 48.7008 55.0634L47.0072 52.9609C46.9598 52.9019 46.8735 52.893 46.8154 52.9403C46.7568 52.9875 46.7475 53.0734 46.7947 53.132L48.5439 55.3036C48.5702 55.3363 48.6094 55.3545 48.6501 55.3545Z" fill="#251426"/>
<path d="M43.1931 49.2556C43.1931 49.2556 39.6403 50.0497 40.0012 45.7621C40.0012 45.7621 44.3025 45.7332 43.1931 49.2556Z" fill="#757A91"/>
<path d="M44.3172 51.8993C44.3172 51.8993 42.0172 54.7211 39.6481 51.1291C39.6481 51.1291 43.0095 48.4455 44.3172 51.8993Z" fill="#3D9C91"/>
<path d="M44.562 51.8644C44.562 51.8644 42.7027 48.7347 46.8901 47.7446C46.8901 47.7446 48.2548 51.8237 44.562 51.8644Z" fill="#3D9C91"/>
<path d="M44.5882 57.8806C44.6513 57.8806 44.708 57.8365 44.7213 57.7723C44.7346 57.7091 45.9987 51.4216 42.1092 47.946C42.0528 47.896 41.967 47.9006 41.9166 47.9569C41.8664 48.013 41.8712 48.0992 41.9275 48.1495C45.6982 51.5189 44.4671 57.6548 44.4543 57.7163C44.4389 57.79 44.486 57.8623 44.5599 57.8777C44.5693 57.8798 44.5789 57.8806 44.5882 57.8806Z" fill="#251426"/>
<path d="M44.317 52.0356C44.3618 52.0356 44.4041 52.0136 44.4297 51.976L45.9977 49.67C46.0401 49.6077 46.024 49.5229 45.9617 49.4805C45.9 49.4385 45.8147 49.4542 45.7723 49.5166L44.254 51.7492C43.2739 51.569 42.2176 51.3353 42.091 51.2432C42.0321 51.1998 41.9458 51.2092 41.9003 51.2669C41.8551 51.3247 41.8604 51.4055 41.9166 51.4528C42.1264 51.6298 43.7884 51.942 44.2926 52.0334C44.3008 52.0349 44.309 52.0356 44.317 52.0356Z" fill="#251426"/>
<path d="M44.6887 55.9357C44.6887 55.9357 41.5719 57.8168 40.5528 53.6364C40.5528 53.6365 44.6223 52.2434 44.6887 55.9357Z" fill="#757A91"/>
<path d="M44.931 55.9857C44.931 55.9857 44.2359 52.4124 48.5118 52.8921C48.5118 52.8921 48.4214 57.1924 44.931 55.9857Z" fill="#3D9C91"/>
<path d="M44.6887 56.0721C44.717 56.0721 44.7451 56.0633 44.7692 56.0461L47.0231 54.404C47.0838 54.3596 47.0971 54.2742 47.0529 54.2133C47.0084 54.1521 46.9228 54.1391 46.8622 54.1834L44.6803 55.7733C43.8182 55.273 42.9026 54.6969 42.8144 54.5677C42.7731 54.5069 42.6889 54.4866 42.6268 54.5255C42.5648 54.5647 42.5426 54.6426 42.5793 54.7061C42.7176 54.9434 44.1767 55.7977 44.6205 56.0539C44.6418 56.0662 44.6652 56.0721 44.6887 56.0721Z" fill="#251426"/>
<path d="M47.3964 66.653L50.2586 56.6446L41.7526 55.5191L41.6396 65.998L47.3964 66.653Z" fill="#DD7C2E"/>
<path d="M47.9415 61.1855C47.9459 61.1855 47.9506 61.1852 47.955 61.1848C48.0302 61.1775 48.0848 61.1106 48.0775 61.0355C48.0432 60.6893 48.3533 60.1969 48.4756 60.0363C48.5213 59.9764 48.5097 59.8907 48.4497 59.8451C48.3907 59.7997 48.3048 59.8109 48.2587 59.871C48.238 59.8982 47.7544 60.5396 47.8058 61.0625C47.8131 61.1328 47.8722 61.1855 47.9415 61.1855Z" fill="#251426"/>
<path d="M48.0211 59.1199C48.0256 59.1199 48.0302 59.1196 48.0347 59.1192C48.1099 59.1119 48.1645 59.045 48.1572 58.97C48.123 58.625 48.433 58.1315 48.5552 57.9705C48.6004 57.9106 48.5891 57.8249 48.5292 57.7794C48.469 57.7339 48.3834 57.7451 48.3382 57.8054C48.3175 57.8325 47.8342 58.4741 47.8856 58.997C47.8927 59.0673 47.9518 59.1199 48.0211 59.1199Z" fill="#251426"/>
<path d="M46.8486 61.0407C46.8531 61.0407 46.8577 61.0404 46.8625 61.04C46.9374 61.0326 46.992 60.9658 46.9847 60.8908C46.9504 60.5458 47.2602 60.0525 47.3824 59.8915C47.4279 59.8315 47.4166 59.746 47.3565 59.7004C47.2966 59.6549 47.2108 59.6663 47.1656 59.7263C47.1449 59.7534 46.6613 60.3949 46.7132 60.9178C46.7202 60.9882 46.7795 61.0407 46.8486 61.0407Z" fill="#251426"/>
<path d="M46.3646 59.4765C46.3691 59.4765 46.3737 59.4762 46.3782 59.4758C46.4534 59.4685 46.508 59.4016 46.5007 59.3265C46.4664 58.9803 46.7765 58.4879 46.8987 58.3274C46.9445 58.2675 46.9329 58.1818 46.8728 58.1361C46.8138 58.0909 46.7277 58.1018 46.6819 58.162C46.6612 58.1892 46.1776 58.8307 46.229 59.3536C46.2363 59.4238 46.2953 59.4765 46.3646 59.4765Z" fill="#251426"/>
<path d="M47.041 63.313C47.0455 63.313 47.0501 63.3128 47.0546 63.3123C47.1297 63.3051 47.1843 63.2381 47.1771 63.1631C47.1428 62.8169 47.4526 62.3245 47.5748 62.1638C47.6206 62.1039 47.609 62.0183 47.5489 61.9727C47.4898 61.9273 47.4034 61.9384 47.3579 61.9987C47.3372 62.0257 46.8539 62.6672 46.9053 63.1901C46.9126 63.2604 46.9718 63.313 47.041 63.313Z" fill="#251426"/>
<path d="M45.506 62.3105C45.5105 62.3105 45.5151 62.3102 45.5196 62.3098C45.5948 62.3025 45.6494 62.2356 45.6421 62.1606C45.6078 61.8143 45.9179 61.322 46.0401 61.1614C46.0859 61.1015 46.0743 61.0158 46.0142 60.9702C45.9551 60.9249 45.8693 60.9359 45.8233 60.9961C45.8025 61.0232 45.319 61.6647 45.3704 62.1876C45.3776 62.2579 45.4367 62.3105 45.506 62.3105Z" fill="#251426"/>
<path d="M45.9498 63.7445C45.9543 63.7445 45.9589 63.7442 45.9634 63.7438C46.0386 63.7365 46.0932 63.6696 46.0859 63.5946C46.0516 63.2484 46.3616 62.756 46.4839 62.5954C46.5297 62.5355 46.5181 62.4498 46.458 62.4042C46.3989 62.359 46.3128 62.3699 46.2671 62.4301C46.2463 62.4572 45.7628 63.0987 45.8142 63.6216C45.8214 63.6919 45.8805 63.7445 45.9498 63.7445Z" fill="#251426"/>
<path d="M46.5548 65.8546C46.5592 65.8546 46.5639 65.8543 46.5683 65.8541C46.6435 65.8466 46.6981 65.7797 46.6908 65.7048C46.6565 65.3585 46.9664 64.8661 47.0886 64.7053C47.1344 64.6454 47.1227 64.5599 47.0627 64.5142C47.0036 64.469 46.9172 64.4799 46.8717 64.5403C46.851 64.5673 46.3677 65.2088 46.4191 65.7316C46.4264 65.8021 46.4856 65.8546 46.5548 65.8546Z" fill="#251426"/>
<path d="M45.3499 65.478C45.3544 65.478 45.359 65.4777 45.3635 65.4773C45.4387 65.47 45.4933 65.4031 45.486 65.3281C45.4517 64.9819 45.7617 64.4895 45.884 64.3289C45.9298 64.269 45.9182 64.1833 45.8581 64.1377C45.799 64.0923 45.7132 64.1035 45.6672 64.1636C45.6464 64.1907 45.1629 64.8322 45.2143 65.3551C45.2214 65.4254 45.2806 65.478 45.3499 65.478Z" fill="#251426"/>
<path d="M22.3689 12.0141C22.3689 12.0141 25.9813 11.1987 24.2782 7.78764C22.5753 4.37654 20.6143 6.0795 21.2335 6.75038C21.8527 7.42126 22.6911 4.13294 20.0075 2.89436C17.324 1.65578 16.2166 3.75718 17.9768 4.2217C19.7371 4.68608 19.1401 0.732619 15.9183 0.216579C12.6965 -0.299462 10.3713 1.79634 12.0869 2.82842C13.8025 3.8605 11.7898 0.196558 9.05478 1.17712C6.31974 2.15768 5.66608 6.13116 8.03124 5.76996C10.3964 5.40876 6.7431 2.05436 4.57562 3.96382C2.40814 5.87328 2.70718 8.1438 4.20378 8.505C5.70038 8.8662 4.89916 5.80328 2.11246 7.50624C-0.674238 9.2092 1.62358 13.6654 3.01686 12.7882C4.41014 11.9109 3.20502 10.1563 1.40798 11.6529C-0.389057 13.1495 0.126982 17.0167 2.2428 16.9151C4.35862 16.8134 4.30696 13.7949 3.06852 14.6591C1.82994 15.5233 2.0678 18.9409 3.7394 19.2178C5.411 19.4947 5.236 16.9166 4.1006 17.2778C2.9652 17.639 4.16948 20.7477 6.9475 19.7352" fill="#D43F16"/>
<path d="M4.31634 19.5038C4.2644 19.4589 4.21428 19.4118 4.16682 19.363C4.03578 19.3815 3.88654 19.3806 3.71686 19.3522C3.00902 19.235 2.47464 18.5998 2.2505 17.6098C2.2106 17.4327 2.18204 17.2452 2.1658 17.0534C2.16468 17.0534 2.1637 17.0534 2.1623 17.0534C1.39608 17.0533 0.766919 16.5595 0.426999 15.686C-0.0327609 14.505 0.114519 12.768 1.11006 11.7429C0.84868 11.2253 0.680399 10.6117 0.662759 10.0152C0.629719 8.88566 1.11916 7.9534 2.0412 7.38976C2.35018 7.20104 2.63102 7.07168 2.88512 6.9874C2.83738 6.1355 3.23148 4.96608 4.48546 3.86134C5.15844 3.2683 5.96246 3.15966 6.69074 3.29868C7.07728 2.35858 7.89404 1.44816 9.00844 1.0486C9.9904 0.696638 10.8986 0.919939 11.586 1.3293C12.1829 0.434838 13.9269 -0.240802 15.9396 0.0818984C17.5606 0.341458 18.5181 1.4301 18.8943 2.40268C19.2276 2.4521 19.6165 2.56368 20.0645 2.77046C21.4451 3.40774 21.9632 4.60586 21.9978 5.59258C22.4917 5.5755 23.4585 5.8408 24.3999 7.72674C24.9304 8.7892 25.0131 9.7202 24.646 10.4941C24.0444 11.7625 22.4655 12.1318 22.3986 12.1471C22.3245 12.1632 22.2519 12.1174 22.2355 12.0441C22.2187 11.9707 22.2648 11.8976 22.3384 11.881C22.3535 11.8776 23.8542 11.5269 24.3996 10.3774C24.7289 9.68296 24.6469 8.83218 24.1559 7.84854C23.2709 6.07586 22.3959 5.86488 22.0308 5.86488C22.0184 5.86474 22.0069 5.86544 21.9948 5.86558C21.9632 6.42614 21.7732 6.86126 21.516 6.95604C21.4375 6.98488 21.2848 7.00784 21.133 6.84292C20.9728 6.6696 20.9362 6.42544 21.0347 6.1901C21.1312 5.95896 21.3741 5.72124 21.7258 5.63052C21.7034 4.72318 21.231 3.60962 19.9499 3.01826C19.5999 2.8567 19.2795 2.75464 18.9921 2.69906C19.1605 3.30974 19.0987 3.85756 18.8203 4.1573C18.6743 4.31438 18.4031 4.47496 17.9417 4.35344C17.4238 4.2168 17.082 3.9263 17.0043 3.55628C16.94 3.25038 17.0706 2.93314 17.3536 2.70746C17.495 2.59476 17.8959 2.34206 18.5868 2.37286C18.2067 1.50724 17.3323 0.581138 15.8964 0.351118C13.865 0.0261784 12.3154 0.755578 11.817 1.4791C12.1881 1.74076 12.4785 2.0503 12.6585 2.33002C12.8738 2.66364 12.917 2.9253 12.78 3.06656C12.573 3.2802 12.1542 3.02806 12.0165 2.94518C11.4618 2.6117 11.2497 2.12996 11.4346 1.62372C11.4415 1.60552 11.4485 1.58718 11.4562 1.56898C10.8195 1.18776 9.98718 0.987699 9.1007 1.3055C8.01808 1.69358 7.3038 2.53022 6.95828 3.36182C7.2436 3.44134 7.5124 3.55656 7.75138 3.69194C8.53216 4.13406 9.01474 4.7838 8.92458 5.27226C8.88174 5.50676 8.69526 5.8065 8.05154 5.90478C7.24836 6.02742 6.68136 5.68806 6.50048 4.97266C6.39422 4.5535 6.4323 4.05832 6.59484 3.55894C5.94958 3.44694 5.25028 3.55138 4.6655 4.06602C3.51274 5.08172 3.13096 6.13788 3.1542 6.91208C4.04642 6.71006 4.55252 7.08484 4.71688 7.24108C5.05918 7.56658 5.17916 8.0388 5.00192 8.36388C4.93346 8.48974 4.71576 8.76876 4.17186 8.63758C3.55138 8.48792 3.10352 8.03026 2.94294 7.38234C2.93356 7.34482 2.9253 7.30618 2.91816 7.2667C2.68296 7.34944 2.43628 7.4683 2.18344 7.62272C1.11328 8.27666 0.914339 9.28046 0.935619 10.0073C0.952139 10.5668 1.10292 11.1019 1.31978 11.5487C1.32006 11.5486 1.32034 11.5483 1.32062 11.548C1.98604 10.9942 2.66728 10.8018 3.18836 11.0205C3.5161 11.1579 3.72862 11.4437 3.7569 11.7853C3.79148 12.2069 3.5483 12.6146 3.08952 12.9035C2.8028 13.0838 2.47044 13.0833 2.12884 12.9013C1.799 12.7254 1.4945 12.4006 1.24922 11.9945C0.394379 12.9415 0.272019 14.5362 0.681239 15.5872C0.85624 16.0373 1.27722 16.7765 2.1518 16.7807C2.13346 15.8946 2.38308 14.971 2.9904 14.5473C3.38898 14.2691 3.6519 14.3749 3.77342 14.4623C4.0579 14.6675 4.14694 15.1799 3.99 15.7084C3.90586 15.9926 3.55208 16.8909 2.43852 17.0348C2.45322 17.2117 2.47954 17.3851 2.51678 17.5497C2.71502 18.4261 3.16862 18.985 3.76166 19.0833C3.8269 19.094 3.88822 19.1001 3.94604 19.1019C3.6288 18.6677 3.47606 18.1535 3.56216 17.7331C3.62236 17.4385 3.79904 17.2308 4.0593 17.1479C4.37178 17.0484 4.66676 17.1343 4.86598 17.3841C5.16572 17.7589 5.19442 18.4038 4.93122 18.8524C4.85268 18.9864 4.70988 19.1659 4.47006 19.2759C4.47804 19.283 4.4863 19.2902 4.49456 19.2973C4.85576 19.6088 5.64914 20.0635 6.90102 19.6071C6.97214 19.5818 7.04998 19.6179 7.07574 19.6885C7.10164 19.7593 7.0651 19.8376 6.99426 19.8633C6.57944 20.0145 6.20914 20.0742 5.88308 20.0742C5.12204 20.0742 4.60096 19.7491 4.31634 19.5038ZM4.1419 17.4079C3.93442 17.4738 3.8577 17.6508 3.82942 17.7878C3.76152 18.1206 3.8941 18.6306 4.26174 19.0631C4.48266 18.9953 4.61636 18.8504 4.69602 18.7144C4.89874 18.3686 4.879 17.8374 4.65318 17.5543C4.55994 17.4378 4.44598 17.3793 4.31242 17.3793C4.2588 17.3792 4.20182 17.3888 4.1419 17.4079ZM3.14664 14.771C2.63676 15.1266 2.41136 15.9519 2.42466 16.7611C3.35944 16.6274 3.65736 15.8714 3.72876 15.6307C3.84916 15.225 3.79988 14.8177 3.61396 14.6835C3.5714 14.6528 3.52366 14.6402 3.47438 14.6402C3.36266 14.6401 3.24114 14.7049 3.14664 14.771ZM1.49548 11.7576C1.4805 11.7699 1.46594 11.7825 1.45124 11.7951C1.68994 12.2038 1.98086 12.5131 2.25708 12.6605C2.5109 12.7961 2.74218 12.8001 2.9442 12.6727C3.31394 12.4398 3.51106 12.1247 3.48502 11.8077C3.46528 11.5696 3.31506 11.3694 3.08308 11.2721C3.01056 11.2416 2.89128 11.2063 2.72958 11.2063C2.44384 11.2063 2.0251 11.3165 1.49548 11.7576ZM3.18122 7.18788C3.18864 7.23212 3.19774 7.27496 3.20782 7.31668C3.3432 7.86254 3.7177 8.2474 4.23584 8.37242C4.4926 8.43486 4.67964 8.38502 4.76252 8.23326C4.86346 8.04804 4.80382 7.7 4.52886 7.43876C4.30822 7.22876 4.01436 7.1246 3.67178 7.1246C3.5175 7.1246 3.35314 7.14574 3.18122 7.18788ZM21.2864 6.29524C21.2531 6.37532 21.2148 6.5289 21.3336 6.65784C21.3853 6.71356 21.4109 6.70404 21.4221 6.69998C21.5236 6.6626 21.6794 6.39044 21.7181 5.91738C21.4985 5.99494 21.3486 6.14712 21.2864 6.29524ZM6.76494 4.90546C6.90928 5.47666 7.35266 5.7351 8.01066 5.635C8.2782 5.59412 8.60748 5.4894 8.65648 5.2227C8.72368 4.8587 8.27652 4.30248 7.61726 3.9291C7.39032 3.80072 7.13454 3.6918 6.86336 3.61844C6.70824 4.0936 6.67548 4.55154 6.76494 4.90546ZM17.5241 2.92096C17.3202 3.08336 17.2284 3.29448 17.2715 3.50014C17.3275 3.76544 17.5973 3.98048 18.0118 4.08982C18.2774 4.15954 18.4828 4.1202 18.6206 3.97166C18.8475 3.72736 18.8755 3.21524 18.6952 2.6565C18.1567 2.60694 17.7598 2.73308 17.5241 2.92096ZM12.5822 2.87924C12.607 2.82842 12.5362 2.56116 12.213 2.19464C12.0676 2.02986 11.8912 1.86774 11.6893 1.72214C11.5529 2.10308 11.7146 2.4451 12.1573 2.71138C12.4618 2.89464 12.5681 2.87952 12.581 2.87882C12.5817 2.87896 12.5822 2.87896 12.5822 2.87924Z" fill="#251626"/>
<path d="M23.2072 43.7826L30.0871 48.1412L37.1237 45.8207L36.2181 44.9798L31.542 45.8207L26.2396 39.5927L23.2072 43.7826Z" fill="#DE8389"/>
<path d="M20.5257 34.907C20.5257 34.907 23.1718 34.2698 27.2252 40.0205L23.2404 44.2992L19.1892 40.5149L20.5257 34.907Z" fill="#F7C67C"/>
<path d="M9.34345 51.3221C9.34345 51.3221 9.24784 57.5084 12.8815 56.7868L9.34345 51.3221Z" fill="#757A91"/>
<path d="M29.0478 64.8335L28.0116 69.6801L29.323 69.9168L29.1705 68.3911C29.1705 68.3911 29.3801 70.5204 32.8978 69.8797C32.8978 69.8797 28.5513 67.6647 31.4903 65.1093L29.0478 64.8335Z" fill="#251426"/>
<path d="M6.05318 64.3965L1.49338 62.4544L1.01066 63.6965L2.53736 63.838C2.53736 63.838 0.40726 63.6373 0.3647 67.2126C0.3647 67.2126 3.36854 63.3688 5.31608 66.7415L6.05318 64.3965Z" fill="#251426"/>
<path d="M31.8927 39.1481C31.8927 39.1481 30.0013 38.7374 29.6526 38.68C25.2252 37.9511 24.8797 45.0328 29.7037 45.018L29.8782 44.1787C29.8782 44.1787 27.5797 43.1967 28.1595 40.8579C28.7392 38.5189 31.4927 41.1925 31.4927 41.1925L31.8927 39.1481Z" fill="#C083AF"/>
<path d="M32.2232 35.43L28.3832 48.5664L37.5848 48.7843L37.0276 36.2496L32.2232 35.43Z" fill="#C083AF"/>
<path d="M36.3433 41.1998L41.8929 38.5589L43.8564 39.9699L35.7742 44.036L36.3433 41.1998Z" fill="#C083AF"/>
<path d="M17.1304 50.6363L18.3184 68.8348L3.96788 66.6295L4.76182 61.4403L14.7217 64.4847L9.34346 51.3221L17.1304 50.6363Z" fill="#757A91"/>
<path d="M17.1304 50.6363L36.1032 51.689L32.8923 67.2014L27.0187 66.4233L32.0218 54.5854L16.3759 56.4287L17.1304 50.6363Z" fill="#757A91"/>
<path d="M22.7308 50.9135L9.34332 51.3222C9.34332 51.3222 9.25568 35.428 10.3144 35.3032C20.9954 34.0448 23.8522 36.358 23.8522 36.358L22.7308 50.9135Z" fill="#F7C67C"/>
<path d="M18.2591 29.7088V34.4168L20.5257 34.9072C20.5257 34.9072 21.0958 38.242 17.9197 38.7324C14.7438 39.2228 13.28 34.2206 13.28 34.2206L16.3131 34.2376L15.6265 30.1993L18.2591 29.7088Z" fill="#EFA880"/>
<path d="M7.23394 14.2139C7.23394 14.2139 11.9932 6.54136 19.3057 8.65606C24.7768 10.2382 26.7336 27.9488 18.3187 28.8278C12.3539 29.451 5.44936 18.4253 7.23394 14.2139Z" fill="#EFA880"/>
<path d="M7.23394 14.2139C7.23394 14.2139 10.3701 25.3424 13.3655 25.7795C18.7414 26.5639 10.6704 21.5685 17.6308 20.4273C22.094 19.6955 18.9889 24.2735 22.5365 22.4951C25.2046 21.1575 20.3374 9.45252 19.822 8.86424C19.3066 8.27596 25.0855 10.1391 24.4371 18.3011C24.2197 21.0386 30.9268 21.2852 26.9935 26.2821C20.0109 35.1529 6.72028 31.5116 8.85948 26.9739C11.8024 20.7315 1.26882 22.6072 7.23394 14.2139Z" fill="#D43F16"/>
<path d="M18.3142 20.0361C18.7221 20.0361 19.1017 20.0306 19.3103 20.014C19.395 20.0071 19.4606 19.9609 19.4901 19.8871C19.6609 19.4607 17.8059 17.2927 16.6851 16.0381C16.6349 15.9816 16.5487 15.9771 16.4924 16.0272C16.4361 16.0775 16.4314 16.1637 16.4815 16.2198C17.7836 17.6774 19.119 19.3404 19.2268 19.7463C18.5802 19.7858 16.6928 19.7442 16.6733 19.7438C16.5942 19.7422 16.5355 19.802 16.534 19.8771C16.5325 19.9525 16.5921 20.0148 16.6674 20.0165C16.7216 20.0176 17.5654 20.0361 18.3142 20.0361Z" fill="#251626"/>
<path d="M17.6481 25.1426C17.7121 25.1426 17.7755 25.1254 17.836 25.0914C18.5961 24.662 19.2499 22.0056 19.322 21.7042C19.3396 21.631 19.2942 21.5575 19.221 21.5398C19.147 21.5222 19.074 21.5677 19.0567 21.6408C18.8684 22.4279 18.2582 24.5396 17.7017 24.8538C17.6672 24.8734 17.6368 24.8748 17.5987 24.8576C17.178 24.6641 16.6876 22.9027 16.4772 21.8379C16.4627 21.7638 16.3901 21.7155 16.317 21.7304C16.2429 21.7451 16.1949 21.8168 16.2096 21.8907C16.268 22.1866 16.8003 24.7908 17.4846 25.1054C17.5386 25.13 17.5938 25.1426 17.6481 25.1426Z" fill="#251626"/>
<path d="M13.4352 18.1878C13.4582 18.1878 13.4807 18.1856 13.5034 18.1807C14.1218 18.0475 13.8338 16.2882 13.7309 15.7521C13.7168 15.678 13.6465 15.6297 13.571 15.6437C13.4973 15.658 13.4488 15.7296 13.4628 15.8035C13.6464 16.7604 13.6847 17.8626 13.4457 17.914C13.1919 17.9661 12.6034 16.9957 12.2128 16.0514C12.1839 15.9817 12.1044 15.9485 12.0345 15.9775C11.965 16.0063 11.9319 16.086 11.9608 16.1556C12.1632 16.6443 12.8486 18.1878 13.4352 18.1878Z" fill="#251626"/>
<path d="M19.6925 16.7118C19.7162 16.7118 19.7394 16.7094 19.7618 16.7047C20.38 16.5714 20.0922 14.8121 19.9893 14.2761C19.9752 14.2022 19.9023 14.1533 19.8297 14.1677C19.7557 14.182 19.7072 14.2535 19.7214 14.3275C19.9049 15.2844 19.943 16.3864 19.7043 16.438C19.4313 16.4948 18.6435 15.5501 18.0706 14.639C18.0305 14.575 17.9455 14.5565 17.8828 14.5961C17.8188 14.6362 17.7996 14.7204 17.8399 14.7841C18.1314 15.248 19.0992 16.7118 19.6925 16.7118Z" fill="#251626"/>
<path d="M6.33654 22.6069C7.27234 22.6069 8.03096 21.8483 8.03096 20.9125C8.03096 19.9767 7.27234 19.2181 6.33654 19.2181C5.40074 19.2181 4.64212 19.9767 4.64212 20.9125C4.64212 21.8483 5.40074 22.6069 6.33654 22.6069Z" fill="#EFA880"/>
<path d="M24.8529 16.2393C25.7257 16.2393 26.4333 15.5318 26.4333 14.659C26.4333 13.7862 25.7257 13.0787 24.8529 13.0787C23.9801 13.0787 23.2726 13.7862 23.2726 14.659C23.2726 15.5318 23.9801 16.2393 24.8529 16.2393Z" fill="#EFA880"/>
<path d="M7.10388 21.7388C7.11214 21.7388 7.1204 21.7381 7.12866 21.7365C7.203 21.723 7.252 21.652 7.23842 21.5778C7.14462 21.0675 6.92832 20.7291 6.59498 20.572C6.03414 20.3073 5.36522 20.6731 5.33708 20.6886C5.27128 20.7253 5.2479 20.8081 5.2843 20.8739C5.32056 20.9398 5.40414 20.9636 5.46952 20.9271C5.47512 20.924 6.0466 20.6144 6.47976 20.8191C6.72826 20.9367 6.89318 21.2086 6.9699 21.6271C6.98208 21.6929 7.03934 21.7388 7.10388 21.7388Z" fill="#251626"/>
<path d="M24.8872 15.9516C24.9112 15.9516 24.9354 15.9453 24.9572 15.9321C25.0219 15.8935 25.0431 15.8098 25.0041 15.7451C24.6973 15.233 24.6026 14.8193 24.7306 14.5491C24.8654 14.2646 25.2059 14.2115 25.2094 14.211C25.284 14.2001 25.3357 14.1308 25.3247 14.0561C25.3135 13.9815 25.2433 13.9294 25.1699 13.9411C25.1499 13.944 24.6807 14.0172 24.4842 14.4322C24.3128 14.7938 24.409 15.2827 24.7703 15.8851C24.7958 15.9281 24.8409 15.9516 24.8872 15.9516Z" fill="#251626"/>
<path d="M11.9435 22.4759C12.8357 22.4759 13.5589 21.7527 13.5589 20.8606C13.5589 19.9684 12.8357 19.2452 11.9435 19.2452C11.0514 19.2452 10.3282 19.9684 10.3282 20.8606C10.3282 21.7527 11.0514 22.4759 11.9435 22.4759Z" fill="#EA7C71"/>
<path d="M20.9954 19.735C21.8875 19.735 22.6107 19.0118 22.6107 18.1196C22.6107 17.2275 21.8875 16.5043 20.9954 16.5043C20.1033 16.5043 19.3801 17.2275 19.3801 18.1196C19.3801 19.0118 20.1033 19.735 20.9954 19.735Z" fill="#EA7C71"/>
<path d="M15.023 30.0545C14.7309 30.3194 14.2467 30.5749 13.4432 30.7061C11.8514 30.966 10.9235 29.9313 10.5868 28.8764C10.5865 28.876 10.5865 28.8757 10.5865 28.8753C10.352 28.947 10.0855 28.947 9.79846 28.8691C9.191 28.7048 8.83568 28.1575 8.7976 27.3284C8.77842 26.9111 8.841 26.4603 8.9572 26.0471C8.43556 25.9634 8.2201 25.6285 8.13288 25.3284C8.00422 24.8832 8.10068 24.2894 8.2852 23.76C8.09732 23.7062 7.94976 23.6013 7.8449 23.4464C7.4613 22.8798 7.82866 21.8432 7.84434 21.7993C7.87024 21.7284 7.94906 21.6919 8.01878 21.7174C8.08962 21.7428 8.12644 21.821 8.1011 21.8918C8.00646 22.1546 7.8169 22.919 8.071 23.2936C8.14296 23.3996 8.24572 23.4692 8.3832 23.5036C8.58886 23.0111 8.8571 22.6136 9.05856 22.5119C9.22026 22.4302 9.38112 22.4465 9.50082 22.5568C9.66364 22.7073 9.7027 22.9936 9.59616 23.2529C9.52504 23.4258 9.28214 23.8267 8.56352 23.8011C8.56268 23.8011 8.56198 23.8011 8.56142 23.8011C8.38446 24.2893 8.27792 24.8483 8.39496 25.2524C8.48554 25.5651 8.69792 25.7408 9.03994 25.7838C9.24448 25.2011 9.55276 24.7348 9.87378 24.6154C10.1836 24.5001 10.5398 24.569 10.761 24.7869C10.9259 24.9493 10.982 25.1647 10.9115 25.3637C10.8359 25.5765 10.543 25.9496 9.43054 26.0562C9.36292 26.0628 9.29866 26.066 9.23762 26.0667C9.12044 26.4606 9.05114 26.9028 9.07004 27.3157C9.09272 27.8116 9.25008 28.4379 9.86986 28.6058C10.1349 28.6772 10.3464 28.6656 10.5143 28.6114C10.3529 27.9026 10.4721 27.2811 10.8238 27.1086C11.0114 27.0168 11.187 27.0397 11.3065 27.1715C11.5228 27.4086 11.4939 27.9374 11.2419 28.3506C11.1335 28.5281 10.9964 28.6663 10.8371 28.763C10.8401 28.7731 10.8433 28.7833 10.8468 28.7934C11.1489 29.7398 11.9783 30.6692 13.3995 30.4366C14.1844 30.3086 14.6266 30.0629 14.8757 29.82C14.7851 29.6587 14.7169 29.4994 14.6695 29.3542C14.5013 28.8379 14.5512 28.4406 14.796 28.342C14.9292 28.2885 15.079 28.3234 15.2061 28.4388C15.4017 28.6167 15.5534 29.0065 15.4242 29.4417C15.3901 29.5567 15.3278 29.6993 15.2135 29.8486C15.6145 30.4473 16.3698 31.001 17.5504 30.7037C18.2183 30.5355 18.7071 30.1552 19.039 29.7181C18.9252 29.6729 18.832 29.6215 18.7575 29.5718C18.3704 29.314 18.1567 28.8921 18.1854 28.4428C18.2137 27.9997 18.4722 27.6156 18.8765 27.4154C19.2255 27.243 19.4527 27.326 19.5822 27.4263C19.846 27.6305 19.9374 28.1043 19.8206 28.6629C19.7617 28.9443 19.6477 29.2545 19.473 29.556C19.9454 29.6335 20.6657 29.5621 21.7225 29.0387C22.8131 28.4988 23.2999 27.9588 23.508 27.5355C23.0565 27.483 22.6922 27.2874 22.5358 26.9991C22.4 26.7481 22.4364 26.4548 22.6384 26.1736C22.7857 25.9686 23.017 25.884 23.2581 25.9494C23.6051 26.0424 23.8774 26.4075 23.9204 26.8373C23.9308 26.943 23.9302 27.092 23.8889 27.2723C24.2742 27.2457 25.3627 27.0479 25.9428 25.7058C26.0848 25.3774 26.1856 25.0881 26.2527 24.836C25.9631 24.7628 25.6994 24.6343 25.5051 24.4798C25.1329 24.184 25.0383 23.8218 25.2587 23.5346C25.5286 23.1826 25.9487 23.0586 26.2553 23.2396C26.4032 23.3262 26.7652 23.6452 26.5822 24.6173C27.0103 24.661 27.4571 24.5542 27.7494 24.1993C28.125 23.7432 27.9931 22.8229 27.4287 21.9614C27.1375 21.5172 26.6948 21.0617 26.1862 20.8376C26.1734 21.0259 26.1059 21.1861 25.9648 21.2962C25.5815 21.5951 25.103 21.5603 24.8206 21.401C24.6232 21.2898 24.5172 21.1221 24.5371 20.952C24.5542 20.8078 24.6658 20.6098 25.1019 20.4849C25.3653 20.4096 25.6241 20.4056 25.8731 20.4543C25.8031 20.1809 25.6509 19.8495 25.4274 19.5059C25.296 19.3042 25.1545 19.1219 25.0128 18.9672C24.8573 19.1058 24.6519 19.1741 24.4168 19.1633C24.0583 19.1437 23.7343 18.9335 23.6792 18.6845C23.66 18.5983 23.6488 18.3803 23.9565 18.2161C24.2493 18.0593 24.6225 18.2263 24.9803 18.5475C24.9865 18.5325 24.9924 18.5171 24.9977 18.501C25.2974 17.6179 24.0332 16.8598 24.0205 16.8522C23.9558 16.814 23.9341 16.7304 23.9723 16.6656C24.0104 16.6008 24.0941 16.5788 24.1588 16.6172C24.219 16.6526 25.6273 17.4955 25.2561 18.5886C25.2367 18.646 25.213 18.6998 25.1856 18.7494C25.3537 18.93 25.5143 19.139 25.6563 19.3571C25.8931 19.7212 26.1022 20.1572 26.1675 20.5373C26.7854 20.7645 27.3176 21.2941 27.6567 21.812C28.189 22.624 28.489 23.7307 27.9598 24.3729C27.5857 24.8266 27.0365 24.949 26.5215 24.8868C26.4522 25.1527 26.3465 25.46 26.1933 25.8143C25.7433 26.8551 24.87 27.503 23.8574 27.5477C23.8377 27.5485 23.8182 27.5491 23.7987 27.5495C23.5917 28.0409 23.0738 28.6744 21.8434 29.2835C20.651 29.8739 19.8394 29.9179 19.315 29.8021C18.9497 30.3167 18.3935 30.7727 17.6169 30.9683C17.3617 31.0325 17.1245 31.0614 16.9043 31.0614C16.0055 31.0612 15.3917 30.5802 15.023 30.0545ZM14.8978 28.5951C14.852 28.6136 14.7921 28.849 14.929 29.2698C14.9618 29.3703 15.0058 29.4785 15.0618 29.5891C15.1119 29.507 15.1432 29.4301 15.1627 29.3643C15.2541 29.056 15.1613 28.7669 15.0223 28.6406C15.0002 28.6202 14.9607 28.5905 14.9226 28.5905C14.9143 28.5905 14.9058 28.5919 14.8978 28.5951ZM18.9976 27.6602C18.6816 27.8166 18.48 28.1158 18.4579 28.4605C18.4352 28.8112 18.6039 29.1418 18.909 29.345C18.9827 29.3941 19.0778 29.4449 19.1978 29.4868C19.3792 29.192 19.4958 28.8845 19.5537 28.6075C19.6461 28.1656 19.5905 27.7778 19.4153 27.6424C19.3696 27.607 19.315 27.5892 19.2513 27.5892C19.1779 27.5892 19.0932 27.6128 18.9976 27.6602ZM10.9444 27.3536C10.7507 27.4485 10.6523 27.9093 10.7659 28.4806C10.8788 28.3952 10.9574 28.293 11.009 28.2086C11.223 27.858 11.2088 27.4691 11.1052 27.3554C11.0956 27.3451 11.0783 27.3262 11.0403 27.3262C11.0167 27.3262 10.9859 27.3332 10.9444 27.3536ZM22.8602 26.3329C22.7185 26.5304 22.6902 26.7109 22.776 26.8695C22.8959 27.091 23.2169 27.2413 23.6096 27.2714C23.6565 27.1006 23.6586 26.9611 23.6491 26.8643C23.6137 26.5084 23.3901 26.2672 23.1876 26.2129C23.1608 26.2058 23.1307 26.2006 23.0986 26.2006C23.021 26.2009 22.9334 26.2308 22.8602 26.3329ZM9.96926 24.8713C9.75184 24.9522 9.50922 25.3151 9.33044 25.7908C9.35466 25.7893 9.37944 25.7873 9.4045 25.7849C10.4304 25.6866 10.6207 25.3679 10.6544 25.2725C10.7022 25.1388 10.6217 25.0327 10.5697 24.9815C10.4839 24.897 10.3438 24.8319 10.1835 24.8319C10.115 24.8321 10.0425 24.844 9.96926 24.8713ZM25.4752 23.7007C25.3002 23.9291 25.5567 24.1725 25.675 24.2666C25.8432 24.4002 26.0686 24.5083 26.3138 24.57C26.4351 23.9375 26.3127 23.5896 26.1176 23.4748C26.0651 23.444 26.0063 23.4294 25.9447 23.4294C25.7858 23.4294 25.6084 23.5271 25.4752 23.7007ZM9.18176 22.7556C9.04932 22.8225 8.84422 23.1314 8.6702 23.5288C9.00564 23.5171 9.24854 23.3815 9.34388 23.1493C9.41122 22.9856 9.3814 22.8183 9.31532 22.7571C9.30706 22.7494 9.29026 22.7338 9.25778 22.7338C9.23846 22.7338 9.21382 22.7394 9.18176 22.7556ZM25.177 20.7473C24.9168 20.8216 24.8158 20.9182 24.808 20.9838C24.8016 21.0392 24.8588 21.1096 24.9543 21.1634C25.1602 21.2793 25.5122 21.3032 25.797 21.0813C25.8811 21.0155 25.9197 20.8978 25.9165 20.7434C25.678 20.6815 25.4286 20.6752 25.177 20.7473ZM24.085 18.4565C24.0131 18.4951 23.9302 18.5556 23.9457 18.6252C23.9711 18.7394 24.1844 18.8773 24.432 18.8908C24.5358 18.8973 24.6904 18.8818 24.8203 18.7739C24.5228 18.502 24.2465 18.3708 24.085 18.4565Z" fill="#251626"/>
<path d="M19.2224 56.2736C21.0704 56.2736 21.9514 54.3039 21.9605 54.2831C21.9906 54.214 21.9591 54.1337 21.8903 54.1036C21.8215 54.074 21.7407 54.1048 21.7106 54.1739C21.7015 54.194 20.8158 56.1754 18.9778 55.9881C18.9038 55.9812 18.8359 56.0349 18.8283 56.11C18.8206 56.1851 18.8752 56.2519 18.9501 56.2596C19.0431 56.2691 19.1339 56.2736 19.2224 56.2736Z" fill="#251626"/>
<path d="M15.773 67.3379C15.8399 67.3379 15.8984 67.2886 15.9078 67.2202C15.9181 67.1455 15.8659 67.0768 15.7913 67.0664C15.5928 66.9407 14.8354 65.0709 14.8485 64.5725C15.1277 64.6726 16.009 65.4492 16.7269 66.1718C16.78 66.2255 16.8662 66.2255 16.9198 66.1724C16.9732 66.1193 16.9733 66.0331 16.9204 65.9795C16.2536 65.3083 15.0867 64.1994 14.7323 64.2977C14.6588 64.3189 14.6063 64.3761 14.5887 64.4546C14.4922 64.8819 15.1546 66.625 15.5051 67.1314C15.5971 67.2638 15.6713 67.325 15.7539 67.3365C15.7604 67.3373 15.7665 67.3379 15.773 67.3379Z" fill="#251626"/>
<path d="M32.2353 54.7385C32.944 54.7385 34.4337 54.4176 34.6223 54.3763C34.6961 54.3603 34.7427 54.2875 34.7264 54.2139C34.7105 54.1404 34.6364 54.0942 34.5642 54.1099C34.0327 54.2261 32.6301 54.5009 32.1397 54.4639C32.3677 54.1391 33.5516 53.2063 34.6718 52.4147C34.7334 52.3713 34.748 52.2862 34.7046 52.2246C34.6606 52.1629 34.5751 52.1492 34.5146 52.192C33.2529 53.0835 31.7638 54.2193 31.834 54.5671C31.8494 54.6435 31.9087 54.7002 31.9925 54.7186C32.0551 54.7324 32.1377 54.7385 32.2353 54.7385Z" fill="#251626"/>
<path d="M19.64 56.1959C19.6941 56.1959 19.7456 56.1676 19.7796 56.1173C20.0103 55.7745 20.9147 52.593 19.903 51.2404C19.8575 51.1801 19.7719 51.1678 19.712 51.2129C19.6518 51.2581 19.6395 51.3435 19.6846 51.4037C20.5057 52.5015 19.9244 55.0215 19.6403 55.7746C19.4653 55.1979 19.1653 53.418 18.9393 51.7724C18.9293 51.6975 18.8588 51.6447 18.7856 51.6558C18.711 51.6659 18.6588 51.7348 18.6691 51.8094C19.2595 56.1117 19.5006 56.1677 19.6034 56.1918C19.6158 56.1946 19.6281 56.1959 19.64 56.1959Z" fill="#251626"/>
<path d="M11.4449 56.029C11.4619 56.029 11.479 56.0259 11.4957 56.0192C12.467 55.6299 12.9931 54.7024 13.0169 53.3371C13.0347 52.3292 12.7771 51.4486 12.7662 51.4117C12.7449 51.3394 12.6682 51.2991 12.5968 51.3197C12.5245 51.3411 12.4832 51.417 12.5047 51.4892C12.5147 51.5235 13.4936 54.9245 11.394 55.7662C11.3242 55.7942 11.2904 55.8736 11.3184 55.9435C11.3397 55.9967 11.3908 56.029 11.4449 56.029Z" fill="#251626"/>
<path d="M23.7469 52.1849C23.7789 52.1849 23.8112 52.1839 23.8434 52.1821C24.4562 52.1457 24.9971 51.7621 25.4512 51.0419C25.4913 50.9782 25.4722 50.8939 25.4086 50.8539C25.3455 50.8139 25.2608 50.8325 25.2206 50.8964C24.8161 51.5375 24.3478 51.8785 23.8281 51.9098C22.8397 51.9687 21.9505 50.8941 21.9415 50.8833C21.894 50.8246 21.8081 50.8159 21.7497 50.8633C21.6913 50.9109 21.6824 50.9965 21.7297 51.0551C21.7682 51.1025 22.6584 52.1849 23.7469 52.1849Z" fill="#251626"/>
<path d="M26.6217 40.2857C26.7268 40.2357 30.2733 40.13 30.0107 40.9314C29.7482 41.7327 29.5963 44.1378 29.1735 43.7382C28.7507 43.3387 25.7957 43.7826 25.7957 43.7826C25.7957 43.7826 24.3198 41.379 26.6217 40.2857Z" fill="#EFA880"/>
<path d="M38.6025 42.6131C38.6025 42.6131 36.891 40.7138 36.3433 41.1998C36.1098 41.407 37.6895 43.1879 37.6895 43.1879C37.6895 43.1879 34.7747 41.2432 35.139 42.1071C35.5033 42.971 37.1102 44.2833 37.1102 44.2833C37.1102 44.2833 35.1011 43.7679 34.559 43.7826C33.6873 43.8063 35.7328 45.1861 37.1059 45.534C38.0454 45.772 39.8075 44.1493 38.6025 42.6131Z" fill="#EFA880"/>
<path d="M29.6433 42.9661C29.675 42.9661 29.7067 42.9552 29.7325 42.933C29.7895 42.8837 29.7956 42.7974 29.7464 42.7405C29.7368 42.7297 28.7881 41.652 27.6919 42.3193C27.6273 42.3585 27.6072 42.4424 27.6464 42.5068C27.6856 42.5713 27.7697 42.5912 27.8337 42.5524C28.7354 42.0039 29.5078 42.8812 29.5403 42.9188C29.5672 42.9502 29.6052 42.9661 29.6433 42.9661Z" fill="#251626"/>
<path d="M29.6433 41.6912C29.7024 41.6912 29.7569 41.6527 29.7741 41.5932C29.7954 41.5209 29.7541 41.4452 29.6817 41.4239C27.8235 40.8789 27.4604 41.4249 27.4252 41.4889C27.3886 41.5548 27.4127 41.6378 27.4785 41.6741C27.5428 41.7098 27.6228 41.6879 27.6609 41.6258C27.6739 41.6088 28 41.2146 29.6048 41.6857C29.6179 41.6895 29.6306 41.6912 29.6433 41.6912Z" fill="#251626"/>
<path d="M26.2396 42.797L16.3435 46.3859L13.5591 38.8907L10.3281 40.5149C10.3281 40.5149 14.7392 49.9961 16.168 50.9691C17.5969 51.9421 27.069 43.602 27.069 43.602L26.2396 42.797Z" fill="#EFA880"/>
<path d="M16.9226 43.093L11.5265 45.8206C11.5265 45.8206 7.58422 39.074 7.52864 37.1281C7.42588 33.5346 13.28 34.2205 13.28 34.2205L16.9226 43.093Z" fill="#F7C67C"/>
<path d="M38.207 43.7924C38.2302 43.7924 38.2533 43.7867 38.2746 43.7745C38.3398 43.7373 38.3628 43.6538 38.3254 43.5884C38.1973 43.3643 37.8085 43.1032 37.7646 43.0741C37.702 43.0322 37.6173 43.0501 37.5757 43.1126C37.5341 43.1753 37.5515 43.26 37.6141 43.3016C37.7593 43.3976 38.016 43.597 38.0883 43.7237C38.1137 43.7678 38.1598 43.7924 38.207 43.7924Z" fill="#251626"/>
<path d="M37.3687 44.6599C37.4111 44.6599 37.4531 44.64 37.4798 44.6027C37.5235 44.5414 37.5094 44.4562 37.4482 44.4125C37.0654 44.1392 36.7905 43.7871 36.7878 43.7835C36.7415 43.724 36.6556 43.7133 36.5966 43.7593C36.5369 43.8053 36.526 43.8909 36.5721 43.9504C36.5841 43.966 36.8731 44.3369 37.2896 44.6344C37.3135 44.6516 37.3412 44.6599 37.3687 44.6599Z" fill="#251626"/>
<path d="M11.5265 45.9571C11.5472 45.9571 11.5683 45.9523 11.5881 45.9424L16.9844 43.2146C17.0169 43.1983 17.0414 43.1696 17.0526 43.135C17.0638 43.1005 17.0608 43.0629 17.044 43.0305L14.1466 37.389C14.1123 37.3218 14.0297 37.2956 13.963 37.3299C13.8961 37.3642 13.8695 37.4465 13.9041 37.5136L16.7387 43.0329L11.5693 45.646C11.2584 45.2059 9.94126 43.2897 9.11232 41.2672C9.08376 41.1972 9.00312 41.1639 8.93438 41.1928C8.86452 41.2213 8.83134 41.301 8.85976 41.3706C9.81316 43.696 11.4005 45.8793 11.4164 45.901C11.4428 45.9374 11.4841 45.9571 11.5265 45.9571Z" fill="#251626"/>
<path d="M23.2072 43.919C23.2698 43.919 23.3264 43.8757 23.3404 43.812C23.9641 40.9952 23.0542 37.0646 23.045 37.0254C23.0279 36.9523 22.9547 36.9065 22.8812 36.9237C22.808 36.9411 22.7623 37.0145 22.7797 37.0877C22.7888 37.1266 23.6841 40.9976 23.0741 43.7532C23.0579 43.8267 23.1042 43.8997 23.1777 43.9159C23.1878 43.9179 23.1977 43.919 23.2072 43.919Z" fill="#251626"/>
<path d="M20.2384 45.9571C20.2962 45.9571 20.35 45.9201 20.3685 45.862C20.4201 45.6998 20.8547 45.6414 21.1291 45.6529C21.2076 45.6575 21.2681 45.5974 21.271 45.5225C21.2743 45.4472 21.2162 45.3838 21.1407 45.3804C20.9912 45.3739 20.2411 45.3627 20.1083 45.7796C20.0854 45.8514 20.1251 45.928 20.1971 45.9509C20.2107 45.9551 20.2248 45.9571 20.2384 45.9571Z" fill="#251626"/>
<path d="M19.4477 47.243C19.5055 47.243 19.5593 47.206 19.5777 47.1479C19.6294 46.9857 20.0602 46.9272 20.3384 46.9389C20.4138 46.9416 20.4774 46.8836 20.4803 46.8086C20.4835 46.7333 20.4254 46.6698 20.35 46.6665C20.2007 46.6595 19.4503 46.6487 19.3176 47.0655C19.2947 47.1373 19.3344 47.2139 19.4064 47.2368C19.4201 47.241 19.4341 47.243 19.4477 47.243Z" fill="#251626"/>
<path d="M18.8454 46.544C18.9032 46.544 18.957 46.507 18.9755 46.4489C19.0271 46.2867 19.4573 46.228 19.7361 46.2399C19.8117 46.2437 19.8751 46.1846 19.878 46.1096C19.8813 46.0343 19.8232 45.9708 19.7477 45.9675C19.598 45.9601 18.8481 45.9497 18.7153 46.3665C18.6924 46.4383 18.7321 46.5149 18.8041 46.5378C18.8177 46.542 18.8318 46.544 18.8454 46.544Z" fill="#251626"/>
<path d="M22.7203 44.7406C22.7781 44.7406 22.8319 44.7035 22.8504 44.6456C22.902 44.4833 23.3328 44.4245 23.6107 44.4366C23.6853 44.4374 23.7497 44.3813 23.7527 44.3062C23.7559 44.2309 23.6978 44.1675 23.6223 44.1641C23.4731 44.1573 22.7224 44.1463 22.5903 44.5631C22.5673 44.6349 22.6073 44.7117 22.679 44.7345C22.6929 44.7387 22.7067 44.7406 22.7203 44.7406Z" fill="#251626"/>
<path d="M23.7286 45.0457C23.7864 45.0457 23.8402 45.0087 23.8587 44.9506C23.9103 44.7884 24.3401 44.7309 24.619 44.7416C24.6975 44.7464 24.758 44.6862 24.761 44.6113C24.7642 44.536 24.7061 44.4726 24.6306 44.4692C24.481 44.4626 23.731 44.4514 23.5985 44.8682C23.5756 44.94 23.6156 45.0167 23.6873 45.0395C23.7012 45.0437 23.715 45.0457 23.7286 45.0457Z" fill="#251626"/>
<path d="M21.3874 46.544C21.4452 46.544 21.499 46.507 21.5174 46.4489C21.5691 46.2867 21.9993 46.228 22.2781 46.2399C22.3532 46.2437 22.4171 46.1846 22.42 46.1096C22.4232 46.0343 22.3651 45.9708 22.2897 45.9675C22.1407 45.9601 21.39 45.9497 21.2573 46.3665C21.2344 46.4383 21.2741 46.5149 21.3461 46.5378C21.3598 46.542 21.3738 46.544 21.3874 46.544Z" fill="#251626"/>
<path d="M21.8355 45.652C21.8933 45.652 21.9471 45.6151 21.9656 45.557C22.0172 45.3947 22.4515 45.3368 22.7262 45.3478C22.8008 45.3485 22.8652 45.2925 22.8682 45.2175C22.8714 45.1422 22.8133 45.0787 22.7378 45.0754C22.5886 45.0687 21.8379 45.0576 21.7055 45.4745C21.6825 45.5463 21.7223 45.6229 21.7942 45.6459C21.8078 45.6501 21.8219 45.652 21.8355 45.652Z" fill="#251626"/>
<path d="M9.02328 39.3194C9.04106 39.3194 9.05926 39.3159 9.07662 39.3085C9.14592 39.2791 9.1784 39.199 9.14886 39.1297C9.00424 38.7891 9.14942 38.4017 9.15068 38.3979C9.17756 38.3277 9.14242 38.2487 9.07214 38.2218C9.00228 38.1949 8.9229 38.2299 8.89602 38.3004C8.88832 38.3204 8.71067 38.7955 8.89784 39.2363C8.91996 39.2883 8.97022 39.3194 9.02328 39.3194Z" fill="#251626"/>
<path d="M9.37888 37.6779C9.39666 37.6779 9.41486 37.6744 9.43222 37.667C9.50152 37.6376 9.534 37.5575 9.50446 37.4882C9.3611 37.1505 9.50502 36.7599 9.50656 36.756C9.53288 36.6857 9.49746 36.6069 9.42718 36.5803C9.35844 36.5539 9.2785 36.5886 9.25162 36.6589C9.24392 36.679 9.06625 37.1542 9.25344 37.5948C9.27556 37.6467 9.32596 37.6779 9.37888 37.6779Z" fill="#251626"/>
<path d="M8.33056 37.6779C8.34834 37.6779 8.36654 37.6744 8.3839 37.667C8.4532 37.6376 8.48568 37.5575 8.45614 37.4882C8.31278 37.1505 8.4567 36.7599 8.45824 36.756C8.48456 36.6857 8.44914 36.6069 8.37886 36.5803C8.31012 36.5539 8.23018 36.5886 8.2033 36.6589C8.1956 36.679 8.01794 37.1542 8.20512 37.5948C8.22724 37.6467 8.27764 37.6779 8.33056 37.6779Z" fill="#251626"/>
<path d="M10.2908 38.9025C10.3086 38.9025 10.3268 38.899 10.3442 38.8916C10.4135 38.8622 10.446 38.7821 10.4164 38.7128C10.2718 38.3722 10.417 37.9848 10.4182 37.981C10.4451 37.9107 10.41 37.8318 10.3397 37.8049C10.2698 37.7782 10.1907 37.813 10.1636 37.8834C10.1559 37.9035 9.97822 38.3788 10.1654 38.8193C10.1875 38.8714 10.2378 38.9025 10.2908 38.9025Z" fill="#251626"/>
<path d="M9.63354 40.9592C9.6628 40.9592 9.69219 40.9499 9.71697 40.9307C9.77661 40.8846 9.78753 40.7989 9.74147 40.7393C9.51692 40.4494 9.5571 40.035 9.55766 40.0308C9.56536 39.9559 9.51132 39.8888 9.43642 39.8808C9.3632 39.8726 9.29474 39.9266 9.28648 40.0015C9.2841 40.0228 9.23272 40.5276 9.52574 40.9063C9.55262 40.9409 9.5928 40.9592 9.63354 40.9592Z" fill="#251626"/>
<path d="M10.5809 40.9592C10.6102 40.9592 10.6396 40.9499 10.6644 40.9307C10.724 40.8846 10.7349 40.7989 10.6889 40.7393C10.4643 40.4494 10.5045 40.035 10.505 40.0308C10.5127 39.9559 10.4587 39.8888 10.3838 39.8808C10.3109 39.8726 10.2421 39.9266 10.2339 40.0015C10.2315 40.0228 10.1801 40.5276 10.4731 40.9063C10.5 40.9409 10.5402 40.9592 10.5809 40.9592Z" fill="#251626"/>
<path d="M43.8564 39.1831C43.8564 39.1831 47.2525 38.6009 47.8436 41.5548C48.4347 44.5088 44.5067 39.1768 43.8564 39.1831Z" fill="#9CD1C3"/>
<path d="M43.2281 38.3492C43.2281 38.3492 46.8422 35.532 48.1613 37.4515C49.4803 39.3711 44.2224 37.8944 43.2281 38.3492Z" fill="#9CD1C3"/>
<path d="M6.3168 12.2158C5.96806 12.1647 5.7323 11.944 5.65264 11.5944C5.46798 10.7857 6.14922 9.40968 7.02758 8.81636C7.36568 8.5883 7.73402 8.55386 8.0892 8.71178C8.19518 8.057 8.46426 7.38234 8.90232 7.04284C9.40422 6.65448 10.1081 6.74212 10.5993 6.95366C10.6768 6.98698 10.75 7.02352 10.8182 7.0623C11.0375 6.61024 11.4344 6.11898 12.0238 5.81112C12.7414 5.43648 13.5799 5.58068 14.1488 5.91472C14.3837 5.62688 14.7262 5.3893 15.1708 5.29676C17.5074 4.80914 18.5233 7.7147 18.5332 7.74396C18.5574 7.81536 18.5191 7.89264 18.4477 7.91686C18.3765 7.94024 18.299 7.90272 18.2748 7.83132C18.2372 7.72072 17.3312 5.12764 15.2263 5.56374C14.8586 5.64046 14.5736 5.83338 14.3751 6.06802C14.5223 6.18366 14.6397 6.31246 14.7161 6.44504C14.9005 6.76522 14.8277 7.0721 14.5214 7.266C14.2432 7.44212 14.0631 7.3941 13.9608 7.32424C13.7946 7.20986 13.7327 6.95604 13.7953 6.64524C13.8289 6.47808 13.8953 6.30364 13.9936 6.13718C13.4994 5.85578 12.7649 5.73118 12.15 6.05304C11.5903 6.34522 11.2347 6.81324 11.0474 7.21672C11.2466 7.37576 11.3711 7.5565 11.3882 7.7266C11.4038 7.88396 11.3315 8.02662 11.184 8.12854C10.9949 8.25958 10.8622 8.23914 10.7855 8.19854C10.7061 8.15682 10.6114 8.057 10.6117 7.81746C10.612 7.67886 10.6448 7.5054 10.7118 7.31584C10.646 7.27664 10.5725 7.23898 10.4915 7.20426C10.071 7.02366 9.47674 6.94288 9.06934 7.25872C8.66754 7.5698 8.4217 8.23354 8.33756 8.85682C8.79228 9.18638 9.1133 9.8189 9.01152 10.1867C8.96546 10.3527 8.83806 10.4565 8.66222 10.4709C8.53356 10.4826 8.29108 10.4448 8.14618 10.0726C8.0458 9.814 8.01374 9.422 8.05238 8.9985C7.82614 8.87544 7.51898 8.81356 7.18018 9.0426C6.32604 9.6194 5.77248 10.8945 5.91822 11.5339C5.97366 11.7762 6.11674 11.9111 6.35586 11.9462C6.43048 11.9571 6.48214 12.0264 6.47122 12.101C6.46114 12.1688 6.40304 12.2177 6.3364 12.2177C6.33024 12.2174 6.32352 12.217 6.3168 12.2158ZM8.40098 9.97346C8.4623 10.1311 8.54112 10.2043 8.64024 10.199C8.70282 10.1937 8.7332 10.1699 8.74888 10.1136C8.80026 9.9274 8.63674 9.49046 8.30802 9.18484C8.29444 9.49676 8.32496 9.7783 8.40098 9.97346ZM10.8892 7.73836C10.8732 7.89068 10.9042 7.95004 10.9108 7.95634C10.9182 7.95746 10.9582 7.95312 11.0291 7.90412C11.1152 7.84448 11.1205 7.78974 11.1167 7.75362C11.1096 7.6804 11.0503 7.58436 10.9435 7.48552C10.9148 7.57932 10.8966 7.66514 10.8892 7.73836ZM14.0626 6.699C14.0183 6.9188 14.0588 7.06048 14.1154 7.09926C14.1634 7.13258 14.2605 7.10808 14.3753 7.03542C14.5559 6.92118 14.5901 6.77264 14.4798 6.58126C14.4211 6.47976 14.3319 6.38064 14.2195 6.28992C14.1422 6.42446 14.0897 6.5646 14.0626 6.699Z" fill="#251626"/>
<path d="M33.2592 65.5659C33.3256 65.5659 33.384 65.5173 33.3938 65.4496C33.405 65.375 33.3536 65.3055 33.279 65.2946L27.803 64.4797C27.7295 64.47 27.6591 64.5201 27.6482 64.5945C27.637 64.6691 27.6884 64.7385 27.763 64.7494L33.2389 65.5644C33.2457 65.5654 33.2527 65.5659 33.2592 65.5659Z" fill="#251626"/>
<path d="M6.33682 66.6884C6.405 66.6884 6.46422 66.6373 6.4722 66.5675L6.97592 62.186C6.98446 62.1111 6.9307 62.0435 6.8558 62.035C6.7865 62.0255 6.71356 62.0798 6.70474 62.1548L6.20102 66.5365C6.19248 66.6112 6.24624 66.6788 6.32114 66.6876C6.32618 66.6882 6.3315 66.6884 6.33682 66.6884Z" fill="#251626"/>
</svg>
