<svg width="80" height="100" viewBox="0 0 80 100" fill="none" xmlns="http://www.w3.org/2000/svg">
<path d="M74.0452 70.2242C74.0452 70.2242 78.6508 72.6396 79.746 66.591C79.746 66.591 73.8236 64.953 74.0452 70.2242Z" fill="#3D9C91"/>
<path d="M71.5124 73.453C71.5124 73.453 73.6366 78.2 78.239 74.1254C78.239 74.1254 74.5994 69.1746 71.5124 73.453Z" fill="#757A91"/>
<path d="M71.1876 73.314C71.1876 73.314 74.9152 69.6876 69.507 66.7662C69.507 66.7662 66.1088 71.8858 71.1876 73.314Z" fill="#3D9C91"/>
<path d="M68.9674 81.61C69.0702 81.61 69.1562 81.5298 69.1618 81.4262C69.1672 81.3364 69.7482 72.4152 76.2018 69.1684C76.2978 69.12 76.3368 69.0028 76.2884 68.9068C76.2402 68.8104 76.123 68.7716 76.0268 68.8202C69.37 72.1694 68.7778 81.3122 68.773 81.404C68.767 81.5116 68.8492 81.6034 68.9564 81.6096C68.9602 81.6098 68.964 81.61 68.9674 81.61Z" fill="#251426"/>
<path d="M74.2394 73.796C74.6036 73.796 74.8852 73.7778 74.9896 73.729C75.0872 73.6836 75.1292 73.5674 75.0838 73.47C75.0384 73.373 74.9236 73.3312 74.8264 73.375C74.615 73.4548 73.073 73.3848 71.6552 73.269L70.3906 69.6254C70.3548 69.5236 70.244 69.4702 70.1424 69.5054C70.0408 69.5406 69.9872 69.6518 70.0222 69.7534L71.3288 73.517C71.3544 73.5896 71.4202 73.6408 71.4966 73.6472C72.0116 73.6902 73.364 73.796 74.2394 73.796Z" fill="#251426"/>
<path d="M69.5 78.883C69.5 78.883 73.1004 82.6358 76.0594 77.248C76.0594 77.248 70.9636 73.8144 69.5 78.883Z" fill="#3D9C91"/>
<path d="M69.1472 78.8618C69.1472 78.8618 71.4338 74.1908 65.3572 73.264C65.3572 73.264 63.8844 79.2296 69.1472 78.8618Z" fill="#757A91"/>
<path d="M69.5002 79.0778C69.517 79.0778 69.5336 79.0758 69.5504 79.0714C70.258 78.8828 72.588 78.2466 72.8666 77.9706C72.943 77.8948 72.9434 77.7716 72.8678 77.695C72.7924 77.6188 72.67 77.6182 72.5934 77.6928C72.4216 77.8388 70.946 78.2928 69.5726 78.662L67.1532 75.6584C67.0854 75.5742 66.9622 75.5614 66.8792 75.629C66.7954 75.6964 66.7822 75.8192 66.8496 75.9028L69.3484 79.0052C69.386 79.0518 69.442 79.0778 69.5002 79.0778Z" fill="#251426"/>
<path d="M61.7044 70.3652C61.7044 70.3652 56.629 71.4996 57.1446 65.3744C57.1446 65.3744 63.2892 65.3332 61.7044 70.3652Z" fill="#757A91"/>
<path d="M63.3102 74.1418C63.3102 74.1418 60.0246 78.173 56.6402 73.0416C56.6402 73.0416 61.4422 69.2078 63.3102 74.1418Z" fill="#3D9C91"/>
<path d="M63.66 74.092C63.66 74.092 61.0038 69.621 66.9858 68.2066C66.9858 68.2066 68.9354 74.0338 63.66 74.092Z" fill="#3D9C91"/>
<path d="M63.6974 82.6866C63.7876 82.6866 63.8686 82.6236 63.8876 82.5318C63.9066 82.4416 65.7124 73.4594 60.156 68.4942C60.0754 68.4228 59.9528 68.4294 59.8808 68.5098C59.8092 68.59 59.816 68.7132 59.8964 68.785C65.2832 73.5984 63.5244 82.364 63.5062 82.4518C63.4842 82.5572 63.5514 82.6604 63.657 82.6824C63.6704 82.6854 63.6842 82.6866 63.6974 82.6866Z" fill="#251426"/>
<path d="M63.31 74.3366C63.374 74.3366 63.4344 74.3052 63.471 74.2514L65.711 70.9572C65.7716 70.8682 65.7486 70.747 65.6596 70.6864C65.5714 70.6264 65.4496 70.6488 65.389 70.738L63.22 73.9274C61.8198 73.67 60.3108 73.3362 60.13 73.2046C60.0458 73.1426 59.9226 73.156 59.8576 73.2384C59.793 73.321 59.8006 73.4364 59.8808 73.504C60.1806 73.7568 62.5548 74.2028 63.2752 74.3334C63.2868 74.3356 63.2986 74.3366 63.31 74.3366Z" fill="#251426"/>
<path d="M63.841 79.9082C63.841 79.9082 59.3884 82.5954 57.9326 76.6234C57.9326 76.6236 63.7462 74.6334 63.841 79.9082Z" fill="#757A91"/>
<path d="M64.1872 79.9796C64.1872 79.9796 63.1942 74.8748 69.3026 75.5602C69.3026 75.5602 69.1734 81.7034 64.1872 79.9796Z" fill="#3D9C91"/>
<path d="M63.841 80.103C63.8814 80.103 63.9216 80.0904 63.956 80.0658L67.1758 77.72C67.2626 77.6566 67.2816 77.5346 67.2184 77.4476C67.1548 77.3602 67.0326 77.3416 66.946 77.4048L63.829 79.6762C62.5974 78.9614 61.2894 78.1384 61.1634 77.9538C61.1044 77.867 60.9842 77.838 60.8954 77.8936C60.8068 77.9496 60.7752 78.0608 60.8276 78.1516C61.0252 78.4906 63.1096 79.711 63.7436 80.077C63.774 80.0946 63.8074 80.103 63.841 80.103Z" fill="#251426"/>
<path d="M67.7092 95.2186L71.798 80.9208L59.6466 79.313L59.4852 94.2828L67.7092 95.2186Z" fill="#DD7C2E"/>
<path d="M68.4878 87.4078C68.4942 87.4078 68.5008 87.4074 68.5072 87.4068C68.6146 87.3964 68.6926 87.3008 68.6822 87.1936C68.6332 86.699 69.0762 85.9956 69.2508 85.7662C69.3162 85.6806 69.2996 85.5582 69.2138 85.493C69.1296 85.4282 69.0068 85.4442 68.941 85.53C68.9114 85.5688 68.2206 86.4852 68.294 87.2322C68.3044 87.3326 68.3888 87.4078 68.4878 87.4078Z" fill="#251426"/>
<path d="M68.6016 84.457C68.608 84.457 68.6146 84.4566 68.621 84.456C68.7284 84.4456 68.8064 84.35 68.796 84.2428C68.7472 83.75 69.19 83.045 69.3646 82.815C69.4292 82.7294 69.413 82.607 69.3274 82.542C69.2414 82.477 69.1192 82.493 69.0546 82.5792C69.025 82.6178 68.3346 83.5344 68.408 84.2814C68.4182 84.3818 68.5026 84.457 68.6016 84.457Z" fill="#251426"/>
<path d="M66.9266 87.201C66.933 87.201 66.9396 87.2006 66.9464 87.2C67.0534 87.1894 67.1314 87.094 67.121 86.9868C67.072 86.494 67.5146 85.7892 67.6892 85.5592C67.7542 85.4736 67.738 85.3514 67.6522 85.2862C67.5666 85.2212 67.444 85.2376 67.3794 85.3232C67.3498 85.362 66.659 86.2784 66.7332 87.0254C66.7432 87.126 66.8278 87.201 66.9266 87.201Z" fill="#251426"/>
<path d="M66.2352 84.9664C66.2416 84.9664 66.2482 84.966 66.2546 84.9654C66.362 84.955 66.44 84.8594 66.4296 84.7522C66.3806 84.2576 66.8236 83.5542 66.9982 83.3248C67.0636 83.2392 67.047 83.1168 66.9612 83.0516C66.8768 82.987 66.7538 83.0026 66.6884 83.0886C66.6588 83.1274 65.968 84.0438 66.0414 84.7908C66.0518 84.8912 66.1362 84.9664 66.2352 84.9664Z" fill="#251426"/>
<path d="M67.2014 90.4472C67.2078 90.4472 67.2144 90.4468 67.2208 90.4462C67.3282 90.4358 67.4062 90.3402 67.3958 90.233C67.3468 89.7384 67.7894 89.035 67.964 88.8054C68.0294 88.7198 68.0128 88.5976 67.927 88.5324C67.8426 88.4676 67.7192 88.4834 67.6542 88.5696C67.6246 88.6082 66.9342 89.5246 67.0076 90.2716C67.018 90.372 67.1026 90.4472 67.2014 90.4472Z" fill="#251426"/>
<path d="M65.0086 89.015C65.015 89.015 65.0216 89.0146 65.028 89.014C65.1354 89.0036 65.2134 88.908 65.203 88.8008C65.154 88.3062 65.597 87.6028 65.7716 87.3734C65.837 87.2878 65.8204 87.1654 65.7346 87.1002C65.6502 87.0356 65.5276 87.0512 65.4618 87.1372C65.4322 87.176 64.7414 88.0924 64.8148 88.8394C64.8252 88.9398 64.9096 89.015 65.0086 89.015Z" fill="#251426"/>
<path d="M65.6426 91.0636C65.649 91.0636 65.6556 91.0632 65.662 91.0626C65.7694 91.0522 65.8474 90.9566 65.837 90.8494C65.788 90.3548 66.2308 89.6514 66.4056 89.422C66.471 89.3364 66.4544 89.214 66.3686 89.1488C66.2842 89.0842 66.1612 89.0998 66.0958 89.1858C66.0662 89.2246 65.3754 90.141 65.4488 90.888C65.4592 90.9884 65.5436 91.0636 65.6426 91.0636Z" fill="#251426"/>
<path d="M66.5068 94.078C66.5132 94.078 66.5198 94.0776 66.5262 94.0772C66.6336 94.0666 66.7116 93.971 66.7012 93.864C66.6522 93.3692 67.0948 92.6658 67.2694 92.4362C67.3348 92.3506 67.3182 92.2284 67.2324 92.1632C67.148 92.0986 67.0246 92.1142 66.9596 92.2004C66.93 92.239 66.2396 93.1554 66.313 93.9022C66.3234 94.003 66.408 94.078 66.5068 94.078Z" fill="#251426"/>
<path d="M64.7856 93.54C64.792 93.54 64.7986 93.5396 64.805 93.539C64.9124 93.5286 64.9904 93.433 64.98 93.3258C64.931 92.8312 65.3738 92.1278 65.5486 91.8984C65.614 91.8128 65.5974 91.6904 65.5116 91.6252C65.4272 91.5604 65.3046 91.5764 65.2388 91.6622C65.2092 91.701 64.5184 92.6174 64.5918 93.3644C64.602 93.4648 64.6866 93.54 64.7856 93.54Z" fill="#251426"/>
<path d="M31.9556 17.163C31.9556 17.163 37.1162 15.9982 34.6832 11.1252C32.2504 6.2522 29.449 8.685 30.3336 9.6434C31.2182 10.6018 32.4158 5.9042 28.5822 4.1348C24.7486 2.3654 23.1666 5.3674 25.6812 6.031C28.1958 6.6944 27.343 1.0466 22.7404 0.309397C18.1378 -0.427803 14.8162 2.5662 17.267 4.0406C19.7178 5.515 16.8426 0.280797 12.9354 1.6816C9.0282 3.0824 8.0944 8.7588 11.4732 8.2428C14.852 7.7268 9.633 2.9348 6.5366 5.6626C3.4402 8.3904 3.8674 11.634 6.0054 12.15C8.1434 12.666 6.9988 8.2904 3.0178 10.7232C-0.963199 13.156 2.3194 19.522 4.3098 18.2688C6.3002 17.0156 4.5786 14.509 2.0114 16.647C-0.555799 18.785 0.181401 24.3096 3.204 24.1644C6.2266 24.0192 6.1528 19.707 4.3836 20.9416C2.6142 22.1762 2.954 27.0584 5.342 27.454C7.73 27.8496 7.48 24.1666 5.858 24.6826C4.236 25.1986 5.9564 29.6396 9.925 28.1932" fill="#D43F16"/>
<path d="M6.1662 27.8626C6.092 27.7984 6.0204 27.7312 5.9526 27.6614C5.7654 27.6878 5.5522 27.6866 5.3098 27.646C4.2986 27.4786 3.5352 26.5712 3.215 25.1568C3.158 24.9038 3.1172 24.636 3.094 24.362C3.0924 24.362 3.091 24.362 3.089 24.362C1.9944 24.3618 1.0956 23.6564 0.609997 22.4086C-0.0468035 20.7214 0.163597 18.24 1.5858 16.7756C1.2124 16.0362 0.971997 15.1596 0.946797 14.3074C0.899597 12.6938 1.5988 11.362 2.916 10.5568C3.3574 10.2872 3.7586 10.1024 4.1216 9.982C4.0534 8.765 4.6164 7.0944 6.4078 5.5162C7.3692 4.669 8.5178 4.5138 9.5582 4.7124C10.1104 3.3694 11.2772 2.0688 12.8692 1.498C14.272 0.995198 15.5694 1.3142 16.5514 1.899C17.4042 0.621198 19.8956 -0.344002 22.7708 0.116998C25.0866 0.487798 26.4544 2.043 26.9918 3.4324C27.468 3.503 28.0236 3.6624 28.6636 3.9578C30.6358 4.8682 31.376 6.5798 31.4254 7.9894C32.131 7.965 33.5122 8.344 34.857 11.0382C35.6148 12.556 35.733 13.886 35.2086 14.9916C34.3492 16.8036 32.0936 17.3312 31.998 17.353C31.8922 17.376 31.7884 17.3106 31.765 17.2058C31.741 17.101 31.8068 16.9966 31.912 16.9728C31.9336 16.968 34.0774 16.467 34.8566 14.8248C35.327 13.8328 35.2098 12.6174 34.5084 11.2122C33.2442 8.6798 31.9942 8.3784 31.4726 8.3784C31.4548 8.3782 31.4384 8.3792 31.4212 8.3794C31.376 9.1802 31.1046 9.8018 30.7372 9.9372C30.625 9.9784 30.4068 10.0112 30.19 9.7756C29.9612 9.528 29.9088 9.1792 30.0496 8.843C30.1874 8.5128 30.5344 8.1732 31.0368 8.0436C31.0048 6.7474 30.33 5.1566 28.4998 4.3118C27.9998 4.081 27.5422 3.9352 27.1316 3.8558C27.3722 4.7282 27.2838 5.5108 26.8862 5.939C26.6776 6.1634 26.2902 6.3928 25.631 6.2192C24.8912 6.024 24.4028 5.609 24.2918 5.0804C24.2 4.6434 24.3866 4.1902 24.7908 3.8678C24.9928 3.7068 25.5656 3.3458 26.5526 3.3898C26.0096 2.1532 24.7604 0.830198 22.7092 0.501598C19.8072 0.0373978 17.5934 1.0794 16.8814 2.113C17.4116 2.4868 17.8264 2.929 18.0836 3.3286C18.3912 3.8052 18.4528 4.179 18.2572 4.3808C17.9614 4.686 17.3632 4.3258 17.1664 4.2074C16.374 3.731 16.071 3.0428 16.3352 2.3196C16.345 2.2936 16.355 2.2674 16.366 2.2414C15.4564 1.6968 14.2674 1.411 13.001 1.865C11.4544 2.4194 10.434 3.6146 9.9404 4.8026C10.348 4.9162 10.732 5.0808 11.0734 5.2742C12.1888 5.9058 12.8782 6.834 12.7494 7.5318C12.6882 7.8668 12.4218 8.295 11.5022 8.4354C10.3548 8.6106 9.5448 8.1258 9.2864 7.1038C9.1346 6.505 9.189 5.7976 9.4212 5.0842C8.4994 4.9242 7.5004 5.0734 6.665 5.8086C5.0182 7.2596 4.4728 8.7684 4.506 9.8744C5.7806 9.5858 6.5036 10.1212 6.7384 10.3444C7.2274 10.8094 7.3988 11.484 7.1456 11.9484C7.0478 12.1282 6.7368 12.5268 5.9598 12.3394C5.0734 12.1256 4.4336 11.4718 4.2042 10.5462C4.1908 10.4926 4.179 10.4374 4.1688 10.381C3.8328 10.4992 3.4804 10.669 3.1192 10.8896C1.5904 11.8238 1.3062 13.2578 1.3366 14.2962C1.3602 15.0954 1.5756 15.8598 1.8854 16.4982C1.8858 16.498 1.8862 16.4976 1.8866 16.4972C2.8372 15.706 3.8104 15.4312 4.5548 15.7436C5.023 15.9398 5.3266 16.3482 5.367 16.8362C5.4164 17.4384 5.069 18.0208 4.4136 18.4336C4.004 18.6912 3.5292 18.6904 3.0412 18.4304C2.57 18.1792 2.135 17.7152 1.7846 17.135C0.563397 18.4878 0.388597 20.766 0.973197 22.2674C1.2232 22.9104 1.8246 23.9664 3.074 23.9724C3.0478 22.7066 3.4044 21.3872 4.272 20.7818C4.8414 20.3844 5.217 20.5356 5.3906 20.6604C5.797 20.9536 5.9242 21.6856 5.7 22.4406C5.5798 22.8466 5.0744 24.1298 3.4836 24.3354C3.5046 24.5882 3.5422 24.8358 3.5954 25.071C3.8786 26.323 4.5266 27.1214 5.3738 27.2618C5.467 27.2772 5.5546 27.2858 5.6372 27.2884C5.184 26.6682 4.9658 25.9336 5.0888 25.333C5.1748 24.9122 5.4272 24.6154 5.799 24.497C6.2454 24.3548 6.6668 24.4776 6.9514 24.8344C7.3796 25.3698 7.4206 26.2912 7.0446 26.932C6.9324 27.1234 6.7284 27.3798 6.3858 27.537C6.3972 27.5472 6.409 27.5574 6.4208 27.5676C6.9368 28.0126 8.0702 28.6622 9.8586 28.0102C9.9602 27.974 10.0714 28.0256 10.1082 28.1264C10.1452 28.2276 10.093 28.3394 9.9918 28.3762C9.3992 28.5922 8.8702 28.6774 8.4044 28.6774C7.3172 28.6774 6.5728 28.213 6.1662 27.8626ZM5.917 24.8684C5.6206 24.9626 5.511 25.2154 5.4706 25.4112C5.3736 25.8866 5.563 26.6152 6.0882 27.233C6.4038 27.1362 6.5948 26.9292 6.7086 26.7348C6.9982 26.2408 6.97 25.482 6.6474 25.0776C6.5142 24.9112 6.3514 24.8276 6.1606 24.8276C6.084 24.8274 6.0026 24.8412 5.917 24.8684ZM4.4952 21.1014C3.7668 21.6094 3.4448 22.7884 3.4638 23.9444C4.7992 23.7534 5.2248 22.6734 5.3268 22.3296C5.4988 21.75 5.4284 21.1682 5.1628 20.9764C5.102 20.9326 5.0338 20.9146 4.9634 20.9146C4.8038 20.9144 4.6302 21.007 4.4952 21.1014ZM2.1364 16.7966C2.115 16.8142 2.0942 16.8322 2.0732 16.8502C2.4142 17.434 2.8298 17.8758 3.2244 18.0864C3.587 18.2802 3.9174 18.2858 4.206 18.1038C4.7342 17.7712 5.0158 17.321 4.9786 16.8682C4.9504 16.528 4.7358 16.242 4.4044 16.103C4.3008 16.0594 4.1304 16.009 3.8994 16.009C3.4912 16.009 2.893 16.1664 2.1364 16.7966ZM4.5446 10.2684C4.5552 10.3316 4.5682 10.3928 4.5826 10.4524C4.776 11.2322 5.311 11.782 6.0512 11.9606C6.418 12.0498 6.6852 11.9786 6.8036 11.7618C6.9478 11.4972 6.8626 11 6.4698 10.6268C6.1546 10.3268 5.7348 10.178 5.2454 10.178C5.025 10.178 4.7902 10.2082 4.5446 10.2684ZM30.4092 8.9932C30.3616 9.1076 30.3068 9.327 30.4766 9.5112C30.5504 9.5908 30.587 9.5772 30.603 9.5714C30.748 9.518 30.9706 9.1292 31.0258 8.4534C30.7122 8.5642 30.498 8.7816 30.4092 8.9932ZM9.6642 7.0078C9.8704 7.8238 10.5038 8.193 11.4438 8.05C11.826 7.9916 12.2964 7.842 12.3664 7.461C12.4624 6.941 11.8236 6.1464 10.8818 5.613C10.5576 5.4296 10.1922 5.274 9.8048 5.1692C9.5832 5.848 9.5364 6.5022 9.6642 7.0078ZM25.0344 4.1728C24.7432 4.4048 24.612 4.7064 24.6736 5.0002C24.7536 5.3792 25.139 5.6864 25.7312 5.8426C26.1106 5.9422 26.404 5.886 26.6008 5.6738C26.925 5.3248 26.965 4.5932 26.7074 3.795C25.9382 3.7242 25.3712 3.9044 25.0344 4.1728ZM17.9746 4.1132C18.01 4.0406 17.9088 3.6588 17.4472 3.1352C17.2394 2.8998 16.9874 2.6682 16.699 2.4602C16.5042 3.0044 16.7352 3.493 17.3676 3.8734C17.8026 4.1352 17.9544 4.1136 17.9728 4.1126C17.9738 4.1128 17.9746 4.1128 17.9746 4.1132Z" fill="#251626"/>
<path d="M33.1532 62.5466L42.9816 68.7732L53.0338 65.4582L51.7402 64.2568L45.06 65.4582L37.4852 56.561L33.1532 62.5466Z" fill="#DE8389"/>
<path d="M29.3224 49.8672C29.3224 49.8672 33.1026 48.9568 38.8932 57.1722L33.2006 63.2846L27.4132 57.8784L29.3224 49.8672Z" fill="#F7C67C"/>
<path d="M13.3478 73.3172C13.3478 73.3172 13.2112 82.1548 18.4022 81.124L13.3478 73.3172Z" fill="#757A91"/>
<path d="M41.4968 92.6192L40.0166 99.543L41.89 99.8812L41.6722 97.7016C41.6722 97.7016 41.9716 100.743 46.9968 99.8282C46.9968 99.8282 40.7876 96.6638 44.9862 93.0132L41.4968 92.6192Z" fill="#251426"/>
<path d="M8.6474 91.995L2.1334 89.2206L1.4438 90.995L3.6248 91.1972C3.6248 91.1972 0.581796 90.9104 0.520996 96.018C0.520996 96.018 4.8122 90.5268 7.5944 95.345L8.6474 91.995Z" fill="#251426"/>
<path d="M45.561 55.9258C45.561 55.9258 42.859 55.3392 42.3608 55.2572C36.036 54.2158 35.5424 64.3326 42.4338 64.3114L42.6832 63.1124C42.6832 63.1124 39.3996 61.7096 40.2278 58.3684C41.056 55.027 44.9896 58.8464 44.9896 58.8464L45.561 55.9258Z" fill="#C083AF"/>
<path d="M46.0332 50.6142L40.5474 69.3806L53.6926 69.6918L52.8966 51.7852L46.0332 50.6142Z" fill="#C083AF"/>
<path d="M51.919 58.8568L59.847 55.0842L62.652 57.0998L51.106 62.9086L51.919 58.8568Z" fill="#C083AF"/>
<path d="M24.472 72.3376L26.1692 98.3354L5.6684 95.185L6.8026 87.7718L21.031 92.121L13.3478 73.3172L24.472 72.3376Z" fill="#757A91"/>
<path d="M24.472 72.3376L51.576 73.8414L46.989 96.002L38.5982 94.8904L45.7454 77.9792L23.3942 80.6124L24.472 72.3376Z" fill="#757A91"/>
<path d="M32.4726 72.7336L13.3476 73.3174C13.3476 73.3174 13.2224 50.6114 14.7348 50.4332C29.9934 48.6354 34.0746 51.94 34.0746 51.94L32.4726 72.7336Z" fill="#F7C67C"/>
<path d="M26.0844 42.4412V49.1668L29.3224 49.8674C29.3224 49.8674 30.1368 54.6314 25.5996 55.332C21.0626 56.0326 18.9714 48.8866 18.9714 48.8866L23.3044 48.9108L22.3236 43.1418L26.0844 42.4412Z" fill="#EFA880"/>
<path d="M10.3342 20.3056C10.3342 20.3056 17.1332 9.3448 27.5796 12.3658C35.3954 14.626 38.1908 39.9268 26.1696 41.1826C17.6484 42.0728 7.78479 26.3218 10.3342 20.3056Z" fill="#EFA880"/>
<path d="M10.3342 20.3056C10.3342 20.3056 14.8144 36.2034 19.0936 36.8278C26.7734 37.9484 15.2434 30.8122 25.1868 29.1818C31.5628 28.1364 27.127 34.6764 32.195 32.1358C36.0066 30.225 29.0534 13.5036 28.3172 12.6632C27.5808 11.8228 35.8364 14.4844 34.9102 26.1444C34.5996 30.0552 44.1812 30.4074 38.5622 37.5458C28.587 50.2184 9.6004 45.0166 12.6564 38.5342C16.8606 29.6164 1.8126 32.296 10.3342 20.3056Z" fill="#D43F16"/>
<path d="M26.1632 28.623C26.7458 28.623 27.2882 28.6152 27.5862 28.5914C27.7072 28.5816 27.8008 28.5156 27.843 28.4102C28.087 27.801 25.437 24.7038 23.8358 22.9116C23.7642 22.8308 23.641 22.8244 23.5606 22.896C23.4802 22.9678 23.4734 23.091 23.545 23.1712C25.4052 25.2534 27.3128 27.6292 27.4668 28.209C26.5432 28.2654 23.8468 28.206 23.819 28.2054C23.706 28.2032 23.6222 28.2886 23.62 28.3958C23.6178 28.5036 23.703 28.5926 23.8106 28.595C23.888 28.5966 25.0934 28.623 26.1632 28.623Z" fill="#251626"/>
<path d="M25.2116 35.918C25.303 35.918 25.3936 35.8934 25.48 35.8448C26.5658 35.2314 27.4998 31.4366 27.6028 31.006C27.628 30.9014 27.5632 30.7964 27.4586 30.7712C27.3528 30.746 27.2486 30.811 27.2238 30.9154C26.9548 32.0398 26.0832 35.0566 25.2882 35.5054C25.2388 35.5334 25.1954 35.5354 25.141 35.5108C24.54 35.2344 23.8394 32.7182 23.5388 31.197C23.5182 31.0912 23.4144 31.0222 23.31 31.0434C23.2042 31.0644 23.1356 31.1668 23.1566 31.2724C23.24 31.6952 24.0004 35.4154 24.978 35.8648C25.0552 35.9 25.134 35.918 25.2116 35.918Z" fill="#251626"/>
<path d="M19.1932 25.9826C19.226 25.9826 19.2582 25.9794 19.2906 25.9724C20.174 25.7822 19.7626 23.2688 19.6156 22.503C19.5954 22.3972 19.495 22.3282 19.3872 22.3482C19.2818 22.3686 19.2126 22.4708 19.2326 22.5764C19.4948 23.9434 19.5496 25.518 19.2082 25.5914C18.8456 25.6658 18.0048 24.2796 17.4468 22.9306C17.4056 22.831 17.292 22.7836 17.1922 22.825C17.0928 22.8662 17.0456 22.98 17.0868 23.0794C17.376 23.7776 18.3552 25.9826 19.1932 25.9826Z" fill="#251626"/>
<path d="M28.1322 23.874C28.166 23.874 28.1992 23.8706 28.2312 23.8638C29.1142 23.6734 28.7032 21.1602 28.5562 20.3944C28.536 20.2888 28.4318 20.219 28.3282 20.2396C28.2224 20.26 28.1532 20.3622 28.1734 20.4678C28.4356 21.8348 28.49 23.4092 28.149 23.4828C27.759 23.564 26.6336 22.2144 25.8152 20.9128C25.7578 20.8214 25.6364 20.795 25.5468 20.8516C25.4554 20.9088 25.428 21.0292 25.4856 21.1202C25.902 21.7828 27.2846 23.874 28.1322 23.874Z" fill="#251626"/>
<path d="M9.05219 32.2956C10.3891 32.2956 11.4728 31.2119 11.4728 29.875C11.4728 28.5381 10.3891 27.4544 9.05219 27.4544C7.71533 27.4544 6.63159 28.5381 6.63159 29.875C6.63159 31.2119 7.71533 32.2956 9.05219 32.2956Z" fill="#EFA880"/>
<path d="M35.5042 23.199C36.751 23.199 37.7618 22.1882 37.7618 20.9414C37.7618 19.6946 36.751 18.6838 35.5042 18.6838C34.2574 18.6838 33.2466 19.6946 33.2466 20.9414C33.2466 22.1882 34.2574 23.199 35.5042 23.199Z" fill="#EFA880"/>
<path d="M10.1484 31.0554C10.1602 31.0554 10.172 31.0544 10.1838 31.0522C10.29 31.0328 10.36 30.9314 10.3406 30.8254C10.2066 30.0964 9.8976 29.613 9.4214 29.3886C8.6202 29.0104 7.6646 29.533 7.6244 29.5552C7.5304 29.6076 7.497 29.7258 7.549 29.8198C7.6008 29.914 7.7202 29.948 7.8136 29.8958C7.8216 29.8914 8.638 29.4492 9.2568 29.7416C9.6118 29.9096 9.84741 30.298 9.95701 30.8958C9.97441 30.9898 10.0562 31.0554 10.1484 31.0554Z" fill="#251626"/>
<path d="M35.5532 22.788C35.5874 22.788 35.622 22.779 35.6532 22.7602C35.7456 22.705 35.7758 22.5854 35.7202 22.493C35.2818 21.7614 35.1466 21.1704 35.3294 20.7844C35.522 20.378 36.0084 20.3022 36.0134 20.3014C36.12 20.2858 36.1938 20.1868 36.1782 20.0802C36.1622 19.9736 36.0618 19.8992 35.957 19.9158C35.9284 19.92 35.2582 20.0246 34.9774 20.6174C34.7326 21.134 34.87 21.8324 35.3862 22.693C35.4226 22.7544 35.487 22.788 35.5532 22.788Z" fill="#251626"/>
<path d="M17.0622 32.1084C18.3366 32.1084 19.3698 31.0753 19.3698 29.8008C19.3698 28.5263 18.3366 27.4932 17.0622 27.4932C15.7877 27.4932 14.7546 28.5263 14.7546 29.8008C14.7546 31.0753 15.7877 32.1084 17.0622 32.1084Z" fill="#EA7C71"/>
<path d="M29.9934 28.1928C31.2678 28.1928 32.301 27.1597 32.301 25.8852C32.301 24.6107 31.2678 23.5776 29.9934 23.5776C28.7189 23.5776 27.6858 24.6107 27.6858 25.8852C27.6858 27.1597 28.7189 28.1928 29.9934 28.1928Z" fill="#EA7C71"/>
<path d="M21.4614 42.935C21.0442 43.3134 20.3524 43.6784 19.2046 43.8658C16.9306 44.2372 15.605 42.759 15.124 41.252C15.1236 41.2514 15.1236 41.251 15.1236 41.2504C14.7886 41.3528 14.4078 41.3528 13.9978 41.2416C13.13 41.0068 12.6224 40.225 12.568 39.0406C12.5406 38.4444 12.63 37.8004 12.796 37.2102C12.0508 37.0906 11.743 36.6122 11.6184 36.1834C11.4346 35.5474 11.5724 34.6992 11.836 33.9428C11.5676 33.866 11.3568 33.7162 11.207 33.4948C10.659 32.6854 11.1838 31.2046 11.2062 31.1418C11.2432 31.0406 11.3558 30.9884 11.4554 31.0248C11.5566 31.0612 11.6092 31.1728 11.573 31.274C11.4378 31.6494 11.167 32.7414 11.53 33.2766C11.6328 33.428 11.7796 33.5274 11.976 33.5766C12.2698 32.873 12.653 32.3052 12.9408 32.1598C13.1718 32.0432 13.4016 32.0664 13.5726 32.224C13.8052 32.439 13.861 32.848 13.7088 33.2184C13.6072 33.4654 13.2602 34.0382 12.2336 34.0016C12.2324 34.0016 12.2314 34.0016 12.2306 34.0016C11.9778 34.699 11.8256 35.4976 11.9928 36.0748C12.1222 36.5216 12.4256 36.7726 12.9142 36.834C13.2064 36.0016 13.6468 35.3354 14.1054 35.1648C14.548 35.0002 15.0568 35.0986 15.3728 35.4098C15.6084 35.6418 15.6886 35.9496 15.5878 36.2338C15.4798 36.5378 15.0614 37.0708 13.4722 37.2232C13.3756 37.2326 13.2838 37.2372 13.1966 37.2382C13.0292 37.8008 12.9302 38.4326 12.9572 39.0224C12.9896 39.7308 13.2144 40.6256 14.0998 40.8654C14.4784 40.9674 14.7806 40.9508 15.0204 40.8734C14.7898 39.8608 14.9602 38.973 15.4626 38.7266C15.7306 38.5954 15.9814 38.6282 16.1522 38.8164C16.4612 39.1552 16.4198 39.9106 16.0598 40.5008C15.905 40.7544 15.7092 40.9518 15.4816 41.09C15.4858 41.1044 15.4904 41.119 15.4954 41.1334C15.927 42.4854 17.1118 43.8132 19.1422 43.4808C20.2634 43.298 20.8952 42.947 21.251 42.6C21.1216 42.3696 21.0242 42.142 20.9564 41.9346C20.7162 41.197 20.7874 40.6294 21.1372 40.4886C21.3274 40.4122 21.5414 40.462 21.723 40.6268C22.0024 40.881 22.2192 41.4378 22.0346 42.0596C21.9858 42.2238 21.8968 42.4276 21.7336 42.6408C22.3064 43.4962 23.3854 44.2872 25.072 43.8624C26.0262 43.6222 26.7244 43.0788 27.1986 42.4544C27.036 42.3898 26.9028 42.3164 26.7964 42.2454C26.2434 41.8772 25.9382 41.2744 25.9792 40.6326C26.0196 39.9996 26.3888 39.4508 26.9664 39.1648C27.465 38.9186 27.7896 39.0372 27.9746 39.1804C28.3514 39.4722 28.482 40.149 28.3152 40.947C28.231 41.349 28.0682 41.7922 27.8186 42.2228C28.4934 42.3336 29.5224 42.2316 31.0322 41.4838C32.5902 40.7126 33.2856 39.9412 33.5828 39.3364C32.9378 39.2614 32.4174 38.982 32.194 38.5702C32 38.2116 32.052 37.7926 32.3406 37.3908C32.551 37.098 32.8814 36.9772 33.2258 37.0706C33.7216 37.2034 34.1106 37.725 34.172 38.339C34.1868 38.49 34.186 38.7028 34.127 38.9604C34.6774 38.9224 36.2324 38.6398 37.0612 36.7226C37.264 36.2534 37.408 35.8402 37.5038 35.48C37.0902 35.3754 36.7134 35.1918 36.4358 34.9712C35.9042 34.5486 35.769 34.0312 36.0838 33.6208C36.4694 33.118 37.0696 32.9408 37.5076 33.1994C37.7188 33.3232 38.236 33.7788 37.9746 35.1676C38.5862 35.23 39.2244 35.0774 39.642 34.5704C40.1786 33.9188 39.9902 32.6042 39.1838 31.3734C38.7678 30.7388 38.1354 30.0882 37.4088 29.768C37.3906 30.037 37.2942 30.2658 37.0926 30.4232C36.545 30.8502 35.8614 30.8004 35.458 30.5728C35.176 30.414 35.0246 30.1744 35.053 29.9314C35.0774 29.7254 35.2368 29.4426 35.8598 29.2642C36.2362 29.1566 36.6058 29.1508 36.9616 29.2204C36.8616 28.8298 36.6442 28.3564 36.3248 27.8656C36.1372 27.5774 35.935 27.317 35.7326 27.096C35.5104 27.294 35.217 27.3916 34.8812 27.3762C34.369 27.3482 33.9062 27.0478 33.8274 26.6922C33.8 26.569 33.784 26.2576 34.2236 26.023C34.6418 25.799 35.175 26.0376 35.6862 26.4964C35.695 26.475 35.7034 26.453 35.711 26.43C36.1392 25.1684 34.3332 24.0854 34.315 24.0746C34.2226 24.02 34.1916 23.9006 34.2462 23.808C34.3006 23.7154 34.4202 23.684 34.5126 23.7388C34.5986 23.7894 36.6104 24.9936 36.0802 26.5552C36.0524 26.6372 36.0186 26.714 35.9794 26.7848C36.2196 27.0428 36.449 27.3414 36.6518 27.653C36.9902 28.1732 37.2888 28.796 37.3822 29.339C38.2648 29.6636 39.0252 30.4202 39.5096 31.16C40.27 32.32 40.6986 33.901 39.9426 34.8184C39.4082 35.4666 38.6236 35.6414 37.8878 35.5526C37.7888 35.9324 37.6378 36.3714 37.419 36.8776C36.7762 38.3644 35.5286 39.29 34.082 39.3538C34.0538 39.355 34.026 39.3558 33.9982 39.3564C33.7024 40.0584 32.9626 40.9634 31.2048 41.8336C29.5014 42.677 28.342 42.7398 27.5928 42.5744C27.071 43.3096 26.2764 43.961 25.167 44.2404C24.8024 44.3322 24.4636 44.3734 24.149 44.3734C22.865 44.3732 21.9882 43.686 21.4614 42.935ZM21.2826 40.8502C21.2172 40.8766 21.1316 41.2128 21.3272 41.814C21.374 41.9576 21.4368 42.1122 21.5168 42.2702C21.5884 42.1528 21.6332 42.043 21.661 41.949C21.7916 41.5086 21.659 41.0956 21.4604 40.9152C21.4288 40.886 21.3724 40.8436 21.318 40.8436C21.3062 40.8436 21.294 40.8456 21.2826 40.8502ZM27.1394 39.5146C26.688 39.738 26.4 40.1654 26.3684 40.6578C26.336 41.1588 26.577 41.6312 27.0128 41.9214C27.1182 41.9916 27.254 42.0642 27.4254 42.124C27.6846 41.7028 27.8512 41.2636 27.9338 40.8678C28.0658 40.2366 27.9864 39.6826 27.7362 39.4892C27.6708 39.4386 27.5928 39.4132 27.5018 39.4132C27.397 39.4132 27.276 39.4468 27.1394 39.5146ZM15.6348 39.0766C15.3582 39.2122 15.2176 39.8704 15.3798 40.6866C15.5412 40.5646 15.6534 40.4186 15.7272 40.298C16.0328 39.7972 16.0126 39.2416 15.8646 39.0792C15.8508 39.0644 15.8262 39.0374 15.7718 39.0374C15.7382 39.0374 15.6942 39.0474 15.6348 39.0766ZM32.6574 37.6184C32.455 37.9006 32.4146 38.1584 32.5372 38.385C32.7084 38.7014 33.167 38.9162 33.728 38.9592C33.795 38.7152 33.798 38.5158 33.7844 38.3776C33.7338 37.8692 33.4144 37.5246 33.1252 37.447C33.0868 37.4368 33.0438 37.4294 32.998 37.4294C32.8872 37.4298 32.762 37.4726 32.6574 37.6184ZM14.2418 35.5304C13.9312 35.646 13.5846 36.1644 13.3292 36.844C13.3638 36.8418 13.3992 36.839 13.435 36.8356C14.9006 36.6952 15.1724 36.2398 15.2206 36.1036C15.2888 35.9126 15.1738 35.761 15.0996 35.6878C14.977 35.5672 14.7768 35.4742 14.5478 35.4742C14.45 35.4744 14.3464 35.4914 14.2418 35.5304ZM36.3932 33.8582C36.1432 34.1844 36.5096 34.5322 36.6786 34.6666C36.9188 34.8574 37.2408 35.0118 37.5912 35.1C37.7644 34.1964 37.5896 33.6994 37.3108 33.5354C37.2358 33.4914 37.1518 33.4706 37.0638 33.4706C36.8368 33.4706 36.5834 33.6102 36.3932 33.8582ZM13.1168 32.508C12.9276 32.6036 12.6346 33.0448 12.386 33.6126C12.8652 33.5958 13.2122 33.4022 13.3484 33.0704C13.4446 32.8366 13.402 32.5976 13.3076 32.5102C13.2958 32.4992 13.2718 32.4768 13.2254 32.4768C13.1978 32.4768 13.1626 32.4848 13.1168 32.508ZM35.9672 29.639C35.5954 29.7452 35.4512 29.8832 35.44 29.9768C35.4308 30.056 35.5126 30.1566 35.649 30.2334C35.9432 30.399 36.446 30.4332 36.8528 30.1162C36.973 30.0222 37.0282 29.854 37.0236 29.6334C36.6828 29.545 36.3266 29.536 35.9672 29.639ZM34.4072 26.3664C34.3044 26.4216 34.186 26.508 34.2082 26.6074C34.2444 26.7706 34.5492 26.9676 34.9028 26.9868C35.0512 26.9962 35.272 26.974 35.4576 26.8198C35.0326 26.4314 34.6378 26.244 34.4072 26.3664Z" fill="#251626"/>
<path d="M27.4606 80.3908C30.1006 80.3908 31.3592 77.577 31.3722 77.5472C31.4152 77.4486 31.3702 77.3338 31.2718 77.2908C31.1736 77.2486 31.0582 77.2926 31.0152 77.3912C31.0022 77.42 29.7368 80.2506 27.1112 79.983C27.0054 79.9732 26.9084 80.0498 26.8976 80.1572C26.8866 80.2644 26.9646 80.3598 27.0716 80.3708C27.2044 80.3844 27.3342 80.3908 27.4606 80.3908Z" fill="#251626"/>
<path d="M22.5328 96.197C22.6284 96.197 22.712 96.1266 22.7254 96.0288C22.7402 95.9222 22.6656 95.824 22.559 95.8092C22.2754 95.6296 21.1934 92.9584 21.2122 92.2464C21.611 92.3894 22.87 93.4988 23.8956 94.5312C23.9714 94.6078 24.0946 94.6078 24.1712 94.532C24.2474 94.4562 24.2476 94.333 24.172 94.2564C23.2194 93.2976 21.5524 91.7134 21.0462 91.8538C20.9412 91.8842 20.8662 91.9658 20.841 92.078C20.7032 92.6884 21.6494 95.1786 22.1502 95.902C22.2816 96.0912 22.3876 96.1786 22.5056 96.195C22.5148 96.1962 22.5236 96.197 22.5328 96.197Z" fill="#251626"/>
<path d="M46.0504 78.1978C47.0628 78.1978 49.191 77.7394 49.4604 77.6804C49.5658 77.6576 49.6324 77.5536 49.6092 77.4484C49.5864 77.3434 49.4806 77.2774 49.3774 77.2998C48.6182 77.4658 46.6144 77.8584 45.9138 77.8056C46.2396 77.3416 47.9308 76.009 49.5312 74.8782C49.6192 74.8162 49.64 74.6946 49.578 74.6066C49.5152 74.5184 49.393 74.4988 49.3066 74.56C47.5042 75.8336 45.3768 77.4562 45.4772 77.953C45.4992 78.0622 45.5838 78.1432 45.7036 78.1694C45.793 78.1892 45.911 78.1978 46.0504 78.1978Z" fill="#251626"/>
<path d="M28.0572 80.2798C28.1344 80.2798 28.208 80.2394 28.2566 80.1676C28.5862 79.6778 29.8782 75.1328 28.4328 73.2006C28.3678 73.1144 28.2456 73.0968 28.16 73.1612C28.074 73.2258 28.0564 73.3478 28.1208 73.4338C29.2938 75.0022 28.4634 78.6022 28.0576 79.678C27.8076 78.8542 27.379 76.3114 27.0562 73.9606C27.0418 73.8536 26.9412 73.7782 26.8366 73.794C26.73 73.8084 26.6554 73.9068 26.6702 74.0134C27.5136 80.1596 27.858 80.2396 28.0048 80.274C28.0226 80.278 28.0402 80.2798 28.0572 80.2798Z" fill="#251626"/>
<path d="M16.3498 80.0414C16.3742 80.0414 16.3986 80.037 16.4224 80.0274C17.81 79.4712 18.5616 78.1462 18.5956 76.1958C18.621 74.756 18.253 73.498 18.2374 73.4452C18.207 73.342 18.0974 73.2844 17.9954 73.3138C17.8922 73.3444 17.8332 73.4528 17.8638 73.556C17.8782 73.605 19.2766 78.4636 16.2772 79.666C16.1774 79.706 16.1292 79.8194 16.1692 79.9192C16.1996 79.9952 16.2726 80.0414 16.3498 80.0414Z" fill="#251626"/>
<path d="M33.9242 74.5498C33.9698 74.5498 34.016 74.5484 34.062 74.5458C34.9374 74.4938 35.7102 73.9458 36.3588 72.917C36.4162 72.826 36.3888 72.7056 36.298 72.6484C36.2078 72.5912 36.0868 72.6178 36.0294 72.7092C35.4516 73.625 34.7826 74.1122 34.0402 74.1568C32.6282 74.241 31.3578 72.7058 31.345 72.6904C31.2772 72.6066 31.1544 72.5942 31.071 72.6618C30.9876 72.7298 30.9748 72.8522 31.0424 72.9358C31.0974 73.0036 32.3692 74.5498 33.9242 74.5498Z" fill="#251626"/>
<path d="M38.031 57.551C38.1812 57.4796 43.2476 57.3286 42.8724 58.4734C42.4974 59.6182 42.2804 63.054 41.6764 62.4832C41.0724 61.9124 36.851 62.5466 36.851 62.5466C36.851 62.5466 34.7426 59.1128 38.031 57.551Z" fill="#EFA880"/>
<path d="M55.1464 60.8758C55.1464 60.8758 52.7014 58.1626 51.919 58.8568C51.5854 59.1528 53.8422 61.697 53.8422 61.697C53.8422 61.697 49.6782 58.9188 50.1986 60.153C50.719 61.3872 53.0146 63.2618 53.0146 63.2618C53.0146 63.2618 50.1444 62.5256 49.37 62.5466C48.1248 62.5804 51.0468 64.5516 53.0084 65.0486C54.3506 65.3886 56.8678 63.0704 55.1464 60.8758Z" fill="#EFA880"/>
<path d="M42.3476 61.3802C42.3928 61.3802 42.4382 61.3646 42.475 61.3328C42.5564 61.2624 42.5652 61.1392 42.4948 61.0578C42.4812 61.0424 41.1258 59.5028 39.5598 60.4562C39.4676 60.5122 39.4388 60.632 39.4948 60.724C39.5508 60.8162 39.671 60.8446 39.7624 60.7892C41.0506 60.0056 42.154 61.2588 42.2004 61.3126C42.2388 61.3574 42.2932 61.3802 42.3476 61.3802Z" fill="#251626"/>
<path d="M42.3476 59.5588C42.432 59.5588 42.5098 59.5038 42.5344 59.4188C42.5648 59.3156 42.5058 59.2074 42.4024 59.177C39.7478 58.3984 39.2292 59.1784 39.1788 59.2698C39.1266 59.364 39.161 59.4826 39.255 59.5344C39.3468 59.5854 39.4612 59.5542 39.5156 59.4654C39.5342 59.4412 40 58.878 42.2926 59.551C42.3112 59.5564 42.3294 59.5588 42.3476 59.5588Z" fill="#251626"/>
<path d="M37.4852 61.1386L23.3478 66.2656L19.3702 55.5582L14.7544 57.8784C14.7544 57.8784 21.056 71.423 23.0972 72.813C25.1384 74.203 38.67 62.2886 38.67 62.2886L37.4852 61.1386Z" fill="#EFA880"/>
<path d="M24.1752 61.5614L16.4664 65.458C16.4664 65.458 10.8346 55.82 10.7552 53.0402C10.6084 47.9066 18.9714 48.8864 18.9714 48.8864L24.1752 61.5614Z" fill="#F7C67C"/>
<path d="M54.5814 62.5606C54.6146 62.5606 54.6476 62.5524 54.678 62.535C54.7712 62.4818 54.804 62.3626 54.7506 62.2692C54.5676 61.949 54.0122 61.576 53.9494 61.5344C53.86 61.4746 53.739 61.5002 53.6796 61.5894C53.6202 61.679 53.645 61.8 53.7344 61.8594C53.9418 61.9966 54.3086 62.2814 54.4118 62.4624C54.4482 62.5254 54.514 62.5606 54.5814 62.5606Z" fill="#251626"/>
<path d="M53.3838 63.7998C53.4444 63.7998 53.5044 63.7714 53.5426 63.7182C53.605 63.6306 53.5848 63.5088 53.4974 63.4464C52.9506 63.056 52.5578 62.553 52.554 62.5478C52.4878 62.4628 52.3652 62.4476 52.2808 62.5132C52.1956 62.579 52.18 62.7012 52.2458 62.7862C52.263 62.8086 52.6758 63.3384 53.2708 63.7634C53.305 63.788 53.3446 63.7998 53.3838 63.7998Z" fill="#251626"/>
<path d="M16.4664 65.653C16.496 65.653 16.5262 65.6462 16.5544 65.632L24.2634 61.7352C24.3098 61.7118 24.3448 61.6708 24.3608 61.6214C24.3768 61.5722 24.3726 61.5184 24.3486 61.4722L20.2094 53.4128C20.1604 53.3168 20.0424 53.2794 19.9472 53.3284C19.8516 53.3774 19.8136 53.495 19.863 53.5908L23.9124 61.4756L16.5276 65.2086C16.0834 64.5798 14.2018 61.8424 13.0176 58.9532C12.9768 58.8532 12.8616 58.8056 12.7634 58.8468C12.6636 58.8876 12.6162 59.0014 12.6568 59.1008C14.0188 62.4228 16.2864 65.5418 16.3092 65.5728C16.3468 65.6248 16.4058 65.653 16.4664 65.653Z" fill="#251626"/>
<path d="M33.1532 62.7414C33.2426 62.7414 33.3234 62.6796 33.3434 62.5886C34.2344 58.5646 32.9346 52.9494 32.9214 52.8934C32.897 52.789 32.7924 52.7236 32.6874 52.7482C32.5828 52.773 32.5176 52.8778 32.5424 52.9824C32.5554 53.038 33.8344 58.568 32.963 62.5046C32.9398 62.6096 33.006 62.7138 33.111 62.737C33.1254 62.7398 33.1396 62.7414 33.1532 62.7414Z" fill="#251626"/>
<path d="M28.912 65.653C28.9946 65.653 29.0714 65.6002 29.0978 65.5172C29.1716 65.2854 29.7924 65.202 30.1844 65.2184C30.2966 65.225 30.383 65.1392 30.3872 65.0322C30.3918 64.9246 30.3088 64.834 30.201 64.8292C29.9874 64.8198 28.9158 64.8038 28.7262 65.3994C28.6934 65.502 28.7502 65.6114 28.853 65.6442C28.8724 65.6502 28.8926 65.653 28.912 65.653Z" fill="#251626"/>
<path d="M27.7824 67.49C27.865 67.49 27.9418 67.4372 27.9682 67.3542C28.042 67.1224 28.6574 67.0388 29.0548 67.0556C29.1626 67.0594 29.2534 66.9766 29.2576 66.8694C29.2622 66.7618 29.1792 66.6712 29.0714 66.6664C28.8582 66.6564 27.7862 66.641 27.5966 67.2364C27.5638 67.339 27.6206 67.4484 27.7234 67.4812C27.743 67.4872 27.763 67.49 27.7824 67.49Z" fill="#251626"/>
<path d="M26.922 66.4914C27.0046 66.4914 27.0814 66.4386 27.1078 66.3556C27.1816 66.1238 27.7962 66.04 28.1944 66.057C28.3024 66.0624 28.393 65.978 28.3972 65.8708C28.4018 65.7632 28.3188 65.6726 28.211 65.6678C27.9972 65.6572 26.9258 65.6424 26.7362 66.2378C26.7034 66.3404 26.7602 66.4498 26.863 66.4826C26.8824 66.4886 26.9026 66.4914 26.922 66.4914Z" fill="#251626"/>
<path d="M32.4576 63.9152C32.5402 63.9152 32.617 63.8622 32.6434 63.7794C32.7172 63.5476 33.3326 63.4636 33.7296 63.4808C33.8362 63.482 33.9282 63.4018 33.9324 63.2946C33.937 63.187 33.854 63.0964 33.7462 63.0916C33.533 63.0818 32.4606 63.0662 32.2718 63.6616C32.239 63.7642 32.2962 63.8738 32.3986 63.9064C32.4184 63.9124 32.4382 63.9152 32.4576 63.9152Z" fill="#251626"/>
<path d="M33.898 64.351C33.9806 64.351 34.0574 64.2982 34.0838 64.2152C34.1576 63.9834 34.7716 63.9012 35.17 63.9166C35.2822 63.9234 35.3686 63.8374 35.3728 63.7304C35.3774 63.6228 35.2944 63.5322 35.1866 63.5274C34.9728 63.518 33.9014 63.502 33.7122 64.0974C33.6794 64.2 33.7366 64.3096 33.839 64.3422C33.8588 64.3482 33.8786 64.351 33.898 64.351Z" fill="#251626"/>
<path d="M30.5534 66.4914C30.636 66.4914 30.7128 66.4386 30.7392 66.3556C30.813 66.1238 31.4276 66.04 31.8258 66.057C31.9332 66.0624 32.0244 65.978 32.0286 65.8708C32.0332 65.7632 31.9502 65.6726 31.8424 65.6678C31.6296 65.6572 30.5572 65.6424 30.3676 66.2378C30.3348 66.3404 30.3916 66.4498 30.4944 66.4826C30.514 66.4886 30.534 66.4914 30.5534 66.4914Z" fill="#251626"/>
<path d="M31.1936 65.2172C31.2762 65.2172 31.353 65.1644 31.3794 65.0814C31.4532 64.8496 32.0736 64.7668 32.466 64.7826C32.5726 64.7836 32.6646 64.7036 32.6688 64.5964C32.6734 64.4888 32.5904 64.3982 32.4826 64.3934C32.2694 64.3838 31.197 64.368 31.0078 64.9636C30.975 65.0662 31.0318 65.1756 31.1346 65.2084C31.154 65.2144 31.1742 65.2172 31.1936 65.2172Z" fill="#251626"/>
<path d="M12.8904 56.1706C12.9158 56.1706 12.9418 56.1656 12.9666 56.155C13.0656 56.113 13.112 55.9986 13.0698 55.8996C12.8632 55.413 13.0706 54.8596 13.0724 54.8542C13.1108 54.7538 13.0606 54.641 12.9602 54.6026C12.8604 54.5642 12.747 54.6142 12.7086 54.7148C12.6976 54.7434 12.4438 55.4222 12.7112 56.0518C12.7428 56.1262 12.8146 56.1706 12.8904 56.1706Z" fill="#251626"/>
<path d="M13.3984 53.8256C13.4238 53.8256 13.4498 53.8206 13.4746 53.81C13.5736 53.768 13.62 53.6536 13.5778 53.5546C13.373 53.0722 13.5786 52.5142 13.5808 52.5086C13.6184 52.4082 13.5678 52.2956 13.4674 52.2576C13.3692 52.2198 13.255 52.2694 13.2166 52.3698C13.2056 52.3986 12.9518 53.0774 13.2192 53.7068C13.2508 53.781 13.3228 53.8256 13.3984 53.8256Z" fill="#251626"/>
<path d="M11.9008 53.8256C11.9262 53.8256 11.9522 53.8206 11.977 53.81C12.076 53.768 12.1224 53.6536 12.0802 53.5546C11.8754 53.0722 12.081 52.5142 12.0832 52.5086C12.1208 52.4082 12.0702 52.2956 11.9698 52.2576C11.8716 52.2198 11.7574 52.2694 11.719 52.3698C11.708 52.3986 11.4542 53.0774 11.7216 53.7068C11.7532 53.781 11.8252 53.8256 11.9008 53.8256Z" fill="#251626"/>
<path d="M14.7012 55.575C14.7266 55.575 14.7526 55.57 14.7774 55.5594C14.8764 55.5174 14.9228 55.403 14.8806 55.304C14.674 54.8174 14.8814 54.264 14.8832 54.2586C14.9216 54.1582 14.8714 54.0454 14.771 54.007C14.6712 53.9688 14.5582 54.0186 14.5194 54.1192C14.5084 54.1478 14.2546 54.8268 14.522 55.4562C14.5536 55.5306 14.6254 55.575 14.7012 55.575Z" fill="#251626"/>
<path d="M13.7622 58.5132C13.804 58.5132 13.846 58.4998 13.8814 58.4724C13.9666 58.4066 13.9822 58.2842 13.9164 58.199C13.5956 57.7848 13.653 57.1928 13.6538 57.1868C13.6648 57.0798 13.5876 56.984 13.4806 56.9726C13.376 56.9608 13.2782 57.038 13.2664 57.145C13.263 57.1754 13.1896 57.8966 13.6082 58.4376C13.6466 58.487 13.704 58.5132 13.7622 58.5132Z" fill="#251626"/>
<path d="M15.1156 58.5132C15.1574 58.5132 15.1994 58.4998 15.2348 58.4724C15.32 58.4066 15.3356 58.2842 15.2698 58.199C14.949 57.7848 15.0064 57.1928 15.0072 57.1868C15.0182 57.0798 14.941 56.984 14.834 56.9726C14.7298 56.9608 14.6316 57.038 14.6198 57.145C14.6164 57.1754 14.543 57.8966 14.9616 58.4376C15 58.487 15.0574 58.5132 15.1156 58.5132Z" fill="#251626"/>
<path d="M62.652 55.9758C62.652 55.9758 67.5036 55.1442 68.348 59.364C69.1924 63.584 63.581 55.9668 62.652 55.9758Z" fill="#9CD1C3"/>
<path d="M61.7544 54.7846C61.7544 54.7846 66.9174 50.76 68.8018 53.5022C70.6862 56.2444 63.1748 54.1348 61.7544 54.7846Z" fill="#9CD1C3"/>
<path d="M9.024 17.4512C8.5258 17.3782 8.189 17.0628 8.0752 16.5634C7.8114 15.4082 8.7846 13.4424 10.0394 12.5948C10.5224 12.269 11.0486 12.2198 11.556 12.4454C11.7074 11.51 12.0918 10.5462 12.7176 10.0612C13.4346 9.5064 14.4402 9.6316 15.1418 9.9338C15.2526 9.9814 15.3572 10.0336 15.4546 10.089C15.7678 9.4432 16.3348 8.7414 17.1768 8.3016C18.202 7.7664 19.3998 7.9724 20.2126 8.4496C20.5482 8.0384 21.0374 7.699 21.6726 7.5668C25.0106 6.8702 26.4618 11.021 26.476 11.0628C26.5106 11.1648 26.4558 11.2752 26.3538 11.3098C26.2522 11.3432 26.1414 11.2896 26.1068 11.1876C26.0532 11.0296 24.7588 7.3252 21.7518 7.9482C21.2266 8.0578 20.8194 8.3334 20.5358 8.6686C20.7462 8.8338 20.9138 9.0178 21.023 9.2072C21.2864 9.6646 21.1824 10.103 20.7448 10.38C20.3474 10.6316 20.0902 10.563 19.944 10.4632C19.7066 10.2998 19.6182 9.9372 19.7076 9.4932C19.7556 9.2544 19.8504 9.0052 19.9908 8.7674C19.2848 8.3654 18.2356 8.1874 17.3572 8.6472C16.5576 9.0646 16.0496 9.7332 15.782 10.3096C16.0666 10.5368 16.2444 10.795 16.2688 11.038C16.2912 11.2628 16.1878 11.4666 15.9772 11.6122C15.707 11.7994 15.5174 11.7702 15.4078 11.7122C15.2944 11.6526 15.1592 11.51 15.1596 11.1678C15.16 10.9698 15.2068 10.722 15.3026 10.4512C15.2086 10.3952 15.1036 10.3414 14.9878 10.2918C14.3872 10.0338 13.5382 9.9184 12.9562 10.3696C12.3822 10.814 12.031 11.7622 11.9108 12.6526C12.5604 13.1234 13.019 14.027 12.8736 14.5524C12.8078 14.7896 12.6258 14.9378 12.3746 14.9584C12.1908 14.9752 11.8444 14.9212 11.6374 14.3894C11.494 14.02 11.4482 13.46 11.5034 12.855C11.1802 12.6792 10.7414 12.5908 10.2574 12.918C9.0372 13.742 8.2464 15.5636 8.4546 16.477C8.5338 16.8232 8.7382 17.0158 9.0798 17.066C9.1864 17.0816 9.2602 17.1806 9.2446 17.2872C9.2302 17.384 9.1472 17.4538 9.052 17.4538C9.0432 17.4534 9.0336 17.4528 9.024 17.4512ZM12.0014 14.2478C12.089 14.473 12.2016 14.5776 12.3432 14.57C12.4326 14.5624 12.476 14.5284 12.4984 14.448C12.5718 14.182 12.3382 13.5578 11.8686 13.1212C11.8492 13.5668 11.8928 13.969 12.0014 14.2478ZM15.556 11.0548C15.5332 11.2724 15.5774 11.3572 15.5868 11.3662C15.5974 11.3678 15.6546 11.3616 15.7558 11.2916C15.8788 11.2064 15.8864 11.1282 15.881 11.0766C15.8708 10.972 15.7862 10.8348 15.6336 10.6936C15.5926 10.8276 15.5666 10.9502 15.556 11.0548ZM20.0894 9.57C20.0262 9.884 20.084 10.0864 20.1648 10.1418C20.2334 10.1894 20.3722 10.1544 20.5362 10.0506C20.7942 9.8874 20.843 9.6752 20.6854 9.4018C20.6016 9.2568 20.4742 9.1152 20.3136 8.9856C20.2032 9.1778 20.1282 9.378 20.0894 9.57Z" fill="#251626"/>
<path d="M47.5132 93.6656C47.608 93.6656 47.6914 93.5962 47.7054 93.4994C47.7214 93.3928 47.648 93.2936 47.5414 93.278L39.7186 92.1138C39.6136 92.1 39.513 92.1716 39.4974 92.2778C39.4814 92.3844 39.5548 92.4836 39.6614 92.4992L47.4842 93.6634C47.4938 93.6648 47.5038 93.6656 47.5132 93.6656Z" fill="#251626"/>
<path d="M9.05259 95.2692C9.14999 95.2692 9.23459 95.1962 9.24599 95.0964L9.96559 88.8372C9.97779 88.7302 9.90099 88.6336 9.79399 88.6214C9.69499 88.6078 9.59079 88.6854 9.57819 88.7926L8.85859 95.0522C8.84639 95.1588 8.92319 95.2554 9.03019 95.268C9.03739 95.2688 9.04499 95.2692 9.05259 95.2692Z" fill="#251626"/>
</svg>
