<svg width="66" height="70" viewBox="0 0 66 70" fill="none" xmlns="http://www.w3.org/2000/svg">
<path d="M53.0683 46.1933L45.4802 39.3893C45.4407 39.3541 45.4246 39.2997 45.4386 39.2486C45.4523 39.1975 45.4934 39.1587 45.5452 39.1478L51.4813 37.9084L53.8649 30.8708C53.8775 30.8342 53.9047 30.8042 53.94 30.7881C53.9753 30.7726 54.0153 30.7719 54.0514 30.7863C56.6728 31.8728 65.2405 35.4619 65.4308 36.0228C65.4436 36.0611 65.4385 36.129 65.4182 36.1638C65.2394 36.4736 63.0137 41.6643 61.8619 44.3657C61.8438 44.4079 61.8063 44.4387 61.7614 44.448L53.1906 46.2262C53.181 46.2281 53.1717 46.2291 53.1621 46.2291C53.1277 46.2293 53.0942 46.2167 53.0683 46.1933ZM65.1398 36.0923C64.5643 35.5618 58.1732 32.801 54.0821 31.1028L51.7208 38.0743C51.705 38.1212 51.6653 38.1563 51.6168 38.1664L45.8735 39.3656L53.2026 45.9374L61.6324 44.1885C61.9677 43.4025 64.7376 36.9125 65.1398 36.0923Z" fill="#251626"/>
<path d="M63.2666 36.3866C63.2666 36.3866 61.0861 41.7474 60.7669 42.4557C60.6881 42.6306 53.0551 38.0734 53.0551 37.815C53.0551 37.5565 55.0762 32.4509 55.0762 32.4509L63.2666 36.3866Z" fill="#E9546A"/>
<path d="M48.1242 39.8825C48.0839 39.8467 48.0681 39.7909 48.0829 39.7391C48.0977 39.6873 48.141 39.6488 48.1941 39.6397C48.5379 39.5809 51.562 39.065 51.832 39.065C52.3227 39.065 57.2441 42.5922 58.7405 43.6733C58.7852 43.7056 58.8068 43.7611 58.7958 43.8151C58.7846 43.869 58.7431 43.9116 58.689 43.9236C57.0178 44.2995 54.4663 44.8882 54.2881 44.968C54.2687 44.9777 54.2388 44.9844 54.2171 44.9844C53.8907 44.9845 50.2595 41.788 48.1242 39.8825ZM51.832 39.3455C51.6584 39.3455 49.8585 39.6413 48.5284 39.8672C50.6103 41.7204 53.7792 44.4797 54.217 44.6968C54.6619 44.5508 57.283 43.954 58.3242 43.7186C55.9099 41.9807 52.2095 39.3963 51.832 39.3455Z" fill="#251626"/>
<path d="M52.7362 47.3229C52.9643 47.3229 56.8176 46.6108 60.9475 45.8412C61.6468 45.711 62.107 45.6252 62.1421 45.6197C62.2327 45.6173 62.2363 45.6219 64.0247 41.2693C64.6763 39.683 65.7904 36.96 65.8325 36.8171C65.9182 36.5266 65.5182 36.1127 65.3936 35.9927C65.338 35.9394 65.249 35.9408 65.1954 35.9965C65.1418 36.0522 65.1433 36.141 65.1992 36.1946C65.4092 36.3971 65.586 36.661 65.5636 36.7378C65.4885 36.9799 62.36 44.5992 62.0265 45.3557C61.9047 45.3775 61.6136 45.4318 60.896 45.5655C58.7727 45.9612 53.187 47.0019 52.752 47.0414C52.1773 46.7772 46.0964 41.2181 45.8848 40.7595C45.8204 40.4132 45.7142 39.283 45.7131 39.2717C45.7057 39.1945 45.6349 39.1376 45.5604 39.1451C45.4834 39.1524 45.4268 39.2209 45.4338 39.2979C45.4382 39.3448 45.5425 40.4526 45.6137 40.8268C45.6946 41.2521 52.3511 47.3229 52.7362 47.3229Z" fill="#251626"/>
<path d="M62.1225 45.6211C62.1373 45.6211 62.152 45.6187 62.1669 45.6138C62.2402 45.5895 62.28 45.5101 62.2556 45.4366L61.8657 44.2665C61.8411 44.1931 61.7617 44.1533 61.6884 44.1778C61.615 44.2022 61.5752 44.2816 61.5996 44.3551L61.9895 45.5252C62.0091 45.584 62.0638 45.6211 62.1225 45.6211Z" fill="#251626"/>
<path d="M59.1216 36.5028C59.1216 36.5028 57.732 39.0327 57.5538 38.8189C57.3755 38.6051 56.2354 36.5028 56.2354 36.5028H59.1216Z" fill="white"/>
<path d="M61.7326 44.4511C61.7794 44.4511 61.8252 44.4276 61.8518 44.3848C61.8925 44.319 61.8723 44.2326 61.8065 44.1917L51.662 37.91C51.5963 37.8694 51.5098 37.8896 51.4689 37.9555C51.4282 38.0213 51.4483 38.1077 51.5141 38.1486L61.6587 44.4303C61.6817 44.4444 61.7074 44.4511 61.7326 44.4511Z" fill="#251626"/>
<path d="M55.4367 44.6697C55.4759 44.6697 55.5149 44.6533 55.5427 44.6212C55.5933 44.5626 55.587 44.4741 55.5284 44.4234L49.7532 39.429C49.6947 39.3786 49.6062 39.3847 49.5556 39.4435C49.5049 39.5021 49.5112 39.5906 49.5698 39.6413L55.345 44.6356C55.3716 44.6585 55.4041 44.6697 55.4367 44.6697Z" fill="#251626"/>
<path d="M49.8237 41.3389C49.8377 41.3389 49.8521 41.3368 49.8664 41.3323L53.3834 40.2104C53.4571 40.1869 53.4978 40.108 53.4743 40.0343C53.4505 39.9606 53.3732 39.9197 53.298 39.9433L49.781 41.0652C49.7073 41.0887 49.6666 41.1676 49.6901 41.2413C49.7093 41.3011 49.7643 41.3389 49.8237 41.3389Z" fill="#251626"/>
<path d="M53.0553 44.1197C53.0731 44.1197 53.0908 44.1165 53.108 44.1094L56.8462 42.5855C56.9179 42.5564 56.9525 42.4745 56.9232 42.4028C56.8939 42.331 56.8118 42.2964 56.7406 42.3259L53.0025 43.8498C52.9308 43.8789 52.8962 43.9608 52.9255 44.0325C52.9476 44.0868 53 44.1197 53.0553 44.1197Z" fill="#251626"/>
<path d="M52.949 42.3086C52.9654 42.3086 52.9822 42.3056 52.9986 42.2995L55.2313 41.4572C55.3035 41.4299 55.3402 41.3491 55.3129 41.2766C55.2858 41.2041 55.2055 41.1673 55.1322 41.1949L52.8995 42.0371C52.8272 42.0644 52.7905 42.1452 52.8178 42.2177C52.839 42.2741 52.8923 42.3086 52.949 42.3086Z" fill="#251626"/>
<path d="M56.7933 44.1972C56.8346 44.1972 56.8755 44.179 56.903 44.1441C56.9512 44.0835 56.9411 43.9953 56.8804 43.9473L50.9344 39.2329C50.8739 39.1846 50.786 39.1948 50.7376 39.2556C50.6894 39.3162 50.6995 39.4044 50.7603 39.4524L56.7062 44.1668C56.732 44.1872 56.7626 44.1972 56.7933 44.1972Z" fill="#251626"/>
<path d="M52.7362 47.323C52.7924 47.323 52.8451 47.2891 52.8668 47.2335L53.2923 46.1397C53.3204 46.0676 53.2846 45.9864 53.2126 45.9582C53.1404 45.9301 53.0593 45.9659 53.0311 46.038L52.6056 47.1319C52.5775 47.204 52.6133 47.2852 52.6853 47.3133C52.7021 47.32 52.7193 47.323 52.7362 47.323Z" fill="#251626"/>
<path d="M15.334 3.35538C15.334 3.35538 13.335 -1.36528 9.33733 0.633498C5.33963 2.63228 8.38141 6.8908 8.29447 3.84902C8.20739 0.807378 4.38357 1.98254 3.25377 5.00164C2.12397 8.02074 4.55745 12.0977 4.55745 10.0157C4.55745 7.9338 3.25377 7.4046 1.77635 10.0157C0.298933 12.6269 1.16805 19.25 2.64547 17.4593C4.12289 15.6685 0.580193 15.0784 0.352693 17.4593C0.125193 19.8401 0.473093 23.4287 3.09641 23.0903C5.25129 22.8123 4.90507 19.5972 2.29785 21.6741C-0.309367 23.751 0.298933 29.5082 3.68833 29.4542C7.07773 29.4001 8.81583 26.0603 6.90385 25.8616C4.99187 25.663 5.33949 30.5883 8.29433 28.734C11.2492 26.8797 10.3801 20.1879 8.38127 21.1438C6.38249 22.0997 9.25039 25.2111 10.5539 23.0471C11.8575 20.8831 11.9707 17.4191 10.1456 18.2228C8.32051 19.0266 10.2931 21.23 11.9444 18.831C13.5957 16.4319 10.8408 12.9734 9.51093 13.9996C8.18107 15.0258 11.9444 14.05 12.6397 12.339C13.3349 10.628 11.5099 7.93954 9.77175 8.98324C8.03365 10.0268 13.1612 11.269 11.1622 6.6479C10.1408 4.28652 14.0098 5.41352 14.0098 5.41352" fill="#DD7C2E"/>
<path d="M0.855439 27.3944C0.350879 25.9878 0.434319 24.0649 1.27684 22.6482C-0.0444811 21.3247 0.127999 18.3357 0.212839 17.4458C0.274719 16.8014 0.580339 16.2917 1.0583 16.0028C0.713339 14.1466 0.837939 11.3896 1.65414 9.94672C2.10284 9.1539 2.5577 8.60524 2.98918 8.3251C2.75398 7.29666 2.70358 6.07236 3.12246 4.9525C3.89288 2.89436 5.7903 1.743 7.07872 1.95594C7.23342 1.9817 7.37636 2.02636 7.5067 2.08894C7.82408 1.52026 8.37484 0.958019 9.27462 0.508059C10.3966 -0.0526416 11.4729 -0.149942 12.4742 0.219378C14.4472 0.946959 15.4224 3.20502 15.4629 3.30078C15.4933 3.3719 15.4598 3.45422 15.3887 3.48446C15.3177 3.51456 15.2351 3.48138 15.205 3.41012C15.1955 3.38772 14.2344 1.16634 12.3756 0.481739C11.4508 0.140838 10.4495 0.234078 9.40006 0.758799C8.55376 1.18188 8.04066 1.70772 7.7482 2.23566C8.17072 2.5543 8.41348 3.11038 8.43462 3.8451C8.46094 4.76924 8.21006 5.00822 7.99488 5.04602C7.71348 5.09446 7.41612 4.79234 7.25092 4.29254C7.0951 3.82004 7.05044 3.08812 7.38154 2.33982C7.27528 2.28942 7.15894 2.2533 7.03266 2.2323C5.87836 2.0391 4.09602 3.1507 3.38524 5.05064C3.00626 6.06312 3.03832 7.20916 3.24664 8.18846C3.45146 8.10502 3.6497 8.08682 3.83772 8.13596C4.37602 8.27778 4.69746 8.9803 4.69746 10.0156C4.69746 10.4052 4.615 10.6301 4.44532 10.7026C4.3525 10.7426 4.20032 10.7489 3.99956 10.5571C3.70584 10.2766 3.31426 9.54646 3.06212 8.617C2.69462 8.88692 2.29142 9.38994 1.89816 10.0846C1.08938 11.5139 1.00538 14.1305 1.3131 15.8764C1.39682 15.8431 1.48446 15.8158 1.5756 15.7942C2.18208 15.6527 2.77862 15.8318 3.02642 16.2308C3.15704 16.441 3.29508 16.8918 2.75342 17.5484C2.3512 18.0356 2.00876 17.9143 1.8395 17.7979C1.53038 17.5853 1.28482 17.032 1.1192 16.2999C0.765699 16.5523 0.540719 16.9628 0.491999 17.4726C0.325539 19.2132 0.489199 21.4003 1.43196 22.4055C1.6491 22.09 1.90782 21.8054 2.21036 21.5643C3.36214 20.6469 3.99326 20.7956 4.26766 20.9658C4.57902 21.1593 4.7137 21.5481 4.61976 21.9807C4.51112 22.4811 4.05164 23.1083 3.1142 23.2294C2.47902 23.3107 1.93442 23.1785 1.4895 22.8358C0.714179 24.171 0.644039 25.9749 1.11906 27.2997C1.5791 28.5823 2.49736 29.3143 3.64284 29.3143C3.65712 29.3143 3.67154 29.3142 3.6861 29.3139C4.5639 29.2999 5.3374 29.0539 5.95718 28.6983C5.51604 28.0766 5.47446 27.1176 5.74802 26.4811C5.97804 25.9456 6.40294 25.6697 6.91828 25.7222C7.51594 25.7844 7.85824 26.1486 7.83444 26.6969C7.80602 27.3434 7.28004 28.1616 6.39216 28.7636C6.83358 29.1403 7.4654 29.0885 8.22 28.6153C9.69462 27.6899 10.1565 25.517 10.0358 23.7714C9.6711 23.9739 9.31214 23.9532 9.08114 23.9035C8.33018 23.7412 7.64894 23.0122 7.56298 22.2782C7.49858 21.7297 7.7678 21.2817 8.3208 21.0172C8.87968 20.7502 9.41896 20.9937 9.80004 21.6859C10.0128 22.0723 10.174 22.6073 10.2633 23.2166C10.3217 23.1465 10.3788 23.0663 10.4338 22.9747C11.0414 21.9664 11.389 20.6424 11.3864 19.6489C10.9409 20.0005 10.465 20.1352 10.0253 20.0173C9.60782 19.9046 9.30738 19.5654 9.27756 19.1731C9.26174 18.9634 9.30906 18.4381 10.0894 18.0946C10.7151 17.8189 11.0822 18.0293 11.2798 18.2539C11.4438 18.4402 11.5542 18.7096 11.6144 19.0347C11.6875 18.9475 11.7595 18.853 11.8291 18.7516C12.8679 17.2424 12.0612 15.3573 11.1569 14.5005C11.0283 14.3787 10.8831 14.2649 10.7309 14.1732C10.1625 14.4312 9.62938 14.5673 9.38606 14.5582C9.19006 14.5506 9.1216 14.4638 9.09864 14.3923C9.05342 14.251 9.15114 14.1002 9.42554 13.8887C9.78394 13.6123 10.2564 13.6084 10.7436 13.8578C11.4848 13.4977 12.2426 12.9448 12.5102 12.2864C12.9225 11.271 12.3809 9.96058 11.6427 9.32862C11.6335 9.32064 11.6238 9.31266 11.6143 9.30454C11.4456 9.67372 11.1768 9.8609 10.992 9.95064C10.3477 10.2637 9.53544 10.0526 9.32208 9.65972C9.25194 9.5305 9.14848 9.19394 9.69966 8.86298C10.2626 8.52502 10.8869 8.52768 11.4624 8.8578C11.5572 8.3209 11.4154 7.5852 11.0339 6.70376C10.7841 6.12654 10.7898 5.684 11.0508 5.38846C11.7329 4.61566 13.955 5.25182 14.0492 5.27912C14.1237 5.30082 14.1664 5.37852 14.1448 5.45286C14.123 5.52706 14.0465 5.5699 13.9709 5.54834C13.3762 5.37502 11.7308 5.0421 11.2612 5.5741C11.0784 5.78116 11.0885 6.12388 11.2913 6.59246C11.7875 7.73962 11.8397 8.50976 11.7116 9.02384C11.75 9.05296 11.7878 9.08348 11.8253 9.11568C12.6552 9.82618 13.2356 11.2459 12.7699 12.392C12.4862 13.0906 11.7528 13.6534 11.0263 14.0301C11.1347 14.107 11.2432 14.196 11.35 14.2972C12.3269 15.2223 13.1929 17.2654 12.0605 18.9109C11.9332 19.0956 11.799 19.2598 11.6599 19.402C11.7341 20.476 11.3755 21.9558 10.6746 23.1196C10.5588 23.3117 10.4345 23.4612 10.307 23.5764C10.4855 25.4405 10.011 27.8228 8.36938 28.853C7.21256 29.5793 6.5197 29.2417 6.20918 28.9758C6.18776 28.9576 6.16704 28.9387 6.14702 28.9192C5.48328 29.3104 4.6493 29.5792 3.69114 29.5946C3.67504 29.5949 3.6588 29.595 3.6427 29.595C2.37164 29.5947 1.35762 28.7952 0.855439 27.3944ZM6.00576 26.5917C5.76734 27.147 5.80584 28.0153 6.19658 28.5508C7.02832 28.0004 7.5291 27.2569 7.5543 26.6847C7.5718 26.2844 7.34178 26.0481 6.8893 26.0012C6.8564 25.9979 6.8249 25.9962 6.79424 25.9962C6.33378 25.9962 6.10404 26.363 6.00576 26.5917ZM9.55434 21.8212C9.33916 21.4298 8.97068 21.0171 8.44162 21.2703C7.88232 21.5379 7.80644 21.9484 7.84116 22.2457C7.91312 22.8593 8.50784 23.493 9.14008 23.6295C9.38536 23.6824 9.70106 23.6767 10.0072 23.4578C9.93276 22.798 9.77344 22.2188 9.55434 21.8212ZM2.38508 21.7839C2.09374 22.0157 1.84594 22.2912 1.6393 22.5968C2.02864 22.9053 2.51248 23.025 3.07808 22.9513C3.87104 22.8491 4.25646 22.3327 4.34606 21.9215C4.41396 21.608 4.32744 21.3332 4.11996 21.2043C4.02882 21.1476 3.91822 21.12 3.79166 21.12C3.4264 21.1198 2.92856 21.3508 2.38508 21.7839ZM11.0696 18.4391C10.8687 18.2112 10.5854 18.1826 10.2021 18.3511C9.76812 18.5423 9.53292 18.8342 9.557 19.152C9.57786 19.426 9.79514 19.6648 10.0982 19.7466C10.4971 19.8552 10.9486 19.6889 11.3689 19.2951C11.3319 18.9262 11.2341 18.6262 11.0696 18.4391ZM1.63986 16.0675C1.54424 16.0898 1.45338 16.1202 1.36798 16.1582C1.51806 16.8634 1.73702 17.3872 1.99854 17.5671C2.0642 17.6123 2.23864 17.7321 2.5374 17.3701C2.85632 16.9837 2.94536 16.6317 2.78842 16.3789C2.6501 16.156 2.33888 16.0269 1.98566 16.0269C1.8731 16.0271 1.75648 16.0402 1.63986 16.0675ZM9.59676 14.1106C9.49736 14.1873 9.44066 14.2422 9.4086 14.2789C9.41 14.2789 9.41112 14.2789 9.4121 14.2789C9.54678 14.2789 9.8419 14.23 10.2968 14.0529C10.3285 14.0406 10.3606 14.0277 10.3928 14.0144C10.1146 13.9222 9.83224 13.9285 9.59676 14.1106ZM3.3116 8.4672C3.51502 9.26674 3.8282 9.926 4.10862 10.2628C4.2433 10.4243 4.3252 10.4476 4.335 10.445C4.33584 10.4446 4.41718 10.3876 4.41718 10.0157C4.41718 9.1294 4.1677 8.51298 3.76632 8.40728C3.7225 8.39566 3.67672 8.38992 3.62996 8.38992C3.52958 8.38992 3.42304 8.4161 3.3116 8.4672ZM9.844 9.10336C9.70162 9.18876 9.47678 9.35718 9.56834 9.52616C9.70134 9.77186 10.3511 9.9505 10.8691 9.69864C11.1117 9.58076 11.2833 9.39106 11.3839 9.13822C11.0143 8.9075 10.4625 8.73194 9.844 9.10336ZM7.51734 4.20476C7.64768 4.59998 7.8462 4.78758 7.94644 4.76994C8.0401 4.75356 8.17254 4.49568 8.1542 3.85308C8.13642 3.23036 7.9519 2.7664 7.6222 2.49326C7.34192 3.15322 7.38042 3.79036 7.51734 4.20476Z" fill="#251626"/>
<path d="M52.6862 9.20136C52.6862 9.20136 54.943 3.96872 55.7081 4.13532C56.4734 4.30192 55.0709 6.77236 54.8333 6.93028C54.5957 7.08834 57.4314 4.51682 57.4975 5.01508C57.5637 5.51334 55.4043 8.25958 55.4043 8.25958C55.4043 8.25958 58.8714 5.05624 58.6018 6.0858C58.3322 7.11536 55.905 9.6824 55.905 9.6824C55.905 9.6824 59.8597 9.09482 59.4405 9.64278C59.0214 10.1907 54.1201 11.6649 53.3 11.4562C52.4799 11.2475 52.6862 9.20136 52.6862 9.20136Z" fill="#EA8060"/>
<path d="M35.3087 25.615L52.9174 8.98324L54.1323 10.7946L39.2608 30.6025L35.3087 25.615Z" fill="#EA8060"/>
<path d="M39.4917 36.0583L40.0694 43.9067L31.4144 44.8501L32.3575 36.0583H39.4917Z" fill="#EA8060"/>
<path d="M46.9189 64.7926L46.0679 69.8145L47.4248 70L47.2012 68.4401C47.2012 68.4401 47.5099 70.6171 51.0936 69.805C51.0936 69.805 46.5334 67.7215 49.4389 64.9685L46.9189 64.7926Z" fill="#251426"/>
<path d="M16.4491 6.77362L13.9477 5.53924C13.9121 5.5216 13.8855 5.48954 13.8749 5.4509C13.8642 5.4124 13.8703 5.37124 13.8918 5.33764L15.2159 3.2795C15.2397 3.24268 15.2795 3.21902 15.3233 3.21552C15.3674 3.21104 15.4096 3.22952 15.4388 3.26214L17.5749 5.66776C17.6256 5.72488 17.6213 5.81196 17.5654 5.86376L16.6066 6.75052C16.58 6.77502 16.5458 6.78776 16.5112 6.78776C16.4901 6.78818 16.4688 6.78342 16.4491 6.77362ZM15.3517 3.58666L14.2127 5.35724L16.4869 6.47948L17.2741 5.75148L15.3517 3.58666Z" fill="#251626"/>
<path d="M32.7431 9.24784C32.7431 9.24784 30.4083 -3.1395 18.8102 3.35538C10.4113 8.05882 14.3353 17.2451 18.3979 18.1516C22.4604 19.0581 33.5597 12.0357 32.7431 9.24784Z" fill="#DD7C2E"/>
<path d="M13.4011 64.7671L9.5976 68.1548L8.71994 67.1035L10.1604 66.4647C10.1604 66.4647 8.15168 67.3592 6.93704 63.8911C6.93704 63.8911 11.124 66.649 11.9139 62.725L13.4011 64.7671Z" fill="#251426"/>
<path d="M16.825 13.2595C16.825 13.2595 19.8233 4.47818 27.6345 4.91064C33.4787 5.23432 39.5205 22.5212 31.2952 25.3413C25.4648 27.3402 16.0083 17.8888 16.825 13.2595Z" fill="#EA8060"/>
<path d="M27.582 16.8998C27.5915 16.8998 27.6012 16.8988 27.6107 16.8969C27.6947 16.8795 29.6754 16.4689 30.257 16.2851C30.3404 16.2588 30.3953 16.1974 30.4079 16.1167C30.4807 15.6505 28.1231 13.9063 26.7115 12.9083C26.6485 12.864 26.5608 12.8783 26.516 12.9419C26.4714 13.0052 26.4865 13.0927 26.5495 13.1372C28.1897 14.2968 29.9103 15.6547 30.1121 16.0364C29.473 16.2247 27.5737 16.6183 27.554 16.6223C27.4781 16.638 27.4294 16.7122 27.4454 16.788C27.4588 16.8542 27.5172 16.8998 27.582 16.8998Z" fill="#251626"/>
<path d="M23.8681 15.8196C23.9214 15.8196 23.9718 15.8095 24.0187 15.7874C24.6071 15.5116 23.9133 13.8158 23.6866 13.3025C23.6557 13.2317 23.5724 13.2 23.5019 13.231C23.4312 13.2623 23.3989 13.3451 23.4304 13.4159C23.8349 14.3321 24.1269 15.427 23.9 15.5336C23.6542 15.6478 22.844 14.8075 22.2354 13.9523C22.1902 13.8894 22.1026 13.8751 22.04 13.9194C21.977 13.9643 21.9623 14.0518 22.0071 14.1148C22.3074 14.5373 23.2702 15.8196 23.8681 15.8196Z" fill="#251626"/>
<path d="M29.7811 12.9004C29.8419 12.9004 29.8972 12.8898 29.9462 12.8667C30.5349 12.5908 29.841 10.8949 29.6144 10.3817C29.5834 10.311 29.5001 10.2789 29.4296 10.3102C29.3589 10.3415 29.3267 10.4243 29.3582 10.4951C29.7626 11.4113 30.0547 12.5062 29.8275 12.6129C29.5654 12.7333 28.5606 11.968 27.7767 11.1874C27.722 11.1329 27.6332 11.1331 27.5785 11.1878C27.524 11.2427 27.524 11.3315 27.5791 11.3862C27.9572 11.7629 29.152 12.9002 29.7811 12.9004Z" fill="#251626"/>
<path d="M17.8667 21.5341C18.8284 21.5341 19.608 20.7545 19.608 19.7928C19.608 18.8311 18.8284 18.0515 17.8667 18.0515C16.905 18.0515 16.1254 18.8311 16.1254 19.7928C16.1254 20.7545 16.905 21.5341 17.8667 21.5341Z" fill="#EA8060"/>
<path d="M34.574 11.2686C35.471 11.2686 36.1982 10.5414 36.1982 9.64446C36.1982 8.74747 35.471 8.02032 34.574 8.02032C33.677 8.02032 32.9499 8.74747 32.9499 9.64446C32.9499 10.5414 33.677 11.2686 34.574 11.2686Z" fill="#EA8060"/>
<path d="M18.7943 20.447C18.813 20.447 18.8319 20.4434 18.8499 20.4355C18.921 20.4049 18.9537 20.3223 18.923 20.2513C18.7116 19.7618 18.417 19.4727 18.0472 19.3922C17.4226 19.2566 16.8387 19.777 16.814 19.7991C16.7565 19.8509 16.7522 19.9392 16.804 19.9968C16.8555 20.0546 16.9444 20.0593 17.0016 20.0073C17.0068 20.0028 17.5059 19.5605 17.9886 19.6662C18.2646 19.7268 18.4924 19.9611 18.6657 20.3623C18.6884 20.4154 18.7402 20.447 18.7943 20.447Z" fill="#251626"/>
<path d="M34.8747 10.9347C34.9097 10.9347 34.9449 10.9217 34.9719 10.8955C35.0278 10.8419 35.0294 10.753 34.9757 10.6973C34.5502 10.2551 34.3602 9.86272 34.4262 9.56256C34.4955 9.24658 34.8243 9.11484 34.8276 9.11372C34.8998 9.08558 34.9355 9.00438 34.9072 8.93214C34.8791 8.8599 34.7977 8.8242 34.7256 8.85248C34.7065 8.86004 34.2533 9.04148 34.1521 9.5025C34.0639 9.90416 34.273 10.3715 34.7735 10.8917C34.8014 10.9204 34.8381 10.9347 34.8747 10.9347Z" fill="#251626"/>
<path d="M23.074 20.4911C23.9909 20.4911 24.7341 19.7478 24.7341 18.831C24.7341 17.9141 23.9909 17.1709 23.074 17.1709C22.1571 17.1709 21.4139 17.9141 21.4139 18.831C21.4139 19.7478 22.1571 20.4911 23.074 20.4911Z" fill="#E66357"/>
<path d="M32.0689 15.9401C32.9857 15.9401 33.729 15.1969 33.729 14.28C33.729 13.3631 32.9857 12.6199 32.0689 12.6199C31.152 12.6199 30.4087 13.3631 30.4087 14.28C30.4087 15.1969 31.152 15.9401 32.0689 15.9401Z" fill="#E66357"/>
<path d="M40.0694 43.9067L54.2335 50.4732L51.0937 67.8073L44.6803 66.6775L48.6908 52.7937L39.1943 48.7424L40.0694 43.9067Z" fill="#E9546A"/>
<path d="M35.457 46.0293L13.5232 68.1767L10.1691 62.803L31.4144 44.5945L35.457 46.0293Z" fill="#E9546A"/>
<path d="M26.6304 23.6061L30.2704 28.734L27.6779 30.9067C27.6779 30.9067 35.4227 38.6658 38.7191 33.1915C39.6745 31.605 35.3087 25.6148 35.3087 25.6148L31.8922 27.6545L30.5179 23.0469L26.6304 23.6061Z" fill="#EA8060"/>
<path d="M28.2503 30.9334L8.4594 46.3826L10.0932 48.1603L30.5046 35.2044L28.2503 30.9334Z" fill="#EA8060"/>
<path d="M40.0694 43.9067L31.4144 44.5945L32.5883 48.9261L39.4917 48.7341L40.0694 43.9067Z" fill="#E9546A"/>
<path d="M33.8699 26.4293C33.8699 26.4293 37.2683 32.1803 35.3087 32.4507C33.3492 32.7212 29.2767 29.4767 29.4111 29.4542C29.5455 29.4316 27.6777 30.76 27.6777 30.76C27.6777 30.76 28.0548 38.4782 32.9892 39.3519C37.9237 40.2258 44.4516 36.1095 42.2928 31.8196C40.134 27.5297 35.3087 25.615 35.3087 25.615L33.8699 26.4293Z" fill="#F7C67C"/>
<path d="M30.7792 36.9874L29.8026 41.3052L41.7275 40.894L38.8853 36.0583L30.7792 36.9874Z" fill="#F7C67C"/>
<path d="M9.65583 45.4486C9.65583 45.4486 4.80161 42.8172 4.29747 43.4165C3.79333 44.0157 6.41259 45.1154 6.69721 45.0955C6.98183 45.0757 3.16599 44.771 3.41785 45.206C3.66971 45.641 7.05673 46.4968 7.05673 46.4968C7.05673 46.4968 2.35497 46.0776 3.19721 46.7282C4.03945 47.3788 7.52923 47.9293 7.52923 47.9293C7.52923 47.9293 4.03875 49.8792 4.70543 50.0571C5.37211 50.2351 10.1534 48.4093 10.6753 47.7431C11.1972 47.0768 9.65583 45.4486 9.65583 45.4486Z" fill="#EA8060"/>
<path d="M32.9623 39.1619C35.0119 39.1619 37.0452 37.921 37.0758 37.9019C37.1415 37.8612 37.1618 37.7747 37.121 37.7089C37.0806 37.6432 36.9941 37.6226 36.928 37.6636C36.8836 37.6911 32.4939 40.3676 30.3071 37.7044C30.2575 37.6447 30.1691 37.6359 30.1097 37.6851C30.0501 37.7342 30.0412 37.8225 30.0902 37.8823C30.8789 38.8424 31.9227 39.1619 32.9623 39.1619Z" fill="#251626"/>
<path d="M34.7165 33.2693C35.4119 33.2693 36.0113 33.0628 36.4971 32.6493C37.0543 32.1749 37.3505 31.5829 37.3775 30.8893C37.4543 28.9349 35.3846 26.8488 35.2964 26.761C35.2423 26.7065 35.1535 26.7063 35.0982 26.7613C35.0437 26.816 35.0437 26.9049 35.0985 26.9595C35.1193 26.9802 37.1698 29.0476 37.0974 30.8787C37.073 31.4905 36.81 32.0144 36.3152 32.4356C34.0112 34.3972 29.6722 30.5374 29.6287 30.4982C29.5717 30.4462 29.4831 30.4508 29.4307 30.5085C29.3789 30.5661 29.3837 30.6547 29.4414 30.7065C29.4526 30.7166 30.5828 31.7276 31.9969 32.4701C33.0108 33.0025 33.9258 33.2692 34.7165 33.2693Z" fill="#251626"/>
<path d="M39.0277 37.9231C39.0381 37.9231 39.0486 37.9219 39.0592 37.9196C39.1732 37.8932 41.8593 37.2525 42.4848 35.1875C42.5072 35.1134 42.4654 35.0351 42.3912 35.0126C42.3178 34.9901 42.239 35.0321 42.2165 35.1061C41.6374 37.0174 39.0224 37.6403 38.9961 37.6463C38.9207 37.6636 38.8737 37.739 38.8909 37.8144C38.9062 37.8792 38.9636 37.9231 39.0277 37.9231Z" fill="#251626"/>
<path d="M31.4144 45.3293C31.4161 45.3293 31.4176 45.3293 31.4193 45.3292L41.1523 44.9903C41.2295 44.9876 41.2904 44.9228 41.2876 44.8452C41.2848 44.7679 41.2156 44.7041 41.1425 44.7101L31.4095 45.0491C31.3323 45.0517 31.2714 45.1165 31.2742 45.1941C31.2769 45.2698 31.3391 45.3293 31.4144 45.3293Z" fill="#251626"/>
<path d="M49.7847 52.9551C50.6898 52.9551 51.7692 52.9353 51.8374 52.934C51.9146 52.9325 51.9763 52.8686 51.9749 52.7912C51.9735 52.7146 51.9111 52.6536 51.8348 52.6536C51.8339 52.6536 51.8331 52.6536 51.832 52.6536C51.8093 52.654 49.7311 52.6926 48.9062 52.6642C49.2939 52.4203 50.2557 51.9625 51.1492 51.5785C51.2203 51.5479 51.2532 51.4654 51.2225 51.3944C51.1922 51.323 51.1094 51.2908 51.0386 51.3209C48.4157 52.4482 48.4515 52.6632 48.4707 52.7786C48.4795 52.8311 48.5183 52.9211 48.6804 52.9336C48.8903 52.9497 49.3139 52.9551 49.7847 52.9551Z" fill="#251626"/>
<path d="M51.094 66.5773C51.1613 66.5773 51.2207 66.5286 51.232 66.4598C51.2446 66.3834 51.1928 66.3114 51.1165 66.2988L45.0606 65.3016C44.9858 65.2884 44.9119 65.3405 44.8996 65.4171C44.887 65.4935 44.9388 65.5655 45.0151 65.5781L51.071 66.5753C51.0787 66.5767 51.0864 66.5773 51.094 66.5773Z" fill="#251626"/>
<path d="M14.8241 67.003C14.8507 67.003 14.8771 66.9956 14.9008 66.9803C14.9656 66.9379 14.9838 66.8511 14.9415 66.7862L11.5692 61.6269C11.5265 61.5618 11.4392 61.544 11.375 61.5863C11.3102 61.6286 11.292 61.7155 11.3343 61.7803L14.7066 66.9396C14.7338 66.9806 14.7783 67.003 14.8241 67.003Z" fill="#251626"/>
<path d="M21.3012 54.7166C21.3395 54.7166 21.3779 54.7011 21.4055 54.6701C21.6075 54.4452 22.2332 53.9578 22.2395 53.9529C22.3008 53.9055 22.3117 53.8174 22.2641 53.7562C22.2165 53.6949 22.1283 53.684 22.0675 53.7317C22.0409 53.7523 21.416 54.2394 21.1969 54.4825C21.1451 54.5402 21.1498 54.6287 21.2075 54.6805C21.2341 54.7047 21.2679 54.7166 21.3012 54.7166Z" fill="#251626"/>
<path d="M22.9943 54.2109C23.0327 54.2109 23.0711 54.1954 23.0986 54.1646C23.3009 53.9396 23.9263 53.4524 23.9326 53.4475C23.9939 53.4001 24.0049 53.312 23.9573 53.2508C23.9099 53.1895 23.8215 53.1787 23.7607 53.2263C23.7341 53.2469 23.1091 53.7338 22.89 53.977C22.8382 54.0347 22.843 54.1232 22.9007 54.175C22.9273 54.199 22.961 54.2109 22.9943 54.2109Z" fill="#251626"/>
<path d="M22.8132 53.0156C22.8515 53.0156 22.8896 53.0001 22.9175 52.9693C23.1195 52.7444 23.7452 52.2571 23.7515 52.2522C23.8128 52.2047 23.8237 52.1167 23.7761 52.0555C23.7288 51.9943 23.6403 51.9834 23.5795 52.031C23.5529 52.0516 22.928 52.5386 22.7089 52.7817C22.6571 52.8392 22.6618 52.9278 22.7195 52.9796C22.746 53.0037 22.7797 53.0156 22.8132 53.0156Z" fill="#251626"/>
<path d="M24.5479 52.8636C24.5863 52.8636 24.6244 52.848 24.6519 52.8172C24.8545 52.5923 25.4799 52.1049 25.4862 52.1C25.5475 52.0526 25.5584 51.9645 25.5108 51.9033C25.4632 51.842 25.375 51.8311 25.3143 51.8788C25.2877 51.8994 24.6629 52.3865 24.4439 52.6296C24.3918 52.6872 24.3966 52.7757 24.454 52.8276C24.4807 52.8517 24.5145 52.8636 24.5479 52.8636Z" fill="#251626"/>
<path d="M24.69 51.6562C24.7284 51.6562 24.7667 51.6407 24.7943 51.6099C24.9963 51.3849 25.622 50.8976 25.6283 50.8927C25.6896 50.8452 25.7005 50.7571 25.6529 50.696C25.6056 50.6349 25.5171 50.6237 25.4564 50.6715C25.4298 50.692 24.8048 51.1791 24.5857 51.4223C24.5339 51.48 24.5387 51.5684 24.5964 51.6202C24.6228 51.6443 24.6566 51.6562 24.69 51.6562Z" fill="#251626"/>
<path d="M21.1624 55.9413C21.2008 55.9413 21.2389 55.9258 21.2667 55.895C21.4688 55.6702 22.0944 55.1828 22.1007 55.1779C22.162 55.1305 22.173 55.0424 22.1254 54.9812C22.0778 54.92 21.9898 54.9091 21.9288 54.9567C21.9022 54.9773 21.2772 55.4644 21.0581 55.7074C21.0063 55.7649 21.0111 55.8536 21.0688 55.9054C21.0954 55.9294 21.129 55.9413 21.1624 55.9413Z" fill="#251626"/>
<path d="M19.6945 56.1308C19.7329 56.1308 19.7713 56.1152 19.7988 56.0844C20.0009 55.8594 20.6265 55.3721 20.6328 55.3672C20.6941 55.3197 20.7051 55.2317 20.6575 55.1705C20.6101 55.1092 20.5217 55.0983 20.4609 55.146C20.4343 55.1666 19.8093 55.6536 19.5902 55.8968C19.5384 55.9545 19.5432 56.043 19.6009 56.0948C19.6275 56.1189 19.6612 56.1308 19.6945 56.1308Z" fill="#251626"/>
<path d="M51.5042 58.732C51.5626 58.732 51.6168 58.6956 51.6368 58.6373C51.6477 58.6057 51.9052 57.8563 51.9557 57.533C51.9678 57.4566 51.9155 57.3849 51.8388 57.3728C51.7646 57.3612 51.691 57.4129 51.6787 57.4897C51.6319 57.7886 51.3741 58.5386 51.3718 58.5462C51.3466 58.6193 51.3855 58.6991 51.4586 58.7243C51.4738 58.7296 51.4891 58.732 51.5042 58.732Z" fill="#251626"/>
<path d="M50.3625 60.0807C50.4206 60.0807 50.4751 60.0443 50.4951 59.9862C50.506 59.9545 50.7638 59.205 50.814 58.8818C50.8258 58.8052 50.7736 58.7335 50.6971 58.7216C50.621 58.7114 50.5487 58.7619 50.537 58.8385C50.4905 59.1375 50.2325 59.8873 50.2301 59.8948C50.2049 59.968 50.2438 60.0478 50.3169 60.073C50.3319 60.0782 50.3474 60.0807 50.3625 60.0807Z" fill="#251626"/>
<path d="M51.1676 60.9827C51.226 60.9827 51.2802 60.9463 51.3002 60.8881C51.3111 60.8565 51.5686 60.1069 51.6189 59.7838C51.6306 59.7072 51.5784 59.6355 51.502 59.6236C51.4252 59.6135 51.3536 59.6639 51.3418 59.7405C51.2953 60.0396 51.0376 60.7894 51.0352 60.797C51.01 60.87 51.0489 60.9498 51.122 60.975C51.1373 60.9802 51.1527 60.9827 51.1676 60.9827Z" fill="#251626"/>
<path d="M49.7976 62.0581C49.856 62.0581 49.9102 62.0217 49.9302 61.9634C49.9411 61.9318 50.1986 61.1822 50.2488 60.8591C50.2606 60.7825 50.2084 60.7109 50.1319 60.699C50.0561 60.6886 49.9835 60.7393 49.9718 60.8159C49.9253 61.1149 49.6675 61.8647 49.6652 61.8723C49.64 61.9454 49.6789 62.0252 49.752 62.0504C49.7672 62.0556 49.7826 62.0581 49.7976 62.0581Z" fill="#251626"/>
<path d="M50.3384 63.1469C50.3968 63.1469 50.451 63.1105 50.471 63.0522C50.4819 63.0206 50.7394 62.2712 50.7899 61.9479C50.802 61.8715 50.7498 61.7998 50.673 61.7877C50.5977 61.7761 50.5249 61.8278 50.5129 61.9046C50.4661 62.2035 50.2084 62.9535 50.206 62.9611C50.1808 63.0342 50.2197 63.114 50.2928 63.1392C50.3081 63.1445 50.3233 63.1469 50.3384 63.1469Z" fill="#251626"/>
<path d="M50.9514 57.6304C51.0097 57.6304 51.0639 57.594 51.0839 57.5358C51.0949 57.5042 51.3523 56.7546 51.4026 56.4315C51.4144 56.3549 51.3621 56.2832 51.2857 56.2713C51.2092 56.2603 51.1373 56.3115 51.1255 56.3882C51.079 56.6873 50.8213 57.4371 50.8189 57.4447C50.7937 57.5177 50.8326 57.5975 50.9057 57.6227C50.921 57.6279 50.9364 57.6304 50.9514 57.6304Z" fill="#251626"/>
<path d="M52.0772 56.6698C52.1356 56.6698 52.1898 56.6334 52.2098 56.5751C52.2207 56.5433 52.4782 55.7938 52.5285 55.4707C52.5402 55.3941 52.488 55.3224 52.4116 55.3105C52.336 55.2994 52.2632 55.3508 52.2514 55.4274C52.2049 55.7264 51.9472 56.4764 51.9448 56.484C51.9196 56.5571 51.9585 56.6369 52.0316 56.6621C52.0469 56.6672 52.0623 56.6698 52.0772 56.6698Z" fill="#251626"/>
<path d="M7.68239 45.6687C7.73391 45.6687 7.78375 45.6401 7.80811 45.5907C7.84227 45.5213 7.81413 45.4373 7.74455 45.4028C7.65033 45.3564 6.81341 44.9464 6.45445 44.9182C6.38375 44.9133 6.30983 44.9697 6.30381 45.047C6.29751 45.1241 6.35533 45.1916 6.43247 45.1977C6.69119 45.2182 7.37761 45.5343 7.62023 45.6543C7.64025 45.6641 7.66139 45.6687 7.68239 45.6687Z" fill="#251626"/>
<path d="M7.68267 46.7807C7.75057 46.7807 7.81049 46.731 7.82099 46.6616C7.83275 46.585 7.77997 46.5135 7.70353 46.502C7.57095 46.4818 6.40545 46.3053 6.25523 46.2955C6.17991 46.2925 6.11145 46.3491 6.10627 46.4264C6.10137 46.5037 6.15989 46.5704 6.23717 46.5753C6.34175 46.5821 7.14619 46.7009 7.66139 46.779C7.66853 46.7802 7.67567 46.7807 7.68267 46.7807Z" fill="#251626"/>
<path d="M55.031 8.94348C55.094 8.94348 55.1509 8.90106 55.167 8.83736C55.2141 8.64878 55.5553 8.3013 55.7592 8.12658C55.818 8.07618 55.8249 7.9877 55.7746 7.9289C55.7242 7.8701 55.6358 7.86352 55.577 7.9135C55.5162 7.96572 54.9793 8.43262 54.8949 8.76904C54.8762 8.84422 54.9217 8.92038 54.9969 8.939C55.0083 8.94208 55.0198 8.94348 55.031 8.94348Z" fill="#251626"/>
<path d="M54.3242 8.16032C54.3289 8.16032 54.3335 8.16004 54.3385 8.15962C54.4155 8.15192 54.4715 8.08318 54.464 8.00632C54.4519 7.88368 54.7063 7.39004 54.9516 7.00588C54.9932 6.94064 54.974 6.85398 54.9089 6.81226C54.8438 6.77096 54.7573 6.7893 54.715 6.85496C54.5838 7.06076 54.1572 7.7539 54.1852 8.0339C54.1924 8.10628 54.2531 8.16032 54.3242 8.16032Z" fill="#251626"/>
<path d="M29.2253 25.8108C30.2435 25.8108 31.5821 25.3793 31.6566 25.3551C31.7302 25.331 31.7702 25.2519 31.7463 25.1784C31.7222 25.1047 31.6434 25.0649 31.5695 25.0886C30.9286 25.2974 29.1311 25.7601 28.5218 25.3987C28.4553 25.3592 28.3694 25.381 28.3299 25.4478C28.2901 25.5143 28.3124 25.6003 28.3789 25.6399C28.5882 25.7636 28.8895 25.8108 29.2253 25.8108Z" fill="#251626"/>
<path d="M28.2582 20.4917C28.2582 20.4917 28.7415 18.9654 29.1079 18.8311C29.4742 18.6969 29.7621 19.7929 29.7621 19.7929C29.7621 19.7929 29.6996 18.6969 30.0319 18.6707C30.3641 18.6445 30.8713 19.4033 30.8713 19.4033C30.8713 19.4033 32.9244 21.7298 31.6132 22.6261C30.3019 23.5224 27.5778 22.7721 28.2582 20.4917Z" fill="#E66357"/>
<path d="M29.7352 21.7682C29.794 21.7682 29.851 21.7585 29.9054 21.7378C31.1752 21.2568 31.0085 18.1002 31.0009 17.9661C30.9963 17.8892 30.935 17.8326 30.8531 17.8342C30.7757 17.8385 30.7167 17.9049 30.7211 17.9822C30.7701 18.8388 30.7013 21.1364 29.8063 21.4754C29.3275 21.6558 28.2019 20.118 27.5553 18.9682C27.5175 18.9007 27.4318 18.8766 27.3644 18.9147C27.2971 18.9528 27.273 19.0382 27.3111 19.1057C27.5733 19.5723 28.8554 21.7682 29.7352 21.7682Z" fill="#251626"/>
<path d="M16.7029 16.0604C16.6367 16.0203 16.6155 15.934 16.6556 15.8677C16.6956 15.8015 16.7818 15.7809 16.8481 15.8206C17.2795 16.0825 17.6634 16.0801 17.9892 15.8161C18.5072 15.3959 18.781 14.3651 18.6584 13.4882C18.6105 13.4943 18.5615 13.4981 18.5108 13.4995C17.4958 13.522 16.5354 13.083 16.2781 12.6522C16.1878 12.501 16.1787 12.3467 16.2526 12.2175C16.3912 11.9752 16.8016 11.8483 17.4713 11.8598C18.0967 11.8644 18.5723 12.2415 18.8104 12.9213C18.8356 12.9928 18.8575 13.0665 18.8764 13.1415C19.4413 12.9059 19.6901 12.1782 19.7281 11.5448C19.7399 11.3485 19.733 11.1467 19.7073 10.9512C18.8377 10.9724 18.2903 10.6954 18.0544 10.3688C17.8883 10.1391 17.8639 9.87812 17.9896 9.6712C18.1389 9.4255 18.4674 9.3142 18.8723 9.37342C19.4451 9.4577 19.7991 10.0005 19.9418 10.6579C20.1682 10.6392 20.4174 10.6004 20.6895 10.5375C21.4203 10.3688 21.8696 10.0398 21.989 9.5858C22.024 9.45252 22.0297 9.3142 22.0125 9.17574C20.8144 9.30986 19.8572 8.69498 19.6836 8.12896C19.5774 7.78274 19.7553 7.48916 20.1598 7.3437C20.5562 7.19992 21.0728 7.371 21.5407 7.79926C21.82 8.0549 22.1028 8.435 22.2315 8.85766C22.277 8.84842 22.3226 8.83806 22.3687 8.82644C23.0649 8.6492 23.3642 8.03866 23.4926 7.55762C23.5132 7.4802 23.5307 7.40194 23.545 7.32396C22.9301 6.94666 22.5543 6.38946 22.4824 5.92956C22.4208 5.53784 22.5834 5.24454 22.9178 5.145C23.1028 5.08956 23.2876 5.14094 23.4394 5.2885C23.7783 5.61778 23.9382 6.4113 23.8502 7.17024C24.2217 7.36372 24.6773 7.4858 25.195 7.47558C25.8398 7.46158 26.1651 7.14504 26.3277 6.80106C25.4067 6.21474 24.9898 5.3326 25.0672 4.78884C25.1151 4.45228 25.3462 4.25138 25.686 4.25138C26.3209 4.25138 26.7574 5.16292 26.7666 6.01454C26.7692 6.23812 26.7409 6.46632 26.6758 6.68094C26.8792 6.79084 27.1073 6.88618 27.3611 6.95982C27.9117 7.11942 28.3727 7.04326 28.6972 6.73988C28.5763 6.61304 28.4709 6.4631 28.3841 6.29216C28.1171 5.76604 28.0924 5.14346 28.3268 4.84386C28.448 4.68888 28.6256 4.62882 28.8279 4.67544C29.0773 4.73298 29.2645 4.93794 29.3547 5.25294C29.4721 5.66398 29.4091 6.26066 29.0897 6.71342C29.2911 6.85972 29.5557 6.96514 29.9102 6.95352C30.2286 6.9433 30.4477 6.83816 30.5797 6.63208C31.0134 5.95588 30.3924 4.4611 30.3861 4.44612C30.356 4.37472 30.3896 4.29254 30.4608 4.26244C30.5325 4.23234 30.6144 4.26594 30.6445 4.3372C30.6726 4.40398 31.3287 5.98304 30.8159 6.78328C30.6327 7.06902 30.331 7.2205 29.9189 7.23366C29.5427 7.24752 29.1933 7.1379 28.9078 6.9265C28.6244 7.2016 28.1157 7.47138 27.2828 7.22904C27.0233 7.15372 26.7864 7.05656 26.5726 6.94358C26.35 7.39746 25.9196 7.74032 25.2012 7.756C24.6665 7.7665 24.1958 7.6524 23.8028 7.46424C23.7914 7.52024 23.7782 7.57554 23.7636 7.63C23.5548 8.41232 23.0841 8.93368 22.438 9.09804C22.389 9.11064 22.34 9.12184 22.2915 9.13178C22.3137 9.30468 22.3067 9.4815 22.2603 9.6572C22.1577 10.0485 21.8125 10.5662 20.7528 10.8108C20.4774 10.8744 20.223 10.9147 19.9892 10.9353C20.0147 11.1411 20.021 11.3529 20.0087 11.5615C19.9638 12.3066 19.6514 13.1646 18.9327 13.4228C19.0791 14.4029 18.767 15.5466 18.1663 16.0338C17.9528 16.207 17.7119 16.2936 17.4566 16.2936C17.2143 16.2938 16.9594 16.2159 16.7029 16.0604ZM18.5457 13.0141C18.4068 12.6181 18.1074 12.1451 17.4688 12.1402C16.8366 12.1363 16.5574 12.2492 16.4955 12.357C16.4876 12.3712 16.4624 12.4149 16.5185 12.5084C16.7016 12.8155 17.5031 13.2502 18.5036 13.2191C18.538 13.2182 18.5717 13.2159 18.6049 13.2119C18.588 13.1445 18.5682 13.0782 18.5457 13.0141ZM18.831 9.6509C18.5428 9.60904 18.3176 9.6705 18.2289 9.8168C18.1638 9.92432 18.1834 10.0692 18.2812 10.2046C18.4597 10.4513 18.8989 10.6718 19.6187 10.6718C19.6313 10.6718 19.6439 10.6716 19.6565 10.6715C19.5323 10.144 19.2576 9.71376 18.831 9.6509ZM21.3513 8.00632C20.9671 7.6552 20.5469 7.50246 20.2543 7.60774C19.9927 7.70196 19.891 7.8498 19.9514 8.04706C20.0752 8.45124 20.8908 9.00312 21.9485 8.90022C21.8354 8.55988 21.6043 8.23788 21.3513 8.00632ZM22.9974 5.4138C22.7507 5.48744 22.7316 5.71144 22.759 5.8863C22.8154 6.24554 23.1089 6.68598 23.5856 7.01204C23.6403 6.34102 23.4807 5.71998 23.2438 5.48968C23.174 5.42192 23.1129 5.4033 23.0636 5.4033C23.0382 5.40344 23.016 5.40834 22.9974 5.4138ZM25.3444 4.82846C25.2871 5.23082 25.62 5.9948 26.4245 6.53044C26.4789 6.32058 26.4869 6.12794 26.4858 6.01762C26.4775 5.25406 26.0885 4.53194 25.6856 4.53194C25.487 4.53194 25.3722 4.63176 25.3444 4.82846ZM28.5469 5.01676C28.4023 5.20198 28.3941 5.69366 28.6334 6.16546C28.687 6.27102 28.7664 6.40066 28.8787 6.52428C29.1284 6.14964 29.178 5.6574 29.0843 5.33036C29.0493 5.2073 28.9609 4.99408 28.7643 4.949C28.7408 4.94354 28.7185 4.94074 28.6981 4.94074C28.6359 4.94074 28.5869 4.96566 28.5469 5.01676Z" fill="#251626"/>
<path d="M14.9287 6.00712C14.9716 6.00712 15.0141 5.98738 15.0415 5.95014L16.2377 4.32936C16.2837 4.26706 16.2706 4.17928 16.2081 4.13336C16.1462 4.08758 16.0578 4.10046 16.0121 4.1629L14.816 5.78368C14.7699 5.84598 14.7831 5.93376 14.8455 5.97968C14.8704 5.9983 14.8997 6.00712 14.9287 6.00712Z" fill="#251626"/>
<path d="M20.3643 4.53194C20.4196 4.53194 20.4722 4.49876 20.4944 4.44416C20.5233 4.37248 20.4886 4.29072 20.4169 4.26174C20.3261 4.2252 18.1811 3.374 17.1481 4.28666C17.09 4.33804 17.0845 4.42652 17.1358 4.48462C17.187 4.54286 17.2759 4.54818 17.3337 4.49694C18.2373 3.6988 20.2912 4.51346 20.3118 4.52186C20.329 4.52872 20.3468 4.53194 20.3643 4.53194Z" fill="#251626"/>
<path d="M18.8103 3.49566C18.8438 3.49566 18.8771 3.4839 18.904 3.45996C20.2092 2.29054 22.9999 3.24884 23.0278 3.2585C23.1006 3.28454 23.1805 3.24576 23.2063 3.17268C23.2321 3.0996 23.1934 3.01966 23.1203 2.99404C22.9999 2.95162 20.1453 1.97148 18.7166 3.25108C18.6591 3.30288 18.6542 3.39136 18.706 3.44904C18.7336 3.47984 18.7719 3.49566 18.8103 3.49566Z" fill="#251626"/>
<path d="M18.3224 7.4578C18.3739 7.4578 18.4235 7.42938 18.4478 7.3801C18.4823 7.31066 18.4541 7.22666 18.3848 7.19208C18.3651 7.18228 16.4097 6.19752 16.4828 5.18602C16.4883 5.10888 16.4303 5.04154 16.353 5.03608C16.2774 5.02908 16.2087 5.0883 16.2029 5.16572C16.1164 6.36412 18.1723 7.39956 18.26 7.4431C18.28 7.45318 18.3013 7.4578 18.3224 7.4578Z" fill="#251626"/>
<path d="M15.9938 9.99208C16.0258 9.99208 16.0579 9.98116 16.0844 9.95876C16.1432 9.90878 16.1506 9.8203 16.1007 9.76122C16.0879 9.7461 14.8333 8.23158 15.4664 6.39562C15.4916 6.3224 15.4527 6.2426 15.3796 6.2174C15.3065 6.19234 15.2266 6.23112 15.2014 6.3042C14.5152 8.2943 15.8305 9.8763 15.887 9.94266C15.9145 9.97528 15.954 9.99208 15.9938 9.99208Z" fill="#251626"/>
</svg>
