<svg width="94" height="100" viewBox="0 0 94 100" fill="none" xmlns="http://www.w3.org/2000/svg">
<path d="M75.669 65.9904L64.8288 56.2704C64.7724 56.2202 64.7494 56.1424 64.7694 56.0694C64.789 55.9964 64.8476 55.941 64.9216 55.9254L73.4018 54.1548L76.807 44.1012C76.825 44.0488 76.8638 44.006 76.9142 43.983C76.9646 43.9608 77.0218 43.9598 77.0734 43.9804C80.8182 45.5326 93.0578 50.6598 93.3296 51.4612C93.348 51.5158 93.3406 51.6128 93.3116 51.6626C93.0562 52.1052 89.8766 59.5204 88.2312 63.3796C88.2054 63.4398 88.1518 63.4838 88.0876 63.4972L75.8436 66.0374C75.83 66.0402 75.8166 66.0416 75.803 66.0416C75.7538 66.0418 75.706 66.0238 75.669 65.9904ZM92.914 51.5604C92.0918 50.8026 82.9616 46.8586 77.1172 44.4326L73.744 54.3918C73.7214 54.4588 73.6646 54.509 73.5954 54.5234L65.3906 56.2366L75.8608 65.6248L87.9034 63.1264C88.3824 62.0036 92.3394 52.7322 92.914 51.5604Z" fill="#251626"/>
<path d="M90.238 51.9808C90.238 51.9808 87.123 59.6392 86.667 60.651C86.5544 60.9008 75.6502 54.3906 75.6502 54.0214C75.6502 53.6522 78.5374 46.3584 78.5374 46.3584L90.238 51.9808Z" fill="#E9546A"/>
<path d="M68.606 56.975C68.5484 56.9238 68.5258 56.8442 68.547 56.7702C68.5682 56.6962 68.63 56.6412 68.7058 56.6282C69.197 56.5442 73.5172 55.8072 73.9028 55.8072C74.6038 55.8072 81.6344 60.846 83.7722 62.3904C83.836 62.4366 83.8668 62.5158 83.8512 62.593C83.8352 62.67 83.7758 62.7308 83.6986 62.748C81.3112 63.285 77.6662 64.126 77.4116 64.24C77.3838 64.2538 77.3412 64.2634 77.3102 64.2634C76.8438 64.2636 71.6564 59.6972 68.606 56.975ZM73.9028 56.2078C73.6548 56.2078 71.0836 56.6304 69.1834 56.9532C72.1576 59.6006 76.6846 63.5424 77.31 63.8526C77.9456 63.644 81.69 62.7914 83.1774 62.4552C79.7284 59.9724 74.4422 56.2804 73.9028 56.2078Z" fill="#251626"/>
<path d="M75.1946 67.6042C75.5204 67.6042 81.0252 66.5868 86.925 65.4874C87.924 65.3014 88.5814 65.1788 88.6316 65.171C88.761 65.1676 88.7662 65.1742 91.321 58.9562C92.2518 56.69 93.8434 52.8 93.9036 52.5958C94.026 52.1808 93.4546 51.5896 93.2766 51.4182C93.1972 51.342 93.07 51.344 92.9934 51.4236C92.9168 51.5032 92.919 51.63 92.9988 51.7066C93.2988 51.9958 93.5514 52.3728 93.5194 52.4826C93.4122 52.8284 88.9428 63.7132 88.4664 64.7938C88.2924 64.825 87.8766 64.9026 86.8514 65.0936C83.8182 65.6588 75.8386 67.1456 75.2172 67.202C74.3962 66.8246 65.7092 58.883 65.4068 58.2278C65.3148 57.7332 65.1632 56.1186 65.1616 56.1024C65.151 55.9922 65.0498 55.9108 64.9434 55.9216C64.8334 55.932 64.7526 56.0298 64.7626 56.1398C64.7688 56.2068 64.9178 57.7894 65.0196 58.324C65.1352 58.9316 74.6444 67.6042 75.1946 67.6042Z" fill="#251626"/>
<path d="M88.6036 65.173C88.6248 65.173 88.6458 65.1696 88.667 65.1626C88.7718 65.1278 88.8286 65.0144 88.7938 64.9094L88.2368 63.2378C88.2016 63.133 88.0882 63.0762 87.9834 63.1112C87.8786 63.146 87.8218 63.2594 87.8566 63.3644L88.4136 65.036C88.4416 65.12 88.5198 65.173 88.6036 65.173Z" fill="#251626"/>
<path d="M84.3166 52.1468C84.3166 52.1468 82.3314 55.761 82.0768 55.4556C81.8222 55.1502 80.1934 52.1468 80.1934 52.1468H84.3166Z" fill="white"/>
<path d="M88.0466 63.5016C88.1134 63.5016 88.1788 63.468 88.2168 63.4068C88.275 63.3128 88.2462 63.1894 88.1522 63.131L73.66 54.1572C73.5662 54.0992 73.4426 54.128 73.3842 54.2222C73.326 54.3162 73.3548 54.4396 73.4488 54.498L87.941 63.4718C87.9738 63.492 88.0106 63.5016 88.0466 63.5016Z" fill="#251626"/>
<path d="M79.0524 63.8138C79.1084 63.8138 79.1642 63.7904 79.2038 63.7446C79.2762 63.6608 79.2672 63.5344 79.1834 63.462L70.9332 56.3272C70.8496 56.2552 70.7232 56.2638 70.6508 56.3478C70.5784 56.4316 70.5874 56.558 70.6712 56.6304L78.9214 63.7652C78.9594 63.7978 79.0058 63.8138 79.0524 63.8138Z" fill="#251626"/>
<path d="M71.0338 59.0556C71.0538 59.0556 71.0744 59.0526 71.0948 59.0462L76.1192 57.4434C76.2244 57.4098 76.2826 57.2972 76.249 57.1918C76.215 57.0866 76.1046 57.0282 75.9972 57.0618L70.9728 58.6646C70.8676 58.6982 70.8094 58.8108 70.843 58.9162C70.8704 59.0016 70.949 59.0556 71.0338 59.0556Z" fill="#251626"/>
<path d="M75.6504 63.0282C75.6758 63.0282 75.7012 63.0236 75.7258 63.0134L81.066 60.8364C81.1684 60.7948 81.2178 60.6778 81.176 60.5754C81.1342 60.4728 81.0168 60.4234 80.9152 60.4656L75.575 62.6426C75.4726 62.6842 75.4232 62.8012 75.465 62.9036C75.4966 62.9812 75.5714 63.0282 75.6504 63.0282Z" fill="#251626"/>
<path d="M75.4986 60.4408C75.522 60.4408 75.546 60.4366 75.5694 60.4278L78.759 59.2246C78.8622 59.1856 78.9146 59.0702 78.8756 58.9666C78.8368 58.863 78.7222 58.8104 78.6174 58.8498L75.4278 60.053C75.3246 60.092 75.2722 60.2074 75.3112 60.311C75.3414 60.3916 75.4176 60.4408 75.4986 60.4408Z" fill="#251626"/>
<path d="M80.9904 63.1388C81.0494 63.1388 81.1078 63.1128 81.1472 63.063C81.216 62.9764 81.2016 62.8504 81.1148 62.7818L72.6206 56.047C72.5342 55.978 72.4086 55.9926 72.3394 56.0794C72.2706 56.166 72.285 56.292 72.3718 56.3606L80.866 63.0954C80.9028 63.1246 80.9466 63.1388 80.9904 63.1388Z" fill="#251626"/>
<path d="M75.1946 67.6042C75.2748 67.6042 75.3502 67.5558 75.3812 67.4764L75.989 65.9138C76.0292 65.8108 75.978 65.6948 75.8752 65.6546C75.772 65.6144 75.6562 65.6656 75.6158 65.7686L75.008 67.3312C74.9678 67.4342 75.019 67.5502 75.1218 67.5904C75.1458 67.6 75.1704 67.6042 75.1946 67.6042Z" fill="#251626"/>
<path d="M21.7628 4.7934C21.7628 4.7934 18.9072 -1.9504 13.1962 0.904998C7.4852 3.7604 11.8306 9.844 11.7064 5.4986C11.582 1.1534 6.1194 2.8322 4.5054 7.1452C2.8914 11.4582 6.3678 17.2824 6.3678 14.3082C6.3678 11.334 4.5054 10.578 2.3948 14.3082C0.284199 18.0384 1.5258 27.5 3.6364 24.9418C5.747 22.3836 0.685999 21.5406 0.360999 24.9418C0.0359991 28.343 0.532999 33.4696 4.2806 32.9862C7.359 32.589 6.8644 27.996 3.1398 30.963C-0.584801 33.93 0.284199 42.1546 5.1262 42.0774C9.9682 42.0002 12.4512 37.229 9.7198 36.9452C6.9884 36.6614 7.485 43.6976 11.7062 41.0486C15.9274 38.3996 14.6858 28.8398 11.8304 30.2054C8.975 31.571 13.072 36.0158 14.9342 32.9244C16.7964 29.833 16.9582 24.8844 14.3508 26.0326C11.7436 27.1808 14.5616 30.3286 16.9206 26.9014C19.2796 23.4742 15.344 18.5334 13.4442 19.9994C11.5444 21.4654 16.9206 20.0714 17.9138 17.6272C18.907 15.1828 16.2998 11.3422 13.8168 12.8332C11.3338 14.324 18.6588 16.0986 15.8032 9.497C14.344 6.1236 19.8712 7.7336 19.8712 7.7336" fill="#DD7C2E"/>
<path d="M1.0792 39.1348C0.358399 37.1254 0.477599 34.3784 1.6812 32.3546C-0.206401 30.4638 0.0399993 26.1938 0.161199 24.9226C0.249599 24.002 0.686199 23.2738 1.369 22.8612C0.876199 20.2094 1.0542 16.2708 2.2202 14.2096C2.8612 13.077 3.511 12.2932 4.1274 11.893C3.7914 10.4238 3.7194 8.6748 4.3178 7.075C5.4184 4.1348 8.129 2.49 9.9696 2.7942C10.1906 2.831 10.3948 2.8948 10.581 2.9842C11.0344 2.1718 11.8212 1.3686 13.1066 0.725798C14.7094 -0.0752023 16.247 -0.214202 17.6774 0.313398C20.496 1.3528 21.8892 4.5786 21.947 4.7154C21.9904 4.817 21.9426 4.9346 21.841 4.9778C21.7396 5.0208 21.6216 4.9734 21.5786 4.8716C21.565 4.8396 20.192 1.6662 17.5366 0.688198C16.2154 0.201198 14.785 0.334398 13.2858 1.084C12.0768 1.6884 11.3438 2.4396 10.926 3.1938C11.5296 3.649 11.8764 4.4434 11.9066 5.493C11.9442 6.8132 11.5858 7.1546 11.2784 7.2086C10.8764 7.2778 10.4516 6.8462 10.2156 6.1322C9.993 5.4572 9.9292 4.4116 10.4022 3.3426C10.2504 3.2706 10.0842 3.219 9.9038 3.189C8.2548 2.913 5.7086 4.501 4.6932 7.2152C4.1518 8.6616 4.1976 10.2988 4.4952 11.6978C4.7878 11.5786 5.071 11.5526 5.3396 11.6228C6.1086 11.8254 6.5678 12.829 6.5678 14.308C6.5678 14.8646 6.45 15.1858 6.2076 15.2894C6.075 15.3466 5.8576 15.3556 5.5708 15.0816C5.1512 14.6808 4.5918 13.6378 4.2316 12.31C3.7066 12.6956 3.1306 13.4142 2.5688 14.4066C1.4134 16.4484 1.2934 20.1864 1.733 22.6806C1.8526 22.633 1.9778 22.594 2.108 22.5632C2.9744 22.361 3.8266 22.6168 4.1806 23.1868C4.3672 23.4872 4.5644 24.1312 3.7906 25.0692C3.216 25.7652 2.7268 25.5918 2.485 25.4256C2.0434 25.1218 1.6926 24.3314 1.456 23.2856C0.951 23.6462 0.629599 24.2326 0.559999 24.9608C0.322199 27.4474 0.555999 30.5718 1.9028 32.0078C2.213 31.5572 2.5826 31.1506 3.0148 30.8062C4.6602 29.4956 5.5618 29.708 5.9538 29.9512C6.3986 30.2276 6.591 30.783 6.4568 31.401C6.3016 32.1158 5.6452 33.0118 4.306 33.1848C3.3986 33.301 2.6206 33.1122 1.985 32.6226C0.877399 34.53 0.777199 37.107 1.4558 38.9996C2.113 40.8318 3.4248 41.8776 5.0612 41.8776C5.0816 41.8776 5.1022 41.8774 5.123 41.877C6.377 41.857 7.482 41.5056 8.3674 40.9976C7.7372 40.1094 7.6778 38.7394 8.0686 37.8302C8.3972 37.0652 9.0042 36.671 9.7404 36.746C10.5942 36.8348 11.0832 37.3552 11.0492 38.1384C11.0086 39.062 10.2572 40.2308 8.9888 41.0908C9.6194 41.629 10.522 41.555 11.6 40.879C13.7066 39.557 14.3664 36.4528 14.194 33.9592C13.673 34.2484 13.1602 34.2188 12.8302 34.1478C11.7574 33.916 10.7842 32.8746 10.6614 31.826C10.5694 31.0424 10.954 30.4024 11.744 30.0246C12.5424 29.6432 13.3128 29.991 13.8572 30.9798C14.1612 31.5318 14.3914 32.2962 14.519 33.1666C14.6024 33.0664 14.684 32.9518 14.7626 32.821C15.6306 31.3806 16.1272 29.4892 16.1234 28.0698C15.487 28.5722 14.8072 28.7646 14.179 28.5962C13.5826 28.4352 13.1534 27.9506 13.1108 27.3902C13.0882 27.0906 13.1558 26.3402 14.2706 25.8494C15.1644 25.4556 15.6888 25.7562 15.9712 26.077C16.2054 26.3432 16.3632 26.728 16.4492 27.1924C16.5536 27.0678 16.6564 26.9328 16.7558 26.788C18.2398 24.632 17.0874 21.939 15.7956 20.715C15.6118 20.541 15.4044 20.3784 15.187 20.2474C14.375 20.616 13.6134 20.8104 13.2658 20.7974C12.9858 20.7866 12.888 20.6626 12.8552 20.5604C12.7906 20.3586 12.9302 20.1432 13.3222 19.841C13.8342 19.4462 14.5092 19.4406 15.2052 19.7968C16.264 19.2824 17.3466 18.4926 17.7288 17.552C18.3178 16.1014 17.5442 14.2294 16.4896 13.3266C16.4764 13.3152 16.4626 13.3038 16.449 13.2922C16.208 13.8196 15.824 14.087 15.56 14.2152C14.6396 14.6624 13.4792 14.3608 13.1744 13.7996C13.0742 13.615 12.9264 13.1342 13.7138 12.6614C14.518 12.1786 15.4098 12.1824 16.232 12.654C16.3674 11.887 16.1648 10.836 15.6198 9.5768C15.263 8.7522 15.2712 8.12 15.644 7.6978C16.6184 6.5938 19.7928 7.5026 19.9274 7.5416C20.0338 7.5726 20.0948 7.6836 20.064 7.7898C20.0328 7.8958 19.9236 7.957 19.8156 7.9262C18.966 7.6786 16.6154 7.203 15.9446 7.963C15.6834 8.2588 15.6978 8.7484 15.9876 9.4178C16.6964 11.0566 16.771 12.1568 16.588 12.8912C16.6428 12.9328 16.6968 12.9764 16.7504 13.0224C17.936 14.0374 18.7652 16.0656 18.0998 17.7028C17.6946 18.7008 16.6468 19.5048 15.609 20.043C15.7638 20.1528 15.9188 20.28 16.0714 20.4246C17.467 21.7462 18.7042 24.6648 17.0864 27.0156C16.9046 27.2794 16.7128 27.514 16.5142 27.7172C16.6202 29.2514 16.1078 31.3654 15.1066 33.028C14.9412 33.3024 14.7636 33.516 14.5814 33.6806C14.8364 36.3436 14.1586 39.7468 11.8134 41.2186C10.1608 42.2562 9.171 41.7738 8.7274 41.394C8.6968 41.368 8.6672 41.341 8.6386 41.3132C7.6904 41.872 6.499 42.256 5.1302 42.278C5.1072 42.2784 5.084 42.2786 5.061 42.2786C3.2452 42.2782 1.7966 41.136 1.0792 39.1348ZM8.4368 37.9882C8.0962 38.7814 8.1512 40.0218 8.7094 40.7868C9.8976 40.0006 10.613 38.9384 10.649 38.121C10.674 37.5492 10.3454 37.2116 9.699 37.1446C9.652 37.1398 9.607 37.1374 9.5632 37.1374C8.9054 37.1374 8.5772 37.6614 8.4368 37.9882ZM13.5062 31.1732C13.1988 30.614 12.6724 30.0244 11.9166 30.3862C11.1176 30.7684 11.0092 31.3548 11.0588 31.7796C11.1616 32.6562 12.0112 33.5614 12.9144 33.7564C13.2648 33.832 13.7158 33.8238 14.1532 33.5112C14.0468 32.5686 13.8192 31.7412 13.5062 31.1732ZM3.2644 31.1198C2.8482 31.451 2.4942 31.8446 2.199 32.2812C2.7552 32.7218 3.4464 32.8928 4.2544 32.7876C5.3872 32.6416 5.9378 31.9038 6.0658 31.3164C6.1628 30.8686 6.0392 30.476 5.7428 30.2918C5.6126 30.2108 5.4546 30.1714 5.2738 30.1714C4.752 30.1712 4.0408 30.5012 3.2644 31.1198ZM15.6708 26.3416C15.3838 26.016 14.9792 25.9752 14.4316 26.2158C13.8116 26.489 13.4756 26.906 13.51 27.36C13.5398 27.7514 13.8502 28.0926 14.2832 28.2094C14.853 28.3646 15.498 28.127 16.0984 27.5644C16.0456 27.0374 15.9058 26.6088 15.6708 26.3416ZM2.1998 22.9536C2.0632 22.9854 1.9334 23.0288 1.8114 23.0832C2.0258 24.0906 2.3386 24.8388 2.7122 25.0958C2.806 25.1604 3.0552 25.3316 3.482 24.8144C3.9376 24.2624 4.0648 23.7596 3.8406 23.3984C3.643 23.08 3.1984 22.8956 2.6938 22.8956C2.533 22.8958 2.3664 22.9146 2.1998 22.9536ZM13.5668 20.158C13.4248 20.2676 13.3438 20.346 13.298 20.3984C13.3 20.3984 13.3016 20.3984 13.303 20.3984C13.4954 20.3984 13.917 20.3286 14.5668 20.0756C14.6122 20.058 14.658 20.0396 14.704 20.0206C14.3066 19.8888 13.9032 19.8978 13.5668 20.158ZM4.588 12.096C4.8786 13.2382 5.326 14.18 5.7266 14.6612C5.919 14.8918 6.036 14.9252 6.05 14.9214C6.0512 14.9208 6.1674 14.8394 6.1674 14.3082C6.1674 13.042 5.811 12.1614 5.2376 12.0104C5.175 11.9938 5.1096 11.9856 5.0428 11.9856C4.8994 11.9856 4.7472 12.023 4.588 12.096ZM13.92 13.0048C13.7166 13.1268 13.3954 13.3674 13.5262 13.6088C13.7162 13.9598 14.6444 14.215 15.3844 13.8552C15.731 13.6868 15.9762 13.4158 16.1198 13.0546C15.5918 12.725 14.8036 12.4742 13.92 13.0048ZM10.5962 6.0068C10.7824 6.5714 11.066 6.8394 11.2092 6.8142C11.343 6.7908 11.5322 6.4224 11.506 5.5044C11.4806 4.6148 11.217 3.952 10.746 3.5618C10.3456 4.5046 10.4006 5.4148 10.5962 6.0068Z" fill="#251626"/>
<path d="M75.1232 13.1448C75.1232 13.1448 78.3472 5.6696 79.4402 5.9076C80.5334 6.1456 78.5298 9.6748 78.1904 9.9004C77.851 10.1262 81.902 6.4526 81.9964 7.1644C82.091 7.8762 79.0062 11.7994 79.0062 11.7994C79.0062 11.7994 83.9592 7.2232 83.574 8.694C83.1888 10.1648 79.7214 13.832 79.7214 13.832C79.7214 13.832 85.371 12.9926 84.7722 13.7754C84.1734 14.5582 77.1716 16.6642 76 16.366C74.8284 16.0678 75.1232 13.1448 75.1232 13.1448Z" fill="#EA8060"/>
<path d="M50.2982 36.5928L75.4534 12.8332L77.189 15.4208L55.944 43.7178L50.2982 36.5928Z" fill="#EA8060"/>
<path d="M56.2738 51.5118L57.0992 62.7238L44.7348 64.0716L46.0822 51.5118H56.2738Z" fill="#EA8060"/>
<path d="M66.8842 92.5608L65.6684 99.735L67.6068 100L67.2874 97.7716C67.2874 97.7716 67.7284 100.882 72.848 99.7214C72.848 99.7214 66.3334 96.745 70.4842 92.8122L66.8842 92.5608Z" fill="#251426"/>
<path d="M23.3558 9.6766L19.7824 7.9132C19.7316 7.888 19.6936 7.8422 19.6784 7.787C19.6632 7.732 19.6718 7.6732 19.7026 7.6252L21.5942 4.685C21.6282 4.6324 21.685 4.5986 21.7476 4.5936C21.8106 4.5872 21.8708 4.6136 21.9126 4.6602L24.9642 8.0968C25.0366 8.1784 25.0304 8.3028 24.9506 8.3768L23.5808 9.6436C23.5428 9.6786 23.494 9.6968 23.4446 9.6968C23.4144 9.6974 23.384 9.6906 23.3558 9.6766ZM21.7882 5.1238L20.161 7.6532L23.4098 9.2564L24.5344 8.2164L21.7882 5.1238Z" fill="#251626"/>
<path d="M46.633 13.2112C46.633 13.2112 43.2976 -4.485 26.7288 4.7934C14.7304 11.5126 20.3362 24.6358 26.1398 25.9308C31.9434 27.2258 47.7996 17.1938 46.633 13.2112Z" fill="#DD7C2E"/>
<path d="M19.0016 92.5244L13.568 97.364L12.3142 95.8622L14.372 94.9496C14.372 94.9496 11.5024 96.2274 9.7672 91.273C9.7672 91.273 15.7486 95.2128 16.877 89.6072L19.0016 92.5244Z" fill="#251426"/>
<path d="M23.8928 18.9422C23.8928 18.9422 28.1762 6.3974 39.335 7.0152C47.6838 7.4776 56.315 32.1732 44.5646 36.2018C36.2354 39.0574 22.7262 25.5554 23.8928 18.9422Z" fill="#EA8060"/>
<path d="M39.26 24.1426C39.2736 24.1426 39.2874 24.1412 39.301 24.1384C39.421 24.1136 42.2506 23.527 43.0814 23.2644C43.2006 23.2268 43.279 23.1392 43.297 23.0238C43.401 22.3578 40.033 19.8662 38.0164 18.4404C37.9264 18.3772 37.8012 18.3976 37.7372 18.4884C37.6734 18.5788 37.695 18.7038 37.785 18.7674C40.1282 20.424 42.5862 22.3638 42.8744 22.9092C41.9614 23.1782 39.2482 23.7404 39.22 23.7462C39.1116 23.7686 39.042 23.8746 39.0648 23.9828C39.084 24.0774 39.1674 24.1426 39.26 24.1426Z" fill="#251626"/>
<path d="M33.9544 22.5994C34.0306 22.5994 34.1026 22.585 34.1696 22.5534C35.0102 22.1594 34.019 19.7368 33.6952 19.0036C33.651 18.9024 33.532 18.8572 33.4312 18.9014C33.3302 18.9462 33.2842 19.0644 33.3292 19.1656C33.907 20.4744 34.3242 22.0386 34 22.1908C33.6488 22.354 32.4914 21.1536 31.622 19.9318C31.5574 19.842 31.4322 19.8216 31.3428 19.8848C31.2528 19.949 31.2318 20.074 31.2958 20.164C31.7248 20.7676 33.1002 22.5994 33.9544 22.5994Z" fill="#251626"/>
<path d="M42.4016 18.4292C42.4884 18.4292 42.5674 18.414 42.6374 18.381C43.4784 17.9868 42.4872 15.5642 42.1634 14.831C42.1192 14.73 42.0002 14.6842 41.8994 14.7288C41.7984 14.7736 41.7524 14.8918 41.7974 14.993C42.3752 16.3018 42.7924 17.866 42.4678 18.0184C42.0934 18.1904 40.658 17.0972 39.5382 15.982C39.46 15.9042 39.3332 15.9044 39.255 15.9826C39.1772 16.061 39.1772 16.1878 39.2558 16.266C39.796 16.8042 41.5028 18.4288 42.4016 18.4292Z" fill="#251626"/>
<path d="M25.381 30.763C26.7549 30.763 27.8686 29.6493 27.8686 28.2754C27.8686 26.9015 26.7549 25.7878 25.381 25.7878C24.0071 25.7878 22.8934 26.9015 22.8934 28.2754C22.8934 29.6493 24.0071 30.763 25.381 30.763Z" fill="#EA8060"/>
<path d="M49.2486 16.098C50.53 16.098 51.5688 15.0592 51.5688 13.7778C51.5688 12.4964 50.53 11.4576 49.2486 11.4576C47.9672 11.4576 46.9284 12.4964 46.9284 13.7778C46.9284 15.0592 47.9672 16.098 49.2486 16.098Z" fill="#EA8060"/>
<path d="M26.7062 29.21C26.7328 29.21 26.7598 29.2048 26.7856 29.1936C26.8872 29.1498 26.9338 29.0318 26.89 28.9304C26.588 28.2312 26.1672 27.8182 25.6388 27.7032C24.7466 27.5094 23.9124 28.2528 23.8772 28.2844C23.795 28.3584 23.7888 28.4846 23.8628 28.5668C23.9364 28.6494 24.0634 28.6562 24.1452 28.5818C24.1526 28.5754 24.8656 27.9436 25.5552 28.0946C25.9494 28.1812 26.2748 28.5158 26.5224 29.089C26.5548 29.1648 26.6288 29.21 26.7062 29.21Z" fill="#251626"/>
<path d="M49.6782 15.621C49.7282 15.621 49.7784 15.6024 49.817 15.565C49.8968 15.4884 49.8992 15.3614 49.8224 15.2818C49.2146 14.6502 48.9432 14.0896 49.0374 13.6608C49.1364 13.2094 49.6062 13.0212 49.6108 13.0196C49.714 12.9794 49.765 12.8634 49.7246 12.7602C49.6844 12.657 49.5682 12.606 49.4652 12.6464C49.4378 12.6572 48.7904 12.9164 48.6458 13.575C48.5198 14.1488 48.8186 14.8164 49.5336 15.5596C49.5734 15.6006 49.6258 15.621 49.6782 15.621Z" fill="#251626"/>
<path d="M32.82 29.273C34.1298 29.273 35.1916 28.2112 35.1916 26.9014C35.1916 25.5916 34.1298 24.5298 32.82 24.5298C31.5102 24.5298 30.4484 25.5916 30.4484 26.9014C30.4484 28.2112 31.5102 29.273 32.82 29.273Z" fill="#E66357"/>
<path d="M45.6698 22.7716C46.9796 22.7716 48.0414 21.7098 48.0414 20.4C48.0414 19.0902 46.9796 18.0284 45.6698 18.0284C44.36 18.0284 43.2982 19.0902 43.2982 20.4C43.2982 21.7098 44.36 22.7716 45.6698 22.7716Z" fill="#E66357"/>
<path d="M57.0992 62.7238L77.3336 72.1046L72.8482 96.8676L63.6862 95.2536L69.4154 75.4196L55.849 69.632L57.0992 62.7238Z" fill="#E9546A"/>
<path d="M50.51 65.7562L19.176 97.3952L14.3844 89.7186L44.7348 63.7064L50.51 65.7562Z" fill="#E9546A"/>
<path d="M37.9006 33.723L43.1006 41.0486L39.397 44.1524C39.397 44.1524 50.461 55.2368 55.1702 47.4164C56.535 45.15 50.2982 36.5926 50.2982 36.5926L45.4174 39.5064L43.4542 32.9242L37.9006 33.723Z" fill="#EA8060"/>
<path d="M40.2148 44.1906L11.942 66.2608L14.276 68.8004L43.4352 50.292L40.2148 44.1906Z" fill="#EA8060"/>
<path d="M57.0992 62.7238L44.7348 63.7064L46.4118 69.8944L56.2738 69.6202L57.0992 62.7238Z" fill="#E9546A"/>
<path d="M48.2428 37.7562C48.2428 37.7562 53.0976 45.9718 50.2982 46.3582C47.4988 46.7446 41.681 42.1096 41.873 42.0774C42.065 42.0452 39.3968 43.9428 39.3968 43.9428C39.3968 43.9428 39.9354 54.9688 46.9846 56.217C54.0338 57.4654 63.3594 51.585 60.2754 45.4566C57.1914 39.3282 50.2982 36.5928 50.2982 36.5928L48.2428 37.7562Z" fill="#F7C67C"/>
<path d="M43.8274 52.8392L42.4322 59.0074L59.4678 58.42L55.4076 51.5118L43.8274 52.8392Z" fill="#F7C67C"/>
<path d="M13.6512 64.9266C13.6512 64.9266 6.7166 61.1674 5.9964 62.0236C5.2762 62.8796 9.018 64.4506 9.4246 64.4222C9.8312 64.3938 4.38 63.9586 4.7398 64.58C5.0996 65.2014 9.9382 66.424 9.9382 66.424C9.9382 66.424 3.2214 65.8252 4.4246 66.7546C5.6278 67.684 10.6132 68.4704 10.6132 68.4704C10.6132 68.4704 5.6268 71.256 6.5792 71.5102C7.5316 71.7644 14.362 69.1562 15.1076 68.2044C15.8532 67.2526 13.6512 64.9266 13.6512 64.9266Z" fill="#EA8060"/>
<path d="M46.9462 55.9456C49.8742 55.9456 52.7788 54.1728 52.8226 54.1456C52.9164 54.0874 52.9454 53.9638 52.8872 53.8698C52.8294 53.776 52.7058 53.7466 52.6114 53.8052C52.548 53.8444 46.277 57.668 43.153 53.8634C43.0822 53.7782 42.9558 53.7656 42.871 53.8358C42.7858 53.906 42.7732 54.0322 42.8432 54.1176C43.9698 55.4892 45.461 55.9456 46.9462 55.9456Z" fill="#251626"/>
<path d="M49.4522 47.5276C50.4456 47.5276 51.3018 47.2326 51.9958 46.6418C52.7918 45.9642 53.215 45.1184 53.2536 44.1276C53.3632 41.3356 50.4066 38.3554 50.2806 38.23C50.2032 38.1522 50.0764 38.1518 49.9974 38.2304C49.9196 38.3086 49.9196 38.4356 49.9978 38.5136C50.0276 38.5432 52.9568 41.4966 52.8534 44.1124C52.8186 44.9864 52.4428 45.7348 51.736 46.3366C48.4446 49.1388 42.246 43.6248 42.1838 43.5688C42.1024 43.4946 41.9758 43.5012 41.901 43.5836C41.827 43.6658 41.8338 43.7924 41.9162 43.8664C41.9322 43.8808 43.5468 45.3252 45.567 46.3858C47.0154 47.1464 48.3226 47.5274 49.4522 47.5276Z" fill="#251626"/>
<path d="M55.611 54.1758C55.6258 54.1758 55.6408 54.1742 55.656 54.1708C55.8188 54.1332 59.6562 53.2178 60.5498 50.2678C60.5818 50.162 60.522 50.0502 60.416 50.018C60.3112 49.9858 60.1986 50.0458 60.1664 50.1516C59.3392 52.882 55.6034 53.7718 55.5658 53.7804C55.4582 53.8052 55.391 53.9128 55.4156 54.0206C55.4374 54.1132 55.5194 54.1758 55.611 54.1758Z" fill="#251626"/>
<path d="M44.7348 64.7562C44.7372 64.7562 44.7394 64.7562 44.7418 64.756L58.6462 64.2718C58.7564 64.268 58.8434 64.1754 58.8394 64.0646C58.8354 63.9542 58.7366 63.863 58.6322 63.8716L44.7278 64.3558C44.6176 64.3596 44.5306 64.4522 44.5346 64.563C44.5384 64.6712 44.6272 64.7562 44.7348 64.7562Z" fill="#251626"/>
<path d="M70.9782 75.6502C72.2712 75.6502 73.8132 75.6218 73.9106 75.62C74.0208 75.6178 74.109 75.5266 74.107 75.416C74.105 75.3066 74.0158 75.2194 73.9068 75.2194C73.9056 75.2194 73.9044 75.2194 73.9028 75.2194C73.8704 75.22 70.9016 75.2752 69.7232 75.2346C70.277 74.8862 71.651 74.2322 72.9274 73.6836C73.029 73.6398 73.076 73.522 73.0322 73.4206C72.9888 73.3186 72.8706 73.2726 72.7694 73.3156C69.0224 74.926 69.0736 75.2332 69.101 75.398C69.1136 75.473 69.169 75.6016 69.4006 75.6194C69.7004 75.6424 70.3056 75.6502 70.9782 75.6502Z" fill="#251626"/>
<path d="M72.8486 95.1104C72.9448 95.1104 73.0296 95.0408 73.0458 94.9426C73.0638 94.8334 72.9898 94.7306 72.8808 94.7126L64.2294 93.288C64.1226 93.2692 64.017 93.3436 63.9994 93.453C63.9814 93.5622 64.0554 93.665 64.1644 93.683L72.8158 95.1076C72.8268 95.1096 72.8378 95.1104 72.8486 95.1104Z" fill="#251626"/>
<path d="M21.0344 95.7186C21.0724 95.7186 21.1102 95.708 21.144 95.6862C21.2366 95.6256 21.2626 95.5016 21.2022 95.4088L16.3846 88.0384C16.3236 87.9454 16.1988 87.92 16.1072 87.9804C16.0146 88.0408 15.9886 88.165 16.049 88.2576L20.8666 95.628C20.9054 95.6866 20.969 95.7186 21.0344 95.7186Z" fill="#251626"/>
<path d="M30.2874 78.1666C30.3422 78.1666 30.397 78.1444 30.4364 78.1002C30.725 77.7788 31.6188 77.0826 31.6278 77.0756C31.7154 77.0078 31.731 76.882 31.663 76.7946C31.595 76.707 31.469 76.6914 31.3822 76.7596C31.3442 76.789 30.4514 77.4848 30.1384 77.8322C30.0644 77.9146 30.0712 78.041 30.1536 78.115C30.1916 78.1496 30.2398 78.1666 30.2874 78.1666Z" fill="#251626"/>
<path d="M32.7062 77.4442C32.761 77.4442 32.8158 77.422 32.8552 77.378C33.1442 77.0566 34.0376 76.3606 34.0466 76.3536C34.1342 76.2858 34.1498 76.16 34.0818 76.0726C34.0142 75.985 33.8878 75.9696 33.801 76.0376C33.763 76.067 32.8702 76.7626 32.5572 77.11C32.4832 77.1924 32.49 77.3188 32.5724 77.3928C32.6104 77.4272 32.6586 77.4442 32.7062 77.4442Z" fill="#251626"/>
<path d="M32.4474 75.7366C32.5022 75.7366 32.5566 75.7144 32.5964 75.6704C32.885 75.3492 33.7788 74.653 33.7878 74.646C33.8754 74.5782 33.891 74.4524 33.823 74.365C33.7554 74.2776 33.629 74.262 33.5422 74.33C33.5042 74.3594 32.6114 75.0552 32.2984 75.4024C32.2244 75.4846 32.2312 75.6112 32.3136 75.6852C32.3514 75.7196 32.3996 75.7366 32.4474 75.7366Z" fill="#251626"/>
<path d="M34.9256 75.5194C34.9804 75.5194 35.0348 75.4972 35.0742 75.4532C35.3636 75.1318 36.257 74.4356 36.266 74.4286C36.3536 74.3608 36.3692 74.235 36.3012 74.1476C36.2332 74.06 36.1072 74.0444 36.0204 74.1126C35.9824 74.142 35.0898 74.8378 34.777 75.1852C34.7026 75.2674 34.7094 75.3938 34.7914 75.468C34.8296 75.5024 34.8778 75.5194 34.9256 75.5194Z" fill="#251626"/>
<path d="M35.1286 73.7946C35.1834 73.7946 35.2382 73.7724 35.2776 73.7284C35.5662 73.407 36.46 72.7108 36.469 72.7038C36.5566 72.636 36.5722 72.5102 36.5042 72.4228C36.4366 72.3356 36.3102 72.3196 36.2234 72.3878C36.1854 72.4172 35.2926 73.113 34.9796 73.4604C34.9056 73.5428 34.9124 73.6692 34.9948 73.7432C35.0326 73.7776 35.0808 73.7946 35.1286 73.7946Z" fill="#251626"/>
<path d="M30.0892 79.9162C30.144 79.9162 30.1984 79.894 30.2382 79.85C30.5268 79.5288 31.4206 78.8326 31.4296 78.8256C31.5172 78.7578 31.5328 78.632 31.4648 78.5446C31.3968 78.4572 31.2712 78.4416 31.184 78.5096C31.146 78.539 30.2532 79.2348 29.9402 79.582C29.8662 79.6642 29.873 79.7908 29.9554 79.8648C29.9934 79.8992 30.0414 79.9162 30.0892 79.9162Z" fill="#251626"/>
<path d="M27.9922 80.1868C28.047 80.1868 28.1018 80.1646 28.1412 80.1206C28.4298 79.7992 29.3236 79.103 29.3326 79.096C29.4202 79.0282 29.4358 78.9024 29.3678 78.815C29.3002 78.7274 29.1738 78.7118 29.087 78.78C29.049 78.8094 28.1562 79.5052 27.8432 79.8526C27.7692 79.935 27.776 80.0614 27.8584 80.1354C27.8964 80.1698 27.9446 80.1868 27.9922 80.1868Z" fill="#251626"/>
<path d="M73.4346 83.9028C73.518 83.9028 73.5954 83.8508 73.624 83.7676C73.6396 83.7224 74.0074 82.6518 74.0796 82.19C74.0968 82.0808 74.0222 81.9784 73.9126 81.9612C73.8066 81.9446 73.7014 82.0184 73.6838 82.1282C73.617 82.5552 73.2488 83.6266 73.2454 83.6374C73.2094 83.7418 73.265 83.8558 73.3694 83.8918C73.3912 83.8994 73.413 83.9028 73.4346 83.9028Z" fill="#251626"/>
<path d="M71.8036 85.8296C71.8866 85.8296 71.9644 85.7776 71.993 85.6946C72.0086 85.6492 72.3768 84.5786 72.4486 84.1168C72.4654 84.0074 72.3908 83.905 72.2816 83.888C72.1728 83.8734 72.0696 83.9456 72.0528 84.055C71.9864 84.4822 71.6178 85.5532 71.6144 85.564C71.5784 85.6686 71.634 85.7826 71.7384 85.8186C71.7598 85.826 71.782 85.8296 71.8036 85.8296Z" fill="#251626"/>
<path d="M72.9538 87.1182C73.0372 87.1182 73.1146 87.0662 73.1432 86.983C73.1588 86.9378 73.5266 85.867 73.5984 85.4054C73.6152 85.296 73.5406 85.1936 73.4314 85.1766C73.3218 85.1622 73.2194 85.2342 73.2026 85.3436C73.1362 85.7708 72.768 86.842 72.7646 86.8528C72.7286 86.9572 72.7842 87.0712 72.8886 87.1072C72.9104 87.1146 72.9324 87.1182 72.9538 87.1182Z" fill="#251626"/>
<path d="M70.9966 88.6544C71.08 88.6544 71.1574 88.6024 71.186 88.5192C71.2016 88.474 71.5694 87.4032 71.6412 86.9416C71.658 86.8322 71.5834 86.7298 71.4742 86.7128C71.3658 86.698 71.2622 86.7704 71.2454 86.8798C71.179 87.307 70.8108 88.3782 70.8074 88.389C70.7714 88.4934 70.827 88.6074 70.9314 88.6434C70.9532 88.6508 70.9752 88.6544 70.9966 88.6544Z" fill="#251626"/>
<path d="M71.7692 90.2098C71.8526 90.2098 71.93 90.1578 71.9586 90.0746C71.9742 90.0294 72.342 88.9588 72.4142 88.497C72.4314 88.3878 72.3568 88.2854 72.2472 88.2682C72.1396 88.2516 72.0356 88.3254 72.0184 88.4352C71.9516 88.8622 71.5834 89.9336 71.58 89.9444C71.544 90.0488 71.5996 90.1628 71.704 90.1988C71.7258 90.2064 71.7476 90.2098 71.7692 90.2098Z" fill="#251626"/>
<path d="M72.6448 82.3292C72.7282 82.3292 72.8056 82.2772 72.8342 82.194C72.8498 82.1488 73.2176 81.078 73.2894 80.6164C73.3062 80.507 73.2316 80.4046 73.1224 80.3876C73.0132 80.3718 72.9104 80.445 72.8936 80.5546C72.8272 80.9818 72.459 82.053 72.4556 82.0638C72.4196 82.1682 72.4752 82.2822 72.5796 82.3182C72.6014 82.3256 72.6234 82.3292 72.6448 82.3292Z" fill="#251626"/>
<path d="M74.2532 80.9568C74.3366 80.9568 74.414 80.9048 74.4426 80.8216C74.4582 80.7762 74.826 79.7054 74.8978 79.2438C74.9146 79.1344 74.84 79.032 74.7308 79.015C74.6228 78.9992 74.5188 79.0726 74.502 79.182C74.4356 79.6092 74.0674 80.6806 74.064 80.6914C74.028 80.7958 74.0836 80.9098 74.188 80.9458C74.2098 80.9532 74.2318 80.9568 74.2532 80.9568Z" fill="#251626"/>
<path d="M10.832 65.241C10.9056 65.241 10.9768 65.2002 11.0116 65.1296C11.0604 65.0304 11.0202 64.9104 10.9208 64.8612C10.7862 64.7948 9.5906 64.2092 9.0778 64.1688C8.9768 64.1618 8.8712 64.2424 8.8626 64.3528C8.8536 64.463 8.9362 64.5594 9.0464 64.5682C9.416 64.5974 10.3966 65.049 10.7432 65.2204C10.7718 65.2344 10.802 65.241 10.832 65.241Z" fill="#251626"/>
<path d="M10.8324 66.8296C10.9294 66.8296 11.015 66.7586 11.03 66.6594C11.0468 66.55 10.9714 66.4478 10.8622 66.4314C10.6728 66.4026 9.0078 66.1504 8.7932 66.1364C8.6856 66.1322 8.5878 66.213 8.5804 66.3234C8.5734 66.4338 8.657 66.5292 8.7674 66.5362C8.9168 66.5458 10.066 66.7156 10.802 66.8272C10.8122 66.8288 10.8224 66.8296 10.8324 66.8296Z" fill="#251626"/>
<path d="M78.4728 12.7764C78.5628 12.7764 78.6442 12.7158 78.6672 12.6248C78.7344 12.3554 79.2218 11.859 79.5132 11.6094C79.5972 11.5374 79.607 11.411 79.5352 11.327C79.4632 11.243 79.3368 11.2336 79.2528 11.305C79.166 11.3796 78.399 12.0466 78.2784 12.5272C78.2518 12.6346 78.3168 12.7434 78.4242 12.77C78.4404 12.7744 78.4568 12.7764 78.4728 12.7764Z" fill="#251626"/>
<path d="M77.4632 11.6576C77.4698 11.6576 77.4764 11.6572 77.4836 11.6566C77.5936 11.6456 77.6736 11.5474 77.6628 11.4376C77.6456 11.2624 78.009 10.5572 78.3594 10.0084C78.4188 9.9152 78.3914 9.7914 78.2984 9.7318C78.2054 9.6728 78.0818 9.699 78.0214 9.7928C77.834 10.0868 77.2246 11.077 77.2646 11.477C77.2748 11.5804 77.3616 11.6576 77.4632 11.6576Z" fill="#251626"/>
<path d="M41.6076 36.8726C43.0622 36.8726 44.9744 36.2562 45.0808 36.2216C45.186 36.1872 45.2432 36.0742 45.209 35.9692C45.1746 35.8638 45.062 35.807 44.9564 35.8408C44.0408 36.1392 41.473 36.8002 40.6026 36.2838C40.5076 36.2274 40.3848 36.2586 40.3284 36.354C40.2716 36.449 40.3034 36.5718 40.3984 36.6284C40.6974 36.8052 41.1278 36.8726 41.6076 36.8726Z" fill="#251626"/>
<path d="M40.226 29.2738C40.226 29.2738 40.9164 27.0934 41.4398 26.9016C41.9632 26.7098 42.3744 28.2756 42.3744 28.2756C42.3744 28.2756 42.2852 26.7098 42.7598 26.6724C43.2344 26.635 43.959 27.719 43.959 27.719C43.959 27.719 46.892 31.0426 45.0188 32.323C43.1456 33.6034 39.254 32.5316 40.226 29.2738Z" fill="#E66357"/>
<path d="M42.336 31.0974C42.42 31.0974 42.5014 31.0836 42.5792 31.054C44.3932 30.3668 44.155 25.8574 44.1442 25.6658C44.1376 25.556 44.05 25.4752 43.933 25.4774C43.8224 25.4836 43.7382 25.5784 43.7444 25.6888C43.8144 26.9126 43.7162 30.1948 42.4376 30.6792C41.7536 30.9368 40.1456 28.74 39.2218 27.0974C39.1678 27.001 39.0454 26.9666 38.9492 27.021C38.853 27.0754 38.8186 27.1974 38.873 27.2938C39.2476 27.9604 41.0792 31.0974 42.336 31.0974Z" fill="#251626"/>
<path d="M23.7184 22.9434C23.6238 22.8862 23.5936 22.7628 23.6508 22.6682C23.708 22.5736 23.8312 22.5442 23.9258 22.6008C24.5422 22.975 25.0906 22.9716 25.556 22.5944C26.296 21.9942 26.6872 20.5216 26.512 19.2688C26.4436 19.2776 26.3736 19.283 26.3012 19.285C24.8512 19.3172 23.4792 18.69 23.1116 18.0746C22.9826 17.8586 22.9696 17.6382 23.0752 17.4536C23.2732 17.1074 23.8594 16.9262 24.8162 16.9426C25.7096 16.9492 26.389 17.4878 26.7292 18.459C26.7652 18.5612 26.7964 18.6664 26.8234 18.7736C27.6304 18.437 27.9858 17.3974 28.0402 16.4926C28.057 16.2122 28.0472 15.9238 28.0104 15.6446C26.7682 15.6748 25.9862 15.2792 25.6492 14.8126C25.4118 14.4844 25.377 14.1116 25.5566 13.816C25.7698 13.465 26.2392 13.306 26.8176 13.3906C27.6358 13.511 28.1416 14.2864 28.3454 15.2256C28.6688 15.1988 29.0248 15.1434 29.4136 15.0536C30.4576 14.8126 31.0994 14.3426 31.27 13.694C31.32 13.5036 31.3282 13.306 31.3036 13.1082C29.592 13.2998 28.2246 12.4214 27.9766 11.6128C27.8248 11.1182 28.079 10.6988 28.6568 10.491C29.2232 10.2856 29.9612 10.53 30.6296 11.1418C31.0286 11.507 31.4326 12.05 31.6164 12.6538C31.6814 12.6406 31.7466 12.6258 31.8124 12.6092C32.807 12.356 33.2346 11.4838 33.418 10.7966C33.4474 10.686 33.4724 10.5742 33.4928 10.4628C32.6144 9.9238 32.0776 9.1278 31.9748 8.4708C31.8868 7.9112 32.1192 7.4922 32.5968 7.35C32.8612 7.2708 33.1252 7.3442 33.342 7.555C33.8262 8.0254 34.0546 9.159 33.9288 10.2432C34.4596 10.5196 35.1104 10.694 35.85 10.6794C36.7712 10.6594 37.2358 10.2072 37.4682 9.7158C36.1524 8.8782 35.5568 7.618 35.6674 6.8412C35.7358 6.3604 36.066 6.0734 36.5514 6.0734C37.4584 6.0734 38.082 7.3756 38.0952 8.5922C38.0988 8.9116 38.0584 9.2376 37.9654 9.5442C38.256 9.7012 38.5818 9.8374 38.9444 9.9426C39.731 10.1706 40.3896 10.0618 40.8532 9.6284C40.6804 9.4472 40.5298 9.233 40.4058 8.9888C40.0244 8.2372 39.9892 7.3478 40.324 6.9198C40.4972 6.6984 40.7508 6.6126 41.0398 6.6792C41.3962 6.7614 41.6636 7.0542 41.7924 7.5042C41.9602 8.0914 41.8702 8.9438 41.4138 9.5906C41.7016 9.7996 42.0796 9.9502 42.586 9.9336C43.0408 9.919 43.3538 9.7688 43.5424 9.4744C44.162 8.5084 43.2748 6.373 43.2658 6.3516C43.2228 6.2496 43.2708 6.1322 43.3726 6.0892C43.475 6.0462 43.592 6.0942 43.635 6.196C43.6752 6.2914 44.6124 8.5472 43.8798 9.6904C43.6182 10.0986 43.1872 10.315 42.5984 10.3338C42.061 10.3536 41.5618 10.197 41.154 9.895C40.7492 10.288 40.0224 10.6734 38.8326 10.3272C38.4618 10.2196 38.1234 10.0808 37.818 9.9194C37.5 10.5678 36.8852 11.0576 35.8588 11.08C35.095 11.095 34.4226 10.932 33.8612 10.6632C33.8448 10.7432 33.826 10.8222 33.8052 10.9C33.5068 12.0176 32.8344 12.7624 31.9114 12.9972C31.8414 13.0152 31.7714 13.0312 31.7022 13.0454C31.7338 13.2924 31.7238 13.545 31.6576 13.796C31.511 14.355 31.0178 15.0946 29.504 15.444C29.1106 15.5348 28.7472 15.5924 28.4132 15.6218C28.4496 15.9158 28.4586 16.2184 28.441 16.5164C28.3768 17.5808 27.9306 18.8066 26.9038 19.1754C27.113 20.5756 26.6672 22.2094 25.809 22.9054C25.504 23.1528 25.1598 23.2766 24.7952 23.2766C24.449 23.2768 24.0848 23.1656 23.7184 22.9434ZM26.351 18.5916C26.1526 18.0258 25.7248 17.3502 24.8126 17.3432C23.9094 17.3376 23.5106 17.4988 23.4222 17.6528C23.4108 17.6732 23.3748 17.7356 23.455 17.8692C23.7166 18.3078 24.8616 18.9288 26.2908 18.8844C26.34 18.8832 26.3882 18.8798 26.4356 18.8742C26.4114 18.7778 26.3832 18.6832 26.351 18.5916ZM26.7586 13.787C26.3468 13.7272 26.0252 13.815 25.8984 14.024C25.8054 14.1776 25.8334 14.3846 25.9732 14.578C26.2282 14.9304 26.8556 15.2454 27.8838 15.2454C27.9018 15.2454 27.9198 15.2452 27.9378 15.245C27.7604 14.4914 27.368 13.8768 26.7586 13.787ZM30.359 11.4376C29.8102 10.936 29.2098 10.7178 28.7918 10.8682C28.4182 11.0028 28.2728 11.214 28.3592 11.4958C28.536 12.0732 29.7012 12.8616 31.2122 12.7146C31.0506 12.2284 30.7204 11.7684 30.359 11.4376ZM32.7106 7.734C32.3582 7.8392 32.3308 8.1592 32.37 8.409C32.4506 8.9222 32.8698 9.5514 33.5508 10.0172C33.629 9.0586 33.401 8.1714 33.0626 7.8424C32.9628 7.7456 32.8756 7.719 32.8052 7.719C32.7688 7.7192 32.7372 7.7262 32.7106 7.734ZM36.0634 6.8978C35.9816 7.4726 36.4572 8.564 37.6064 9.3292C37.6842 9.0294 37.6956 8.7542 37.694 8.5966C37.6822 7.5058 37.1264 6.4742 36.5508 6.4742C36.2672 6.4742 36.1032 6.6168 36.0634 6.8978ZM40.6384 7.1668C40.4318 7.4314 40.4202 8.1338 40.762 8.8078C40.8386 8.9586 40.952 9.1438 41.1124 9.3204C41.4692 8.7852 41.54 8.082 41.4062 7.6148C41.3562 7.439 41.2298 7.1344 40.949 7.07C40.9154 7.0622 40.8836 7.0582 40.8544 7.0582C40.7656 7.0582 40.6956 7.0938 40.6384 7.1668Z" fill="#251626"/>
<path d="M21.1838 8.5816C21.2452 8.5816 21.3058 8.5534 21.345 8.5002L23.0538 6.1848C23.1196 6.0958 23.1008 5.9704 23.0116 5.9048C22.9232 5.8394 22.7968 5.8578 22.7316 5.947L21.0228 8.2624C20.957 8.3514 20.9758 8.4768 21.065 8.5424C21.1006 8.569 21.1424 8.5816 21.1838 8.5816Z" fill="#251626"/>
<path d="M28.949 6.4742C29.028 6.4742 29.1032 6.4268 29.1348 6.3488C29.1762 6.2464 29.1266 6.1296 29.0242 6.0882C28.8944 6.036 25.8302 4.82 24.3544 6.1238C24.2714 6.1972 24.2636 6.3236 24.3368 6.4066C24.41 6.4898 24.537 6.4974 24.6196 6.4242C25.9104 5.284 28.8446 6.4478 28.874 6.4598C28.8986 6.4696 28.924 6.4742 28.949 6.4742Z" fill="#251626"/>
<path d="M26.729 4.9938C26.7768 4.9938 26.8244 4.977 26.8628 4.9428C28.7274 3.2722 32.7142 4.6412 32.754 4.655C32.858 4.6922 32.9722 4.6368 33.009 4.5324C33.0458 4.428 32.9906 4.3138 32.8862 4.2772C32.7142 4.2166 28.6362 2.8164 26.5952 4.6444C26.513 4.7184 26.506 4.8448 26.58 4.9272C26.6194 4.9712 26.6742 4.9938 26.729 4.9938Z" fill="#251626"/>
<path d="M26.032 10.654C26.1056 10.654 26.1764 10.6134 26.2112 10.543C26.2604 10.4438 26.2202 10.3238 26.1212 10.2744C26.093 10.2604 23.2996 8.8536 23.404 7.4086C23.4118 7.2984 23.329 7.2022 23.2186 7.1944C23.1106 7.1844 23.0124 7.269 23.0042 7.3796C22.8806 9.0916 25.8176 10.5708 25.9428 10.633C25.9714 10.6474 26.0018 10.654 26.032 10.654Z" fill="#251626"/>
<path d="M22.7054 14.2744C22.7512 14.2744 22.797 14.2588 22.8348 14.2268C22.9188 14.1554 22.9294 14.029 22.8582 13.9446C22.8398 13.923 21.0476 11.7594 21.952 9.1366C21.988 9.032 21.9324 8.918 21.828 8.882C21.7236 8.8462 21.6094 8.9016 21.5734 9.006C20.5932 11.849 22.4722 14.109 22.5528 14.2038C22.5922 14.2504 22.6486 14.2744 22.7054 14.2744Z" fill="#251626"/>
</svg>
