<svg width="38" height="38" viewBox="0 0 38 38" fill="none" xmlns="http://www.w3.org/2000/svg">
<g clip-path="url(#clip0_9_1057)">
<path d="M26.7963 8.52308C26.5509 9.11367 25.973 9.5 25.3333 9.5H20.5833V25.3333C20.5833 26.2073 19.874 26.9167 19 26.9167C18.126 26.9167 17.4167 26.2073 17.4167 25.3333V9.5H12.6667C12.027 9.5 11.4491 9.11367 11.2037 8.52308C10.9583 7.93092 11.0944 7.25008 11.5473 6.79725L17.8806 0.463916C18.4997 -0.155168 19.5003 -0.155168 20.1194 0.463916L26.4528 6.79725C26.9056 7.25008 27.0418 7.93092 26.7963 8.52308Z" fill="#4CAF50"/>
<path d="M33.25 38H4.75C2.13117 38 0 35.8688 0 33.25V26.9167C0 26.0427 0.709333 25.3333 1.58333 25.3333C2.45733 25.3333 3.16667 26.0427 3.16667 26.9167V33.25C3.16667 34.1224 3.87758 34.8333 4.75 34.8333H33.25C34.1224 34.8333 34.8333 34.1224 34.8333 33.25V26.9167C34.8333 26.0427 35.5427 25.3333 36.4167 25.3333C37.2907 25.3333 38 26.0427 38 26.9167V33.25C38 35.8688 35.8688 38 33.25 38Z" fill="#607D8B"/>
</g>
<defs>
<clipPath id="clip0_9_1057">
<rect width="38" height="38" fill="white"/>
</clipPath>
</defs>
</svg>
