<svg width="38" height="38" viewBox="0 0 38 38" fill="none" xmlns="http://www.w3.org/2000/svg">
<path d="M27.3125 0H10.6875C8.28243 0 6.33334 1.94908 6.33334 4.35417V10.6875C6.33334 11.343 6.86534 11.875 7.52084 11.875H30.4792C31.1347 11.875 31.6667 11.343 31.6667 10.6875V4.35417C31.6667 1.94908 29.7176 0 27.3125 0Z" fill="#ECEFF1"/>
<path d="M33.6458 9.5H4.35417C1.95225 9.5 0 11.4523 0 13.8542V24.1458C0 26.5478 1.95225 28.5 4.35417 28.5H33.6458C36.0478 28.5 38 26.5478 38 24.1458V13.8542C38 11.4523 36.0478 9.5 33.6458 9.5Z" fill="#607D8B"/>
<path d="M30.4792 20.5833H7.52084C6.86534 20.5833 6.33334 21.1153 6.33334 21.7708V33.6458C6.33334 36.0478 8.28559 38 10.6875 38H27.3125C29.7144 38 31.6667 36.0478 31.6667 33.6458V21.7708C31.6667 21.1153 31.1347 20.5833 30.4792 20.5833Z" fill="#ECEFF1"/>
<path d="M25.7292 28.5H12.2708C11.6153 28.5 11.0833 27.968 11.0833 27.3125C11.0833 26.657 11.6153 26.125 12.2708 26.125H25.7292C26.3847 26.125 26.9167 26.657 26.9167 27.3125C26.9167 27.968 26.3847 28.5 25.7292 28.5Z" fill="#90A4AE"/>
<path d="M25.7292 33.25H12.2708C11.6153 33.25 11.0833 32.718 11.0833 32.0625C11.0833 31.407 11.6153 30.875 12.2708 30.875H25.7292C26.3847 30.875 26.9167 31.407 26.9167 32.0625C26.9167 32.718 26.3847 33.25 25.7292 33.25Z" fill="#90A4AE"/>
</svg>
