<svg width="38" height="38" viewBox="0 0 38 38" fill="none" xmlns="http://www.w3.org/2000/svg">
<path d="M1.58335 38C1.17801 38 0.772681 37.8448 0.462347 37.5361C-0.155153 36.917 -0.155153 35.9148 0.463931 35.2973L13.2414 22.5356C13.8605 21.9181 14.8612 21.9181 15.4803 22.5372C16.0978 23.1563 16.0978 24.1585 15.4787 24.776L2.70118 37.5377C2.39243 37.8448 1.98868 38 1.58335 38V38Z" fill="#607D8B"/>
<path d="M37.1878 12.0064L25.992 0.810652C24.9106 -0.270765 23.1547 -0.269181 22.0733 0.810652L20.5263 2.35757C19.4338 3.44848 19.0586 5.03815 19.5463 6.50432C19.7473 7.11073 19.5922 7.76782 19.1409 8.22065L14.6031 12.7601C14.231 13.1337 13.7338 13.3396 13.205 13.3396H11.3493C10.1856 13.3396 9.09308 13.7924 8.26975 14.6157L7.51925 15.3662C6.99517 15.8903 6.707 16.5854 6.707 17.3248C6.707 18.0642 6.99517 18.7609 7.51925 19.2834L18.715 30.4791C19.2391 31.0032 19.9342 31.2914 20.6736 31.2914C21.413 31.2914 22.1097 31.0032 22.6322 30.4791L23.3843 29.7271C24.2076 28.9037 24.6604 27.8112 24.6604 26.6475V24.795C24.6604 24.2661 24.8663 23.769 25.2399 23.3953L29.7793 18.8575C30.2322 18.4031 30.8893 18.2495 31.4957 18.4522C32.9571 18.9382 34.5483 18.5661 35.6424 17.4721L37.1893 15.9251C38.2692 14.8453 38.2692 13.0878 37.1878 12.0064V12.0064Z" fill="#F44336"/>
</svg>
