<svg width="36" height="38" viewBox="0 0 36 38" fill="none" xmlns="http://www.w3.org/2000/svg">
<path d="M23.1458 0H12.8542C11.3262 0 10.0833 1.24292 10.0833 2.77083V5.9375C10.0833 6.593 10.6153 7.125 11.2708 7.125C11.9263 7.125 12.4583 6.593 12.4583 5.9375V2.77083C12.4583 2.55233 12.6357 2.375 12.8542 2.375H23.1458C23.3643 2.375 23.5417 2.55233 23.5417 2.77083V5.9375C23.5417 6.593 24.0737 7.125 24.7292 7.125C25.3847 7.125 25.9167 6.593 25.9167 5.9375V2.77083C25.9167 1.24292 24.6737 0 23.1458 0Z" fill="#90A4AE"/>
<path d="M31.0625 11.875C30.407 11.875 29.875 12.407 29.875 13.0625H6.125C6.125 12.407 5.593 11.875 4.9375 11.875C4.282 11.875 3.75 12.407 3.75 13.0625V33.6458C3.75 36.0478 5.70225 38 8.10417 38H27.8958C30.2978 38 32.25 36.0478 32.25 33.6458V13.0625C32.25 12.407 31.718 11.875 31.0625 11.875Z" fill="#ECEFF1"/>
<path d="M31.0625 4.75H4.9375C2.53558 4.75 0.583328 6.70225 0.583328 9.10417V13.0625C0.583328 13.718 1.11533 14.25 1.77083 14.25H34.2292C34.8847 14.25 35.4167 13.718 35.4167 13.0625V9.10417C35.4167 6.70225 33.4644 4.75 31.0625 4.75Z" fill="#607D8B"/>
<path d="M18 31.6667C17.3445 31.6667 16.8125 31.1347 16.8125 30.4792V20.1875C16.8125 19.532 17.3445 19 18 19C18.6555 19 19.1875 19.532 19.1875 20.1875V30.4792C19.1875 31.1347 18.6555 31.6667 18 31.6667Z" fill="#607D8B"/>
<path d="M11.2708 31.6667C10.6153 31.6667 10.0833 31.1347 10.0833 30.4792V20.1875C10.0833 19.532 10.6153 19 11.2708 19C11.9263 19 12.4583 19.532 12.4583 20.1875V30.4792C12.4583 31.1347 11.9263 31.6667 11.2708 31.6667Z" fill="#607D8B"/>
<path d="M24.7292 31.6667C24.0737 31.6667 23.5417 31.1347 23.5417 30.4792V20.1875C23.5417 19.532 24.0737 19 24.7292 19C25.3847 19 25.9167 19.532 25.9167 20.1875V30.4792C25.9167 31.1347 25.3847 31.6667 24.7292 31.6667Z" fill="#607D8B"/>
</svg>
