<svg width="36" height="38" viewBox="0 0 36 38" fill="none" xmlns="http://www.w3.org/2000/svg">
<path d="M31.0625 0H12.8542C10.4491 0 8.5 1.94908 8.5 4.35417V25.7292C8.5 28.1343 10.4491 30.0833 12.8542 30.0833H31.0625C33.4676 30.0833 35.4167 28.1343 35.4167 25.7292V4.35417C35.4167 1.94908 33.4676 0 31.0625 0Z" fill="#ECEFF1"/>
<path d="M27.8958 21.375H16.0208C15.3653 21.375 14.8333 20.843 14.8333 20.1875C14.8333 19.532 15.3653 19 16.0208 19H27.8958C28.5513 19 29.0833 19.532 29.0833 20.1875C29.0833 20.843 28.5513 21.375 27.8958 21.375Z" fill="#90A4AE"/>
<path d="M27.8958 16.625H16.0208C15.3653 16.625 14.8333 16.093 14.8333 15.4375C14.8333 14.782 15.3653 14.25 16.0208 14.25H27.8958C28.5513 14.25 29.0833 14.782 29.0833 15.4375C29.0833 16.093 28.5513 16.625 27.8958 16.625Z" fill="#90A4AE"/>
<path d="M27.8958 11.875H16.0208C15.3653 11.875 14.8333 11.343 14.8333 10.6875C14.8333 10.032 15.3653 9.5 16.0208 9.5H27.8958C28.5513 9.5 29.0833 10.032 29.0833 10.6875C29.0833 11.343 28.5513 11.875 27.8958 11.875Z" fill="#90A4AE"/>
<path d="M12.8542 32.4583C9.14284 32.4583 6.12501 29.4389 6.12501 25.7292V4.35418C6.12501 4.21801 6.15668 4.09134 6.16459 3.95834H4.93751C2.53559 3.95834 0.583344 5.91059 0.583344 8.31251V33.6458C0.583344 36.0478 2.53559 38 4.93751 38H23.9375C26.3394 38 28.2917 36.0478 28.2917 33.6458V32.4583H12.8542Z" fill="#2196F3"/>
</svg>
