<svg width="38" height="38" viewBox="0 0 38 38" fill="none" xmlns="http://www.w3.org/2000/svg">
<path d="M32.0625 1.58334H26.5208C25.8653 1.58334 25.3333 2.11534 25.3333 2.77084V8.12251C25.3333 8.43918 25.46 8.74476 25.6864 8.96643L31.2281 14.4448C31.4545 14.6696 31.7569 14.7883 32.0625 14.7883C32.2177 14.7883 32.3728 14.7583 32.5201 14.6965C32.9618 14.5128 33.25 14.0806 33.25 13.6008V2.77084C33.25 2.11534 32.718 1.58334 32.0625 1.58334V1.58334Z" fill="#1976D2"/>
<path d="M38 18.6042C38 19.6967 37.1133 20.5833 36.0208 20.5833H33.25L19 6.72917L4.75 20.5833H1.97917C0.886667 20.5833 0 19.6967 0 18.6042C0 18.0817 0.205833 17.5592 0.585833 17.195L18.1767 0.3325C18.6358 -0.110833 19.3642 -0.110833 19.8233 0.3325L37.3983 17.1792C37.7942 17.5592 38 18.0817 38 18.6042V18.6042Z" fill="#2196F3"/>
<path d="M19 6.72916L4.75 20.5833V34.8333C4.75 36.575 6.175 38 7.91667 38H30.0833C31.825 38 33.25 36.575 33.25 34.8333V20.5833L19 6.72916Z" fill="#ECEFF1"/>
<path d="M14.25 25.3333H23.75V38H14.25V25.3333Z" fill="#2196F3"/>
</svg>
