<svg width="38" height="38" viewBox="0 0 38 38" fill="none" xmlns="http://www.w3.org/2000/svg">
<path d="M15.2 30.4C6.81872 30.4 0 23.5813 0 15.2C0 6.81872 6.81872 0 15.2 0C23.5813 0 30.4 6.81872 30.4 15.2C30.4 23.5813 23.5813 30.4 15.2 30.4ZM15.2 3.04C8.49528 3.04 3.04 8.49528 3.04 15.2C3.04 21.9047 8.49528 27.36 15.2 27.36C21.9047 27.36 27.36 21.9047 27.36 15.2C27.36 8.49528 21.9047 3.04 15.2 3.04Z" fill="#583689"/>
<path d="M25.9472 23.7978L23.7976 25.9474L35.4043 37.5541L37.5539 35.4045L25.9472 23.7978Z" fill="#583689"/>
<path d="M21.28 13.68H9.12V16.72H21.28V13.68Z" fill="#DE002A"/>
</svg>
