<svg width="38" height="34" viewBox="0 0 38 34" fill="none" xmlns="http://www.w3.org/2000/svg">
<path d="M28.88 34H4.56C2.04592 34 0 31.9541 0 29.44V5.12C0 2.60592 2.04592 0.559998 4.56 0.559998H23.56V3.6H4.56C3.72248 3.6 3.04 4.28248 3.04 5.12V29.44C3.04 30.279 3.72248 30.96 4.56 30.96H28.88C29.7175 30.96 30.4 30.279 30.4 29.44V16.52H33.44V29.44C33.44 31.9556 31.3941 34 28.88 34Z" fill="#583689"/>
<path d="M19.76 20.7C19.3709 20.7 18.9818 20.551 18.6854 20.2546L11.8454 13.4146L13.9946 11.2654L19.76 17.0307L35.4054 1.38536L37.5547 3.53464L20.8346 20.2546C20.5382 20.5526 20.1491 20.7 19.76 20.7Z" fill="#DE002A"/>
</svg>
