<svg width="38" height="38" viewBox="0 0 38 38" fill="none" xmlns="http://www.w3.org/2000/svg">
<path d="M19 38C13.9278 38 9.158 36.0225 5.56776 32.4322L7.71704 30.283C10.7342 33.2986 14.7394 34.96 19 34.96C27.8008 34.96 34.96 27.8008 34.96 19C34.96 10.1992 27.8008 3.04 19 3.04C11.5718 3.04 5.016 8.2916 3.41392 15.5283L0.445358 14.8717C2.35448 6.25328 10.1582 0 19 0C29.4774 0 38 8.52416 38 19C38 29.4758 29.4774 38 19 38Z" fill="#583689"/>
<path d="M12.16 16.72H1.52C0.67944 16.72 0 16.0406 0 15.2V4.56H3.04V13.68H12.16V16.72Z" fill="#583689"/>
<path d="M29.64 20.52H19C18.1594 20.52 17.48 19.8406 17.48 19V8.36H20.52V17.48H29.64V20.52Z" fill="#DE002A"/>
</svg>
