<svg width="38" height="38" viewBox="0 0 38 38" fill="none" xmlns="http://www.w3.org/2000/svg">
<path d="M30.4 21.28H18.24C17.3994 21.28 16.72 20.599 16.72 19.76V7.60001H19.76V18.24H30.4V21.28Z" fill="#DE002A"/>
<path d="M19 38C8.52264 38 0 29.4774 0 19C0 8.52264 8.52264 0 19 0C29.4774 0 38 8.52416 38 19C38 29.4758 29.4758 38 19 38ZM19 3.04C10.1992 3.04 3.04 10.2007 3.04 19C3.04 27.7993 10.1992 34.96 19 34.96C27.8008 34.96 34.96 27.8008 34.96 19C34.96 10.1992 27.8008 3.04 19 3.04Z" fill="#583689"/>
</svg>
