<svg width="38" height="38" viewBox="0 0 38 38" fill="none" xmlns="http://www.w3.org/2000/svg">
<path d="M33.44 28.88H30.4V25.84H33.44C34.279 25.84 34.96 25.1575 34.96 24.32V13.68C34.96 12.8425 34.279 12.16 33.44 12.16H4.56C3.72096 12.16 3.04 12.8425 3.04 13.68V24.32C3.04 25.1575 3.72096 25.84 4.56 25.84H7.6V28.88H4.56C2.04592 28.88 0 26.8341 0 24.32V13.68C0 11.1659 2.04592 9.12 4.56 9.12H33.44C35.9541 9.12 38 11.1659 38 13.68V24.32C38 26.8341 35.9556 28.88 33.44 28.88Z" fill="#583689"/>
<path d="M27.36 38H10.64C8.12592 38 6.08 35.9541 6.08 33.44V21.28C6.08 20.441 6.75944 19.76 7.6 19.76H30.4C31.2406 19.76 31.92 20.441 31.92 21.28V33.44C31.92 35.9541 29.8756 38 27.36 38ZM9.12 22.8V33.44C9.12 34.2775 9.80096 34.96 10.64 34.96H27.36C28.199 34.96 28.88 34.2775 28.88 33.44V22.8H9.12Z" fill="#583689"/>
<path d="M25.84 25.84H12.16V28.88H25.84V25.84Z" fill="#DE002A"/>
<path d="M25.84 30.4H12.16V33.44H25.84V30.4Z" fill="#DE002A"/>
<path d="M31.92 10.64H28.88V4.56C28.88 3.72248 28.199 3.04 27.36 3.04H10.64C9.80096 3.04 9.12 3.72248 9.12 4.56V10.64H6.08V4.56C6.08 2.04592 8.12592 0 10.64 0H27.36C29.8741 0 31.92 2.04592 31.92 4.56V10.64Z" fill="#583689"/>
</svg>
