<svg width="38" height="38" viewBox="0 0 38 38" fill="none" xmlns="http://www.w3.org/2000/svg">
<g clip-path="url(#clip0_8_1027)">
<path d="M33.44 38H4.56C2.04592 38 0 35.9541 0 33.44V25.84H3.04V33.44C3.04 34.279 3.72096 34.96 4.56 34.96H33.44C34.279 34.96 34.96 34.279 34.96 33.44V25.84H38V33.44C38 35.9556 35.9541 38 33.44 38Z" fill="#583689"/>
<path d="M20.52 1.52H17.48V25.84H20.52V1.52Z" fill="#DE002A"/>
<path d="M24.0054 8.67464L19 3.66928L13.9946 8.67464L11.8454 6.52536L17.9254 0.445359C18.5197 -0.148961 19.4803 -0.148961 20.0746 0.445359L26.1546 6.52536L24.0054 8.67464Z" fill="#DE002A"/>
</g>
<defs>
<clipPath id="clip0_8_1027">
<rect width="38" height="38" fill="white"/>
</clipPath>
</defs>
</svg>
