<svg width="170" height="170" viewBox="0 0 170 170" fill="none" xmlns="http://www.w3.org/2000/svg">
<g clip-path="url(#clip0_23_133)">
<path d="M162.865 166.712C162.811 166.712 162.757 166.703 162.704 166.684C152.369 162.887 49.6425 164.68 34.2779 165.551C17.8256 166.489 2.73979 163.231 2.58985 163.199C2.33825 163.144 2.17947 162.896 2.23455 162.644C2.28963 162.392 2.53545 162.232 2.78909 162.289C2.93835 162.321 17.9075 165.542 34.2252 164.621C50.0726 163.722 152.326 161.879 163.025 165.808C163.267 165.897 163.391 166.165 163.302 166.407C163.233 166.595 163.054 166.712 162.865 166.712Z" fill="#251626"/>
<path d="M21.0935 159.48C11.7201 159.48 4.85344 158.979 2.45712 157.606C2.23374 157.478 2.15622 157.193 2.28474 156.97C2.41258 156.746 2.69716 156.669 2.92054 156.798C8.35578 159.913 38.9514 158.278 68.5412 156.696C87.4286 155.686 105.268 154.733 116.778 154.965C146.378 155.562 162.785 158.485 162.948 158.514C163.201 158.561 163.369 158.803 163.323 159.056C163.277 159.31 163.034 159.475 162.781 159.431C162.62 159.402 146.275 156.492 116.758 155.897C105.286 155.668 87.4602 156.617 68.5905 157.626C51.4209 158.544 33.9132 159.48 21.0935 159.48Z" fill="#251626"/>
<path d="M65.1969 155.673C64.7904 155.692 64.1943 155.719 63.4355 155.751C61.9156 155.815 59.7432 155.901 57.1331 155.989C51.9125 156.164 44.9434 156.344 37.946 156.365C30.9453 156.385 23.9292 156.245 18.6096 155.783C15.9463 155.551 13.7308 155.241 12.1611 154.836C11.3737 154.633 10.7768 154.413 10.3732 154.183C9.9525 153.944 9.84409 153.754 9.82589 153.656C9.78958 153.461 9.82162 153.13 9.98485 152.631C10.1438 152.146 10.4087 151.557 10.7736 150.873C11.5028 149.507 12.6036 147.816 13.9638 145.914C16.6822 142.111 20.4015 137.51 24.1582 133.06C27.9133 128.613 31.6989 124.324 34.5463 121.146C35.9699 119.558 37.1586 118.247 37.9913 117.334C38.3029 116.992 38.5647 116.706 38.7703 116.482L44.4995 130.334L26.7888 146.739L25.734 147.716L27.1674 147.604L62.209 144.873L65.1969 155.673Z" stroke="black"/>
<path d="M107.72 124.28L114.972 108.104L135.036 128.531L135.822 129.331L135.892 128.212L137.993 94.7069L142.319 94.4516C142.326 94.4947 142.333 94.5408 142.341 94.5899C142.401 94.9719 142.49 95.5329 142.601 96.2487C142.824 97.6802 143.138 99.7305 143.504 102.205C144.236 107.154 145.177 113.799 146.011 120.584C146.845 127.371 147.571 134.289 147.876 139.787C148.028 142.538 148.075 144.921 147.978 146.749C147.93 147.664 147.847 148.428 147.727 149.024C147.604 149.636 147.454 150.01 147.311 150.198C147.218 150.322 147.038 150.432 146.665 150.451C146.287 150.47 145.776 150.39 145.128 150.195C143.838 149.806 142.144 149.003 140.17 147.892C136.229 145.673 131.28 142.287 126.422 138.748C121.567 135.212 116.818 131.534 113.281 128.74C111.513 127.343 110.049 126.167 109.026 125.341C108.515 124.927 108.115 124.602 107.842 124.379C107.798 124.343 107.757 124.31 107.72 124.28Z" stroke="black"/>
<path d="M118.861 138.064L104.08 117.33L99.0366 100.263C99.1591 100.237 99.3032 100.208 99.4677 100.177C100.078 100.063 100.968 99.9267 102.077 99.8402C104.297 99.667 107.39 99.6942 110.876 100.496C117.777 102.084 126.271 106.72 132.595 118.992L118.861 138.064Z" stroke="black"/>
<path d="M114.691 102.204L114.977 101.794L114.691 102.205C114.946 102.383 115.204 102.729 115.433 103.3C115.66 103.865 115.841 104.604 115.976 105.504C116.245 107.304 116.317 109.678 116.236 112.44C116.075 117.959 115.309 124.948 114.357 131.825C113.405 138.698 112.268 145.444 111.369 150.472C110.92 152.987 110.53 155.071 110.252 156.526C110.114 157.254 110.003 157.825 109.927 158.213C109.912 158.288 109.899 158.356 109.887 158.417L59.1946 159.856L59.1793 159.717C59.1364 159.328 59.0736 158.757 58.9942 158.028C58.8353 156.572 58.6097 154.487 58.3428 151.976C57.8091 146.954 57.1104 140.226 56.4504 133.402C55.7903 126.576 55.1693 119.658 54.7907 114.253C54.6014 111.55 54.4731 109.232 54.4305 107.495C54.4092 106.626 54.4096 105.909 54.4336 105.366C54.4457 105.095 54.4634 104.873 54.486 104.701C54.5075 104.538 54.5304 104.444 54.5458 104.399C54.5527 104.391 54.5776 104.363 54.6408 104.318C54.7384 104.249 54.8889 104.168 55.1026 104.078C55.5291 103.899 56.1426 103.713 56.932 103.524C58.5066 103.147 60.7108 102.777 63.3572 102.432C68.6458 101.741 75.6513 101.152 82.8076 100.789C89.9642 100.425 97.2596 100.287 103.129 100.497C106.064 100.601 108.633 100.793 110.645 101.083C111.651 101.229 112.509 101.398 113.2 101.591C113.898 101.785 114.39 101.995 114.691 102.204Z" stroke="black"/>
<path d="M61.2281 104.191C61.3401 104.237 61.4287 104.279 61.4945 104.312L69.3112 130.147L38.6096 140.614L25.9905 124.456C38.9123 110.997 47.8906 106.018 53.5947 104.385C56.4641 103.564 58.5037 103.589 59.8052 103.803C60.457 103.911 60.9275 104.067 61.2281 104.191ZM61.6373 104.391C61.6381 104.392 61.6384 104.392 61.638 104.392L61.6373 104.391Z" fill="white" stroke="black"/>
<path d="M83.9359 84.9599L85.9344 99.6577L85.9917 100.079L86.4169 100.09L97.7516 100.382C97.7315 100.451 97.7096 100.525 97.6859 100.604C97.5265 101.135 97.2875 101.894 96.97 102.798C96.3342 104.607 95.3871 106.987 94.1391 109.287C92.8876 111.594 91.3521 113.786 89.553 115.25C87.7662 116.704 85.7514 117.419 83.4811 116.865C78.751 115.712 75.337 111.83 73.0859 108.144C71.9661 106.311 71.1483 104.55 70.6105 103.246C70.3423 102.596 70.1443 102.061 70.0136 101.689L78.2692 100.779L78.8336 100.717L78.7005 100.165L75.8038 88.1552L83.9359 84.9599Z" stroke="black"/>
<path d="M94.3866 21.2916C94.3866 21.2916 107.029 7.87148 95.2872 5.32726C83.5446 2.78304 82.832 11.3942 87.3962 10.807C91.9603 10.2199 89.8734 -0.935537 81.7185 2.00036C73.5636 4.93626 76.3037 13.9507 78.2607 11.4003C80.2177 8.85 76.4992 -3.09182 68.671 1.50906C60.8428 6.10994 61.0013 16.4827 64.7382 11.9814C68.4752 7.48014 62.6129 -3.67526 55.1716 2.78304C47.7304 9.24134 53.219 19.0269 55.1716 16.2868C57.1243 13.5468 50.8618 4.8822 45.7734 10.8781C40.6849 16.874 42.642 25.5909 46.3605 23.2874C50.0791 20.9839 43.1251 15.495 40.2416 22.0556C37.358 28.6162 46.8406 34.0318 50.1233 32.8897" fill="black"/>
<path d="M49.0748 33.5141C46.7985 33.5141 43.5763 31.9514 41.4857 29.6881C39.2542 27.2727 38.6606 24.4959 39.8152 21.8694C40.5078 20.2932 41.3939 19.434 42.2309 18.9743C42.2388 16.3988 43.1466 13.2552 45.4181 10.5787C47.0906 8.6084 49.1336 7.93112 51.1372 8.58834C51.5286 6.65068 52.552 4.44204 54.8667 2.4323C57.9199 -0.218005 61.2434 -0.332585 63.7523 2.1212C64.2609 2.61896 64.7124 3.21158 65.0905 3.86301C66.0085 2.83179 67.121 1.88082 68.4347 1.10902C71.4743 -0.678365 74.3548 -0.295185 76.5478 2.1858C77.0201 2.71994 77.4325 3.32174 77.7827 3.95686C78.6854 2.99568 79.922 2.15316 81.5604 1.56326C84.2101 0.608535 86.5952 0.987975 88.2737 2.62882C88.8116 3.1548 89.2526 3.80182 89.5787 4.50527C91.0556 4.30059 92.9569 4.34616 95.3855 4.87282C98.1987 5.48175 99.9266 6.7622 100.52 8.67605C102.086 13.7217 95.0265 21.2928 94.7252 21.612C94.5491 21.7994 94.2543 21.8079 94.0667 21.6321C93.8793 21.4556 93.8705 21.1605 94.0469 20.9732C94.1166 20.8987 101.036 13.4796 99.6301 8.95078C99.1429 7.38168 97.6482 6.31611 95.188 5.78266C92.98 5.30496 91.2559 5.24036 89.92 5.39131C90.3046 6.62721 90.3505 7.94879 89.9792 9.0589C89.5532 10.3302 88.6573 11.1156 87.4554 11.2706C86.2382 11.429 85.1964 10.9938 84.6694 10.1112C84.103 9.1609 84.2274 7.90867 84.9944 6.84209C85.3559 6.33889 86.3908 5.21043 88.6399 4.67868C88.3829 4.18159 88.0459 3.70934 87.622 3.29454C86.6251 2.32078 84.818 1.38068 81.876 2.44012C80.1545 3.05892 78.9972 3.92625 78.2206 4.83813C79.4001 7.48843 79.5704 10.459 78.6296 11.6847C78.0472 12.4429 77.4233 12.3372 77.1816 12.258C76.3312 11.9758 75.7464 10.7018 75.7267 9.08712C75.7097 7.71658 76.1198 6.14203 77.1425 4.72967C76.7933 4.04253 76.3629 3.38362 75.8488 2.80222C74.5296 1.30962 72.254 -0.0565046 68.9067 1.91108C67.53 2.72028 66.4189 3.70117 65.5393 4.73783C66.6569 7.22969 66.7524 10.2849 65.0966 12.2797C64.2572 13.2909 63.4952 13.704 62.8295 13.5102C62.5123 13.4174 61.9591 13.0906 61.817 11.9465C61.5939 10.1489 62.4446 7.22935 64.4489 4.63481C64.0814 3.93305 63.6234 3.29794 63.1001 2.78658C60.9428 0.676875 58.165 0.802675 55.4767 3.13609C53.2748 5.04621 52.3456 7.14946 52.0155 8.96539C52.3504 9.1439 52.6825 9.36047 53.0103 9.61513C55.2376 11.3488 56.8326 14.759 55.5508 16.5583C55.1826 17.0744 54.6671 17.3002 54.1054 17.2043C52.9862 17.0067 51.8546 15.5022 51.2896 13.4612C51.1002 12.7778 50.7959 11.3179 50.991 9.52401C49.6664 9.03271 47.911 9.07895 46.128 11.1805C44.1326 13.5323 43.2635 16.306 43.1639 18.6034C43.7035 18.464 44.1723 18.465 44.4841 18.4932C46.0767 18.6387 47.5162 19.7573 47.8318 21.0952C48.0711 22.1101 47.6237 23.0536 46.605 23.6843C45.4419 24.4051 44.2907 24.2549 43.4451 23.2746C42.8375 22.5695 42.42 21.4244 42.2806 20.0412C41.7162 20.4635 41.148 21.1496 40.6669 22.2438C39.3909 25.148 40.7795 27.5505 42.1691 29.055C44.5746 31.6587 48.3377 33.0204 49.9693 32.4506C50.2111 32.3686 50.478 32.4941 50.5623 32.7382C50.647 32.9813 50.5188 33.2468 50.275 33.3315C49.9217 33.4549 49.5158 33.5141 49.0748 33.5141ZM43.169 19.5686C43.2418 20.9174 43.5991 22.0251 44.1523 22.6667C44.6888 23.291 45.3494 23.3658 46.1154 22.8935C46.791 22.475 47.0712 21.9269 46.9253 21.3108C46.7016 20.3605 45.5922 19.5306 44.3998 19.4224C44.072 19.3905 43.6413 19.4078 43.169 19.5686ZM51.8883 9.96805C51.7778 11.446 52.028 12.6347 52.1885 13.2134C52.6999 15.0616 53.6413 16.1765 54.2676 16.2866C54.4063 16.3131 54.5889 16.3029 54.7922 16.018C55.6626 14.7957 54.475 11.9363 52.4384 10.3509C52.2752 10.2241 52.0909 10.0928 51.8883 9.96805ZM64.877 5.58784C63.1579 7.98959 62.5799 10.5206 62.7425 11.833C62.8074 12.3552 62.9713 12.582 63.092 12.6167C63.2436 12.6704 63.6904 12.5167 64.3802 11.6857C65.6828 10.1166 65.6712 7.68292 64.877 5.58784ZM77.5862 5.72248C76.7447 7.12498 76.6519 8.4809 76.6593 9.07691C76.6757 10.4039 77.1438 11.2638 77.476 11.375C77.6215 11.4195 77.7803 11.2611 77.8905 11.1173C78.527 10.2894 78.461 7.97327 77.5862 5.72248ZM89.002 5.54227C86.9664 5.98088 86.0637 6.95191 85.7516 7.3861C85.2046 8.14701 85.0971 9.00891 85.4704 9.63417C85.8057 10.1965 86.487 10.456 87.3367 10.3468C88.3982 10.2101 88.8793 9.41045 89.0959 8.76411C89.3859 7.89677 89.3838 6.70099 89.002 5.54227Z" fill="white"/>
<path d="M49.9835 30.7532C49.9835 30.7532 71.6041 8.7552 94.3871 21.2913C111.433 30.6709 104.661 91.1637 75.9564 87.7773C55.6098 85.3769 40.8752 43.4491 49.9835 30.7532Z" fill="white"/>
<path d="M49.9838 30.7566C49.9838 30.7566 52.0823 70.1987 61.7373 73.9037C79.0647 80.553 55.9158 57.8465 79.9694 59.268C95.3932 60.1796 81.6086 73.106 94.7666 69.8417C104.663 67.3869 97.2275 24.724 95.9515 22.3767C94.6751 20.0293 112.536 30.5761 104.249 57.2913C101.47 66.2513 123.638 72.1078 106.778 85.8084C76.8489 110.131 35.288 88.0194 45.8232 74.5027C60.3174 55.9071 23.8038 54.2513 49.9838 30.7566Z" fill="black"/>
<path d="M85.9974 59.1561C85.9583 59.1561 85.9182 59.1533 85.8774 59.1479C83.87 58.8613 77.3444 57.2412 77.0677 57.1722C76.8178 57.1103 76.6658 56.8573 76.7277 56.6071C76.7895 56.3579 77.0425 56.2066 77.2924 56.2678C77.3573 56.2841 83.6157 57.8375 85.7999 58.1935C85.7448 56.7591 82.5437 50.2147 79.2977 44.38C79.1726 44.1553 79.2535 43.8714 79.4783 43.7466C79.7033 43.6211 79.9869 43.7021 80.112 43.9268C82.9061 48.9486 87.4601 57.5672 86.5713 58.8606C86.4398 59.0524 86.2344 59.1561 85.9974 59.1561Z" fill="#251626"/>
<path d="M76.7573 75.0226C76.4778 75.0226 76.2109 74.9298 75.9702 74.7458C73.9257 73.1832 74.1066 64.1049 74.1342 63.0747C74.141 62.8169 74.3725 62.6116 74.6125 62.6214C74.8696 62.6286 75.0729 62.8424 75.0661 63.1002C74.9678 66.8068 75.2799 73.0458 76.5362 74.005C76.6488 74.0913 76.7477 74.1087 76.8831 74.0706C78.9727 73.4409 82.592 66.8616 83.8102 64.3789C83.9245 64.1487 84.2019 64.0559 84.4338 64.1661C84.665 64.28 84.7602 64.5591 84.6466 64.7903C84.1801 65.7406 80.007 74.1022 77.1517 74.9624C77.0187 75.0025 76.8865 75.0226 76.7573 75.0226Z" fill="white"/>
<path d="M67.9111 48.6818C67.9074 48.6818 67.904 48.6818 67.9006 48.6818C65.8025 48.6634 64.5982 42.626 64.2793 40.7757C64.2357 40.5218 64.4057 40.2817 64.6594 40.2368C64.9123 40.195 65.1541 40.3633 65.1976 40.6173C65.7909 44.0557 67.022 47.7417 67.9088 47.7498C67.9098 47.7498 67.9105 47.7498 67.9115 47.7498C68.7455 47.7498 69.4442 44.052 69.5499 40.7295C69.5581 40.4718 69.7512 40.2753 70.0304 40.278C70.2874 40.2861 70.489 40.5017 70.4809 40.7584C70.422 42.6199 70.0616 48.6818 67.9111 48.6818Z" fill="#251626"/>
<path d="M89.8764 48.4615C89.8733 48.4615 89.8699 48.4615 89.8665 48.4615C87.8255 48.4425 85.5512 42.453 84.9028 40.6184C84.8168 40.3753 84.9443 40.1087 85.1867 40.0231C85.4302 39.9367 85.6954 40.0649 85.7811 40.307C87.0064 43.7736 88.9199 47.5204 89.8747 47.5296C89.8757 47.5296 89.8764 47.5296 89.8774 47.5296C90.7111 47.5296 91.4101 43.8317 91.5158 40.5093C91.5237 40.2515 91.7059 40.0441 91.9963 40.0577C92.2533 40.0659 92.4549 40.2815 92.4468 40.5382C92.3876 42.3993 92.0272 48.4615 89.8764 48.4615Z" fill="#251626"/>
<path d="M47.2537 52.4057C47.2537 55.3264 44.886 57.6942 41.9653 57.6942C39.0445 57.6942 36.6768 55.3264 36.6768 52.4057C36.6768 49.4849 39.0445 47.1172 41.9653 47.1172C44.886 47.1172 47.2537 49.4849 47.2537 52.4057Z" fill="white" stroke="black"/>
<path d="M113.267 45.4649C113.267 48.1703 111.074 50.3635 108.368 50.3635C105.663 50.3635 103.47 48.1703 103.47 45.4649C103.47 42.7595 105.663 40.5664 108.368 40.5664C111.074 40.5664 113.267 42.7595 113.267 45.4649Z" fill="white" stroke="black"/>
<path d="M44.0047 55.7452C43.9982 55.7452 43.9921 55.7452 43.9856 55.7452C43.7286 55.7344 43.5283 55.5178 43.5389 55.2601C43.597 53.8086 43.2516 52.7791 42.5117 52.2004C41.2197 51.192 39.0852 51.7972 39.0638 51.8019C38.8186 51.8764 38.5585 51.7329 38.4858 51.4861C38.4134 51.2396 38.5545 50.9808 38.801 50.9081C38.9057 50.8771 41.4088 50.1601 43.0816 51.4633C44.0737 52.2368 44.5405 53.5274 44.4694 55.2985C44.4599 55.5484 44.2532 55.7452 44.0047 55.7452Z" fill="#251626"/>
<path d="M107.615 49.8078C107.42 49.8078 107.238 49.6841 107.173 49.4876C106.421 47.2085 106.467 45.5068 107.31 44.4301C108.277 43.1952 109.893 43.306 109.963 43.3081C110.22 43.3281 110.412 43.5518 110.392 43.8085C110.372 44.0642 110.141 44.2536 109.895 44.238C109.881 44.239 108.694 44.1669 108.039 45.0108C107.414 45.8173 107.421 47.2643 108.058 49.1962C108.139 49.44 108.006 49.7041 107.762 49.784C107.713 49.8004 107.664 49.8078 107.615 49.8078Z" fill="#251626"/>
<path d="M65.7093 56.4401C65.7093 59.2115 63.4625 61.4583 60.6911 61.4583C57.9196 61.4583 55.6729 59.2115 55.6729 56.4401C55.6729 53.6686 57.9196 51.4219 60.6911 51.4219C63.4625 51.4219 65.7093 53.6686 65.7093 56.4401Z" stroke="black"/>
<path d="M97.9329 54.1002C97.9329 56.8717 95.6862 59.1184 92.9147 59.1184C90.1432 59.1184 87.8965 56.8717 87.8965 54.1002C87.8965 51.3288 90.1432 49.082 92.9147 49.082C95.6862 49.082 97.9329 51.3288 97.9329 54.1002Z" stroke="black"/>
<path d="M71.721 94.3902C67.3458 94.3902 65.0685 91.8657 64.0526 89.3939C62.8803 90.0572 61.0722 90.5424 58.2991 90.3795C52.7959 90.049 50.4822 85.9055 50.152 82.1376C50.152 82.1359 50.152 82.1349 50.152 82.1339C49.3133 82.1947 48.4265 81.9955 47.531 81.5222C45.6297 80.5175 44.8559 78.4268 45.3519 75.6347C45.6011 74.2295 46.1482 72.7743 46.8449 71.4847C45.169 70.8139 44.7022 69.5362 44.6379 68.4706C44.5424 66.8906 45.3104 64.9839 46.323 63.3577C45.7368 63.0374 45.324 62.5777 45.0908 61.9824C44.2371 59.8064 46.2393 56.6264 46.3253 56.4927C46.4637 56.2762 46.7517 56.2133 46.9683 56.3499C47.1852 56.4883 47.2491 56.7766 47.1111 56.9932C46.5987 57.7987 45.3934 60.2042 45.9588 61.6437C46.119 62.0507 46.4097 62.3591 46.8415 62.5774C47.8968 61.0902 49.0895 59.9672 49.8365 59.7789C50.438 59.6286 50.9623 59.8033 51.2764 60.2603C51.7058 60.8845 51.6222 61.8675 51.0724 62.6522C50.7052 63.1754 49.5972 64.3277 47.2185 63.7042C47.2161 63.7042 47.2141 63.7031 47.2117 63.7024C46.2567 65.1967 45.4811 66.9807 45.5675 68.4148C45.6345 69.5253 46.2101 70.2706 47.3185 70.6701C48.4374 68.8817 49.8154 67.5594 50.9752 67.4027C52.09 67.248 53.2287 67.7474 53.8019 68.6386C54.2293 69.304 54.2552 70.0645 53.871 70.6745C53.4585 71.3269 52.2022 72.3517 48.4146 71.8713C48.1848 71.8421 47.9682 71.805 47.7649 71.7611C47.0788 72.9861 46.5157 74.4077 46.2686 75.7973C45.9724 77.4673 46.0261 79.6726 47.9655 80.6973C48.7937 81.1353 49.5071 81.2563 50.1092 81.1999C50.1027 78.7162 50.967 76.735 52.2689 76.4235C52.9618 76.258 53.5299 76.4671 53.8305 76.9961C54.3735 77.9481 53.8798 79.6899 52.7292 80.8769C52.2352 81.3875 51.6749 81.7452 51.0711 81.9482C51.0738 81.9836 51.0768 82.0199 51.0796 82.0556C51.3757 85.4366 53.4426 89.1545 58.3539 89.4493C61.0705 89.6084 62.7249 89.1242 63.7367 88.502C63.5562 87.8968 63.4481 87.3134 63.3995 86.7939C63.2271 84.9473 63.6902 83.6615 64.5803 83.5166C65.0668 83.433 65.5381 83.6669 65.874 84.1463C66.3921 84.8862 66.6057 86.2995 65.8488 87.6531C65.6486 88.0108 65.3334 88.4395 64.8407 88.8509C65.7281 91.1469 67.8331 93.5851 71.9872 93.4552C74.3396 93.396 76.2538 92.495 77.688 91.2873C77.3432 91.0517 77.0709 90.8103 76.8594 90.5893C75.7632 89.4398 75.3671 87.8727 75.8006 86.3974C76.228 84.9412 77.3769 83.8556 78.8746 83.4915C80.1659 83.181 80.8622 83.6261 81.2189 84.0586C81.9448 84.9358 81.8931 86.5841 81.0852 88.3579C80.6779 89.2524 80.0649 90.2007 79.2564 91.0745C80.7707 91.6861 83.2262 91.9891 87.141 91.0381C91.1812 90.0579 93.2086 88.6238 94.2201 87.3685C92.7547 86.8551 91.6875 85.9296 91.3835 84.8511C91.1186 83.9127 91.4603 82.9628 92.3447 82.1764C92.988 81.6038 93.8237 81.4963 94.5785 81.8952C95.6655 82.4657 96.2989 83.8865 96.1183 85.3509C96.0741 85.7113 95.9606 86.2081 95.6876 86.7779C96.9881 86.9755 100.768 87.1356 103.709 83.0995C104.429 82.1111 104.981 81.223 105.394 80.4318C104.484 79.9714 103.702 79.3452 103.17 78.6845C102.152 77.4187 102.109 76.1407 103.059 75.3491C104.222 74.3798 105.712 74.2815 106.602 75.1135C107.029 75.514 107.996 76.8482 106.657 79.9507C108.048 80.4175 109.618 80.3968 110.86 79.4339C112.455 78.1963 112.707 75.0299 111.471 71.7346C110.834 70.0356 109.7 68.186 108.174 67.0576C107.99 67.6747 107.645 68.1578 107.092 68.4189C105.591 69.1271 104.022 68.6518 103.199 67.9093C102.625 67.3904 102.397 66.7516 102.592 66.1991C102.757 65.7312 103.278 65.156 104.825 65.0679C105.759 65.0132 106.626 65.1954 107.418 65.5439C107.39 64.581 107.133 63.3635 106.646 62.0511C106.36 61.2782 106.025 60.5649 105.668 59.9424C105.045 60.2882 104.306 60.3684 103.535 60.1491C102.355 59.8142 101.433 58.8704 101.436 57.9986C101.437 57.6974 101.563 56.963 102.712 56.6454C103.808 56.3496 104.923 57.1816 105.875 58.5185C105.906 58.4739 105.937 58.4267 105.967 58.3774C107.629 55.6591 103.985 52.1843 103.949 52.1486C103.761 51.9728 103.752 51.678 103.928 51.4907C104.104 51.3033 104.399 51.2941 104.586 51.4689C104.76 51.6328 108.82 55.4989 106.763 58.8636C106.655 59.04 106.536 59.2012 106.407 59.346C106.832 60.075 107.211 60.893 107.521 61.7277C108.036 63.1183 108.406 64.7275 108.338 66.0423C110.226 67.2629 111.602 69.427 112.344 71.4082C113.508 74.5134 113.677 78.4278 111.432 80.1697C109.845 81.4028 107.917 81.3991 106.253 80.8031C105.823 81.6378 105.24 82.5823 104.463 83.6482C102.182 86.7789 98.7812 88.2841 95.3775 87.6718C95.3112 87.6599 95.2455 87.6473 95.1799 87.6337C94.1218 89.1161 91.92 90.8392 87.3623 91.9456C82.942 93.0169 80.2029 92.5545 78.5468 91.7762C76.9427 93.2168 74.7466 94.3191 72.0123 94.3881C71.9137 94.3891 71.8165 94.3902 71.721 94.3902ZM79.6821 84.318C79.507 84.318 79.3111 84.3445 79.0956 84.3972C77.9253 84.6811 77.0277 85.5267 76.6955 86.6589C76.3575 87.8112 76.671 89.0396 77.5346 89.9454C77.7441 90.1647 78.0232 90.4057 78.3904 90.6352C79.2173 89.789 79.8364 88.8516 80.2373 87.9713C80.8765 86.5678 80.9822 85.2336 80.5008 84.6512C80.3182 84.4292 80.0438 84.318 79.6821 84.318ZM64.7649 84.4329C64.7537 84.4329 64.7418 84.4339 64.7299 84.4356C64.5633 84.4628 64.1869 85.203 64.3277 86.7072C64.3613 87.0666 64.4269 87.4606 64.5306 87.8714C64.7591 87.6357 64.921 87.4025 65.0359 87.1978C65.5714 86.2393 65.4792 85.2064 65.111 84.6804C65.044 84.5849 64.9138 84.4329 64.7649 84.4329ZM93.6472 82.5881C93.4361 82.5881 93.2018 82.6609 92.9638 82.873C92.3437 83.4245 92.1138 84.0052 92.2808 84.5975C92.5143 85.4257 93.4708 86.1673 94.757 86.5634C95.0412 86.0299 95.1527 85.5658 95.1939 85.2364C95.3431 84.0232 94.7794 83.0522 94.1453 82.719C94.0083 82.6472 93.8376 82.5881 93.6472 82.5881ZM52.716 77.2994C52.6531 77.2994 52.5776 77.3086 52.4858 77.3303C51.7701 77.5013 51.0962 78.963 51.0452 80.9523C51.4865 80.7531 51.8252 80.4719 52.0605 80.2288C53.0369 79.2204 53.2817 77.9144 53.0216 77.4575C52.9917 77.4061 52.9312 77.2994 52.716 77.2994ZM105.104 75.4777C104.642 75.4777 104.12 75.6779 103.656 76.0638C102.901 76.6935 103.572 77.6975 103.897 78.0997C104.356 78.6703 105.026 79.2 105.798 79.5906C106.676 77.5731 106.53 76.3226 105.965 75.7939C105.738 75.5814 105.437 75.4777 105.104 75.4777ZM48.281 70.9108C48.363 70.9244 48.4463 70.9363 48.5323 70.9472C52.0285 71.3932 52.8986 70.4701 53.0828 70.1771C53.3419 69.7674 53.1532 69.3536 53.0182 69.1431C52.701 68.6498 51.985 68.2122 51.1006 68.3258C50.3156 68.4325 49.2344 69.46 48.281 70.9108ZM105.145 65.9896C105.057 65.9896 104.969 65.9923 104.878 65.9968C103.955 66.0495 103.547 66.2953 103.472 66.5081C103.408 66.6873 103.547 66.9651 103.824 67.2153C104.425 67.7586 105.578 68.1007 106.694 67.5747C107.024 67.419 107.242 67.0559 107.347 66.538C106.673 66.1919 105.937 65.9896 105.145 65.9896ZM47.7792 62.8762C48.9063 63.0901 49.8175 62.8208 50.3091 62.1174C50.6563 61.6223 50.6828 61.0426 50.5084 60.7897C50.4733 60.7387 50.3829 60.6023 50.0636 60.6839C49.5723 60.8067 48.6567 61.6822 47.7792 62.8762ZM103.154 57.5168C103.087 57.5168 103.022 57.526 102.959 57.5433C102.69 57.6171 102.369 57.7572 102.368 58.001C102.367 58.4005 102.974 59.0203 103.789 59.2505C104.127 59.3477 104.657 59.4161 105.171 59.1522C104.466 58.14 103.73 57.5168 103.154 57.5168Z" fill="white"/>
<path d="M42.6873 162.4L32.4639 111.448L130.974 108.113L127.411 159.995L42.6873 162.4Z" fill="black"/>
<path d="M81.8557 134.288L85.1955 128.18L87.2797 134.479L94.4143 135.486L88.0077 138.681L89.2031 146.592L84.5424 139.821L77.7431 144.974L80.3288 138.075L74.0684 135.048L81.8557 134.288Z" fill="white"/>
<path d="M137.892 81.9563C138.323 82.2112 138.323 82.2112 138.323 82.2111L138.323 82.2108L138.324 82.2092L138.328 82.2026L138.343 82.1765L138.404 82.0742C138.458 81.9846 138.536 81.8531 138.637 81.6863C138.837 81.3526 139.125 80.8774 139.472 80.3119C140.167 79.1806 141.099 77.6903 142.049 76.2504C143.002 74.8063 143.963 73.4283 144.72 72.5132C144.986 72.1913 145.212 71.9438 145.394 71.7732C145.388 71.8659 145.378 71.9705 145.362 72.087C145.306 72.5018 145.192 73.0275 145.034 73.632C144.717 74.839 144.234 76.3121 143.728 77.7467C143.223 79.1791 142.698 80.5637 142.3 81.5909C142.1 82.1043 141.932 82.528 141.815 82.8231C141.756 82.9706 141.709 83.086 141.678 83.1644L141.642 83.2536L141.632 83.2763L141.63 83.2819L141.63 83.2833L141.629 83.2836L142.092 83.4724M137.892 81.9563L137.396 81.897L137.396 81.8968L137.396 81.8958L137.397 81.8917L137.398 81.8749L137.406 81.8078C137.413 81.7488 137.423 81.6617 137.435 81.5503C137.459 81.3275 137.492 81.0077 137.527 80.6208C137.599 79.8463 137.681 78.8062 137.724 77.7394C137.768 76.669 137.772 75.5878 137.69 74.7252C137.65 74.2927 137.589 73.9338 137.51 73.6659C137.479 73.5624 137.449 73.4838 137.421 73.4249C137.362 73.4972 137.29 73.6001 137.205 73.7413C136.905 74.2403 136.558 75.0349 136.184 76.0217C135.472 77.9048 134.705 80.3782 134.034 82.5428C134.005 82.6353 133.977 82.7272 133.948 82.8184C133.845 83.1511 133.703 84.0496 133.682 85.2344C133.662 86.4077 133.762 87.8164 134.118 89.1665C134.474 90.5188 135.076 91.7802 136.037 92.6989C136.986 93.6067 138.32 94.2148 140.218 94.2111C141.298 94.209 142.671 93.5324 144.173 92.3671C145.655 91.2185 147.18 89.6606 148.551 88.0404C149.92 86.4216 151.123 84.7557 151.96 83.4011C152.379 82.7228 152.701 82.132 152.907 81.6701C152.999 81.4647 153.063 81.2932 153.104 81.1564C152.941 81.2202 152.724 81.3295 152.453 81.4914C151.681 81.9526 150.66 82.7253 149.629 83.5658C148.602 84.4021 147.584 85.2899 146.821 85.9696C146.44 86.3092 146.123 86.5964 145.902 86.7984C145.791 86.8995 145.704 86.9792 145.645 87.0336L145.578 87.0956L145.561 87.1114L145.557 87.1153L145.556 87.1163L145.555 87.1165L145.215 86.7503M137.892 81.9563L137.396 81.897L138.323 82.2112L137.892 81.9563ZM142.092 83.4724L141.629 83.2837L142.496 83.7679L142.092 83.4724ZM142.092 83.4724L142.496 83.7679L142.496 83.7676L142.497 83.7663L142.501 83.7609L142.517 83.7394L142.579 83.655C142.634 83.581 142.714 83.4724 142.817 83.3345C143.023 83.0588 143.318 82.666 143.675 82.1986C144.39 81.2634 145.351 80.0319 146.341 78.8428C147.333 77.6496 148.341 76.5148 149.15 75.7635C149.557 75.3859 149.885 75.133 150.118 75.0099C150.114 75.1016 150.1 75.2188 150.073 75.3635C149.999 75.7454 149.844 76.2473 149.621 76.8394C149.176 78.0194 148.493 79.4841 147.773 80.9217C147.055 82.3564 146.307 83.7517 145.738 84.7891C145.453 85.3076 145.214 85.7362 145.046 86.0349C144.962 86.1843 144.895 86.3012 144.85 86.3806L144.799 86.471L144.786 86.494L144.782 86.4997L144.782 86.5011L144.781 86.5014L145.215 86.7503M145.215 86.7503L144.781 86.5015L145.555 87.1165L145.215 86.7503ZM137.551 73.2951C137.551 73.2951 137.551 73.2954 137.55 73.2959L137.551 73.2951ZM145.374 71.358L145.374 71.3581L145.374 71.358Z" stroke="black"/>
<path d="M140.79 91.7475C140.771 91.7475 140.753 91.7465 140.735 91.7438C140.479 91.7139 140.296 91.4827 140.326 91.227C140.63 88.6386 140.647 84.2594 139.398 83.5267C139.031 83.3118 138.491 83.4576 137.794 83.9608C137.586 84.1118 137.294 84.0656 137.143 83.8582C136.992 83.6497 137.039 83.3584 137.247 83.2074C138.27 82.4655 139.153 82.3037 139.87 82.7232C142.048 83.9999 141.339 90.5891 141.252 91.3365C141.224 91.5728 141.022 91.7475 140.79 91.7475Z" fill="#251626"/>
<path d="M139.241 117.358C139.086 117.358 138.934 117.28 138.846 117.14C138.337 116.332 138.667 113.925 138.78 113.205C138.82 112.951 139.055 112.779 139.313 112.818C139.567 112.858 139.74 113.096 139.701 113.351C139.494 114.664 139.419 116.3 139.635 116.643C139.772 116.861 139.706 117.149 139.489 117.286C139.411 117.335 139.325 117.358 139.241 117.358Z" fill="#251626"/>
<path d="M29.0734 151.126C28.9425 151.126 28.8116 151.07 28.7198 150.963C28.5522 150.768 28.5746 150.473 28.7698 150.306C29.4947 149.684 31.9243 149.662 32.6512 149.664C32.909 149.667 33.1153 149.877 33.113 150.135C33.1106 150.391 32.911 150.642 32.6427 150.596C31.3076 150.592 29.6841 150.749 29.3764 151.014C29.2886 151.088 29.1809 151.126 29.0734 151.126Z" fill="#251626"/>
<path d="M34.2513 151.024C34.1204 151.024 33.9895 150.969 33.8974 150.861C33.7297 150.665 33.7525 150.372 33.9484 150.204C34.6729 149.584 37.1076 149.568 37.8295 149.562C38.0865 149.564 38.2936 149.775 38.2912 150.032C38.2888 150.29 38.0447 150.469 37.821 150.494C36.4827 150.489 34.8623 150.648 34.5542 150.912C34.4665 150.988 34.3587 151.024 34.2513 151.024Z" fill="#251626"/>
<path d="M32.4641 154.059C32.3332 154.059 32.2023 154.004 32.1105 153.896C31.9428 153.702 31.9653 153.408 32.1604 153.239C32.885 152.618 35.3139 152.598 36.0419 152.598C36.2996 152.6 36.506 152.81 36.5036 153.068C36.5012 153.324 36.2928 153.53 36.0378 153.53C35.9831 153.52 35.946 153.529 35.8998 153.529C34.5976 153.529 33.0648 153.691 32.7673 153.947C32.68 154.022 32.5718 154.059 32.4641 154.059Z" fill="#251626"/>
<path d="M139.241 110.631C139.086 110.631 138.934 110.553 138.846 110.413C138.337 109.605 138.667 107.198 138.78 106.478C138.82 106.224 139.055 106.054 139.313 106.091C139.567 106.131 139.74 106.369 139.701 106.624C139.494 107.937 139.419 109.573 139.635 109.916C139.772 110.134 139.706 110.422 139.489 110.559C139.411 110.608 139.325 110.631 139.241 110.631Z" fill="#251626"/>
<path d="M142.327 115.057C142.172 115.057 142.02 114.979 141.932 114.839C141.424 114.031 141.753 111.624 141.866 110.904C141.906 110.65 142.143 110.479 142.398 110.517C142.653 110.557 142.826 110.795 142.787 111.049C142.581 112.363 142.504 113.999 142.721 114.342C142.858 114.56 142.792 114.848 142.574 114.984C142.497 115.034 142.411 115.057 142.327 115.057Z" fill="#251626"/>
<path d="M142.529 121.631C142.374 121.631 142.223 121.553 142.134 121.413C141.625 120.605 141.955 118.198 142.068 117.479C142.108 117.225 142.345 117.054 142.601 117.091C142.855 117.131 143.028 117.37 142.989 117.625C142.782 118.937 142.707 120.573 142.923 120.916C143.06 121.134 142.994 121.422 142.777 121.559C142.7 121.608 142.614 121.631 142.529 121.631Z" fill="#251626"/>
<path d="M139.14 123.952C138.985 123.952 138.834 123.874 138.745 123.734C138.237 122.926 138.566 120.519 138.679 119.8C138.719 119.546 138.957 119.372 139.212 119.412C139.466 119.452 139.64 119.69 139.6 119.945C139.393 121.258 139.318 122.894 139.534 123.237C139.671 123.455 139.606 123.743 139.388 123.88C139.311 123.929 139.225 123.952 139.14 123.952Z" fill="#251626"/>
<path d="M142.124 107.174C141.97 107.174 141.818 107.096 141.729 106.956C141.221 106.148 141.551 103.741 141.663 103.022C141.704 102.768 141.94 102.596 142.196 102.634C142.451 102.674 142.624 102.913 142.584 103.167C142.378 104.48 142.302 106.116 142.519 106.459C142.656 106.678 142.59 106.965 142.372 107.102C142.295 107.151 142.209 107.174 142.124 107.174Z" fill="#251626"/>
<path d="M133.236 61.779L133.276 61.4818L133.033 61.3062C127.354 57.2063 125.932 50.8378 127.344 44.8045C128.759 38.7538 133.014 33.1172 138.579 30.5865C145.25 27.5529 151.734 29.9352 156.627 33.1684C159.067 34.7806 161.086 36.5889 162.495 37.9961C163.199 38.6991 163.75 39.3004 164.124 39.7249C164.31 39.9371 164.453 40.105 164.548 40.2191C164.596 40.2761 164.631 40.3198 164.655 40.3488L164.681 40.3811L164.682 40.3817C168.011 45.0258 168.245 52.2768 164.756 57.835C161.295 63.3494 154.109 67.2655 142.457 65.0866C141.22 64.8552 140.081 64.5561 139.002 64.2159L138.774 64.1439L138.575 64.2767L132.33 68.4382L133.236 61.779Z" stroke="black"/>
<path d="M138.283 49.6705C136.724 49.6705 135.456 48.402 135.456 46.8431C135.456 45.2842 136.724 44.0156 138.283 44.0156C139.843 44.0156 141.111 45.2842 141.111 46.8431C141.111 48.4016 139.843 49.6705 138.283 49.6705ZM138.283 44.8527C137.186 44.8527 136.293 45.7452 136.293 46.8431C136.293 47.9409 137.186 48.8334 138.283 48.8334C139.381 48.8334 140.274 47.9409 140.274 46.8431C140.274 45.7452 139.381 44.8527 138.283 44.8527Z" fill="#241726"/>
<path d="M147.057 51.6822C145.498 51.6822 144.229 50.4137 144.229 48.8548C144.229 47.2959 145.498 46.0273 147.057 46.0273C148.616 46.0273 149.884 47.2959 149.884 48.8548C149.884 50.4137 148.616 51.6822 147.057 51.6822ZM147.057 46.8644C145.959 46.8644 145.067 47.7569 145.067 48.8548C145.067 49.9526 145.96 50.8451 147.057 50.8451C148.154 50.8451 149.047 49.9526 149.047 48.8548C149.047 47.7569 148.154 46.8644 147.057 46.8644Z" fill="#241726"/>
<path d="M157.618 54.4166C156.059 54.4166 154.791 53.1481 154.791 51.5892C154.791 50.0303 156.059 48.7617 157.618 48.7617C159.178 48.7617 160.446 50.0303 160.446 51.5892C160.446 53.1481 159.178 54.4166 157.618 54.4166ZM157.618 49.5988C156.521 49.5988 155.628 50.4913 155.628 51.5892C155.628 52.687 156.521 53.5795 157.618 53.5795C158.716 53.5795 159.609 52.687 159.609 51.5892C159.609 50.4913 158.716 49.5988 157.618 49.5988Z" fill="#241726"/>
</g>
<defs>
<clipPath id="clip0_23_133">
<rect width="170" height="170" fill="white"/>
</clipPath>
</defs>
</svg>
