<svg width="920" height="261" viewBox="0 0 920 261" fill="none" xmlns="http://www.w3.org/2000/svg">
<path d="M16.1855 233.109C15.5969 233.109 15.0956 232.949 14.6816 232.629C14.2675 232.306 13.9511 231.839 13.7323 231.227C13.5136 230.612 13.4042 229.87 13.4042 229C13.4042 228.135 13.5136 227.397 13.7323 226.785C13.9537 226.171 14.2714 225.702 14.6855 225.379C15.1021 225.053 15.6021 224.891 16.1855 224.891C16.7688 224.891 17.2675 225.053 17.6816 225.379C18.0982 225.702 18.4159 226.171 18.6347 226.785C18.856 227.397 18.9667 228.135 18.9667 229C18.9667 229.87 18.8573 230.612 18.6386 231.227C18.4198 231.839 18.1034 232.306 17.6894 232.629C17.2753 232.949 16.774 233.109 16.1855 233.109ZM16.1855 232.25C16.7688 232.25 17.2219 231.969 17.5448 231.406C17.8678 230.844 18.0292 230.042 18.0292 229C18.0292 228.307 17.955 227.717 17.8066 227.23C17.6607 226.743 17.4498 226.372 17.1737 226.117C16.9003 225.862 16.5709 225.734 16.1855 225.734C15.6073 225.734 15.1555 226.02 14.83 226.59C14.5045 227.158 14.3417 227.961 14.3417 229C14.3417 229.693 14.4146 230.281 14.5605 230.766C14.7063 231.25 14.9159 231.618 15.1894 231.871C15.4654 232.124 15.7974 232.25 16.1855 232.25Z" fill="#666666"/>
<rect x="31.6135" y="228" width="887.299" height="2" fill="#E8E8E8"/>
<path d="M10.2711 159.109C9.81274 159.109 9.39998 159.018 9.03279 158.836C8.6656 158.654 8.37133 158.404 8.14998 158.086C7.92862 157.768 7.80753 157.406 7.78669 157H8.72419C8.76065 157.362 8.92472 157.661 9.21638 157.898C9.51065 158.133 9.86222 158.25 10.2711 158.25C10.5992 158.25 10.8909 158.173 11.1461 158.02C11.4039 157.866 11.6057 157.655 11.7515 157.387C11.9 157.116 11.9742 156.81 11.9742 156.469C11.9742 156.12 11.8974 155.809 11.7437 155.535C11.5927 155.259 11.3844 155.042 11.1187 154.883C10.8531 154.724 10.5497 154.643 10.2086 154.641C9.96378 154.638 9.71248 154.676 9.45466 154.754C9.19685 154.829 8.98461 154.927 8.81794 155.047L7.91169 154.937L8.39607 151H12.5523V151.859H9.20857L8.92732 154.219H8.97419C9.13826 154.089 9.34399 153.98 9.59138 153.895C9.83878 153.809 10.0966 153.766 10.3648 153.766C10.8544 153.766 11.2906 153.883 11.6734 154.117C12.0588 154.349 12.3609 154.667 12.5797 155.07C12.801 155.474 12.9117 155.935 12.9117 156.453C12.9117 156.964 12.7971 157.419 12.5679 157.82C12.3414 158.219 12.0289 158.534 11.6304 158.766C11.232 158.995 10.7789 159.109 10.2711 159.109ZM15.3385 156.812L15.3228 155.672H15.5103L18.1353 153H19.276L16.4791 155.828H16.401L15.3385 156.812ZM14.4791 159V151H15.401V159H14.4791ZM18.2916 159L15.9478 156.031L16.6041 155.391L19.4635 159H18.2916Z" fill="#666666"/>
<rect x="32.6993" y="155" width="887.299" height="1" fill="#E8E8E8"/>
<path d="M5.2898 77V85H4.32105V78.0156H4.27417L2.32105 79.3125V78.3281L4.32105 77H5.2898ZM10.2 85.1094C9.61141 85.1094 9.11011 84.9492 8.69605 84.6289C8.28199 84.306 7.96558 83.8385 7.74683 83.2266C7.52808 82.612 7.41871 81.8698 7.41871 81C7.41871 80.1354 7.52808 79.3971 7.74683 78.7852C7.96818 78.1706 8.28589 77.7018 8.69996 77.3789C9.11662 77.0534 9.61662 76.8906 10.2 76.8906C10.7833 76.8906 11.282 77.0534 11.696 77.3789C12.1127 77.7018 12.4304 78.1706 12.6492 78.7852C12.8705 79.3971 12.9812 80.1354 12.9812 81C12.9812 81.8698 12.8718 82.612 12.6531 83.2266C12.4343 83.8385 12.1179 84.306 11.7039 84.6289C11.2898 84.9492 10.7885 85.1094 10.2 85.1094ZM10.2 84.25C10.7833 84.25 11.2364 83.9687 11.5593 83.4062C11.8822 82.8437 12.0437 82.0417 12.0437 81C12.0437 80.3073 11.9695 79.7174 11.821 79.2305C11.6752 78.7435 11.4643 78.3724 11.1882 78.1172C10.9148 77.862 10.5854 77.7344 10.2 77.7344C9.62183 77.7344 9.17001 78.0195 8.84449 78.5898C8.51897 79.1576 8.35621 79.9609 8.35621 81C8.35621 81.6927 8.42912 82.2812 8.57496 82.7656C8.72079 83.25 8.93042 83.6185 9.20386 83.8711C9.4799 84.1237 9.81193 84.25 10.2 84.25ZM15.3406 82.8125L15.325 81.6719H15.5125L18.1375 79H19.2781L16.4812 81.8281H16.4031L15.3406 82.8125ZM14.4812 85V77H15.4031V85H14.4812ZM18.2937 85L15.95 82.0312L16.6062 81.3906L19.4656 85H18.2937Z" fill="#666666"/>
<rect x="32.7014" y="81" width="887.299" height="1" fill="#E8E8E8"/>
<path d="M5.47242 3V11H4.50367V4.01562H4.45679L2.50367 5.3125V4.32812L4.50367 3H5.47242ZM10.2732 11.1094C9.81486 11.1094 9.4021 11.0182 9.03492 10.8359C8.66773 10.6536 8.37346 10.4036 8.1521 10.0859C7.93075 9.76823 7.80966 9.40625 7.78882 9H8.72632C8.76278 9.36198 8.92684 9.66146 9.21851 9.89844C9.51278 10.1328 9.86434 10.25 10.2732 10.25C10.6013 10.25 10.893 10.1732 11.1482 10.0195C11.406 9.86589 11.6078 9.65495 11.7537 9.38672C11.9021 9.11589 11.9763 8.8099 11.9763 8.46875C11.9763 8.11979 11.8995 7.80859 11.7459 7.53516C11.5948 7.25911 11.3865 7.04167 11.1209 6.88281C10.8552 6.72396 10.5518 6.64323 10.2107 6.64062C9.96591 6.63802 9.7146 6.67578 9.45679 6.75391C9.19898 6.82943 8.98674 6.92708 8.82007 7.04688L7.91382 6.9375L8.3982 3H12.5544V3.85937H9.2107L8.92945 6.21875H8.97632C9.14038 6.08854 9.34611 5.98047 9.59351 5.89453C9.84091 5.80859 10.0987 5.76562 10.3669 5.76562C10.8565 5.76562 11.2927 5.88281 11.6755 6.11719C12.061 6.34896 12.363 6.66667 12.5818 7.07031C12.8031 7.47396 12.9138 7.9349 12.9138 8.45312C12.9138 8.96354 12.7992 9.41927 12.5701 9.82031C12.3435 10.2187 12.031 10.5339 11.6326 10.7656C11.2341 10.9948 10.781 11.1094 10.2732 11.1094ZM15.3406 8.8125L15.325 7.67188H15.5125L18.1375 5H19.2781L16.4812 7.82812H16.4031L15.3406 8.8125ZM14.4812 11V3H15.4031V11H14.4812ZM18.2937 11L15.95 8.03125L16.6062 7.39062L19.4656 11H18.2937Z" fill="#666666"/>
<rect x="32.7014" y="7" width="887.299" height="1" fill="#E8E8E8"/>
<path d="M76.3012 230V8" stroke="#E8E8E8" stroke-dasharray="4 4"/>
<path d="M209.287 230V8" stroke="#E8E8E8" stroke-dasharray="4 4"/>
<path d="M342.273 230V8" stroke="#E8E8E8" stroke-dasharray="4 4"/>
<path d="M475.259 148V8" stroke="#E8E8E8" stroke-dasharray="4 4"/>
<path d="M608.244 230V8" stroke="#E8E8E8" stroke-dasharray="4 4"/>
<path d="M741.23 230V8" stroke="#E8E8E8" stroke-dasharray="4 4"/>
<path d="M874.216 230V8" stroke="#E8E8E8" stroke-dasharray="4 4"/>
<path d="M76.3012 236V228" stroke="#E8E8E8" stroke-width="2"/>
<path d="M209.287 236V228" stroke="#E8E8E8" stroke-width="2"/>
<path d="M342.273 236V228" stroke="#E8E8E8" stroke-width="2"/>
<path d="M475.259 233.045V228" stroke="#E8E8E8" stroke-width="2"/>
<path d="M608.244 236V228" stroke="#E8E8E8" stroke-width="2"/>
<path d="M741.23 236V228" stroke="#E8E8E8" stroke-width="2"/>
<path d="M874.216 236V228" stroke="#E8E8E8" stroke-width="2"/>
<path d="M54.3016 249H55.2704V254.719C55.2704 255.229 55.1766 255.663 54.9891 256.02C54.8016 256.376 54.5373 256.647 54.1962 256.832C53.855 257.017 53.4527 257.109 52.9891 257.109C52.5516 257.109 52.1623 257.03 51.8212 256.871C51.48 256.71 51.2118 256.48 51.0165 256.184C50.8212 255.887 50.7235 255.534 50.7235 255.125H51.6766C51.6766 255.352 51.7326 255.549 51.8446 255.719C51.9592 255.885 52.1154 256.016 52.3134 256.109C52.5113 256.203 52.7365 256.25 52.9891 256.25C53.2678 256.25 53.5048 256.191 53.7001 256.074C53.8954 255.957 54.0438 255.785 54.1454 255.559C54.2496 255.329 54.3016 255.049 54.3016 254.719V249ZM58.8524 257.141C58.4722 257.141 58.1272 257.069 57.8173 256.926C57.5074 256.78 57.2613 256.57 57.079 256.297C56.8967 256.021 56.8055 255.687 56.8055 255.297C56.8055 254.953 56.8733 254.674 57.0087 254.461C57.1441 254.245 57.3251 254.076 57.5516 253.953C57.7782 253.831 58.0282 253.74 58.3016 253.68C58.5777 253.617 58.855 253.568 59.1337 253.531C59.4983 253.484 59.7938 253.449 60.0204 253.426C60.2496 253.4 60.4162 253.357 60.5204 253.297C60.6272 253.237 60.6805 253.133 60.6805 252.984V252.953C60.6805 252.568 60.5751 252.268 60.3641 252.055C60.1558 251.841 59.8394 251.734 59.4149 251.734C58.9748 251.734 58.6298 251.831 58.3798 252.023C58.1298 252.216 57.954 252.422 57.8524 252.641L56.9774 252.328C57.1337 251.964 57.342 251.68 57.6024 251.477C57.8654 251.271 58.1519 251.128 58.4618 251.047C58.7743 250.964 59.0816 250.922 59.3837 250.922C59.5764 250.922 59.7977 250.945 60.0477 250.992C60.3003 251.036 60.5438 251.129 60.7782 251.27C61.0152 251.41 61.2118 251.622 61.368 251.906C61.5243 252.19 61.6024 252.57 61.6024 253.047V257H60.6805V256.187H60.6337C60.5712 256.318 60.467 256.457 60.3212 256.605C60.1753 256.754 59.9813 256.88 59.7391 256.984C59.4969 257.089 59.2014 257.141 58.8524 257.141ZM58.993 256.312C59.3576 256.312 59.6649 256.241 59.9149 256.098C60.1675 255.954 60.3576 255.77 60.4852 255.543C60.6154 255.316 60.6805 255.078 60.6805 254.828V253.984C60.6415 254.031 60.5555 254.074 60.4227 254.113C60.2925 254.15 60.1415 254.182 59.9696 254.211C59.8003 254.237 59.635 254.26 59.4735 254.281C59.3147 254.299 59.1858 254.315 59.0868 254.328C58.8472 254.359 58.6233 254.41 58.4149 254.48C58.2092 254.548 58.0425 254.651 57.9149 254.789C57.7899 254.924 57.7274 255.109 57.7274 255.344C57.7274 255.664 57.8459 255.906 58.0829 256.07C58.3225 256.232 58.6259 256.312 58.993 256.312ZM64.2069 253.391V257H63.285V251H64.1757V251.937H64.2538C64.3944 251.633 64.608 251.388 64.8944 251.203C65.1809 251.016 65.5507 250.922 66.0038 250.922C66.41 250.922 66.7655 251.005 67.0702 251.172C67.3749 251.336 67.6119 251.586 67.7811 251.922C67.9504 252.255 68.035 252.677 68.035 253.188V257H67.1132V253.25C67.1132 252.779 66.9908 252.411 66.746 252.148C66.5012 251.883 66.1652 251.75 65.7382 251.75C65.4439 251.75 65.1809 251.814 64.9491 251.941C64.7199 252.069 64.5389 252.255 64.4061 252.5C64.2733 252.745 64.2069 253.042 64.2069 253.391ZM75.3446 248.891C75.6727 248.893 76.0009 248.956 76.329 249.078C76.6571 249.201 76.9566 249.404 77.2274 249.687C77.4983 249.969 77.7157 250.353 77.8798 250.84C78.0438 251.327 78.1259 251.937 78.1259 252.672C78.1259 253.383 78.0581 254.014 77.9227 254.566C77.7899 255.116 77.5972 255.579 77.3446 255.957C77.0946 256.335 76.7899 256.621 76.4305 256.816C76.0738 257.012 75.6701 257.109 75.2196 257.109C74.7717 257.109 74.3719 257.021 74.0204 256.844C73.6714 256.664 73.385 256.415 73.161 256.098C72.9397 255.777 72.7977 255.406 72.7352 254.984H73.6884C73.7743 255.352 73.9449 255.655 74.2001 255.895C74.4579 256.132 74.7977 256.25 75.2196 256.25C75.8368 256.25 76.3238 255.98 76.6805 255.441C77.0399 254.902 77.2196 254.141 77.2196 253.156H77.1571C77.0113 253.375 76.8381 253.564 76.6376 253.723C76.4371 253.882 76.2144 254.004 75.9696 254.09C75.7248 254.176 75.4644 254.219 75.1884 254.219C74.73 254.219 74.3094 254.105 73.9266 253.879C73.5464 253.65 73.2417 253.336 73.0126 252.937C72.786 252.536 72.6727 252.078 72.6727 251.562C72.6727 251.073 72.7821 250.625 73.0009 250.219C73.2222 249.81 73.5321 249.484 73.9305 249.242C74.3316 249 74.8029 248.883 75.3446 248.891ZM75.3446 249.75C75.0165 249.75 74.7209 249.832 74.4579 249.996C74.1975 250.158 73.9904 250.376 73.8368 250.652C73.6858 250.926 73.6102 251.229 73.6102 251.562C73.6102 251.896 73.6831 252.199 73.829 252.473C73.9774 252.743 74.1792 252.96 74.4344 253.121C74.6923 253.28 74.9852 253.359 75.3134 253.359C75.5608 253.359 75.7912 253.311 76.0048 253.215C76.2183 253.116 76.4045 252.982 76.5634 252.812C76.7248 252.641 76.8511 252.447 76.9423 252.23C77.0334 252.012 77.079 251.784 77.079 251.547C77.079 251.234 77.0035 250.941 76.8524 250.668C76.704 250.395 76.4983 250.173 76.2352 250.004C75.9748 249.835 75.6779 249.75 75.3446 249.75Z" fill="#666666"/>
<path d="M206.646 249V257H205.678V250.016H205.631L203.678 251.312V250.328L205.678 249H206.646ZM211.557 257.109C210.968 257.109 210.467 256.949 210.053 256.629C209.639 256.306 209.322 255.839 209.104 255.227C208.885 254.612 208.775 253.87 208.775 253C208.775 252.135 208.885 251.397 209.104 250.785C209.325 250.171 209.643 249.702 210.057 249.379C210.473 249.053 210.973 248.891 211.557 248.891C212.14 248.891 212.639 249.053 213.053 249.379C213.469 249.702 213.787 250.171 214.006 250.785C214.227 251.397 214.338 252.135 214.338 253C214.338 253.87 214.229 254.612 214.01 255.227C213.791 255.839 213.475 256.306 213.061 256.629C212.646 256.949 212.145 257.109 211.557 257.109ZM211.557 256.25C212.14 256.25 212.593 255.969 212.916 255.406C213.239 254.844 213.4 254.042 213.4 253C213.4 252.307 213.326 251.717 213.178 251.23C213.032 250.743 212.821 250.372 212.545 250.117C212.271 249.862 211.942 249.734 211.557 249.734C210.979 249.734 210.527 250.02 210.201 250.59C209.876 251.158 209.713 251.961 209.713 253C209.713 253.693 209.786 254.281 209.932 254.766C210.077 255.25 210.287 255.618 210.561 255.871C210.837 256.124 211.169 256.25 211.557 256.25Z" fill="#666666"/>
<path d="M340.027 249V257H339.059V250.016H339.012L337.059 251.312V250.328L339.059 249H340.027ZM345.141 249V257H344.172V250.016H344.125L342.172 251.312V250.328L344.172 249H345.141Z" fill="#666666"/>
<path d="M472.754 249V257H471.785V250.016H471.738L469.785 251.312V250.328L471.785 249H472.754ZM475.055 257V256.297L477.695 253.406C478.005 253.068 478.26 252.773 478.461 252.523C478.661 252.271 478.81 252.034 478.906 251.812C479.005 251.589 479.055 251.354 479.055 251.109C479.055 250.828 478.987 250.585 478.852 250.379C478.719 250.173 478.536 250.014 478.305 249.902C478.073 249.79 477.813 249.734 477.523 249.734C477.216 249.734 476.948 249.798 476.719 249.926C476.492 250.051 476.316 250.227 476.191 250.453C476.069 250.68 476.008 250.945 476.008 251.25H475.086C475.086 250.781 475.194 250.37 475.41 250.016C475.626 249.661 475.921 249.385 476.293 249.187C476.668 248.99 477.089 248.891 477.555 248.891C478.023 248.891 478.439 248.99 478.801 249.187C479.163 249.385 479.447 249.652 479.652 249.988C479.858 250.324 479.961 250.698 479.961 251.109C479.961 251.404 479.908 251.691 479.801 251.973C479.697 252.251 479.514 252.562 479.254 252.906C478.996 253.247 478.638 253.664 478.18 254.156L476.383 256.078V256.141H480.102V257H475.055Z" fill="#666666"/>
<path d="M605.082 249V257H604.113V250.016H604.066L602.113 251.312V250.328L604.113 249H605.082ZM610.086 257.109C609.57 257.109 609.111 257.021 608.707 256.844C608.306 256.667 607.987 256.421 607.75 256.105C607.516 255.788 607.388 255.419 607.367 255H608.352C608.372 255.258 608.461 255.48 608.617 255.668C608.773 255.853 608.978 255.996 609.23 256.098C609.483 256.199 609.763 256.25 610.07 256.25C610.414 256.25 610.719 256.19 610.984 256.07C611.25 255.951 611.458 255.784 611.609 255.57C611.76 255.357 611.836 255.109 611.836 254.828C611.836 254.534 611.763 254.275 611.617 254.051C611.471 253.824 611.258 253.647 610.977 253.52C610.695 253.392 610.352 253.328 609.945 253.328H609.305V252.469H609.945C610.263 252.469 610.542 252.411 610.781 252.297C611.023 252.182 611.212 252.021 611.348 251.812C611.486 251.604 611.555 251.359 611.555 251.078C611.555 250.807 611.495 250.572 611.375 250.371C611.255 250.171 611.086 250.014 610.867 249.902C610.651 249.79 610.396 249.734 610.102 249.734C609.826 249.734 609.565 249.785 609.32 249.887C609.078 249.986 608.88 250.13 608.727 250.32C608.573 250.508 608.49 250.734 608.477 251H607.539C607.555 250.581 607.681 250.214 607.918 249.898C608.155 249.581 608.465 249.333 608.848 249.156C609.233 248.979 609.656 248.891 610.117 248.891C610.612 248.891 611.036 248.991 611.391 249.191C611.745 249.389 612.017 249.651 612.207 249.977C612.397 250.302 612.492 250.654 612.492 251.031C612.492 251.482 612.374 251.866 612.137 252.184C611.902 252.501 611.583 252.721 611.18 252.844V252.906C611.685 252.99 612.079 253.204 612.363 253.551C612.647 253.895 612.789 254.32 612.789 254.828C612.789 255.263 612.671 255.654 612.434 256C612.199 256.344 611.879 256.615 611.473 256.812C611.066 257.01 610.604 257.109 610.086 257.109Z" fill="#666666"/>
<path d="M738.055 249V257H737.086V250.016H737.04L735.086 251.312V250.328L737.086 249H738.055ZM740.168 255.359V254.562L743.684 249H744.262V250.234H743.872L741.215 254.437V254.5H745.95V255.359H740.168ZM743.934 257V255.117V254.746V249H744.856V257H743.934Z" fill="#666666"/>
<path d="M871.738 249V257H870.769V250.016H870.722L868.769 251.312V250.328L870.769 249H871.738ZM876.539 257.109C876.08 257.109 875.667 257.018 875.3 256.836C874.933 256.654 874.639 256.404 874.417 256.086C874.196 255.768 874.075 255.406 874.054 255H874.992C875.028 255.362 875.192 255.661 875.484 255.898C875.778 256.133 876.13 256.25 876.539 256.25C876.867 256.25 877.158 256.173 877.414 256.02C877.671 255.866 877.873 255.655 878.019 255.387C878.167 255.116 878.242 254.81 878.242 254.469C878.242 254.12 878.165 253.809 878.011 253.535C877.86 253.259 877.652 253.042 877.386 252.883C877.121 252.724 876.817 252.643 876.476 252.641C876.231 252.638 875.98 252.676 875.722 252.754C875.464 252.829 875.252 252.927 875.085 253.047L874.179 252.937L874.664 249H878.82V249.859H875.476L875.195 252.219H875.242C875.406 252.089 875.611 251.98 875.859 251.895C876.106 251.809 876.364 251.766 876.632 251.766C877.122 251.766 877.558 251.883 877.941 252.117C878.326 252.349 878.628 252.667 878.847 253.07C879.069 253.474 879.179 253.935 879.179 254.453C879.179 254.964 879.065 255.419 878.835 255.82C878.609 256.219 878.296 256.534 877.898 256.766C877.5 256.995 877.046 257.109 876.539 257.109Z" fill="#666666"/>
<path d="M76.3033 175L209.289 125.737L342.275 127L475.261 148.474L608.246 57.5263L741.232 103L874.218 55" stroke="#006CE7" stroke-width="5" stroke-linecap="round" stroke-linejoin="round"/>
<path opacity="0.16" d="M209 125.737L76 175V229H874V55L741 103L608 57.5263L475 148.474L342 127L209 125.737Z" fill="#BCD7FB"/>
<path opacity="0.4" d="M475.261 230V148" stroke="#006CE7" stroke-width="2"/>
<g filter="url(#filter0_d_78_806)">
<circle cx="474.54" cy="148" r="8" fill="#006CE7"/>
<circle cx="474.54" cy="148" r="6" stroke="white" stroke-width="4"/>
</g>
<path opacity="0.16" d="M211 116.5L78 220.5V228H876V102.5L740.5 60.5L609 102L474.5 173.5L342 116.5H211Z" fill="#E9E3FA"/>
<path fill-rule="evenodd" clip-rule="evenodd" d="M431 55C429.343 55 428 56.3431 428 58V123.69C428 125.347 429.343 126.69 431 126.69H470.18L475.111 132L480.042 126.69H518.744C520.401 126.69 521.744 125.347 521.744 123.69V58C521.744 56.3431 520.401 55 518.744 55H431Z" fill="white"/>
<path d="M470.18 126.69L470.913 126.009L470.616 125.69H470.18V126.69ZM475.111 132L474.379 132.68L475.111 133.47L475.844 132.68L475.111 132ZM480.042 126.69V125.69H479.606L479.31 126.009L480.042 126.69ZM429 58C429 56.8954 429.895 56 431 56V54C428.791 54 427 55.7909 427 58H429ZM429 123.69V58H427V123.69H429ZM431 125.69C429.895 125.69 429 124.794 429 123.69H427C427 125.899 428.791 127.69 431 127.69V125.69ZM470.18 125.69H431V127.69H470.18V125.69ZM469.448 127.37L474.379 132.68L475.844 131.32L470.913 126.009L469.448 127.37ZM475.844 132.68L480.775 127.37L479.31 126.009L474.379 131.32L475.844 132.68ZM518.744 125.69H480.042V127.69H518.744V125.69ZM520.744 123.69C520.744 124.794 519.849 125.69 518.744 125.69V127.69C520.953 127.69 522.744 125.899 522.744 123.69H520.744ZM520.744 58V123.69H522.744V58H520.744ZM518.744 56C519.849 56 520.744 56.8954 520.744 58H522.744C522.744 55.7909 520.953 54 518.744 54V56ZM431 56H518.744V54H431V56Z" fill="#E8E8E8"/>
<path d="M445.928 116.149C445.136 116.149 444.433 116.016 443.818 115.75C443.208 115.483 442.728 115.119 442.38 114.658C442.036 114.192 441.865 113.665 441.869 113.076C441.865 112.618 441.965 112.197 442.167 111.813C442.37 111.43 442.643 111.11 442.988 110.854C443.336 110.595 443.723 110.43 444.149 110.359V110.284C443.588 110.16 443.133 109.874 442.785 109.427C442.441 108.976 442.27 108.456 442.274 107.866C442.27 107.305 442.426 106.804 442.742 106.364C443.059 105.924 443.492 105.577 444.042 105.325C444.593 105.07 445.221 104.942 445.928 104.942C446.627 104.942 447.251 105.07 447.798 105.325C448.348 105.577 448.781 105.924 449.097 106.364C449.417 106.804 449.577 107.305 449.577 107.866C449.577 108.456 449.401 108.976 449.049 109.427C448.701 109.874 448.252 110.16 447.702 110.284V110.359C448.128 110.43 448.511 110.595 448.852 110.854C449.197 111.11 449.47 111.43 449.673 111.813C449.879 112.197 449.981 112.618 449.981 113.076C449.981 113.665 449.807 114.192 449.459 114.658C449.111 115.119 448.632 115.483 448.021 115.75C447.414 116.016 446.716 116.149 445.928 116.149ZM445.928 114.626C446.336 114.626 446.691 114.556 446.993 114.418C447.295 114.276 447.529 114.077 447.696 113.821C447.863 113.566 447.948 113.271 447.952 112.937C447.948 112.589 447.858 112.282 447.68 112.016C447.506 111.746 447.267 111.534 446.961 111.382C446.659 111.229 446.315 111.153 445.928 111.153C445.537 111.153 445.189 111.229 444.884 111.382C444.578 111.534 444.337 111.746 444.159 112.016C443.985 112.282 443.9 112.589 443.904 112.937C443.9 113.271 443.982 113.566 444.149 113.821C444.316 114.074 444.55 114.271 444.852 114.413C445.157 114.555 445.516 114.626 445.928 114.626ZM445.928 109.656C446.262 109.656 446.556 109.588 446.812 109.453C447.071 109.319 447.276 109.13 447.425 108.889C447.574 108.647 447.65 108.369 447.654 108.053C447.65 107.74 447.576 107.467 447.43 107.232C447.284 106.994 447.082 106.811 446.823 106.684C446.564 106.552 446.265 106.487 445.928 106.487C445.583 106.487 445.28 106.552 445.017 106.684C444.758 106.811 444.555 106.994 444.41 107.232C444.268 107.467 444.198 107.74 444.202 108.053C444.198 108.369 444.269 108.647 444.415 108.889C444.564 109.127 444.768 109.315 445.028 109.453C445.29 109.588 445.591 109.656 445.928 109.656ZM452.132 116L456.772 106.817V106.742H451.386V105.091H458.817V106.779L454.183 116H452.132ZM460.947 114.509L460.877 115.094C460.828 115.542 460.739 115.996 460.611 116.458C460.487 116.923 460.355 117.351 460.217 117.742C460.078 118.132 459.966 118.44 459.881 118.663H458.581C458.631 118.447 458.699 118.152 458.784 117.779C458.873 117.406 458.958 116.987 459.04 116.522C459.121 116.057 459.176 115.585 459.205 115.105L459.242 114.509H460.947ZM466.711 104.942C467.233 104.945 467.741 105.038 468.235 105.219C468.732 105.396 469.179 105.688 469.577 106.092C469.975 106.494 470.291 107.032 470.525 107.706C470.76 108.381 470.877 109.216 470.877 110.21C470.88 111.147 470.781 111.985 470.579 112.724C470.38 113.459 470.094 114.081 469.721 114.588C469.348 115.096 468.899 115.483 468.373 115.75C467.848 116.016 467.256 116.149 466.599 116.149C465.911 116.149 465.3 116.014 464.767 115.744C464.238 115.474 463.81 115.105 463.483 114.636C463.157 114.168 462.956 113.631 462.881 113.028H464.826C464.925 113.461 465.128 113.805 465.433 114.061C465.742 114.313 466.131 114.439 466.599 114.439C467.356 114.439 467.938 114.111 468.347 113.454C468.755 112.797 468.959 111.884 468.959 110.716H468.885C468.711 111.028 468.485 111.298 468.208 111.526C467.931 111.749 467.617 111.922 467.265 112.042C466.917 112.163 466.548 112.223 466.157 112.223C465.518 112.223 464.943 112.071 464.432 111.765C463.924 111.46 463.521 111.041 463.222 110.508C462.928 109.975 462.778 109.366 462.775 108.681C462.775 107.971 462.938 107.333 463.265 106.769C463.595 106.201 464.055 105.753 464.645 105.426C465.234 105.096 465.923 104.935 466.711 104.942ZM466.717 106.54C466.333 106.54 465.987 106.634 465.678 106.822C465.373 107.007 465.131 107.259 464.954 107.578C464.78 107.895 464.693 108.248 464.693 108.638C464.696 109.026 464.783 109.377 464.954 109.693C465.128 110.009 465.364 110.26 465.662 110.444C465.964 110.629 466.308 110.721 466.695 110.721C466.983 110.721 467.251 110.666 467.5 110.556C467.748 110.446 467.965 110.293 468.15 110.098C468.338 109.899 468.483 109.674 468.586 109.422C468.693 109.169 468.744 108.903 468.741 108.623C468.741 108.25 468.652 107.905 468.474 107.589C468.3 107.273 468.061 107.019 467.755 106.827C467.454 106.636 467.107 106.54 466.717 106.54ZM476.528 116.149C475.737 116.149 475.033 116.016 474.419 115.75C473.808 115.483 473.329 115.119 472.981 114.658C472.636 114.192 472.466 113.665 472.47 113.076C472.466 112.618 472.565 112.197 472.768 111.813C472.97 111.43 473.244 111.11 473.588 110.854C473.936 110.595 474.323 110.43 474.749 110.359V110.284C474.188 110.16 473.734 109.874 473.386 109.427C473.041 108.976 472.871 108.456 472.874 107.866C472.871 107.305 473.027 106.804 473.343 106.364C473.659 105.924 474.092 105.577 474.643 105.325C475.193 105.07 475.822 104.942 476.528 104.942C477.228 104.942 477.851 105.07 478.398 105.325C478.949 105.577 479.382 105.924 479.698 106.364C480.017 106.804 480.177 107.305 480.177 107.866C480.177 108.456 480.001 108.976 479.65 109.427C479.302 109.874 478.853 110.16 478.302 110.284V110.359C478.728 110.43 479.112 110.595 479.453 110.854C479.797 111.11 480.071 111.43 480.273 111.813C480.479 112.197 480.582 112.618 480.582 113.076C480.582 113.665 480.408 114.192 480.06 114.658C479.712 115.119 479.233 115.483 478.622 115.75C478.015 116.016 477.317 116.149 476.528 116.149ZM476.528 114.626C476.937 114.626 477.292 114.556 477.594 114.418C477.896 114.276 478.13 114.077 478.297 113.821C478.464 113.566 478.549 113.271 478.553 112.937C478.549 112.589 478.458 112.282 478.281 112.016C478.107 111.746 477.867 111.534 477.562 111.382C477.26 111.229 476.916 111.153 476.528 111.153C476.138 111.153 475.79 111.229 475.484 111.382C475.179 111.534 474.938 111.746 474.76 112.016C474.586 112.282 474.501 112.589 474.504 112.937C474.501 113.271 474.582 113.566 474.749 113.821C474.916 114.074 475.151 114.271 475.452 114.413C475.758 114.555 476.117 114.626 476.528 114.626ZM476.528 109.656C476.862 109.656 477.157 109.588 477.413 109.453C477.672 109.319 477.876 109.13 478.025 108.889C478.174 108.647 478.251 108.369 478.254 108.053C478.251 107.74 478.176 107.467 478.031 107.232C477.885 106.994 477.683 106.811 477.423 106.684C477.164 106.552 476.866 106.487 476.528 106.487C476.184 106.487 475.88 106.552 475.618 106.684C475.358 106.811 475.156 106.994 475.01 107.232C474.868 107.467 474.799 107.74 474.803 108.053C474.799 108.369 474.87 108.647 475.016 108.889C475.165 109.127 475.369 109.315 475.628 109.453C475.891 109.588 476.191 109.656 476.528 109.656ZM486.77 105.091V116H484.794V107.014H484.73L482.179 108.644V106.833L484.89 105.091H486.77Z" fill="#181818"/>
<ellipse cx="505.393" cy="111" rx="3.27014" ry="3" fill="#583689"/>
<path d="M446.487 83.0909V94H444.511V85.0138H444.447L441.896 86.6438V84.8327L444.607 83.0909H446.487ZM449.257 94V92.5724L453.044 88.8597C453.407 88.494 453.708 88.169 453.95 87.8849C454.191 87.6009 454.372 87.3256 454.493 87.0593C454.614 86.793 454.674 86.5089 454.674 86.207C454.674 85.8626 454.596 85.5678 454.44 85.3228C454.284 85.0742 454.069 84.8825 453.795 84.7475C453.522 84.6126 453.211 84.5451 452.863 84.5451C452.505 84.5451 452.19 84.6197 451.92 84.7688C451.651 84.9144 451.441 85.1222 451.292 85.392C451.146 85.6619 451.073 85.9833 451.073 86.3562H449.193C449.193 85.6637 449.351 85.0618 449.667 84.5504C449.983 84.0391 450.418 83.6431 450.972 83.3626C451.53 83.082 452.169 82.9418 452.89 82.9418C453.621 82.9418 454.264 83.0785 454.818 83.3519C455.372 83.6254 455.802 84 456.107 84.4759C456.416 84.9517 456.571 85.495 456.571 86.1058C456.571 86.5142 456.492 86.9155 456.336 87.3097C456.18 87.7038 455.905 88.1406 455.511 88.62C455.12 89.0994 454.571 89.68 453.865 90.3619L451.984 92.2741V92.3487H456.736V94H449.257ZM460.859 92.5085L460.789 93.0945C460.74 93.5419 460.651 93.9964 460.523 94.4581C460.399 94.9233 460.267 95.3512 460.129 95.7418C459.99 96.1325 459.879 96.4396 459.793 96.6634H458.494C458.543 96.4467 458.611 96.152 458.696 95.7791C458.785 95.4063 458.87 94.9872 458.952 94.522C459.033 94.0568 459.088 93.5845 459.117 93.1051L459.154 92.5085H460.859ZM466.623 82.9418C467.145 82.9453 467.653 83.0376 468.147 83.2188C468.644 83.3963 469.091 83.6875 469.489 84.0923C469.887 84.4936 470.203 85.0316 470.437 85.7063C470.672 86.381 470.789 87.2156 470.789 88.2099C470.792 89.1474 470.693 89.9854 470.491 90.7241C470.292 91.4592 470.006 92.0806 469.633 92.5884C469.26 93.0962 468.811 93.4833 468.285 93.7496C467.76 94.016 467.169 94.1491 466.512 94.1491C465.823 94.1491 465.212 94.0142 464.679 93.7443C464.15 93.4744 463.722 93.1051 463.395 92.6364C463.069 92.1676 462.868 91.6314 462.794 91.0277H464.738C464.837 91.4609 465.04 91.8054 465.345 92.0611C465.654 92.3132 466.043 92.4393 466.512 92.4393C467.268 92.4393 467.85 92.1108 468.259 91.4538C468.667 90.7969 468.871 89.8842 468.871 88.7159H468.797C468.623 89.0284 468.397 89.2983 468.12 89.5256C467.843 89.7493 467.529 89.9215 467.177 90.0423C466.829 90.163 466.46 90.2234 466.069 90.2234C465.43 90.2234 464.855 90.0707 464.344 89.7653C463.836 89.4599 463.433 89.0408 463.134 88.5082C462.84 87.9755 462.691 87.3665 462.687 86.6811C462.687 85.9709 462.85 85.3335 463.177 84.7688C463.507 84.2006 463.967 83.7532 464.557 83.4265C465.146 83.0962 465.835 82.9347 466.623 82.9418ZM466.629 84.5398C466.245 84.5398 465.899 84.6339 465.59 84.8221C465.285 85.0067 465.043 85.2589 464.866 85.5785C464.692 85.8945 464.605 86.2479 464.605 86.6385C464.608 87.0256 464.695 87.3771 464.866 87.6932C465.04 88.0092 465.276 88.2596 465.574 88.4442C465.876 88.6289 466.22 88.7212 466.607 88.7212C466.895 88.7212 467.163 88.6662 467.412 88.5561C467.66 88.446 467.877 88.2933 468.062 88.098C468.25 87.8991 468.395 87.6737 468.498 87.4215C468.605 87.1694 468.656 86.9031 468.653 86.6225C468.653 86.2496 468.564 85.9052 468.387 85.5891C468.213 85.2731 467.973 85.0192 467.667 84.8274C467.366 84.6357 467.019 84.5398 466.629 84.5398ZM476.441 94.1491C475.649 94.1491 474.946 94.016 474.331 93.7496C473.72 93.4833 473.241 93.1193 472.893 92.6577C472.549 92.1925 472.378 91.6651 472.382 91.0756C472.378 90.6175 472.477 90.1967 472.68 89.8132C472.882 89.4297 473.156 89.1101 473.5 88.8544C473.848 88.5952 474.235 88.43 474.661 88.359V88.2844C474.1 88.1602 473.646 87.8743 473.298 87.4268C472.953 86.9759 472.783 86.4556 472.786 85.8661C472.783 85.305 472.939 84.8043 473.255 84.364C473.571 83.9237 474.004 83.5774 474.555 83.3253C475.105 83.0696 475.734 82.9418 476.441 82.9418C477.14 82.9418 477.763 83.0696 478.31 83.3253C478.861 83.5774 479.294 83.9237 479.61 84.364C479.93 84.8043 480.089 85.305 480.089 85.8661C480.089 86.4556 479.914 86.9759 479.562 87.4268C479.214 87.8743 478.765 88.1602 478.214 88.2844V88.359C478.64 88.43 479.024 88.5952 479.365 88.8544C479.709 89.1101 479.983 89.4297 480.185 89.8132C480.391 90.1967 480.494 90.6175 480.494 91.0756C480.494 91.6651 480.32 92.1925 479.972 92.6577C479.624 93.1193 479.145 93.4833 478.534 93.7496C477.927 94.016 477.229 94.1491 476.441 94.1491ZM476.441 92.6257C476.849 92.6257 477.204 92.5565 477.506 92.418C477.808 92.2759 478.042 92.0771 478.209 91.8214C478.376 91.5657 478.461 91.271 478.465 90.9371C478.461 90.5891 478.371 90.282 478.193 90.0156C478.019 89.7457 477.779 89.5344 477.474 89.3817C477.172 89.229 476.828 89.1527 476.441 89.1527C476.05 89.1527 475.702 89.229 475.397 89.3817C475.091 89.5344 474.85 89.7457 474.672 90.0156C474.498 90.282 474.413 90.5891 474.416 90.9371C474.413 91.271 474.495 91.5657 474.661 91.8214C474.828 92.0735 475.063 92.2706 475.365 92.4126C475.67 92.5547 476.029 92.6257 476.441 92.6257ZM476.441 87.6559C476.774 87.6559 477.069 87.5884 477.325 87.4535C477.584 87.3185 477.788 87.1303 477.937 86.8888C478.087 86.6474 478.163 86.3686 478.166 86.0526C478.163 85.7401 478.088 85.4666 477.943 85.2322C477.797 84.9943 477.595 84.8114 477.335 84.6836C477.076 84.5522 476.778 84.4865 476.441 84.4865C476.096 84.4865 475.792 84.5522 475.53 84.6836C475.27 84.8114 475.068 84.9943 474.922 85.2322C474.78 85.4666 474.711 85.7401 474.715 86.0526C474.711 86.3686 474.782 86.6474 474.928 86.8888C475.077 87.1268 475.281 87.315 475.54 87.4535C475.803 87.5884 476.103 87.6559 476.441 87.6559ZM486.682 83.0909V94H484.706V85.0138H484.642L482.091 86.6438V84.8327L484.802 83.0909H486.682Z" fill="#181818"/>
<ellipse cx="505.393" cy="89" rx="3.27014" ry="3" fill="#006CE7"/>
<path d="M444.72 66.2727H445.777V72.5114C445.777 73.0682 445.675 73.5412 445.47 73.9304C445.266 74.3196 444.978 74.6151 444.605 74.8168C444.233 75.0185 443.794 75.1193 443.289 75.1193C442.811 75.1193 442.387 75.0327 442.015 74.8594C441.642 74.6832 441.35 74.4332 441.137 74.1094C440.924 73.7855 440.817 73.4006 440.817 72.9545H441.857C441.857 73.2017 441.918 73.4176 442.04 73.6023C442.165 73.7841 442.336 73.9261 442.551 74.0284C442.767 74.1307 443.013 74.1818 443.289 74.1818C443.593 74.1818 443.851 74.1179 444.064 73.9901C444.277 73.8622 444.439 73.6747 444.55 73.4276C444.664 73.1776 444.72 72.8722 444.72 72.5114V66.2727ZM449.685 75.1534C449.27 75.1534 448.894 75.0753 448.556 74.919C448.218 74.7599 447.949 74.5312 447.75 74.233C447.551 73.9318 447.452 73.5682 447.452 73.142C447.452 72.767 447.526 72.4631 447.674 72.2301C447.821 71.9943 448.019 71.8097 448.266 71.6761C448.513 71.5426 448.786 71.4432 449.084 71.3778C449.385 71.3097 449.688 71.2557 449.992 71.2159C450.39 71.1648 450.712 71.1264 450.959 71.1009C451.209 71.0724 451.391 71.0256 451.505 70.9602C451.621 70.8949 451.679 70.7812 451.679 70.6193V70.5852C451.679 70.1648 451.564 69.8381 451.334 69.6051C451.107 69.3722 450.762 69.2557 450.299 69.2557C449.818 69.2557 449.442 69.3608 449.169 69.571C448.897 69.7812 448.705 70.0057 448.594 70.2443L447.64 69.9034C447.81 69.5057 448.037 69.196 448.321 68.9744C448.608 68.75 448.921 68.5937 449.259 68.5057C449.6 68.4148 449.935 68.3693 450.265 68.3693C450.475 68.3693 450.716 68.3949 450.989 68.446C451.265 68.4943 451.53 68.5952 451.786 68.7486C452.044 68.902 452.259 69.1335 452.429 69.4432C452.6 69.7528 452.685 70.1676 452.685 70.6875V75H451.679V74.1136H451.628C451.56 74.2557 451.446 74.4077 451.287 74.5696C451.128 74.7315 450.917 74.8693 450.652 74.983C450.388 75.0966 450.066 75.1534 449.685 75.1534ZM449.838 74.25C450.236 74.25 450.571 74.1719 450.844 74.0156C451.12 73.8594 451.327 73.6577 451.466 73.4105C451.608 73.1634 451.679 72.9034 451.679 72.6307V71.7102C451.637 71.7614 451.543 71.8082 451.398 71.8509C451.256 71.8906 451.091 71.9261 450.904 71.9574C450.719 71.9858 450.539 72.0114 450.363 72.0341C450.189 72.054 450.049 72.071 449.941 72.0852C449.679 72.1193 449.435 72.1747 449.208 72.2514C448.983 72.3253 448.801 72.4375 448.662 72.5881C448.526 72.7358 448.458 72.9375 448.458 73.1932C448.458 73.5426 448.587 73.8068 448.845 73.9858C449.107 74.1619 449.438 74.25 449.838 74.25ZM455.526 71.0625V75H454.521V68.4545H455.492V69.4773H455.577C455.731 69.1449 455.964 68.8778 456.276 68.6761C456.589 68.4716 456.992 68.3693 457.486 68.3693C457.93 68.3693 458.317 68.4602 458.65 68.642C458.982 68.821 459.241 69.0938 459.425 69.4602C459.61 69.8239 459.702 70.2841 459.702 70.8409V75H458.697V70.9091C458.697 70.3949 458.563 69.9943 458.296 69.7074C458.029 69.4176 457.663 69.2727 457.197 69.2727C456.876 69.2727 456.589 69.3423 456.336 69.4815C456.086 69.6207 455.888 69.8239 455.744 70.0909C455.599 70.358 455.526 70.6818 455.526 71.0625ZM467.966 66.2727V75H466.909V67.3807H466.858L464.728 68.7955V67.7216L466.909 66.2727H467.966ZM470.476 75V74.233L473.357 71.0795C473.695 70.7102 473.973 70.3892 474.192 70.1165C474.411 69.8409 474.573 69.5824 474.678 69.3409C474.786 69.0966 474.84 68.8409 474.84 68.5739C474.84 68.267 474.766 68.0014 474.618 67.777C474.473 67.5526 474.274 67.3793 474.022 67.2571C473.769 67.1349 473.485 67.0739 473.169 67.0739C472.834 67.0739 472.542 67.1435 472.292 67.2827C472.044 67.419 471.853 67.6108 471.716 67.858C471.583 68.1051 471.516 68.3949 471.516 68.7273H470.51C470.51 68.2159 470.628 67.767 470.864 67.3807C471.1 66.9943 471.421 66.6932 471.827 66.4773C472.236 66.2614 472.695 66.1534 473.203 66.1534C473.715 66.1534 474.168 66.2614 474.563 66.4773C474.958 66.6932 475.267 66.9844 475.492 67.3509C475.716 67.7173 475.828 68.125 475.828 68.5739C475.828 68.8949 475.77 69.2088 475.654 69.5156C475.54 69.8196 475.341 70.1591 475.057 70.5341C474.776 70.9062 474.385 71.3608 473.885 71.8977L471.925 73.9943V74.0625H475.982V75H470.476Z" fill="#666666"/>
<path d="M76.3032 222L209.289 117H341.028L474 174L609 102L741.232 61L874.218 102" stroke="#6766DB" stroke-width="5" stroke-linecap="round" stroke-linejoin="round"/>
<defs>
<filter id="filter0_d_78_806" x="458.54" y="132" width="32" height="32" filterUnits="userSpaceOnUse" color-interpolation-filters="sRGB">
<feFlood flood-opacity="0" result="BackgroundImageFix"/>
<feColorMatrix in="SourceAlpha" type="matrix" values="0 0 0 0 0 0 0 0 0 0 0 0 0 0 0 0 0 0 127 0" result="hardAlpha"/>
<feOffset/>
<feGaussianBlur stdDeviation="4"/>
<feComposite in2="hardAlpha" operator="out"/>
<feColorMatrix type="matrix" values="0 0 0 0 0 0 0 0 0 0 0 0 0 0 0 0 0 0 0.12 0"/>
<feBlend mode="normal" in2="BackgroundImageFix" result="effect1_dropShadow_78_806"/>
<feBlend mode="normal" in="SourceGraphic" in2="effect1_dropShadow_78_806" result="shape"/>
</filter>
</defs>
</svg>
