<svg width="71" height="17" viewBox="0 0 71 17" fill="none" xmlns="http://www.w3.org/2000/svg">
<path d="M10.9432 5.14773H9.17045C9.10227 4.76894 8.97538 4.43561 8.78977 4.14773C8.60417 3.85985 8.37689 3.61553 8.10795 3.41477C7.83902 3.21401 7.53788 3.0625 7.20455 2.96023C6.875 2.85795 6.52462 2.80682 6.15341 2.80682C5.48295 2.80682 4.88258 2.97538 4.35227 3.3125C3.82576 3.64962 3.40909 4.14394 3.10227 4.79545C2.79924 5.44697 2.64773 6.24242 2.64773 7.18182C2.64773 8.12879 2.79924 8.92803 3.10227 9.57955C3.40909 10.2311 3.82765 10.7235 4.35795 11.0568C4.88826 11.3902 5.48485 11.5568 6.14773 11.5568C6.51515 11.5568 6.86364 11.5076 7.19318 11.4091C7.52652 11.3068 7.82765 11.1572 8.09659 10.9602C8.36553 10.7633 8.5928 10.5227 8.77841 10.2386C8.9678 9.95076 9.09848 9.62121 9.17045 9.25L10.9432 9.25568C10.8485 9.82765 10.6648 10.3542 10.392 10.8352C10.1231 11.3125 9.77652 11.7254 9.35227 12.0739C8.93182 12.4186 8.45076 12.6856 7.90909 12.875C7.36742 13.0644 6.77652 13.1591 6.13636 13.1591C5.12879 13.1591 4.23106 12.9205 3.44318 12.4432C2.6553 11.9621 2.03409 11.2746 1.57955 10.3807C1.12879 9.48674 0.903409 8.42045 0.903409 7.18182C0.903409 5.93939 1.13068 4.87311 1.58523 3.98295C2.03977 3.08901 2.66098 2.40341 3.44886 1.92614C4.23674 1.44508 5.13258 1.20455 6.13636 1.20455C6.75379 1.20455 7.32955 1.29356 7.86364 1.47159C8.40152 1.64583 8.88447 1.90341 9.3125 2.24432C9.74053 2.58144 10.0947 2.99432 10.375 3.48295C10.6553 3.9678 10.8447 4.52273 10.9432 5.14773ZM16.5838 13.1761C15.7656 13.1761 15.0516 12.9886 14.4418 12.6136C13.8319 12.2386 13.3584 11.714 13.0213 11.0398C12.6842 10.3655 12.5156 9.57765 12.5156 8.67614C12.5156 7.77083 12.6842 6.97917 13.0213 6.30114C13.3584 5.62311 13.8319 5.09659 14.4418 4.72159C15.0516 4.34659 15.7656 4.15909 16.5838 4.15909C17.402 4.15909 18.116 4.34659 18.7259 4.72159C19.3357 5.09659 19.8092 5.62311 20.1463 6.30114C20.4834 6.97917 20.652 7.77083 20.652 8.67614C20.652 9.57765 20.4834 10.3655 20.1463 11.0398C19.8092 11.714 19.3357 12.2386 18.7259 12.6136C18.116 12.9886 17.402 13.1761 16.5838 13.1761ZM16.5895 11.75C17.1198 11.75 17.5592 11.6098 17.9077 11.3295C18.2562 11.0492 18.5137 10.6761 18.6804 10.2102C18.8509 9.74432 18.9361 9.23106 18.9361 8.67045C18.9361 8.11364 18.8509 7.60227 18.6804 7.13636C18.5137 6.66667 18.2562 6.28977 17.9077 6.00568C17.5592 5.72159 17.1198 5.57955 16.5895 5.57955C16.0554 5.57955 15.6122 5.72159 15.2599 6.00568C14.9115 6.28977 14.652 6.66667 14.4815 7.13636C14.3149 7.60227 14.2315 8.11364 14.2315 8.67045C14.2315 9.23106 14.3149 9.74432 14.4815 10.2102C14.652 10.6761 14.9115 11.0492 15.2599 11.3295C15.6122 11.6098 16.0554 11.75 16.5895 11.75ZM22.5483 16.2727V4.27273H24.2074V5.6875H24.3494C24.4479 5.50568 24.59 5.29545 24.7756 5.05682C24.9612 4.81818 25.2188 4.60985 25.5483 4.43182C25.8778 4.25 26.3134 4.15909 26.8551 4.15909C27.5597 4.15909 28.1884 4.33712 28.7415 4.69318C29.2945 5.04924 29.7282 5.5625 30.0426 6.23295C30.3608 6.90341 30.5199 7.71023 30.5199 8.65341C30.5199 9.59659 30.3627 10.4053 30.0483 11.0795C29.7339 11.75 29.3021 12.267 28.7528 12.6307C28.2036 12.9905 27.5767 13.1705 26.8722 13.1705C26.3419 13.1705 25.9081 13.0814 25.571 12.9034C25.2377 12.7254 24.9763 12.517 24.7869 12.2784C24.5975 12.0398 24.4517 11.8277 24.3494 11.642H24.2472V16.2727H22.5483ZM24.2131 8.63636C24.2131 9.25 24.3021 9.78788 24.4801 10.25C24.6581 10.7121 24.9157 11.0739 25.2528 11.3352C25.59 11.5928 26.0028 11.7216 26.4915 11.7216C26.9991 11.7216 27.4233 11.5871 27.7642 11.3182C28.1051 11.0455 28.3627 10.6761 28.5369 10.2102C28.715 9.74432 28.804 9.2197 28.804 8.63636C28.804 8.06061 28.7169 7.54356 28.5426 7.08523C28.3722 6.62689 28.1146 6.26515 27.7699 6C27.429 5.73485 27.0028 5.60227 26.4915 5.60227C25.9991 5.60227 25.5824 5.72917 25.2415 5.98295C24.9044 6.23674 24.6487 6.59091 24.4744 7.04545C24.3002 7.5 24.2131 8.0303 24.2131 8.63636ZM33.2003 16.2727C32.9465 16.2727 32.7154 16.2519 32.5071 16.2102C32.2988 16.1723 32.1435 16.1307 32.0412 16.0852L32.4503 14.6932C32.7609 14.7765 33.0374 14.8125 33.2798 14.8011C33.5223 14.7898 33.7363 14.6989 33.9219 14.5284C34.1113 14.358 34.2779 14.0795 34.4219 13.6932L34.6321 13.1136L31.4389 4.27273H33.2571L35.4673 11.0455H35.5582L37.7685 4.27273H39.5923L35.9957 14.1648C35.8291 14.6193 35.617 15.0038 35.3594 15.3182C35.1018 15.6364 34.795 15.875 34.4389 16.0341C34.0829 16.1932 33.67 16.2727 33.2003 16.2727ZM47.1222 1.36364V13H45.4233V1.36364H47.1222ZM49.4077 13V4.27273H51.1065V13H49.4077ZM50.2656 2.92614C49.9702 2.92614 49.7164 2.82765 49.5043 2.63068C49.2959 2.42992 49.1918 2.19129 49.1918 1.91477C49.1918 1.63447 49.2959 1.39583 49.5043 1.19886C49.7164 0.998106 49.9702 0.897727 50.2656 0.897727C50.5611 0.897727 50.813 0.998106 51.0213 1.19886C51.2334 1.39583 51.3395 1.63447 51.3395 1.91477C51.3395 2.19129 51.2334 2.42992 51.0213 2.63068C50.813 2.82765 50.5611 2.92614 50.2656 2.92614ZM55.0909 7.81818V13H53.392V4.27273H55.0227V5.69318H55.1307C55.3314 5.23106 55.6458 4.85985 56.0739 4.57955C56.5057 4.29924 57.0492 4.15909 57.7045 4.15909C58.2992 4.15909 58.8201 4.28409 59.267 4.53409C59.714 4.7803 60.0606 5.14773 60.3068 5.63636C60.553 6.125 60.6761 6.72917 60.6761 7.44886V13H58.9773V7.65341C58.9773 7.02083 58.8125 6.52652 58.483 6.17045C58.1534 5.81061 57.7008 5.63068 57.125 5.63068C56.7311 5.63068 56.3807 5.71591 56.0739 5.88636C55.7708 6.05682 55.5303 6.30682 55.3523 6.63636C55.178 6.96212 55.0909 7.35606 55.0909 7.81818ZM64.517 10.0398L64.5057 7.96591H64.8011L68.2784 4.27273H70.3125L66.3466 8.47727H66.0795L64.517 10.0398ZM62.9545 13V1.36364H64.6534V13H62.9545ZM68.4659 13L65.3409 8.85227L66.5114 7.66477L70.5511 13H68.4659Z" fill="#181818"/>
</svg>
