<svg width="23" height="21" viewBox="0 0 23 21" fill="none" xmlns="http://www.w3.org/2000/svg">
<path d="M20.3493 3.64126C20.3493 4.24126 20.1193 4.81126 19.6893 5.23126L16.6693 8.26126L12.0693 3.66126L15.0993 0.641256C15.9493 -0.208745 17.4293 -0.218745 18.2793 0.641256L19.6893 2.05126C20.1193 2.47126 20.3493 3.04126 20.3493 3.64126Z" fill="#607D8B"/>
<path d="M16.6697 8.26126L5.9097 19.0213C5.8097 19.1213 5.6797 19.1913 5.5497 19.2213L0.919699 20.3113L0.749699 20.3313C0.549699 20.3313 0.359699 20.2513 0.219699 20.1113C0.0396986 19.9313 -0.0403014 19.6613 0.0196986 19.4113L1.1097 14.7813C1.1397 14.6513 1.2097 14.5213 1.3097 14.4213L12.0697 3.66125L16.6697 8.26126Z" fill="#90A4AE"/>
<path d="M16.6943 0.000244141C16.1103 0.000244141 15.5253 0.215244 15.0993 0.641244L12.0693 3.66124L14.3903 5.98224L19.0053 1.36724L18.2793 0.641244C17.8553 0.212244 17.2753 0.000244141 16.6943 0.000244141V0.000244141Z" fill="#546D79"/>
<path d="M12.0697 3.66125L1.3097 14.4213C1.2097 14.5213 1.1397 14.6513 1.1097 14.7813L0.0196986 19.4113C-0.0403014 19.6613 0.0396986 19.9313 0.219699 20.1113C0.226699 20.1183 0.233699 20.1253 0.241699 20.1323L14.3917 5.98225L12.0697 3.66125Z" fill="#7D8F97"/>
<path d="M21.9995 20.3313H8.99951C8.44751 20.3313 7.99951 19.8833 7.99951 19.3313C7.99951 18.7793 8.44751 18.3313 8.99951 18.3313H21.9995C22.5515 18.3313 22.9995 18.7793 22.9995 19.3313C22.9995 19.8833 22.5515 20.3313 21.9995 20.3313Z" fill="#607D8B"/>
<path d="M15.4995 18.3313H8.99951C8.44751 18.3313 7.99951 18.7793 7.99951 19.3313C7.99951 19.8833 8.44751 20.3313 8.99951 20.3313H15.4995V18.3313Z" fill="#546D79"/>
</svg>
