<svg width="25" height="24" viewBox="0 0 25 24" fill="none" xmlns="http://www.w3.org/2000/svg">
<rect width="24.1062" height="24" rx="12" fill="#181818"/>
<path d="M16.1412 8.69941L16.2124 8.62854L16.1412 8.55767L15.5099 7.92913L15.4394 7.85889L15.3688 7.92913L12.0529 11.2305L8.73705 7.92913L8.66649 7.85889L8.59594 7.92913L7.9646 8.55767L7.89342 8.62854L7.9646 8.69941L11.2799 12L7.9646 15.3006L7.89342 15.3715L7.9646 15.4423L8.59594 16.0709L8.66649 16.1411L8.73704 16.0709L12.0529 12.7697L15.3688 16.0709L15.4394 16.1411L15.5099 16.0709L16.1412 15.4423L16.2124 15.3715L16.1412 15.3006L12.826 12L16.1412 8.69941Z" fill="white" stroke="white" stroke-width="0.2"/>
</svg>
