<svg width="24" height="24" viewBox="0 0 24 24" fill="none" xmlns="http://www.w3.org/2000/svg">
<path d="M2.23902 18.967L2.21558 18.9956L2.73511 19.632C2.87964 19.809 3.02905 19.9809 3.18091 20.144C3.25904 20.228 3.3374 20.3115 3.39404 20.363L3.44263 20.4111C3.57056 20.539 3.69898 20.6669 3.83545 20.7985C3.948 20.9055 4.06543 21.008 4.19702 21.1215L4.25 21.165C4.29151 21.196 4.33057 21.2285 4.37061 21.2619L4.44702 21.3249C4.61304 21.4626 4.77906 21.5886 4.92505 21.6899C5.11695 21.8339 5.32764 21.9775 5.56592 22.1291L5.54102 22.1391L5.74512 22.2409C5.81446 22.2834 5.88306 22.3259 5.95801 22.3706C6.16895 22.4929 6.38062 22.6091 6.56763 22.6994C6.64014 22.7375 6.71753 22.7761 6.79493 22.8139L6.93848 22.8835C7.02344 22.9221 7.10962 22.955 7.19458 22.9924C7.27857 23.0295 7.36304 23.0654 7.44849 23.101C7.4834 23.1154 7.51758 23.1315 7.55249 23.1455L7.75757 23.26H7.844C7.84449 23.26 7.84546 23.2604 7.84595 23.2604L8.0066 23.321L8.01197 23.3185C8.05909 23.3349 8.10596 23.3525 8.15259 23.3679C8.20801 23.3864 8.26514 23.4025 8.32105 23.4206C8.39551 23.4445 8.46998 23.468 8.54493 23.4904C8.56641 23.497 8.58741 23.5046 8.60914 23.5104C8.65992 23.529 8.69507 23.5375 8.70044 23.5385C8.79859 23.5676 8.89356 23.5925 8.98414 23.6154C9.02393 23.6259 9.06446 23.6345 9.1045 23.6445C9.11597 23.6469 9.13062 23.6511 9.1421 23.6535C9.14698 23.655 9.15211 23.6555 9.15699 23.6564C9.50098 23.7404 9.8501 23.8115 10.2046 23.8649C10.2295 23.8691 10.2546 23.8745 10.2795 23.8784L10.4121 23.895C10.4861 23.904 10.5596 23.9116 10.6336 23.9199C10.6995 23.9274 10.7644 23.936 10.8311 23.9421C10.8406 23.9431 10.8506 23.9445 10.8606 23.9455C11.032 23.9614 11.2014 23.9765 11.3535 23.9819C11.5681 23.9936 11.783 23.9999 12 23.9999C12.1799 23.9999 12.3535 23.9951 12.5215 23.987C12.5911 23.9841 12.6594 23.9799 12.7285 23.976C12.8645 23.9685 13.0061 23.9575 13.1545 23.9435C13.1914 23.9399 13.2285 23.937 13.2656 23.9331C13.2935 23.9299 13.3181 23.9284 13.3474 23.925L13.5291 23.9035C13.6836 23.8859 13.8445 23.862 13.9605 23.8391C14.0005 23.833 14.0405 23.8225 14.0806 23.8159C14.2246 23.7905 14.3684 23.7646 14.5105 23.7341C14.512 23.7336 14.5139 23.7336 14.5156 23.7331C14.6275 23.7114 14.7429 23.685 14.8474 23.6601C14.8955 23.6489 14.9426 23.635 14.9905 23.6225C14.9934 23.6215 14.9971 23.621 15 23.6201C15.0754 23.6005 15.1511 23.582 15.2251 23.5615L15.4541 23.496C15.4929 23.4841 15.5249 23.4726 15.563 23.4599C15.5645 23.4594 15.5654 23.4589 15.5671 23.4584C15.6685 23.4265 15.7715 23.394 15.8584 23.363L16.0244 23.311C16.2224 23.239 16.4204 23.1621 16.596 23.0871C16.6184 23.0781 16.6406 23.0666 16.6636 23.0571C16.6694 23.0544 16.6751 23.0515 16.6809 23.049C16.854 22.9765 17.0271 22.8996 17.1956 22.82C17.3936 22.7265 17.5855 22.623 17.7756 22.5195C17.9446 22.4279 18.1045 22.3325 18.2639 22.236L18.45 22.121C18.5759 22.0385 18.699 21.958 18.822 21.871C18.8765 21.8359 18.9351 21.7966 18.9795 21.7624C19.0945 21.6784 19.21 21.5935 19.323 21.5061L19.4255 21.4289C19.5811 21.3061 19.7361 21.1774 19.8855 21.0495L20.0271 20.9279L20.0339 20.915C20.1484 20.812 20.261 20.7036 20.3779 20.591C20.531 20.444 20.6831 20.2861 20.8316 20.1264C20.9785 19.9685 21.1211 19.8044 21.2576 19.6411L21.7891 19.0029L21.76 18.968C23.168 17.0014 24 14.5964 24 11.9999C24 9.40351 23.168 6.99848 21.761 5.03242L21.7901 4.99751L21.2586 4.35957C21.1226 4.196 20.9795 4.03242 20.8316 3.87251C20.688 3.71894 20.5405 3.57051 20.3716 3.40254C20.2595 3.2956 20.1484 3.18843 20.0344 3.0854L19.886 2.95088C19.7366 2.82295 19.5816 2.69404 19.426 2.57148L19.3235 2.49458C19.2109 2.40693 19.0974 2.32344 18.99 2.24507C18.9365 2.20503 18.8775 2.16499 18.8225 2.13008C18.6995 2.04292 18.5764 1.9626 18.4505 1.88008L18.2854 1.77192L18.2644 1.76509C18.1055 1.66841 17.9451 1.57295 17.7781 1.48237C17.5859 1.37788 17.3936 1.27388 17.1961 1.1811C16.9995 1.08809 16.7976 0.996045 16.614 0.921582C16.4209 0.838574 16.2236 0.761425 16.0249 0.689892L15.8779 0.644482C15.7385 0.594433 15.5991 0.55 15.4336 0.498974L15.2224 0.438427C15.1116 0.406933 14.9951 0.375439 14.8784 0.348095L14.74 0.314404C14.6741 0.299512 14.606 0.283887 14.541 0.271435L14.4446 0.239941H14.396C14.2886 0.216015 14.178 0.195508 14.0686 0.177441L13.9985 0.167431C13.844 0.13789 13.6831 0.113965 13.5571 0.100049L13.3101 0.0705076C13.2876 0.0680662 13.2656 0.0666014 13.2429 0.0644041C13.2246 0.062451 13.2056 0.0609861 13.187 0.0595213C13.0276 0.0443846 12.8701 0.0319334 12.7241 0.0238767C12.6604 0.0199705 12.5964 0.0165526 12.5325 0.0133787C12.1506 -0.00590837 11.7524 -0.00346697 11.417 0.0150877C11.3115 0.0199705 11.2065 0.029492 11.1016 0.0375486C11.0215 0.0438963 10.9414 0.0470701 10.8621 0.0548826C10.8535 0.0561034 10.8445 0.0570799 10.8359 0.0580565C10.7625 0.0648924 10.6899 0.0744139 10.6169 0.0829588C10.543 0.0915037 10.4695 0.0985838 10.3955 0.108105L10.2896 0.120068C10.2625 0.123974 10.2341 0.130078 10.207 0.134472C9.95264 0.173047 9.70142 0.220898 9.45264 0.275097L9.44263 0.277051C9.3545 0.293408 9.27198 0.313427 9.17359 0.339062C9.14356 0.34541 9.11451 0.353467 9.08448 0.360547C9.0525 0.368603 9.02051 0.375439 8.98902 0.383496C8.89747 0.406445 8.80958 0.429394 8.73462 0.452099C8.70997 0.458447 8.667 0.469433 8.61304 0.488476L8.58912 0.495068C8.43262 0.537549 8.2815 0.5854 8.15601 0.631054C8.10791 0.646924 8.06104 0.664502 8.01294 0.681103L8.00708 0.678418L7.83545 0.742871C7.83448 0.743603 7.8335 0.743603 7.83252 0.744091L7.73951 0.746045L7.40357 0.916455C7.3335 0.945507 7.26441 0.976513 7.19507 1.00703C7.11011 1.04438 7.02344 1.07808 6.93897 1.11592L6.79541 1.1855C6.71802 1.22407 6.64014 1.26191 6.60498 1.28193C6.47754 1.34248 6.35059 1.40889 6.25513 1.46455C6.1731 1.50801 6.08692 1.55488 6.00391 1.60298L5.76514 1.74604C5.7605 1.74849 5.75611 1.75142 5.75196 1.75459L5.54151 1.86103L5.56592 1.87056C5.52759 1.89497 5.48804 1.91841 5.44947 1.94355L5.34912 2.01143L5.34595 2.0146C5.20752 2.1064 5.07642 2.19844 4.97193 2.27656C4.94092 2.29707 4.90992 2.31953 4.86206 2.35493C4.74903 2.43403 4.63745 2.51753 4.52954 2.61006C4.5 2.63252 4.4751 2.65205 4.45508 2.66841L4.21558 2.86641C4.08692 2.97187 3.95752 3.08393 3.81763 3.21797L3.66553 3.36543C3.56812 3.45259 3.47559 3.54438 3.38355 3.64595C3.31299 3.71357 3.24756 3.7834 3.18408 3.85249C3.02857 4.01899 2.87964 4.19087 2.73511 4.36787L2.21558 5.00459L2.23902 5.03291C0.831543 6.99897 0 9.40351 0 11.9999C0 14.5964 0.831543 17.0009 2.23902 18.967V18.967ZM11.0071 2.05049C11.334 2.01802 11.665 1.99995 12 1.99995C12.6809 1.99995 13.346 2.06953 13.989 2.1999C14.0005 2.20259 14.0125 2.20405 14.0234 2.20698L14.1406 2.24556H14.1741C16.0935 2.67305 17.8054 3.65058 19.136 5.00801C18.0256 6.13398 16.656 6.98799 15.1636 7.48799L15.1555 7.4626L15.114 7.47554C15.1011 7.44355 15.0845 7.41255 15.0711 7.38056C14.9924 7.19355 14.9089 7.00898 14.8211 6.82588C14.791 6.76338 14.7625 6.6999 14.731 6.63789C14.6111 6.4001 14.4846 6.16548 14.3496 5.93598C14.3291 5.90107 14.3059 5.86738 14.2849 5.83296C14.168 5.63911 14.0454 5.44892 13.918 5.26191C13.8716 5.19404 13.824 5.12739 13.7761 5.0605C13.6621 4.90058 13.544 4.74409 13.4226 4.59004C13.3755 4.53047 13.3296 4.46992 13.2815 4.41157C13.1135 4.20649 12.9399 4.00557 12.759 3.81196C12.7415 3.79341 12.7229 3.77607 12.7051 3.75752C12.5396 3.58296 12.3684 3.41401 12.1936 3.24946C12.1336 3.19307 12.0725 3.13838 12.011 3.08345C11.8674 2.95405 11.721 2.82856 11.5715 2.70601C11.509 2.65498 11.447 2.60298 11.3836 2.55293C11.178 2.39155 10.9685 2.23457 10.7524 2.08638C10.8154 2.07856 10.8765 2.0644 10.9399 2.05806C10.9624 2.05537 10.9846 2.05244 11.0071 2.05049V2.05049ZM14.0459 21.788C14.0271 21.7924 14.0071 21.7961 13.988 21.8005C13.6726 21.8644 13.3525 21.914 13.0271 21.9475C13.022 21.9479 13.0166 21.9484 13.0115 21.9489C12.679 21.9824 12.3416 21.9999 12 21.9999C11.6641 21.9999 11.332 21.9819 11.0046 21.9494C10.9841 21.9475 10.9631 21.945 10.9426 21.9426C10.8779 21.9355 10.8164 21.9216 10.7524 21.9135C10.9685 21.7656 11.178 21.6086 11.3836 21.447C11.447 21.3969 11.509 21.3449 11.5715 21.2939C11.721 21.1716 11.8674 21.0461 12.011 20.9165C12.072 20.8615 12.1336 20.8071 12.1936 20.7504C12.3691 20.5859 12.54 20.4169 12.7051 20.2424C12.7224 20.2241 12.7415 20.2065 12.759 20.1879C12.9399 19.9946 13.113 19.7934 13.2815 19.5886C13.3296 19.53 13.3755 19.4694 13.4226 19.4101C13.544 19.2561 13.6621 19.0991 13.7761 18.9394C13.824 18.8725 13.8716 18.8054 13.918 18.738C14.0454 18.551 14.168 18.361 14.2849 18.1669C14.3059 18.1325 14.3291 18.0986 14.3496 18.0639C14.4851 17.8344 14.6111 17.6005 14.731 17.362C14.7625 17.3 14.791 17.2365 14.8211 17.174C14.9089 16.9914 14.9924 16.8071 15.0711 16.6196C15.0845 16.5876 15.1006 16.5566 15.114 16.5246L15.1555 16.5375L15.1636 16.5119C16.656 17.0119 18.0256 17.8659 19.136 18.9919C17.7761 20.3806 16.0181 21.3759 14.0459 21.788V21.788ZM13.1165 16.1064C13.0086 16.3444 12.8894 16.5771 12.7634 16.8049C12.739 16.8496 12.7151 16.895 12.6899 16.9389C12.5576 17.1699 12.416 17.3955 12.2656 17.6149C12.2351 17.6601 12.2031 17.704 12.1716 17.748C12.0129 17.9726 11.8479 18.1926 11.6716 18.403C11.667 18.4079 11.6626 18.413 11.658 18.4184C11.4829 18.6264 11.2981 18.8254 11.1069 19.0185C11.0715 19.0544 11.0366 19.091 11.0005 19.1264C10.8096 19.3144 10.6111 19.4946 10.4055 19.6669C10.3669 19.6994 10.3269 19.7309 10.2881 19.7624C10.073 19.9374 9.85303 20.1064 9.62403 20.2634C9.62305 20.2641 9.62208 20.2651 9.6211 20.2656C9.39161 20.4226 9.15308 20.5676 8.91114 20.705C8.86597 20.7304 8.82154 20.7565 8.77662 20.7814C8.53956 20.9116 8.29712 21.0319 8.04957 21.1425C8.03492 21.1489 8.02002 21.155 8.00562 21.1616C7.76001 21.0539 7.51856 20.9394 7.28394 20.8134C7.25611 20.7985 7.22803 20.7834 7.20044 20.7685C6.33545 20.2929 5.55005 19.6921 4.86402 18.9919C7.00708 16.8134 10.0554 15.7165 13.1375 16.0649C13.1306 16.0786 13.1231 16.0925 13.1165 16.1064ZM6.39991 3.71943C6.40699 3.71504 6.41407 3.70991 6.4209 3.70503C6.91846 3.36958 7.44947 3.08149 8.00513 2.83809C8.02051 2.84492 8.03711 2.85102 8.0525 2.8581C8.29859 2.96797 8.53956 3.0876 8.77491 3.2165C8.82154 3.24189 8.86695 3.2685 8.91358 3.29487C9.15503 3.43257 9.39258 3.57661 9.62159 3.7331C9.62305 3.73408 9.62452 3.73555 9.62647 3.73652C9.85499 3.89302 10.0745 4.06147 10.2886 4.23603C10.3281 4.26802 10.3674 4.29951 10.4065 4.33198C10.6121 4.50459 10.8106 4.68452 11.0015 4.87251C11.0376 4.90742 11.072 4.94404 11.1074 4.97993C11.2991 5.17353 11.4846 5.373 11.6594 5.581C11.6636 5.58589 11.668 5.59053 11.6726 5.59541C11.8491 5.80659 12.0139 6.02656 12.1731 6.25093C12.2041 6.29487 12.2361 6.33906 12.2666 6.38349C12.4165 6.60298 12.5586 6.82856 12.6909 7.06001C12.7166 7.10444 12.74 7.14961 12.7644 7.19404C12.8906 7.42256 13.0095 7.65449 13.1174 7.89253C13.124 7.90644 13.1311 7.91987 13.1375 7.93452C10.0544 8.28511 7.00708 7.1855 4.86402 5.00703C5.33155 4.52998 5.84449 4.09639 6.39991 3.71943ZM12 9.99995C12.5891 9.99995 13.1799 9.95161 13.7671 9.86494C13.9194 10.5639 14 11.2785 14 11.9999C14 12.7214 13.9194 13.436 13.7671 14.135C13.1799 14.0485 12.5891 13.9999 12 13.9999C8.8396 13.9999 5.84595 15.2336 3.6084 17.4199C2.59497 15.8564 2 13.998 2 11.9999C2 10.0019 2.59497 8.1435 3.6084 6.58003C5.84595 8.76655 8.8396 9.99995 12 9.99995ZM20.387 17.4274C19.0769 16.1516 17.489 15.1784 15.7595 14.6054L15.7766 14.5515L15.7246 14.5395C15.9041 13.708 16 12.8581 16 11.9999C16 11.142 15.9041 10.2919 15.7246 9.45991L15.7766 9.44795L15.7595 9.39399C17.489 8.82099 19.0769 7.84809 20.387 6.57197C21.4031 8.1374 22 9.99897 22 11.9999C22 14.0009 21.4031 15.8625 20.387 17.4274Z" fill="#181818"/>
</svg>
