<svg width="19" height="18" viewBox="0 0 19 18" fill="none" xmlns="http://www.w3.org/2000/svg">
<path d="M1.26052 18C1.08098 17.9996 0.903596 17.9609 0.74018 17.8865C0.576764 17.8122 0.431072 17.7038 0.312813 17.5687C0.194554 17.4336 0.106444 17.2749 0.0543515 17.1031C0.00225958 16.9313 -0.0126171 16.7503 0.0107127 16.5723L0.462121 13.1227C0.503369 12.8106 0.646181 12.5206 0.86853 12.2976L12.7616 0.404537C13.0214 0.145477 13.3733 0 13.7402 0C14.1071 0 14.459 0.145477 14.7188 0.404537L17.5953 3.28104C17.8543 3.54083 17.9998 3.89274 17.9998 4.25962C17.9998 4.6265 17.8543 4.97841 17.5953 5.2382L5.70219 17.1313C5.47925 17.3537 5.18928 17.4965 4.87707 17.5377L1.42752 17.9891C1.37215 17.9964 1.31637 18 1.26052 18V18ZM2.19041 13.4617L1.83709 16.1627L4.53816 15.8094L16.0877 4.2598L13.74 1.91205L2.19041 13.4617Z" fill="black"/>
<path d="M14.3036 8.1662C14.1883 8.16654 14.074 8.14411 13.9673 8.10019C13.8607 8.05627 13.7637 7.99173 13.682 7.91026L10.0898 4.31798C9.92493 4.15295 9.83239 3.92918 9.83252 3.69592C9.83265 3.46266 9.92544 3.239 10.0905 3.07415C10.2555 2.9093 10.4793 2.81676 10.7125 2.81689C10.9458 2.81703 11.1695 2.90982 11.3343 3.07485L14.9252 6.66573C15.0481 6.78864 15.1319 6.94526 15.1658 7.11578C15.1997 7.28629 15.1823 7.46304 15.1158 7.62366C15.0492 7.78428 14.9366 7.92155 14.792 8.01813C14.6474 8.1147 14.4775 8.16623 14.3036 8.1662V8.1662Z" fill="black"/>
<path d="M11 16C10.4477 16 10 16.4477 10 17C10 17.5523 10.4477 18 11 18V16ZM18 18C18.5523 18 19 17.5523 19 17C19 16.4477 18.5523 16 18 16V18ZM11 18H18V16H11V18Z" fill="black"/>
</svg>
