<svg width="16" height="16" viewBox="0 0 16 16" fill="none" xmlns="http://www.w3.org/2000/svg">
<path d="M1.12046 15.9999C0.960869 15.9995 0.803192 15.9651 0.657934 15.899C0.512676 15.8329 0.383173 15.7366 0.278055 15.6166C0.172936 15.4965 0.0946159 15.3554 0.0483122 15.2026C0.0020085 15.0499 -0.0112152 14.8891 0.00952233 14.7308L0.410772 11.6646C0.447437 11.3871 0.574379 11.1294 0.772022 10.9312L11.3436 0.359586C11.5745 0.129312 11.8873 0 12.2134 0C12.5395 0 12.8523 0.129312 13.0833 0.359586L15.6401 2.91646C15.8704 3.14738 15.9997 3.46019 15.9997 3.78631C15.9997 4.11242 15.8704 4.42523 15.6401 4.65615L5.06858 15.2277C4.87041 15.4254 4.61266 15.5524 4.33515 15.589L1.2689 15.9902C1.21968 15.9967 1.1701 15.9999 1.12046 15.9999V15.9999ZM1.94702 11.9658L1.63296 14.3668L4.0339 14.0527L14.3001 3.78646L12.2133 1.69959L1.94702 11.9658Z" fill="black"/>
<path d="M12.7145 7.25882C12.612 7.25912 12.5104 7.23918 12.4156 7.20014C12.3208 7.1611 12.2346 7.10373 12.162 7.03132L8.9689 3.8382C8.82237 3.6915 8.74012 3.4926 8.74023 3.28526C8.74035 3.07791 8.82283 2.87911 8.96953 2.73258C9.11623 2.58604 9.31512 2.50379 9.52247 2.50391C9.72981 2.50402 9.92862 2.5865 10.0752 2.7332L13.267 5.92507C13.3763 6.03433 13.4507 6.17355 13.4809 6.32511C13.511 6.47668 13.4956 6.63379 13.4364 6.77656C13.3773 6.91933 13.2771 7.04136 13.1486 7.1272C13.0201 7.21304 12.8691 7.25885 12.7145 7.25882V7.25882Z" fill="black"/>
</svg>
