<svg width="196" height="34" viewBox="0 0 196 34" fill="none" xmlns="http://www.w3.org/2000/svg">
<path d="M9.10591 27.9895C10.0918 27.9895 11.0212 27.7507 11.8946 27.2715C12.7669 26.793 13.5213 26.1523 14.1551 25.3488C14.7889 24.5461 15.289 23.6379 15.6554 22.6234C16.0209 21.6093 16.2045 20.5531 16.2045 19.4544C16.2045 18.1029 15.9784 17.0463 15.5286 16.2854C15.0776 15.5248 14.2463 15.1445 13.0355 15.1445C12.6401 15.1445 12.1269 15.2153 11.4931 15.3559C10.9559 15.4757 10.4636 15.7068 10.0168 16.0489C9.86067 16.1691 9.75671 16.3472 9.71034 16.5389L6.99309 27.8206C7.16236 27.8488 7.31 27.8774 7.43676 27.9053C7.56352 27.9339 7.69724 27.9551 7.8383 27.9686C7.97858 27.9829 8.14785 27.9895 8.34533 27.9895H9.10591ZM14.5987 9.9052C15.951 9.9052 17.1197 10.1448 18.1059 10.6233C19.0918 11.1025 19.908 11.7502 20.5565 12.5672C21.2042 13.3842 21.6831 14.3422 21.9934 15.4402C22.303 16.5389 22.4579 17.7219 22.4579 18.9895C22.4579 20.9338 22.0989 22.7715 21.3805 24.5036C20.6624 26.2365 19.6831 27.7433 18.4441 29.0249C17.2035 30.3068 15.7396 31.3216 14.0496 32.0671C12.3596 32.8134 10.5281 33.1867 8.55673 33.1867C8.30321 33.1867 7.85954 33.1798 7.22574 33.1658C6.59193 33.1512 5.86616 33.0886 5.04955 32.9757C4.23218 32.8629 3.36572 32.6936 2.45095 32.4687C1.79898 32.3083 1.17213 32.1054 0.570016 31.8588C0.156497 31.6899 -0.0792545 31.2509 0.0243185 30.8161L7.02323 1.40526C7.1071 1.05203 7.39656 0.784593 7.75636 0.728942L12.3936 0.0108864C13.022 -0.0865032 13.5487 0.485082 13.3999 1.10382L11.4776 9.10136C11.318 9.76608 11.9317 10.3465 12.5914 10.1664C12.6552 10.1487 12.7186 10.1324 12.782 10.1162C13.3451 9.97553 13.9503 9.9052 14.5987 9.9052Z" fill="black"/>
<path d="M32.2614 32.3225C32.1598 32.7384 31.7764 33.0205 31.349 33.0054C29.6984 32.9478 28.3763 32.6912 27.3808 32.2367C26.2391 31.7158 25.4225 31.0047 24.9294 30.1027C24.4363 29.2014 24.197 28.1665 24.2117 26.997C24.2256 25.8284 24.3868 24.582 24.6975 23.2576L29.9241 1.40483C30.0087 1.05198 30.2982 0.784939 30.6568 0.729288L35.2933 0.0116217C35.9224 -0.0857679 36.4492 0.486584 36.2996 1.10532L30.7399 24.1449C30.6271 24.652 30.5637 25.1169 30.5498 25.5393C30.5347 25.9621 30.6132 26.3354 30.782 26.6593C30.9509 26.9831 31.2396 27.2444 31.6481 27.4407C31.8622 27.5443 32.1204 27.6285 32.4234 27.6927C32.9231 27.7993 33.2462 28.2859 33.1252 28.7825L32.2614 32.3225Z" fill="black"/>
<path d="M48.4856 14.7642C47.0491 14.7642 45.7881 15.2786 44.7041 16.3066C43.9033 17.066 43.3062 18.0055 42.9124 19.1251C42.6995 19.7299 43.1663 20.3664 43.8063 20.3251C44.9943 20.2489 45.9902 20.1206 46.7956 19.9402C47.8657 19.7013 48.697 19.4126 49.2887 19.0741C49.88 18.7359 50.2742 18.3703 50.4717 17.9761C50.6684 17.5819 50.7673 17.187 50.7673 16.7928C50.7673 15.4401 50.0068 14.7642 48.4856 14.7642ZM36.1898 23.891C36.1898 22.0889 36.5067 20.3417 37.1405 18.6517C37.7743 16.962 38.6686 15.4618 39.8238 14.152C40.9785 12.8423 42.3802 11.7857 44.0281 10.9826C45.676 10.1803 47.4994 9.7784 49.4997 9.7784C50.4856 9.7784 51.4011 9.91984 52.2463 10.2012C53.0915 10.4833 53.8309 10.8914 54.4647 11.4263C55.0985 11.9619 55.5912 12.6166 55.9437 13.3911C56.2954 14.1663 56.4716 15.0459 56.4716 16.0318C56.4716 17.6098 56.1191 18.9473 55.4154 20.046C54.7108 21.1444 53.7319 22.0391 52.4786 22.7289C51.2249 23.4199 49.739 23.92 48.0211 24.2292C46.6244 24.4815 45.1265 24.6303 43.5261 24.6778C42.9236 24.6952 42.4935 25.3089 42.7165 25.8693C42.9491 26.4521 43.2738 26.8981 43.69 27.2084C44.3516 27.7016 45.4013 27.9473 46.8377 27.9473C47.739 27.9473 48.6549 27.8704 49.5844 27.7151C50.132 27.6239 50.6603 27.5056 51.1689 27.3611C51.7099 27.2065 52.256 27.5721 52.3086 28.1317L52.6034 31.2679C52.6425 31.6833 52.3944 32.0721 51.9975 32.2016C51.3324 32.4184 50.549 32.6205 49.6477 32.8072C48.4223 33.0599 47.0913 33.1867 45.6548 33.1867C43.9079 33.1867 42.4363 32.9401 41.2394 32.4474C40.0417 31.9546 39.0698 31.286 38.3239 30.4405C37.5772 29.5953 37.035 28.6094 36.6969 27.4832C36.3591 26.3563 36.1898 25.1586 36.1898 23.891Z" fill="black"/>
<path d="M61.0413 11.8846C61.1159 11.575 61.3497 11.3296 61.655 11.2368C61.9967 11.134 62.3603 11.0212 62.7464 10.8983C63.3234 10.7155 63.9715 10.5466 64.6899 10.3912C65.4084 10.2374 66.2111 10.1099 67.098 10.011C67.9857 9.9128 68.9925 9.86333 70.1194 9.86333C73.443 9.86333 75.7247 10.821 76.9645 12.7363C78.2039 14.6524 78.4145 17.2719 77.5979 20.5955L74.8896 31.9097C74.7933 32.3124 74.4335 32.5957 74.0196 32.5957H69.561C68.9832 32.5957 68.5573 32.0566 68.6907 31.4946L71.2181 20.849C71.387 20.1171 71.52 19.4063 71.6197 18.7153C71.7175 18.0255 71.7109 17.4199 71.5984 16.8986C71.4856 16.3776 71.2243 15.9548 70.8166 15.631C70.4077 15.3079 69.7809 15.1448 68.9364 15.1448C68.3069 15.1448 67.6688 15.195 67.0226 15.2955C66.6702 15.3504 66.39 15.6232 66.3069 15.9703L62.5087 31.9089C62.4125 32.3116 62.0527 32.5957 61.6384 32.5957H57.1848C56.6062 32.5957 56.1796 32.0546 56.3148 31.4919L61.0413 11.8846Z" fill="black"/>
<path d="M95.1753 15.3984C95.0065 15.3706 94.8592 15.342 94.7325 15.3138C94.6049 15.286 94.4781 15.2647 94.3514 15.2504C94.2246 15.2365 94.0623 15.2292 93.8656 15.2292H93.105C92.1188 15.2292 91.2036 15.4618 90.3584 15.926C89.514 16.3913 88.7878 17.0185 88.183 17.8069C87.5766 18.5957 87.1052 19.4903 86.7674 20.4897C86.4288 21.4899 86.26 22.5114 86.26 23.5533C86.26 24.9055 86.4922 25.9691 86.9575 26.7435C87.4221 27.5184 88.2599 27.9049 89.4719 27.9049C90.1188 27.9049 90.7105 27.7781 91.2458 27.525C91.7072 27.3066 92.1899 26.9619 92.6935 26.4923C92.8511 26.3451 92.9447 26.1422 92.9648 25.9277C93.0216 25.3237 93.1035 24.6941 93.2106 24.039C93.3381 23.2646 93.471 22.5535 93.6121 21.9054L95.1753 15.3984ZM87.9078 33.1867C86.4992 33.1867 85.2949 32.9475 84.2955 32.4687C83.295 31.9902 82.4784 31.3352 81.8446 30.5039C81.2107 29.6733 80.7458 28.7014 80.4502 27.5884C80.1549 26.4761 80.0069 25.285 80.0069 24.0182C80.0069 22.1029 80.3513 20.293 81.0415 18.5879C81.7317 16.8844 82.6824 15.3984 83.8936 14.1308C85.1048 12.8632 86.5413 11.8634 88.2043 11.1307C89.8653 10.3983 91.6829 10.032 93.6542 10.032C94.1613 10.032 94.6327 10.0606 95.0698 10.1166C95.2341 10.1378 95.3995 10.1634 95.5657 10.1923C96.0364 10.2754 96.492 9.9879 96.6033 9.52299L98.5434 1.40525C98.628 1.05164 98.9175 0.784201 99.2761 0.728936L103.914 0.0108803C104.543 -0.0865093 105.069 0.485462 104.92 1.10381L99.6545 23.0041C99.2595 24.6095 99.1475 26.2226 99.3163 27.8415C99.4431 29.0566 99.6568 30.1723 99.9579 31.1883C100.112 31.712 99.7704 32.2468 99.2298 32.3241L95.3145 32.883C94.9245 32.9386 94.5443 32.7299 94.3758 32.374C94.3159 32.2488 94.2587 32.1251 94.2038 32.0041C94.2026 32.001 94.2011 31.9979 94.1995 31.9948C93.9665 31.4832 93.3435 31.3069 92.8743 31.6165C92.3333 31.974 91.7551 32.2859 91.1403 32.5533C90.1683 32.9753 89.0908 33.1867 87.9078 33.1867Z" fill="black"/>
<path d="M111.696 7.66639C110.823 7.66639 110.033 7.40592 109.33 6.88419C108.626 6.36362 108.273 5.56788 108.273 4.49737C108.273 3.90531 108.393 3.34956 108.633 2.82783C108.872 2.30726 109.189 1.85626 109.583 1.47559C109.978 1.09569 110.435 0.793477 110.957 0.56778C111.477 0.34247 112.034 0.229233 112.626 0.229233C113.499 0.229233 114.287 0.490479 114.992 1.01144C115.696 1.53278 116.048 2.32851 116.048 3.39864C116.048 3.98955 115.929 4.54606 115.689 5.06779C115.449 5.58913 115.133 6.03937 114.738 6.41966C114.344 6.79955 113.887 7.10254 113.365 7.32823C112.844 7.55393 112.287 7.66639 111.696 7.66639ZM107.949 32.5958H103.533C102.955 32.5958 102.529 32.0563 102.662 31.4948L107.519 11.0584C107.615 10.6549 107.975 10.3705 108.389 10.3705H112.844C113.422 10.3705 113.849 10.9112 113.714 11.4731L108.818 31.9094C108.722 32.3121 108.362 32.5958 107.949 32.5958Z" fill="black"/>
<path d="M114.358 23.7221C114.358 21.8068 114.668 20.0039 115.287 18.3143C115.907 16.6243 116.794 15.1453 117.949 13.8777C119.104 12.61 120.506 11.6103 122.154 10.8771C123.802 10.1448 125.64 9.7784 127.668 9.7784C128.935 9.7784 130.069 9.89897 131.069 10.1382C131.735 10.2978 132.362 10.4918 132.947 10.7206C133.418 10.9046 133.636 11.4495 133.432 11.9132L131.98 15.2168C131.791 15.6442 131.308 15.8552 130.868 15.6998C130.547 15.5858 130.219 15.4788 129.886 15.3775C129.28 15.1943 128.54 15.1031 127.668 15.1031C125.555 15.1031 123.893 15.8142 122.681 17.2364C121.47 18.6594 120.865 20.596 120.865 23.0466C120.865 24.4834 121.174 25.6452 121.794 26.5321C122.414 27.4198 123.555 27.8631 125.217 27.8631C126.034 27.8631 126.822 27.7785 127.583 27.61C127.934 27.5323 128.266 27.4453 128.581 27.3495C129.118 27.1856 129.666 27.5667 129.718 28.1255L130.013 31.3212C130.051 31.7343 129.8 32.1154 129.408 32.2522C128.805 32.4632 128.161 32.6553 127.478 32.8284C126.534 33.0676 125.385 33.1871 124.034 33.1871C122.287 33.1871 120.808 32.9335 119.597 32.4269C118.385 31.9195 117.386 31.2373 116.597 30.3771C115.808 29.5187 115.238 28.512 114.886 27.3564C114.533 26.2017 114.358 24.9905 114.358 23.7221Z" fill="black"/>
<path d="M144.231 15.1024C143.301 15.1024 142.484 15.3702 141.781 15.905C141.076 16.4407 140.484 17.1166 140.006 17.9332C139.526 18.7506 139.167 19.6445 138.928 20.6165C138.689 21.5884 138.569 22.5113 138.569 23.384C138.569 24.8208 138.794 25.9265 139.245 26.701C139.695 27.4766 140.513 27.8631 141.696 27.8631C142.625 27.8631 143.442 27.5957 144.147 27.06C144.85 26.5252 145.442 25.8492 145.921 25.0318C146.4 24.2152 146.759 23.3206 146.999 22.349C147.238 21.377 147.357 20.4545 147.357 19.5811C147.357 18.1446 147.132 17.0393 146.682 16.2645C146.231 15.49 145.414 15.1024 144.231 15.1024ZM141.104 33.1871C139.611 33.1871 138.316 32.9614 137.217 32.5108C136.118 32.0605 135.21 31.4271 134.492 30.6093C133.773 29.7927 133.23 28.8281 132.865 27.7151C132.498 26.6025 132.316 25.37 132.316 24.0178C132.316 22.3277 132.59 20.6377 133.14 18.9473C133.689 17.2573 134.498 15.7362 135.569 14.3839C136.639 13.0321 137.949 11.9268 139.498 11.0673C141.047 10.2081 142.823 9.7784 144.823 9.7784C146.287 9.7784 147.575 10.0041 148.688 10.4543C149.801 10.9053 150.717 11.5391 151.435 12.3557C152.154 13.1731 152.696 14.1377 153.062 15.2504C153.428 16.3634 153.612 17.5955 153.612 18.9473C153.612 20.6377 153.344 22.3277 152.809 24.0178C152.273 25.7082 151.484 27.2293 150.442 28.5812C149.399 29.9334 148.097 31.0391 146.534 31.8982C144.971 32.7573 143.16 33.1871 141.104 33.1871Z" fill="black"/>
<path d="M159.026 11.8846C159.101 11.575 159.335 11.3296 159.64 11.2368C159.981 11.134 160.345 11.0212 160.731 10.8983C161.308 10.7155 161.957 10.5466 162.675 10.3912C163.393 10.2374 164.196 10.1099 165.083 10.011C165.97 9.9128 166.978 9.86333 168.104 9.86333C171.428 9.86333 173.71 10.821 174.95 12.7363C176.189 14.6524 176.4 17.2719 175.583 20.5955L172.874 31.9097C172.778 32.3124 172.418 32.5957 172.005 32.5957H167.546C166.968 32.5957 166.542 32.0566 166.675 31.4946L169.203 20.849C169.372 20.1171 169.505 19.4063 169.604 18.7153C169.702 18.0255 169.696 17.4199 169.583 16.8986C169.47 16.3776 169.209 15.9548 168.802 15.631C168.392 15.3079 167.766 15.1448 166.921 15.1448C166.292 15.1448 165.654 15.195 165.007 15.2955C164.655 15.3504 164.375 15.6232 164.292 15.9703L160.493 31.9089C160.397 32.3116 160.037 32.5957 159.623 32.5957H155.169C154.591 32.5957 154.164 32.0546 154.3 31.4919L159.026 11.8846Z" fill="black"/>
<path d="M183.949 28.1162C185.385 28.1162 186.371 27.9122 186.906 27.5037C187.441 27.096 187.709 26.6519 187.709 26.1727C187.709 25.8631 187.659 25.5957 187.562 25.37C187.462 25.1447 187.3 24.9333 187.075 24.7362C186.849 24.5399 186.54 24.3347 186.146 24.1233C185.751 23.9123 185.244 23.6657 184.624 23.384C183.92 23.0744 183.258 22.7436 182.638 22.3911C182.019 22.0391 181.477 21.617 181.012 21.1235C180.547 20.6312 180.18 20.0669 179.913 19.4331C179.645 18.7993 179.512 18.0461 179.512 17.1727C179.512 14.891 180.35 13.0885 182.026 11.7648C183.702 10.4404 186.146 9.7784 189.357 9.7784C190.878 9.7784 192.23 9.94729 193.413 10.2854C194.185 10.5057 194.861 10.7388 195.441 10.983C195.912 11.1813 196.132 11.7223 195.918 12.1861L194.504 15.2647C194.302 15.7045 193.788 15.8931 193.34 15.7091C192.905 15.5298 192.408 15.3559 191.85 15.1866C190.92 14.9053 190.004 14.7642 189.103 14.7642C188.709 14.7642 188.322 14.7855 187.942 14.8276C187.562 14.8697 187.209 14.9621 186.885 15.1024C186.561 15.2434 186.3 15.4401 186.104 15.6937C185.906 15.9472 185.807 16.2853 185.807 16.7077C185.807 17.2716 186.025 17.694 186.463 17.9753C186.9 18.2575 187.512 18.5953 188.301 18.9894C189.399 19.5251 190.314 20.0182 191.047 20.4685C191.779 20.9195 192.363 21.3979 192.801 21.9049C193.237 22.412 193.555 22.9898 193.751 23.6379C193.948 24.2856 194.048 25.0462 194.048 25.9192C194.048 26.8208 193.857 27.7081 193.476 28.5812C193.096 29.455 192.498 30.2291 191.681 30.905C190.864 31.5817 189.822 32.1305 188.554 32.5529C187.287 32.9757 185.765 33.1867 183.991 33.1867C182.892 33.1867 181.899 33.1163 181.012 32.9757C180.124 32.8342 179.343 32.6588 178.667 32.4474C177.991 32.236 177.42 32.018 176.956 31.7923C176.844 31.7382 176.739 31.6868 176.639 31.6373C176.209 31.4252 176.027 30.9104 176.223 30.4721L177.645 27.2935C177.85 26.8359 178.39 26.6322 178.841 26.8494C179.237 27.0388 179.714 27.2502 180.272 27.4832C181.287 27.9052 182.512 28.1162 183.949 28.1162Z" fill="black"/>
</svg>
