<svg width="145" height="137" viewBox="0 0 145 137" fill="none" xmlns="http://www.w3.org/2000/svg">
<g clip-path="url(#clip0_44_9)">
<path d="M0.999761 32C0.738428 32 0.482428 31.8974 0.293095 31.7067C0.0450947 31.4587 -0.0549053 31.0987 0.030428 30.7587L1.90776 23.224C1.95176 23.048 2.04243 22.8867 2.17043 22.7587L23.3024 1.62669C24.7318 0.197354 27.0584 0.197354 28.4878 1.62669L30.3731 3.51202C31.8024 4.94135 31.8024 7.26802 30.3731 8.69735L9.2411 29.8294C9.1131 29.9574 8.95176 30.0494 8.77576 30.092L1.24109 31.9694C1.16109 31.9907 1.08109 32 0.999761 32ZM3.77976 23.976L2.37176 29.6267L8.02243 28.2187L28.9598 7.28269C29.6091 6.63335 29.6091 5.57469 28.9598 4.92535L27.0744 3.04002C26.4238 2.38935 25.3651 2.39069 24.7171 3.04002L3.77976 23.976ZM8.53443 29.1227H8.54776H8.53443Z" fill="black"/>
<path d="M26.4143 12.2427C26.1583 12.2427 25.9023 12.1454 25.7077 11.9494L20.0503 6.29336C19.6597 5.90269 19.6597 5.26936 20.0503 4.87869C20.441 4.48803 21.0743 4.48803 21.465 4.87869L27.1223 10.536C27.513 10.9267 27.513 11.56 27.1223 11.9507C26.925 12.1454 26.669 12.2427 26.4143 12.2427Z" fill="black"/>
<path d="M8.53444 30.1227C8.27844 30.1227 8.02244 30.0254 7.82778 29.8294L2.17044 24.172C1.77977 23.7814 1.77977 23.148 2.17044 22.7574C2.56111 22.3667 3.19444 22.3667 3.58511 22.7574L9.24244 28.4147C9.63311 28.8054 9.63311 29.4387 9.24244 29.8294C9.04644 30.0254 8.79044 30.1227 8.53444 30.1227Z" fill="black"/>
</g>
<path d="M142 30.3333H124C123.448 30.3333 123 29.8853 123 29.3333C123 28.7813 123.448 28.3333 124 28.3333H142C142.552 28.3333 143 28.7813 143 29.3333C143 29.8853 142.552 30.3333 142 30.3333Z" fill="black"/>
<path d="M114 30.3333C113.737 30.3333 113.483 30.2307 113.293 30.04C113.048 29.7947 112.948 29.4413 113.027 29.104L114.48 22.9373C114.523 22.756 114.615 22.5907 114.747 22.46L133.132 4.07467C134.263 2.94267 136.241 2.94 137.375 4.07467L139.26 5.96C139.827 6.52667 140.139 7.28 140.139 8.08134C140.139 8.88267 139.827 9.63734 139.26 10.2027L120.875 28.5867C120.743 28.7187 120.577 28.8107 120.397 28.8533L114.231 30.3067C114.153 30.3253 114.076 30.3333 114 30.3333ZM116.361 23.672L115.344 27.9893L119.661 26.972L137.845 8.788C138.035 8.59867 138.139 8.348 138.139 8.08134C138.139 7.81467 138.035 7.56267 137.845 7.37467L135.96 5.488C135.583 5.11067 134.923 5.11067 134.547 5.488L116.361 23.672ZM120.167 27.88H120.18H120.167Z" fill="black"/>
<path d="M134.519 14.528C134.263 14.528 134.007 14.4306 133.812 14.2346L129.098 9.51998C128.707 9.12932 128.707 8.49598 129.098 8.10532C129.488 7.71465 130.122 7.71465 130.512 8.10532L135.227 12.82C135.618 13.2106 135.618 13.844 135.227 14.2346C135.031 14.4306 134.775 14.528 134.519 14.528Z" fill="black"/>
<g clip-path="url(#clip1_44_9)">
<path d="M17.4106 78.352C16.7879 78.352 16.2013 78.1093 15.7613 77.668L6.33195 68.24C5.89062 67.7987 5.64795 67.2133 5.64795 66.5907C5.64795 65.968 5.89062 65.3813 6.33195 64.9413L6.96528 64.3067C7.65862 63.6133 8.57862 63.232 9.55862 63.232H11.1199C11.5653 63.232 11.9839 63.0587 12.2973 62.744L16.1199 58.9213C16.5013 58.54 16.6319 57.9867 16.4613 57.476C16.0506 56.2413 16.3666 54.9027 17.2866 53.984L18.5893 52.6813C19.4999 51.772 20.9786 51.7707 21.8893 52.6813L31.3173 62.1093C32.2279 63.0187 32.2279 64.5 31.3173 65.4093L30.0146 66.712C29.0946 67.632 27.7546 67.9467 26.5226 67.5373C26.0119 67.368 25.4586 67.4973 25.0773 67.8787L21.2546 71.7C20.9399 72.0147 20.7666 72.4333 20.7666 72.8787V74.44C20.7666 75.42 20.3853 76.34 19.6919 77.0333L19.0586 77.6667C18.6186 78.1093 18.0333 78.352 17.4106 78.352ZM9.55728 65.2333C9.11195 65.2333 8.69328 65.4067 8.37862 65.7213L7.74662 66.3547C7.61728 66.4853 7.61728 66.696 7.74662 66.8267L17.1746 76.2547C17.3053 76.3853 17.5159 76.3853 17.6466 76.2547L18.2799 75.6213C18.5946 75.3067 18.7679 74.888 18.7679 74.4427V72.88C18.7679 71.9 19.1493 70.9787 19.8426 70.2867L23.6639 66.4653C24.5826 65.544 25.9199 65.228 27.1559 65.64C27.6666 65.8093 28.2213 65.6787 28.6013 65.2987L29.9039 63.996C30.0346 63.8653 30.0346 63.6547 29.9039 63.524L20.4759 54.096C20.3453 53.9653 20.1346 53.9667 20.0039 54.096L18.6999 55.4C18.3186 55.7813 18.1879 56.3347 18.3586 56.8453C18.7706 58.08 18.4546 59.4173 17.5333 60.3373L13.7119 64.1587C13.0213 64.852 12.0999 65.2333 11.1199 65.2333H9.55728Z" fill="black"/>
<path d="M0.999834 84C0.743834 84 0.487834 83.9027 0.291834 83.7067C-0.0974998 83.316 -0.0974998 82.6827 0.293167 82.292L11.0532 71.5453C11.4425 71.156 12.0772 71.1547 12.4678 71.5467C12.8572 71.9373 12.8572 72.5707 12.4665 72.9613L1.7065 83.708C1.51183 83.9027 1.25583 84 0.999834 84Z" fill="black"/>
</g>
<g clip-path="url(#clip2_44_9)">
<path d="M78.6668 72.6667C72.9695 72.6667 68.3335 68.0307 68.3335 62.3333C68.3335 56.636 72.9695 52 78.6668 52C84.3642 52 89.0002 56.636 89.0002 62.3333C89.0002 68.0307 84.3642 72.6667 78.6668 72.6667ZM78.6668 54C74.0722 54 70.3335 57.7387 70.3335 62.3333C70.3335 66.928 74.0722 70.6667 78.6668 70.6667C83.2615 70.6667 87.0002 66.928 87.0002 62.3333C87.0002 57.7387 83.2615 54 78.6668 54Z" fill="black"/>
<path d="M58.0002 84C57.7442 84 57.4882 83.9026 57.2935 83.7066C56.9028 83.316 56.9028 82.6826 57.2935 82.292L71.3602 68.2253C71.7508 67.8346 72.3842 67.8346 72.7748 68.2253C73.1655 68.616 73.1655 69.2493 72.7748 69.64L58.7068 83.7066C58.5122 83.9026 58.2562 84 58.0002 84Z" fill="black"/>
<path d="M73.3335 63.3333C72.7815 63.3333 72.3335 62.8853 72.3335 62.3333C72.3335 58.8413 75.1748 56 78.6668 56C79.2188 56 79.6668 56.448 79.6668 57C79.6668 57.552 79.2188 58 78.6668 58C76.2775 58 74.3335 59.944 74.3335 62.3333C74.3335 62.8853 73.8855 63.3333 73.3335 63.3333Z" fill="black"/>
</g>
<g clip-path="url(#clip3_44_9)">
<path d="M65.6667 26.3333C58.6827 26.3333 53 20.6507 53 13.6667C53 6.68267 58.6827 1 65.6667 1C72.6507 1 78.3333 6.68267 78.3333 13.6667C78.3333 20.6507 72.6507 26.3333 65.6667 26.3333ZM65.6667 3C59.7853 3 55 7.78533 55 13.6667C55 19.548 59.7853 24.3333 65.6667 24.3333C71.548 24.3333 76.3333 19.548 76.3333 13.6667C76.3333 7.78533 71.548 3 65.6667 3Z" fill="black"/>
<path d="M84.0001 33C83.7441 33 83.4881 32.9027 83.2934 32.7067L73.2134 22.6267C72.8227 22.236 72.8227 21.6027 73.2134 21.212C73.6041 20.8213 74.2374 20.8213 74.6281 21.212L84.7081 31.292C85.0987 31.6827 85.0987 32.316 84.7081 32.7067C84.5121 32.9027 84.2561 33 84.0001 33Z" fill="black"/>
<path d="M70.6665 14.6667H60.6665C60.1145 14.6667 59.6665 14.2187 59.6665 13.6667C59.6665 13.1147 60.1145 12.6667 60.6665 12.6667H70.6665C71.2185 12.6667 71.6665 13.1147 71.6665 13.6667C71.6665 14.2187 71.2185 14.6667 70.6665 14.6667Z" fill="black"/>
</g>
<path d="M137.333 81H120.667C118.644 81 117 79.356 117 77.3333V60C117 59.448 117.448 59 118 59C118.552 59 119 59.448 119 60V77.3333C119 78.252 119.748 79 120.667 79H137.333C138.252 79 139 78.252 139 77.3333V60C139 59.448 139.448 59 140 59C140.552 59 141 59.448 141 60V77.3333C141 79.356 139.356 81 137.333 81Z" fill="black"/>
<path d="M142.667 61H115.333C114.781 61 114.333 60.552 114.333 60V56.6667C114.333 54.644 115.977 53 118 53H140C142.023 53 143.667 54.644 143.667 56.6667V60C143.667 60.552 143.219 61 142.667 61ZM116.333 59H141.667V56.6667C141.667 55.748 140.919 55 140 55H118C117.081 55 116.333 55.748 116.333 56.6667V59Z" fill="black"/>
<path d="M134.667 55C134.115 55 133.667 54.552 133.667 54V51.3333C133.667 51.1493 133.517 51 133.333 51H124.667C124.483 51 124.333 51.1493 124.333 51.3333V54C124.333 54.552 123.885 55 123.333 55C122.781 55 122.333 54.552 122.333 54V51.3333C122.333 50.0467 123.38 49 124.667 49H133.333C134.62 49 135.667 50.0467 135.667 51.3333V54C135.667 54.552 135.219 55 134.667 55Z" fill="black"/>
<path d="M129 75.6667C128.448 75.6667 128 75.2187 128 74.6667V66C128 65.448 128.448 65 129 65C129.552 65 130 65.448 130 66V74.6667C130 75.2187 129.552 75.6667 129 75.6667Z" fill="black"/>
<path d="M123.333 75.6667C122.781 75.6667 122.333 75.2187 122.333 74.6667V66C122.333 65.448 122.781 65 123.333 65C123.885 65 124.333 65.448 124.333 66V74.6667C124.333 75.2187 123.885 75.6667 123.333 75.6667Z" fill="black"/>
<path d="M134.667 75.6667C134.115 75.6667 133.667 75.2187 133.667 74.6667V66C133.667 65.448 134.115 65 134.667 65C135.219 65 135.667 65.448 135.667 66V74.6667C135.667 75.2187 135.219 75.6667 134.667 75.6667Z" fill="black"/>
<path d="M3.6665 137C3.1145 137 2.6665 136.552 2.6665 136V106C2.6665 105.448 3.1145 105 3.6665 105C4.2185 105 4.6665 105.448 4.6665 106V136C4.6665 136.552 4.2185 137 3.6665 137Z" fill="black"/>
<path d="M17.6665 122.333H3.6665C3.1145 122.333 2.6665 121.885 2.6665 121.333C2.6665 120.781 3.1145 120.333 3.6665 120.333H17.6665C17.8505 120.333 17.9998 120.184 17.9998 120V107.333C17.9998 107.149 17.8505 107 17.6665 107H3.6665C3.1145 107 2.6665 106.552 2.6665 106C2.6665 105.448 3.1145 105 3.6665 105H17.6665C18.9532 105 19.9998 106.047 19.9998 107.333V120C19.9998 121.287 18.9532 122.333 17.6665 122.333Z" fill="black"/>
<path d="M27.0002 127.667H13.6668C12.3802 127.667 11.3335 126.62 11.3335 125.333V121.333C11.3335 120.781 11.7815 120.333 12.3335 120.333C12.8855 120.333 13.3335 120.781 13.3335 121.333V125.333C13.3335 125.515 13.4855 125.667 13.6668 125.667H27.0002C27.1815 125.667 27.3335 125.515 27.3335 125.333V112.667C27.3335 112.485 27.1815 112.333 27.0002 112.333H19.0002C18.4482 112.333 18.0002 111.885 18.0002 111.333C18.0002 110.781 18.4482 110.333 19.0002 110.333H27.0002C28.2868 110.333 29.3335 111.38 29.3335 112.667V125.333C29.3335 126.62 28.2868 127.667 27.0002 127.667Z" fill="black"/>
<g clip-path="url(#clip4_44_9)">
<path d="M89.3333 132H64.6667C62.644 132 61 130.356 61 128.333V122.333C61 121.781 61.448 121.333 62 121.333C62.552 121.333 63 121.781 63 122.333V128.333C63 129.252 63.748 130 64.6667 130H89.3333C90.252 130 91 129.252 91 128.333V122.333C91 121.781 91.448 121.333 92 121.333C92.552 121.333 93 121.781 93 122.333V128.333C93 130.356 91.356 132 89.3333 132Z" fill="black"/>
<path d="M77 122.667C76.448 122.667 76 122.219 76 121.667V101C76 100.448 76.448 100 77 100C77.552 100 78 100.448 78 101V121.667C78 122.219 77.552 122.667 77 122.667Z" fill="black"/>
<path d="M82.3332 107.333C82.0772 107.333 81.8212 107.236 81.6265 107.04L76.9999 102.415L72.3732 107.04C71.9825 107.431 71.3492 107.431 70.9585 107.04C70.5679 106.649 70.5679 106.016 70.9585 105.625L76.2919 100.292C76.6825 99.9014 77.3159 99.9014 77.7065 100.292L83.0399 105.625C83.4305 106.016 83.4305 106.649 83.0399 107.04C82.8452 107.236 82.5892 107.333 82.3332 107.333Z" fill="black"/>
</g>
<path d="M120.163 127.332C119.812 127.332 119.464 127.223 119.167 127.008C118.613 126.607 118.355 125.917 118.505 125.252L120.564 116.184L113.583 110.061C113.069 109.613 112.873 108.904 113.084 108.255C113.295 107.607 113.868 107.148 114.547 107.085L123.784 106.247L127.436 97.7C127.705 97.072 128.319 96.6667 129 96.6667C129.681 96.6667 130.295 97.072 130.564 97.6987L134.216 106.247L143.452 107.085C144.132 107.147 144.705 107.607 144.916 108.255C145.127 108.903 144.932 109.613 144.419 110.061L137.437 116.183L139.496 125.251C139.647 125.917 139.388 126.607 138.835 127.007C138.283 127.407 137.547 127.437 136.965 127.088L129 122.328L121.035 127.091C120.765 127.251 120.465 127.332 120.163 127.332ZM129 120.277C129.303 120.277 129.603 120.359 129.872 120.519L137.389 125.015L135.447 116.456C135.308 115.847 135.515 115.211 135.985 114.799L142.577 109.017L133.856 108.225C133.228 108.168 132.688 107.773 132.443 107.195L129 99.1294L125.553 107.196C125.311 107.771 124.771 108.165 124.144 108.223L115.421 109.015L122.013 114.796C122.485 115.209 122.692 115.844 122.552 116.455L120.611 125.013L128.128 120.519C128.397 120.359 128.697 120.277 129 120.277ZM123.713 106.412C123.713 106.412 123.713 106.413 123.712 106.415L123.713 106.412ZM134.284 106.408L134.285 106.411C134.285 106.409 134.285 106.409 134.284 106.408Z" fill="black"/>
<defs>
<clipPath id="clip0_44_9">
<rect width="32" height="32" fill="white"/>
</clipPath>
<clipPath id="clip1_44_9">
<rect width="32" height="32" fill="white" transform="translate(0 52)"/>
</clipPath>
<clipPath id="clip2_44_9">
<rect width="32" height="32" fill="white" transform="translate(57 52)"/>
</clipPath>
<clipPath id="clip3_44_9">
<rect width="32" height="32" fill="white" transform="translate(53 1)"/>
</clipPath>
<clipPath id="clip4_44_9">
<rect width="32" height="32" fill="white" transform="translate(61 100)"/>
</clipPath>
</defs>
</svg>
