<svg width="25" height="24" viewBox="0 0 25 24" fill="none" xmlns="http://www.w3.org/2000/svg">
<path d="M12.2301 0C5.58402 0 0.177002 5.38327 0.177002 12.0001C0.177002 18.6169 5.58402 24 12.2301 24C18.8762 24 24.2832 18.6169 24.2832 12.0001C24.2832 5.38327 18.8762 0 12.2301 0ZM12.2301 21.8182C6.79233 21.8182 2.36847 17.4138 2.36847 12.0001C2.36847 6.58633 6.79233 2.18182 12.2301 2.18182C17.6679 2.18182 22.0917 6.58633 22.0917 12.0001C22.0917 17.4138 17.6678 21.8182 12.2301 21.8182Z" fill="#181818"/>
<path d="M12.23 5.09082C11.4245 5.09082 10.7693 5.74362 10.7693 6.54602C10.7693 7.34769 11.4245 7.99991 12.23 7.99991C13.0354 7.99991 13.6907 7.34769 13.6907 6.54602C13.6907 5.74362 13.0354 5.09082 12.23 5.09082Z" fill="#181818"/>
<path d="M12.2301 10.1816C11.625 10.1816 11.1344 10.6701 11.1344 11.2725V17.818C11.1344 18.4205 11.625 18.9089 12.2301 18.9089C12.8353 18.9089 13.3259 18.4205 13.3259 17.818V11.2725C13.3259 10.6701 12.8353 10.1816 12.2301 10.1816Z" fill="#181818"/>
</svg>
