<svg width="105" height="115" viewBox="0 0 105 115" fill="none" xmlns="http://www.w3.org/2000/svg">
<path d="M82.3295 114.545H22.6704C15.4302 114.545 9.54541 108.66 9.54541 101.42V39.3745C9.54541 37.3986 11.149 35.7949 13.125 35.7949C15.1009 35.7949 16.7045 37.3986 16.7045 39.3745V101.42C16.7045 104.709 19.382 107.386 22.6704 107.386H82.3295C85.6179 107.386 88.2954 104.709 88.2954 101.42V39.3745C88.2954 37.3986 89.899 35.7949 91.8749 35.7949C93.8508 35.7949 95.4544 37.3986 95.4544 39.3745V101.42C95.4544 108.66 89.5697 114.545 82.3295 114.545Z" fill="black"/>
<path d="M101.42 42.9548H3.57955C1.60364 42.9548 0 41.3512 0 39.3752V27.4434C0 20.2031 5.88477 14.3184 13.125 14.3184H91.875C99.1152 14.3184 105 20.2031 105 27.4434V39.3752C105 41.3512 103.396 42.9548 101.42 42.9548ZM7.15909 35.7957H97.8409V27.4434C97.8409 24.155 95.1634 21.4775 91.875 21.4775H13.125C9.83659 21.4775 7.15909 24.155 7.15909 27.4434V35.7957Z" fill="black"/>
<path d="M72.7848 21.4773C70.8089 21.4773 69.2053 19.8737 69.2053 17.8978V8.3523C69.2053 7.69366 68.6707 7.15911 68.0121 7.15911H36.9891C36.3304 7.15911 35.7959 7.69366 35.7959 8.3523V17.8978C35.7959 19.8737 34.1922 21.4773 32.2163 21.4773C30.2404 21.4773 28.6367 19.8737 28.6367 17.8978V8.3523C28.6367 3.7466 32.3833 0 36.9891 0H68.0121C72.6178 0 76.3644 3.7466 76.3644 8.3523V17.8978C76.3644 19.8737 74.7608 21.4773 72.7848 21.4773Z" fill="black"/>
<path d="M52.5 95.4554C50.5241 95.4554 48.9204 93.8517 48.9204 91.8758V60.853C48.9204 58.8771 50.5241 57.2734 52.5 57.2734C54.4759 57.2734 56.0795 58.8771 56.0795 60.853V91.8758C56.0795 93.8517 54.4759 95.4554 52.5 95.4554Z" fill="black"/>
<path d="M32.216 95.4554C30.2401 95.4554 28.6365 93.8517 28.6365 91.8758V60.853C28.6365 58.8771 30.2401 57.2734 32.216 57.2734C34.1919 57.2734 35.7956 58.8771 35.7956 60.853V91.8758C35.7956 93.8517 34.1919 95.4554 32.216 95.4554Z" fill="black"/>
<path d="M72.7845 95.4554C70.8085 95.4554 69.2048 93.8517 69.2048 91.8758V60.853C69.2048 58.8771 70.8085 57.2734 72.7845 57.2734C74.7605 57.2734 76.3642 58.8771 76.3642 60.853V91.8758C76.3642 93.8517 74.7605 95.4554 72.7845 95.4554Z" fill="black"/>
</svg>
