<svg width="16" height="16" viewBox="0 0 16 16" fill="none" xmlns="http://www.w3.org/2000/svg">
<path d="M14.3972 7.95031H13.2672C13.0332 7.95031 12.8434 8.14005 12.8434 8.37408V13.5262C12.8434 13.7997 12.6209 14.0222 12.3474 14.0222H2.47336C2.19994 14.0222 1.97755 13.7997 1.97755 13.5262V3.65235C1.97755 3.37883 2.19994 3.15627 2.47336 3.15627H7.88931C8.12334 3.15627 8.31307 2.96653 8.31307 2.7325V1.60247C8.31307 1.36844 8.12334 1.17871 7.88931 1.17871H2.47336C1.10952 1.17871 0 2.2884 0 3.65235V13.5263C0 14.8902 1.10958 15.9998 2.47336 15.9998H12.3473C13.7113 15.9998 14.8209 14.8902 14.8209 13.5263V8.37413C14.821 8.14005 14.6312 7.95031 14.3972 7.95031Z" fill="#181818"/>
<path d="M15.5768 0H11.082C10.8479 0 10.6582 0.189732 10.6582 0.423762V1.55379C10.6582 1.78782 10.8479 1.97755 11.082 1.97755H12.6247L6.81943 7.78269C6.65394 7.94819 6.65394 8.21646 6.81943 8.38201L7.61848 9.18111C7.69797 9.26061 7.80572 9.30524 7.91816 9.30524C8.03054 9.30524 8.13835 9.26061 8.21779 9.18111L14.023 3.37586V4.91852C14.023 5.15255 14.2128 5.34228 14.4468 5.34228H15.5768C15.8109 5.34228 16.0006 5.15255 16.0006 4.91852V0.423762C16.0006 0.189732 15.8109 0 15.5768 0Z" fill="#181818"/>
</svg>
