<svg width="130" height="23" viewBox="0 0 130 23" fill="none" xmlns="http://www.w3.org/2000/svg">
<path d="M6.03956 18.5648C6.69338 18.5648 7.30994 18.4062 7.88924 18.0884C8.46787 17.7709 8.96822 17.3457 9.3886 16.8132C9.80899 16.2808 10.1405 15.6782 10.3835 15.0056C10.6262 14.333 10.7478 13.6324 10.7478 12.9037C10.7478 12.0069 10.5978 11.3062 10.2994 10.8018C10.0004 10.2973 9.4491 10.0451 8.64593 10.0451C8.38379 10.0451 8.04338 10.0919 7.623 10.1852C7.26653 10.2649 6.94014 10.418 6.64382 10.6449C6.53992 10.7245 6.47122 10.8428 6.44046 10.9699L4.63829 18.4527C4.75039 18.4715 4.84848 18.4903 4.93256 18.5088C5.01663 18.5276 5.10515 18.5416 5.1988 18.5508C5.29176 18.5604 5.4042 18.5648 5.5351 18.5648H6.03956ZM9.68287 6.56994C10.5797 6.56994 11.3548 6.72886 12.009 7.04637C12.6628 7.36422 13.2042 7.79383 13.6345 8.33554C14.0641 8.8776 14.3816 9.51261 14.5873 10.2413C14.7927 10.9699 14.8956 11.7546 14.8956 12.5954C14.8956 13.8846 14.6574 15.1037 14.181 16.2527C13.7045 17.4018 13.0552 18.4015 12.2332 19.2515C11.4105 20.1018 10.4396 20.7744 9.31854 21.2693C8.19752 21.7642 6.98286 22.012 5.67523 22.012C5.50708 22.012 5.21281 22.0072 4.79243 21.998C4.37205 21.9884 3.89083 21.9463 3.34912 21.8718C2.80707 21.797 2.2322 21.6849 1.62555 21.5355C1.19287 21.4292 0.777271 21.2946 0.378079 21.1312C0.103635 21.0191 -0.0525557 20.7279 0.0161408 20.4395L4.65811 0.932379C4.71382 0.697922 4.9059 0.520201 5.14446 0.483631L8.22008 0.00719712C8.63704 -0.0573981 8.98634 0.321972 8.88756 0.7321L7.61275 6.03677C7.5068 6.47766 7.91385 6.8625 8.35132 6.74322C8.39336 6.7316 8.43574 6.72066 8.47778 6.71006C8.85134 6.61676 9.25258 6.56994 9.68287 6.56994Z" fill="#181818"/>
<path d="M21.3979 21.4387C21.3306 21.7145 21.0763 21.9014 20.7927 21.8915C19.698 21.8529 18.821 21.683 18.1607 21.3816C17.4036 21.0361 16.8619 20.5644 16.5348 19.9663C16.2078 19.3686 16.0492 18.6819 16.0588 17.9061C16.068 17.1313 16.175 16.3046 16.3811 15.4262L19.8477 0.931911C19.9037 0.697454 20.0958 0.520415 20.3337 0.483503L23.4089 0.00741055C23.8263 -0.0571847 24.1755 0.322528 24.0764 0.732998L20.3887 16.0147C20.3138 16.351 20.2718 16.659 20.2626 16.9396C20.2527 17.2198 20.3046 17.4676 20.4167 17.6819C20.5288 17.8969 20.7202 18.0702 20.9912 18.2007C21.1331 18.2691 21.3043 18.3248 21.5053 18.3678C21.8371 18.4386 22.0511 18.7609 21.9708 19.0904L21.3979 21.4387Z" fill="#181818"/>
<path d="M32.1588 9.79287C31.206 9.79287 30.3696 10.134 29.6505 10.8158C29.1194 11.3196 28.7233 11.9426 28.4622 12.6853C28.321 13.0865 28.6307 13.5086 29.0552 13.4813C29.8426 13.4307 30.5036 13.3456 31.0378 13.226C31.7477 13.0674 32.299 12.8757 32.6913 12.6515C33.0837 12.4273 33.3451 12.1846 33.476 11.9228C33.6066 11.6613 33.6722 11.3999 33.6722 11.1381C33.6722 10.2413 33.1677 9.79287 32.1588 9.79287ZM24.0034 15.8464C24.0034 14.6508 24.2136 13.4922 24.634 12.3712C25.0544 11.2502 25.6473 10.2553 26.4136 9.3865C27.1795 8.51771 28.1091 7.81707 29.2021 7.28459C30.2951 6.7521 31.5047 6.48586 32.8314 6.48586C33.4852 6.48586 34.0926 6.57951 34.6531 6.76612C35.2136 6.95307 35.704 7.22409 36.1244 7.57886C36.5448 7.93396 36.8715 8.36835 37.1053 8.88204C37.3387 9.39607 37.4556 9.97982 37.4556 10.6336C37.4556 11.6801 37.2219 12.5674 36.755 13.296C36.2878 14.0247 35.6384 14.618 34.8072 15.0757C33.9757 15.5336 32.99 15.8652 31.8505 16.0706C30.9243 16.2377 29.9308 16.3368 28.8693 16.3679C28.4697 16.3799 28.1843 16.7869 28.3323 17.1581C28.4865 17.5446 28.7018 17.841 28.9779 18.0464C29.4168 18.3734 30.113 18.5368 31.0658 18.5368C31.6636 18.5368 32.2709 18.4855 32.8875 18.3827C33.2508 18.3222 33.6011 18.2439 33.9384 18.1475C34.2973 18.0453 34.6596 18.288 34.6944 18.6592L34.8899 20.7392C34.9159 21.0147 34.7512 21.2727 34.488 21.3585C34.0468 21.5024 33.5273 21.636 32.9295 21.7597C32.1168 21.9279 31.234 22.012 30.2811 22.012C29.1225 22.012 28.1464 21.8483 27.3525 21.5215C26.5582 21.1948 25.9136 20.7508 25.4187 20.1903C24.9235 19.6298 24.5639 18.976 24.3397 18.2285C24.1155 17.4814 24.0034 16.6871 24.0034 15.8464" fill="#181818"/>
<path d="M40.4865 7.88265C40.536 7.67725 40.6912 7.51456 40.8935 7.45338C41.1201 7.38469 41.3614 7.30984 41.6174 7.2285C42.0002 7.10717 42.4301 6.99507 42.9066 6.89219C43.383 6.78966 43.9155 6.70558 44.5037 6.63996C45.0926 6.57468 45.7604 6.54187 46.5078 6.54187C48.7123 6.54187 50.2257 7.17723 51.048 8.4476C51.8699 9.71832 52.0097 11.4559 51.468 13.6603L49.6716 21.1647C49.6077 21.4313 49.3692 21.6196 49.0947 21.6196H46.1374C45.7542 21.6196 45.4716 21.2621 45.5601 20.8895L47.2365 13.8285C47.3486 13.3428 47.4368 12.8712 47.5027 12.4132C47.5677 11.9556 47.5632 11.554 47.4887 11.2081C47.4139 10.8626 47.2406 10.5823 46.9703 10.3673C46.6989 10.1527 46.2833 10.0451 45.7231 10.0451C45.3055 10.0451 44.8824 10.0782 44.4538 10.1449C44.22 10.1814 44.0341 10.3622 43.9794 10.5926L41.4598 21.164C41.3959 21.4313 41.1574 21.6196 40.8826 21.6196H37.9286C37.5448 21.6196 37.2618 21.2607 37.3517 20.8875L40.4865 7.88265Z" fill="#181818"/>
<path d="M63.1265 10.2132C63.0144 10.1948 62.9166 10.176 62.8325 10.1572C62.7481 10.1387 62.664 10.1247 62.58 10.1152C62.4959 10.1059 62.3882 10.1011 62.2577 10.1011H61.7532C61.0991 10.1011 60.4921 10.2553 59.9316 10.5636C59.3714 10.8718 58.8898 11.2878 58.4886 11.8107C58.0863 12.334 57.7736 12.9273 57.5497 13.5903C57.3252 14.2537 57.2131 14.9311 57.2131 15.6222C57.2131 16.519 57.3672 17.2244 57.6759 17.7381C57.9838 18.2521 58.5395 18.5088 59.3434 18.5088C59.7726 18.5088 60.165 18.4247 60.5201 18.2566C60.826 18.1116 61.1462 17.8833 61.4801 17.5716C61.5847 17.4739 61.6469 17.3396 61.6603 17.1971C61.6979 16.7965 61.7522 16.3788 61.8233 15.9445C61.9077 15.4308 61.9959 14.9591 62.0895 14.5292L63.1265 10.2132ZM58.3061 22.012C57.3717 22.012 56.573 21.853 55.9103 21.5355C55.2465 21.218 54.7048 20.7836 54.2844 20.2323C53.8641 19.6814 53.5558 19.0368 53.3596 18.2986C53.1638 17.5607 53.0657 16.7712 53.0657 15.9304C53.0657 14.6601 53.294 13.4598 53.752 12.3292C54.2096 11.1989 54.8402 10.2132 55.6437 9.37248C56.4468 8.53172 57.3997 7.86868 58.5026 7.38268C59.6045 6.89702 60.8099 6.65402 62.1176 6.65402C62.4539 6.65402 62.7666 6.67281 63.0564 6.71007C63.1654 6.72442 63.2751 6.74117 63.3852 6.76031C63.6976 6.81533 63.9997 6.62462 64.0735 6.31634L65.3603 0.932037C65.4164 0.697581 65.6084 0.520201 65.8463 0.483631L68.9223 0.00719712C69.3392 -0.0573981 69.6885 0.321972 69.5898 0.7321L66.0972 15.2578C65.8354 16.3228 65.7609 17.3925 65.873 18.4667C65.957 19.2723 66.0989 20.0122 66.2985 20.6866C66.401 21.0335 66.1741 21.3886 65.8155 21.4395L63.2187 21.8107C62.96 21.8476 62.7078 21.7092 62.596 21.473C62.5567 21.3896 62.5185 21.3079 62.4819 21.2273C62.4812 21.2252 62.4802 21.2231 62.4791 21.2211C62.3247 20.8817 61.9115 20.7648 61.6001 20.9702C61.2412 21.2074 60.8578 21.4145 60.45 21.5916C59.8055 21.8718 59.0908 22.012 58.3061 22.012" fill="#181818"/>
<path d="M74.0842 5.08467C73.5049 5.08467 72.9813 4.91208 72.5148 4.5662C72.0476 4.22067 71.8138 3.69297 71.8138 2.98276C71.8138 2.59041 71.8935 2.22164 72.0524 1.87576C72.211 1.53023 72.4212 1.23117 72.6826 0.978946C72.9444 0.726717 73.2479 0.526095 73.5938 0.376398C73.939 0.227043 74.3081 0.152195 74.7008 0.152195C75.2794 0.152195 75.8027 0.325132 76.2702 0.670666C76.7371 1.01654 76.9705 1.54424 76.9705 2.2541C76.9705 2.64646 76.8912 3.01558 76.7326 3.36111C76.5734 3.70698 76.3635 4.00569 76.1017 4.25792C75.8403 4.51015 75.5368 4.71112 75.1909 4.86047C74.8454 5.01017 74.4762 5.08467 74.0842 5.08467ZM71.5985 21.6197H68.6692C68.2864 21.6197 68.0037 21.2619 68.0923 20.8893L71.3135 7.33423C71.377 7.06696 71.6156 6.8783 71.8907 6.8783H74.8454C75.2288 6.8783 75.5118 7.23682 75.4223 7.6097L72.1754 21.1644C72.1115 21.4314 71.873 21.6197 71.5985 21.6197Z" fill="#181818"/>
<path d="M75.8496 15.7342C75.8496 14.4638 76.055 13.268 76.4662 12.1469C76.877 11.0259 77.4655 10.045 78.2318 9.20427C78.9977 8.36351 79.9273 7.70081 81.0203 7.21447C82.1133 6.7288 83.3324 6.4858 84.6776 6.4858C85.5184 6.4858 86.27 6.56543 86.9337 6.72402C87.3759 6.83031 87.7908 6.95882 88.1791 7.11057C88.4918 7.23258 88.6361 7.59418 88.5007 7.90143L87.5376 10.0925C87.4128 10.3762 87.0919 10.5163 86.8 10.4128C86.5871 10.3376 86.3701 10.2665 86.149 10.1992C85.747 10.0778 85.2562 10.017 84.6776 10.017C83.2764 10.017 82.1738 10.489 81.3703 11.4323C80.5671 12.3759 80.1655 13.6603 80.1655 15.2858C80.1655 16.2387 80.3709 17.0097 80.7821 17.5979C81.1929 18.1864 81.9496 18.4807 83.0522 18.4807C83.5939 18.4807 84.1168 18.4246 84.6216 18.3125C84.8543 18.2609 85.0748 18.2032 85.2836 18.1396C85.6397 18.0313 86.0027 18.2838 86.0372 18.6543L86.233 20.7743C86.2583 21.0484 86.0915 21.3007 85.8318 21.3916C85.4319 21.5314 85.005 21.6588 84.5515 21.7737C83.9254 21.9323 83.1639 22.0119 82.2671 22.0119C81.1088 22.0119 80.1279 21.8437 79.3248 21.5074C78.5209 21.1711 77.8579 20.7183 77.335 20.1482C76.8114 19.5788 76.4334 18.9106 76.1999 18.1444C75.9662 17.3785 75.8496 16.5753 75.8496 15.7342Z" fill="#181818"/>
<path d="M95.6637 10.017C95.0468 10.017 94.5047 10.1951 94.0382 10.5495C93.571 10.9046 93.1786 11.353 92.8611 11.8947C92.5429 12.4371 92.3051 13.0297 92.1465 13.6743C91.9876 14.3189 91.9083 14.931 91.9083 15.51C91.9083 16.4629 92.0573 17.1963 92.3567 17.71C92.655 18.2244 93.1974 18.4807 93.9821 18.4807C94.5987 18.4807 95.1404 18.3033 95.6076 17.9482C96.0741 17.5938 96.4668 17.145 96.7844 16.603C97.1022 16.0613 97.3401 15.468 97.4993 14.8237C97.6579 14.1788 97.7372 13.567 97.7372 12.9877C97.7372 12.0348 97.5879 11.3017 97.2892 10.7877C96.9901 10.274 96.4484 10.017 95.6637 10.017ZM93.5898 22.0119C92.599 22.0119 91.7401 21.8622 91.0115 21.5635C90.2828 21.2651 89.6802 20.8447 89.2038 20.3023C88.7274 19.7606 88.3671 19.1208 88.1248 18.3826C87.8818 17.6447 87.7605 16.8272 87.7605 15.9304C87.7605 14.8097 87.9427 13.6883 88.307 12.5673C88.6713 11.4463 89.2079 10.4377 89.9185 9.54058C90.6283 8.64376 91.4971 7.91066 92.5245 7.34058C93.5519 6.77084 94.7293 6.48614 96.056 6.48614C97.027 6.48614 97.8818 6.6355 98.62 6.93455C99.3583 7.2336 99.9656 7.65364 100.442 8.19535C100.918 8.73741 101.278 9.37721 101.521 10.1151C101.764 10.8533 101.885 11.6705 101.885 12.5673C101.885 13.6883 101.708 14.8097 101.353 15.9304C100.998 17.0514 100.474 18.0603 99.7834 18.9571C99.0917 19.8539 98.228 20.5874 97.1911 21.1571C96.1541 21.7269 94.9535 22.0119 93.5898 22.0119" fill="#181818"/>
<path d="M105.476 7.88271C105.526 7.67731 105.681 7.51462 105.884 7.45345C106.11 7.38475 106.351 7.3099 106.607 7.22856C106.99 7.10723 107.42 6.99513 107.897 6.89225C108.373 6.78972 108.905 6.70564 109.494 6.64002C110.083 6.57475 110.75 6.54194 111.498 6.54194C113.702 6.54194 115.216 7.17729 116.038 8.44767C116.86 9.71838 117 11.456 116.458 13.6604L114.662 21.1647C114.598 21.4313 114.359 21.6196 114.085 21.6196H111.127C110.744 21.6196 110.462 21.2621 110.55 20.8896L112.227 13.8286C112.339 13.3429 112.427 12.8712 112.493 12.4133C112.558 11.9556 112.553 11.554 112.479 11.2082C112.404 10.8626 112.231 10.5824 111.96 10.3674C111.689 10.1528 111.274 10.0451 110.713 10.0451C110.295 10.0451 109.872 10.0783 109.444 10.1449C109.21 10.1815 109.024 10.3623 108.969 10.5926L106.45 21.164C106.386 21.4313 106.147 21.6196 105.873 21.6196H102.919C102.535 21.6196 102.252 21.2608 102.342 20.8875L105.476 7.88271Z" fill="#181818"/>
<path d="M122.007 18.649C122.96 18.649 123.613 18.5136 123.968 18.2426C124.323 17.9719 124.501 17.6776 124.501 17.3598C124.501 17.1544 124.468 16.977 124.403 16.8273C124.337 16.678 124.23 16.5378 124.081 16.4069C123.931 16.2764 123.725 16.1407 123.464 16.0006C123.202 15.8604 122.866 15.6971 122.455 15.5101C121.988 15.3047 121.549 15.0853 121.138 14.8515C120.727 14.6181 120.367 14.3378 120.059 14.0108C119.751 13.684 119.508 13.3101 119.33 12.8897C119.152 12.4694 119.064 11.9697 119.064 11.3904C119.064 9.877 119.62 8.68148 120.732 7.80312C121.843 6.9251 123.464 6.48592 125.594 6.48592C126.603 6.48592 127.5 6.59803 128.284 6.82223C128.796 6.96851 129.245 7.12299 129.63 7.28499C129.942 7.41657 130.087 7.7751 129.946 8.08303L129.008 10.1248C128.874 10.4167 128.533 10.5418 128.236 10.4197C127.947 10.3008 127.618 10.1853 127.247 10.0732C126.631 9.88657 126.024 9.79293 125.426 9.79293C125.164 9.79293 124.907 9.80694 124.655 9.83497C124.403 9.86299 124.169 9.92383 123.954 10.0171C123.739 10.1108 123.566 10.2413 123.436 10.4095C123.305 10.5776 123.24 10.8018 123.24 11.0821C123.24 11.456 123.384 11.7363 123.674 11.9229C123.964 12.1098 124.37 12.334 124.893 12.5955C125.622 12.9506 126.229 13.2777 126.715 13.5764C127.201 13.8754 127.588 14.1929 127.878 14.5292C128.167 14.8655 128.378 15.2487 128.509 15.6783C128.639 16.1082 128.705 16.6127 128.705 17.1916C128.705 17.7898 128.579 18.3783 128.326 18.9572C128.074 19.5366 127.677 20.0502 127.135 20.4986C126.593 20.9471 125.902 21.3114 125.061 21.5916C124.221 21.8719 123.212 22.012 122.035 22.012C121.306 22.012 120.647 21.9652 120.059 21.8719C119.47 21.7783 118.952 21.6617 118.503 21.5216C118.055 21.3815 117.677 21.2369 117.369 21.0872C117.295 21.0513 117.225 21.0171 117.159 20.9843C116.873 20.8432 116.753 20.5021 116.882 20.2116L117.826 18.1028C117.962 17.7997 118.32 17.6647 118.619 17.8082C118.882 17.9343 119.198 18.0744 119.568 18.2286C120.241 18.5088 121.054 18.649 122.007 18.649Z" fill="#181818"/>
</svg>
