<svg width="22" height="21" viewBox="0 0 22 21" fill="none" xmlns="http://www.w3.org/2000/svg">
<path d="M12.0437 2.53961L12.0437 2.53959L11.6553 2.95003L11.0016 3.64078L10.3479 2.95003L9.95951 2.53959L9.95384 2.5336L9.95387 2.53358C8.03081 0.463844 4.79403 0.344927 2.72422 2.26791L12.0437 2.53961ZM12.0437 2.53961L12.0485 2.53445M12.0437 2.53961L12.0485 2.53445M12.0485 2.53445C13.018 1.49389 14.3755 0.90211 15.7977 0.900129M12.0485 2.53445L15.7977 0.900129M15.7977 0.900129C17.218 0.902659 18.5736 1.49436 19.5413 2.53413C21.6186 4.77509 21.6196 8.2376 19.5442 10.4797L11.0016 19.4916L2.45589 10.4796C0.380375 8.23723 0.381369 4.77445 2.45888 2.53323C2.5439 2.44174 2.63235 2.35331 2.72409 2.26804L15.7977 0.900129Z" stroke="#181818" stroke-width="1.8"/>
</svg>
