<svg width="16" height="20" viewBox="0 0 16 20" fill="none" xmlns="http://www.w3.org/2000/svg">
<path d="M13.8213 2.0495C12.4446 0.727893 10.5394 0 8.45671 0C5.27529 0 3.31857 1.30411 2.23731 2.39806C0.90473 3.74623 0.140625 5.53635 0.140625 7.30948C0.140625 9.53578 1.07184 11.2445 2.63126 11.8802C2.73595 11.9231 2.8413 11.9447 2.94458 11.9447C3.27357 11.9447 3.53423 11.7295 3.62455 11.3842C3.6772 11.1861 3.79916 10.6974 3.8522 10.4852C3.96572 10.0663 3.874 9.86476 3.62642 9.57301C3.1754 9.03933 2.96536 8.40827 2.96536 7.58698C2.96536 5.14748 4.78186 2.55481 8.14855 2.55481C10.8199 2.55481 12.4793 4.0731 12.4793 6.5171C12.4793 8.05937 12.1471 9.48765 11.5437 10.539C11.1244 11.2696 10.3871 12.1404 9.25519 12.1404C8.76574 12.1404 8.32605 11.9393 8.04863 11.5888C7.78655 11.2574 7.70015 10.8294 7.80558 10.3832C7.92464 9.87918 8.08702 9.3534 8.24417 8.84511C8.53078 7.91675 8.80171 7.03991 8.80171 6.34034C8.80171 5.14377 8.06609 4.33974 6.97136 4.33974C5.5801 4.33974 4.49013 5.7528 4.49013 7.55671C4.49013 8.4414 4.72525 9.10312 4.8317 9.35718C4.65642 10.0998 3.61478 14.5146 3.4172 15.3471C3.30294 15.8331 2.61474 19.6716 3.75384 19.9776C5.03369 20.3215 6.17772 16.5831 6.29417 16.1607C6.38854 15.8171 6.71874 14.518 6.92108 13.7195C7.53894 14.3146 8.53374 14.7169 9.50172 14.7169C11.3265 14.7169 12.9676 13.8958 14.1228 12.4049C15.243 10.9588 15.86 8.9432 15.86 6.72975C15.8599 4.99936 15.1168 3.29341 13.8213 2.0495Z" fill="#181818"/>
</svg>
