<svg width="20" height="16" viewBox="0 0 20 16" fill="none" xmlns="http://www.w3.org/2000/svg">
<path d="M12.483 8.16848L13.6189 7.03254C13.7016 7.34176 13.75 7.66504 13.75 8.00004C13.75 10.0679 12.0678 11.75 10 11.75C9.665 11.75 9.34172 11.7016 9.0325 11.619L10.1684 10.483C11.4105 10.3983 12.3983 9.41051 12.483 8.16848ZM19.9213 7.69645C19.8444 7.55817 18.7541 5.6477 16.6228 4.02863L15.7133 4.93817C17.2673 6.08082 18.252 7.41348 18.6397 8.00098C17.8989 9.12895 14.993 13 10 13C9.25125 13 8.555 12.9043 7.89984 12.7515L6.87281 13.7785C7.81703 14.068 8.85484 14.25 10 14.25C16.5427 14.25 19.7864 8.54629 19.9213 8.30364C20.0263 8.11473 20.0263 7.88535 19.9213 7.69645V7.69645ZM17.3169 1.56691L3.56687 15.3169C3.44484 15.439 3.28484 15.5 3.125 15.5C2.96516 15.5 2.80516 15.439 2.68313 15.3169C2.43891 15.0727 2.43891 14.6772 2.68313 14.4332L4.4325 12.6838C1.60437 10.9765 0.167344 8.46317 0.07875 8.30364C-0.02625 8.11473 -0.02625 7.8852 0.07875 7.69629C0.213594 7.45379 3.45734 1.75004 10 1.75004C11.6917 1.75004 13.157 2.13598 14.4097 2.7066L16.4331 0.683164C16.6773 0.438945 17.0728 0.438945 17.3169 0.683164C17.5609 0.927383 17.5611 1.32285 17.3169 1.56691V1.56691ZM5.36453 11.7518L6.94687 10.1694C6.50984 9.55629 6.25 8.80864 6.25 8.00004C6.25 5.93223 7.93219 4.25004 10 4.25004C10.8086 4.25004 11.5563 4.50988 12.1694 4.94676L13.4489 3.66723C12.438 3.26238 11.2892 3.00004 10 3.00004C5.00703 3.00004 2.10109 6.87114 1.36047 7.9991C1.83078 8.71192 3.18266 10.5163 5.36453 11.7518ZM7.85422 9.26192L11.2619 5.85426C10.8902 5.63473 10.4622 5.50004 10 5.50004C8.62156 5.50004 7.5 6.6216 7.5 8.00004C7.5 8.46223 7.63469 8.8902 7.85422 9.26192V9.26192Z" fill="#181818"/>
</svg>
