<svg width="32" height="32" viewBox="0 0 32 32" fill="none" xmlns="http://www.w3.org/2000/svg">
<g clip-path="url(#clip0_12_1613)">
<path d="M12.6667 25.3333C5.68267 25.3333 0 19.6507 0 12.6667C0 5.68267 5.68267 0 12.6667 0C19.6507 0 25.3333 5.68267 25.3333 12.6667C25.3333 19.6507 19.6507 25.3333 12.6667 25.3333ZM12.6667 2C6.78533 2 2 6.78533 2 12.6667C2 18.548 6.78533 23.3333 12.6667 23.3333C18.548 23.3333 23.3333 18.548 23.3333 12.6667C23.3333 6.78533 18.548 2 12.6667 2Z" fill="black"/>
<path d="M31.0001 32C30.7441 32 30.4881 31.9027 30.2934 31.7067L20.2134 21.6267C19.8227 21.236 19.8227 20.6027 20.2134 20.212C20.6041 19.8213 21.2374 19.8213 21.6281 20.212L31.7081 30.292C32.0987 30.6827 32.0987 31.316 31.7081 31.7067C31.5121 31.9027 31.2561 32 31.0001 32Z" fill="black"/>
<path d="M17.6665 13.6667H7.6665C7.1145 13.6667 6.6665 13.2187 6.6665 12.6667C6.6665 12.1147 7.1145 11.6667 7.6665 11.6667H17.6665C18.2185 11.6667 18.6665 12.1147 18.6665 12.6667C18.6665 13.2187 18.2185 13.6667 17.6665 13.6667Z" fill="black"/>
</g>
<defs>
<clipPath id="clip0_12_1613">
<rect width="32" height="32" fill="white"/>
</clipPath>
</defs>
</svg>
