<svg width="66" height="66" viewBox="0 0 66 66" fill="none" xmlns="http://www.w3.org/2000/svg">
<path d="M32.9375 65.875C51.1284 65.875 65.875 51.1284 65.875 32.9375C65.875 14.7466 51.1284 0 32.9375 0C14.7466 0 0 14.7466 0 32.9375C0 51.1284 14.7466 65.875 32.9375 65.875Z" fill="#F3F3F4"/>
<path d="M59.3693 52.567C56.2974 48.4543 52.3086 45.1148 47.7199 42.8139C43.1312 40.513 38.069 39.3141 32.9358 39.3125C27.8025 39.3109 22.7396 40.5066 18.1494 42.8046C13.5592 45.1027 9.56836 48.4397 6.4939 52.5504C9.55272 56.682 13.5371 60.0394 18.1275 62.3533C22.718 64.6673 27.7868 65.8734 32.9274 65.875C38.0681 65.8766 43.1376 64.6737 47.7295 62.3626C52.3214 60.0515 56.3079 56.6967 59.3693 52.567V52.567Z" fill="#B4B4B4"/>
<path d="M32.9375 35.0625C39.9791 35.0625 45.6875 29.3541 45.6875 22.3125C45.6875 15.2709 39.9791 9.5625 32.9375 9.5625C25.8959 9.5625 20.1875 15.2709 20.1875 22.3125C20.1875 29.3541 25.8959 35.0625 32.9375 35.0625Z" fill="#B4B4B4"/>
</svg>
