<svg width="32" height="32" viewBox="0 0 32 32" fill="none" xmlns="http://www.w3.org/2000/svg">
<path d="M7.16263 31.332C6.81196 31.332 6.46396 31.2227 6.16663 31.008C5.61329 30.6067 5.35463 29.9174 5.50529 29.252L7.56396 20.184L0.582627 14.0614C0.0692935 13.6134 -0.126707 12.904 0.0839601 12.2547C0.294627 11.6067 0.86796 11.148 1.54663 11.0854L10.784 10.2467L14.436 1.70002C14.7053 1.07202 15.3186 0.666687 16 0.666687C16.6813 0.666687 17.2946 1.07202 17.564 1.69869L21.216 10.2467L30.452 11.0854C31.132 11.1467 31.7053 11.6067 31.916 12.2547C32.1266 12.9027 31.932 13.6134 31.4186 14.0614L24.4373 20.1827L26.496 29.2507C26.6466 29.9174 26.388 30.6067 25.8346 31.0067C25.2826 31.4067 24.5466 31.4374 23.9653 31.088L16 26.328L8.03463 31.0907C7.76529 31.2507 7.46529 31.332 7.16263 31.332ZM16 24.2774C16.3026 24.2774 16.6026 24.3587 16.872 24.5187L24.3893 29.0147L22.4466 20.456C22.308 19.8467 22.5146 19.2107 22.9853 18.7987L29.5773 13.0174L20.856 12.2254C20.228 12.168 19.688 11.7734 19.4426 11.1947L16 3.12935L12.5533 11.196C12.3106 11.7707 11.7706 12.1654 11.144 12.2227L2.42129 13.0147L9.01329 18.796C9.48529 19.2094 9.69196 19.844 9.55196 20.4547L7.61063 29.0134L15.128 24.5187C15.3973 24.3587 15.6973 24.2774 16 24.2774ZM10.7133 10.412C10.7133 10.412 10.7133 10.4134 10.712 10.4147L10.7133 10.412ZM21.284 10.408L21.2853 10.4107C21.2853 10.4094 21.2853 10.4094 21.284 10.408Z" fill="black"/>
</svg>
