<svg width="32" height="32" viewBox="0 0 32 32" fill="none" xmlns="http://www.w3.org/2000/svg">
<g clip-path="url(#clip0_114_740)">
<path d="M17.4107 26.3522C16.788 26.3522 16.2013 26.1095 15.7613 25.6682L6.33201 16.2402C5.89068 15.7989 5.64801 15.2135 5.64801 14.5909C5.64801 13.9682 5.89068 13.3815 6.33201 12.9415L6.96534 12.3069C7.65868 11.6135 8.57868 11.2322 9.55868 11.2322H11.12C11.5653 11.2322 11.984 11.0589 12.2973 10.7442L16.12 6.92152C16.5013 6.54019 16.632 5.98686 16.4613 5.47619C16.0507 4.24152 16.3667 2.90286 17.2867 1.98419L18.5893 0.681524C19.5 -0.22781 20.9787 -0.229143 21.8893 0.681524L31.3173 10.1095C32.228 11.0189 32.228 12.5002 31.3173 13.4095L30.0147 14.7122C29.0947 15.6322 27.7547 15.9469 26.5227 15.5375C26.012 15.3682 25.4587 15.4975 25.0773 15.8789L21.2547 19.7002C20.94 20.0149 20.7667 20.4335 20.7667 20.8789V22.4402C20.7667 23.4202 20.3853 24.3402 19.692 25.0335L19.0587 25.6669C18.6187 26.1095 18.0333 26.3522 17.4107 26.3522ZM9.55734 13.2335C9.11201 13.2335 8.69334 13.4069 8.37868 13.7215L7.74668 14.3549C7.61734 14.4855 7.61734 14.6962 7.74668 14.8269L17.1747 24.2549C17.3053 24.3855 17.516 24.3855 17.6467 24.2549L18.28 23.6215C18.5947 23.3069 18.768 22.8882 18.768 22.4429V20.8802C18.768 19.9002 19.1493 18.9789 19.8427 18.2869L23.664 14.4655C24.5827 13.5442 25.92 13.2282 27.156 13.6402C27.6667 13.8095 28.2213 13.6789 28.6013 13.2989L29.904 11.9962C30.0347 11.8655 30.0347 11.6549 29.904 11.5242L20.476 2.09619C20.3453 1.96552 20.1347 1.96686 20.004 2.09619L18.7 3.40019C18.3187 3.78152 18.188 4.33486 18.3587 4.84552C18.7707 6.08019 18.4547 7.41752 17.5333 8.33752L13.712 12.1589C13.0213 12.8522 12.1 13.2335 11.12 13.2335H9.55734Z" fill="black"/>
<path d="M1.00002 31.9999C0.744017 31.9999 0.488017 31.9026 0.292017 31.7066C-0.0973167 31.3159 -0.0973167 30.6826 0.29335 30.2919L11.0533 19.5453C11.4427 19.1559 12.0773 19.1546 12.468 19.5466C12.8573 19.9373 12.8573 20.5706 12.4667 20.9613L1.70668 31.7079C1.51202 31.9026 1.25602 31.9999 1.00002 31.9999Z" fill="black"/>
</g>
<defs>
<clipPath id="clip0_114_740">
<rect width="32" height="32" fill="white"/>
</clipPath>
</defs>
</svg>
