<svg width="22" height="22" viewBox="0 0 22 22" fill="none" xmlns="http://www.w3.org/2000/svg">
<path d="M17.4166 6.4165C17.1735 6.4165 16.9403 6.51308 16.7684 6.68499C16.5965 6.8569 16.4999 7.09006 16.4999 7.33317V17.5916C16.4737 18.0551 16.2653 18.4895 15.9202 18.8001C15.575 19.1107 15.1212 19.2724 14.6574 19.2499H7.34246C6.87871 19.2724 6.42486 19.1107 6.07975 18.8001C5.73465 18.4895 5.52625 18.0551 5.49996 17.5916V7.33317C5.49996 7.09006 5.40338 6.8569 5.23147 6.68499C5.05956 6.51308 4.82641 6.4165 4.58329 6.4165C4.34018 6.4165 4.10702 6.51308 3.93511 6.68499C3.7632 6.8569 3.66663 7.09006 3.66663 7.33317V17.5916C3.69279 18.5415 4.09433 19.4423 4.78329 20.0967C5.47225 20.7511 6.39249 21.1059 7.34246 21.0832H14.6574C15.6074 21.1059 16.5277 20.7511 17.2166 20.0967C17.9056 19.4423 18.3071 18.5415 18.3333 17.5916V7.33317C18.3333 7.09006 18.2367 6.8569 18.0648 6.68499C17.8929 6.51308 17.6597 6.4165 17.4166 6.4165Z" fill="black"/>
<path d="M18.3333 3.6665H14.6667V1.83317C14.6667 1.59006 14.5701 1.3569 14.3982 1.18499C14.2263 1.01308 13.9931 0.916504 13.75 0.916504H8.25C8.00688 0.916504 7.77373 1.01308 7.60182 1.18499C7.42991 1.3569 7.33333 1.59006 7.33333 1.83317V3.6665H3.66667C3.42355 3.6665 3.19039 3.76308 3.01849 3.93499C2.84658 4.1069 2.75 4.34005 2.75 4.58317C2.75 4.82628 2.84658 5.05944 3.01849 5.23135C3.19039 5.40326 3.42355 5.49984 3.66667 5.49984H18.3333C18.5764 5.49984 18.8096 5.40326 18.9815 5.23135C19.1534 5.05944 19.25 4.82628 19.25 4.58317C19.25 4.34005 19.1534 4.1069 18.9815 3.93499C18.8096 3.76308 18.5764 3.6665 18.3333 3.6665V3.6665ZM9.16666 3.6665V2.74984H12.8333V3.6665H9.16666Z" fill="black"/>
<path d="M10.0833 15.5833V9.16667C10.0833 8.92355 9.98675 8.69039 9.81484 8.51849C9.64294 8.34658 9.40978 8.25 9.16666 8.25C8.92355 8.25 8.69039 8.34658 8.51849 8.51849C8.34658 8.69039 8.25 8.92355 8.25 9.16667V15.5833C8.25 15.8264 8.34658 16.0596 8.51849 16.2315C8.69039 16.4034 8.92355 16.5 9.16666 16.5C9.40978 16.5 9.64294 16.4034 9.81484 16.2315C9.98675 16.0596 10.0833 15.8264 10.0833 15.5833Z" fill="black"/>
<path d="M13.75 15.5833V9.16667C13.75 8.92355 13.6534 8.69039 13.4815 8.51849C13.3096 8.34658 13.0764 8.25 12.8333 8.25C12.5902 8.25 12.357 8.34658 12.1851 8.51849C12.0132 8.69039 11.9166 8.92355 11.9166 9.16667V15.5833C11.9166 15.8264 12.0132 16.0596 12.1851 16.2315C12.357 16.4034 12.5902 16.5 12.8333 16.5C13.0764 16.5 13.3096 16.4034 13.4815 16.2315C13.6534 16.0596 13.75 15.8264 13.75 15.5833Z" fill="black"/>
</svg>
