<svg width="34" height="31" viewBox="0 0 34 31" fill="none" xmlns="http://www.w3.org/2000/svg">
<path d="M20.1893 1.78436C12.3206 1.78436 3.56429 5.90328 3.56429 13.772C3.56429 21.6407 8.70107 26.1573 16.5698 26.2129C19.5107 26.2333 25.2379 26.2279 29.7449 17.6914C29.9634 17.2761 32.0412 12.8396 31.9978 12.3823C31.9964 12.3823 33.0821 1.78436 20.1893 1.78436V1.78436Z" fill="#FFE577"/>
<path d="M15.6429 30.2857C7.41178 30.2857 0.714279 23.5882 0.714279 15.3571C0.714279 7.12607 7.41178 0.428574 15.6429 0.428574C18.5037 0.428574 21.2899 1.24557 23.6961 2.78864C24.011 2.99086 24.1033 3.41022 23.9011 3.72507C23.6989 4.03993 23.2768 4.13222 22.9633 3.93C20.7756 2.52807 18.2445 1.78572 15.6429 1.78572C8.15957 1.78572 2.07142 7.87386 2.07142 15.3571C2.07142 22.8404 8.15957 28.9286 15.6429 28.9286C23.1261 28.9286 29.2143 22.8404 29.2143 15.3571C29.2143 14.9106 29.1926 14.4682 29.1505 14.0312C29.1139 13.6594 29.3866 13.3269 29.7599 13.2902C30.1385 13.2685 30.4642 13.5277 30.5009 13.9009C30.547 14.38 30.5714 14.8645 30.5714 15.3571C30.5714 23.5882 23.8739 30.2857 15.6429 30.2857Z" fill="black"/>
<path d="M17.6786 18.4107C17.5049 18.4107 17.3311 18.3442 17.1981 18.2126L11.091 12.1054C10.8264 11.8408 10.8264 11.4106 11.091 11.1459C11.3556 10.8813 11.7859 10.8813 12.0505 11.1459L17.6772 16.7726L32.1267 2.32315C32.3914 2.0585 32.8216 2.0585 33.0862 2.32315C33.3509 2.58779 33.3509 3.018 33.0862 3.28265L18.1576 18.2112C18.026 18.3442 17.8523 18.4107 17.6786 18.4107V18.4107Z" fill="black"/>
</svg>
