<svg width="35" height="34" viewBox="0 0 35 34" fill="none" xmlns="http://www.w3.org/2000/svg">
<path d="M34.3877 25.8418V30.319C34.3877 31.8186 33.1731 33.0333 31.6734 33.0333H5.88772C4.38807 33.0333 3.17343 31.8186 3.17343 30.319V26.614C3.17343 25.1686 4.55636 24.1318 5.94607 24.5335C7.66422 25.0289 9.83836 25.4197 11.4303 24.8904C14.4839 23.8726 15.3891 18.8959 18.7819 19.0099C22.1748 19.1226 24.8741 24.6244 27.5884 24.1725C28.9646 23.9431 30.6936 23.7816 32.0643 23.6799C33.3197 23.5849 34.3877 24.5824 34.3877 25.8418Z" fill="#DEFF8F"/>
<path d="M29.8929 33.2857H4.10715C2.23565 33.2857 0.714294 31.7644 0.714294 29.8929V23.1071C0.714294 22.7312 1.01694 22.4286 1.39287 22.4286C1.76879 22.4286 2.07144 22.7312 2.07144 23.1071V29.8929C2.07144 31.0152 2.98479 31.9286 4.10715 31.9286H29.8929C31.0152 31.9286 31.9286 31.0152 31.9286 29.8929V23.1071C31.9286 22.7326 32.2326 22.4286 32.6072 22.4286C32.9817 22.4286 33.2857 22.7326 33.2857 23.1071V29.8929C33.2857 31.7644 31.7644 33.2857 29.8929 33.2857Z" fill="black"/>
<path d="M17 23.7857C16.6254 23.7857 16.3214 23.4817 16.3214 23.1071V1.39285C16.3214 1.01692 16.6241 0.714279 17 0.714279C17.3759 0.714279 17.6786 1.01828 17.6786 1.39285V23.1071C17.6786 23.4817 17.3746 23.7857 17 23.7857Z" fill="black"/>
<path d="M22.4286 7.5C22.2549 7.5 22.0812 7.4335 21.9482 7.30185L17 2.35235L12.0519 7.3005C11.7872 7.56514 11.357 7.56514 11.0924 7.3005C10.8277 7.03585 10.8277 6.60564 11.0924 6.341L16.5209 0.912426C16.7856 0.647783 17.2158 0.647783 17.4804 0.912426L22.909 6.341C23.1737 6.60564 23.1737 7.03585 22.909 7.3005C22.776 7.4335 22.6023 7.5 22.4286 7.5Z" fill="black"/>
</svg>
