<svg width="30" height="36" viewBox="0 0 30 36" fill="none" xmlns="http://www.w3.org/2000/svg">
<path d="M7.93471 8.43372H25.4364C27.8657 8.43372 29.6775 10.6771 29.1618 13.0521C28.7913 14.7566 28.4683 18.3137 28.4683 19.0371C28.4683 20.1594 28.5796 26.8189 28.6556 31.1944C28.6922 33.3251 26.9754 35.069 24.8447 35.069H7.93471C5.82978 35.069 4.1225 33.3631 4.1225 31.2568V12.2446C4.12385 10.1396 5.82978 8.43372 7.93471 8.43372V8.43372Z" fill="#909090"/>
<path d="M23.8214 33.2857H6.17856C4.30842 33.2857 2.78571 31.7644 2.78571 29.8929V10.8929C2.78571 10.5183 3.08971 10.2143 3.46428 10.2143C3.83885 10.2143 4.14285 10.5183 4.14285 10.8929V29.8929C4.14285 31.0152 5.05621 31.9286 6.17856 31.9286H23.8214C24.9438 31.9286 25.8571 31.0152 25.8571 29.8929V10.8929C25.8571 10.5183 26.1611 10.2143 26.5357 10.2143C26.9103 10.2143 27.2143 10.5183 27.2143 10.8929V29.8929C27.2143 31.7644 25.6929 33.2857 23.8214 33.2857Z" fill="black"/>
<path d="M29.25 11.5714H0.750013C0.375442 11.5714 0.0714417 11.2674 0.0714417 10.8929V8.17857C0.0714417 6.30843 1.59416 4.78571 3.4643 4.78571H26.5357C28.4072 4.78571 29.9286 6.30843 29.9286 8.17857V10.8929C29.9286 11.2674 29.6246 11.5714 29.25 11.5714ZM1.42858 10.2143H28.5714V8.17857C28.5714 7.05621 27.6581 6.14286 26.5357 6.14286H3.4643C2.34194 6.14286 1.42858 7.05621 1.42858 8.17857V10.2143Z" fill="black"/>
<path d="M21.1071 6.14286C20.7326 6.14286 20.4286 5.83886 20.4286 5.46429V2.75C20.4286 2.37543 20.1246 2.07143 19.75 2.07143H10.25C9.87544 2.07143 9.57144 2.37543 9.57144 2.75V5.46429C9.57144 5.83886 9.26744 6.14286 8.89287 6.14286C8.51829 6.14286 8.21429 5.83886 8.21429 5.46429V2.75C8.21429 1.62764 9.12765 0.714287 10.25 0.714287H19.75C20.8724 0.714287 21.7857 1.62764 21.7857 2.75V5.46429C21.7857 5.83886 21.4817 6.14286 21.1071 6.14286Z" fill="black"/>
<path d="M15 27.8571C14.6254 27.8571 14.3214 27.5531 14.3214 27.1786V16.3214C14.3214 15.9469 14.6254 15.6429 15 15.6429C15.3746 15.6429 15.6786 15.9469 15.6786 16.3214V27.1786C15.6786 27.5531 15.3746 27.8571 15 27.8571Z" fill="black"/>
<path d="M8.89287 27.8571C8.51829 27.8571 8.21429 27.5531 8.21429 27.1786V16.3214C8.21429 15.9469 8.51829 15.6429 8.89287 15.6429C9.26744 15.6429 9.57144 15.9469 9.57144 16.3214V27.1786C9.57144 27.5531 9.26744 27.8571 8.89287 27.8571Z" fill="black"/>
<path d="M21.1071 27.8571C20.7326 27.8571 20.4286 27.5531 20.4286 27.1786V16.3214C20.4286 15.9469 20.7326 15.6429 21.1071 15.6429C21.4817 15.6429 21.7857 15.9469 21.7857 16.3214V27.1786C21.7857 27.5531 21.4817 27.8571 21.1071 27.8571Z" fill="black"/>
</svg>
