<svg width="22" height="23" viewBox="0 0 22 23" fill="none" xmlns="http://www.w3.org/2000/svg">
<path d="M16.9893 2.39457C12.3275 0.884071 6.00456 2.704 3.83584 9.39336C1.66713 16.0827 3.46806 20.9087 8.11492 22.4654C9.85206 23.0476 13.2463 24.1428 18.2691 17.7506C18.5133 17.4399 20.9657 14.0674 21.0661 13.6697C21.0661 13.6711 24.6286 4.87 16.9893 2.39457Z" fill="#FF7C66"/>
<path d="M1.12294 19.5556C0.949227 19.5556 0.775513 19.4891 0.642513 19.3575C0.37787 19.0929 0.37787 18.6626 0.642513 18.398L18.3967 0.642498C18.6613 0.377855 19.0915 0.377855 19.3562 0.642498C19.6208 0.90714 19.6208 1.33735 19.3562 1.602L1.60337 19.3561C1.47037 19.4891 1.29666 19.5556 1.12294 19.5556V19.5556Z" fill="black"/>
<path d="M18.8771 19.5556C18.7034 19.5556 18.5296 19.4891 18.3966 19.3575L0.643856 1.602C0.379213 1.33735 0.379213 0.90714 0.643856 0.642498C0.908499 0.377855 1.33871 0.377855 1.60336 0.642498L19.3575 18.3966C19.6221 18.6613 19.6221 19.0915 19.3575 19.3561C19.2245 19.4891 19.0508 19.5556 18.8771 19.5556V19.5556Z" fill="black"/>
</svg>
