<svg width="34" height="34" viewBox="0 0 34 34" fill="none" xmlns="http://www.w3.org/2000/svg">
<path d="M10.0691 10.0596C8.78929 12.3681 7.52443 23.9703 10.0691 24.9881C12.6137 26.006 23.8101 27.1935 24.3191 26.3453C24.828 25.4971 26.0155 12.0953 22.7923 10.9078C19.5691 9.72028 10.7273 8.87207 10.0691 10.0596Z" fill="#DEFF8F"/>
<path d="M30.7546 26.6357C30.7546 30.0299 28.9524 31.9042 25.5581 31.9042C22.1639 31.9042 19.8866 31.0939 19.8866 27.6997C19.8866 24.3055 22.6389 21.5532 26.0331 21.5532C29.4274 21.5532 30.7546 23.2402 30.7546 26.6357V26.6357Z" fill="#DEFF8F"/>
<path d="M27.8571 33.2857C24.8633 33.2857 22.4286 30.851 22.4286 27.8571V23.7857H11.5714V27.8571C11.5714 30.851 9.13671 33.2857 6.14285 33.2857C3.14899 33.2857 0.714279 30.851 0.714279 27.8571C0.714279 24.8633 3.14899 22.4286 6.14285 22.4286H10.2143V11.5714H6.14285C3.14899 11.5714 0.714279 9.13671 0.714279 6.14285C0.714279 3.14899 3.14899 0.714279 6.14285 0.714279C9.13671 0.714279 11.5714 3.14899 11.5714 6.14285V10.2143H22.4286V6.14285C22.4286 3.14899 24.8633 0.714279 27.8571 0.714279C30.851 0.714279 33.2857 3.14899 33.2857 6.14285C33.2857 9.13671 30.851 11.5714 27.8571 11.5714H23.7857V22.4286H27.8571C30.851 22.4286 33.2857 24.8633 33.2857 27.8571C33.2857 30.851 30.851 33.2857 27.8571 33.2857ZM23.7857 23.7857V27.8571C23.7857 30.1019 25.6124 31.9286 27.8571 31.9286C30.1019 31.9286 31.9286 30.1019 31.9286 27.8571C31.9286 25.6124 30.1019 23.7857 27.8571 23.7857H23.7857ZM6.14285 23.7857C3.89814 23.7857 2.07142 25.6124 2.07142 27.8571C2.07142 30.1019 3.89814 31.9286 6.14285 31.9286C8.38757 31.9286 10.2143 30.1019 10.2143 27.8571V23.7857H6.14285ZM11.5714 22.4286H22.4286V11.5714H11.5714V22.4286ZM23.7857 10.2143H27.8571C30.1019 10.2143 31.9286 8.38757 31.9286 6.14285C31.9286 3.89814 30.1019 2.07142 27.8571 2.07142C25.6124 2.07142 23.7857 3.89814 23.7857 6.14285V10.2143ZM6.14285 2.07142C3.89814 2.07142 2.07142 3.89814 2.07142 6.14285C2.07142 8.38757 3.89814 10.2143 6.14285 10.2143H10.2143V6.14285C10.2143 3.89814 8.38757 2.07142 6.14285 2.07142Z" fill="black"/>
</svg>
