<svg width="34" height="34" viewBox="0 0 34 34" fill="none" xmlns="http://www.w3.org/2000/svg">
<path d="M25.379 7.08336L28.2385 9.98222C29.6594 11.4221 29.6445 13.7415 28.2059 15.1638L12.9055 30.2973C11.395 31.7915 8.93587 31.6924 7.55022 30.0842L5.59322 27.8137C4.38129 26.4077 4.41251 24.3177 5.66379 22.9484L20.0617 7.18515C21.4786 5.63529 23.9052 5.58779 25.379 7.08336V7.08336Z" fill="#FFAB66"/>
<path d="M1.35079 33.3264C1.173 33.3264 0.999285 33.2572 0.870357 33.1283C0.700714 32.9586 0.632857 32.7116 0.692571 32.4796L2.68621 24.7289C2.71607 24.6108 2.77714 24.5036 2.864 24.4181L26.0128 1.26935C26.8067 0.475422 28.0974 0.475422 28.8913 1.26935L32.7306 5.10735C33.1147 5.49142 33.3264 6.00306 33.3264 6.54728C33.3264 7.09149 33.1147 7.60314 32.7306 7.98721L9.58186 31.1346C9.49636 31.2201 9.38914 31.2812 9.27107 31.3124L1.52043 33.3061C1.46479 33.3196 1.40779 33.3264 1.35079 33.3264V33.3264ZM3.95514 25.246L2.294 31.706L8.754 30.0448L31.7711 7.02771C31.9001 6.89878 31.9693 6.72914 31.9693 6.54728C31.9693 6.36678 31.8987 6.19578 31.7711 6.06685L27.9318 2.22885C27.6671 1.96557 27.2369 1.96421 26.9723 2.22885L3.95514 25.246ZM9.10278 30.6556H9.11636H9.10278Z" fill="black"/>
<path d="M27.9806 12.4549C27.8069 12.4549 27.6332 12.3884 27.5002 12.2568L21.7418 6.49844C21.4772 6.23379 21.4772 5.80358 21.7418 5.53894C22.0065 5.27429 22.4367 5.27429 22.7013 5.53894L28.4597 11.2973C28.7243 11.5619 28.7243 11.9922 28.4597 12.2568C28.3281 12.3898 28.1543 12.4549 27.9806 12.4549Z" fill="black"/>
<path d="M9.10279 31.3342C8.92908 31.3342 8.75537 31.2677 8.62237 31.136L2.86401 25.3776C2.59937 25.113 2.59937 24.6828 2.86401 24.4181C3.12865 24.1535 3.55887 24.1535 3.82351 24.4181L9.58187 30.1765C9.84651 30.4411 9.84651 30.8714 9.58187 31.136C9.45022 31.2677 9.27651 31.3342 9.10279 31.3342V31.3342Z" fill="black"/>
</svg>
