<svg width="124" height="124" viewBox="0 0 124 124" fill="none" xmlns="http://www.w3.org/2000/svg">
<g clip-path="url(#clip0_8_8)">
<path d="M19.375 69.75H3.875C2.84729 69.75 1.86166 69.3417 1.13496 68.615C0.408258 67.8883 0 66.9027 0 65.875V42.625C0 41.5973 0.408258 40.6117 1.13496 39.885C1.86166 39.1583 2.84729 38.75 3.875 38.75H19.375C20.4027 38.75 21.3883 39.1583 22.115 39.885C22.8417 40.6117 23.25 41.5973 23.25 42.625C23.25 43.6527 22.8417 44.6383 22.115 45.365C21.3883 46.0917 20.4027 46.5 19.375 46.5H7.75V62H19.375C20.4027 62 21.3883 62.4083 22.115 63.135C22.8417 63.8617 23.25 64.8473 23.25 65.875C23.25 66.9027 22.8417 67.8883 22.115 68.615C21.3883 69.3417 20.4027 69.75 19.375 69.75Z" fill="black"/>
<path d="M58.125 77.5H19.375C18.3473 77.5 17.3617 77.0917 16.635 76.365C15.9083 75.6383 15.5 74.6527 15.5 73.625V34.875C15.5 33.8473 15.9083 32.8617 16.635 32.135C17.3617 31.4083 18.3473 31 19.375 31H58.125C59.1527 31 60.1383 31.4083 60.865 32.135C61.5917 32.8617 62 33.8473 62 34.875V73.625C62 74.6527 61.5917 75.6383 60.865 76.365C60.1383 77.0917 59.1527 77.5 58.125 77.5ZM23.25 69.75H54.25V38.75H23.25V69.75Z" fill="black"/>
<path d="M120.125 108.5C119.554 108.501 118.989 108.374 118.472 108.13C117.954 107.887 117.498 107.531 117.134 107.09C109.882 98.2994 100.87 91.125 90.6776 86.0287C80.4851 80.9325 69.3382 78.0274 57.9549 77.5005C57.4451 77.4786 56.9448 77.3563 56.4824 77.1405C56.0201 76.9248 55.605 76.6199 55.2608 76.2433C54.9166 75.8667 54.6501 75.4258 54.4767 74.946C54.3034 74.4662 54.2264 73.9569 54.2504 73.4472C54.2607 72.9348 54.375 72.4298 54.5864 71.963C54.7979 71.4961 55.102 71.0771 55.4804 70.7313C55.8587 70.3856 56.3034 70.1204 56.7874 69.9518C57.2714 69.7832 57.7846 69.7147 58.2959 69.7505C80.0084 70.7536 100.612 79.6335 116.25 94.7287V13.7722C100.612 28.8675 80.0084 37.7474 58.2959 38.7505C57.7807 38.8054 57.2597 38.7503 56.7674 38.5888C56.2751 38.4273 55.8228 38.163 55.4403 37.8135C55.0578 37.464 54.754 37.0372 54.5488 36.5615C54.3437 36.0857 54.242 35.5718 54.2504 35.0537C54.2264 34.5441 54.3034 34.0348 54.4767 33.555C54.6501 33.0751 54.9166 32.6343 55.2608 32.2577C55.605 31.8811 56.0201 31.5762 56.4824 31.3604C56.9448 31.1447 57.4451 31.0224 57.9549 31.0005C69.3384 30.4745 80.4856 27.5699 90.6783 22.4735C100.871 17.3772 109.883 10.2023 117.134 1.41099C117.641 0.794598 118.327 0.350024 119.097 0.138064C119.866 -0.0738969 120.683 -0.0428958 121.434 0.226827C122.186 0.496551 122.836 0.991827 123.295 1.64492C123.754 2.29802 124.001 3.07706 124 3.87549V104.625C124.001 105.424 123.755 106.203 123.296 106.857C122.837 107.51 122.187 108.006 121.435 108.276C121.014 108.424 120.572 108.5 120.125 108.5V108.5Z" fill="black"/>
<path d="M44.5467 124C44.0261 124 43.5069 123.948 42.9967 123.845C41.7191 123.588 40.5277 123.011 39.5341 122.168C38.5405 121.325 37.7772 120.243 37.3159 119.025L20.7929 74.9892C20.6138 74.5129 20.5302 74.006 20.547 73.4974C20.5638 72.9888 20.6806 72.4885 20.8908 72.025C21.3151 71.089 22.094 70.3599 23.0559 69.9982C24.0179 69.6364 25.0841 69.6716 26.0201 70.096C26.9561 70.5204 27.6852 71.2992 28.0469 72.2612L44.5467 116.25L53.8467 106.95L37.9747 75.3612C37.5143 74.4362 37.4401 73.3663 37.7686 72.3867C38.0971 71.4071 38.8012 70.5981 39.7262 70.1377C40.6511 69.6773 41.7211 69.6031 42.7007 69.9316C43.6803 70.2601 44.4893 70.9642 44.9497 71.8892L60.7597 103.509C61.4952 104.964 61.7533 106.613 61.4972 108.223C61.2412 109.833 60.4841 111.321 59.3337 112.476L50.0337 121.706C49.3229 122.441 48.4698 123.024 47.5264 123.418C46.583 123.813 45.5691 124.011 44.5467 124V124Z" fill="black"/>
</g>
<defs>
<clipPath id="clip0_8_8">
<rect width="124" height="124" fill="white"/>
</clipPath>
</defs>
</svg>
