<svg width="16" height="16" viewBox="0 0 16 16" fill="none" xmlns="http://www.w3.org/2000/svg">
<path d="M15.071 2.17066L15.1417 2.09995L15.071 2.02924L13.971 0.929289L13.9003 0.858579L13.8296 0.92929L8.00012 6.75886L2.17068 0.92929L2.09997 0.858579L2.02926 0.929289L0.92929 2.02924L0.858577 2.09995L0.92929 2.17066L6.75873 8L0.92929 13.8293L0.858577 13.9001L0.92929 13.9708L2.02926 15.0707L2.09997 15.1414L2.17068 15.0707L8.00012 9.24137L13.8296 15.0707L13.9003 15.1414L13.971 15.0707L15.071 13.9708L15.1417 13.9001L15.071 13.8293L9.24151 8L15.071 2.17066Z" fill="#C9C9C9" stroke="#C9C9C9" stroke-width="0.2"/>
</svg>
