<svg width="22" height="21" viewBox="0 0 22 21" fill="none" xmlns="http://www.w3.org/2000/svg">
<path d="M21.5005 20.0632H6.50049C6.22449 20.0632 6.00049 19.8392 6.00049 19.5632C6.00049 19.2872 6.22449 19.0632 6.50049 19.0632H21.5005C21.7765 19.0632 22.0005 19.2872 22.0005 19.5632C22.0005 19.8392 21.7765 20.0632 21.5005 20.0632Z" fill="#110638"/>
<path d="M0.500526 20.0632C0.369526 20.0632 0.241526 20.0112 0.146526 19.9172C0.0235259 19.7942 -0.026474 19.6182 0.013526 19.4492L1.10353 14.8192C1.12453 14.7292 1.17053 14.6462 1.23653 14.5802L11.9965 3.8202C12.1915 3.6252 12.5085 3.6252 12.7035 3.8202C12.8985 4.0152 12.8985 4.3322 12.7035 4.5272L2.04353 15.1872L1.17153 18.8922L4.87653 18.0202L15.5365 7.3602C15.7315 7.1652 16.0485 7.1652 16.2435 7.3602C16.4385 7.5552 16.4385 7.8722 16.2435 8.0672L5.48353 18.8272C5.41753 18.8932 5.33553 18.9392 5.24453 18.9602L0.614526 20.0502C0.577526 20.0592 0.538526 20.0632 0.500526 20.0632Z" fill="#110638"/>
<path d="M15.8896 8.41625L11.6436 4.17325L15.3766 0.44025C15.9626 -0.14675 16.9176 -0.14675 17.5036 0.44025L19.6236 2.56025C20.2096 3.14625 20.2096 4.10125 19.6236 4.68725L15.8896 8.41625Z" fill="#FCC34A"/>
</svg>
