<svg width="22" height="21" viewBox="0 0 22 21" fill="none" xmlns="http://www.w3.org/2000/svg">
<path d="M21.1202 18.2979H7.2002V20.2178H21.1202V18.2979Z" fill="#DE002A"/>
<path d="M0.959936 20.218C0.708416 20.218 0.462656 20.1191 0.281216 19.9367C0.0460156 19.7015 -0.0509445 19.3616 0.0258555 19.0372L1.07226 14.5972C1.11258 14.4234 1.20186 14.265 1.32762 14.1383L14.9039 0.56196C15.6508 -0.18684 16.87 -0.1878 17.6198 0.56196L19.6559 2.59908C20.0188 2.961 20.2185 3.44292 20.2185 3.95652C20.2185 4.46916 20.0188 4.95108 19.6559 5.31396L6.07962 18.8903C5.95386 19.016 5.7945 19.1053 5.62074 19.1456L1.18074 20.192C1.10682 20.2093 1.0329 20.218 0.959936 20.218ZM2.87802 15.3028L2.25018 17.9668L4.91418 17.3389L18.2985 3.95652L16.2623 1.9194L2.87802 15.3028Z" fill="#583689"/>
<path d="M13.0197 3.80499L11.662 5.16281L15.0566 8.55689L16.4143 7.19906L13.0197 3.80499Z" fill="#583689"/>
</svg>
