<svg width="29" height="29" viewBox="0 0 29 29" fill="none" xmlns="http://www.w3.org/2000/svg">
<path d="M23.5625 29H5.4375C2.43419 29 0 26.5658 0 23.5625V5.4375C0 2.43419 2.43419 0 5.4375 0H23.5625C26.5658 0 29 2.43419 29 5.4375V23.5625C29 26.5658 26.5658 29 23.5625 29Z" fill="#E3F8FA"/>
<path d="M21.2968 20.5664H13.4424C13.1089 20.5664 12.8379 20.2954 12.8379 19.9619C12.8379 19.6284 13.1089 19.3574 13.4424 19.3574H21.2968C21.6303 19.3574 21.9013 19.6284 21.9013 19.9619C21.9013 20.2963 21.6303 20.5664 21.2968 20.5664Z" fill="#8CE1EB"/>
<path d="M19.6456 9.78016L18.791 8.92557C18.3343 8.46882 17.5386 8.46882 17.0827 8.92557L15.833 10.1753L18.3959 12.7382L19.6456 11.4884C19.874 11.2601 19.9999 10.9574 19.9999 10.6339C19.9999 10.3121 19.874 10.0085 19.6456 9.78016V9.78016Z" fill="#8CE1EB"/>
<path d="M14.9796 11.03L8.75276 17.2569C8.71288 17.2967 8.68479 17.3466 8.6721 17.401L8.01326 20.1958C7.9897 20.2973 8.0196 20.4043 8.09391 20.4786C8.15101 20.5357 8.22804 20.5674 8.30779 20.5674C8.33045 20.5674 8.35401 20.5647 8.37666 20.5592L11.1715 19.9004C11.2259 19.8877 11.2767 19.8596 11.3156 19.8197L17.5425 13.5929L14.9796 11.03Z" fill="#26C6DA"/>
</svg>
