<svg width="22" height="21" viewBox="0 0 22 21" fill="none" xmlns="http://www.w3.org/2000/svg">
<path d="M13.2956 3.5976C14.2716 2.6216 15.8546 2.6216 16.8316 3.5976C17.8076 4.5736 18.5406 6.7066 17.5636 7.6836C17.5636 7.6836 5.32959 21.0976 2.56359 17.7466C-0.202407 14.3956 13.2956 3.5976 13.2956 3.5976V3.5976Z" fill="#FFA0C6"/>
<path d="M21.5005 20.0586H6.50049C6.22449 20.0586 6.00049 19.8346 6.00049 19.5586C6.00049 19.2826 6.22449 19.0586 6.50049 19.0586H21.5005C21.7765 19.0586 22.0005 19.2826 22.0005 19.5586C22.0005 19.8346 21.7765 20.0586 21.5005 20.0586Z" fill="black"/>
<path d="M0.500526 20.0586C0.369526 20.0586 0.241526 20.0066 0.146526 19.9126C0.0235259 19.7896 -0.026474 19.6126 0.013526 19.4446L1.10353 14.8186C1.12453 14.7286 1.17053 14.6456 1.23653 14.5796L15.3795 0.437625C15.9645 -0.146375 16.9165 -0.145375 17.5005 0.437625L19.6225 2.55862C20.2065 3.14362 20.2065 4.09563 19.6225 4.67963L5.47953 18.8216C5.41453 18.8876 5.33153 18.9336 5.24053 18.9546L0.615526 20.0446C0.577526 20.0546 0.538526 20.0586 0.500526 20.0586V20.0586ZM2.04453 15.1856L1.17253 18.8866L4.87253 18.0146L18.9145 3.97263C19.1095 3.77763 19.1095 3.46062 18.9145 3.26562L16.7935 1.14362C16.5995 0.949625 16.2805 0.948625 16.0865 1.14362L2.04453 15.1856ZM5.12553 18.4686H5.13553H5.12553Z" fill="black"/>
<path d="M15.8893 8.20568C15.7613 8.20568 15.6333 8.15668 15.5353 8.05968L12.0003 4.52268C11.8053 4.32768 11.8053 4.01068 12.0003 3.81568C12.1953 3.62068 12.5123 3.62068 12.7073 3.81568L16.2433 7.35168C16.4383 7.54668 16.4383 7.86368 16.2433 8.05868C16.1453 8.15668 16.0173 8.20568 15.8893 8.20568V8.20568Z" fill="black"/>
</svg>
