<svg width="24" height="21" viewBox="0 0 24 21" fill="none" xmlns="http://www.w3.org/2000/svg">
<path d="M0.749758 20.3315C0.552758 20.3315 0.361759 20.2545 0.219759 20.1115C0.0357586 19.9275 -0.0392415 19.6625 0.0197585 19.4095L1.10976 14.7845C1.14176 14.6485 1.21076 14.5245 1.30976 14.4265L15.0988 0.6375C15.9468 -0.2115 17.4308 -0.2135 18.2808 0.6375L19.6948 2.0515C20.1198 2.4765 20.3538 3.0415 20.3538 3.6425C20.3538 4.2435 20.1198 4.8095 19.6948 5.2335L5.90576 19.0215C5.80676 19.1205 5.68276 19.1895 5.54776 19.2215L0.922759 20.3115C0.864759 20.3255 0.806758 20.3315 0.749758 20.3315ZM2.52076 15.3355L1.75776 18.5735L4.99576 17.8105L18.6338 4.1725C18.7758 4.0305 18.8538 3.8425 18.8538 3.6425C18.8538 3.4425 18.7758 3.2535 18.6338 3.1125L17.2198 1.6975C16.9368 1.4145 16.4418 1.4145 16.1598 1.6975L2.52076 15.3355ZM5.37476 18.4915H5.38476H5.37476Z" fill="black"/>
<path d="M16.1388 8.4775C15.9468 8.4775 15.7548 8.4045 15.6088 8.2575L12.0728 4.7215C11.7798 4.4285 11.7798 3.9535 12.0728 3.6605C12.3658 3.3675 12.8408 3.3675 13.1338 3.6605L16.6698 7.1965C16.9628 7.4895 16.9628 7.9645 16.6698 8.2575C16.5228 8.4045 16.3308 8.4775 16.1388 8.4775Z" fill="black"/>
<path d="M23.25 21H9.75C9.336 21 9 20.664 9 20.25C9 19.836 9.336 19.5 9.75 19.5H23.25C23.664 19.5 24 19.836 24 20.25C24 20.664 23.664 21 23.25 21Z" fill="black"/>
</svg>
