<svg width="23" height="21" viewBox="0 0 23 21" fill="none" xmlns="http://www.w3.org/2000/svg">
<path d="M20.3498 3.6415C20.3498 4.2415 20.1198 4.8115 19.6898 5.2315L16.6698 8.2615L12.0698 3.6615L15.0998 0.6415C15.9498 -0.2085 17.4298 -0.2185 18.2798 0.6415L19.6898 2.0515C20.1198 2.4715 20.3498 3.0415 20.3498 3.6415Z" fill="#607D8B"/>
<path d="M16.6702 8.26162L5.91019 19.0216C5.81019 19.1216 5.68019 19.1916 5.55019 19.2216L0.920187 20.3116C0.870187 20.3216 0.810187 20.3316 0.750187 20.3316C0.550187 20.3316 0.360187 20.2516 0.220187 20.1116C0.0401869 19.9316 -0.0398132 19.6616 0.0201868 19.4116L1.11019 14.7816C1.14019 14.6516 1.21019 14.5216 1.31019 14.4216L12.0702 3.66162L16.6702 8.26162Z" fill="#90A4AE"/>
<path d="M21.75 20.3315H8.25C7.836 20.3315 7.5 19.9955 7.5 19.5815C7.5 19.1675 7.836 18.8315 8.25 18.8315H21.75C22.164 18.8315 22.5 19.1675 22.5 19.5815C22.5 19.9955 22.164 20.3315 21.75 20.3315Z" fill="black"/>
<path d="M0.749759 20.3315C0.552759 20.3315 0.361759 20.2535 0.219759 20.1115C0.0357586 19.9275 -0.0392415 19.6625 0.0197585 19.4095L1.10976 14.7845C1.14176 14.6485 1.21076 14.5245 1.30976 14.4265L15.0988 0.6375C15.9468 -0.2115 17.4308 -0.2135 18.2808 0.6375L19.6948 2.0515C20.5718 2.9285 20.5718 4.3565 19.6948 5.2335L5.90576 19.0215C5.80676 19.1205 5.68276 19.1895 5.54776 19.2215L0.922759 20.3115C0.864759 20.3255 0.806759 20.3315 0.749759 20.3315V20.3315ZM2.52076 15.3355L1.75776 18.5735L4.99576 17.8105L18.6338 4.1725C18.7758 4.0305 18.8538 3.8425 18.8538 3.6415C18.8538 3.4415 18.7758 3.2525 18.6338 3.1115L17.2198 1.6975C16.9368 1.4145 16.4418 1.4145 16.1598 1.6975L2.52076 15.3355ZM5.37476 18.4915H5.38476H5.37476Z" fill="black"/>
<path d="M16.1388 8.47755C15.9468 8.47755 15.7548 8.40455 15.6088 8.25755L12.0728 4.72155C11.7798 4.42855 11.7798 3.95355 12.0728 3.66055C12.3658 3.36755 12.8408 3.36755 13.1338 3.66055L16.6698 7.19655C16.9628 7.48955 16.9628 7.96455 16.6698 8.25755C16.5228 8.40455 16.3308 8.47755 16.1388 8.47755Z" fill="black"/>
</svg>
