<svg width="920" height="261" viewBox="0 0 920 261" fill="none" xmlns="http://www.w3.org/2000/svg">
<path d="M16.1855 233.109C15.5969 233.109 15.0956 232.949 14.6816 232.629C14.2675 232.306 13.9511 231.839 13.7323 231.227C13.5136 230.612 13.4042 229.87 13.4042 229C13.4042 228.135 13.5136 227.397 13.7323 226.785C13.9537 226.171 14.2714 225.702 14.6855 225.379C15.1021 225.053 15.6021 224.891 16.1855 224.891C16.7688 224.891 17.2675 225.053 17.6816 225.379C18.0982 225.702 18.4159 226.171 18.6347 226.785C18.856 227.397 18.9667 228.135 18.9667 229C18.9667 229.87 18.8573 230.612 18.6386 231.227C18.4198 231.839 18.1034 232.306 17.6894 232.629C17.2753 232.949 16.774 233.109 16.1855 233.109ZM16.1855 232.25C16.7688 232.25 17.2219 231.969 17.5448 231.406C17.8678 230.844 18.0292 230.042 18.0292 229C18.0292 228.307 17.955 227.717 17.8066 227.23C17.6607 226.743 17.4498 226.372 17.1737 226.117C16.9003 225.862 16.5709 225.734 16.1855 225.734C15.6073 225.734 15.1555 226.02 14.83 226.59C14.5045 227.158 14.3417 227.961 14.3417 229C14.3417 229.693 14.4146 230.281 14.5605 230.766C14.7063 231.25 14.9159 231.618 15.1894 231.871C15.4654 232.124 15.7974 232.25 16.1855 232.25Z" fill="#666666"/>
<rect x="31.6135" y="228" width="887.299" height="2" fill="#E8E8E8"/>
<path d="M10.2711 159.109C9.81274 159.109 9.39998 159.018 9.03279 158.836C8.6656 158.654 8.37133 158.404 8.14998 158.086C7.92862 157.768 7.80753 157.406 7.78669 157H8.72419C8.76065 157.362 8.92472 157.661 9.21638 157.898C9.51065 158.133 9.86222 158.25 10.2711 158.25C10.5992 158.25 10.8909 158.173 11.1461 158.02C11.4039 157.866 11.6057 157.655 11.7515 157.387C11.9 157.116 11.9742 156.81 11.9742 156.469C11.9742 156.12 11.8974 155.809 11.7437 155.535C11.5927 155.259 11.3844 155.042 11.1187 154.883C10.8531 154.724 10.5497 154.643 10.2086 154.641C9.96378 154.638 9.71248 154.676 9.45466 154.754C9.19685 154.829 8.98461 154.927 8.81794 155.047L7.91169 154.937L8.39607 151H12.5523V151.859H9.20857L8.92732 154.219H8.97419C9.13826 154.089 9.34399 153.98 9.59138 153.895C9.83878 153.809 10.0966 153.766 10.3648 153.766C10.8544 153.766 11.2906 153.883 11.6734 154.117C12.0588 154.349 12.3609 154.667 12.5797 155.07C12.801 155.474 12.9117 155.935 12.9117 156.453C12.9117 156.964 12.7971 157.419 12.5679 157.82C12.3414 158.219 12.0289 158.534 11.6304 158.766C11.232 158.995 10.7789 159.109 10.2711 159.109ZM15.3385 156.812L15.3228 155.672H15.5103L18.1353 153H19.276L16.4791 155.828H16.401L15.3385 156.812ZM14.4791 159V151H15.401V159H14.4791ZM18.2916 159L15.9478 156.031L16.6041 155.391L19.4635 159H18.2916Z" fill="#666666"/>
<rect x="32.6993" y="155" width="887.299" height="1" fill="#E8E8E8"/>
<path d="M5.2898 77V85H4.32105V78.0156H4.27417L2.32105 79.3125V78.3281L4.32105 77H5.2898ZM10.2 85.1094C9.61141 85.1094 9.11011 84.9492 8.69605 84.6289C8.28199 84.306 7.96558 83.8385 7.74683 83.2266C7.52808 82.612 7.41871 81.8698 7.41871 81C7.41871 80.1354 7.52808 79.3971 7.74683 78.7852C7.96818 78.1706 8.28589 77.7018 8.69996 77.3789C9.11662 77.0534 9.61662 76.8906 10.2 76.8906C10.7833 76.8906 11.282 77.0534 11.696 77.3789C12.1127 77.7018 12.4304 78.1706 12.6492 78.7852C12.8705 79.3971 12.9812 80.1354 12.9812 81C12.9812 81.8698 12.8718 82.612 12.6531 83.2266C12.4343 83.8385 12.1179 84.306 11.7039 84.6289C11.2898 84.9492 10.7885 85.1094 10.2 85.1094ZM10.2 84.25C10.7833 84.25 11.2364 83.9687 11.5593 83.4062C11.8822 82.8437 12.0437 82.0417 12.0437 81C12.0437 80.3073 11.9695 79.7174 11.821 79.2305C11.6752 78.7435 11.4643 78.3724 11.1882 78.1172C10.9148 77.862 10.5854 77.7344 10.2 77.7344C9.62183 77.7344 9.17001 78.0195 8.84449 78.5898C8.51897 79.1576 8.35621 79.9609 8.35621 81C8.35621 81.6927 8.42912 82.2812 8.57496 82.7656C8.72079 83.25 8.93042 83.6185 9.20386 83.8711C9.4799 84.1237 9.81193 84.25 10.2 84.25ZM15.3406 82.8125L15.325 81.6719H15.5125L18.1375 79H19.2781L16.4812 81.8281H16.4031L15.3406 82.8125ZM14.4812 85V77H15.4031V85H14.4812ZM18.2937 85L15.95 82.0312L16.6062 81.3906L19.4656 85H18.2937Z" fill="#666666"/>
<rect x="32.7014" y="81" width="887.299" height="1" fill="#E8E8E8"/>
<path d="M5.47242 3V11H4.50367V4.01562H4.45679L2.50367 5.3125V4.32812L4.50367 3H5.47242ZM10.2732 11.1094C9.81486 11.1094 9.4021 11.0182 9.03492 10.8359C8.66773 10.6536 8.37346 10.4036 8.1521 10.0859C7.93075 9.76823 7.80966 9.40625 7.78882 9H8.72632C8.76278 9.36198 8.92684 9.66146 9.21851 9.89844C9.51278 10.1328 9.86434 10.25 10.2732 10.25C10.6013 10.25 10.893 10.1732 11.1482 10.0195C11.406 9.86589 11.6078 9.65495 11.7537 9.38672C11.9021 9.11589 11.9763 8.8099 11.9763 8.46875C11.9763 8.11979 11.8995 7.80859 11.7459 7.53516C11.5948 7.25911 11.3865 7.04167 11.1209 6.88281C10.8552 6.72396 10.5518 6.64323 10.2107 6.64062C9.96591 6.63802 9.7146 6.67578 9.45679 6.75391C9.19898 6.82943 8.98674 6.92708 8.82007 7.04688L7.91382 6.9375L8.3982 3H12.5544V3.85937H9.2107L8.92945 6.21875H8.97632C9.14038 6.08854 9.34611 5.98047 9.59351 5.89453C9.84091 5.80859 10.0987 5.76562 10.3669 5.76562C10.8565 5.76562 11.2927 5.88281 11.6755 6.11719C12.061 6.34896 12.363 6.66667 12.5818 7.07031C12.8031 7.47396 12.9138 7.9349 12.9138 8.45312C12.9138 8.96354 12.7992 9.41927 12.5701 9.82031C12.3435 10.2187 12.031 10.5339 11.6326 10.7656C11.2341 10.9948 10.781 11.1094 10.2732 11.1094ZM15.3406 8.8125L15.325 7.67188H15.5125L18.1375 5H19.2781L16.4812 7.82812H16.4031L15.3406 8.8125ZM14.4812 11V3H15.4031V11H14.4812ZM18.2937 11L15.95 8.03125L16.6062 7.39062L19.4656 11H18.2937Z" fill="#666666"/>
<rect x="32.7014" y="7" width="887.299" height="1" fill="#E8E8E8"/>
<path d="M76.3012 230V8" stroke="#E8E8E8" stroke-dasharray="4 4"/>
<path d="M209.287 230V8" stroke="#E8E8E8" stroke-dasharray="4 4"/>
<path d="M342.273 230V8" stroke="#E8E8E8" stroke-dasharray="4 4"/>
<path d="M475.259 148V8" stroke="#E8E8E8" stroke-dasharray="4 4"/>
<path d="M608.244 230V8" stroke="#E8E8E8" stroke-dasharray="4 4"/>
<path d="M741.23 230V8" stroke="#E8E8E8" stroke-dasharray="4 4"/>
<path d="M874.216 230V8" stroke="#E8E8E8" stroke-dasharray="4 4"/>
<path d="M76.3012 236V228" stroke="#E8E8E8" stroke-width="2"/>
<path d="M209.287 236V228" stroke="#E8E8E8" stroke-width="2"/>
<path d="M342.273 236V228" stroke="#E8E8E8" stroke-width="2"/>
<path d="M475.259 233.045V228" stroke="#E8E8E8" stroke-width="2"/>
<path d="M608.244 236V228" stroke="#E8E8E8" stroke-width="2"/>
<path d="M741.23 236V228" stroke="#E8E8E8" stroke-width="2"/>
<path d="M874.216 236V228" stroke="#E8E8E8" stroke-width="2"/>
<path d="M54.3016 249H55.2704V254.719C55.2704 255.229 55.1766 255.663 54.9891 256.02C54.8016 256.376 54.5373 256.647 54.1962 256.832C53.855 257.017 53.4527 257.109 52.9891 257.109C52.5516 257.109 52.1623 257.03 51.8212 256.871C51.48 256.71 51.2118 256.48 51.0165 256.184C50.8212 255.887 50.7235 255.534 50.7235 255.125H51.6766C51.6766 255.352 51.7326 255.549 51.8446 255.719C51.9592 255.885 52.1154 256.016 52.3134 256.109C52.5113 256.203 52.7365 256.25 52.9891 256.25C53.2678 256.25 53.5048 256.191 53.7001 256.074C53.8954 255.957 54.0438 255.785 54.1454 255.559C54.2496 255.329 54.3016 255.049 54.3016 254.719V249ZM58.8524 257.141C58.4722 257.141 58.1272 257.069 57.8173 256.926C57.5074 256.78 57.2613 256.57 57.079 256.297C56.8967 256.021 56.8055 255.687 56.8055 255.297C56.8055 254.953 56.8733 254.674 57.0087 254.461C57.1441 254.245 57.3251 254.076 57.5516 253.953C57.7782 253.831 58.0282 253.74 58.3016 253.68C58.5777 253.617 58.855 253.568 59.1337 253.531C59.4983 253.484 59.7938 253.449 60.0204 253.426C60.2496 253.4 60.4162 253.357 60.5204 253.297C60.6272 253.237 60.6805 253.133 60.6805 252.984V252.953C60.6805 252.568 60.5751 252.268 60.3641 252.055C60.1558 251.841 59.8394 251.734 59.4149 251.734C58.9748 251.734 58.6298 251.831 58.3798 252.023C58.1298 252.216 57.954 252.422 57.8524 252.641L56.9774 252.328C57.1337 251.964 57.342 251.68 57.6024 251.477C57.8654 251.271 58.1519 251.128 58.4618 251.047C58.7743 250.964 59.0816 250.922 59.3837 250.922C59.5764 250.922 59.7977 250.945 60.0477 250.992C60.3003 251.036 60.5438 251.129 60.7782 251.27C61.0152 251.41 61.2118 251.622 61.368 251.906C61.5243 252.19 61.6024 252.57 61.6024 253.047V257H60.6805V256.187H60.6337C60.5712 256.318 60.467 256.457 60.3212 256.605C60.1753 256.754 59.9813 256.88 59.7391 256.984C59.4969 257.089 59.2014 257.141 58.8524 257.141ZM58.993 256.312C59.3576 256.312 59.6649 256.241 59.9149 256.098C60.1675 255.954 60.3576 255.77 60.4852 255.543C60.6154 255.316 60.6805 255.078 60.6805 254.828V253.984C60.6415 254.031 60.5555 254.074 60.4227 254.113C60.2925 254.15 60.1415 254.182 59.9696 254.211C59.8003 254.237 59.635 254.26 59.4735 254.281C59.3147 254.299 59.1858 254.315 59.0868 254.328C58.8472 254.359 58.6233 254.41 58.4149 254.48C58.2092 254.548 58.0425 254.651 57.9149 254.789C57.7899 254.924 57.7274 255.109 57.7274 255.344C57.7274 255.664 57.8459 255.906 58.0829 256.07C58.3225 256.232 58.6259 256.312 58.993 256.312ZM64.2069 253.391V257H63.285V251H64.1757V251.937H64.2538C64.3944 251.633 64.608 251.388 64.8944 251.203C65.1809 251.016 65.5507 250.922 66.0038 250.922C66.41 250.922 66.7655 251.005 67.0702 251.172C67.3749 251.336 67.6119 251.586 67.7811 251.922C67.9504 252.255 68.035 252.677 68.035 253.188V257H67.1132V253.25C67.1132 252.779 66.9908 252.411 66.746 252.148C66.5012 251.883 66.1652 251.75 65.7382 251.75C65.4439 251.75 65.1809 251.814 64.9491 251.941C64.7199 252.069 64.5389 252.255 64.4061 252.5C64.2733 252.745 64.2069 253.042 64.2069 253.391ZM75.3446 248.891C75.6727 248.893 76.0009 248.956 76.329 249.078C76.6571 249.201 76.9566 249.404 77.2274 249.687C77.4983 249.969 77.7157 250.353 77.8798 250.84C78.0438 251.327 78.1259 251.937 78.1259 252.672C78.1259 253.383 78.0581 254.014 77.9227 254.566C77.7899 255.116 77.5972 255.579 77.3446 255.957C77.0946 256.335 76.7899 256.621 76.4305 256.816C76.0738 257.012 75.6701 257.109 75.2196 257.109C74.7717 257.109 74.3719 257.021 74.0204 256.844C73.6714 256.664 73.385 256.415 73.161 256.098C72.9397 255.777 72.7977 255.406 72.7352 254.984H73.6884C73.7743 255.352 73.9449 255.655 74.2001 255.895C74.4579 256.132 74.7977 256.25 75.2196 256.25C75.8368 256.25 76.3238 255.98 76.6805 255.441C77.0399 254.902 77.2196 254.141 77.2196 253.156H77.1571C77.0113 253.375 76.8381 253.564 76.6376 253.723C76.4371 253.882 76.2144 254.004 75.9696 254.09C75.7248 254.176 75.4644 254.219 75.1884 254.219C74.73 254.219 74.3094 254.105 73.9266 253.879C73.5464 253.65 73.2417 253.336 73.0126 252.937C72.786 252.536 72.6727 252.078 72.6727 251.562C72.6727 251.073 72.7821 250.625 73.0009 250.219C73.2222 249.81 73.5321 249.484 73.9305 249.242C74.3316 249 74.8029 248.883 75.3446 248.891ZM75.3446 249.75C75.0165 249.75 74.7209 249.832 74.4579 249.996C74.1975 250.158 73.9904 250.376 73.8368 250.652C73.6858 250.926 73.6102 251.229 73.6102 251.562C73.6102 251.896 73.6831 252.199 73.829 252.473C73.9774 252.743 74.1792 252.96 74.4344 253.121C74.6923 253.28 74.9852 253.359 75.3134 253.359C75.5608 253.359 75.7912 253.311 76.0048 253.215C76.2183 253.116 76.4045 252.982 76.5634 252.812C76.7248 252.641 76.8511 252.447 76.9423 252.23C77.0334 252.012 77.079 251.784 77.079 251.547C77.079 251.234 77.0035 250.941 76.8524 250.668C76.704 250.395 76.4983 250.173 76.2352 250.004C75.9748 249.835 75.6779 249.75 75.3446 249.75Z" fill="#666666"/>
<path d="M206.646 249V257H205.678V250.016H205.631L203.678 251.312V250.328L205.678 249H206.646ZM211.557 257.109C210.968 257.109 210.467 256.949 210.053 256.629C209.639 256.306 209.322 255.839 209.104 255.227C208.885 254.612 208.775 253.87 208.775 253C208.775 252.135 208.885 251.397 209.104 250.785C209.325 250.171 209.643 249.702 210.057 249.379C210.473 249.053 210.973 248.891 211.557 248.891C212.14 248.891 212.639 249.053 213.053 249.379C213.469 249.702 213.787 250.171 214.006 250.785C214.227 251.397 214.338 252.135 214.338 253C214.338 253.87 214.229 254.612 214.01 255.227C213.791 255.839 213.475 256.306 213.061 256.629C212.646 256.949 212.145 257.109 211.557 257.109ZM211.557 256.25C212.14 256.25 212.593 255.969 212.916 255.406C213.239 254.844 213.4 254.042 213.4 253C213.4 252.307 213.326 251.717 213.178 251.23C213.032 250.743 212.821 250.372 212.545 250.117C212.271 249.862 211.942 249.734 211.557 249.734C210.979 249.734 210.527 250.02 210.201 250.59C209.876 251.158 209.713 251.961 209.713 253C209.713 253.693 209.786 254.281 209.932 254.766C210.077 255.25 210.287 255.618 210.561 255.871C210.837 256.124 211.169 256.25 211.557 256.25Z" fill="#666666"/>
<path d="M340.027 249V257H339.059V250.016H339.012L337.059 251.312V250.328L339.059 249H340.027ZM345.141 249V257H344.172V250.016H344.125L342.172 251.312V250.328L344.172 249H345.141Z" fill="#666666"/>
<path d="M472.754 249V257H471.785V250.016H471.738L469.785 251.312V250.328L471.785 249H472.754ZM475.055 257V256.297L477.695 253.406C478.005 253.068 478.26 252.773 478.461 252.523C478.661 252.271 478.81 252.034 478.906 251.812C479.005 251.589 479.055 251.354 479.055 251.109C479.055 250.828 478.987 250.585 478.852 250.379C478.719 250.173 478.536 250.014 478.305 249.902C478.073 249.79 477.813 249.734 477.523 249.734C477.216 249.734 476.948 249.798 476.719 249.926C476.492 250.051 476.316 250.227 476.191 250.453C476.069 250.68 476.008 250.945 476.008 251.25H475.086C475.086 250.781 475.194 250.37 475.41 250.016C475.626 249.661 475.921 249.385 476.293 249.187C476.668 248.99 477.089 248.891 477.555 248.891C478.023 248.891 478.439 248.99 478.801 249.187C479.163 249.385 479.447 249.652 479.652 249.988C479.858 250.324 479.961 250.698 479.961 251.109C479.961 251.404 479.908 251.691 479.801 251.973C479.697 252.251 479.514 252.562 479.254 252.906C478.996 253.247 478.638 253.664 478.18 254.156L476.383 256.078V256.141H480.102V257H475.055Z" fill="#666666"/>
<path d="M605.082 249V257H604.113V250.016H604.066L602.113 251.312V250.328L604.113 249H605.082ZM610.086 257.109C609.57 257.109 609.111 257.021 608.707 256.844C608.306 256.667 607.987 256.421 607.75 256.105C607.516 255.788 607.388 255.419 607.367 255H608.352C608.372 255.258 608.461 255.48 608.617 255.668C608.773 255.853 608.978 255.996 609.23 256.098C609.483 256.199 609.763 256.25 610.07 256.25C610.414 256.25 610.719 256.19 610.984 256.07C611.25 255.951 611.458 255.784 611.609 255.57C611.76 255.357 611.836 255.109 611.836 254.828C611.836 254.534 611.763 254.275 611.617 254.051C611.471 253.824 611.258 253.647 610.977 253.52C610.695 253.392 610.352 253.328 609.945 253.328H609.305V252.469H609.945C610.263 252.469 610.542 252.411 610.781 252.297C611.023 252.182 611.212 252.021 611.348 251.812C611.486 251.604 611.555 251.359 611.555 251.078C611.555 250.807 611.495 250.572 611.375 250.371C611.255 250.171 611.086 250.014 610.867 249.902C610.651 249.79 610.396 249.734 610.102 249.734C609.826 249.734 609.565 249.785 609.32 249.887C609.078 249.986 608.88 250.13 608.727 250.32C608.573 250.508 608.49 250.734 608.477 251H607.539C607.555 250.581 607.681 250.214 607.918 249.898C608.155 249.581 608.465 249.333 608.848 249.156C609.233 248.979 609.656 248.891 610.117 248.891C610.612 248.891 611.036 248.991 611.391 249.191C611.745 249.389 612.017 249.651 612.207 249.977C612.397 250.302 612.492 250.654 612.492 251.031C612.492 251.482 612.374 251.866 612.137 252.184C611.902 252.501 611.583 252.721 611.18 252.844V252.906C611.685 252.99 612.079 253.204 612.363 253.551C612.647 253.895 612.789 254.32 612.789 254.828C612.789 255.263 612.671 255.654 612.434 256C612.199 256.344 611.879 256.615 611.473 256.812C611.066 257.01 610.604 257.109 610.086 257.109Z" fill="#666666"/>
<path d="M738.055 249V257H737.086V250.016H737.04L735.086 251.312V250.328L737.086 249H738.055ZM740.168 255.359V254.562L743.684 249H744.262V250.234H743.872L741.215 254.437V254.5H745.95V255.359H740.168ZM743.934 257V255.117V254.746V249H744.856V257H743.934Z" fill="#666666"/>
<path d="M871.738 249V257H870.769V250.016H870.722L868.769 251.312V250.328L870.769 249H871.738ZM876.539 257.109C876.08 257.109 875.667 257.018 875.3 256.836C874.933 256.654 874.639 256.404 874.417 256.086C874.196 255.768 874.075 255.406 874.054 255H874.992C875.028 255.362 875.192 255.661 875.484 255.898C875.778 256.133 876.13 256.25 876.539 256.25C876.867 256.25 877.158 256.173 877.414 256.02C877.671 255.866 877.873 255.655 878.019 255.387C878.167 255.116 878.242 254.81 878.242 254.469C878.242 254.12 878.165 253.809 878.011 253.535C877.86 253.259 877.652 253.042 877.386 252.883C877.121 252.724 876.817 252.643 876.476 252.641C876.231 252.638 875.98 252.676 875.722 252.754C875.464 252.829 875.252 252.927 875.085 253.047L874.179 252.937L874.664 249H878.82V249.859H875.476L875.195 252.219H875.242C875.406 252.089 875.611 251.98 875.859 251.895C876.106 251.809 876.364 251.766 876.632 251.766C877.122 251.766 877.558 251.883 877.941 252.117C878.326 252.349 878.628 252.667 878.847 253.07C879.069 253.474 879.179 253.935 879.179 254.453C879.179 254.964 879.065 255.419 878.835 255.82C878.609 256.219 878.296 256.534 877.898 256.766C877.5 256.995 877.046 257.109 876.539 257.109Z" fill="#666666"/>
<path d="M76.3033 175L209.289 125.737L342.275 127L475.261 148.474L608.246 57.5263L741.232 103L874.218 55" stroke="#006CE7" stroke-width="5" stroke-linecap="round" stroke-linejoin="round"/>
<path opacity="0.16" d="M209 125.737L76 175V229H874V55L741 103L608 57.5263L475 148.474L342 127L209 125.737Z" fill="#BCD7FB"/>
<path opacity="0.4" d="M475.261 230V148" stroke="#006CE7" stroke-width="2"/>
<g filter="url(#filter0_d_69_267)">
<circle cx="474.54" cy="148" r="8" fill="#006CE7"/>
<circle cx="474.54" cy="148" r="6" stroke="white" stroke-width="4"/>
</g>
<path fill-rule="evenodd" clip-rule="evenodd" d="M431.389 74C429.732 74 428.389 75.3431 428.389 77V123C428.389 124.657 429.732 126 431.389 126H469.81L475.261 132L480.711 126H519.133C520.79 126 522.133 124.657 522.133 123V77C522.133 75.3431 520.79 74 519.133 74H431.389Z" fill="white"/>
<path d="M469.81 126L470.551 125.328L470.253 125H469.81V126ZM475.261 132L474.52 132.672L475.261 133.487L476.001 132.672L475.261 132ZM480.711 126V125H480.268L479.971 125.328L480.711 126ZM429.389 77C429.389 75.8954 430.284 75 431.389 75V73C429.179 73 427.389 74.7909 427.389 77H429.389ZM429.389 123V77H427.389V123H429.389ZM431.389 125C430.284 125 429.389 124.105 429.389 123H427.389C427.389 125.209 429.179 127 431.389 127V125ZM469.81 125H431.389V127H469.81V125ZM469.07 126.672L474.52 132.672L476.001 131.328L470.551 125.328L469.07 126.672ZM476.001 132.672L481.451 126.672L479.971 125.328L474.52 131.328L476.001 132.672ZM519.133 125H480.711V127H519.133V125ZM521.133 123C521.133 124.105 520.237 125 519.133 125V127C521.342 127 523.133 125.209 523.133 123H521.133ZM521.133 77V123H523.133V77H521.133ZM519.133 75C520.237 75 521.133 75.8954 521.133 77H523.133C523.133 74.7909 521.342 73 519.133 73V75ZM431.389 75H519.133V73H431.389V75Z" fill="#E8E8E8"/>
<path d="M445.954 114.364V100.727H446.828V114.364H445.954ZM448.474 105.09C448.424 104.625 448.215 104.262 447.845 104.003C447.479 103.744 447.004 103.614 446.418 103.614C446.006 103.614 445.652 103.676 445.358 103.801C445.063 103.925 444.837 104.094 444.681 104.307C444.525 104.52 444.445 104.763 444.441 105.037C444.441 105.264 444.493 105.461 444.596 105.628C444.703 105.795 444.846 105.937 445.027 106.054C445.209 106.168 445.409 106.263 445.629 106.342C445.85 106.42 446.071 106.485 446.295 106.539L447.318 106.794C447.73 106.89 448.126 107.02 448.506 107.183C448.889 107.347 449.232 107.553 449.534 107.801C449.839 108.05 450.081 108.35 450.258 108.701C450.436 109.053 450.525 109.465 450.525 109.937C450.525 110.576 450.361 111.139 450.035 111.626C449.708 112.109 449.236 112.487 448.618 112.76C448.003 113.03 447.259 113.165 446.386 113.165C445.537 113.165 444.8 113.034 444.175 112.771C443.554 112.508 443.067 112.125 442.716 111.62C442.368 111.116 442.179 110.502 442.151 109.777H444.095C444.124 110.157 444.241 110.473 444.447 110.725C444.653 110.978 444.921 111.166 445.251 111.29C445.585 111.414 445.958 111.477 446.37 111.477C446.799 111.477 447.176 111.413 447.499 111.285C447.826 111.153 448.081 110.972 448.266 110.741C448.451 110.507 448.545 110.234 448.548 109.921C448.545 109.637 448.461 109.403 448.298 109.218C448.135 109.03 447.906 108.874 447.611 108.749C447.32 108.621 446.979 108.508 446.588 108.408L445.347 108.089C444.449 107.858 443.738 107.508 443.216 107.039C442.698 106.567 442.439 105.94 442.439 105.159C442.439 104.516 442.613 103.953 442.961 103.471C443.312 102.988 443.79 102.613 444.394 102.347C444.997 102.077 445.681 101.942 446.444 101.942C447.218 101.942 447.897 102.077 448.479 102.347C449.065 102.613 449.525 102.984 449.859 103.46C450.193 103.932 450.365 104.475 450.375 105.09H448.474ZM452.18 113V111.572L455.967 107.86C456.329 107.494 456.631 107.169 456.873 106.885C457.114 106.601 457.295 106.326 457.416 106.059C457.537 105.793 457.597 105.509 457.597 105.207C457.597 104.863 457.519 104.568 457.363 104.323C457.206 104.074 456.992 103.882 456.718 103.748C456.445 103.613 456.134 103.545 455.786 103.545C455.427 103.545 455.113 103.62 454.843 103.769C454.573 103.914 454.364 104.122 454.215 104.392C454.069 104.662 453.996 104.983 453.996 105.356H452.116C452.116 104.664 452.274 104.062 452.59 103.55C452.906 103.039 453.341 102.643 453.895 102.363C454.453 102.082 455.092 101.942 455.813 101.942C456.544 101.942 457.187 102.078 457.741 102.352C458.295 102.625 458.725 103 459.03 103.476C459.339 103.952 459.493 104.495 459.493 105.106C459.493 105.514 459.415 105.915 459.259 106.31C459.103 106.704 458.828 107.141 458.433 107.62C458.043 108.099 457.494 108.68 456.787 109.362L454.907 111.274V111.349H459.659V113H452.18ZM463.781 111.509L463.712 112.094C463.662 112.542 463.574 112.996 463.446 113.458C463.322 113.923 463.19 114.351 463.052 114.742C462.913 115.132 462.801 115.44 462.716 115.663H461.416C461.466 115.447 461.534 115.152 461.619 114.779C461.708 114.406 461.793 113.987 461.874 113.522C461.956 113.057 462.011 112.585 462.04 112.105L462.077 111.509H463.781ZM469.49 113.149C468.968 113.146 468.459 113.055 467.962 112.877C467.464 112.696 467.017 112.403 466.619 111.999C466.222 111.59 465.905 111.049 465.671 110.374C465.437 109.696 465.321 108.856 465.325 107.854C465.325 106.92 465.424 106.088 465.623 105.356C465.822 104.625 466.108 104.007 466.481 103.502C466.854 102.995 467.303 102.608 467.828 102.341C468.358 102.075 468.949 101.942 469.602 101.942C470.288 101.942 470.895 102.077 471.424 102.347C471.957 102.616 472.386 102.986 472.713 103.455C473.04 103.92 473.242 104.445 473.32 105.031H471.376C471.277 104.612 471.072 104.278 470.763 104.03C470.458 103.778 470.071 103.652 469.602 103.652C468.846 103.652 468.263 103.98 467.855 104.637C467.45 105.294 467.246 106.196 467.242 107.343H467.317C467.491 107.031 467.717 106.762 467.994 106.539C468.271 106.315 468.583 106.143 468.931 106.022C469.283 105.898 469.654 105.836 470.044 105.836C470.684 105.836 471.257 105.988 471.765 106.294C472.276 106.599 472.681 107.02 472.979 107.556C473.278 108.089 473.425 108.7 473.421 109.388C473.425 110.106 473.262 110.75 472.931 111.322C472.601 111.89 472.141 112.338 471.552 112.664C470.962 112.991 470.275 113.153 469.49 113.149ZM469.48 111.551C469.867 111.551 470.213 111.457 470.518 111.269C470.824 111.081 471.065 110.827 471.243 110.507C471.42 110.187 471.507 109.829 471.504 109.431C471.507 109.04 471.422 108.687 471.248 108.371C471.078 108.055 470.842 107.805 470.54 107.62C470.238 107.435 469.893 107.343 469.506 107.343C469.219 107.343 468.951 107.398 468.702 107.508C468.453 107.618 468.237 107.771 468.052 107.966C467.867 108.158 467.722 108.382 467.615 108.637C467.512 108.89 467.459 109.159 467.456 109.447C467.459 109.827 467.548 110.177 467.722 110.496C467.896 110.816 468.136 111.072 468.441 111.263C468.746 111.455 469.093 111.551 469.48 111.551ZM479.1 113.149C478.308 113.149 477.605 113.016 476.99 112.75C476.38 112.483 475.9 112.119 475.552 111.658C475.208 111.192 475.037 110.665 475.041 110.076C475.037 109.618 475.137 109.197 475.339 108.813C475.541 108.43 475.815 108.11 476.159 107.854C476.507 107.595 476.894 107.43 477.321 107.359V107.284C476.759 107.16 476.305 106.874 475.957 106.427C475.612 105.976 475.442 105.456 475.446 104.866C475.442 104.305 475.598 103.804 475.914 103.364C476.23 102.924 476.664 102.577 477.214 102.325C477.764 102.07 478.393 101.942 479.1 101.942C479.799 101.942 480.422 102.07 480.969 102.325C481.52 102.577 481.953 102.924 482.269 103.364C482.589 103.804 482.748 104.305 482.748 104.866C482.748 105.456 482.573 105.976 482.221 106.427C481.873 106.874 481.424 107.16 480.873 107.284V107.359C481.3 107.43 481.683 107.595 482.024 107.854C482.369 108.11 482.642 108.43 482.844 108.813C483.05 109.197 483.153 109.618 483.153 110.076C483.153 110.665 482.979 111.192 482.631 111.658C482.283 112.119 481.804 112.483 481.193 112.75C480.586 113.016 479.888 113.149 479.1 113.149ZM479.1 111.626C479.508 111.626 479.863 111.556 480.165 111.418C480.467 111.276 480.701 111.077 480.868 110.821C481.035 110.566 481.12 110.271 481.124 109.937C481.12 109.589 481.03 109.282 480.852 109.016C480.678 108.746 480.438 108.534 480.133 108.382C479.831 108.229 479.487 108.153 479.1 108.153C478.709 108.153 478.361 108.229 478.056 108.382C477.75 108.534 477.509 108.746 477.331 109.016C477.157 109.282 477.072 109.589 477.076 109.937C477.072 110.271 477.154 110.566 477.321 110.821C477.487 111.074 477.722 111.271 478.024 111.413C478.329 111.555 478.688 111.626 479.1 111.626ZM479.1 106.656C479.434 106.656 479.728 106.588 479.984 106.453C480.243 106.319 480.447 106.13 480.597 105.889C480.746 105.647 480.822 105.369 480.826 105.053C480.822 104.74 480.747 104.467 480.602 104.232C480.456 103.994 480.254 103.811 479.995 103.684C479.735 103.552 479.437 103.487 479.1 103.487C478.755 103.487 478.452 103.552 478.189 103.684C477.93 103.811 477.727 103.994 477.582 104.232C477.44 104.467 477.37 104.74 477.374 105.053C477.37 105.369 477.441 105.647 477.587 105.889C477.736 106.127 477.94 106.315 478.199 106.453C478.462 106.588 478.762 106.656 479.1 106.656ZM484.707 110.976V109.404L489.336 102.091H490.647V104.328H489.848L486.732 109.266V109.351H493.193V110.976H484.707ZM489.912 113V110.496L489.933 109.793V102.091H491.797V113H489.912Z" fill="#181818"/>
<ellipse cx="505.782" cy="108" rx="3.27014" ry="3" fill="#006CE7"/>
<path d="M445.109 85.2727H446.166V91.5114C446.166 92.0682 446.064 92.5412 445.859 92.9304C445.655 93.3196 445.366 93.6151 444.994 93.8168C444.622 94.0185 444.183 94.1193 443.677 94.1193C443.2 94.1193 442.775 94.0327 442.403 93.8594C442.031 93.6832 441.738 93.4332 441.525 93.1094C441.312 92.7855 441.206 92.4006 441.206 91.9545H442.245C442.245 92.2017 442.307 92.4176 442.429 92.6023C442.554 92.7841 442.724 92.9261 442.94 93.0284C443.156 93.1307 443.402 93.1818 443.677 93.1818C443.981 93.1818 444.24 93.1179 444.453 92.9901C444.666 92.8622 444.828 92.6747 444.939 92.4276C445.052 92.1776 445.109 91.8722 445.109 91.5114V85.2727ZM450.074 94.1534C449.659 94.1534 449.282 94.0753 448.944 93.919C448.606 93.7599 448.338 93.5312 448.139 93.233C447.94 92.9318 447.841 92.5682 447.841 92.142C447.841 91.767 447.915 91.4631 448.062 91.2301C448.21 90.9943 448.407 90.8097 448.655 90.6761C448.902 90.5426 449.174 90.4432 449.473 90.3778C449.774 90.3097 450.076 90.2557 450.38 90.2159C450.778 90.1648 451.101 90.1264 451.348 90.1009C451.598 90.0724 451.78 90.0256 451.893 89.9602C452.01 89.8949 452.068 89.7812 452.068 89.6193V89.5852C452.068 89.1648 451.953 88.8381 451.723 88.6051C451.495 88.3722 451.15 88.2557 450.687 88.2557C450.207 88.2557 449.831 88.3608 449.558 88.571C449.285 88.7812 449.093 89.0057 448.983 89.2443L448.028 88.9034C448.199 88.5057 448.426 88.196 448.71 87.9744C448.997 87.75 449.309 87.5937 449.647 87.5057C449.988 87.4148 450.324 87.3693 450.653 87.3693C450.863 87.3693 451.105 87.3949 451.378 87.446C451.653 87.4943 451.919 87.5952 452.174 87.7486C452.433 87.902 452.647 88.1335 452.818 88.4432C452.988 88.7528 453.074 89.1676 453.074 89.6875V94H452.068V93.1136H452.017C451.949 93.2557 451.835 93.4077 451.676 93.5696C451.517 93.7315 451.305 93.8693 451.041 93.983C450.777 94.0966 450.454 94.1534 450.074 94.1534ZM450.227 93.25C450.625 93.25 450.96 93.1719 451.233 93.0156C451.508 92.8594 451.716 92.6577 451.855 92.4105C451.997 92.1634 452.068 91.9034 452.068 91.6307V90.7102C452.025 90.7614 451.932 90.8082 451.787 90.8509C451.645 90.8906 451.48 90.9261 451.292 90.9574C451.108 90.9858 450.927 91.0114 450.751 91.0341C450.578 91.054 450.437 91.071 450.329 91.0852C450.068 91.1193 449.824 91.1747 449.596 91.2514C449.372 91.3253 449.19 91.4375 449.051 91.5881C448.915 91.7358 448.846 91.9375 448.846 92.1932C448.846 92.5426 448.976 92.8068 449.234 92.9858C449.495 93.1619 449.826 93.25 450.227 93.25ZM455.915 90.0625V94H454.909V87.4545H455.881V88.4773H455.966C456.119 88.1449 456.352 87.8778 456.665 87.6761C456.977 87.4716 457.381 87.3693 457.875 87.3693C458.318 87.3693 458.706 87.4602 459.038 87.642C459.371 87.821 459.629 88.0938 459.814 88.4602C459.999 88.8239 460.091 89.2841 460.091 89.8409V94H459.085V89.9091C459.085 89.3949 458.952 88.9943 458.685 88.7074C458.418 88.4176 458.051 88.2727 457.585 88.2727C457.264 88.2727 456.977 88.3423 456.725 88.4815C456.475 88.6207 456.277 88.8239 456.132 89.0909C455.987 89.358 455.915 89.6818 455.915 90.0625ZM468.355 85.2727V94H467.298V86.3807H467.247L465.116 87.7955V86.7216L467.298 85.2727H468.355ZM470.865 94V93.233L473.745 90.0795C474.084 89.7102 474.362 89.3892 474.581 89.1165C474.799 88.8409 474.961 88.5824 475.066 88.3409C475.174 88.0966 475.228 87.8409 475.228 87.5739C475.228 87.267 475.155 87.0014 475.007 86.777C474.862 86.5526 474.663 86.3793 474.41 86.2571C474.157 86.1349 473.873 86.0739 473.558 86.0739C473.223 86.0739 472.93 86.1435 472.68 86.2827C472.433 86.419 472.241 86.6108 472.105 86.858C471.971 87.1051 471.905 87.3949 471.905 87.7273H470.899C470.899 87.2159 471.017 86.767 471.253 86.3807C471.488 85.9943 471.809 85.6932 472.216 85.4773C472.625 85.2614 473.084 85.1534 473.592 85.1534C474.103 85.1534 474.557 85.2614 474.951 85.4773C475.346 85.6932 475.656 85.9844 475.88 86.3509C476.105 86.7173 476.217 87.125 476.217 87.5739C476.217 87.8949 476.159 88.2088 476.042 88.5156C475.929 88.8196 475.73 89.1591 475.446 89.5341C475.165 89.9062 474.774 90.3608 474.274 90.8977L472.314 92.9943V93.0625H476.37V94H470.865Z" fill="#666666"/>
<defs>
<filter id="filter0_d_69_267" x="458.54" y="132" width="32" height="32" filterUnits="userSpaceOnUse" color-interpolation-filters="sRGB">
<feFlood flood-opacity="0" result="BackgroundImageFix"/>
<feColorMatrix in="SourceAlpha" type="matrix" values="0 0 0 0 0 0 0 0 0 0 0 0 0 0 0 0 0 0 127 0" result="hardAlpha"/>
<feOffset/>
<feGaussianBlur stdDeviation="4"/>
<feComposite in2="hardAlpha" operator="out"/>
<feColorMatrix type="matrix" values="0 0 0 0 0 0 0 0 0 0 0 0 0 0 0 0 0 0 0.12 0"/>
<feBlend mode="normal" in2="BackgroundImageFix" result="effect1_dropShadow_69_267"/>
<feBlend mode="normal" in="SourceGraphic" in2="effect1_dropShadow_69_267" result="shape"/>
</filter>
</defs>
</svg>
