<svg width="32" height="32" viewBox="0 0 32 32" fill="none" xmlns="http://www.w3.org/2000/svg">
<g clip-path="url(#clip0_12_1417)">
<path d="M1.00001 32C0.738672 32 0.482672 31.8974 0.293339 31.7067C0.0453389 31.4587 -0.0546612 31.0987 0.0306722 30.7587L1.90801 23.224C1.95201 23.048 2.04267 22.8867 2.17067 22.7587L23.3027 1.62669C24.732 0.197354 27.0587 0.197354 28.488 1.62669L30.3733 3.51202C31.8027 4.94135 31.8027 7.26802 30.3733 8.69735L9.24134 29.8294C9.11334 29.9574 8.95201 30.0494 8.77601 30.092L1.24134 31.9694C1.16134 31.9907 1.08134 32 1.00001 32ZM3.78001 23.976L2.37201 29.6267L8.02267 28.2187L28.96 7.28269C29.6093 6.63335 29.6093 5.57469 28.96 4.92535L27.0747 3.04002C26.424 2.38935 25.3653 2.39069 24.7173 3.04002L3.78001 23.976ZM8.53467 29.1227H8.54801H8.53467Z" fill="black"/>
<path d="M26.4148 12.2427C26.1588 12.2427 25.9028 12.1454 25.7081 11.9494L20.0508 6.29336C19.6601 5.90269 19.6601 5.26936 20.0508 4.87869C20.4415 4.48803 21.0748 4.48803 21.4655 4.87869L27.1228 10.536C27.5135 10.9267 27.5135 11.56 27.1228 11.9507C26.9255 12.1454 26.6695 12.2427 26.4148 12.2427Z" fill="black"/>
<path d="M8.53469 30.1227C8.27869 30.1227 8.02269 30.0254 7.82802 29.8294L2.17069 24.172C1.78002 23.7814 1.78002 23.148 2.17069 22.7574C2.56135 22.3667 3.19469 22.3667 3.58535 22.7574L9.24269 28.4147C9.63335 28.8054 9.63335 29.4387 9.24269 29.8294C9.04669 30.0254 8.79069 30.1227 8.53469 30.1227Z" fill="black"/>
</g>
<defs>
<clipPath id="clip0_12_1417">
<rect width="32" height="32" fill="white"/>
</clipPath>
</defs>
</svg>
