<svg width="32" height="32" viewBox="0 0 32 32" fill="none" xmlns="http://www.w3.org/2000/svg">
<path d="M31 29.3333H13C12.448 29.3333 12 28.8853 12 28.3333C12 27.7813 12.448 27.3333 13 27.3333H31C31.552 27.3333 32 27.7813 32 28.3333C32 28.8853 31.552 29.3333 31 29.3333Z" fill="black"/>
<path d="M3.00017 29.3333C2.7375 29.3333 2.48283 29.2307 2.2935 29.04C2.04817 28.7947 1.94817 28.4413 2.02683 28.104L3.48017 21.9373C3.52283 21.756 3.61483 21.5907 3.74683 21.46L22.1322 3.07467C23.2628 1.94267 25.2415 1.94 26.3748 3.07467L28.2602 4.96C28.8268 5.52667 29.1388 6.28 29.1388 7.08134C29.1388 7.88267 28.8268 8.63734 28.2602 9.20267L9.87483 27.5867C9.74283 27.7187 9.5775 27.8107 9.3975 27.8533L3.23083 29.3067C3.1535 29.3253 3.07617 29.3333 3.00017 29.3333ZM5.3615 22.672L4.34417 26.9893L8.6615 25.972L26.8455 7.788C27.0348 7.59867 27.1388 7.348 27.1388 7.08134C27.1388 6.81467 27.0348 6.56267 26.8455 6.37467L24.9602 4.488C24.5828 4.11067 23.9228 4.11067 23.5468 4.488L5.3615 22.672ZM9.16683 26.88H9.18017H9.16683Z" fill="black"/>
<path d="M23.519 13.528C23.263 13.528 23.007 13.4306 22.8124 13.2346L18.0977 8.51998C17.707 8.12932 17.707 7.49598 18.0977 7.10532C18.4884 6.71465 19.1217 6.71465 19.5124 7.10532L24.227 11.82C24.6177 12.2106 24.6177 12.844 24.227 13.2346C24.031 13.4306 23.775 13.528 23.519 13.528Z" fill="black"/>
</svg>
