<svg width="32" height="32" viewBox="0 0 32 32" fill="none" xmlns="http://www.w3.org/2000/svg">
<g clip-path="url(#clip0_12_1529)">
<path d="M17.4106 26.352C16.7879 26.352 16.2013 26.1093 15.7613 25.668L6.33195 16.24C5.89062 15.7987 5.64795 15.2133 5.64795 14.5907C5.64795 13.968 5.89062 13.3813 6.33195 12.9413L6.96528 12.3067C7.65862 11.6133 8.57862 11.232 9.55862 11.232H11.1199C11.5653 11.232 11.9839 11.0587 12.2973 10.744L16.1199 6.92134C16.5013 6.54001 16.6319 5.98667 16.4613 5.47601C16.0506 4.24134 16.3666 2.90267 17.2866 1.98401L18.5893 0.68134C19.4999 -0.227993 20.9786 -0.229326 21.8893 0.68134L31.3173 10.1093C32.2279 11.0187 32.2279 12.5 31.3173 13.4093L30.0146 14.712C29.0946 15.632 27.7546 15.9467 26.5226 15.5373C26.0119 15.368 25.4586 15.4973 25.0773 15.8787L21.2546 19.7C20.9399 20.0147 20.7666 20.4333 20.7666 20.8787V22.44C20.7666 23.42 20.3853 24.34 19.6919 25.0333L19.0586 25.6667C18.6186 26.1093 18.0333 26.352 17.4106 26.352ZM9.55728 13.2333C9.11195 13.2333 8.69328 13.4067 8.37862 13.7213L7.74662 14.3547C7.61728 14.4853 7.61728 14.696 7.74662 14.8267L17.1746 24.2547C17.3053 24.3853 17.5159 24.3853 17.6466 24.2547L18.2799 23.6213C18.5946 23.3067 18.7679 22.888 18.7679 22.4427V20.88C18.7679 19.9 19.1493 18.9787 19.8426 18.2867L23.6639 14.4653C24.5826 13.544 25.9199 13.228 27.1559 13.64C27.6666 13.8093 28.2213 13.6787 28.6013 13.2987L29.9039 11.996C30.0346 11.8653 30.0346 11.6547 29.9039 11.524L20.4759 2.09601C20.3453 1.96534 20.1346 1.96667 20.0039 2.09601L18.6999 3.40001C18.3186 3.78134 18.1879 4.33467 18.3586 4.84534C18.7706 6.08001 18.4546 7.41734 17.5333 8.33734L13.7119 12.1587C13.0213 12.852 12.0999 13.2333 11.1199 13.2333H9.55728Z" fill="black"/>
<path d="M1.00008 32C0.744078 32 0.488078 31.9027 0.292078 31.7067C-0.0972556 31.316 -0.0972556 30.6827 0.293411 30.292L11.0534 19.5453C11.4427 19.156 12.0774 19.1547 12.4681 19.5467C12.8574 19.9373 12.8574 20.5707 12.4667 20.9613L1.70674 31.708C1.51208 31.9027 1.25608 32 1.00008 32Z" fill="black"/>
</g>
<defs>
<clipPath id="clip0_12_1529">
<rect width="32" height="32" fill="white"/>
</clipPath>
</defs>
</svg>
