<svg width="32" height="32" viewBox="0 0 32 32" fill="none" xmlns="http://www.w3.org/2000/svg">
<g clip-path="url(#clip0_12_1564)">
<path d="M21.6668 20.6667C15.9695 20.6667 11.3335 16.0307 11.3335 10.3333C11.3335 4.636 15.9695 0 21.6668 0C27.3642 0 32.0002 4.636 32.0002 10.3333C32.0002 16.0307 27.3642 20.6667 21.6668 20.6667ZM21.6668 2C17.0722 2 13.3335 5.73867 13.3335 10.3333C13.3335 14.928 17.0722 18.6667 21.6668 18.6667C26.2615 18.6667 30.0002 14.928 30.0002 10.3333C30.0002 5.73867 26.2615 2 21.6668 2Z" fill="black"/>
<path d="M1.00016 32C0.744155 32 0.488155 31.9026 0.293488 31.7066C-0.0971784 31.316 -0.0971784 30.6826 0.293488 30.292L14.3602 16.2253C14.7508 15.8346 15.3842 15.8346 15.7748 16.2253C16.1655 16.616 16.1655 17.2493 15.7748 17.64L1.70682 31.7066C1.51215 31.9026 1.25616 32 1.00016 32Z" fill="black"/>
<path d="M16.3335 11.3333C15.7815 11.3333 15.3335 10.8853 15.3335 10.3333C15.3335 6.84133 18.1748 4 21.6668 4C22.2188 4 22.6668 4.448 22.6668 5C22.6668 5.552 22.2188 6 21.6668 6C19.2775 6 17.3335 7.944 17.3335 10.3333C17.3335 10.8853 16.8855 11.3333 16.3335 11.3333Z" fill="black"/>
</g>
<defs>
<clipPath id="clip0_12_1564">
<rect width="32" height="32" fill="white"/>
</clipPath>
</defs>
</svg>
