<svg width="32" height="32" viewBox="0 0 32 32" fill="none" xmlns="http://www.w3.org/2000/svg">
<path d="M3.66669 32C3.11469 32 2.66669 31.552 2.66669 31V1C2.66669 0.448 3.11469 0 3.66669 0C4.21869 0 4.66669 0.448 4.66669 1V31C4.66669 31.552 4.21869 32 3.66669 32Z" fill="black"/>
<path d="M17.6667 17.3333H3.66669C3.11469 17.3333 2.66669 16.8853 2.66669 16.3333C2.66669 15.7813 3.11469 15.3333 3.66669 15.3333H17.6667C17.8507 15.3333 18 15.184 18 15V2.33333C18 2.14933 17.8507 2 17.6667 2H3.66669C3.11469 2 2.66669 1.552 2.66669 1C2.66669 0.448 3.11469 0 3.66669 0H17.6667C18.9534 0 20 1.04667 20 2.33333V15C20 16.2867 18.9534 17.3333 17.6667 17.3333Z" fill="black"/>
<path d="M27 22.6668H13.6666C12.38 22.6668 11.3333 21.6202 11.3333 20.3335V16.3335C11.3333 15.7815 11.7813 15.3335 12.3333 15.3335C12.8853 15.3335 13.3333 15.7815 13.3333 16.3335V20.3335C13.3333 20.5148 13.4853 20.6668 13.6666 20.6668H27C27.1813 20.6668 27.3333 20.5148 27.3333 20.3335V7.66683C27.3333 7.4855 27.1813 7.3335 27 7.3335H19C18.448 7.3335 18 6.8855 18 6.3335C18 5.7815 18.448 5.3335 19 5.3335H27C28.2866 5.3335 29.3333 6.38016 29.3333 7.66683V20.3335C29.3333 21.6202 28.2866 22.6668 27 22.6668Z" fill="black"/>
</svg>
