<svg width="32" height="32" viewBox="0 0 32 32" fill="none" xmlns="http://www.w3.org/2000/svg">
<path d="M24.3333 32H7.66667C5.644 32 4 30.356 4 28.3333V11C4 10.448 4.448 10 5 10C5.552 10 6 10.448 6 11V28.3333C6 29.252 6.748 30 7.66667 30H24.3333C25.252 30 26 29.252 26 28.3333V11C26 10.448 26.448 10 27 10C27.552 10 28 10.448 28 11V28.3333C28 30.356 26.356 32 24.3333 32Z" fill="black"/>
<path d="M29.6668 12H2.3335C1.7815 12 1.3335 11.552 1.3335 11V7.66667C1.3335 5.644 2.9775 4 5.00016 4H27.0002C29.0228 4 30.6668 5.644 30.6668 7.66667V11C30.6668 11.552 30.2188 12 29.6668 12ZM3.3335 10H28.6668V7.66667C28.6668 6.748 27.9188 6 27.0002 6H5.00016C4.0815 6 3.3335 6.748 3.3335 7.66667V10Z" fill="black"/>
<path d="M21.6668 6C21.1148 6 20.6668 5.552 20.6668 5V2.33333C20.6668 2.14933 20.5175 2 20.3335 2H11.6668C11.4828 2 11.3335 2.14933 11.3335 2.33333V5C11.3335 5.552 10.8855 6 10.3335 6C9.7815 6 9.3335 5.552 9.3335 5V2.33333C9.3335 1.04667 10.3802 0 11.6668 0H20.3335C21.6202 0 22.6668 1.04667 22.6668 2.33333V5C22.6668 5.552 22.2188 6 21.6668 6Z" fill="black"/>
<path d="M16 26.6667C15.448 26.6667 15 26.2187 15 25.6667V17C15 16.448 15.448 16 16 16C16.552 16 17 16.448 17 17V25.6667C17 26.2187 16.552 26.6667 16 26.6667Z" fill="black"/>
<path d="M10.3335 26.6667C9.7815 26.6667 9.3335 26.2187 9.3335 25.6667V17C9.3335 16.448 9.7815 16 10.3335 16C10.8855 16 11.3335 16.448 11.3335 17V25.6667C11.3335 26.2187 10.8855 26.6667 10.3335 26.6667Z" fill="black"/>
<path d="M21.6665 26.6667C21.1145 26.6667 20.6665 26.2187 20.6665 25.6667V17C20.6665 16.448 21.1145 16 21.6665 16C22.2185 16 22.6665 16.448 22.6665 17V25.6667C22.6665 26.2187 22.2185 26.6667 21.6665 26.6667Z" fill="black"/>
</svg>
