<svg width="32" height="32" viewBox="0 0 32 32" fill="none" xmlns="http://www.w3.org/2000/svg">
<g clip-path="url(#clip0_12_1802)">
<path d="M28.3333 32H3.66667C1.644 32 0 30.356 0 28.3333V22.3333C0 21.7813 0.448 21.3333 1 21.3333C1.552 21.3333 2 21.7813 2 22.3333V28.3333C2 29.252 2.748 30 3.66667 30H28.3333C29.252 30 30 29.252 30 28.3333V22.3333C30 21.7813 30.448 21.3333 31 21.3333C31.552 21.3333 32 21.7813 32 22.3333V28.3333C32 30.356 30.356 32 28.3333 32Z" fill="black"/>
<path d="M16 22.6667C15.448 22.6667 15 22.2187 15 21.6667V1C15 0.448 15.448 0 16 0C16.552 0 17 0.448 17 1V21.6667C17 22.2187 16.552 22.6667 16 22.6667Z" fill="black"/>
<path d="M21.3332 7.33336C21.0772 7.33336 20.8212 7.23602 20.6265 7.04002L15.9999 2.41469L11.3732 7.04002C10.9825 7.43069 10.3492 7.43069 9.95853 7.04002C9.56786 6.64936 9.56786 6.01602 9.95853 5.62536L15.2919 0.292023C15.6825 -0.0986432 16.3159 -0.0986432 16.7065 0.292023L22.0399 5.62536C22.4305 6.01602 22.4305 6.64936 22.0399 7.04002C21.8452 7.23602 21.5892 7.33336 21.3332 7.33336Z" fill="black"/>
</g>
<defs>
<clipPath id="clip0_12_1802">
<rect width="32" height="32" fill="white"/>
</clipPath>
</defs>
</svg>
