<svg width="32" height="32" viewBox="0 0 32 32" fill="none" xmlns="http://www.w3.org/2000/svg">
<path d="M16 31.5C24.5604 31.5 31.5 24.5604 31.5 16C31.5 7.43959 24.5604 0.5 16 0.5C7.43959 0.5 0.5 7.43959 0.5 16C0.5 24.5604 7.43959 31.5 16 31.5Z" fill="#F3F3F4"/>
<path d="M28.4392 25.2374C26.9936 23.302 25.1165 21.7305 22.9571 20.6477C20.7977 19.5649 18.4155 19.0008 15.9999 19C13.5842 18.9992 11.2017 19.5619 9.04159 20.6434C6.88151 21.7248 5.00345 23.2951 3.55664 25.2296C4.99609 27.1739 6.87109 28.7538 9.0313 29.8427C11.1915 30.9317 13.5768 31.4993 15.9959 31.5C18.4151 31.5008 20.8008 30.9347 22.9616 29.8471C25.1225 28.7596 26.9985 27.1808 28.4392 25.2374Z" fill="#B4B4B4"/>
<path d="M16 17C19.3137 17 22 14.3137 22 11C22 7.68629 19.3137 5 16 5C12.6863 5 10 7.68629 10 11C10 14.3137 12.6863 17 16 17Z" fill="#B4B4B4"/>
</svg>
