<svg width="32" height="32" viewBox="0 0 32 32" fill="none" xmlns="http://www.w3.org/2000/svg">
<path d="M3.66675 32C3.11475 32 2.66675 31.552 2.66675 31V1C2.66675 0.448 3.11475 0 3.66675 0C4.21875 0 4.66675 0.448 4.66675 1V31C4.66675 31.552 4.21875 32 3.66675 32Z" fill="black"/>
<path d="M17.6667 17.3333H3.66675C3.11475 17.3333 2.66675 16.8853 2.66675 16.3333C2.66675 15.7813 3.11475 15.3333 3.66675 15.3333H17.6667C17.8507 15.3333 18.0001 15.184 18.0001 15V2.33333C18.0001 2.14933 17.8507 2 17.6667 2H3.66675C3.11475 2 2.66675 1.552 2.66675 1C2.66675 0.448 3.11475 0 3.66675 0H17.6667C18.9534 0 20.0001 1.04667 20.0001 2.33333V15C20.0001 16.2867 18.9534 17.3333 17.6667 17.3333Z" fill="black"/>
<path d="M27.0002 22.6666H13.6668C12.3802 22.6666 11.3335 21.62 11.3335 20.3333V16.3333C11.3335 15.7813 11.7815 15.3333 12.3335 15.3333C12.8855 15.3333 13.3335 15.7813 13.3335 16.3333V20.3333C13.3335 20.5146 13.4855 20.6666 13.6668 20.6666H27.0002C27.1815 20.6666 27.3335 20.5146 27.3335 20.3333V7.66665C27.3335 7.48531 27.1815 7.33331 27.0002 7.33331H19.0002C18.4482 7.33331 18.0002 6.88531 18.0002 6.33331C18.0002 5.78131 18.4482 5.33331 19.0002 5.33331H27.0002C28.2868 5.33331 29.3335 6.37998 29.3335 7.66665V20.3333C29.3335 21.62 28.2868 22.6666 27.0002 22.6666Z" fill="black"/>
</svg>
