<svg width="20" height="18" viewBox="0 0 20 18" fill="none" xmlns="http://www.w3.org/2000/svg">
<path d="M9.61344 17.3687C9.37814 17.3687 9.20167 17.3099 9.0252 17.1334C8.78991 16.8981 3.20168 11.9569 1.2605 9.3687C0.0840335 7.83929 -0.268907 5.83929 0.201681 4.07458C0.672268 2.3687 1.84874 1.07458 3.4958 0.427518C6.20168 -0.631307 8.31932 0.545165 9.61344 2.19223C10.9076 0.721636 13.3781 -0.748954 16.2605 0.427518C17.7311 1.01575 18.7899 2.1334 19.2017 3.60399C19.7311 5.42752 19.2017 7.66282 17.9075 9.3687C15.9664 11.9569 10.3781 16.8981 10.1428 17.1334C10.0252 17.3099 9.84873 17.3687 9.61344 17.3687V17.3687ZM5.55462 1.78046C5.14285 1.78046 4.73109 1.83928 4.20168 2.07458C3.08403 2.54517 2.2605 3.42752 1.96638 4.54517C1.61344 5.83929 1.90756 7.25106 2.73109 8.30988C4.20168 10.3099 8.14285 13.9569 9.67226 15.3099C11.1428 13.9569 15.1428 10.3099 16.6134 8.30988C17.5546 7.01576 17.9664 5.3687 17.6134 4.07458C17.3193 3.1334 16.7311 2.42752 15.7311 2.01576C13.084 0.956931 10.9664 3.19223 10.4958 4.1334C10.3193 4.42752 10.0252 4.60399 9.73108 4.60399C9.37814 4.60399 9.08403 4.42752 8.96638 4.1334C8.49579 3.54517 7.43697 1.78046 5.55462 1.78046V1.78046Z" fill="#181818"/>
</svg>
