<svg width="38" height="38" viewBox="0 0 38 38" fill="none" xmlns="http://www.w3.org/2000/svg">
<path d="M36.8125 9.5C37.1274 9.5 37.4295 9.37489 37.6522 9.15219C37.8749 8.92949 38 8.62744 38 8.3125C38 7.99756 37.8749 7.69551 37.6522 7.47281C37.4295 7.25011 37.1274 7.125 36.8125 7.125H19V4.75H36.8125C37.1274 4.75 37.4295 4.62489 37.6522 4.40219C37.8749 4.17949 38 3.87744 38 3.5625C38 3.24756 37.8749 2.94551 37.6522 2.72281C37.4295 2.50011 37.1274 2.375 36.8125 2.375H19V1.1875C19 0.872555 18.8749 0.57051 18.6522 0.347811C18.4295 0.125111 18.1274 0 17.8125 0C17.4976 0 17.1955 0.125111 16.9728 0.347811C16.7501 0.57051 16.625 0.872555 16.625 1.1875V2.375H14.25V1.1875C14.25 0.872555 14.1249 0.57051 13.9022 0.347811C13.6795 0.125111 13.3774 0 13.0625 0C12.7476 0 12.4455 0.125111 12.2228 0.347811C12.0001 0.57051 11.875 0.872555 11.875 1.1875V2.375H9.5V1.1875C9.5 0.872555 9.37489 0.57051 9.15219 0.347811C8.92949 0.125111 8.62744 0 8.3125 0C7.99756 0 7.69551 0.125111 7.47281 0.347811C7.25011 0.57051 7.125 0.872555 7.125 1.1875V2.375H5.9375C5.62256 2.375 5.32051 2.50011 5.09781 2.72281C4.87511 2.94551 4.75 3.24756 4.75 3.5625C4.75 3.87744 4.87511 4.17949 5.09781 4.40219C5.32051 4.62489 5.62256 4.75 5.9375 4.75H7.125V7.125H5.9375C5.62256 7.125 5.32051 7.25011 5.09781 7.47281C4.87511 7.69551 4.75 7.99756 4.75 8.3125C4.75 8.62744 4.87511 8.92949 5.09781 9.15219C5.32051 9.37489 5.62256 9.5 5.9375 9.5H7.125V19H0C0.316359 22.4196 1.60169 25.678 3.70511 28.3927C5.80852 31.1073 8.64273 33.1656 11.875 34.3259V36.8125C11.875 37.1274 12.0001 37.4295 12.2228 37.6522C12.4455 37.8749 12.7476 38 13.0625 38H24.9375C25.2524 38 25.5545 37.8749 25.7772 37.6522C25.9999 37.4295 26.125 37.1274 26.125 36.8125V34.3259C29.3573 33.1656 32.1915 31.1073 34.2949 28.3927C36.3983 25.678 37.6836 22.4196 38 19H19V9.5H36.8125ZM16.625 4.75V7.125H14.25V4.75H16.625ZM9.5 4.75H11.875V7.125H9.5V4.75ZM9.5 19V9.5H11.875V19H9.5ZM16.625 19H14.25V9.5H16.625V19Z" fill="black"/>
</svg>
