<svg width="38" height="38" viewBox="0 0 38 38" fill="none" xmlns="http://www.w3.org/2000/svg">
<path d="M22.7091 30.6904H22.6856C22.3728 30.6904 22.0728 30.8146 21.8516 31.0358C21.6304 31.257 21.5062 31.557 21.5062 31.8698C21.5062 32.103 21.5753 32.331 21.7049 32.525C21.8345 32.7189 22.0187 32.8701 22.2342 32.9594C22.4497 33.0486 22.6869 33.072 22.9156 33.0265C23.1444 32.981 23.3546 32.8687 23.5195 32.7037C23.6844 32.5388 23.7968 32.3286 23.8423 32.0998C23.8878 31.8711 23.8644 31.6339 23.7752 31.4184C23.6859 31.2029 23.5347 31.0187 23.3408 30.8891C23.1468 30.7595 22.9188 30.6904 22.6856 30.6904H22.7091Z" fill="black"/>
<path d="M17.9917 30.6904H17.9681C17.6573 30.6935 17.3604 30.8191 17.1417 31.0399C16.9231 31.2608 16.8005 31.559 16.8005 31.8698C16.8005 32.103 16.8696 32.331 16.9992 32.525C17.1288 32.7189 17.313 32.8701 17.5285 32.9594C17.744 33.0486 17.9812 33.072 18.21 33.0265C18.4387 32.981 18.6489 32.8687 18.8138 32.7037C18.9788 32.5388 19.0911 32.3286 19.1366 32.0998C19.1821 31.8711 19.1587 31.6339 19.0695 31.4184C18.9802 31.2029 18.8291 31.0187 18.6351 30.8891C18.4412 30.7595 18.2131 30.6904 17.9799 30.6904H17.9917Z" fill="black"/>
<path d="M13.2741 28.3315H13.2505C12.9398 28.3347 12.6428 28.4603 12.4242 28.6811C12.2056 28.902 12.0829 29.2002 12.0829 29.5109C12.0829 29.7442 12.1521 29.9722 12.2817 30.1662C12.4113 30.3601 12.5955 30.5113 12.811 30.6005C13.0265 30.6898 13.2636 30.7132 13.4924 30.6677C13.7212 30.6222 13.9314 30.5098 14.0963 30.3449C14.2612 30.1799 14.3736 29.9698 14.4191 29.741C14.4646 29.5122 14.4412 29.2751 14.352 29.0596C14.2627 28.8441 14.1115 28.6599 13.9176 28.5303C13.7236 28.4007 13.4956 28.3315 13.2623 28.3315H13.2741Z" fill="black"/>
<path d="M37.6828 15.5684C36.7036 16.2141 35.5536 16.5519 34.3808 16.5384C33.2079 16.5249 32.066 16.1607 31.1019 15.4927C30.1378 14.8247 29.3957 13.8835 28.9711 12.7901C28.5465 11.6968 28.4589 10.5013 28.7195 9.35775C27.3556 9.11848 26.1195 8.40691 25.2276 7.34771C24.3357 6.28852 23.845 4.94925 23.8415 3.56458C23.8494 2.60829 24.0924 1.66863 24.5491 0.828395C20.5844 -0.382324 16.3325 -0.263158 12.4418 1.16772C8.55114 2.5986 5.23518 5.26267 2.99961 8.75367C0.764049 12.2447 -0.268439 16.371 0.0595991 20.5035C0.387637 24.636 2.0582 28.5477 4.81653 31.6423C7.57487 34.7369 11.2696 36.8445 15.3373 37.6436C19.405 38.4427 23.6225 37.8896 27.3465 36.0685C31.0706 34.2475 34.0969 31.2584 35.9639 27.5572C37.8309 23.856 38.4362 19.6457 37.6875 15.5684H37.6828ZM19.1239 11.8203C20.5235 11.8203 21.8916 12.2353 23.0553 13.0129C24.219 13.7905 25.126 14.8956 25.6616 16.1887C26.1972 17.4817 26.3373 18.9045 26.0643 20.2772C25.7913 21.6499 25.1173 22.9108 24.1277 23.9004C23.138 24.89 21.8771 25.564 20.5045 25.837C19.1318 26.1101 17.709 25.9699 16.4159 25.4344C15.1229 24.8988 14.0177 23.9918 13.2402 22.8281C12.4626 21.6644 12.0476 20.2962 12.0476 18.8967C12.0476 17.0199 12.7931 15.22 14.1202 13.8929C15.4473 12.5659 17.2472 11.8203 19.1239 11.8203V11.8203ZM19.1239 35.4081C14.8409 35.4031 10.7275 33.7339 7.65199 30.753C4.5765 27.7722 2.77965 23.7129 2.64076 19.4321C3.03832 19.1245 3.53991 18.9835 4.03951 19.039C4.5391 19.0945 4.99756 19.342 5.31798 19.7293C5.7158 20.1589 6.19664 20.5033 6.73142 20.7417C7.26619 20.9801 7.84377 21.1075 8.42921 21.1163C8.93015 21.1071 9.42572 21.0113 9.89401 20.8332C10.2992 22.7799 11.3103 24.5483 12.7823 25.8851C14.2543 27.2219 16.1117 28.0583 18.0883 28.2746C20.0649 28.4909 22.0593 28.076 23.7856 27.0892C25.5118 26.1025 26.8814 24.5945 27.6981 22.7816C28.5509 23.7743 29.7159 24.4475 31.0019 24.6906C32.2878 24.9336 33.6182 24.7321 34.7744 24.119C33.6764 27.4025 31.5751 30.2584 28.7671 32.2839C25.9592 34.3093 22.5862 35.4021 19.1239 35.4081V35.4081Z" fill="black"/>
</svg>
