<svg width="39" height="29" viewBox="0 0 39 29" fill="none" xmlns="http://www.w3.org/2000/svg">
<path d="M37.07 21.37H35.7807C34.8879 15.9586 27.9545 11.8722 19.2617 11.8722C16.0009 11.835 12.7676 12.4711 9.76394 13.7409V4.74889H12.6133C13.3165 4.74966 14.0042 4.54139 14.5888 4.15053L16.9632 2.5739C17.152 2.44798 17.3728 2.37877 17.5996 2.37444H37.07C37.3849 2.37444 37.6869 2.24936 37.9095 2.02671C38.1322 1.80407 38.2572 1.50209 38.2572 1.18722C38.2572 0.872352 38.1322 0.570378 37.9095 0.347731C37.6869 0.125084 37.3849 2.17529e-06 37.07 2.17529e-06H17.5996C16.8963 -0.000776465 16.2087 0.207496 15.6241 0.598362L13.2496 2.17499C13.0609 2.30091 12.8401 2.37012 12.6133 2.37444H9.76394V1.18722C9.76394 0.872352 9.63886 0.570378 9.41621 0.347731C9.19356 0.125084 8.89159 2.17529e-06 8.57672 2.17529e-06C8.26185 2.17529e-06 7.95988 0.125084 7.73723 0.347731C7.51458 0.570378 7.3895 0.872352 7.3895 1.18722V2.37444H5.01506V1.18722C5.01506 0.872352 4.88998 0.570378 4.66733 0.347731C4.44468 0.125084 4.14271 2.17529e-06 3.82784 2.17529e-06C3.51297 2.17529e-06 3.21099 0.125084 2.98834 0.347731C2.7657 0.570378 2.64062 0.872352 2.64062 1.18722V2.37444H1.45339C1.13852 2.37444 0.83655 2.49953 0.613903 2.72217C0.391256 2.94482 0.266174 3.24679 0.266174 3.56167C0.266174 3.87654 0.391256 4.17851 0.613903 4.40116C0.83655 4.6238 1.13852 4.74889 1.45339 4.74889H2.64062V21.37H1.45339C1.17133 21.3689 0.898095 21.4683 0.682648 21.6504C0.467202 21.8325 0.323617 22.0853 0.277616 22.3636C0.231614 22.6419 0.286202 22.9275 0.431599 23.1692C0.576997 23.4109 0.803704 23.5929 1.07111 23.6827C1.83822 23.9451 2.50994 24.4297 3.00084 25.0749C3.49173 25.7201 3.7796 26.4968 3.82784 27.3061C3.82784 27.621 3.95292 27.9229 4.17557 28.1456C4.39821 28.3682 4.70019 28.4933 5.01506 28.4933H33.5084C33.8232 28.4933 34.1252 28.3682 34.3479 28.1456C34.5705 27.9229 34.6956 27.621 34.6956 27.3061C34.7431 26.4979 35.0299 25.7221 35.5195 25.0773C36.0091 24.4325 36.6794 23.9479 37.4452 23.6851C37.7138 23.5968 37.942 23.4156 38.0889 23.174C38.2358 22.9324 38.2917 22.6464 38.2464 22.3673C38.2012 22.0882 38.0579 21.8344 37.8422 21.6516C37.6266 21.4688 37.3527 21.3689 37.07 21.37ZM33.3374 21.37H30.9083C29.8683 18.5943 25.2121 16.6211 19.2617 16.6211C13.3114 16.6211 8.65508 18.5943 7.61507 21.37H5.18602C6.20228 17.4047 12.231 14.2467 19.2617 14.2467C26.2924 14.2467 32.3211 17.4047 33.3374 21.37ZM28.0661 21.37H10.4573C13.0461 19.6209 16.1445 18.7853 19.2617 18.9955C22.3789 18.7855 25.4772 19.6211 28.0661 21.37ZM7.3895 4.74889V15.016C6.52006 15.5784 5.72266 16.245 5.01506 17.001V4.74889H7.3895Z" fill="black"/>
</svg>
