<svg width="39" height="36" viewBox="0 0 39 36" fill="none" xmlns="http://www.w3.org/2000/svg">
<path d="M29.174 0L19.5748 16.6158H38.3934C38.4308 16.2847 38.4514 15.952 38.4551 15.6188C38.4565 12.4212 37.5951 9.28247 35.9616 6.53357C34.3281 3.78467 31.9832 1.52747 29.174 0V0ZM30.1472 13.0552C29.6777 13.0552 29.2188 12.916 28.8285 12.6552C28.4381 12.3944 28.1339 12.0237 27.9542 11.5899C27.7746 11.1562 27.7275 10.6789 27.8191 10.2185C27.9107 9.75804 28.1368 9.33509 28.4688 9.00312C28.8007 8.67116 29.2237 8.44508 29.6841 8.35349C30.1446 8.26191 30.6218 8.30891 31.0556 8.48857C31.4893 8.66823 31.86 8.97247 32.1209 9.36282C32.3817 9.75317 32.5209 10.2121 32.5209 10.6816C32.5209 11.3111 32.2708 11.9149 31.8257 12.36C31.3805 12.8052 30.7767 13.0552 30.1472 13.0552Z" fill="black"/>
<path d="M15.4636 18.9894L17.5192 15.4288L25.5256 1.5713C22.0653 0.0237934 18.2014 -0.378835 14.4964 0.422028C10.7914 1.22289 7.43875 3.18543 4.92651 6.02394C2.41428 8.86245 0.87364 12.4287 0.528881 16.2036C0.184123 19.9785 1.05325 23.7648 3.00972 27.0115C4.9662 30.2581 7.90788 32.7955 11.4065 34.2543C14.9051 35.713 18.7781 36.017 22.4615 35.1219C26.1448 34.2269 29.4464 32.1795 31.8854 29.2778C34.3244 26.3762 35.7737 22.7718 36.0221 18.9894H15.4636ZM18.2788 4.74728C18.5135 4.74728 18.743 4.81689 18.9382 4.9473C19.1333 5.07771 19.2855 5.26307 19.3753 5.47994C19.4651 5.69681 19.4886 5.93544 19.4428 6.16566C19.397 6.39589 19.284 6.60736 19.118 6.77335C18.952 6.93933 18.7405 7.05237 18.5103 7.09816C18.2801 7.14395 18.0415 7.12045 17.8246 7.03062C17.6077 6.94079 17.4224 6.78867 17.292 6.5935C17.1616 6.39832 17.0919 6.16886 17.0919 5.93412C17.0919 5.61935 17.217 5.31748 17.4396 5.0949C17.6621 4.87232 17.964 4.74728 18.2788 4.74728V4.74728ZM8.71047 14.242C8.94521 14.242 9.17467 14.3116 9.36985 14.442C9.56502 14.5724 9.71714 14.7578 9.80697 14.9747C9.8968 15.1915 9.9203 15.4302 9.87451 15.6604C9.82871 15.8906 9.71568 16.1021 9.5497 16.2681C9.38371 16.4341 9.17224 16.5471 8.94201 16.5929C8.71179 16.6387 8.47316 16.6152 8.25629 16.5253C8.03942 16.4355 7.85406 16.2834 7.72365 16.0882C7.59324 15.893 7.52363 15.6636 7.52363 15.4288C7.52363 15.1141 7.64867 14.8122 7.87125 14.5896C8.09383 14.3671 8.3957 14.242 8.71047 14.242ZM9.9709 26.1104C9.50143 26.1104 9.0425 25.9712 8.65215 25.7104C8.2618 25.4496 7.95756 25.0788 7.7779 24.6451C7.59824 24.2114 7.55124 23.7341 7.64283 23.2737C7.73442 22.8132 7.96049 22.3903 8.29245 22.0583C8.62442 21.7263 9.04737 21.5003 9.50782 21.4087C9.96827 21.3171 10.4455 21.3641 10.8793 21.5437C11.313 21.7234 11.6837 22.0276 11.9445 22.418C12.2054 22.8083 12.3446 23.2673 12.3446 23.7367C12.3446 24.3663 12.0945 24.97 11.6493 25.4152C11.2042 25.8603 10.6004 26.1104 9.9709 26.1104ZM12.3446 11.8683C11.8751 11.8683 11.4162 11.7291 11.0258 11.4683C10.6355 11.2075 10.3312 10.8367 10.1516 10.403C9.97193 9.96928 9.92492 9.49201 10.0165 9.03156C10.1081 8.57111 10.3342 8.14817 10.6661 7.8162C10.9981 7.48423 11.421 7.25816 11.8815 7.16657C12.3419 7.07498 12.8192 7.12199 13.2529 7.30165C13.6867 7.48131 14.0574 7.78555 14.3182 8.1759C14.579 8.56625 14.7183 9.02518 14.7183 9.49465C14.7183 10.1242 14.4682 10.7279 14.023 11.1731C13.5779 11.6182 12.9741 11.8683 12.3446 11.8683ZM17.0919 28.4841C16.8572 28.4841 16.6277 28.4145 16.4326 28.2841C16.2374 28.1537 16.0853 27.9683 15.9954 27.7514C15.9056 27.5346 15.8821 27.2959 15.9279 27.0657C15.9737 26.8355 16.0867 26.624 16.2527 26.458C16.4187 26.2921 16.6302 26.179 16.8604 26.1332C17.0906 26.0874 17.3293 26.1109 17.5461 26.2008C17.763 26.2906 17.9484 26.4427 18.0788 26.6379C18.2092 26.8331 18.2788 27.0625 18.2788 27.2973C18.2788 27.612 18.1537 27.9139 17.9312 28.1365C17.7086 28.3591 17.4067 28.4841 17.0919 28.4841ZM30.1472 21.3631C30.3819 21.3631 30.6114 21.4327 30.8066 21.5631C31.0017 21.6935 31.1539 21.8788 31.2437 22.0957C31.3335 22.3126 31.357 22.5512 31.3112 22.7814C31.2654 23.0117 31.1524 23.2231 30.9864 23.3891C30.8204 23.5551 30.609 23.6681 30.3787 23.7139C30.1485 23.7597 29.9099 23.7362 29.693 23.6464C29.4761 23.5566 29.2908 23.4044 29.1604 23.2093C29.03 23.0141 28.9604 22.7846 28.9604 22.5499C28.9604 22.2351 29.0854 21.9332 29.308 21.7107C29.5305 21.4881 29.8324 21.3631 30.1472 21.3631ZM24.213 23.7367C24.6825 23.7367 25.1414 23.8759 25.5317 24.1368C25.9221 24.3976 26.2263 24.7683 26.406 25.202C26.5856 25.6358 26.6326 26.113 26.5411 26.5735C26.4495 27.0339 26.2234 27.4569 25.8914 27.7889C25.5595 28.1208 25.1365 28.3469 24.6761 28.4385C24.2156 28.5301 23.7384 28.4831 23.3046 28.3034C22.8709 28.1238 22.5002 27.8195 22.2393 27.4292C21.9785 27.0388 21.8393 26.5799 21.8393 26.1104C21.8393 25.4809 22.0894 24.8771 22.5345 24.432C22.9797 23.9868 23.5834 23.7367 24.213 23.7367V23.7367Z" fill="black"/>
</svg>
