<svg width="37" height="38" viewBox="0 0 37 38" fill="none" xmlns="http://www.w3.org/2000/svg">
<path d="M36.1541 9.90613C36.0425 9.77842 35.9049 9.6761 35.7505 9.60605C35.596 9.53599 35.4284 9.49983 35.2588 9.5H31.6963V5.9375C31.6963 5.62256 31.5712 5.32051 31.3485 5.09781C31.1258 4.87511 30.8237 4.75 30.5088 4.75H26.9463V1.1875C26.9463 0.872555 26.8212 0.57051 26.5985 0.347811C26.3758 0.125111 26.0737 0 25.7588 0L21.0088 0C20.6938 0 20.3918 0.125111 20.1691 0.347811C19.9464 0.57051 19.8213 0.872555 19.8213 1.1875V4.75H17.4463V1.1875C17.4463 0.872555 17.3212 0.57051 17.0985 0.347811C16.8758 0.125111 16.5737 0 16.2588 0L11.5088 0C11.1938 0 10.8918 0.125111 10.6691 0.347811C10.4464 0.57051 10.3213 0.872555 10.3213 1.1875V4.75H6.75876C6.44382 4.75 6.14177 4.87511 5.91907 5.09781C5.69637 5.32051 5.57126 5.62256 5.57126 5.9375V9.5H2.00876C1.83848 9.49846 1.66985 9.53357 1.51433 9.60294C1.3588 9.67231 1.22002 9.77431 1.10739 9.90204C0.994753 10.0298 0.910909 10.1802 0.861541 10.3432C0.812174 10.5062 0.798437 10.6779 0.821263 10.8466L4.38376 36.9716C4.42251 37.2583 4.56453 37.5209 4.78317 37.7102C5.00181 37.8996 5.28204 38.0026 5.57126 38H31.6963C31.9855 38.0026 32.2657 37.8996 32.4844 37.7102C32.703 37.5209 32.845 37.2583 32.8838 36.9716L36.4463 10.8466C36.4677 10.6781 36.4527 10.5069 36.4023 10.3447C36.3519 10.1824 36.2673 10.0329 36.1541 9.90613V9.90613ZM5.57126 15.4375H3.85414L3.36964 11.875H5.57126V15.4375ZM10.3213 16.7556C9.74539 16.43 9.19016 16.0691 8.65876 15.675C8.45321 15.5208 8.2032 15.4375 7.94626 15.4375V7.125H10.3213V16.7556ZM17.4463 7.125H19.8213V18.9145C19.0306 18.9721 18.2369 18.9721 17.4463 18.9145V7.125ZM12.6963 5.9375V2.375H15.0713V18.5654C14.2617 18.387 13.4676 18.1448 12.6963 17.841V5.9375ZM18.6338 33.25C17.2209 33.3847 15.8111 32.9643 14.7029 32.0777C13.5946 31.1911 12.875 29.9079 12.6963 28.5C12.875 27.0921 13.5946 25.8089 14.7029 24.9223C15.8111 24.0357 17.2209 23.6153 18.6338 23.75C20.0466 23.6153 21.4564 24.0357 22.5646 24.9223C23.6729 25.8089 24.3926 27.0921 24.5713 28.5C24.3926 29.9079 23.6729 31.1911 22.5646 32.0777C21.4564 32.9643 20.0466 33.3847 18.6338 33.25V33.25ZM24.5713 5.9375V17.841C24.3551 17.9265 24.139 18.0049 23.9205 18.0785C23.493 18.2257 23.0608 18.3659 22.6166 18.4775C22.4789 18.5131 22.3364 18.5345 22.1963 18.5654V2.375H24.5713V5.9375ZM29.3213 15.4375C29.0643 15.4375 28.8143 15.5208 28.6088 15.675C28.0777 16.0702 27.5224 16.4319 26.9463 16.758V7.125H29.3213V15.4375ZM33.411 15.4375H31.6963V11.875H33.8979L33.411 15.4375Z" fill="black"/>
</svg>
