<svg width="38" height="36" viewBox="0 0 38 36" fill="none" xmlns="http://www.w3.org/2000/svg">
<path d="M0 16.7086C0.296518 20.1386 1.56904 23.4118 3.66709 26.1414C5.76513 28.871 8.60095 30.9427 11.8392 32.1115V34.6106C11.8392 34.9272 11.9649 35.2307 12.1888 35.4545C12.4126 35.6784 12.7161 35.8041 13.0327 35.8041H24.9673C25.2839 35.8041 25.5874 35.6784 25.8112 35.4545C26.0351 35.2307 26.1608 34.9272 26.1608 34.6106V32.1115C29.3992 30.9429 32.2352 28.8713 34.3333 26.1417C36.4314 23.4121 37.7038 20.1386 38 16.7086H0Z" fill="black"/>
<path d="M5.24168 14.3216C4.80908 13.3958 4.62017 12.3749 4.69286 11.3556C4.76554 10.3363 5.09742 9.35251 5.65701 8.49749L7.25625 10.0967L11.4811 14.3216H20.1934L18.2839 12.8894C18.0307 12.6995 17.8633 12.4168 17.8185 12.1035C17.7737 11.7901 17.8553 11.4718 18.0452 11.2186C18.2351 10.9654 18.5178 10.798 18.8312 10.7532C19.1445 10.7084 19.4628 10.79 19.7161 10.9799L22.5804 13.1281V10.7412C22.5804 10.4247 22.7061 10.1211 22.9299 9.8973C23.1537 9.67348 23.4573 9.54774 23.7738 9.54774C24.0904 9.54774 24.3939 9.67348 24.6177 9.8973C24.8416 10.1211 24.9673 10.4247 24.9673 10.7412V13.1281L27.8316 10.9799C27.957 10.8859 28.0997 10.8174 28.2515 10.7785C28.4033 10.7396 28.5613 10.731 28.7165 10.7532C28.8716 10.7754 29.0209 10.8279 29.1558 10.9077C29.2906 10.9876 29.4084 11.0932 29.5025 11.2186C29.5965 11.344 29.6649 11.4867 29.7038 11.6385C29.7427 11.7903 29.7513 11.9483 29.7292 12.1035C29.707 12.2586 29.6545 12.4079 29.5747 12.5427C29.4948 12.6776 29.3892 12.7954 29.2638 12.8894L27.3542 14.3216H35.2884C35.6592 13.2891 35.7869 12.1849 35.6615 11.095C35.5361 10.0051 35.1611 8.95882 34.5655 8.03744C33.97 7.11607 33.17 6.34444 32.2277 5.78256C31.2854 5.22068 30.2262 4.88367 29.1325 4.79774C28.4606 4.03975 27.6356 3.43292 26.7119 3.01733C25.7881 2.60175 24.7867 2.38686 23.7738 2.38686C22.7609 2.38686 21.7596 2.60175 20.8358 3.01733C19.9121 3.43292 19.0871 4.03975 18.4152 4.79774C17.7975 4.85706 17.191 5.00165 16.613 5.22739V1.19347C16.613 0.87694 16.4873 0.573377 16.2635 0.349558C16.0397 0.12574 15.7361 0 15.4196 0C13.4944 0.00229621 11.6288 0.668309 10.1374 1.88576C8.64607 3.10322 7.62006 4.79765 7.23238 6.68342L6.42082 5.87186C6.19188 5.66318 5.89511 5.54447 5.5854 5.53769C5.26769 5.53999 4.96189 5.65891 4.7261 5.87186C3.65105 6.96221 2.89566 8.32655 2.54214 9.81639C2.18862 11.3062 2.25051 12.8645 2.72108 14.3216H5.24168ZM14.2261 2.50628V13.701L9.4761 8.951C9.45574 8.75278 9.44777 8.55348 9.45223 8.35427C9.45195 6.97862 9.92697 5.64512 10.7969 4.57945C11.6668 3.51378 12.8782 2.78141 14.2261 2.50628V2.50628Z" fill="black"/>
</svg>
