<svg width="34" height="38" viewBox="0 0 34 38" fill="none" xmlns="http://www.w3.org/2000/svg">
<path d="M26.9402 4.13144C19.641 4.26761 14.5564 0.5795 11.0393 0.646C7.52217 0.7125 0.171277 2.87217 0.474222 19.0549C0.777166 35.2376 10.7596 37.4258 14.6292 37.354C32.7457 37.0152 39.8686 3.88972 26.9402 4.13144Z" fill="#EFEFEF"/>
<path d="M26.9011 12.4556L22.2144 17.1422C22.6472 18.335 22.6472 19.665 22.2144 20.8578L26.9011 25.5444C29.5294 21.5861 29.5294 16.4139 26.9011 12.4556ZM15.1528 24.2144L10.4556 28.9011C14.4139 31.5294 19.5861 31.5294 23.5444 28.9011L18.8578 24.2144C17.665 24.6472 16.3456 24.6472 15.1528 24.2144ZM11.7856 17.1528L7.09889 12.4556C4.47055 16.4139 4.47055 21.5861 7.09889 25.5444L11.7856 20.8472C11.3528 19.6544 11.3528 18.3456 11.7856 17.1528ZM10.4556 9.09889L15.1528 13.7856C16.3456 13.3528 17.665 13.3528 18.8578 13.7856L23.5444 9.09889C19.5861 6.47056 14.4139 6.47056 10.4556 9.09889Z" fill="#F3F3F1"/>
<path d="M26.9011 25.5444C26.4789 26.1989 25.9722 26.8217 25.3917 27.3917C24.8217 27.9722 24.1989 28.4789 23.5444 28.9011L18.8578 24.2144C19.6072 23.9506 20.3144 23.5178 20.9161 22.9161C21.5178 22.3144 21.9506 21.6072 22.2144 20.8578L26.9011 25.5444Z" fill="#2FDF84"/>
<path d="M15.1528 13.7856C14.3928 14.0389 13.6856 14.4822 13.0839 15.0839C12.4822 15.6855 12.0389 16.3928 11.7856 17.1528L7.09889 12.4556C7.52111 11.8011 8.02778 11.1783 8.60833 10.6083C9.17833 10.0278 9.80111 9.52111 10.4556 9.09888L15.1528 13.7856Z" fill="#2FDF84"/>
<path d="M26.9011 12.4556L22.2144 17.1422C21.9506 16.3928 21.5178 15.6856 20.9161 15.0839C20.3144 14.4822 19.6072 14.0494 18.8578 13.7856L23.5444 9.09888C24.1989 9.52111 24.8217 10.0278 25.3917 10.6083C25.9722 11.1783 26.4789 11.8011 26.9011 12.4556Z" fill="#2FDF84"/>
<path d="M15.1528 24.2144L10.4556 28.9011C9.80111 28.4789 9.17833 27.9722 8.60833 27.3917C8.02778 26.8217 7.52111 26.1989 7.09889 25.5444L11.7856 20.8472C12.0389 21.6072 12.4822 22.3144 13.0839 22.9161C13.6856 23.5178 14.3928 23.9611 15.1528 24.2144Z" fill="#2FDF84"/>
<path d="M10.9833 27.3917C10.4028 26.8217 9.89611 26.1989 9.47389 25.5444C9.14772 25.0536 8.86378 24.5448 8.61889 24.0213L7.09889 25.5444C7.52111 26.1989 8.02778 26.8217 8.60833 27.3917C9.17833 27.9722 9.80111 28.4789 10.4556 28.9011L11.4974 27.8614C11.3253 27.7062 11.148 27.5595 10.9833 27.3917Z" fill="#00B871"/>
<path d="M9.47389 12.4556C9.89611 11.8011 10.4028 11.1783 10.9833 10.6083C11.148 10.4405 11.3253 10.2938 11.4974 10.1386L10.4556 9.09888C9.80111 9.52111 9.17833 10.0278 8.60833 10.6083C8.02778 11.1783 7.52111 11.8011 7.09889 12.4556L8.61889 13.9787C8.86378 13.4552 9.14772 12.9464 9.47389 12.4556Z" fill="#00B871"/>
<path d="M12.8306 9.09888C14.4656 8.01272 16.3086 7.38361 18.1875 7.19466C15.5191 6.92655 12.7788 7.55672 10.4556 9.09888L11.4974 10.1386C11.9238 9.75649 12.3651 9.39972 12.8306 9.09888Z" fill="#D5DBE1"/>
<path d="M8.61889 13.9787L7.09889 12.4556C4.47055 16.4139 4.47055 21.5861 7.09889 25.5444L8.61889 24.0213C7.13161 20.8462 7.13161 17.1538 8.61889 13.9787Z" fill="#D5DBE1"/>
<path d="M12.8306 28.9011C12.3651 28.6003 11.9238 28.2435 11.4974 27.8614L10.4556 28.9011C12.7788 30.4433 15.5191 31.0734 18.1875 30.8053C16.3086 30.6164 14.4656 29.9873 12.8306 28.9011Z" fill="#D5DBE1"/>
<path d="M25.8033 4.65078L25.0568 5.39706L26.5494 6.89003L27.2959 6.14376L25.8033 4.65078Z" fill="#A4AFC1"/>
<path d="M30.0952 8.94237L29.3487 9.68864L30.8413 11.1816L31.5878 10.4353L30.0952 8.94237Z" fill="#A4AFC1"/>
<path d="M30.6551 4.65176L29.1623 6.14452L29.9087 6.89091L31.4015 5.39814L30.6551 4.65176Z" fill="#A4AFC1"/>
<path d="M3.5765 34.0417C2.70356 34.0417 1.99317 33.3313 1.99317 32.4583C1.99317 31.5854 2.70356 30.875 3.5765 30.875C4.44944 30.875 5.15983 31.5854 5.15983 32.4583C5.15983 33.3313 4.44944 34.0417 3.5765 34.0417ZM3.5765 31.9306C3.28517 31.9306 3.04872 32.167 3.04872 32.4583C3.04872 32.7497 3.28517 32.9861 3.5765 32.9861C3.86783 32.9861 4.10428 32.7497 4.10428 32.4583C4.10428 32.167 3.86783 31.9306 3.5765 31.9306Z" fill="#A4AFC1"/>
<path d="M17 31.6603C13.7563 31.6603 10.5126 30.4264 8.04361 27.9564C3.10572 23.0174 3.10572 14.9815 8.04361 10.0426C12.9826 5.10361 21.0185 5.10467 25.9574 10.0426C27.8036 11.8887 29.0186 14.2183 29.4724 16.7802L27.9134 17.0567C27.5165 14.8158 26.4525 12.7775 24.8375 11.1625C20.5161 6.84211 13.485 6.84211 9.1625 11.1625C4.84211 15.4839 4.84211 22.515 9.1625 26.8375C13.4839 31.1579 20.515 31.1579 24.8375 26.8375C26.9307 24.7433 28.0833 21.9608 28.0833 19H29.6667C29.6667 22.3841 28.3493 25.5645 25.9564 27.9564C23.4874 30.4264 20.2437 31.6603 17 31.6603Z" fill="black"/>
<path d="M17 25.3312C15.3776 25.3312 13.7563 24.7137 12.5213 23.4787C10.0523 21.0098 10.0523 16.9913 12.5213 14.5223C14.9902 12.0523 19.0087 12.0523 21.4777 14.5223C23.9466 16.9913 23.9466 21.0098 21.4777 23.4787C20.2437 24.7137 18.6224 25.3312 17 25.3312ZM17 14.2521C15.784 14.2521 14.5669 14.7144 13.6412 15.6412C11.7898 17.4937 11.7898 20.5063 13.6412 22.3588C15.4937 24.2113 18.5063 24.2113 20.3588 22.3588C22.2102 20.5063 22.2102 17.4937 20.3588 15.6412C19.4331 14.7144 18.216 14.2521 17 14.2521Z" fill="black"/>
<path d="M7.65562 11.8945L6.53605 13.014L11.2308 17.7088L12.3504 16.5892L7.65562 11.8945Z" fill="black"/>
<path d="M19.4179 23.6575L18.2983 24.7771L22.9856 29.4644L24.1052 28.3448L19.4179 23.6575Z" fill="black"/>
<path d="M11.0145 8.53581L9.89493 9.65539L14.5897 14.3501L15.7093 13.2306L11.0145 8.53581Z" fill="black"/>
<path d="M22.7768 20.2989L21.6572 21.4184L26.3445 26.1057L27.4641 24.9861L22.7768 20.2989Z" fill="black"/>
<path d="M14.5897 23.6502L9.895 28.3449L11.0146 29.4645L15.7093 24.7697L14.5897 23.6502Z" fill="black"/>
<path d="M26.3445 11.8946L21.6572 16.5819L22.7768 17.7015L27.464 13.0142L26.3445 11.8946Z" fill="black"/>
<path d="M11.2302 20.2904L6.53549 24.9852L7.65506 26.1048L12.3498 21.41L11.2302 20.2904Z" fill="black"/>
<path d="M22.9858 8.5356L18.2985 13.2229L19.4181 14.3425L24.1054 9.65518L22.9858 8.5356Z" fill="black"/>
</svg>
