<svg width="38" height="34" viewBox="0 0 38 34" fill="none" xmlns="http://www.w3.org/2000/svg">
<path d="M36.8684 19.7349C32.9703 13.5621 33.4917 7.30261 31.6128 4.32805C29.7339 1.3535 24.0783 -3.8145 10.393 4.82733C-3.29228 13.4692 0.00632958 23.1412 2.07311 26.4134C11.7483 41.7348 43.7718 30.6684 36.8684 19.7349Z" fill="#EFEFEF"/>
<path d="M29.8194 10.6561L27.2439 13.2317L22.7683 8.7561L25.3439 6.18055C26.1672 5.35722 27.4972 5.35722 28.3311 6.18055L29.8194 7.66888C30.6428 8.50277 30.6428 9.83277 29.8194 10.6561Z" fill="#2FDF84"/>
<path d="M27.2439 13.2317L13.0889 27.3867L7.125 28.875L8.61333 22.9111L22.7683 8.7561L27.2439 13.2317Z" fill="#F3F3F1"/>
<path d="M11.2522 22.9111L24.0878 10.0755L22.7683 8.7561L8.61333 22.9111L7.125 28.875L9.93911 28.173L11.2522 22.9111Z" fill="#D5DBE1"/>
<path d="M28.0114 25.344L27.2649 26.0903L28.7574 27.5832L29.5039 26.837L28.0114 25.344Z" fill="#A4AFC1"/>
<path d="M32.3023 29.6377L31.5559 30.3841L33.0487 31.8769L33.7951 31.1305L32.3023 29.6377Z" fill="#A4AFC1"/>
<path d="M28.5709 29.6373L27.0781 31.1301L27.8245 31.8765L29.3173 30.3837L28.5709 29.6373Z" fill="#A4AFC1"/>
<path d="M32.8618 25.346L31.369 26.8388L32.1154 27.5852L33.6082 26.0924L32.8618 25.346Z" fill="#A4AFC1"/>
<path d="M5.15005 20.6944C4.27711 20.6944 3.56672 19.984 3.56672 19.1111C3.56672 18.2382 4.27711 17.5278 5.15005 17.5278C6.023 17.5278 6.73339 18.2382 6.73339 19.1111C6.73339 19.984 6.023 20.6944 5.15005 20.6944ZM5.15005 18.5833C4.85872 18.5833 4.62227 18.8198 4.62227 19.1111C4.62227 19.4024 4.85872 19.6389 5.15005 19.6389C5.44139 19.6389 5.67783 19.4024 5.67783 19.1111C5.67783 18.8198 5.44139 18.5833 5.15005 18.5833Z" fill="#A4AFC1"/>
<path d="M22.7683 8.7561L25.3439 6.18055C26.1134 5.41105 27.3199 5.36988 28.1559 6.0391C28.0978 6.08555 28.0366 6.12671 27.9828 6.18055L24.0878 10.0755L22.7683 8.7561Z" fill="#00B871"/>
<path d="M7.125 29.6667C6.91811 29.6667 6.71544 29.5854 6.56555 29.4345C6.36922 29.2381 6.29005 28.9531 6.35761 28.684L7.84383 22.719C7.87867 22.5797 7.95044 22.452 8.05178 22.3506L24.7813 5.62111C25.9128 4.49061 27.7548 4.48956 28.8863 5.62111L30.3789 7.11367C31.5105 8.24523 31.5105 10.0872 30.3789 11.2187L23.7817 17.8159L22.6617 16.696L29.2589 10.0988C29.773 9.58473 29.773 8.74661 29.2589 8.23256L27.7674 6.74C27.2523 6.22489 26.4153 6.22489 25.9012 6.74L9.32583 23.3143L8.21117 27.7878L12.6846 26.6731L21.47 17.8867L22.5899 19.0066L13.6494 27.9482C13.5481 28.0496 13.4203 28.1224 13.281 28.1562L7.31606 29.6424C7.25272 29.6593 7.18939 29.6667 7.125 29.6667Z" fill="black"/>
<path d="M23.3257 8.19613L22.2061 9.3157L26.6844 13.794L27.804 12.6744L23.3257 8.19613Z" fill="black"/>
<path d="M9.171 22.3497L8.05143 23.4692L12.5297 27.9475L13.6493 26.828L9.171 22.3497Z" fill="black"/>
</svg>
