<svg width="34" height="38" viewBox="0 0 34 38" fill="none" xmlns="http://www.w3.org/2000/svg">
<path d="M12.1561 36.9434C18.8039 33.9255 24.9336 35.2978 28.1372 33.8443C31.3408 32.3897 37.2329 27.494 30.5438 12.7564C23.8548 -1.98128 13.8228 -0.0369517 10.2983 1.56221C-6.20217 9.05138 0.381334 42.2877 12.1561 36.9434Z" fill="#EFEFEF"/>
<path d="M14.625 27.7083H7.23611C6.075 27.7083 5.125 26.7583 5.125 25.5972V12.4028C5.125 11.2417 6.075 10.2917 7.23611 10.2917H9.34722H17.2639H19.375C20.5361 10.2917 21.4861 11.2417 21.4861 12.4028V14.5139V27.7083H14.625Z" fill="#F3F3F1"/>
<path d="M7.5 25.5972V12.4028C7.5 11.2417 8.45 10.2917 9.61111 10.2917H9.34722H7.23611C6.075 10.2917 5.125 11.2417 5.125 12.4028V25.5972C5.125 26.7583 6.075 27.7083 7.23611 27.7083H9.61111C8.45 27.7083 7.5 26.7583 7.5 25.5972Z" fill="#D5DBE1"/>
<path d="M17.2639 9.23611V11.3472C17.2639 11.9299 16.791 12.4028 16.2083 12.4028H10.4028C9.82011 12.4028 9.34722 11.9299 9.34722 11.3472V9.23611H11.1944C11.1944 8.075 12.1444 7.125 13.3056 7.125C14.4667 7.125 15.4167 8.075 15.4167 9.23611H17.2639Z" fill="#2FDF84"/>
<path d="M11.0403 10.6653H11.7264C12.1645 10.6653 12.5931 10.4152 12.7313 10.0003C13.0121 9.16222 13.3045 8.55422 14.7348 8.55422C14.9311 8.55422 15.1264 8.59011 15.3196 8.64078C15.0599 7.76889 14.2587 7.125 13.3056 7.125C12.1444 7.125 11.1944 8.075 11.1944 9.23611H9.34722V11.3472C9.34722 11.9299 9.82011 12.4028 10.4028 12.4028H11.0403V10.6653Z" fill="#00B871"/>
<path d="M27.8194 30.875H18.8472C18.2646 30.875 17.7917 30.4021 17.7917 29.8194V18.7361C17.7917 18.1534 18.2646 17.6806 18.8472 17.6806H27.8194C28.4021 17.6806 28.875 18.1534 28.875 18.7361V29.8194C28.875 30.4021 28.4021 30.875 27.8194 30.875Z" fill="#2FDF84"/>
<path d="M20.1667 29.8194V18.7361C20.1667 18.1534 20.6396 17.6806 21.2222 17.6806H18.8472C18.2646 17.6806 17.7917 18.1534 17.7917 18.7361V29.8194C17.7917 30.4021 18.2646 30.875 18.8472 30.875H21.2222C20.6396 30.875 20.1667 30.4021 20.1667 29.8194Z" fill="#00B871"/>
<path d="M26.1847 4.12387L25.4383 4.87025L26.9311 6.36302L27.6775 5.61664L26.1847 4.12387Z" fill="#A4AFC1"/>
<path d="M30.4766 8.41565L29.7303 9.16203L31.223 10.6548L31.9694 9.90842L30.4766 8.41565Z" fill="#A4AFC1"/>
<path d="M26.7444 8.41589L25.2516 9.90866L25.998 10.655L27.4908 9.16228L26.7444 8.41589Z" fill="#A4AFC1"/>
<path d="M31.0362 4.12396L29.5434 5.61673L30.2898 6.36311L31.7825 4.87035L31.0362 4.12396Z" fill="#A4AFC1"/>
<path d="M14.625 28.5H7.23611C5.63483 28.5 4.33333 27.1985 4.33333 25.5972V12.4028C4.33333 10.8015 5.63483 9.5 7.23611 9.5H9.34722V11.0833H7.23611C6.50883 11.0833 5.91667 11.6755 5.91667 12.4028V25.5972C5.91667 26.3245 6.50883 26.9167 7.23611 26.9167H14.625V28.5Z" fill="black"/>
<path d="M22.2778 14.5139H20.6944V12.4028C20.6944 11.6755 20.1023 11.0833 19.375 11.0833H17.2639V9.5H19.375C20.9763 9.5 22.2778 10.8015 22.2778 12.4028V14.5139Z" fill="black"/>
<path d="M16.2083 13.1944H10.4028C9.38417 13.1944 8.55556 12.3658 8.55556 11.3472V9.23611C8.55556 8.79911 8.91022 8.44444 9.34722 8.44444H10.5126C10.8577 7.22738 11.9798 6.33333 13.3056 6.33333C14.6313 6.33333 15.7534 7.22738 16.0986 8.44444H17.2639C17.7009 8.44444 18.0556 8.79911 18.0556 9.23611V11.3472C18.0556 12.3658 17.2269 13.1944 16.2083 13.1944ZM10.1389 10.0278V11.3472C10.1389 11.4929 10.2571 11.6111 10.4028 11.6111H16.2083C16.354 11.6111 16.4722 11.4929 16.4722 11.3472V10.0278H15.4167C14.9797 10.0278 14.625 9.67311 14.625 9.23611C14.625 8.50883 14.0328 7.91666 13.3056 7.91666C12.5783 7.91666 11.9861 8.50883 11.9861 9.23611C11.9861 9.67311 11.6314 10.0278 11.1944 10.0278H10.1389Z" fill="black"/>
<path d="M27.8194 31.6667H18.8472C17.8286 31.6667 17 30.838 17 29.8194V18.7361C17 17.7175 17.8286 16.8889 18.8472 16.8889H27.8194C28.8381 16.8889 29.6667 17.7175 29.6667 18.7361V29.8194C29.6667 30.838 28.8381 31.6667 27.8194 31.6667ZM18.8472 18.4722C18.7016 18.4722 18.5833 18.5904 18.5833 18.7361V29.8194C18.5833 29.9651 18.7016 30.0833 18.8472 30.0833H27.8194C27.9651 30.0833 28.0833 29.9651 28.0833 29.8194V18.7361C28.0833 18.5904 27.9651 18.4722 27.8194 18.4722H18.8472Z" fill="black"/>
<path d="M25.5764 22.6944H20.8264V24.2778H25.5764V22.6944Z" fill="black"/>
<path d="M25.5764 25.8611H20.8264V27.4444H25.5764V25.8611Z" fill="black"/>
</svg>
