<svg width="38" height="36" viewBox="0 0 38 36" fill="none" xmlns="http://www.w3.org/2000/svg">
<path d="M8.10456 4.87312C6.19928 11.9211 1.23922 15.7738 0.320889 19.1706C-0.597445 22.5674 -0.573168 30.2276 15.0512 34.4519C30.6755 38.6762 35.5627 29.7008 36.5718 25.9642C41.3018 8.4715 11.4792 -7.60988 8.10456 4.87312Z" fill="#EFEFEF"/>
<path d="M15.0417 26.4444C15.0417 27.0524 14.8833 27.6224 14.6068 28.1175C14.0199 29.1657 12.8978 29.875 11.6111 29.875C9.71638 29.875 8.18055 28.3392 8.18055 26.4444C8.18055 24.5497 9.71638 23.0139 11.6111 23.0139C13.5058 23.0139 15.0417 24.5497 15.0417 26.4444Z" fill="#2FDF84"/>
<path d="M22.9583 26.4444C22.9583 27.0524 23.1167 27.6224 23.3932 28.1175C23.9801 29.1657 25.1022 29.875 26.3889 29.875C28.2836 29.875 29.8194 28.3392 29.8194 26.4444C29.8194 24.5497 28.2836 23.0139 26.3889 23.0139C24.4942 23.0139 22.9583 24.5497 22.9583 26.4444Z" fill="#2FDF84"/>
<path d="M22.9583 26.4444C22.9583 27.0524 23.1167 27.6224 23.3932 28.1175C23.9801 29.1657 25.1022 29.875 26.3889 29.875C28.2836 29.875 29.8194 28.3392 29.8194 26.4444C29.8194 24.5497 28.2836 23.0139 26.3889 23.0139C24.4942 23.0139 22.9583 24.5497 22.9583 26.4444Z" fill="#2FDF84"/>
<path d="M10.5556 26.4444C10.5556 24.9688 11.4918 23.7222 12.7986 23.2377C12.4271 23.1004 12.0302 23.0139 11.6111 23.0139C9.71638 23.0139 8.18055 24.5497 8.18055 26.4444C8.18055 28.3392 9.71638 29.875 11.6111 29.875C12.0323 29.875 12.4334 29.7927 12.806 29.6533C11.495 29.1709 10.5556 27.9222 10.5556 26.4444Z" fill="#00B871"/>
<path d="M25.7682 28.1175C25.4917 27.6224 25.3333 27.0524 25.3333 26.4444C25.3333 24.9688 26.2696 23.7222 27.5764 23.2377C27.2048 23.1004 26.8079 23.0139 26.3889 23.0139C24.4942 23.0139 22.9583 24.5497 22.9583 26.4444C22.9583 27.0524 23.1167 27.6224 23.3932 28.1175C23.9801 29.1657 25.1022 29.875 26.3889 29.875C26.8058 29.875 27.1996 29.7895 27.569 29.6533C26.8027 29.3683 26.163 28.8226 25.7682 28.1175Z" fill="#00B871"/>
<path d="M3.90818 14.4646L3.16169 15.2108L4.65425 16.7038L5.40073 15.9575L3.90818 14.4646Z" fill="#A4AFC1"/>
<path d="M8.19895 18.7572L7.45257 19.5036L8.94533 20.9963L9.69172 20.2499L8.19895 18.7572Z" fill="#A4AFC1"/>
<path d="M4.46765 18.757L2.97488 20.2498L3.72127 20.9961L5.21403 19.5034L4.46765 18.757Z" fill="#A4AFC1"/>
<path d="M8.75837 14.4656L7.2656 15.9584L8.01199 16.7047L9.50475 15.212L8.75837 14.4656Z" fill="#A4AFC1"/>
<path d="M32.1944 6.65278C31.3215 6.65278 30.6111 5.94239 30.6111 5.06945C30.6111 4.1965 31.3215 3.48611 32.1944 3.48611C33.0674 3.48611 33.7778 4.1965 33.7778 5.06945C33.7778 5.94239 33.0674 6.65278 32.1944 6.65278ZM32.1944 4.54167C31.9042 4.54167 31.6667 4.77811 31.6667 5.06945C31.6667 5.36078 31.9042 5.59723 32.1944 5.59723C32.4847 5.59723 32.7222 5.36078 32.7222 5.06945C32.7222 4.77811 32.4847 4.54167 32.1944 4.54167Z" fill="#A4AFC1"/>
<path d="M11.6111 30.6667C9.28255 30.6667 7.38889 28.773 7.38889 26.4444C7.38889 24.1159 9.28255 22.2222 11.6111 22.2222C13.9397 22.2222 15.8333 24.1159 15.8333 26.4444C15.8333 27.1664 15.6476 27.8789 15.2971 28.5049C14.5519 29.838 13.1385 30.6667 11.6111 30.6667ZM11.6111 23.8055C10.1555 23.8055 8.97222 24.9899 8.97222 26.4444C8.97222 27.899 10.1555 29.0833 11.6111 29.0833C12.5664 29.0833 13.4488 28.565 13.9164 27.7312C14.1349 27.3406 14.25 26.8962 14.25 26.4444C14.25 24.9899 13.0667 23.8055 11.6111 23.8055Z" fill="black"/>
<path d="M26.2259 5.73835L13.9165 27.7309L15.2981 28.5042L27.6075 6.51165L26.2259 5.73835Z" fill="black"/>
<path d="M26.3889 30.6667C24.8615 30.6667 23.4481 29.838 22.7029 28.5038C22.3524 27.8789 22.1667 27.1664 22.1667 26.4444C22.1667 24.1159 24.0603 22.2222 26.3889 22.2222C28.7174 22.2222 30.6111 24.1159 30.6111 26.4444C30.6111 28.773 28.7174 30.6667 26.3889 30.6667ZM26.3889 23.8055C24.9333 23.8055 23.75 24.9899 23.75 26.4444C23.75 26.8962 23.8651 27.3406 24.0836 27.7301C24.5512 28.565 25.4336 29.0833 26.3889 29.0833C27.8445 29.0833 29.0278 27.899 29.0278 26.4444C29.0278 24.9899 27.8445 23.8055 26.3889 23.8055Z" fill="black"/>
<path d="M11.7738 5.73872L10.3922 6.51202L22.7016 28.5046L24.0832 27.7313L11.7738 5.73872Z" fill="black"/>
</svg>
