<svg width="38" height="34" viewBox="0 0 38 34" fill="none" xmlns="http://www.w3.org/2000/svg">
<path d="M36.8431 19.4858C32.851 13.3731 33.2753 7.10734 31.3511 4.16128C29.4268 1.21522 23.6919 -3.86411 10.1418 4.98672C-3.40839 13.8376 0.0380011 23.4589 2.15545 26.6984C12.065 41.8689 43.9143 30.3116 36.8431 19.4858Z" fill="#EFEFEF"/>
<path d="M10.2917 13.0417V26.7639C10.2917 27.925 11.2417 28.875 12.4028 28.875H25.5972C26.7583 28.875 27.7083 27.925 27.7083 26.7639V13.0417H10.2917Z" fill="#F3F3F1"/>
<path d="M29.8194 13.0417H8.18056V10.4028C8.18056 9.23639 9.12528 8.29167 10.2917 8.29167H27.7083C28.8747 8.29167 29.8194 9.23639 29.8194 10.4028V13.0417Z" fill="#2FDF84"/>
<path d="M12.6667 26.7639V13.0417H10.2917V26.7639C10.2917 27.925 11.2417 28.875 12.4028 28.875H14.7778C13.6167 28.875 12.6667 27.925 12.6667 26.7639Z" fill="#D5DBE1"/>
<path d="M12.6667 8.29167H10.2917C9.12528 8.29167 8.18056 9.23639 8.18056 10.4028V13.0417H10.5556V10.4028C10.5556 9.23639 11.5003 8.29167 12.6667 8.29167Z" fill="#00B871"/>
<path d="M5.00769 2.29718L4.26141 3.04367L5.75439 4.53623L6.50067 3.78974L5.00769 2.29718Z" fill="#A4AFC1"/>
<path d="M5.56826 6.58811L4.07549 8.08088L4.82188 8.82726L6.31464 7.3345L5.56826 6.58811Z" fill="#A4AFC1"/>
<path d="M9.85919 2.29682L8.36642 3.78959L9.11281 4.53597L10.6056 3.04321L9.85919 2.29682Z" fill="#A4AFC1"/>
<path d="M29.2917 4.48639C28.4187 4.48639 27.7083 3.776 27.7083 2.90306C27.7083 2.03011 28.4187 1.31973 29.2917 1.31973C30.1646 1.31973 30.875 2.03011 30.875 2.90306C30.875 3.776 30.1646 4.48639 29.2917 4.48639ZM29.2917 2.37528C29.0003 2.37528 28.7639 2.61173 28.7639 2.90306C28.7639 3.19439 29.0003 3.43084 29.2917 3.43084C29.583 3.43084 29.8194 3.19439 29.8194 2.90306C29.8194 2.61173 29.583 2.37528 29.2917 2.37528Z" fill="#A4AFC1"/>
<path d="M25.5972 29.6667H12.4028C10.8015 29.6667 9.5 28.3652 9.5 26.7639V13.0417H11.0833V26.7639C11.0833 27.4912 11.6755 28.0833 12.4028 28.0833H25.5972C26.3245 28.0833 26.9167 27.4912 26.9167 26.7639V13.0417H28.5V26.7639C28.5 28.3652 27.1985 29.6667 25.5972 29.6667Z" fill="black"/>
<path d="M29.8194 13.8333H24.8056V12.25H29.0278V10.4028C29.0278 9.6755 28.4356 9.08333 27.7083 9.08333H10.2917C9.56439 9.08333 8.97223 9.6755 8.97223 10.4028V12.25H23.2222V13.8333H8.18056C7.74356 13.8333 7.38889 13.4787 7.38889 13.0417V10.4028C7.38889 8.8015 8.69039 7.5 10.2917 7.5H27.7083C29.3096 7.5 30.6111 8.8015 30.6111 10.4028V13.0417C30.6111 13.4787 30.2564 13.8333 29.8194 13.8333Z" fill="black"/>
<path d="M24.2778 8.29167H22.6945V6.18056C22.6945 6.03489 22.5762 5.91667 22.4306 5.91667H15.5695C15.4238 5.91667 15.3056 6.03489 15.3056 6.18056V8.29167H13.7222V6.18056C13.7222 5.16195 14.5508 4.33334 15.5695 4.33334H22.4306C23.4492 4.33334 24.2778 5.16195 24.2778 6.18056V8.29167Z" fill="black"/>
<path d="M19.7917 17.7917H18.2083V24.6528H19.7917V17.7917Z" fill="black"/>
<path d="M15.3056 17.7917H13.7222V24.6528H15.3056V17.7917Z" fill="black"/>
<path d="M24.2778 17.7917H22.6945V24.6528H24.2778V17.7917Z" fill="black"/>
<path d="M35.8889 28.0833H2.11111V29.6667H35.8889V28.0833Z" fill="black"/>
</svg>
