<svg width="34" height="38" viewBox="0 0 34 38" fill="none" xmlns="http://www.w3.org/2000/svg">
<path d="M26.481 4.13144C19.1808 4.26761 14.0972 0.5795 10.5791 0.646C7.06089 0.7125 -0.288946 2.87217 0.0139987 19.0549C0.316943 35.2376 10.2993 37.4258 14.169 37.354C32.2866 37.0152 39.4084 3.88972 26.481 4.13144Z" fill="#EFEFEF"/>
<path d="M25.8445 8.05283L27.9482 10.1566C28.5425 10.7508 28.8761 11.5562 28.8761 12.3954V28.7639C28.8761 29.9303 27.9313 30.875 26.7649 30.875H7.23611C6.06972 30.875 5.125 29.9303 5.125 28.7639V9.23611C5.125 8.06972 6.06972 7.125 7.23611 7.125H23.6046C24.4448 7.125 25.2502 7.45856 25.8445 8.05283Z" fill="#F3F3F1"/>
<path d="M7.5 28.7639V9.23611C7.5 8.06972 8.44472 7.125 9.61111 7.125H7.23611C6.06972 7.125 5.125 8.06972 5.125 9.23611V28.7639C5.125 29.9303 6.06972 30.875 7.23611 30.875H9.61111C8.44472 30.875 7.5 29.9303 7.5 28.7639Z" fill="#D5DBE1"/>
<path d="M20.4306 7.125H9.34722V12.9306H20.4306V7.125Z" fill="#2FDF84"/>
<path d="M11.7222 7.125H9.34722V12.9306H11.7222V7.125Z" fill="#00B871"/>
<path d="M17 26.125C19.1861 26.125 20.9583 24.3528 20.9583 22.1667C20.9583 19.9805 19.1861 18.2083 17 18.2083C14.8139 18.2083 13.0417 19.9805 13.0417 22.1667C13.0417 24.3528 14.8139 26.125 17 26.125Z" fill="#2FDF84"/>
<path d="M15.4167 22.1667C15.4167 20.3976 16.5852 18.9166 18.1875 18.4099C17.8107 18.2907 17.4169 18.2083 17 18.2083C14.8139 18.2083 13.0417 19.9806 13.0417 22.1667C13.0417 24.3527 14.8139 26.125 17 26.125C17.4169 26.125 17.8107 26.0427 18.1875 25.9234C16.5852 25.4167 15.4167 23.9358 15.4167 22.1667Z" fill="#00B871"/>
<path d="M26.449 3.8586L25.7025 4.60488L27.1951 6.09786L27.9416 5.35158L26.449 3.8586Z" fill="#A4AFC1"/>
<path d="M30.74 8.15062L29.9935 8.8969L31.4861 10.3899L32.2326 9.6436L30.74 8.15062Z" fill="#A4AFC1"/>
<path d="M31.3001 3.85992L29.8073 5.35268L30.5537 6.09907L32.0464 4.6063L31.3001 3.85992Z" fill="#A4AFC1"/>
<path d="M26.7639 31.6667H7.23611C5.63484 31.6667 4.33334 30.3652 4.33334 28.7639V9.23611C4.33334 7.63484 5.63484 6.33334 7.23611 6.33334H23.6057C24.6475 6.33334 25.6682 6.75556 26.4039 7.49339L28.5066 9.59606C29.255 10.3444 29.6667 11.3388 29.6667 12.3954V28.7639C29.6667 30.3652 28.3652 31.6667 26.7639 31.6667ZM7.23611 7.91667C6.50884 7.91667 5.91667 8.50884 5.91667 9.23611V28.7639C5.91667 29.4912 6.50884 30.0833 7.23611 30.0833H26.7639C27.4912 30.0833 28.0833 29.4912 28.0833 28.7639V12.3954C28.0833 11.761 27.8363 11.1646 27.3877 10.716L25.2851 8.61334C24.8428 8.17 24.2316 7.91667 23.6057 7.91667H7.23611Z" fill="black"/>
<path d="M20.4306 13.7222H9.34722C8.91022 13.7222 8.55556 13.3676 8.55556 12.9306V7.125H10.1389V12.1389H19.6389V7.125H21.2222V12.9306C21.2222 13.3676 20.8676 13.7222 20.4306 13.7222Z" fill="black"/>
<path d="M17 26.9167C14.3812 26.9167 12.25 24.7855 12.25 22.1667C12.25 19.5478 14.3812 17.4167 17 17.4167C18.5802 17.4167 20.0527 18.1999 20.9372 19.5098L19.6262 20.3965C19.0362 19.5225 18.0534 19 17 19C15.2541 19 13.8333 20.4208 13.8333 22.1667C13.8333 23.9126 15.2541 25.3333 17 25.3333C18.7459 25.3333 20.1667 23.9126 20.1667 22.1667H21.75C21.75 24.7855 19.6188 26.9167 17 26.9167Z" fill="black"/>
<path d="M33.8889 30.0833H0.111115V31.6667H33.8889V30.0833Z" fill="black"/>
</svg>
