<svg width="38" height="26" viewBox="0 0 38 26" fill="none" xmlns="http://www.w3.org/2000/svg">
<path d="M33.5667 18.0667H19.6333C19.2533 18.0667 19 17.8133 19 17.4333C19 17.0533 19.2533 16.8 19.6333 16.8H33.5667C34.96 16.8 36.7333 15.66 36.7333 14.2667V4.13334C36.7333 2.74001 35.5933 1.60001 34.2 1.60001H15.2C13.8067 1.60001 12.6667 2.74001 12.6667 4.13334V8.56668C12.6667 8.94668 12.4133 9.20001 12.0333 9.20001C11.6533 9.20001 11.4 8.94668 11.4 8.56668V4.13334C11.4 1.98001 13.0467 0.333344 15.2 0.333344H34.2C36.3533 0.333344 38 1.98001 38 4.13334V14.2667C38 16.42 35.5933 18.0667 33.5667 18.0667Z" fill="black"/>
<path d="M17.1 5.4H15.8333C15.4533 5.4 15.2 5.14666 15.2 4.76666C15.2 4.38666 15.4533 4.13333 15.8333 4.13333H17.1C17.48 4.13333 17.7333 4.38666 17.7333 4.76666C17.7333 5.14666 17.48 5.4 17.1 5.4Z" fill="black"/>
<path d="M22.1667 5.4H20.9C20.52 5.4 20.2667 5.14666 20.2667 4.76666C20.2667 4.38666 20.52 4.13333 20.9 4.13333H22.1667C22.5467 4.13333 22.8 4.38666 22.8 4.76666C22.8 5.14666 22.5467 5.4 22.1667 5.4Z" fill="black"/>
<path d="M27.2333 5.4H25.9667C25.5867 5.4 25.3333 5.14666 25.3333 4.76666C25.3333 4.38666 25.5867 4.13333 25.9667 4.13333H27.2333C27.6133 4.13333 27.8667 4.38666 27.8667 4.76666C27.8667 5.14666 27.6133 5.4 27.2333 5.4Z" fill="black"/>
<path d="M32.3 5.4H31.0333C30.6533 5.4 30.4 5.14666 30.4 4.76666C30.4 4.38666 30.6533 4.13333 31.0333 4.13333H32.3C32.68 4.13333 32.9333 4.38666 32.9333 4.76666C32.9333 5.14666 32.68 5.4 32.3 5.4Z" fill="black"/>
<path d="M16.34 25.6667C16.0867 25.6667 15.8333 25.6667 15.58 25.54L5.44668 23.64C5.19335 23.64 5.06668 23.3867 5.06668 23.0067L6.33335 16.04V15.9133C7.47335 13.8867 9.88001 13 11.78 13L15.4533 9.32668C16.72 8.06002 17.9867 7.80668 18.8733 8.69335C19.76 9.58002 20.0133 10.5933 19.6333 11.3533L17.1 15.1534C16.2133 16.2934 15.96 17.0533 15.96 17.3067C15.96 17.94 16.34 18.7 16.8467 19.2067C17.48 19.7133 18.24 19.9667 19 19.84L22.1667 19.2067H27.36C27.6133 19.2067 27.8667 19.46 27.9933 19.7133C28.12 19.9667 27.9933 20.22 27.74 20.4733L21.4067 24.2733C20.52 24.9067 17.86 25.6667 16.34 25.6667ZM6.46001 22.6267L15.96 24.4C16.9733 24.6533 20.0133 23.7667 20.52 23.26L20.6467 23.1333L25.08 20.4733H22.2933L19.2533 21.1067C18.1133 21.2333 16.9733 20.98 16.0867 20.0934C15.2 19.3334 14.6933 18.32 14.6933 17.3067C14.6933 16.6733 15.2 15.66 16.0867 14.3934L18.62 10.5934C18.7467 10.34 18.4933 9.96002 18.1133 9.45335C17.6067 8.94668 16.4667 10.0867 16.4667 10.0867L12.6667 13.8867C12.4133 14.14 12.16 14.2667 12.0333 14.2667C10.3867 14.2667 8.36001 14.9 7.60001 16.42L6.46001 22.6267Z" fill="black"/>
<path d="M0.633333 25.6667C0.253333 25.6667 0 25.4134 0 25.0334V13.6334C0 13.5067 0.126667 13.2534 0.126667 13.1267C0.253333 13.1267 0.506667 13 0.633333 13C1.52 13 6.08 13.1267 7.34667 14.3934C7.6 14.52 7.6 14.7734 7.6 14.9C7.22 18.9534 6.33333 23.1334 6.33333 23.26C6.33333 23.3867 6.20667 23.5134 6.08 23.64C5.95333 23.7667 2.78667 25.6667 0.633333 25.6667ZM1.26667 14.2667V24.2734C2.53333 24.02 4.30667 23.1334 5.19333 22.6267C5.44667 21.74 6.08 18.32 6.33333 15.0267C5.32 14.6467 3.04 14.3934 1.26667 14.2667Z" fill="black"/>
<path d="M28.5 14.2667C26.7267 14.2667 25.3333 12.8734 25.3333 11.1C25.3333 9.32668 26.7267 7.93335 28.5 7.93335C29.0067 7.93335 29.64 8.06002 30.1467 8.31335C30.4 8.44002 30.4 8.69335 30.4 8.82002C30.4 8.94668 30.2733 9.20002 30.1467 9.32668C29.5133 9.70668 29.1333 10.34 29.1333 10.9733C29.1333 11.6067 29.5133 12.24 30.1467 12.62C30.4 12.7467 30.4 13 30.4 13.1267C30.4 13.2534 30.2733 13.5067 30.1467 13.6334C29.64 14.14 29.0067 14.2667 28.5 14.2667ZM28.5 9.20002C27.4867 9.20002 26.6 10.0867 26.6 11.1C26.6 12.1134 27.4867 13 28.5 13C28.12 12.4934 27.8667 11.7334 27.8667 11.1C27.8667 10.4667 28.12 9.70668 28.5 9.20002Z" fill="black"/>
<path d="M31.0333 14.2667C29.26 14.2667 27.8667 12.8734 27.8667 11.1C27.8667 9.32668 29.26 7.93335 31.0333 7.93335C32.8067 7.93335 34.2 9.32668 34.2 11.1C34.2 12.8734 32.8067 14.2667 31.0333 14.2667ZM31.0333 9.20002C30.02 9.20002 29.1333 10.0867 29.1333 11.1C29.1333 12.1134 30.02 13 31.0333 13C32.0467 13 32.9333 12.1134 32.9333 11.1C32.9333 10.0867 32.0467 9.20002 31.0333 9.20002Z" fill="black"/>
</svg>
