<svg width="38" height="24" viewBox="0 0 38 24" fill="none" xmlns="http://www.w3.org/2000/svg">
<path d="M19 23.78C18.24 23.78 17.48 23.5267 16.72 23.02C16.2133 22.7667 12.2867 19.98 9.12 17.32C8.61334 16.94 7.85334 16.18 7.22 15.42C6.71334 14.9134 6.20667 14.4067 5.95334 14.1534C5.7 13.9 5.7 13.52 5.82667 13.2667C6.08 13.0134 6.46 13.0134 6.71334 13.14C6.96667 13.3934 7.47334 13.9 8.10667 14.5334C8.74 15.1667 9.5 15.9267 9.88 16.3067C13.0467 18.9667 16.9733 21.6267 17.48 22.0067C17.9867 22.3867 18.4933 22.5134 19 22.5134C19.38 22.5134 20.2667 22.5134 20.2667 22.26C20.3933 22.0067 20.52 21.88 20.7733 21.88C21.0267 21.88 21.1533 21.88 21.4067 22.0067C21.5333 22.1334 21.7867 22.3867 22.2933 22.1334C22.9267 21.88 23.4333 21.12 23.56 20.4867C23.56 20.2334 23.6867 19.98 23.94 19.98C24.1933 19.8534 24.4467 19.98 24.5733 20.1067C24.8267 20.36 25.3333 20.2334 25.84 20.1067C26.3467 19.8534 26.8533 19.3467 26.7267 18.84C26.7267 18.5867 26.8533 18.3334 26.98 18.2067C27.2333 18.08 27.4867 18.08 27.6133 18.2067C27.9933 18.46 28.7533 18.46 29.1333 18.08C29.3867 17.8267 29.5133 17.5734 29.26 17.0667C28.6267 15.8 25.46 13.14 23.0533 10.9867C21.7867 9.84669 20.52 8.83336 19.6333 7.94669C19.2533 8.07336 19 8.32669 18.8733 8.45336C18.4933 8.70669 18.24 8.96002 17.6067 9.08669C16.4667 10.6067 15.0733 10.9867 13.3 10.3534C12.4133 10.1 12.16 9.46669 12.0333 9.08669C11.6533 7.56669 13.1733 5.41336 14.3133 4.27336C16.9733 1.61336 18.8733 0.600025 22.6733 2.24669C25.84 3.64002 28.3733 4.78002 28.3733 4.78002C28.7533 4.90669 28.88 5.28669 28.7533 5.66669C28.6267 6.04669 28.2467 6.17336 27.8667 6.04669C27.8667 6.04669 25.3333 4.90669 22.1667 3.51336C19.38 2.24669 17.9867 2.62669 15.3267 5.28669C14.3133 6.30002 13.1733 8.07336 13.4267 8.96003C13.4267 9.08669 13.5533 9.21336 13.8067 9.34002C15.58 9.84669 16.34 9.21336 16.8467 8.32669C16.9733 8.20003 17.1 8.07336 17.3533 8.07336C17.7333 8.07336 17.86 7.94669 18.24 7.69336C18.62 7.44003 19 7.18669 19.76 6.80669C20.0133 6.68002 20.2667 6.80669 20.3933 6.93336C21.28 7.82002 22.6733 8.96002 24.0667 10.1C26.98 12.5067 29.8933 15.04 30.6533 16.56C31.16 17.4467 30.9067 18.46 30.2733 19.0934C29.64 19.6 28.88 19.7267 28.12 19.6C27.8667 20.2334 27.36 20.8667 26.6 21.2467C25.9667 21.5 25.3333 21.6267 24.8267 21.5C24.4467 22.26 23.8133 23.02 23.0533 23.4C22.5467 23.6534 21.9133 23.6534 21.4067 23.4C20.52 23.6534 19.6333 23.78 19 23.78Z" fill="black"/>
<path d="M15.8333 4.14667H8.23334C7.85334 4.14667 7.60001 3.76667 7.60001 3.51334C7.60001 3.26001 7.85334 2.88 8.23334 2.88H15.8333C16.2133 2.88 16.4667 3.13334 16.4667 3.51334C16.4667 3.89334 16.2133 4.14667 15.8333 4.14667Z" fill="black"/>
<path d="M29.7667 17.4467C29.5133 17.4467 29.3867 17.32 29.26 17.1933C29.0067 16.94 29.1333 16.56 29.3867 16.3067L31.2867 15.04C31.54 14.7867 31.92 14.9133 32.1733 15.1667C32.4267 15.42 32.3 15.8 32.0467 16.0533L30.1467 17.32C30.02 17.32 29.8933 17.4467 29.7667 17.4467Z" fill="black"/>
<path d="M27.2333 19.3467C27.1067 19.3467 26.98 19.3467 26.8533 19.22C25.9667 18.5867 22.1667 14.5334 21.66 14.1534C21.4067 13.9 21.4067 13.52 21.66 13.2667C21.9133 13.0134 22.2933 13.0134 22.5467 13.2667C23.6867 14.5334 26.8533 17.8267 27.4867 18.3334C27.74 18.5867 27.8667 18.9667 27.6133 19.22C27.6133 19.22 27.36 19.3467 27.2333 19.3467Z" fill="black"/>
<path d="M24.0667 21.2467C23.94 21.2467 23.8133 21.2467 23.6867 21.12C22.5467 20.2333 19.6333 17.0667 19.1267 16.56C18.8733 16.3067 18.8733 15.9267 19.1267 15.6733C19.38 15.42 19.76 15.42 20.0133 15.6733C20.52 16.3067 23.4333 19.22 24.32 19.98C24.5733 20.2333 24.7 20.6133 24.4467 20.8667C24.4467 21.12 24.1933 21.2467 24.0667 21.2467Z" fill="black"/>
<path d="M20.9 23.1467C20.7733 23.1467 20.6467 23.1467 20.52 23.02C19.5067 22.1333 17.6067 20.2333 16.72 19.22C16.4667 18.9667 16.4667 18.5867 16.72 18.3333C16.9733 18.08 17.3533 18.08 17.6067 18.3333C18.62 19.3467 20.3933 21.2467 21.4067 22.1333C21.66 22.3867 21.66 22.7667 21.5333 23.02C21.28 23.02 21.0267 23.1467 20.9 23.1467Z" fill="black"/>
<path d="M0.633333 15.5467C0.253333 15.5467 0 15.2933 0 14.9133V0.980013C0 0.600013 0.253333 0.34668 0.633333 0.34668C1.77333 0.34668 7.34667 0.473346 8.74 1.74001C8.86667 1.86668 8.86667 1.99335 8.86667 2.24668C8.48667 6.30001 6.46 14.66 6.33333 15.04C6.20667 15.2933 5.95333 15.5467 5.7 15.5467C5.7 15.5467 2.66 15.5467 0.633333 15.5467ZM1.26667 1.61335V14.28C2.66 14.28 4.43333 14.28 5.19333 14.28C5.57333 12.5067 7.22 6.04668 7.6 2.50001C6.58667 1.86668 3.54667 1.61335 1.26667 1.61335Z" fill="black"/>
<path d="M37.3667 16.8133H32.3C32.0467 16.8133 31.7933 16.56 31.6667 16.3067C31.0333 14.1533 27.74 5.41334 26.7267 3.76668C26.6 3.64001 26.6 3.38668 26.6 3.26001C26.6 3.13334 26.8533 2.88001 26.98 2.88001C27.1067 2.88001 31.16 1.61334 37.3667 1.61334C37.7467 1.61334 38 1.86668 38 2.24668V16.18C38 16.4333 37.7467 16.8133 37.3667 16.8133ZM32.8067 15.5467H36.7333V2.88001C32.5533 2.88001 29.5133 3.51334 28.12 3.89334C29.5133 6.42668 32.0467 13.14 32.8067 15.5467Z" fill="black"/>
</svg>
