<svg width="38" height="34" viewBox="0 0 38 34" fill="none" xmlns="http://www.w3.org/2000/svg">
<path d="M2.53333 1.79999H1.26666C0.886665 1.79999 0.633331 1.54666 0.633331 1.16666C0.633331 0.786658 0.886665 0.533325 1.26666 0.533325H2.53333C2.91333 0.533325 3.16666 0.786658 3.16666 1.16666C3.16666 1.54666 2.91333 1.79999 2.53333 1.79999Z" fill="black"/>
<path d="M36.7333 1.79999H35.4667C35.0867 1.79999 34.8333 1.54666 34.8333 1.16666C34.8333 0.786658 35.0867 0.533325 35.4667 0.533325H36.7333C37.1133 0.533325 37.3667 0.786658 37.3667 1.16666C37.3667 1.54666 37.1133 1.79999 36.7333 1.79999Z" fill="black"/>
<path d="M11.4 19.5333C11.02 19.5333 10.7667 19.28 10.7667 18.9V6.23334C10.7667 5.85334 11.02 5.60001 11.4 5.60001C11.78 5.60001 12.0333 5.85334 12.0333 6.23334V18.9C12.0333 19.28 11.78 19.5333 11.4 19.5333Z" fill="black"/>
<path d="M8.86667 19.5333C8.48667 19.5333 8.23334 19.28 8.23334 18.9V10.0333C8.23334 9.65333 8.48667 9.39999 8.86667 9.39999C9.24667 9.39999 9.5 9.65333 9.5 10.0333V18.9C9.5 19.28 9.24667 19.5333 8.86667 19.5333Z" fill="black"/>
<path d="M6.33333 19.5333C5.95333 19.5333 5.7 19.28 5.7 18.9V13.8333C5.7 13.4533 5.95333 13.2 6.33333 13.2C6.71333 13.2 6.96666 13.4533 6.96666 13.8333V18.9C6.96666 19.28 6.71333 19.5333 6.33333 19.5333Z" fill="black"/>
<path d="M35.4667 24.6H2.53333C2.15333 24.6 1.89999 24.3467 1.89999 23.9667V1.16666C1.89999 0.786659 2.15333 0.533325 2.53333 0.533325H35.4667C35.8467 0.533325 36.1 0.786659 36.1 1.16666V23.9667C36.1 24.3467 35.8467 24.6 35.4667 24.6ZM3.16666 23.3333H34.8333V1.79999H3.16666V23.3333Z" fill="black"/>
<path d="M19 30.9333C18.62 30.9333 18.3667 30.68 18.3667 30.3V24.6C18.3667 24.22 18.62 23.9667 19 23.9667C19.38 23.9667 19.6333 24.22 19.6333 24.6V30.3C19.6333 30.68 19.38 30.9333 19 30.9333Z" fill="black"/>
<path d="M19 33.4667C17.9867 33.4667 17.1 32.58 17.1 31.5667C17.1 30.5533 17.9867 29.6667 19 29.6667C20.0133 29.6667 20.9 30.5533 20.9 31.5667C20.9 32.58 20.0133 33.4667 19 33.4667ZM19 30.9333C18.62 30.9333 18.3667 31.1867 18.3667 31.5667C18.3667 31.9467 18.62 32.2 19 32.2C19.38 32.2 19.6333 31.9467 19.6333 31.5667C19.6333 31.1867 19.38 30.9333 19 30.9333Z" fill="black"/>
<path d="M22.8 19.5333C19 19.5333 15.8333 16.3667 15.8333 12.5667C15.8333 8.76667 19 5.60001 22.8 5.60001C23.18 5.60001 23.4333 5.85334 23.4333 6.23334C23.4333 6.61334 23.18 6.86667 22.8 6.86667C19.6333 6.86667 17.1 9.40001 17.1 12.5667C17.1 15.7333 19.6333 18.2667 22.8 18.2667C25.9667 18.2667 28.5 15.7333 28.5 12.5667C28.5 12.1867 28.7533 11.9333 29.1333 11.9333C29.5133 11.9333 29.7667 12.1867 29.7667 12.5667C29.7667 16.3667 26.6 19.5333 22.8 19.5333Z" fill="black"/>
<path d="M31.6667 10.6666H25.3333C24.9533 10.6666 24.7 10.4133 24.7 10.0333V3.69998C24.7 3.31998 24.9533 3.06665 25.3333 3.06665C29.1333 3.06665 32.3 6.23332 32.3 10.0333C32.3 10.4133 32.0467 10.6666 31.6667 10.6666ZM25.9667 9.39998H31.0333C30.78 6.73998 28.6267 4.71332 25.9667 4.33332V9.39998Z" fill="black"/>
</svg>
