<svg width="38" height="38" viewBox="0 0 38 38" fill="none" xmlns="http://www.w3.org/2000/svg">
<g clip-path="url(#clip0_8_1046)">
<path d="M11.4 36.1C11.1467 36.1 11.02 35.9733 10.8933 35.72C10.26 34.8333 8.74 34.2 6.96667 34.2C5.19334 34.2 3.67334 34.8333 3.04 35.72C2.91334 35.9733 2.53334 36.1 2.15334 35.9733C1.9 35.8467 1.77334 35.4667 1.9 35.0867C2.78667 33.82 4.68667 32.9333 6.96667 32.9333C9.24667 32.9333 11.1467 33.82 11.9067 35.2133C12.0333 35.4667 11.9067 35.8467 11.6533 36.1C11.6533 36.1 11.5267 36.1 11.4 36.1Z" fill="black"/>
<path d="M6.96668 31.6667C5.95335 31.6667 5.06668 30.78 5.06668 29.7667C5.06668 28.7533 5.95335 27.8667 6.96668 27.8667C7.98001 27.8667 8.86668 28.7533 8.86668 29.7667C8.86668 30.78 7.98001 31.6667 6.96668 31.6667ZM6.96668 29.1333C6.58668 29.1333 6.33335 29.3867 6.33335 29.7667C6.33335 30.1467 6.58668 30.4 6.96668 30.4C7.34668 30.4 7.60001 30.1467 7.60001 29.7667C7.60001 29.3867 7.34668 29.1333 6.96668 29.1333Z" fill="black"/>
<path d="M6.96667 38C3.16667 38 0 34.8333 0 31.0333C0 27.2333 3.16667 24.0667 6.96667 24.0667C10.7667 24.0667 13.9333 27.2333 13.9333 31.0333C13.9333 34.8333 10.7667 38 6.96667 38ZM6.96667 25.3333C3.8 25.3333 1.26667 27.8667 1.26667 31.0333C1.26667 34.2 3.8 36.7333 6.96667 36.7333C10.1333 36.7333 12.6667 34.2 12.6667 31.0333C12.6667 27.8667 10.1333 25.3333 6.96667 25.3333Z" fill="black"/>
<path d="M29.7667 16.4667C25.2067 16.4667 21.5333 12.7933 21.5333 8.23333C21.5333 3.67333 25.2067 0 29.7667 0C34.3267 0 38 3.67333 38 8.23333C38 12.7933 34.3267 16.4667 29.7667 16.4667ZM29.7667 1.26667C25.9667 1.26667 22.8 4.43333 22.8 8.23333C22.8 12.0333 25.9667 15.2 29.7667 15.2C33.5667 15.2 36.7333 12.0333 36.7333 8.23333C36.7333 4.43333 33.5667 1.26667 29.7667 1.26667Z" fill="black"/>
<path d="M12.0333 12.6667C11.9067 12.6667 11.6533 12.6667 11.5267 12.54L0.126677 1.14001C1.05847e-05 0.886676 1.05847e-05 0.380009 0.126677 0.126676C0.253344 -0.126657 0.760011 -0.126657 1.01334 0.126676L12.4133 11.5267C12.6667 11.78 12.6667 12.16 12.4133 12.4133C12.4133 12.6667 12.16 12.6667 12.0333 12.6667Z" fill="black"/>
<path d="M0.633344 12.6667C0.506677 12.6667 0.253344 12.6667 0.126677 12.54C1.05817e-05 12.2867 1.05817e-05 11.78 0.126677 11.5267L11.5267 0.126677C11.78 1.05817e-05 12.2867 1.05817e-05 12.54 0.126677C12.7933 0.253344 12.7933 0.760011 12.54 1.01334L1.14001 12.4133C1.01334 12.6667 0.760011 12.6667 0.633344 12.6667Z" fill="black"/>
<path d="M34.8333 35.4667C34.7067 35.4667 34.4533 35.4667 34.3267 35.34L24.1933 25.2067C23.94 24.9533 23.94 24.5733 24.1933 24.32C24.4467 24.0667 24.8267 24.0667 25.08 24.32L35.2133 34.4533C35.4667 34.7067 35.4667 35.0867 35.2133 35.34C35.2133 35.4667 34.96 35.4667 34.8333 35.4667Z" fill="black"/>
<path d="M9.49999 25.3333C9.37332 25.3333 9.37332 25.3333 9.24665 25.3333C8.86665 25.2067 8.73999 24.8267 8.86665 24.5733C10.5133 19.5067 13.9333 16.0867 19.38 14.06C19.76 13.9333 20.0133 14.06 20.14 14.44C20.2667 14.82 20.14 15.0733 19.76 15.2C14.6933 17.1 11.5267 20.2667 10.0067 24.9533C10.0067 25.2067 9.75332 25.3333 9.49999 25.3333Z" fill="black"/>
<path d="M18.3667 19C18.24 19 18.24 19 18.1133 19C17.7333 18.8733 17.6067 18.4933 17.7333 18.24L18.7467 15.0733L15.58 13.9333C15.2 13.8067 15.0733 13.4267 15.2 13.1733C15.3267 12.7933 15.7067 12.6667 15.96 12.7933L19.76 14.06C20.14 14.1867 20.2667 14.5667 20.14 14.82L18.8733 18.62C18.8733 18.8733 18.62 19 18.3667 19Z" fill="black"/>
<path d="M24.7 35.4667C24.5733 35.4667 24.32 35.4667 24.1933 35.34C23.94 35.0867 23.94 34.7067 24.1933 34.4533L34.3267 24.32C34.58 24.0667 34.96 24.0667 35.2133 24.32C35.4667 24.5733 35.4667 24.9533 35.2133 25.2067L25.08 35.34C25.08 35.4667 24.8267 35.4667 24.7 35.4667Z" fill="black"/>
<path d="M29.7667 11.4C27.74 11.4 26.0933 10.5133 25.9667 9.37334C25.9667 8.99334 26.22 8.74001 26.4733 8.61334C26.8533 8.61334 27.1067 8.86667 27.2333 9.12001C27.2333 9.50001 28.12 10.0067 29.7667 10.0067C31.2867 10.0067 32.3 9.37334 32.3 8.99334C32.3 8.86667 32.1733 8.36001 29.8933 8.10667H29.64C28.6267 7.98001 26.0933 7.72667 26.0933 5.95334C26.0933 4.68667 27.74 3.67334 29.8933 3.67334C31.92 3.67334 33.5667 4.56001 33.6933 5.70001C33.6933 6.08001 33.44 6.33334 33.1867 6.46001C32.8067 6.46001 32.5533 6.20667 32.4267 5.95334C32.4267 5.57334 31.54 5.06667 29.8933 5.06667C28.3733 5.06667 27.36 5.70001 27.36 6.08001C27.36 6.20667 27.4867 6.71334 29.7667 6.96667H30.02C31.0333 7.09334 33.5667 7.34667 33.5667 9.12001C33.5667 10.3867 31.92 11.4 29.7667 11.4Z" fill="black"/>
<path d="M29.7667 12.6667C29.3867 12.6667 29.1333 12.4134 29.1333 12.0334V3.16669C29.1333 2.78669 29.3867 2.53336 29.7667 2.53336C30.1467 2.53336 30.4 2.78669 30.4 3.16669V12.0334C30.4 12.4134 30.1467 12.6667 29.7667 12.6667Z" fill="black"/>
</g>
<defs>
<clipPath id="clip0_8_1046">
<rect width="38" height="38" fill="white"/>
</clipPath>
</defs>
</svg>
