<svg width="36" height="38" viewBox="0 0 36 38" fill="none" xmlns="http://www.w3.org/2000/svg">
<path d="M28.7667 32.3C25.0933 32.3 21.8 24.7 21.8 16.4667C21.8 8.23333 25.0933 0.633331 28.7667 0.633331C32.44 0.633331 35.7333 8.23333 35.7333 16.4667C35.7333 24.7 32.44 32.3 28.7667 32.3ZM28.7667 1.9C26.2333 1.9 23.0667 8.36 23.0667 16.4667C23.0667 24.5733 26.2333 31.0333 28.7667 31.0333C31.3 31.0333 34.4667 24.5733 34.4667 16.4667C34.4667 8.36 31.3 1.9 28.7667 1.9Z" fill="black"/>
<path d="M27.5 20.9C27.12 20.9 26.8667 20.6467 26.8667 20.2667C26.8667 19.8867 27.12 19.6333 27.5 19.6333C29.02 19.6333 30.6667 18.24 30.6667 16.4667C30.6667 14.6933 29.02 13.3 27.5 13.3C27.12 13.3 26.8667 13.0467 26.8667 12.6667C26.8667 12.2867 27.12 12.0333 27.5 12.0333C29.6533 12.0333 31.9333 13.9333 31.9333 16.4667C31.9333 19 29.6533 20.9 27.5 20.9Z" fill="black"/>
<path d="M26.2333 31.0333C26.1067 31.0333 25.98 31.0333 25.8533 30.9067L14.58 23.4333L5.96666 22.8C2.67333 22.8 0.266663 20.0133 0.266663 16.4667C0.266663 13.0467 2.54666 10.7667 5.96666 10.7667H14.58L25.22 3.29335C25.4733 3.16668 25.8533 3.16668 25.98 3.42001C26.2333 3.67335 26.2333 3.92668 26.1067 4.18001C24.2067 7.09335 23.0667 11.6533 23.0667 16.4667C23.0667 21.66 24.9667 27.36 26.74 30.02C26.8667 30.2733 26.8667 30.6533 26.6133 30.78C26.6133 31.0333 26.36 31.0333 26.2333 31.0333ZM5.96666 12.0333C3.30666 12.0333 1.53333 13.8067 1.53333 16.4667C1.53333 19.38 3.43333 21.5333 5.96666 21.5333L14.8333 22.1667C14.96 22.1667 15.0867 22.1667 15.0867 22.2933L24.3333 28.5C23.1933 25.5867 21.8 21.1533 21.8 16.4667C21.8 12.54 22.56 8.74001 23.8267 5.82668L15.2133 11.9067C15.0867 12.0333 14.96 12.0333 14.8333 12.0333H5.96666V12.0333Z" fill="black"/>
<path d="M13.5667 37.3667C13.44 37.3667 13.3133 37.3667 13.1867 37.24L9.38665 34.7067C8.37332 34.0733 7.86665 32.9333 7.86665 31.6667V25.5867L5.45999 22.5467C5.20665 22.2933 5.33332 21.9133 5.58665 21.66C5.83999 21.4067 6.21999 21.5333 6.47332 21.7867L9.00665 24.9533C9.13332 25.08 9.13332 25.2067 9.13332 25.3333V31.6667C9.13332 32.5533 9.51332 33.1867 10.1467 33.6933L13.5667 35.9733L13.82 35.72C14.3267 35.2133 14.96 34.2 14.96 33.6933V32.9333C14.96 32.3 14.4533 31.4133 13.82 30.9067C13.1867 30.2733 13.44 29.3867 13.5667 28.6267V28.3733L14.0733 23.4333C11.0333 22.9267 9.13332 19.6333 9.13332 16.4667C9.13332 13.0467 11.4133 10.7667 14.8333 10.7667C15.2133 10.7667 15.4667 11.02 15.4667 11.4C15.4667 11.78 15.2133 12.0333 14.8333 12.0333C12.1733 12.0333 10.4 13.8067 10.4 16.4667C10.4 19.2533 12.1733 22.1667 14.8333 22.1667C14.96 22.1667 15.2133 22.2933 15.34 22.42C15.4667 22.5467 15.4667 22.6733 15.4667 22.9267L14.7067 29.0067C14.7067 29.26 14.4533 29.8933 14.58 30.02C15.34 30.78 15.9733 32.0467 15.9733 32.9333V33.5667C15.9733 34.58 15.2133 35.8467 14.58 36.6067L13.9467 37.24C13.9467 37.24 13.6933 37.3667 13.5667 37.3667Z" fill="black"/>
</svg>
