<svg width="38" height="38" viewBox="0 0 38 38" fill="none" xmlns="http://www.w3.org/2000/svg">
<path d="M36.7333 1.26667H16.4667C16.0867 1.26667 15.8333 1.01333 15.8333 0.633333C15.8333 0.253333 16.0867 0 16.4667 0H36.7333C37.1133 0 37.3667 0.253333 37.3667 0.633333C37.3667 1.01333 37.1133 1.26667 36.7333 1.26667Z" fill="black"/>
<path d="M17.7333 20.2667C17.3533 20.2667 17.1 20.0133 17.1 19.6333V0.633333C17.1 0.253333 17.3533 0 17.7333 0C18.1133 0 18.3667 0.253333 18.3667 0.633333V19.6333C18.3667 20.0133 18.1133 20.2667 17.7333 20.2667Z" fill="black"/>
<path d="M35.4667 20.2667H17.7333C17.3533 20.2667 17.1 20.0133 17.1 19.6333C17.1 19.2533 17.3533 19 17.7333 19H34.8333V0.633333C34.8333 0.253333 35.0867 0 35.4667 0C35.8467 0 36.1 0.253333 36.1 0.633333V19.6333C36.1 20.0133 35.8467 20.2667 35.4667 20.2667Z" fill="black"/>
<path d="M26.6 25.9667C26.22 25.9667 25.9667 25.7133 25.9667 25.3333V19.6333C25.9667 19.2533 26.22 19 26.6 19C26.98 19 27.2333 19.2533 27.2333 19.6333V25.3333C27.2333 25.7133 26.98 25.9667 26.6 25.9667Z" fill="black"/>
<path d="M10.1333 38H4.43333C4.05333 38 3.8 37.7467 3.8 37.3667L3.16666 26.6C2.53333 26.6 1.77333 26.22 1.26666 25.7133C0.759998 25.2067 0.633331 24.5733 0.633331 24.0667L1.9 15.8333C2.15333 13.9333 3.67333 12.6667 5.7 12.6667H9.5C11.5267 12.6667 13.0467 13.9333 13.3 15.7067L14.5667 23.94C14.6933 24.5733 14.44 25.08 13.9333 25.5867C13.4267 26.22 12.6667 26.4733 12.0333 26.4733H11.9067L10.64 37.3667C10.7667 37.7467 10.5133 38 10.1333 38ZM5.06666 36.7333H9.62666L10.8933 25.84C10.7667 25.5867 11.02 25.3333 11.4 25.3333H12.0333C12.4133 25.3333 12.7933 25.08 13.0467 24.8267C13.3 24.5733 13.3 24.32 13.3 24.1933L12.0333 15.96C11.9067 14.6933 10.8933 13.9333 9.5 13.9333H5.7C4.56 13.9333 3.29333 14.5667 3.16666 15.96L1.9 24.1933C1.9 24.32 2.02666 24.5733 2.15333 24.8267C2.40666 25.08 2.78666 25.3333 3.16666 25.3333H3.8C4.18 25.3333 4.43333 25.5867 4.43333 25.9667L5.06666 36.7333Z" fill="black"/>
<path d="M7.6 11.4C5.19334 11.4 3.16667 9.37333 3.16667 6.96666C3.16667 4.55999 5.19334 2.53333 7.6 2.53333C10.0067 2.53333 12.0333 4.55999 12.0333 6.96666C12.0333 9.37333 10.0067 11.4 7.6 11.4ZM7.6 3.79999C5.82667 3.79999 4.43334 5.19333 4.43334 6.96666C4.43334 8.73999 5.82667 10.1333 7.6 10.1333C9.37334 10.1333 10.7667 8.73999 10.7667 6.96666C10.7667 5.19333 9.37334 3.79999 7.6 3.79999Z" fill="black"/>
<path d="M7.59999 15.2C7.21999 15.2 6.96666 14.9467 6.96666 14.5667V13.9333C6.96666 13.5533 7.21999 13.3 7.59999 13.3C7.97999 13.3 8.23333 13.5533 8.23333 13.9333V14.5667C8.23333 14.9467 7.97999 15.2 7.59999 15.2Z" fill="black"/>
<path d="M7.59999 21.5333C7.21999 21.5333 6.96666 21.28 6.96666 20.9V18.3667C6.96666 17.9867 7.21999 17.7333 7.59999 17.7333C7.97999 17.7333 8.23333 17.9867 8.23333 18.3667V20.9C8.23333 21.28 7.97999 21.5333 7.59999 21.5333Z" fill="black"/>
<path d="M25.3333 16.4667C22.1667 16.4667 19.6333 13.9333 19.6333 10.7667C19.6333 7.60001 22.1667 5.06668 25.3333 5.06668C25.7133 5.06668 25.9667 5.32001 25.9667 5.70001C25.9667 6.08001 25.7133 6.33335 25.3333 6.33335C22.9267 6.33335 20.9 8.36001 20.9 10.7667C20.9 13.1733 22.9267 15.2 25.3333 15.2C27.74 15.2 29.7667 13.1733 29.7667 10.7667C29.7667 10.3867 30.02 10.1333 30.4 10.1333C30.78 10.1333 31.0333 10.3867 31.0333 10.7667C31.0333 13.9333 28.5 16.4667 25.3333 16.4667Z" fill="black"/>
<path d="M32.9333 8.86666H27.8667C27.4867 8.86666 27.2333 8.61332 27.2333 8.23332V3.16666C27.2333 2.91333 27.6133 2.53333 27.8667 2.53333C31.0333 2.53333 33.5667 5.06666 33.5667 8.23332C33.5667 8.61332 33.3133 8.86666 32.9333 8.86666ZM28.5 7.59999H32.1733C31.92 5.69999 30.4 4.17999 28.5 3.92666V7.59999Z" fill="black"/>
<path d="M26.6 29.1333C25.5867 29.1333 24.7 28.2467 24.7 27.2333C24.7 26.22 25.5867 25.3333 26.6 25.3333C27.6133 25.3333 28.5 26.22 28.5 27.2333C28.5 28.2467 27.6133 29.1333 26.6 29.1333ZM26.6 26.6C26.22 26.6 25.9667 26.8533 25.9667 27.2333C25.9667 27.6133 26.22 27.8667 26.6 27.8667C26.98 27.8667 27.2333 27.6133 27.2333 27.2333C27.2333 26.8533 26.98 26.6 26.6 26.6Z" fill="black"/>
</svg>
