<svg width="38" height="38" viewBox="0 0 38 38" fill="none" xmlns="http://www.w3.org/2000/svg">
<path d="M34.0417 38H3.95833C1.77492 38 0 36.2251 0 34.0417V26.125C0 25.688 0.354667 25.3333 0.791667 25.3333C1.22867 25.3333 1.58333 25.688 1.58333 26.125V34.0417C1.58333 35.3511 2.64892 36.4167 3.95833 36.4167H34.0417C35.3511 36.4167 36.4167 35.3511 36.4167 34.0417V26.125C36.4167 25.688 36.7713 25.3333 37.2083 25.3333C37.6453 25.3333 38 25.688 38 26.125V34.0417C38 36.2251 36.2251 38 34.0417 38Z" fill="#6766DB"/>
<path d="M19 26.9167C18.563 26.9167 18.2083 26.562 18.2083 26.125V1.18749C18.2083 0.750495 18.563 0.395828 19 0.395828C19.437 0.395828 19.7917 0.750495 19.7917 1.18749V26.125C19.7917 26.562 19.437 26.9167 19 26.9167Z" fill="#110638"/>
<path d="M25.3333 7.9167C25.1307 7.9167 24.928 7.83912 24.7728 7.68553L19 1.91112L13.2272 7.68553C12.9184 7.99428 12.4165 7.99428 12.1078 7.68553C11.799 7.37678 11.799 6.87487 12.1078 6.56612L18.4411 0.232783C18.7498 -0.0759668 19.2518 -0.0759668 19.5605 0.232783L25.8938 6.56612C26.2026 6.87487 26.2026 7.37678 25.8938 7.68553C25.7387 7.83912 25.536 7.9167 25.3333 7.9167Z" fill="#110638"/>
</svg>
