<svg width="38" height="38" viewBox="0 0 38 38" fill="none" xmlns="http://www.w3.org/2000/svg">
<path d="M21.375 15.8333H8.70832C8.27132 15.8333 7.91666 15.4787 7.91666 15.0417C7.91666 14.6047 8.27132 14.25 8.70832 14.25H21.375C21.812 14.25 22.1667 14.6047 22.1667 15.0417C22.1667 15.4787 21.812 15.8333 21.375 15.8333Z" fill="#6766DB"/>
<path d="M15.0417 30.0833C6.74817 30.0833 0 23.3352 0 15.0417C0 6.74817 6.74817 0 15.0417 0C23.3352 0 30.0833 6.74817 30.0833 15.0417C30.0833 23.3352 23.3352 30.0833 15.0417 30.0833ZM15.0417 1.58333C7.62058 1.58333 1.58333 7.62058 1.58333 15.0417C1.58333 22.4628 7.62058 28.5 15.0417 28.5C22.4628 28.5 28.5 22.4628 28.5 15.0417C28.5 7.62058 22.4628 1.58333 15.0417 1.58333Z" fill="#110638"/>
<path d="M37.2083 38C37.0057 38 36.803 37.9224 36.6478 37.7688L24.5575 25.6785C24.2487 25.3697 24.2487 24.8678 24.5575 24.5591C24.8662 24.2503 25.3682 24.2503 25.6769 24.5591L37.7672 36.6494C38.076 36.9582 38.076 37.4601 37.7672 37.7688C37.6137 37.9224 37.411 38 37.2083 38Z" fill="#110638"/>
</svg>
