<svg width="36" height="38" viewBox="0 0 36 38" fill="none" xmlns="http://www.w3.org/2000/svg">
<path d="M28.2917 38H7.70833C5.5265 38 3.75 36.2235 3.75 34.0417V11.875C3.75 11.438 4.10467 11.0833 4.54167 11.0833C4.97867 11.0833 5.33333 11.438 5.33333 11.875V34.0417C5.33333 35.3511 6.39892 36.4167 7.70833 36.4167H28.2917C29.6011 36.4167 30.6667 35.3511 30.6667 34.0417V11.875C30.6667 11.438 31.0213 11.0833 31.4583 11.0833C31.8953 11.0833 32.25 11.438 32.25 11.875V34.0417C32.25 36.2235 30.4735 38 28.2917 38Z" fill="#110638"/>
<path d="M25.125 6.33333C24.688 6.33333 24.3333 5.97867 24.3333 5.54167V2.375C24.3333 1.938 23.9787 1.58333 23.5417 1.58333H12.4583C12.0213 1.58333 11.6667 1.938 11.6667 2.375V5.54167C11.6667 5.97867 11.312 6.33333 10.875 6.33333C10.438 6.33333 10.0833 5.97867 10.0833 5.54167V2.375C10.0833 1.06558 11.1489 0 12.4583 0H23.5417C24.8511 0 25.9167 1.06558 25.9167 2.375V5.54167C25.9167 5.97867 25.562 6.33333 25.125 6.33333Z" fill="#110638"/>
<path d="M18 31.6667C17.563 31.6667 17.2083 31.312 17.2083 30.875V18.2083C17.2083 17.7713 17.563 17.4167 18 17.4167C18.437 17.4167 18.7917 17.7713 18.7917 18.2083V30.875C18.7917 31.312 18.437 31.6667 18 31.6667Z" fill="#110638"/>
<path d="M10.875 31.6667C10.438 31.6667 10.0833 31.312 10.0833 30.875V18.2083C10.0833 17.7713 10.438 17.4167 10.875 17.4167C11.312 17.4167 11.6667 17.7713 11.6667 18.2083V30.875C11.6667 31.312 11.312 31.6667 10.875 31.6667Z" fill="#110638"/>
<path d="M25.125 31.6667C24.688 31.6667 24.3333 31.312 24.3333 30.875V18.2083C24.3333 17.7713 24.688 17.4167 25.125 17.4167C25.562 17.4167 25.9167 17.7713 25.9167 18.2083V30.875C25.9167 31.312 25.562 31.6667 25.125 31.6667Z" fill="#110638"/>
<path d="M34.625 12.6667H1.37501C0.93801 12.6667 0.583344 12.312 0.583344 11.875V8.70833C0.583344 6.5265 2.35984 4.75 4.54168 4.75H31.4583C33.6402 4.75 35.4167 6.5265 35.4167 8.70833V11.875C35.4167 12.312 35.062 12.6667 34.625 12.6667Z" fill="#FCC34A"/>
</svg>
