<svg width="38" height="38" viewBox="0 0 38 38" fill="none" xmlns="http://www.w3.org/2000/svg">
<path d="M0.231166 37.7688C-0.0775842 37.4601 -0.0775842 36.9582 0.231166 36.6494L17.727 19.1536C18.0357 18.8448 18.5377 18.8448 18.8464 19.1536C19.1552 19.4623 19.1552 19.9642 18.8464 20.273L1.35058 37.7688C1.04183 38.0776 0.541499 38.0776 0.231166 37.7688Z" fill="#FCC34A"/>
<path d="M26.125 23.75C19.5763 23.75 14.25 18.4237 14.25 11.875C14.25 5.32633 19.5763 0 26.125 0C32.6737 0 38 5.32633 38 11.875C38 18.4237 32.6737 23.75 26.125 23.75ZM26.125 1.58333C20.4503 1.58333 15.8333 6.20033 15.8333 11.875C15.8333 17.5497 20.4503 22.1667 26.125 22.1667C31.7997 22.1667 36.4167 17.5497 36.4167 11.875C36.4167 6.20033 31.7997 1.58333 26.125 1.58333Z" fill="#110638"/>
<path d="M19.7917 12.6667C19.3547 12.6667 19 12.312 19 11.875C19 7.94675 22.1967 4.75 26.125 4.75C26.562 4.75 26.9167 5.10467 26.9167 5.54167C26.9167 5.97867 26.562 6.33333 26.125 6.33333C23.0692 6.33333 20.5833 8.81917 20.5833 11.875C20.5833 12.312 20.2287 12.6667 19.7917 12.6667Z" fill="#110638"/>
</svg>
