<svg width="32" height="38" viewBox="0 0 32 38" fill="none" xmlns="http://www.w3.org/2000/svg">
<path d="M18.375 20.5833H0.958338C0.521338 20.5833 0.166672 20.2287 0.166672 19.7917V0.791667C0.166672 0.354667 0.521338 0 0.958338 0H18.375C19.6844 0 20.75 1.06558 20.75 2.375V18.2083C20.75 19.5178 19.6844 20.5833 18.375 20.5833ZM1.75001 19H18.375C18.8104 19 19.1667 18.6453 19.1667 18.2083V2.375C19.1667 1.938 18.8104 1.58333 18.375 1.58333H1.75001V19Z" fill="#110638"/>
<path d="M29.4583 26.9167H13.625C12.3156 26.9167 11.25 25.8511 11.25 24.5417V19.7917C11.25 19.3547 11.6047 19 12.0417 19C12.4787 19 12.8333 19.3547 12.8333 19.7917V24.5417C12.8333 24.9787 13.1896 25.3333 13.625 25.3333H29.4583C29.8938 25.3333 30.25 24.9787 30.25 24.5417V8.70833C30.25 8.27133 29.8938 7.91666 29.4583 7.91666H19.9583C19.5213 7.91666 19.1667 7.56199 19.1667 7.12499C19.1667 6.68799 19.5213 6.33333 19.9583 6.33333H29.4583C30.7678 6.33333 31.8333 7.39891 31.8333 8.70833V24.5417C31.8333 25.8511 30.7678 26.9167 29.4583 26.9167Z" fill="#110638"/>
<path d="M0.958338 38C0.521338 38 0.166672 37.6453 0.166672 37.2083V0.791667C0.166672 0.354667 0.521338 0 0.958338 0C1.39534 0 1.75001 0.354667 1.75001 0.791667V37.2083C1.75001 37.6453 1.39534 38 0.958338 38Z" fill="#FCC34A"/>
</svg>
