<svg width="38" height="38" viewBox="0 0 38 38" fill="none" xmlns="http://www.w3.org/2000/svg">
<path d="M0.231166 37.7688C-0.0775842 37.4601 -0.0775842 36.9582 0.231166 36.6494L13.7924 23.0882C14.1012 22.7794 14.6031 22.7794 14.9118 23.0882C15.2206 23.3969 15.2206 23.8988 14.9118 24.2076L1.35058 37.7688C1.04183 38.0776 0.541499 38.0776 0.231166 37.7688Z" fill="#FF7A55"/>
<path d="M21.071 30.4998C20.463 30.4998 19.855 30.2687 19.3911 29.8063L8.19533 18.6106C7.26908 17.6843 7.26908 16.1786 8.19533 15.2523L8.94583 14.4987C9.69316 13.7513 10.6875 13.3397 11.7452 13.3397H13.6008C14.2357 13.3397 14.8311 13.0927 15.2792 12.6446L19.8186 8.10675C20.3775 7.54783 20.5707 6.73558 20.3205 5.98508C19.8803 4.663 20.2192 3.2285 21.204 2.24367L22.7509 0.696749C23.6772 -0.227918 25.1845 -0.229501 26.1107 0.696749L37.3065 11.8925C38.2327 12.8187 38.2327 14.3261 37.3065 15.2523L35.7596 16.7992C34.7747 17.7857 33.3402 18.1261 32.0182 17.6843C31.2661 17.4342 30.4554 17.6257 29.8965 18.1847L25.3587 22.7225C24.909 23.1706 24.6636 23.7675 24.6636 24.4024V26.2565C24.6636 27.3142 24.2519 28.3085 23.5046 29.0558L22.7525 29.8079C22.287 30.2687 21.679 30.4998 21.071 30.4998ZM11.7452 14.923C11.1102 14.923 10.5149 15.17 10.0652 15.6181L9.31316 16.3702C9.00441 16.6789 9.00441 17.1808 9.31316 17.4896L20.5089 28.6853C20.8177 28.9941 21.3196 28.9941 21.6283 28.6853L22.3804 27.9332C22.8285 27.4836 23.0755 26.8882 23.0755 26.2533V24.3992C23.0755 23.3416 23.4872 22.3472 24.2345 21.5999L28.7723 17.0621C29.7572 16.0757 31.1901 15.7337 32.5137 16.1786C33.2642 16.4272 34.0749 16.2356 34.6354 15.6767L36.1823 14.1297C36.4911 13.821 36.4911 13.3191 36.1823 13.0087L24.9866 1.813C24.6794 1.50583 24.1759 1.50425 23.8656 1.813L22.3187 3.35992C21.7597 3.91883 21.5682 4.73267 21.8183 5.48158C22.2585 6.80367 21.9197 8.23816 20.9332 9.223L16.3954 13.7608C15.6481 14.5082 14.6537 14.9198 13.5961 14.9198H11.7452V14.923Z" fill="#110638"/>
</svg>
