<svg width="31" height="40" viewBox="0 0 31 40" fill="none" xmlns="http://www.w3.org/2000/svg">
<path d="M8 10C7.01109 10 6.04439 9.70676 5.22215 9.15735C4.3999 8.60794 3.75904 7.82705 3.3806 6.91342C3.00216 5.99979 2.90315 4.99446 3.09607 4.02455C3.289 3.05465 3.7652 2.16373 4.46446 1.46447C5.16373 0.765206 6.05464 0.289002 7.02455 0.0960758C7.99445 -0.0968503 8.99979 0.00216641 9.91342 0.380605C10.827 0.759043 11.6079 1.39991 12.1573 2.22215C12.7068 3.0444 13 4.0111 13 5C13 6.32608 12.4732 7.59785 11.5355 8.53554C10.5979 9.47322 9.32608 10 8 10ZM8 2.5C7.50555 2.5 7.0222 2.64662 6.61107 2.92133C6.19995 3.19603 5.87952 3.58648 5.6903 4.04329C5.50108 4.50011 5.45157 5.00278 5.54804 5.48773C5.6445 5.97268 5.8826 6.41814 6.23223 6.76777C6.58186 7.1174 7.02732 7.3555 7.51227 7.45197C7.99723 7.54843 8.49989 7.49892 8.95671 7.3097C9.41352 7.12048 9.80397 6.80005 10.0787 6.38893C10.3534 5.9778 10.5 5.49446 10.5 5C10.5 4.33696 10.2366 3.70108 9.76777 3.23224C9.29892 2.76339 8.66304 2.5 8 2.5Z" fill="black"/>
<path d="M9.3675 40H6.6325C6.01058 40.0031 5.40983 39.7743 4.94756 39.3583C4.48529 38.9422 4.19468 38.3688 4.1325 37.75L3.1175 27.5H1.75C1.57478 27.5009 1.40133 27.4649 1.24091 27.3944C1.08049 27.3239 0.936675 27.2205 0.818807 27.0909C0.700939 26.9612 0.611647 26.8082 0.556724 26.6418C0.501802 26.4754 0.482475 26.2993 0.5 26.125L1.645 14.75C1.70718 14.1312 1.99779 13.5578 2.46006 13.1417C2.92233 12.7257 3.52308 12.4969 4.145 12.5H5.5C5.66426 12.4997 5.82697 12.5318 5.97883 12.5944C6.13068 12.6571 6.2687 12.749 6.385 12.865L8 14.48L9.615 12.865C9.7313 12.749 9.86932 12.6571 10.0212 12.5944C10.173 12.5318 10.3357 12.4997 10.5 12.5H11.87C12.4919 12.4969 13.0927 12.7257 13.5549 13.1417C14.0172 13.5578 14.3078 14.1312 14.37 14.75L15.5 26.125C15.5175 26.2993 15.4982 26.4754 15.4433 26.6418C15.3884 26.8082 15.2991 26.9612 15.1812 27.0909C15.0633 27.2205 14.9195 27.3239 14.7591 27.3944C14.5987 27.4649 14.4252 27.5009 14.25 27.5H12.8825L11.8575 37.75C11.7955 38.3671 11.5063 38.9391 11.0461 39.3549C10.586 39.7707 9.9877 40.0006 9.3675 40ZM3.1325 25H4.25C4.56096 24.9984 4.86133 25.1128 5.09247 25.3209C5.32361 25.5289 5.46891 25.8156 5.5 26.125L6.6325 37.5H9.3675L10.5 26.125C10.5311 25.8156 10.6764 25.5289 10.9075 25.3209C11.1387 25.1128 11.439 24.9984 11.75 25H12.8675L11.8675 15H11.0175L8.885 17.135C8.64603 17.3606 8.32986 17.4862 8.00125 17.4862C7.67264 17.4862 7.35647 17.3606 7.1175 17.135L4.9825 15H4.1325L3.1325 25Z" fill="black"/>
<path d="M19.25 40C18.9185 40 18.6005 39.8683 18.3661 39.6339C18.1317 39.3995 18 39.0815 18 38.75V3.74999C18 3.53683 18.0545 3.32721 18.1584 3.14106C18.2622 2.9549 18.4119 2.7984 18.5933 2.68642C18.7747 2.57443 18.9817 2.5107 19.1946 2.50126C19.4076 2.49182 19.6194 2.53699 19.81 2.63249L29.81 7.63249C30.0258 7.74033 30.2059 7.90834 30.3283 8.11623C30.4508 8.32413 30.5105 8.56302 30.5002 8.80409C30.4898 9.04515 30.41 9.27808 30.2702 9.47476C30.1305 9.67144 29.9368 9.82346 29.7125 9.91249L20.5 13.5825V38.75C20.5 39.0815 20.3683 39.3995 20.1339 39.6339C19.8995 39.8683 19.5815 40 19.25 40ZM20.5 5.77249V10.89L26.1975 8.61999L20.5 5.77249Z" fill="black"/>
</svg>
