<svg width="20" height="24" viewBox="0 0 20 24" fill="none" xmlns="http://www.w3.org/2000/svg">
<path d="M13.5073 3.64752C14.4103 2.68073 15.0212 1.33847 14.854 0C13.553 0.0464296 11.9762 0.763702 11.0423 1.73041C10.2052 2.58623 9.47225 3.95401 9.66785 5.26622C11.1196 5.36443 12.6027 4.61275 13.5073 3.64752ZM16.278 12.8911C16.2502 9.89033 18.6537 8.44912 18.7602 8.37948C17.4089 6.34176 15.3045 6.06294 14.5551 6.03149C12.7632 5.84338 11.0611 7.11666 10.1514 7.11666C9.24537 7.11666 7.84392 6.05619 6.35776 6.08467C4.404 6.11686 2.60378 7.25455 1.60036 9.05765C-0.42921 12.685 1.08017 18.0584 3.05787 21.0007C4.02466 22.4411 5.17577 24.0569 6.68737 23.9984C8.14653 23.94 8.69661 23.0279 10.4571 23.0279C12.2183 23.0279 12.7114 23.9984 14.2522 23.9692C15.82 23.94 16.8123 22.5011 17.7708 21.0562C18.8799 19.3857 19.3372 17.7684 19.3633 17.6867C19.3297 17.6672 16.3102 16.4794 16.278 12.8911Z" fill="#515154"/>
</svg>
