<svg width="35" height="40" viewBox="0 0 35 40" fill="none" xmlns="http://www.w3.org/2000/svg">
<path d="M13.25 40C12.9185 40 12.6005 39.8683 12.3661 39.6339C12.1317 39.3995 12 39.0815 12 38.75V33.9725L7.405 34.7225C7.04842 34.781 6.68339 34.7616 6.33505 34.6655C5.98671 34.5694 5.66335 34.3989 5.38724 34.1658C5.11112 33.9327 4.88883 33.6425 4.73566 33.3152C4.58249 32.9879 4.50209 32.6313 4.5 32.27V26.25H2C1.78684 26.25 1.57722 26.1955 1.39107 26.0916C1.20491 25.9878 1.04841 25.8381 0.936425 25.6567C0.824443 25.4753 0.760703 25.2683 0.751264 25.0554C0.741825 24.8424 0.787 24.6306 0.882496 24.44L4.5 17.205V15C4.50025 12.5941 5.07923 10.2235 6.18808 8.08831C7.29694 5.95314 8.90313 4.11602 10.8711 2.73198C12.8391 1.34795 15.1111 0.457607 17.4955 0.136095C19.8799 -0.185417 22.3066 0.0713333 24.5709 0.884679C26.8352 1.69802 28.8706 3.0441 30.5054 4.80932C32.1402 6.57453 33.3264 8.70709 33.9638 11.027C34.6013 13.347 34.6714 15.7862 34.1682 18.1389C33.665 20.4917 32.6032 22.6888 31.0725 24.545C30.1011 25.6561 29.5453 27.0698 29.5 28.545V36.25C29.4999 36.5459 29.3948 36.8321 29.2034 37.0578C29.0121 37.2835 28.7469 37.434 28.455 37.4825L13.455 39.9825C13.3872 39.9938 13.3187 39.9996 13.25 40V40ZM13.25 31.25C13.5815 31.25 13.8995 31.3817 14.1339 31.6161C14.3683 31.8505 14.5 32.1685 14.5 32.5V37.275L27 35.1925V28.5475C27.0343 26.487 27.7948 24.5047 29.1475 22.95C30.4222 21.4028 31.3061 19.5717 31.7246 17.6112C32.1431 15.6507 32.0839 13.6182 31.5521 11.6854C31.0202 9.75256 30.0313 7.97598 28.6687 6.50555C27.3062 5.03512 25.6099 3.91397 23.7231 3.23668C21.8363 2.5594 19.8143 2.34585 17.8276 2.61406C15.841 2.88226 13.948 3.62435 12.3083 4.77772C10.6686 5.93108 9.33042 7.46189 8.40655 9.241C7.48268 11.0201 7.00027 12.9953 7 15V17.5C6.99998 17.6944 6.95461 17.8862 6.8675 18.06L4.0225 23.75H5.75C6.08152 23.75 6.39946 23.8817 6.63388 24.1161C6.8683 24.3505 7 24.6685 7 25V32.27L13.045 31.27C13.1127 31.2578 13.1812 31.2511 13.25 31.25V31.25Z" fill="black"/>
<path d="M15.75 25C15.552 24.9998 15.3569 24.9527 15.1808 24.8624C15.0046 24.7721 14.8524 24.6412 14.7367 24.4806C14.621 24.32 14.5451 24.1342 14.5152 23.9385C14.4854 23.7428 14.5024 23.5428 14.565 23.355L16.515 17.5H13.25C13.0368 17.5 12.8272 17.4455 12.6411 17.3416C12.4549 17.2378 12.2984 17.0881 12.1864 16.9067C12.0744 16.7253 12.0107 16.5183 12.0013 16.3054C11.9918 16.0924 12.037 15.8806 12.1325 15.69L15.8825 8.19C15.9864 7.98263 16.146 7.80827 16.3433 7.68641C16.5407 7.56455 16.768 7.50001 17 7.5H23.25C23.4631 7.50001 23.6728 7.55452 23.8589 7.65837C24.0451 7.76222 24.2016 7.91195 24.3136 8.09332C24.4255 8.2747 24.4893 8.4817 24.4987 8.69465C24.5082 8.9076 24.463 9.11943 24.3675 9.31L22.7725 12.5H23.25C23.4821 12.5 23.7097 12.5646 23.9072 12.6867C24.1046 12.8087 24.2642 12.9834 24.368 13.191C24.4718 13.3986 24.5158 13.6311 24.4949 13.8623C24.4741 14.0935 24.3893 14.3143 24.25 14.5L16.75 24.5C16.6336 24.6552 16.4826 24.7812 16.309 24.868C16.1354 24.9548 15.944 25 15.75 25ZM15.275 15H18.25C18.4479 15.0002 18.643 15.0473 18.8192 15.1376C18.9954 15.2279 19.1476 15.3588 19.2633 15.5194C19.379 15.68 19.4549 15.8658 19.4847 16.0615C19.5146 16.2572 19.4975 16.4572 19.435 16.645L19.3725 16.8375L20.75 15C20.5368 15 20.3272 14.9455 20.1411 14.8416C19.9549 14.7378 19.7984 14.5881 19.6864 14.4067C19.5744 14.2253 19.5107 14.0183 19.5013 13.8054C19.4918 13.5924 19.537 13.3806 19.6325 13.19L21.2275 10H17.7725L15.275 15Z" fill="black"/>
</svg>
