<svg width="40" height="40" viewBox="0 0 40 40" fill="none" xmlns="http://www.w3.org/2000/svg">
<path d="M38.75 7.5H1.25C0.918479 7.5 0.600537 7.3683 0.366117 7.13388C0.131696 6.89946 0 6.58152 0 6.25V1.25C0 0.918479 0.131696 0.600537 0.366117 0.366117C0.600537 0.131696 0.918479 0 1.25 0L38.75 0C39.0815 0 39.3995 0.131696 39.6339 0.366117C39.8683 0.600537 40 0.918479 40 1.25V6.25C40 6.58152 39.8683 6.89946 39.6339 7.13388C39.3995 7.3683 39.0815 7.5 38.75 7.5ZM2.5 5H37.5V2.5H2.5V5Z" fill="black"/>
<path d="M38.75 27.5H1.25C0.918479 27.5 0.600537 27.3683 0.366117 27.1339C0.131696 26.8995 0 26.5815 0 26.25C0 25.9185 0.131696 25.6005 0.366117 25.3661C0.600537 25.1317 0.918479 25 1.25 25H38.75C39.0815 25 39.3995 25.1317 39.6339 25.3661C39.8683 25.6005 40 25.9185 40 26.25C40 26.5815 39.8683 26.8995 39.6339 27.1339C39.3995 27.3683 39.0815 27.5 38.75 27.5Z" fill="black"/>
<path d="M3.75 27.5C3.41848 27.5 3.10054 27.3683 2.86612 27.1339C2.6317 26.8995 2.5 26.5815 2.5 26.25V6.25C2.5 5.91848 2.6317 5.60054 2.86612 5.36612C3.10054 5.1317 3.41848 5 3.75 5C4.08152 5 4.39946 5.1317 4.63388 5.36612C4.8683 5.60054 5 5.91848 5 6.25V26.25C5 26.5815 4.8683 26.8995 4.63388 27.1339C4.39946 27.3683 4.08152 27.5 3.75 27.5Z" fill="black"/>
<path d="M36.25 27.5C35.9185 27.5 35.6005 27.3683 35.3661 27.1339C35.1317 26.8995 35 26.5815 35 26.25V6.25C35 5.91848 35.1317 5.60054 35.3661 5.36612C35.6005 5.1317 35.9185 5 36.25 5C36.5815 5 36.8995 5.1317 37.1339 5.36612C37.3683 5.60054 37.5 5.91848 37.5 6.25V26.25C37.5 26.5815 37.3683 26.8995 37.1339 27.1339C36.8995 27.3683 36.5815 27.5 36.25 27.5Z" fill="black"/>
<path d="M20 40C19.2583 40 18.5333 39.7801 17.9166 39.368C17.2999 38.956 16.8193 38.3703 16.5354 37.6851C16.2516 36.9998 16.1774 36.2458 16.3221 35.5184C16.4667 34.791 16.8239 34.1228 17.3483 33.5984C17.8728 33.0739 18.541 32.7168 19.2684 32.5721C19.9958 32.4274 20.7498 32.5016 21.4351 32.7855C22.1203 33.0693 22.706 33.5499 23.118 34.1666C23.5301 34.7833 23.75 35.5083 23.75 36.25C23.75 37.2446 23.3549 38.1984 22.6517 38.9017C21.9484 39.6049 20.9946 40 20 40ZM20 35C19.7528 35 19.5111 35.0733 19.3055 35.2107C19.1 35.348 18.9398 35.5432 18.8451 35.7716C18.7505 36.0001 18.7258 36.2514 18.774 36.4939C18.8222 36.7363 18.9413 36.9591 19.1161 37.1339C19.2909 37.3087 19.5137 37.4278 19.7561 37.476C19.9986 37.5242 20.2499 37.4995 20.4784 37.4049C20.7068 37.3102 20.902 37.15 21.0393 36.9445C21.1767 36.7389 21.25 36.4972 21.25 36.25C21.25 35.9185 21.1183 35.6005 20.8839 35.3661C20.6495 35.1317 20.3315 35 20 35Z" fill="black"/>
<path d="M20 35C19.6685 35 19.3505 34.8683 19.1161 34.6339C18.8817 34.3995 18.75 34.0815 18.75 33.75V26.25C18.75 25.9185 18.8817 25.6005 19.1161 25.3661C19.3505 25.1317 19.6685 25 20 25C20.3315 25 20.6495 25.1317 20.8839 25.3661C21.1183 25.6005 21.25 25.9185 21.25 26.25V33.75C21.25 34.0815 21.1183 34.3995 20.8839 34.6339C20.6495 34.8683 20.3315 35 20 35Z" fill="black"/>
<path d="M13.75 22.5C12.5139 22.5 11.3055 22.1334 10.2777 21.4467C9.24988 20.7599 8.4488 19.7838 7.97575 18.6418C7.5027 17.4997 7.37893 16.2431 7.62009 15.0307C7.86125 13.8183 8.4565 12.7047 9.33058 11.8306C10.2047 10.9565 11.3183 10.3613 12.5307 10.1201C13.7431 9.87894 14.9997 10.0027 16.1418 10.4758C17.2838 10.9488 18.2599 11.7499 18.9467 12.7777C19.6334 13.8055 20 15.0139 20 16.25C20 17.9076 19.3415 19.4973 18.1694 20.6694C16.9973 21.8415 15.4076 22.5 13.75 22.5ZM13.75 12.5C13.0083 12.5 12.2833 12.7199 11.6666 13.132C11.0499 13.544 10.5693 14.1297 10.2855 14.8149C10.0016 15.5002 9.92736 16.2542 10.0721 16.9816C10.2167 17.709 10.5739 18.3772 11.0983 18.9017C11.6228 19.4261 12.291 19.7833 13.0184 19.9279C13.7458 20.0726 14.4998 19.9984 15.1851 19.7146C15.8703 19.4307 16.456 18.9501 16.868 18.3334C17.2801 17.7167 17.5 16.9917 17.5 16.25C17.5 15.2554 17.1049 14.3016 16.4017 13.5984C15.6984 12.8951 14.7446 12.5 13.75 12.5Z" fill="black"/>
<path d="M31.25 12.5H23.75C23.4185 12.5 23.1005 12.3683 22.8661 12.1339C22.6317 11.8995 22.5 11.5815 22.5 11.25C22.5 10.9185 22.6317 10.6005 22.8661 10.3661C23.1005 10.1317 23.4185 10 23.75 10H31.25C31.5815 10 31.8995 10.1317 32.1339 10.3661C32.3683 10.6005 32.5 10.9185 32.5 11.25C32.5 11.5815 32.3683 11.8995 32.1339 12.1339C31.8995 12.3683 31.5815 12.5 31.25 12.5Z" fill="black"/>
<path d="M31.25 17.5H26.25C25.9185 17.5 25.6005 17.3683 25.3661 17.1339C25.1317 16.8995 25 16.5815 25 16.25C25 15.9185 25.1317 15.6005 25.3661 15.3661C25.6005 15.1317 25.9185 15 26.25 15H31.25C31.5815 15 31.8995 15.1317 32.1339 15.3661C32.3683 15.6005 32.5 15.9185 32.5 16.25C32.5 16.5815 32.3683 16.8995 32.1339 17.1339C31.8995 17.3683 31.5815 17.5 31.25 17.5Z" fill="black"/>
<path d="M18.75 17.5H13.75C13.4185 17.5 13.1005 17.3683 12.8661 17.1339C12.6317 16.8995 12.5 16.5815 12.5 16.25V11.25C12.5 10.9185 12.6317 10.6005 12.8661 10.3661C13.1005 10.1317 13.4185 10 13.75 10C14.0815 10 14.3995 10.1317 14.6339 10.3661C14.8683 10.6005 15 10.9185 15 11.25V15H18.75C19.0815 15 19.3995 15.1317 19.6339 15.3661C19.8683 15.6005 20 15.9185 20 16.25C20 16.5815 19.8683 16.8995 19.6339 17.1339C19.3995 17.3683 19.0815 17.5 18.75 17.5Z" fill="black"/>
</svg>
