<svg width="23" height="40" viewBox="0 0 23 40" fill="none" xmlns="http://www.w3.org/2000/svg">
<path d="M8 10C7.0111 10 6.0444 9.70676 5.22215 9.15735C4.39991 8.60794 3.75904 7.82705 3.3806 6.91342C3.00217 5.99979 2.90315 4.99446 3.09608 4.02455C3.289 3.05465 3.76521 2.16373 4.46447 1.46447C5.16373 0.765206 6.05465 0.289002 7.02455 0.0960758C7.99446 -0.0968503 8.99979 0.00216641 9.91342 0.380605C10.8271 0.759043 11.6079 1.39991 12.1574 2.22215C12.7068 3.0444 13 4.0111 13 5C13 6.32608 12.4732 7.59785 11.5355 8.53554C10.5979 9.47322 9.32609 10 8 10ZM8 2.5C7.50555 2.5 7.0222 2.64662 6.61108 2.92133C6.19995 3.19603 5.87952 3.58648 5.6903 4.04329C5.50108 4.50011 5.45158 5.00278 5.54804 5.48773C5.6445 5.97268 5.8826 6.41814 6.23224 6.76777C6.58187 7.1174 7.02732 7.3555 7.51228 7.45197C7.99723 7.54843 8.4999 7.49892 8.95671 7.3097C9.41353 7.12048 9.80397 6.80005 10.0787 6.38893C10.3534 5.9778 10.5 5.49446 10.5 5C10.5 4.33696 10.2366 3.70108 9.76777 3.23224C9.29893 2.76339 8.66304 2.5 8 2.5Z" fill="black"/>
<path d="M9.3675 40H6.6325C6.01058 40.0031 5.40983 39.7743 4.94756 39.3583C4.48528 38.9422 4.19468 38.3688 4.1325 37.75L3.1175 27.5H1.75C1.57477 27.5009 1.40133 27.4649 1.2409 27.3944C1.08048 27.3239 0.936672 27.2205 0.818803 27.0909C0.700935 26.9612 0.611643 26.8082 0.556721 26.6418C0.501798 26.4754 0.482471 26.2993 0.499996 26.125L1.645 14.75C1.70718 14.1312 1.99778 13.5578 2.46006 13.1417C2.92233 12.7257 3.52308 12.4969 4.145 12.5H5.5C5.66426 12.4997 5.82697 12.5318 5.97882 12.5944C6.13068 12.6571 6.2687 12.749 6.385 12.865L8 14.48L9.615 12.865C9.73129 12.749 9.86931 12.6571 10.0212 12.5944C10.173 12.5318 10.3357 12.4997 10.5 12.5H11.87C12.4919 12.4969 13.0927 12.7257 13.5549 13.1417C14.0172 13.5578 14.3078 14.1312 14.37 14.75L15.5 26.125C15.5175 26.2993 15.4982 26.4754 15.4433 26.6418C15.3883 26.8082 15.2991 26.9612 15.1812 27.0909C15.0633 27.2205 14.9195 27.3239 14.7591 27.3944C14.5987 27.4649 14.4252 27.5009 14.25 27.5H12.8825L11.8575 37.75C11.7955 38.3671 11.5063 38.9391 11.0461 39.3549C10.586 39.7707 9.98769 40.0006 9.3675 40ZM3.1325 25H4.25C4.56095 24.9984 4.86133 25.1128 5.09247 25.3209C5.3236 25.5289 5.4689 25.8156 5.5 26.125L6.6325 37.5H9.3675L10.5 26.125C10.5311 25.8156 10.6764 25.5289 10.9075 25.3209C11.1387 25.1128 11.439 24.9984 11.75 25H12.8675L11.8675 15H11.0175L8.885 17.135C8.64603 17.3606 8.32986 17.4862 8.00125 17.4862C7.67264 17.4862 7.35647 17.3606 7.1175 17.135L4.9825 15H4.1325L3.1325 25Z" fill="black"/>
<path d="M21.75 40H16.75C16.4185 40 16.1005 39.8683 15.8661 39.6339C15.6317 39.3995 15.5 39.0815 15.5 38.75V28.75C15.5 28.4185 15.6317 28.1005 15.8661 27.8661C16.1005 27.6317 16.4185 27.5 16.75 27.5H21.75C22.0815 27.5 22.3995 27.6317 22.6339 27.8661C22.8683 28.1005 23 28.4185 23 28.75V38.75C23 39.0815 22.8683 39.3995 22.6339 39.6339C22.3995 39.8683 22.0815 40 21.75 40ZM18 37.5H20.5V30H18V37.5Z" fill="black"/>
<path d="M19.25 30C18.9185 30 18.6005 29.8683 18.3661 29.6339C18.1317 29.3995 18 29.0815 18 28.75V26.25C18 25.9185 18.1317 25.6005 18.3661 25.3661C18.6005 25.1317 18.9185 25 19.25 25C19.5815 25 19.8995 25.1317 20.1339 25.3661C20.3683 25.6005 20.5 25.9185 20.5 26.25V28.75C20.5 29.0815 20.3683 29.3995 20.1339 29.6339C19.8995 29.8683 19.5815 30 19.25 30Z" fill="black"/>
</svg>
