<svg width="28" height="40" viewBox="0 0 28 40" fill="none" xmlns="http://www.w3.org/2000/svg">
<path d="M8 10C7.0111 10 6.0444 9.70676 5.22215 9.15735C4.39991 8.60794 3.75904 7.82705 3.3806 6.91342C3.00217 5.99979 2.90315 4.99446 3.09608 4.02455C3.289 3.05465 3.76521 2.16373 4.46447 1.46447C5.16373 0.765206 6.05465 0.289002 7.02455 0.0960758C7.99446 -0.0968503 8.99979 0.00216641 9.91342 0.380605C10.8271 0.759043 11.6079 1.39991 12.1574 2.22215C12.7068 3.0444 13 4.0111 13 5C13 6.32608 12.4732 7.59785 11.5355 8.53554C10.5979 9.47322 9.32609 10 8 10ZM8 2.5C7.50555 2.5 7.0222 2.64662 6.61108 2.92133C6.19995 3.19603 5.87952 3.58648 5.6903 4.04329C5.50108 4.50011 5.45158 5.00278 5.54804 5.48773C5.6445 5.97268 5.8826 6.41814 6.23224 6.76777C6.58187 7.1174 7.02732 7.3555 7.51228 7.45197C7.99723 7.54843 8.4999 7.49892 8.95671 7.3097C9.41353 7.12048 9.80397 6.80005 10.0787 6.38893C10.3534 5.9778 10.5 5.49446 10.5 5C10.5 4.33696 10.2366 3.70108 9.76777 3.23224C9.29893 2.76339 8.66304 2.5 8 2.5Z" fill="black"/>
<path d="M9.37001 40H6.62001C6.00068 39.9994 5.40362 39.7689 4.94451 39.3532C4.48541 38.9375 4.19694 38.3662 4.13501 37.75L3.12001 27.5H1.75001C1.57479 27.5009 1.40134 27.4649 1.24092 27.3944C1.0805 27.3239 0.936687 27.2205 0.818819 27.0909C0.70095 26.9612 0.611659 26.8082 0.556736 26.6418C0.501813 26.4754 0.482487 26.2993 0.500011 26.125L1.64501 14.75C1.70694 14.1338 1.99541 13.5625 2.45451 13.1468C2.91362 12.7311 3.51068 12.5006 4.13001 12.5H5.50001C5.66427 12.4997 5.82698 12.5318 5.97884 12.5944C6.13069 12.6571 6.26871 12.749 6.38501 12.865L8.00001 14.4825L9.61501 12.8675C9.7311 12.751 9.86903 12.6586 10.0209 12.5956C10.1728 12.5325 10.3356 12.5 10.5 12.5H11.87C12.4893 12.5006 13.0864 12.7311 13.5455 13.1468C14.0046 13.5625 14.2931 14.1338 14.355 14.75L15.5 26.125C15.5175 26.2993 15.4982 26.4754 15.4433 26.6418C15.3884 26.8082 15.2991 26.9612 15.1812 27.0909C15.0633 27.2205 14.9195 27.3239 14.7591 27.3944C14.5987 27.4649 14.4252 27.5009 14.25 27.5H12.88L11.855 37.75C11.7931 38.3662 11.5046 38.9375 11.0455 39.3532C10.5864 39.7689 9.98934 39.9994 9.37001 40ZM3.12001 25H4.25001C4.56097 24.9984 4.86134 25.1128 5.09248 25.3209C5.32362 25.5289 5.46892 25.8156 5.50001 26.125L6.63001 37.5H9.38001L10.5 26.125C10.5311 25.8156 10.6764 25.5289 10.9075 25.3209C11.1387 25.1128 11.4391 24.9984 11.75 25H12.8675L11.8675 15H11.0175L8.88251 17.135C8.6481 17.3693 8.33022 17.501 7.99876 17.501C7.66731 17.501 7.34942 17.3693 7.11501 17.135L4.98251 15H4.13001L3.12001 25Z" fill="black"/>
<path d="M21.75 37.5C21.4185 37.5 21.1005 37.3683 20.8661 37.1339C20.6317 36.8995 20.5 36.5815 20.5 36.25V3.75C20.5 3.41848 20.6317 3.10054 20.8661 2.86612C21.1005 2.6317 21.4185 2.5 21.75 2.5C22.0815 2.5 22.3995 2.6317 22.6339 2.86612C22.8683 3.10054 23 3.41848 23 3.75V36.25C23 36.5815 22.8683 36.8995 22.6339 37.1339C22.3995 37.3683 22.0815 37.5 21.75 37.5Z" fill="black"/>
<path d="M21.75 37.5C21.5624 37.5004 21.3772 37.4586 21.208 37.3777C21.0388 37.2967 20.8899 37.1788 20.7725 37.0325L15.7725 30.7825C15.5653 30.5236 15.4694 30.193 15.506 29.8634C15.5426 29.5338 15.7086 29.2322 15.9675 29.025C16.2264 28.8178 16.557 28.7219 16.8866 28.7585C17.2162 28.7951 17.5178 28.9611 17.725 29.22L21.75 34.25L25.7725 29.22C25.8751 29.0918 26.0019 28.9851 26.1458 28.9059C26.2896 28.8267 26.4477 28.7766 26.6109 28.7585C26.7741 28.7404 26.9392 28.7546 27.0969 28.8003C27.2546 28.8461 27.4018 28.9224 27.53 29.025C27.6582 29.1276 27.7649 29.2544 27.8441 29.3983C27.9233 29.5421 27.9734 29.7002 27.9915 29.8634C28.0096 30.0266 27.9954 30.1917 27.9497 30.3494C27.9039 30.5071 27.8276 30.6543 27.725 30.7825L22.725 37.0325C22.6078 37.1784 22.4594 37.2962 22.2907 37.3771C22.1219 37.458 21.9372 37.5 21.75 37.5Z" fill="black"/>
</svg>
