<svg width="29" height="40" viewBox="0 0 29 40" fill="none" xmlns="http://www.w3.org/2000/svg">
<path d="M8 10C7.0111 10 6.0444 9.70676 5.22215 9.15735C4.39991 8.60794 3.75904 7.82705 3.3806 6.91342C3.00217 5.99979 2.90315 4.99446 3.09608 4.02455C3.289 3.05465 3.76521 2.16373 4.46447 1.46447C5.16373 0.765206 6.05465 0.289002 7.02455 0.0960758C7.99446 -0.0968503 8.99979 0.00216641 9.91342 0.380605C10.8271 0.759043 11.6079 1.39991 12.1574 2.22215C12.7068 3.0444 13 4.0111 13 5C13 6.32608 12.4732 7.59785 11.5355 8.53554C10.5979 9.47322 9.32609 10 8 10ZM8 2.5C7.50555 2.5 7.0222 2.64662 6.61108 2.92133C6.19995 3.19603 5.87952 3.58648 5.6903 4.04329C5.50108 4.50011 5.45158 5.00278 5.54804 5.48773C5.6445 5.97268 5.8826 6.41814 6.23224 6.76777C6.58187 7.1174 7.02732 7.3555 7.51228 7.45197C7.99723 7.54843 8.4999 7.49892 8.95671 7.3097C9.41353 7.12048 9.80397 6.80005 10.0787 6.38893C10.3534 5.9778 10.5 5.49446 10.5 5C10.5 4.33696 10.2366 3.70108 9.76777 3.23224C9.29893 2.76339 8.66304 2.5 8 2.5Z" fill="black"/>
<path d="M9.36751 40H6.63251C6.01059 40.0031 5.40984 39.7743 4.94757 39.3583C4.4853 38.9422 4.1947 38.3688 4.13251 37.75L3.11751 27.5H1.75001C1.57479 27.5009 1.40134 27.4649 1.24092 27.3944C1.0805 27.3239 0.936687 27.2205 0.818819 27.0909C0.70095 26.9612 0.611659 26.8082 0.556736 26.6418C0.501813 26.4754 0.482487 26.2993 0.500011 26.125L1.64501 14.75C1.7072 14.1312 1.9978 13.5578 2.46007 13.1417C2.92234 12.7257 3.52309 12.4969 4.14501 12.5H5.50001C5.66427 12.4997 5.82698 12.5318 5.97884 12.5944C6.13069 12.6571 6.26871 12.749 6.38501 12.865L8.00001 14.48L9.61501 12.865C9.73131 12.749 9.86933 12.6571 10.0212 12.5944C10.173 12.5318 10.3357 12.4997 10.5 12.5H11.87C12.4919 12.4969 13.0927 12.7257 13.555 13.1417C14.0172 13.5578 14.3078 14.1312 14.37 14.75L15.5 26.125C15.5175 26.2993 15.4982 26.4754 15.4433 26.6418C15.3884 26.8082 15.2991 26.9612 15.1812 27.0909C15.0633 27.2205 14.9195 27.3239 14.7591 27.3944C14.5987 27.4649 14.4252 27.5009 14.25 27.5H12.8825L11.8575 37.75C11.7955 38.3671 11.5063 38.9391 11.0462 39.3549C10.586 39.7707 9.98771 40.0006 9.36751 40ZM3.13251 25H4.25001C4.56097 24.9984 4.86134 25.1128 5.09248 25.3209C5.32362 25.5289 5.46892 25.8156 5.50001 26.125L6.63251 37.5H9.36751L10.5 26.125C10.5311 25.8156 10.6764 25.5289 10.9075 25.3209C11.1387 25.1128 11.4391 24.9984 11.75 25H12.8675L11.8675 15H11.0175L8.88501 17.135C8.64604 17.3606 8.32987 17.4862 8.00126 17.4862C7.67265 17.4862 7.35648 17.3606 7.11751 17.135L4.98251 15H4.13251L3.13251 25Z" fill="black"/>
<path d="M21.75 37.5C21.4185 37.5 21.1005 37.3683 20.8661 37.1339C20.6317 36.8995 20.5 36.5815 20.5 36.25V3.75C20.5 3.41848 20.6317 3.10054 20.8661 2.86612C21.1005 2.6317 21.4185 2.5 21.75 2.5C22.0815 2.5 22.3995 2.6317 22.6339 2.86612C22.8683 3.10054 23 3.41848 23 3.75V36.25C23 36.5815 22.8683 36.8995 22.6339 37.1339C22.3995 37.3683 22.0815 37.5 21.75 37.5Z" fill="black"/>
<path d="M26.75 11.25C26.5624 11.2504 26.3772 11.2086 26.208 11.1277C26.0388 11.0467 25.8899 10.9288 25.7725 10.7825L21.75 5.74999L17.7275 10.7825C17.6249 10.9107 17.4981 11.0174 17.3542 11.0966C17.2104 11.1758 17.0523 11.2259 16.8891 11.244C16.7259 11.2621 16.5608 11.2479 16.4031 11.2021C16.2454 11.1564 16.0982 11.0801 15.97 10.9775C15.8418 10.8749 15.7351 10.7481 15.6559 10.6042C15.5767 10.4604 15.5266 10.3023 15.5085 10.1391C15.4904 9.97593 15.5046 9.81076 15.5503 9.65305C15.5961 9.49535 15.6724 9.34819 15.775 9.21999L20.775 2.96999C20.8966 2.83052 21.0466 2.71871 21.215 2.6421C21.3834 2.56549 21.5662 2.52585 21.7513 2.52585C21.9363 2.52585 22.1191 2.56549 22.2875 2.6421C22.4559 2.71871 22.6059 2.83052 22.7275 2.96999L27.7275 9.21999C27.875 9.40376 27.9676 9.62548 27.9945 9.85959C28.0215 10.0937 27.9817 10.3307 27.8798 10.5431C27.7778 10.7556 27.6179 10.9349 27.4185 11.0604C27.219 11.186 26.9882 11.2525 26.7525 11.2525L26.75 11.25Z" fill="black"/>
</svg>
