<svg width="40" height="40" viewBox="0 0 40 40" fill="none" xmlns="http://www.w3.org/2000/svg">
<path d="M37.5 40H5C4.33696 40 3.70107 39.7366 3.23223 39.2678C2.76339 38.7989 2.5 38.163 2.5 37.5V2.5C2.5 1.83696 2.76339 1.20107 3.23223 0.732233C3.70107 0.263392 4.33696 0 5 0L37.5 0C38.163 0 38.7989 0.263392 39.2678 0.732233C39.7366 1.20107 40 1.83696 40 2.5V37.5C40 38.163 39.7366 38.7989 39.2678 39.2678C38.7989 39.7366 38.163 40 37.5 40ZM5 2.5V37.5H37.5V2.5H5Z" fill="black"/>
<path d="M13.75 25H8.75C8.41848 25 8.10054 24.8683 7.86612 24.6339C7.6317 24.3995 7.5 24.0815 7.5 23.75V18.75C7.5 18.4185 7.6317 18.1005 7.86612 17.8661C8.10054 17.6317 8.41848 17.5 8.75 17.5H13.75C14.0815 17.5 14.3995 17.6317 14.6339 17.8661C14.8683 18.1005 15 18.4185 15 18.75V23.75C15 24.0815 14.8683 24.3995 14.6339 24.6339C14.3995 24.8683 14.0815 25 13.75 25ZM10 22.5H12.5V20H10V22.5Z" fill="black"/>
<path d="M23.75 25H18.75C18.4185 25 18.1005 24.8683 17.8661 24.6339C17.6317 24.3995 17.5 24.0815 17.5 23.75V18.75C17.5 18.4185 17.6317 18.1005 17.8661 17.8661C18.1005 17.6317 18.4185 17.5 18.75 17.5H23.75C24.0815 17.5 24.3995 17.6317 24.6339 17.8661C24.8683 18.1005 25 18.4185 25 18.75V23.75C25 24.0815 24.8683 24.3995 24.6339 24.6339C24.3995 24.8683 24.0815 25 23.75 25ZM20 22.5H22.5V20H20V22.5Z" fill="black"/>
<path d="M33.75 15H8.75C8.41848 15 8.10054 14.8683 7.86612 14.6339C7.6317 14.3995 7.5 14.0815 7.5 13.75V6.25C7.5 5.91848 7.6317 5.60054 7.86612 5.36612C8.10054 5.1317 8.41848 5 8.75 5H33.75C34.0815 5 34.3995 5.1317 34.6339 5.36612C34.8683 5.60054 35 5.91848 35 6.25V13.75C35 14.0815 34.8683 14.3995 34.6339 14.6339C34.3995 14.8683 34.0815 15 33.75 15ZM10 12.5H32.5V7.5H10V12.5Z" fill="black"/>
<path d="M13.75 35H8.75C8.41848 35 8.10054 34.8683 7.86612 34.6339C7.6317 34.3995 7.5 34.0815 7.5 33.75V28.75C7.5 28.4185 7.6317 28.1005 7.86612 27.8661C8.10054 27.6317 8.41848 27.5 8.75 27.5H13.75C14.0815 27.5 14.3995 27.6317 14.6339 27.8661C14.8683 28.1005 15 28.4185 15 28.75V33.75C15 34.0815 14.8683 34.3995 14.6339 34.6339C14.3995 34.8683 14.0815 35 13.75 35ZM10 32.5H12.5V30H10V32.5Z" fill="black"/>
<path d="M23.75 35H18.75C18.4185 35 18.1005 34.8683 17.8661 34.6339C17.6317 34.3995 17.5 34.0815 17.5 33.75V28.75C17.5 28.4185 17.6317 28.1005 17.8661 27.8661C18.1005 27.6317 18.4185 27.5 18.75 27.5H23.75C24.0815 27.5 24.3995 27.6317 24.6339 27.8661C24.8683 28.1005 25 28.4185 25 28.75V33.75C25 34.0815 24.8683 34.3995 24.6339 34.6339C24.3995 34.8683 24.0815 35 23.75 35ZM20 32.5H22.5V30H20V32.5Z" fill="black"/>
<path d="M33.75 35H28.75C28.4185 35 28.1005 34.8683 27.8661 34.6339C27.6317 34.3995 27.5 34.0815 27.5 33.75V18.75C27.5 18.4185 27.6317 18.1005 27.8661 17.8661C28.1005 17.6317 28.4185 17.5 28.75 17.5H33.75C34.0815 17.5 34.3995 17.6317 34.6339 17.8661C34.8683 18.1005 35 18.4185 35 18.75V33.75C35 34.0815 34.8683 34.3995 34.6339 34.6339C34.3995 34.8683 34.0815 35 33.75 35ZM30 32.5H32.5V20H30V32.5Z" fill="black"/>
</svg>
