<svg width="40" height="40" viewBox="0 0 40 40" fill="none" xmlns="http://www.w3.org/2000/svg">
<path d="M37.5 37.5H5C4.33696 37.5 3.70107 37.2366 3.23223 36.7678C2.76339 36.2989 2.5 35.663 2.5 35V2.5C2.5 1.83696 2.76339 1.20107 3.23223 0.732233C3.70107 0.263392 4.33696 0 5 0L37.5 0C38.163 0 38.7989 0.263392 39.2678 0.732233C39.7366 1.20107 40 1.83696 40 2.5V35C40 35.663 39.7366 36.2989 39.2678 36.7678C38.7989 37.2366 38.163 37.5 37.5 37.5ZM5 2.5V35H37.5V2.5H5Z" fill="black"/>
<path d="M21.25 37.5C20.9185 37.5 20.6005 37.3683 20.3661 37.1339C20.1317 36.8995 20 36.5815 20 36.25V1.25C20 0.918479 20.1317 0.600537 20.3661 0.366117C20.6005 0.131696 20.9185 0 21.25 0C21.5815 0 21.8995 0.131696 22.1339 0.366117C22.3683 0.600537 22.5 0.918479 22.5 1.25V36.25C22.5 36.5815 22.3683 36.8995 22.1339 37.1339C21.8995 37.3683 21.5815 37.5 21.25 37.5Z" fill="black"/>
<path d="M38.75 20H3.75C3.41848 20 3.10054 19.8683 2.86612 19.6339C2.6317 19.3995 2.5 19.0815 2.5 18.75C2.5 18.4185 2.6317 18.1005 2.86612 17.8661C3.10054 17.6317 3.41848 17.5 3.75 17.5H38.75C39.0815 17.5 39.3995 17.6317 39.6339 17.8661C39.8683 18.1005 40 18.4185 40 18.75C40 19.0815 39.8683 19.3995 39.6339 19.6339C39.3995 19.8683 39.0815 20 38.75 20Z" fill="black"/>
<path d="M12.5 15C12.1685 15 11.8505 14.8683 11.6161 14.6339C11.3817 14.3995 11.25 14.0815 11.25 13.75V6.25C11.25 5.91848 11.3817 5.60054 11.6161 5.36612C11.8505 5.1317 12.1685 5 12.5 5C12.8315 5 13.1495 5.1317 13.3839 5.36612C13.6183 5.60054 13.75 5.91848 13.75 6.25V13.75C13.75 14.0815 13.6183 14.3995 13.3839 14.6339C13.1495 14.8683 12.8315 15 12.5 15Z" fill="black"/>
<path d="M16.25 11.25H8.75C8.41848 11.25 8.10054 11.1183 7.86612 10.8839C7.6317 10.6495 7.5 10.3315 7.5 10C7.5 9.66848 7.6317 9.35054 7.86612 9.11612C8.10054 8.8817 8.41848 8.75 8.75 8.75H16.25C16.5815 8.75 16.8995 8.8817 17.1339 9.11612C17.3683 9.35054 17.5 9.66848 17.5 10C17.5 10.3315 17.3683 10.6495 17.1339 10.8839C16.8995 11.1183 16.5815 11.25 16.25 11.25Z" fill="black"/>
<path d="M15.625 31.875C15.2953 31.8703 14.9808 31.7355 14.75 31.5L8.5 25.25C8.31947 25.0093 8.23182 24.7115 8.25315 24.4114C8.27448 24.1113 8.40335 23.8289 8.61612 23.6161C8.82888 23.4034 9.11125 23.2745 9.41139 23.2531C9.71153 23.2318 10.0093 23.3195 10.25 23.5L16.5 29.75C16.6753 29.9248 16.7947 30.1478 16.8431 30.3905C16.8915 30.6333 16.8668 30.885 16.772 31.1137C16.6772 31.3423 16.5166 31.5377 16.3106 31.675C16.1047 31.8124 15.8626 31.8854 15.615 31.885L15.625 31.875Z" fill="black"/>
<path d="M33.125 31.875C32.7953 31.8703 32.4808 31.7355 32.25 31.5L26 25.25C25.8195 25.0093 25.7318 24.7115 25.7531 24.4114C25.7745 24.1113 25.9034 23.8289 26.1161 23.6161C26.3289 23.4034 26.6113 23.2745 26.9114 23.2531C27.2115 23.2318 27.5093 23.3195 27.75 23.5L34 29.75C34.1753 29.9248 34.2947 30.1478 34.3431 30.3905C34.3915 30.6333 34.3668 30.885 34.272 31.1137C34.1772 31.3423 34.0166 31.5377 33.8106 31.675C33.6047 31.8124 33.3626 31.8854 33.115 31.885L33.125 31.875Z" fill="black"/>
<path d="M9.37501 31.875C9.13035 31.8716 8.89208 31.7964 8.68974 31.6588C8.48739 31.5212 8.32988 31.3273 8.23672 31.1011C8.14355 30.8748 8.11884 30.6262 8.16564 30.386C8.21245 30.1459 8.3287 29.9247 8.50001 29.75L14.75 23.5C14.8575 23.3567 14.9944 23.2382 15.1517 23.1525C15.3089 23.0668 15.4828 23.0158 15.6614 23.0031C15.84 22.9904 16.0193 23.0163 16.1871 23.0789C16.3549 23.1415 16.5073 23.2395 16.6339 23.3661C16.7605 23.4928 16.8585 23.6451 16.9211 23.8129C16.9837 23.9807 17.0096 24.16 16.9969 24.3386C16.9842 24.5173 16.9332 24.6911 16.8475 24.8483C16.7618 25.0056 16.6433 25.1425 16.5 25.25L10.25 31.5C10.0192 31.7355 9.70472 31.8703 9.37501 31.875V31.875Z" fill="black"/>
<path d="M33.75 11.25H26.25C25.9185 11.25 25.6005 11.1183 25.3661 10.8839C25.1317 10.6495 25 10.3315 25 10C25 9.66848 25.1317 9.35054 25.3661 9.11612C25.6005 8.8817 25.9185 8.75 26.25 8.75H33.75C34.0815 8.75 34.3995 8.8817 34.6339 9.11612C34.8683 9.35054 35 9.66848 35 10C35 10.3315 34.8683 10.6495 34.6339 10.8839C34.3995 11.1183 34.0815 11.25 33.75 11.25Z" fill="black"/>
</svg>
