<svg width="40" height="40" viewBox="0 0 40 40" fill="none" xmlns="http://www.w3.org/2000/svg">
<path d="M20 40C19.8168 39.9999 19.6358 39.9596 19.4699 39.8818C19.304 39.8041 19.1573 39.6908 19.04 39.55L13.165 32.5H2.5C1.83696 32.5 1.20107 32.2366 0.732233 31.7678C0.263392 31.2989 0 30.663 0 30V2.5C0 1.83696 0.263392 1.20107 0.732233 0.732233C1.20107 0.263392 1.83696 0 2.5 0L37.5 0C38.163 0 38.7989 0.263392 39.2678 0.732233C39.7366 1.20107 40 1.83696 40 2.5V30C40 30.663 39.7366 31.2989 39.2678 31.7678C38.7989 32.2366 38.163 32.5 37.5 32.5H26.835L20.96 39.55C20.8427 39.6908 20.696 39.8041 20.5301 39.8818C20.3642 39.9596 20.1832 39.9999 20 40ZM2.5 2.5V30H13.75C13.9332 30.0001 14.1142 30.0404 14.2801 30.1182C14.446 30.1959 14.5927 30.3092 14.71 30.45L20 36.7975L25.29 30.45C25.4073 30.3092 25.554 30.1959 25.7199 30.1182C25.8858 30.0404 26.0668 30.0001 26.25 30H37.5V2.5H2.5Z" fill="#010101"/>
<path d="M20 15C19.0111 15 18.0444 14.7068 17.2222 14.1574C16.3999 13.6079 15.759 12.8271 15.3806 11.9134C15.0022 10.9998 14.9031 9.99446 15.0961 9.02455C15.289 8.05465 15.7652 7.16373 16.4645 6.46447C17.1637 5.76521 18.0546 5.289 19.0246 5.09608C19.9945 4.90315 20.9998 5.00217 21.9134 5.3806C22.827 5.75904 23.6079 6.39991 24.1574 7.22215C24.7068 8.0444 25 9.0111 25 10C25 11.3261 24.4732 12.5979 23.5355 13.5355C22.5979 14.4732 21.3261 15 20 15ZM20 7.5C19.5055 7.5 19.0222 7.64662 18.6111 7.92133C18.2 8.19603 17.8795 8.58648 17.6903 9.04329C17.5011 9.50011 17.4516 10.0028 17.548 10.4877C17.6445 10.9727 17.8826 11.4181 18.2322 11.7678C18.5819 12.1174 19.0273 12.3555 19.5123 12.452C19.9972 12.5484 20.4999 12.4989 20.9567 12.3097C21.4135 12.1205 21.804 11.8001 22.0787 11.3889C22.3534 10.9778 22.5 10.4945 22.5 10C22.5 9.33696 22.2366 8.70108 21.7678 8.23224C21.2989 7.76339 20.663 7.5 20 7.5V7.5Z" fill="black"/>
<path d="M26.25 25H13.75C13.4185 25 13.1005 24.8683 12.8661 24.6339C12.6317 24.3995 12.5 24.0815 12.5 23.75C12.5 22.0924 13.1585 20.5027 14.3306 19.3306C15.5027 18.1585 17.0924 17.5 18.75 17.5H21.25C22.9076 17.5 24.4973 18.1585 25.6694 19.3306C26.8415 20.5027 27.5 22.0924 27.5 23.75C27.5 24.0815 27.3683 24.3995 27.1339 24.6339C26.8995 24.8683 26.5815 25 26.25 25ZM15.215 22.5H24.785C24.5265 21.769 24.0478 21.136 23.4147 20.6883C22.7817 20.2406 22.0254 20.0001 21.25 20H18.75C17.9746 20.0001 17.2183 20.2406 16.5853 20.6883C15.9522 21.136 15.4735 21.769 15.215 22.5V22.5Z" fill="black"/>
</svg>
