<svg width="31" height="40" viewBox="0 0 31 40" fill="none" xmlns="http://www.w3.org/2000/svg">
<path d="M24.5498 30H4.5498C4.21828 30 3.90034 29.8683 3.66592 29.6339C3.4315 29.3995 3.2998 29.0815 3.2998 28.75V24.455C3.3173 23.595 3.3223 22.955 3.3248 22.34C3.3248 21.3625 3.3248 20.385 3.3948 19.39C3.46135 17.2009 3.74355 15.0237 4.2373 12.89C4.63933 10.7579 5.4574 8.72591 6.6448 6.91001C7.19667 5.95138 7.99429 5.15732 8.95539 4.60976C9.91648 4.06219 11.0063 3.78094 12.1123 3.79501C12.5187 3.84839 12.9313 3.76415 13.2843 3.55572C13.6373 3.34729 13.9103 3.02668 14.0598 2.64501C14.3836 2.02923 14.8301 1.48636 15.3719 1.04992C15.9137 0.613484 16.5392 0.292744 17.2098 0.107511C17.4897 0.00083971 17.7923 -0.0321904 18.0887 0.0115826C18.385 0.0553555 18.6652 0.174466 18.9023 0.357511C19.1165 0.538301 19.2802 0.771497 19.3775 1.03437C19.4747 1.29725 19.5022 1.58084 19.4573 1.85751C19.348 2.39849 19.404 2.95984 19.618 3.46857C19.832 3.9773 20.1941 4.40987 20.6573 4.71001L24.6398 7.88501C26.3215 9.22834 28.0081 10.5708 29.6998 11.9125C30.0003 12.1501 30.2501 12.4454 30.4346 12.7811C30.619 13.1168 30.7343 13.4861 30.7737 13.8671C30.8131 14.2481 30.7757 14.6331 30.6639 14.9995C30.552 15.3658 30.3678 15.706 30.1223 16L28.7323 17.675C28.1794 18.3354 27.4178 18.7874 26.5733 18.9565C25.7288 19.1256 24.8518 19.0016 24.0873 18.605C23.6001 18.3617 23.1268 18.0912 22.6698 17.795C22.466 17.6728 22.2394 17.5933 22.0038 17.5615C21.7683 17.5297 21.5288 17.5462 21.2998 17.61C20.9764 17.6948 20.6458 17.7492 20.3123 17.7725L21.2623 19.0225C21.6087 19.4744 22.0054 19.8854 22.4448 20.2475L22.4748 20.2725C22.4748 20.2725 23.5673 21.235 24.5948 22.2725C25.0272 22.7169 25.3587 23.2494 25.5666 23.8335C25.7746 24.4177 25.8541 25.0398 25.7998 25.6575V28.75C25.7998 29.0815 25.6681 29.3995 25.4337 29.6339C25.1993 29.8683 24.8813 30 24.5498 30ZM5.7998 27.5H23.2998V25.5C23.3286 25.2344 23.3015 24.9657 23.2201 24.7112C23.1387 24.4567 23.0049 24.2221 22.8273 24.0225C21.9198 23.115 20.9623 22.2725 20.8273 22.1525C20.2486 21.6732 19.7254 21.1307 19.2673 20.535L15.5898 15.73C15.3999 15.4869 15.3067 15.1822 15.3279 14.8744C15.3492 14.5667 15.4835 14.2777 15.705 14.063C15.9265 13.8483 16.2196 13.7231 16.5278 13.7115C16.8361 13.6999 17.1378 13.8026 17.3748 14L18.0573 14.5575C18.4103 14.8746 18.8369 15.0985 19.2983 15.2089C19.7598 15.3194 20.2415 15.3129 20.6998 15.19C21.2632 15.044 21.8506 15.0152 22.4256 15.1055C23.0005 15.1959 23.5508 15.4033 24.0423 15.715C24.4293 15.9638 24.83 16.1908 25.2423 16.395C25.499 16.5276 25.793 16.5697 26.0766 16.5143C26.3602 16.4589 26.6168 16.3094 26.8048 16.09L28.2073 14.4C28.2407 14.3629 28.2661 14.3194 28.2821 14.2721C28.298 14.2248 28.304 14.1747 28.2998 14.125C28.2931 14.0756 28.2766 14.0281 28.2512 13.9852C28.2259 13.9422 28.1923 13.9048 28.1523 13.875C26.4523 12.53 24.7631 11.185 23.0848 9.84001L19.1148 6.67001C18.518 6.24163 18.0163 5.69447 17.6412 5.06289C17.266 4.43132 17.0255 3.72898 16.9348 3.00001C16.6666 3.20464 16.4479 3.46694 16.2948 3.76751C15.9249 4.57529 15.3163 5.25035 14.5511 5.70179C13.7859 6.15323 12.9007 6.35939 12.0148 6.29251C10.6873 6.23251 9.7648 6.80751 8.6973 8.34501C7.69741 9.90459 7.0097 11.6434 6.6723 13.465C6.21568 15.4463 5.95443 17.4677 5.89231 19.5C5.83731 20.4725 5.83231 21.4075 5.82731 22.3425C5.82731 22.99 5.8273 23.6375 5.8023 24.29L5.7998 27.5Z" fill="black"/>
<path d="M27.0498 40H2.04981C1.83665 40 1.62703 39.9455 1.44088 39.8416C1.25472 39.7378 1.09822 39.5881 0.986237 39.4067C0.874255 39.2253 0.810516 39.0183 0.801077 38.8054C0.791638 38.5924 0.836813 38.3806 0.932309 38.19L3.43231 33.19C3.53622 32.9826 3.69578 32.8083 3.89314 32.6864C4.09049 32.5645 4.31786 32.5 4.54981 32.5H24.5498C24.7818 32.5 25.0091 32.5645 25.2065 32.6864C25.4038 32.8083 25.5634 32.9826 25.6673 33.19L28.1673 38.19C28.2628 38.3806 28.308 38.5924 28.2985 38.8054C28.2891 39.0183 28.2254 39.2253 28.1134 39.4067C28.0014 39.5881 27.8449 39.7378 27.6587 39.8416C27.4726 39.9455 27.263 40 27.0498 40ZM4.07231 37.5H25.0273L23.7773 35H5.32231L4.07231 37.5Z" fill="black"/>
</svg>
