<svg width="40" height="40" viewBox="0 0 40 40" fill="none" xmlns="http://www.w3.org/2000/svg">
<g clip-path="url(#clip0_56_134)">
<path d="M5 37.5C4.0111 37.5 3.0444 37.2068 2.22215 36.6574C1.39991 36.1079 0.759043 35.327 0.380605 34.4134C0.00216641 33.4998 -0.0968503 32.4945 0.0960758 31.5246C0.289002 30.5546 0.765206 29.6637 1.46447 28.9645C2.16373 28.2652 3.05465 27.789 4.02455 27.5961C4.99446 27.4031 5.99979 27.5022 6.91342 27.8806C7.82705 28.259 8.60794 28.8999 9.15735 29.7222C9.70676 30.5444 10 31.5111 10 32.5C10 33.8261 9.47322 35.0979 8.53554 36.0355C7.59785 36.9732 6.32608 37.5 5 37.5V37.5ZM5 30C4.50555 30 4.0222 30.1466 3.61108 30.4213C3.19995 30.696 2.87952 31.0865 2.6903 31.5433C2.50108 32.0001 2.45158 32.5028 2.54804 32.9877C2.6445 33.4727 2.8826 33.9181 3.23224 34.2678C3.58187 34.6174 4.02732 34.8555 4.51228 34.952C4.99723 35.0484 5.4999 34.9989 5.95671 34.8097C6.41353 34.6205 6.80397 34.3001 7.07868 33.8889C7.35338 33.4778 7.5 32.9945 7.5 32.5C7.5 31.837 7.23661 31.2011 6.76777 30.7322C6.29893 30.2634 5.66304 30 5 30Z" fill="black"/>
<path d="M35 37.5C34.0111 37.5 33.0444 37.2068 32.2222 36.6574C31.3999 36.1079 30.759 35.327 30.3806 34.4134C30.0022 33.4998 29.9031 32.4945 30.0961 31.5246C30.289 30.5546 30.7652 29.6637 31.4645 28.9645C32.1637 28.2652 33.0546 27.789 34.0246 27.5961C34.9945 27.4031 35.9998 27.5022 36.9134 27.8806C37.827 28.259 38.6079 28.8999 39.1574 29.7222C39.7068 30.5444 40 31.5111 40 32.5C40 33.8261 39.4732 35.0979 38.5355 36.0355C37.5979 36.9732 36.3261 37.5 35 37.5ZM35 30C34.5055 30 34.0222 30.1466 33.6111 30.4213C33.2 30.696 32.8795 31.0865 32.6903 31.5433C32.5011 32.0001 32.4516 32.5028 32.548 32.9877C32.6445 33.4727 32.8826 33.9181 33.2322 34.2678C33.5819 34.6174 34.0273 34.8555 34.5123 34.952C34.9972 35.0484 35.4999 34.9989 35.9567 34.8097C36.4135 34.6205 36.804 34.3001 37.0787 33.8889C37.3534 33.4778 37.5 32.9945 37.5 32.5C37.5 31.837 37.2366 31.2011 36.7678 30.7322C36.2989 30.2634 35.663 30 35 30Z" fill="black"/>
<path d="M20 12.5C19.0111 12.5 18.0444 12.2068 17.2222 11.6574C16.3999 11.1079 15.759 10.327 15.3806 9.41342C15.0022 8.49979 14.9031 7.49446 15.0961 6.52455C15.289 5.55465 15.7652 4.66373 16.4645 3.96447C17.1637 3.26521 18.0546 2.789 19.0246 2.59608C19.9945 2.40315 20.9998 2.50217 21.9134 2.8806C22.827 3.25904 23.6079 3.89991 24.1574 4.72215C24.7068 5.5444 25 6.5111 25 7.5C25 8.82608 24.4732 10.0979 23.5355 11.0355C22.5979 11.9732 21.3261 12.5 20 12.5ZM20 5C19.5055 5 19.0222 5.14662 18.6111 5.42133C18.2 5.69603 17.8795 6.08648 17.6903 6.54329C17.5011 7.00011 17.4516 7.50278 17.548 7.98773C17.6445 8.47268 17.8826 8.91814 18.2322 9.26777C18.5819 9.6174 19.0273 9.8555 19.5123 9.95197C19.9972 10.0484 20.4999 9.99892 20.9567 9.8097C21.4135 9.62048 21.804 9.30005 22.0787 8.88893C22.3534 8.4778 22.5 7.99446 22.5 7.5C22.5 6.83696 22.2366 6.20108 21.7678 5.73224C21.2989 5.26339 20.663 5 20 5V5Z" fill="black"/>
<path d="M31.25 33.75H8.75C8.41848 33.75 8.10054 33.6183 7.86612 33.3839C7.6317 33.1495 7.5 32.8315 7.5 32.5C7.5 32.1685 7.6317 31.8505 7.86612 31.6161C8.10054 31.3817 8.41848 31.25 8.75 31.25H31.25C31.5815 31.25 31.8995 31.3817 32.1339 31.6161C32.3683 31.8505 32.5 32.1685 32.5 32.5C32.5 32.8315 32.3683 33.1495 32.1339 33.3839C31.8995 33.6183 31.5815 33.75 31.25 33.75Z" fill="black"/>
<path d="M6.92499 30.55C6.69855 30.5512 6.47619 30.4898 6.28249 30.3725C6.14163 30.2882 6.01876 30.1769 5.92091 30.045C5.82306 29.9132 5.75214 29.7634 5.71221 29.6041C5.67228 29.4448 5.66412 29.2793 5.68819 29.1169C5.71226 28.9544 5.76809 28.7984 5.85249 28.6575L17 10.0575C17.1765 9.78635 17.4513 9.59421 17.7666 9.52147C18.0818 9.44873 18.413 9.50108 18.6905 9.6675C18.968 9.83392 19.1701 10.1014 19.2544 10.4138C19.3387 10.7262 19.2986 11.0591 19.1425 11.3425L7.99999 29.9425C7.88874 30.1282 7.73118 30.2818 7.54274 30.3883C7.3543 30.4948 7.14144 30.5505 6.92499 30.55Z" fill="black"/>
<path d="M33.075 30.55C32.859 30.55 32.6466 30.4941 32.4587 30.3876C32.2707 30.2812 32.1135 30.1278 32.0025 29.9425L20.8525 11.3425C20.6821 11.0577 20.6318 10.7169 20.7127 10.3951C20.7936 10.0732 20.999 9.79665 21.2838 9.62625C21.5685 9.45585 21.9093 9.40555 22.2312 9.48643C22.5531 9.5673 22.8296 9.77272 23 10.0575L34.1525 28.655C34.2369 28.7958 34.2927 28.9519 34.3168 29.1143C34.3409 29.2768 34.3327 29.4423 34.2928 29.6016C34.2529 29.7608 34.1819 29.9107 34.0841 30.0425C33.9862 30.1744 33.8634 30.2856 33.7225 30.37C33.5276 30.4891 33.3034 30.5514 33.075 30.55V30.55Z" fill="black"/>
</g>
<defs>
<clipPath id="clip0_56_134">
<rect width="40" height="40" fill="white"/>
</clipPath>
</defs>
</svg>
