<svg width="40" height="40" viewBox="0 0 40 40" fill="none" xmlns="http://www.w3.org/2000/svg">
<path d="M23.75 40H1.25C0.918479 40 0.600537 39.8683 0.366117 39.6339C0.131696 39.3995 0 39.0815 0 38.75V33.75C0 33.4185 0.131696 33.1005 0.366117 32.8661C0.600537 32.6317 0.918479 32.5 1.25 32.5H23.75C24.0815 32.5 24.3995 32.6317 24.6339 32.8661C24.8683 33.1005 25 33.4185 25 33.75V38.75C25 39.0815 24.8683 39.3995 24.6339 39.6339C24.3995 39.8683 24.0815 40 23.75 40ZM2.5 37.5H22.5V35H2.5V37.5Z" fill="black"/>
<path d="M21.25 30H3.75C3.41848 30 3.10054 29.8683 2.86612 29.6339C2.6317 29.3995 2.5 29.0815 2.5 28.75V23.75C2.5 23.4185 2.6317 23.1005 2.86612 22.8661C3.10054 22.6317 3.41848 22.5 3.75 22.5H21.25C21.5815 22.5 21.8995 22.6317 22.1339 22.8661C22.3683 23.1005 22.5 23.4185 22.5 23.75V28.75C22.5 29.0815 22.3683 29.3995 22.1339 29.6339C21.8995 29.8683 21.5815 30 21.25 30ZM5 27.5H20V25H5V27.5Z" fill="black"/>
<path d="M21.25 10H3.75C3.41848 10 3.10054 9.8683 2.86612 9.63388C2.6317 9.39946 2.5 9.08152 2.5 8.75V3.75C2.5 3.41848 2.6317 3.10054 2.86612 2.86612C3.10054 2.6317 3.41848 2.5 3.75 2.5H21.25C21.5815 2.5 21.8995 2.6317 22.1339 2.86612C22.3683 3.10054 22.5 3.41848 22.5 3.75V8.75C22.5 9.08152 22.3683 9.39946 22.1339 9.63388C21.8995 9.8683 21.5815 10 21.25 10ZM5 7.5H20V5H5V7.5Z" fill="black"/>
<path d="M38.75 20H18.75C18.4185 20 18.1005 19.8683 17.8661 19.6339C17.6317 19.3995 17.5 19.0815 17.5 18.75C17.5 18.4185 17.6317 18.1005 17.8661 17.8661C18.1005 17.6317 18.4185 17.5 18.75 17.5H37.5V15H18.75C18.4185 15 18.1005 14.8683 17.8661 14.6339C17.6317 14.3995 17.5 14.0815 17.5 13.75C17.5 13.4185 17.6317 13.1005 17.8661 12.8661C18.1005 12.6317 18.4185 12.5 18.75 12.5H38.75C39.0815 12.5 39.3995 12.6317 39.6339 12.8661C39.8683 13.1005 40 13.4185 40 13.75V18.75C40 19.0815 39.8683 19.3995 39.6339 19.6339C39.3995 19.8683 39.0815 20 38.75 20Z" fill="black"/>
<path d="M6.25 25C5.91848 25 5.60054 24.8683 5.36612 24.6339C5.1317 24.3995 5 24.0815 5 23.75V8.75C5 8.41848 5.1317 8.10054 5.36612 7.86612C5.60054 7.6317 5.91848 7.5 6.25 7.5C6.58152 7.5 6.89946 7.6317 7.13388 7.86612C7.3683 8.10054 7.5 8.41848 7.5 8.75V23.75C7.5 24.0815 7.3683 24.3995 7.13388 24.6339C6.89946 24.8683 6.58152 25 6.25 25Z" fill="black"/>
<path d="M18.75 25C18.4185 25 18.1005 24.8683 17.8661 24.6339C17.6317 24.3995 17.5 24.0815 17.5 23.75V8.75C17.5 8.41848 17.6317 8.10054 17.8661 7.86612C18.1005 7.6317 18.4185 7.5 18.75 7.5C19.0815 7.5 19.3995 7.6317 19.6339 7.86612C19.8683 8.10054 20 8.41848 20 8.75V23.75C20 24.0815 19.8683 24.3995 19.6339 24.6339C19.3995 24.8683 19.0815 25 18.75 25Z" fill="black"/>
</svg>
