<svg width="40" height="40" viewBox="0 0 40 40" fill="none" xmlns="http://www.w3.org/2000/svg">
<g clip-path="url(#clip0_56_150)">
<path d="M37.5 35H2.5C1.83696 35 1.20107 34.7366 0.732233 34.2678C0.263392 33.7989 0 33.163 0 32.5V10C0 9.33696 0.263392 8.70107 0.732233 8.23223C1.20107 7.76339 1.83696 7.5 2.5 7.5H37.5C38.163 7.5 38.7989 7.76339 39.2678 8.23223C39.7366 8.70107 40 9.33696 40 10V32.5C40 33.163 39.7366 33.7989 39.2678 34.2678C38.7989 34.7366 38.163 35 37.5 35ZM2.5 10V32.5H37.5V10H2.5Z" fill="black"/>
<path d="M38.75 15H1.25V17.5H38.75V15Z" fill="black"/>
<path d="M33.75 10C33.4873 10.0003 33.2312 9.91791 33.018 9.76443C32.8049 9.61095 32.6455 9.39422 32.5625 9.14501L30.44 2.78001L5.34497 9.95251C5.02605 10.0437 4.68397 10.0044 4.39399 9.84338C4.10401 9.68233 3.88989 9.41269 3.79872 9.09376C3.70755 8.77484 3.74681 8.43276 3.90786 8.14279C4.0689 7.85281 4.33855 7.63868 4.65747 7.54751L30.9075 0.047513C31.2174 -0.0411569 31.5496 -0.00665278 31.8347 0.143819C32.1198 0.294291 32.3358 0.549094 32.4375 0.855013L34.9375 8.35501C35.0001 8.54303 35.0171 8.74324 34.9871 8.93913C34.9572 9.13502 34.881 9.32097 34.765 9.48165C34.649 9.64233 34.4965 9.77313 34.32 9.86326C34.1435 9.95338 33.9481 10.0003 33.75 10Z" fill="black"/>
<path d="M33.75 30H6.25C5.91848 30 5.60054 29.8683 5.36612 29.6339C5.1317 29.3995 5 29.0815 5 28.75V23.75C5 23.4185 5.1317 23.1005 5.36612 22.8661C5.60054 22.6317 5.91848 22.5 6.25 22.5H33.75C34.0815 22.5 34.3995 22.6317 34.6339 22.8661C34.8683 23.1005 35 23.4185 35 23.75V28.75C35 29.0815 34.8683 29.3995 34.6339 29.6339C34.3995 29.8683 34.0815 30 33.75 30ZM7.5 27.5H32.5V25H7.5V27.5Z" fill="black"/>
</g>
<defs>
<clipPath id="clip0_56_150">
<rect width="40" height="40" fill="white"/>
</clipPath>
</defs>
</svg>
