<svg width="29" height="27" viewBox="0 0 29 27" fill="none" xmlns="http://www.w3.org/2000/svg">
<path d="M6.18516 3.38159C4.73113 8.76029 0.945824 11.7006 0.244991 14.2928C-0.455843 16.8851 -0.437315 22.731 11.4865 25.9549C23.4104 29.1787 27.1401 22.3291 27.9102 19.4774C31.5199 6.12773 8.76052 -6.14491 6.18516 3.38159Z" fill="#EFEFEF"/>
<path d="M21.1251 8.86425L18.6923 11.3051L15.8406 8.45342L18.2815 6.02064C18.7487 5.54537 19.514 5.54537 19.9892 6.02064L21.1251 7.15648C21.6004 7.63175 21.6004 8.39703 21.1251 8.86425Z" fill="#F3F3F1"/>
<path d="M17.2504 9.25898L19.6912 6.8262C19.9022 6.61112 20.1761 6.5072 20.4557 6.48706L19.9892 6.02064C19.514 5.54537 18.7487 5.54537 18.2815 6.02064L15.8406 8.45342L18.6923 11.3051L18.9936 11.0022L17.2504 9.25898Z" fill="#D5DBE1"/>
<path d="M18.6923 11.3051L10.0245 19.9729L6.2948 20.8509L7.17286 17.1212L15.8406 8.45343L18.6923 11.3051Z" fill="#2FDF84"/>
<path d="M8.58258 17.9268L16.9483 9.56107L15.8406 8.45343L7.17286 17.1212L6.2948 20.8509L7.98808 20.4522L8.58258 17.9268Z" fill="#00B871"/>
<path d="M12.0344 3.60559H10.4233V4.41115H12.0344V3.60559Z" fill="#A4AFC1"/>
<path d="M7.40243 3.60559H5.79132V4.41115H7.40243V3.60559Z" fill="#A4AFC1"/>
<path d="M9.41633 0.786133H8.61078V2.39724H9.41633V0.786133Z" fill="#A4AFC1"/>
<path d="M9.41633 5.41809H8.61078V7.0292H9.41633V5.41809Z" fill="#A4AFC1"/>
<path d="M4.18343 25.0801C3.51724 25.0801 2.9751 24.5379 2.9751 23.8717C2.9751 23.2055 3.51724 22.6634 4.18343 22.6634C4.84963 22.6634 5.39176 23.2055 5.39176 23.8717C5.39176 24.5379 4.84963 25.0801 4.18343 25.0801ZM4.18343 23.4689C3.9611 23.4689 3.78065 23.6494 3.78065 23.8717C3.78065 24.0941 3.9611 24.2745 4.18343 24.2745C4.40576 24.2745 4.58621 24.0941 4.58621 23.8717C4.58621 23.6494 4.40576 23.4689 4.18343 23.4689Z" fill="#A4AFC1"/>
<path d="M23.2115 20.2467H12.3365V21.455H23.2115V20.2467Z" fill="black"/>
<path d="M6.29489 21.4551C6.1362 21.4551 5.98233 21.393 5.86795 21.2778C5.71972 21.1296 5.65931 20.9161 5.70683 20.7123L6.58489 16.9866C6.61067 16.8771 6.66625 16.7772 6.746 16.6983L17.8538 5.59045C18.5369 4.90653 19.7324 4.90492 20.4171 5.59045L21.5561 6.7295C21.8985 7.07186 22.087 7.527 22.087 8.01114C22.087 8.49528 21.8985 8.95122 21.5561 9.29278L10.4483 20.3998C10.3686 20.4795 10.2687 20.5351 10.1599 20.5609L6.43425 21.4389C6.38753 21.4502 6.34081 21.4551 6.29489 21.4551ZM7.72153 17.4305L7.10689 20.0389L9.71528 19.4243L20.7014 8.43809C20.8158 8.3237 20.8787 8.17225 20.8787 8.01114C20.8787 7.85003 20.8158 7.69778 20.7014 7.5842L19.5624 6.44434C19.3344 6.21636 18.9357 6.21636 18.7085 6.44434L7.72153 17.4305Z" fill="black"/>
<path d="M16.2706 8.02734L15.4162 8.88176L18.2642 11.7298L19.1186 10.8754L16.2706 8.02734Z" fill="black"/>
</svg>
