<svg width="25" height="21" viewBox="0 0 25 21" fill="none" xmlns="http://www.w3.org/2000/svg">
<path d="M0.500526 20.0455C0.369526 20.0455 0.241526 19.9935 0.146526 19.8995C0.0235259 19.7765 -0.026474 19.5995 0.013526 19.4315L1.10353 14.8065C1.12453 14.7165 1.17053 14.6335 1.23653 14.5675L15.3795 0.4245C15.9445 -0.1415 16.9335 -0.1415 17.5005 0.4245L19.6215 2.5455C19.9045 2.8285 20.0605 3.2055 20.0605 3.6065C20.0605 4.0075 19.9045 4.3845 19.6215 4.6675L5.47953 18.8085C5.41453 18.8745 5.33153 18.9205 5.24053 18.9415L0.615526 20.0315C0.577526 20.0415 0.538526 20.0455 0.500526 20.0455ZM2.04453 15.1725L1.17253 18.8725L4.87253 18.0005L18.9145 3.9595C19.0095 3.8645 19.0605 3.7395 19.0605 3.6055C19.0605 3.4725 19.0085 3.3465 18.9145 3.2515L16.7935 1.1305C16.6035 0.9415 16.2755 0.9415 16.0865 1.1305L2.04453 15.1725ZM5.12553 18.4555H5.13553H5.12553Z" fill="black"/>
<path d="M15.8888 8.1915C15.7608 8.1915 15.6328 8.1425 15.5348 8.0455L11.9998 4.5095C11.8048 4.3145 11.8048 3.9975 11.9998 3.8025C12.1948 3.6075 12.5118 3.6075 12.7068 3.8025L16.2428 7.3385C16.4378 7.5335 16.4378 7.8505 16.2428 8.0455C16.1448 8.1435 16.0168 8.1915 15.8888 8.1915Z" fill="black"/>
<path d="M24.5312 19H10.4688C10.21 19 10 18.776 10 18.5C10 18.224 10.21 18 10.4688 18H24.5312C24.79 18 25 18.224 25 18.5C25 18.776 24.79 19 24.5312 19Z" fill="black"/>
</svg>
