<svg width="21" height="19" viewBox="0 0 21 19" fill="none" xmlns="http://www.w3.org/2000/svg">
<path d="M20.0872 18.8354H8.21738C7.71337 18.8354 7.30432 18.4264 7.30432 17.9224C7.30432 17.4184 7.71337 17.0093 8.21738 17.0093H20.0872C20.5912 17.0093 21.0003 17.4184 21.0003 17.9224C21.0003 18.4264 20.5912 18.8354 20.0872 18.8354Z" fill="black"/>
<path d="M17.592 2.53304L16.3009 1.24197C15.6107 0.551698 14.4082 0.552611 13.7188 1.24197L11.8306 3.13019L15.7038 7.0034L17.592 5.11519C17.9371 4.77096 18.1271 4.3126 18.1271 3.82412C18.1271 3.33654 17.9371 2.87818 17.592 2.53304Z" fill="black"/>
<path d="M10.5389 4.42233L1.12892 13.8324C1.06866 13.8917 1.02665 13.9675 1.00748 14.0506L0.0122416 18.2735C-0.0242809 18.4269 0.0222852 18.5894 0.133679 18.7008C0.219507 18.7876 0.336379 18.835 0.45599 18.835C0.490687 18.835 0.526296 18.8314 0.560992 18.8232L4.78391 17.8279C4.86608 17.8087 4.94187 17.7667 5.00213 17.7065L14.4122 8.29646L10.5389 4.42233Z" fill="black"/>
</svg>
