<svg width="40" height="40" viewBox="0 0 40 40" fill="none" xmlns="http://www.w3.org/2000/svg">
<path d="M35 40H5C4.33696 40 3.70107 39.7366 3.23223 39.2678C2.76339 38.7989 2.5 38.163 2.5 37.5V35.1225C2.50377 33.3898 3.10601 31.7115 4.20481 30.3717C5.30361 29.0319 6.83151 28.1129 8.53 27.77L14 26.675C14.2823 26.6174 14.5361 26.464 14.7183 26.2407C14.9006 26.0175 15.0001 25.7382 15 25.45V24.2C14.6058 23.6043 14.2532 22.9819 13.945 22.3375C13.6998 21.8097 13.4131 21.3023 13.0875 20.82C11.8605 19.7706 10.9765 18.3772 10.55 16.82C10.2769 15.8379 10.3905 14.7884 10.8675 13.8875L10.9025 13C10.784 11.4844 10.9012 9.95965 11.25 8.48C11.9819 6.75895 13.1893 5.28226 14.7307 4.22309C16.2721 3.16393 18.0835 2.5662 19.9525 2.5C21.4319 2.50793 22.8853 2.88976 24.1775 3.61C24.4517 3.70732 24.736 3.77357 25.025 3.8075C25.8852 3.86351 26.702 4.20587 27.345 4.78C27.8166 5.33191 28.1743 5.97172 28.3974 6.66253C28.6205 7.35335 28.7047 8.0815 28.645 8.805C28.9816 10.4738 29.1242 12.1759 29.07 13.8775C29.3276 14.3161 29.4926 14.8027 29.555 15.3075C29.6173 15.8123 29.5756 16.3245 29.4325 16.8125C29.0071 18.3696 28.124 19.7631 26.8975 20.8125C26.5749 21.2892 26.2907 21.7908 26.0475 22.3125C25.7444 22.9646 25.3943 23.5937 25 24.195V25.445C24.9999 25.7332 25.0994 26.0125 25.2817 26.2357C25.4639 26.459 25.7177 26.6124 26 26.67L31.4675 27.765C33.1673 28.1075 34.6964 29.0271 35.7958 30.368C36.8952 31.7089 37.4973 33.3885 37.5 35.1225V37.5C37.5 38.163 37.2366 38.7989 36.7678 39.2678C36.2989 39.7366 35.663 40 35 40ZM19.9675 5C18.6086 5.0588 17.293 5.49478 16.1679 6.2591C15.0429 7.02342 14.1528 8.08589 13.5975 9.3275C13.3827 10.5239 13.3172 11.7424 13.4025 12.955V13.8825C13.3918 14.2815 13.2818 14.6716 13.0825 15.0175C12.9764 15.2145 12.9132 15.4317 12.8968 15.6549C12.8804 15.878 12.9113 16.1021 12.9875 16.3125C13.3247 17.3768 13.9619 18.3213 14.8225 19.0325C15.3692 19.6876 15.8196 20.4175 16.16 21.2C16.4273 21.7807 16.7461 22.3362 17.1125 22.86C17.2332 22.975 17.3296 23.113 17.3962 23.2659C17.4627 23.4187 17.498 23.5833 17.5 23.75V25.45C17.5001 26.317 17.1997 27.1573 16.65 27.8278C16.1003 28.4983 15.3352 28.9576 14.485 29.1275L9.0175 30.2225C7.88491 30.4495 6.86584 31.0616 6.13347 31.9549C5.40109 32.8481 5.00058 33.9674 5 35.1225V37.5H35V35.1225C35 33.967 34.5998 32.8471 33.8673 31.9533C33.1349 31.0596 32.1155 30.4471 30.9825 30.22L25.515 29.1275C24.6648 28.9576 23.8997 28.4983 23.35 27.8278C22.8003 27.1573 22.4999 26.317 22.5 25.45V23.75C22.5 23.5844 22.533 23.4204 22.5969 23.2676C22.6609 23.1148 22.7545 22.9763 22.8725 22.86C23.2355 22.3363 23.5517 21.7816 23.8175 21.2025C24.1527 20.4182 24.6008 19.6871 25.1475 19.0325C26.0075 18.3223 26.6439 17.3786 26.98 16.315C27.0571 16.1045 27.0887 15.88 27.0727 15.6563C27.0568 15.4327 26.9937 15.215 26.8875 15.0175C26.6882 14.6716 26.5782 14.2815 26.5675 13.8825C26.6206 12.359 26.4956 10.8345 26.195 9.34C26.1649 9.23161 26.1481 9.11995 26.145 9.0075C26.1225 7.29 25.8425 6.845 25.505 6.48C25.2133 6.38274 24.9127 6.3149 24.6075 6.2775C24.0372 6.2111 23.482 6.0497 22.965 5.8C22.0511 5.28041 21.0188 5.00489 19.9675 5V5Z" fill="black"/>
<path d="M3.75 10C3.41848 10 3.10054 9.8683 2.86612 9.63388C2.6317 9.39946 2.5 9.08152 2.5 8.75V1.25C2.5 0.918479 2.6317 0.600537 2.86612 0.366117C3.10054 0.131696 3.41848 0 3.75 0L8.75 0C9.08152 0 9.39946 0.131696 9.63388 0.366117C9.8683 0.600537 10 0.918479 10 1.25C10 1.58152 9.8683 1.89946 9.63388 2.13388C9.39946 2.3683 9.08152 2.5 8.75 2.5H5V8.75C5 9.08152 4.8683 9.39946 4.63388 9.63388C4.39946 9.8683 4.08152 10 3.75 10Z" fill="black"/>
<path d="M8.75 25H3.75C3.41848 25 3.10054 24.8683 2.86612 24.6339C2.6317 24.3995 2.5 24.0815 2.5 23.75V16.25C2.5 15.9185 2.6317 15.6005 2.86612 15.3661C3.10054 15.1317 3.41848 15 3.75 15C4.08152 15 4.39946 15.1317 4.63388 15.3661C4.8683 15.6005 5 15.9185 5 16.25V22.5H8.75C9.08152 22.5 9.39946 22.6317 9.63388 22.8661C9.8683 23.1005 10 23.4185 10 23.75C10 24.0815 9.8683 24.3995 9.63388 24.6339C9.39946 24.8683 9.08152 25 8.75 25Z" fill="black"/>
<path d="M36.25 10C35.9185 10 35.6005 9.8683 35.3661 9.63388C35.1317 9.39946 35 9.08152 35 8.75V2.5H31.25C30.9185 2.5 30.6005 2.3683 30.3661 2.13388C30.1317 1.89946 30 1.58152 30 1.25C30 0.918479 30.1317 0.600537 30.3661 0.366117C30.6005 0.131696 30.9185 0 31.25 0L36.25 0C36.5815 0 36.8995 0.131696 37.1339 0.366117C37.3683 0.600537 37.5 0.918479 37.5 1.25V8.75C37.5 9.08152 37.3683 9.39946 37.1339 9.63388C36.8995 9.8683 36.5815 10 36.25 10Z" fill="black"/>
<path d="M36.25 25H31.25C30.9185 25 30.6005 24.8683 30.3661 24.6339C30.1317 24.3995 30 24.0815 30 23.75C30 23.4185 30.1317 23.1005 30.3661 22.8661C30.6005 22.6317 30.9185 22.5 31.25 22.5H35V16.25C35 15.9185 35.1317 15.6005 35.3661 15.3661C35.6005 15.1317 35.9185 15 36.25 15C36.5815 15 36.8995 15.1317 37.1339 15.3661C37.3683 15.6005 37.5 15.9185 37.5 16.25V23.75C37.5 24.0815 37.3683 24.3995 37.1339 24.6339C36.8995 24.8683 36.5815 25 36.25 25Z" fill="black"/>
</svg>
