<svg width="40" height="40" viewBox="0 0 40 40" fill="none" xmlns="http://www.w3.org/2000/svg">
<g clip-path="url(#clip0_56_251)">
<path d="M20 40C16.0444 40 12.1776 38.827 8.8886 36.6294C5.59962 34.4318 3.03617 31.3082 1.52242 27.6537C0.00866562 23.9992 -0.387401 19.9778 0.384303 16.0982C1.15601 12.2186 3.06082 8.65492 5.85787 5.85787C8.65492 3.06082 12.2186 1.15601 16.0982 0.384303C19.9778 -0.387401 23.9992 0.00866562 27.6537 1.52242C31.3082 3.03617 34.4318 5.59962 36.6294 8.8886C38.827 12.1776 40 16.0444 40 20C39.9941 25.3025 37.885 30.3861 34.1356 34.1356C30.3861 37.885 25.3025 39.9941 20 40ZM20 2.50001C16.5388 2.50001 13.1554 3.52637 10.2775 5.44929C7.39967 7.37222 5.15665 10.1053 3.83212 13.303C2.50758 16.5008 2.16103 20.0194 2.83627 23.4141C3.51151 26.8088 5.17822 29.927 7.62564 32.3744C10.0731 34.8218 13.1913 36.4885 16.5859 37.1638C19.9806 37.839 23.4993 37.4924 26.697 36.1679C29.8947 34.8434 32.6278 32.6003 34.5507 29.7225C36.4737 26.8446 37.5 23.4612 37.5 20C37.4947 15.3603 35.6493 10.9122 32.3685 7.63149C29.0878 4.35075 24.6397 2.5053 20 2.50001V2.50001Z" fill="black"/>
<path d="M33.775 33.925C33.4928 33.9253 33.2188 33.8302 32.9975 33.655C32.4013 33.1932 31.7066 32.875 30.9675 32.725L25.5 31.625C24.653 31.4521 23.8917 30.9919 23.345 30.3222C22.7984 29.6525 22.4998 28.8145 22.5 27.95V25.375C22.4992 25.0585 22.6185 24.7535 22.8338 24.5215C23.0491 24.2895 23.3443 24.1478 23.66 24.125C25.3818 24.0789 27.0892 23.7979 28.735 23.29C28.1818 19.4195 27.3343 15.5967 26.2 11.855C26.1679 11.7453 26.1503 11.6318 26.1475 11.5175C26.125 9.7675 25.8575 9.3525 25.5075 8.9775C25.2141 8.87636 24.9107 8.80679 24.6025 8.77C24.0371 8.70384 23.4864 8.54505 22.9725 8.3C22.0565 7.78564 21.0255 7.5105 19.975 7.5C18.6134 7.5506 17.2935 7.98293 16.1659 8.74767C15.0382 9.51241 14.1482 10.5787 13.5975 11.825V11.825C12.5114 15.607 11.7264 19.4691 11.25 23.375C12.8889 23.9076 14.5993 24.1875 16.3225 24.205C16.64 24.2254 16.9377 24.366 17.1551 24.5982C17.3725 24.8305 17.4932 25.1369 17.4925 25.455V27.955C17.4933 28.8199 17.195 29.6585 16.6483 30.3287C16.1016 30.9989 15.34 31.4595 14.4925 31.6325L9.02252 32.73C8.287 32.8803 7.59587 33.1976 7.00252 33.6575C6.74181 33.8495 6.41675 33.9329 6.09579 33.8901C5.77482 33.8472 5.48301 33.6815 5.2818 33.4278C5.08059 33.1741 4.98568 32.8522 5.01706 32.5299C5.04843 32.2077 5.20365 31.9101 5.45002 31.7C6.3497 30.9976 7.39949 30.5124 8.51752 30.2825L14.0175 29.18C14.2999 29.1224 14.5536 28.969 14.7358 28.7457C14.9181 28.5225 15.0176 28.2432 15.0175 27.955V26.6125C10.595 26.225 8.76752 25.3625 8.76752 23.7525C9.19496 19.455 10.0219 15.2066 11.2375 11.0625C11.963 9.32863 13.1676 7.83745 14.7103 6.76372C16.2529 5.68998 18.0696 5.07818 19.9475 5C21.4241 5.00722 22.8753 5.38547 24.1675 6.1C24.4436 6.19802 24.7294 6.26591 25.02 6.3025C25.8814 6.35885 26.6991 6.70211 27.3425 7.2775C27.8155 7.83013 28.1742 8.47109 28.3977 9.16327C28.6213 9.85545 28.7054 10.5851 28.645 11.31C29.9031 15.3654 30.7753 19.5306 31.25 23.75C31.25 24.8875 30.4625 26 25 26.525V27.95C25.0005 28.2377 25.1003 28.5165 25.2825 28.7392C25.4647 28.9619 25.7181 29.115 26 29.1725L31.48 30.2725C32.6016 30.5022 33.6549 30.9882 34.5575 31.6925C34.7611 31.8537 34.9095 32.0743 34.9819 32.3237C35.0544 32.5731 35.0474 32.8388 34.9619 33.084C34.8764 33.3292 34.7167 33.5417 34.5049 33.692C34.2931 33.8423 34.0397 33.9228 33.78 33.9225L33.775 33.925Z" fill="black"/>
</g>
<defs>
<clipPath id="clip0_56_251">
<rect width="40" height="40" fill="white"/>
</clipPath>
</defs>
</svg>
