<svg width="40" height="40" viewBox="0 0 40 40" fill="none" xmlns="http://www.w3.org/2000/svg">
<g clip-path="url(#clip0_56_249)">
<path d="M35 37.5H5C4.33696 37.5 3.70107 37.2366 3.23223 36.7678C2.76339 36.2989 2.5 35.663 2.5 35V32.625C2.50116 30.8915 3.10281 29.2118 4.20262 27.8718C5.30242 26.5318 6.83246 25.6142 8.5325 25.275L14 24.1775C14.2823 24.1199 14.5361 23.9665 14.7183 23.7432C14.9006 23.52 15.0001 23.2407 15 22.9525V21.61C10.58 21.22 8.75 20.36 8.75 18.75C9.17808 14.4524 10.0058 10.204 11.2225 6.06C11.9489 4.324 13.1559 2.83149 14.7015 1.75798C16.2471 0.684457 18.0671 0.0745609 19.9475 0C21.425 0.00669023 22.877 0.384965 24.17 1.1C24.4459 1.19851 24.7318 1.26642 25.0225 1.3025C25.8832 1.35864 26.7001 1.70196 27.3425 2.2775C27.8162 2.82968 28.1753 3.47058 28.3989 4.16288C28.6225 4.85519 28.7062 5.58506 28.645 6.31C29.9038 10.3652 30.776 14.5305 31.25 18.75C31.25 19.8875 30.4625 21 25 21.525V22.9525C24.9999 23.2407 25.0994 23.52 25.2817 23.7432C25.4639 23.9665 25.7177 24.1199 26 24.1775L31.47 25.275C33.1696 25.6147 34.699 26.5326 35.7983 27.8725C36.8977 29.2125 37.499 30.8918 37.5 32.625V35C37.5 35.663 37.2366 36.2989 36.7678 36.7678C36.2989 37.2366 35.663 37.5 35 37.5ZM11.25 18.375C12.8888 18.908 14.5993 19.1879 16.3225 19.205C16.6404 19.2235 16.9393 19.3626 17.1582 19.594C17.377 19.8254 17.4993 20.1315 17.5 20.45V22.95C17.5002 23.8167 17.2001 24.6567 16.6509 25.3271C16.1017 25.9975 15.3372 26.4571 14.4875 26.6275L9.02 27.725C7.88695 27.9515 6.86731 28.5634 6.13443 29.4567C5.40156 30.35 5.0007 31.4695 5 32.625V35H35V32.625C34.999 31.4707 34.5985 30.3523 33.8667 29.4596C33.1349 28.5669 32.1167 27.9549 30.985 27.7275L25.5 26.6275C24.653 26.4546 23.8917 25.9944 23.345 25.3247C22.7983 24.655 22.4998 23.817 22.5 22.9525V20.375C22.4992 20.0585 22.6185 19.7535 22.8337 19.5215C23.049 19.2895 23.3443 19.1478 23.66 19.125C25.3818 19.0787 27.0892 18.7978 28.735 18.29C28.1818 14.4195 27.3343 10.5967 26.2 6.855C26.1668 6.74552 26.1491 6.63191 26.1475 6.5175C26.125 4.7675 25.855 4.3525 25.5075 3.9775C25.214 3.8765 24.9107 3.80694 24.6025 3.77C24.0379 3.70379 23.488 3.545 22.975 3.3C22.0582 2.78524 21.0264 2.51008 19.975 2.5C18.6133 2.54902 17.2931 2.98076 16.1655 3.74572C15.038 4.51067 14.1488 5.57789 13.6 6.825V6.825C12.5116 10.6066 11.7258 14.4688 11.25 18.375V18.375Z" fill="black"/>
</g>
<defs>
<clipPath id="clip0_56_249">
<rect width="40" height="40" fill="white"/>
</clipPath>
</defs>
</svg>
