<svg width="16" height="14" viewBox="0 0 16 14" fill="none" xmlns="http://www.w3.org/2000/svg">
<path d="M8.51781 4.5625H0.78125C0.57405 4.5625 0.375336 4.48019 0.228823 4.33368C0.08231 4.18716 0 3.98845 0 3.78125C0 3.57405 0.08231 3.37534 0.228823 3.22882C0.375336 3.08231 0.57405 3 0.78125 3H8.51875C8.72595 3 8.92466 3.08231 9.07118 3.22882C9.21769 3.37534 9.3 3.57405 9.3 3.78125C9.3 3.98845 9.21769 4.18716 9.07118 4.33368C8.92466 4.48019 8.72595 4.5625 8.51875 4.5625H8.51781Z" fill="#181818"/>
<path d="M15.2193 4.17383H13.2637C13.0565 4.17383 12.8578 4.09152 12.7112 3.94501C12.5647 3.79849 12.4824 3.59978 12.4824 3.39258C12.4824 3.18538 12.5647 2.98666 12.7112 2.84015C12.8578 2.69364 13.0565 2.61133 13.2637 2.61133H15.2193C15.4265 2.61133 15.6252 2.69364 15.7717 2.84015C15.9182 2.98666 16.0005 3.18538 16.0005 3.39258C16.0005 3.59978 15.9182 3.79849 15.7717 3.94501C15.6252 4.09152 15.4265 4.17383 15.2193 4.17383V4.17383Z" fill="#181818"/>
<path d="M15.219 11.3887H8.48242C8.27522 11.3887 8.07651 11.3064 7.93 11.1598C7.78348 11.0133 7.70117 10.8146 7.70117 10.6074C7.70117 10.4002 7.78348 10.2015 7.93 10.055C8.07651 9.90848 8.27522 9.82617 8.48242 9.82617H15.219C15.4262 9.82617 15.6249 9.90848 15.7714 10.055C15.9179 10.2015 16.0002 10.4002 16.0002 10.6074C16.0002 10.8146 15.9179 11.0133 15.7714 11.1598C15.6249 11.3064 15.4262 11.3887 15.219 11.3887Z" fill="#181818"/>
<path d="M3.73688 11.3887H0.78125C0.57405 11.3887 0.375336 11.3064 0.228823 11.1598C0.08231 11.0133 0 10.8146 0 10.6074C0 10.4002 0.08231 10.2015 0.228823 10.055C0.375336 9.90848 0.57405 9.82617 0.78125 9.82617H3.73688C3.94408 9.82617 4.14279 9.90848 4.2893 10.055C4.43581 10.2015 4.51813 10.4002 4.51813 10.6074C4.51813 10.8146 4.43581 11.0133 4.2893 11.1598C4.14279 11.3064 3.94408 11.3887 3.73688 11.3887Z" fill="#181818"/>
<path d="M6.10945 13.7036C5.48562 13.7037 4.87579 13.5188 4.35707 13.1722C3.83834 12.8257 3.43403 12.3331 3.19526 11.7568C2.95649 11.1805 2.89398 10.5463 3.01565 9.93443C3.13731 9.32258 3.43768 8.76056 3.87877 8.31942C4.31986 7.87829 4.88186 7.57786 5.4937 7.45614C6.10554 7.33441 6.73973 7.39685 7.31607 7.63557C7.89242 7.87428 8.38504 8.27854 8.73162 8.79723C9.07821 9.31592 9.2632 9.92574 9.2632 10.5496C9.26262 11.3858 8.93018 12.1877 8.33887 12.7791C7.74756 13.3704 6.94573 13.703 6.10945 13.7036V13.7036ZM6.10945 8.95832C5.79464 8.95826 5.48689 9.05156 5.22511 9.22641C4.96333 9.40127 4.75929 9.64984 4.63879 9.94067C4.51829 10.2315 4.48674 10.5515 4.54814 10.8603C4.60955 11.1691 4.76113 11.4527 4.98374 11.6753C5.20634 11.8979 5.48996 12.0495 5.79872 12.1109C6.10748 12.1723 6.42752 12.1407 6.71835 12.0202C7.00918 11.8997 7.25775 11.6957 7.43261 11.4339C7.60746 11.1721 7.70076 10.8644 7.7007 10.5496C7.70004 10.1277 7.53218 9.72339 7.23391 9.42511C6.93563 9.12684 6.53127 8.95898 6.10945 8.95832V8.95832Z" fill="#181818"/>
<path d="M10.8904 6.54642C10.2666 6.54642 9.65677 6.36143 9.13809 6.01486C8.61941 5.66829 8.21514 5.17569 7.97642 4.59936C7.73769 4.02303 7.67523 3.38885 7.79693 2.77702C7.91863 2.16519 8.21903 1.60319 8.66013 1.16209C9.10124 0.720983 9.66324 0.420587 10.2751 0.298887C10.8869 0.177187 11.5211 0.239648 12.0974 0.478372C12.6737 0.717096 13.1663 1.12136 13.5129 1.64004C13.8595 2.15873 14.0445 2.76853 14.0445 3.39235C14.0439 4.22868 13.7114 5.03059 13.12 5.62197C12.5286 6.21335 11.7267 6.54584 10.8904 6.54642ZM10.8904 1.8011C10.5756 1.8011 10.2679 1.89445 10.0061 2.06935C9.7444 2.24424 9.5404 2.49283 9.41995 2.78367C9.2995 3.07451 9.268 3.39453 9.32943 3.70328C9.39087 4.01202 9.54248 4.29561 9.7651 4.51818C9.98771 4.74075 10.2713 4.89231 10.5801 4.95368C10.8888 5.01506 11.2089 4.9835 11.4997 4.86299C11.7905 4.74248 12.039 4.53843 12.2139 4.27666C12.3887 4.01489 12.482 3.70714 12.482 3.39235C12.4813 2.97047 12.3134 2.56607 12.015 2.26778C11.7167 1.9695 11.3123 1.80168 10.8904 1.8011V1.8011Z" fill="#181818"/>
</svg>
