<svg width="40" height="40" viewBox="0 0 40 40" fill="none" xmlns="http://www.w3.org/2000/svg">
<g clip-path="url(#clip0_56_156)">
<path d="M20 40C16.0444 40 12.1776 38.827 8.8886 36.6294C5.59962 34.4318 3.03617 31.3082 1.52241 27.6537C0.00866181 23.9992 -0.387405 19.9778 0.3843 16.0982C1.156 12.2186 3.06082 8.65492 5.85787 5.85787C8.65492 3.06082 12.2186 1.15601 16.0982 0.384303C19.9778 -0.387401 23.9992 0.00866562 27.6537 1.52242C31.3082 3.03617 34.4318 5.59962 36.6294 8.8886C38.827 12.1776 40 16.0444 40 20C39.9941 25.3025 37.885 30.3861 34.1356 34.1356C30.3861 37.885 25.3025 39.9941 20 40ZM20 2.50001C16.5388 2.50001 13.1554 3.52637 10.2775 5.44929C7.39967 7.37222 5.15665 10.1053 3.83211 13.303C2.50758 16.5008 2.16102 20.0194 2.83626 23.4141C3.5115 26.8088 5.17822 29.927 7.62564 32.3744C10.0731 34.8218 13.1913 36.4885 16.5859 37.1638C19.9806 37.839 23.4993 37.4924 26.697 36.1679C29.8947 34.8434 32.6278 32.6003 34.5507 29.7225C36.4736 26.8446 37.5 23.4612 37.5 20C37.4947 15.3603 35.6493 10.9122 32.3685 7.63149C29.0878 4.35075 24.6397 2.5053 20 2.50001V2.50001Z" fill="black"/>
<path d="M20 15C14.2973 15.0167 8.65527 13.8301 3.4425 11.5175L4.4575 9.23251C9.35842 11.3774 14.6503 12.4848 20 12.4848C25.3497 12.4848 30.6416 11.3774 35.5425 9.23251L36.5575 11.5175C31.3447 13.8301 25.7027 15.0167 20 15V15Z" fill="black"/>
<path d="M35.5425 30.7675C30.6416 28.6226 25.3497 27.5153 20 27.5153C14.6503 27.5153 9.35842 28.6226 4.4575 30.7675L3.4425 28.4825C8.66279 26.1966 14.2999 25.0164 19.9987 25.0164C25.6976 25.0164 31.3347 26.1966 36.555 28.4825L35.5425 30.7675Z" fill="black"/>
<path d="M19.095 39.6125C14.0505 34.3295 11.2357 27.3059 11.2357 20.0013C11.2357 12.6967 14.0505 5.67299 19.095 0.390015L20.905 2.11251C16.3034 6.93138 13.7357 13.3382 13.7357 20.0013C13.7357 26.6643 16.3034 33.0712 20.905 37.89L19.095 39.6125Z" fill="black"/>
<path d="M20.9025 39.6125L19.0925 37.89C23.6941 33.0711 26.2618 26.6643 26.2618 20.0013C26.2618 13.3382 23.6941 6.93138 19.0925 2.11251L20.9025 0.387512C25.9478 5.67061 28.763 12.6948 28.763 20C28.763 27.3052 25.9478 34.3294 20.9025 39.6125V39.6125Z" fill="black"/>
</g>
<defs>
<clipPath id="clip0_56_156">
<rect width="40" height="40" fill="white"/>
</clipPath>
</defs>
</svg>
