<svg width="40" height="40" viewBox="0 0 40 40" fill="none" xmlns="http://www.w3.org/2000/svg">
<path d="M26.25 37.5H1.25001C1.0457 37.5 0.844503 37.4498 0.664049 37.354C0.483595 37.2582 0.329382 37.1196 0.21491 36.9503C0.100438 36.7811 0.029197 36.5864 0.00742346 36.3832C-0.0143501 36.1801 0.0140078 35.9747 0.0900146 35.785L5.09001 23.285C5.18288 23.0533 5.343 22.8547 5.54974 22.7148C5.75648 22.5749 6.00038 22.5001 6.25001 22.5H21.25C21.4997 22.5001 21.7435 22.5749 21.9503 22.7148C22.157 22.8547 22.3172 23.0533 22.41 23.285L27.41 35.785C27.486 35.9747 27.5144 36.1801 27.4926 36.3832C27.4708 36.5864 27.3996 36.7811 27.2851 36.9503C27.1706 37.1196 27.0164 37.2582 26.836 37.354C26.6555 37.4498 26.4543 37.5 26.25 37.5ZM3.09501 35H24.405L20.405 25H7.09751L3.09501 35Z" fill="black"/>
<path d="M38.75 37.5H31.25C30.9185 37.5 30.6005 37.3683 30.3661 37.1339C30.1317 36.8995 30 36.5815 30 36.25C30 35.9185 30.1317 35.6005 30.3661 35.3661C30.6005 35.1317 30.9185 35 31.25 35H36.905L32.905 25H26.25C25.9185 25 25.6005 24.8683 25.3661 24.6339C25.1317 24.3995 25 24.0815 25 23.75C25 23.4185 25.1317 23.1005 25.3661 22.8661C25.6005 22.6317 25.9185 22.5 26.25 22.5H33.75C33.9996 22.5001 34.2435 22.5749 34.4503 22.7148C34.657 22.8547 34.8171 23.0533 34.91 23.285L39.91 35.785C39.986 35.9747 40.0144 36.1801 39.9926 36.3832C39.9708 36.5864 39.8996 36.7811 39.7851 36.9503C39.6706 37.1196 39.5164 37.2582 39.336 37.354C39.1555 37.4498 38.9543 37.5 38.75 37.5Z" fill="black"/>
<path d="M32.5 20H7.50001C7.2957 20 7.0945 19.9498 6.91405 19.854C6.73359 19.7582 6.57938 19.6196 6.46491 19.4503C6.35044 19.2811 6.2792 19.0864 6.25742 18.8832C6.23565 18.6801 6.26401 18.4747 6.34001 18.285L11.34 5.785C11.4329 5.55328 11.593 5.35468 11.7997 5.21477C12.0065 5.07486 12.2504 5.00006 12.5 5H27.5C27.7497 5.00006 27.9935 5.07486 28.2003 5.21477C28.407 5.35468 28.5672 5.55328 28.66 5.785L33.66 18.285C33.736 18.4747 33.7644 18.6801 33.7426 18.8832C33.7208 19.0864 33.6496 19.2811 33.5351 19.4503C33.4206 19.6196 33.2664 19.7582 33.086 19.854C32.9055 19.9498 32.7043 20 32.5 20ZM9.34501 17.5H30.6525L26.6525 7.5H13.3475L9.34501 17.5Z" fill="black"/>
<path d="M15 16.25C14.8659 16.2505 14.7325 16.2294 14.605 16.1875C14.4492 16.1355 14.3051 16.0534 14.1811 15.9457C14.057 15.838 13.9554 15.707 13.882 15.56C13.8087 15.413 13.765 15.253 13.7535 15.0892C13.742 14.9253 13.7629 14.7608 13.815 14.605L15.065 10.855C15.1479 10.6062 15.3069 10.3898 15.5196 10.2363C15.7323 10.0829 15.9878 10.0002 16.25 10H21.25C21.5816 10 21.8995 10.1317 22.1339 10.3661C22.3683 10.6005 22.5 10.9185 22.5 11.25C22.5 11.5815 22.3683 11.8995 22.1339 12.1339C21.8995 12.3683 21.5816 12.5 21.25 12.5H17.15L16.1875 15.395C16.1045 15.6442 15.9451 15.8609 15.732 16.0144C15.5188 16.1679 15.2627 16.2503 15 16.25V16.25Z" fill="black"/>
<path d="M8.75004 33.75C8.61587 33.7505 8.4825 33.7294 8.35504 33.6875C8.19921 33.6355 8.05514 33.5534 7.93109 33.4457C7.80703 33.338 7.70541 33.207 7.63204 33.06C7.55867 32.913 7.51499 32.753 7.50349 32.5892C7.492 32.4253 7.51291 32.2608 7.56504 32.105L8.81504 28.355C8.89791 28.1062 9.05693 27.8898 9.26959 27.7363C9.48226 27.5829 9.7378 27.5002 10 27.5H15C15.3316 27.5 15.6495 27.6317 15.8839 27.8661C16.1183 28.1005 16.25 28.4185 16.25 28.75C16.25 29.0815 16.1183 29.3995 15.8839 29.6339C15.6495 29.8683 15.3316 30 15 30H10.9L9.93504 32.895C9.85217 33.1438 9.69315 33.3602 9.48048 33.5137C9.26782 33.6671 9.01228 33.7498 8.75004 33.75V33.75Z" fill="black"/>
</svg>
