<svg width="40" height="40" viewBox="0 0 40 40" fill="none" xmlns="http://www.w3.org/2000/svg">
<g clip-path="url(#clip0_56_255)">
<path d="M26.1975 17.375C25.8866 17.3747 25.5869 17.2586 25.3571 17.0493C25.1272 16.84 24.9835 16.5525 24.9542 16.243C24.9248 15.9335 25.0118 15.6242 25.1983 15.3754C25.3847 15.1266 25.6572 14.9562 25.9625 14.8975C26.7212 14.7513 27.4358 14.4312 28.05 13.9624C28.6643 13.4935 29.1615 12.8887 29.5026 12.1954C29.8438 11.5021 30.0196 10.7391 30.0163 9.9664C30.013 9.19369 29.8306 8.43226 29.4835 7.74189C29.1364 7.05152 28.6341 6.45098 28.0158 5.98744C27.3976 5.52389 26.6803 5.20993 25.9204 5.07023C25.1604 4.93052 24.3784 4.96885 23.6357 5.18223C22.893 5.3956 22.2099 5.7782 21.64 6.29999C21.5185 6.41047 21.3765 6.49593 21.222 6.55151C21.0675 6.60709 20.9035 6.6317 20.7395 6.62392C20.5755 6.61614 20.4146 6.57614 20.2661 6.50619C20.1175 6.43624 19.9842 6.33771 19.8737 6.21624C19.7633 6.09477 19.6778 5.95273 19.6222 5.79822C19.5666 5.64372 19.542 5.47978 19.5498 5.31577C19.5576 5.15176 19.5976 4.99089 19.6675 4.84234C19.7375 4.69378 19.836 4.56047 19.9575 4.44999C20.8133 3.66944 21.8382 3.09772 22.952 2.77964C24.0658 2.46156 25.2381 2.40577 26.377 2.61664C27.5159 2.82751 28.5905 3.29932 29.5166 3.99507C30.4427 4.69082 31.195 5.59161 31.7146 6.62682C32.2342 7.66202 32.507 8.80351 32.5115 9.96179C32.5161 11.1201 32.2523 12.2637 31.7408 13.3029C31.2294 14.3422 30.4842 15.2489 29.5636 15.9519C28.6431 16.6549 27.5722 17.1352 26.435 17.355C26.3566 17.3689 26.2771 17.3756 26.1975 17.375V17.375Z" fill="#010101"/>
<path d="M37.5 32.5H33.75C33.4185 32.5 33.1005 32.3683 32.8661 32.1339C32.6317 31.8995 32.5 31.5815 32.5 31.25C32.5 30.9185 32.6317 30.6005 32.8661 30.3661C33.1005 30.1317 33.4185 30 33.75 30H37.5V26.25C37.5 25.9185 37.6317 25.6005 37.8661 25.3661C38.1005 25.1317 38.4185 25 38.75 25C39.0815 25 39.3995 25.1317 39.6339 25.3661C39.8683 25.6005 40 25.9185 40 26.25V30C40 30.663 39.7366 31.2989 39.2678 31.7678C38.7989 32.2366 38.163 32.5 37.5 32.5Z" fill="#010101"/>
<path d="M38.75 27.5C38.4564 27.4997 38.1723 27.3962 37.9475 27.2075C34.1456 24.0073 29.2885 22.3372 24.3225 22.5225C23.9913 22.5353 23.6686 22.4161 23.4253 22.1911C23.182 21.9661 23.038 21.6536 23.025 21.3225C23.0121 20.9913 23.1313 20.6686 23.3564 20.4253C23.5814 20.182 23.8938 20.038 24.225 20.025C29.8112 19.8125 35.276 21.6896 39.5525 25.29C39.7499 25.4546 39.8917 25.676 39.9587 25.9242C40.0257 26.1723 40.0146 26.435 39.9269 26.6766C39.8391 26.9182 39.6791 27.1269 39.4685 27.2742C39.2579 27.4215 39.007 27.5004 38.75 27.5V27.5Z" fill="#010101"/>
<path d="M15 22.5C13.5166 22.5 12.0666 22.0601 10.8332 21.236C9.59986 20.4119 8.63856 19.2406 8.07091 17.8701C7.50325 16.4997 7.35472 14.9917 7.64411 13.5368C7.9335 12.082 8.64781 10.7456 9.6967 9.6967C10.7456 8.64781 12.082 7.9335 13.5368 7.64411C14.9917 7.35472 16.4997 7.50325 17.8701 8.07091C19.2406 8.63856 20.4119 9.59986 21.236 10.8332C22.0601 12.0666 22.5 13.5166 22.5 15C22.5 16.9891 21.7098 18.8968 20.3033 20.3033C18.8968 21.7098 16.9891 22.5 15 22.5ZM15 10C14.0111 10 13.0444 10.2932 12.2222 10.8427C11.3999 11.3921 10.759 12.173 10.3806 13.0866C10.0022 14.0002 9.90315 15.0056 10.0961 15.9755C10.289 16.9454 10.7652 17.8363 11.4645 18.5355C12.1637 19.2348 13.0546 19.711 14.0246 19.9039C14.9945 20.0969 15.9998 19.9978 16.9134 19.6194C17.8271 19.241 18.6079 18.6001 19.1574 17.7779C19.7068 16.9556 20 15.9889 20 15C20 13.6739 19.4732 12.4022 18.5355 11.4645C17.5979 10.5268 16.3261 10 15 10V10Z" fill="#010101"/>
<path d="M27.5 37.5H2.5C1.83696 37.5 1.20107 37.2366 0.732233 36.7678C0.263392 36.2989 0 35.663 0 35V31.25C0 30.9185 0.131696 30.6005 0.366117 30.3661C0.600537 30.1317 0.918479 30 1.25 30C1.58152 30 1.89946 30.1317 2.13388 30.3661C2.3683 30.6005 2.5 30.9185 2.5 31.25V35H27.5V31.25C27.5 30.9185 27.6317 30.6005 27.8661 30.3661C28.1005 30.1317 28.4185 30 28.75 30C29.0815 30 29.3995 30.1317 29.6339 30.3661C29.8683 30.6005 30 30.9185 30 31.25V35C30 35.663 29.7366 36.2989 29.2678 36.7678C28.7989 37.2366 28.163 37.5 27.5 37.5Z" fill="#010101"/>
<path d="M28.75 32.5C28.4565 32.4998 28.1724 32.3962 27.9475 32.2075C24.3213 29.1613 19.7371 27.4914 15.0013 27.4914C10.2654 27.4914 5.68122 29.1613 2.05502 32.2075C1.80075 32.4207 1.4722 32.5241 1.14167 32.495C0.811138 32.466 0.50569 32.3068 0.292522 32.0525C0.0793545 31.7982 -0.0240716 31.4697 0.00499655 31.1391C0.0340647 30.8086 0.193246 30.5032 0.447522 30.29C4.52404 26.8658 9.67742 24.9886 15.0013 24.9886C20.3251 24.9886 25.4785 26.8658 29.555 30.29C29.7526 30.4547 29.8945 30.6764 29.9614 30.9248C30.0283 31.1732 30.017 31.4361 29.929 31.6778C29.8409 31.9195 29.6805 32.1282 29.4695 32.2753C29.2585 32.4225 29.0073 32.5009 28.75 32.5Z" fill="#010101"/>
</g>
<defs>
<clipPath id="clip0_56_255">
<rect width="40" height="40" fill="white"/>
</clipPath>
</defs>
</svg>
