<svg width="16" height="40" viewBox="0 0 16 40" fill="none" xmlns="http://www.w3.org/2000/svg">
<path d="M8 10C7.0111 10 6.0444 9.70676 5.22215 9.15735C4.39991 8.60794 3.75904 7.82705 3.3806 6.91342C3.00217 5.99979 2.90315 4.99446 3.09608 4.02455C3.289 3.05465 3.76521 2.16373 4.46447 1.46447C5.16373 0.765206 6.05465 0.289002 7.02455 0.0960758C7.99446 -0.0968503 8.99979 0.00216641 9.91342 0.380605C10.827 0.759043 11.6079 1.39991 12.1574 2.22215C12.7068 3.0444 13 4.0111 13 5C13 6.32608 12.4732 7.59785 11.5355 8.53554C10.5979 9.47322 9.32609 10 8 10ZM8 2.5C7.50555 2.5 7.0222 2.64662 6.61108 2.92133C6.19995 3.19603 5.87952 3.58648 5.6903 4.04329C5.50108 4.50011 5.45158 5.00278 5.54804 5.48773C5.6445 5.97268 5.8826 6.41814 6.23224 6.76777C6.58187 7.1174 7.02732 7.3555 7.51228 7.45197C7.99723 7.54843 8.4999 7.49892 8.95671 7.3097C9.41353 7.12048 9.80397 6.80005 10.0787 6.38893C10.3534 5.9778 10.5 5.49446 10.5 5C10.5 4.33696 10.2366 3.70108 9.76777 3.23224C9.29893 2.76339 8.66304 2.5 8 2.5V2.5Z" fill="black"/>
<path d="M9.36748 40H6.63248C6.01056 40.0031 5.40981 39.7743 4.94754 39.3583C4.48527 38.9422 4.19467 38.3688 4.13248 37.75L3.11748 27.5H1.74998C1.57476 27.5009 1.40131 27.4649 1.24089 27.3944C1.08047 27.3239 0.936656 27.2205 0.818788 27.0909C0.70092 26.9612 0.611628 26.8082 0.556705 26.6418C0.501783 26.4754 0.482456 26.2993 0.499981 26.125L1.64498 14.75C1.70717 14.1312 1.99777 13.5578 2.46004 13.1417C2.92231 12.7257 3.52306 12.4969 4.14498 12.5H11.8675C12.4894 12.4969 13.0901 12.7257 13.5524 13.1417C14.0147 13.5578 14.3053 14.1312 14.3675 14.75L15.5 26.125C15.5175 26.2993 15.4982 26.4754 15.4433 26.6418C15.3883 26.8082 15.299 26.9612 15.1812 27.0909C15.0633 27.2205 14.9195 27.3239 14.7591 27.3944C14.5987 27.4649 14.4252 27.5009 14.25 27.5H12.8825L11.8575 37.75C11.7955 38.3671 11.5063 38.9391 11.0461 39.3549C10.586 39.7707 9.98768 40.0006 9.36748 40ZM3.13248 25H4.24998C4.56094 24.9984 4.86131 25.1128 5.09245 25.3209C5.32359 25.5289 5.46889 25.8156 5.49998 26.125L6.63248 37.5H9.36748L10.5 26.125C10.5311 25.8156 10.6764 25.5289 10.9075 25.3209C11.1386 25.1128 11.439 24.9984 11.75 25H12.8675L11.8675 15H4.13248L3.13248 25Z" fill="black"/>
</svg>
