<svg width="41" height="40" viewBox="0 0 41 40" fill="none" xmlns="http://www.w3.org/2000/svg">
<g clip-path="url(#clip0_56_107)">
<path d="M29.4983 27.9C29.216 27.9004 28.942 27.8052 28.7208 27.63L22.5558 22.735L19.8258 24.16C19.0657 24.5541 18.1937 24.6763 17.3546 24.5062C16.5155 24.3361 15.7598 23.884 15.2133 23.225L14.2358 22.0475C14.0367 21.8078 13.9343 21.5025 13.9486 21.1912C13.9629 20.88 14.093 20.5853 14.3133 20.365L21.8133 12.865C21.9296 12.749 22.0676 12.6571 22.2194 12.5944C22.3713 12.5318 22.534 12.4997 22.6983 12.5H27.7483C28.0798 12.5 28.3977 12.6317 28.6321 12.8661C28.8666 13.1005 28.9983 13.4185 28.9983 13.75C28.9983 14.0815 28.8666 14.3995 28.6321 14.6339C28.3977 14.8683 28.0798 15 27.7483 15H23.2158L16.8883 21.3275L17.1383 21.6275C17.3185 21.8451 17.5672 21.9951 17.8437 22.0532C18.1201 22.1113 18.4082 22.0741 18.6608 21.9475L22.1233 20.14C22.3375 20.0284 22.5795 19.9813 22.82 20.0044C23.0605 20.0275 23.2891 20.1197 23.4783 20.27L30.2783 25.67C30.482 25.8313 30.6304 26.0522 30.7028 26.3018C30.7752 26.5514 30.768 26.8174 30.6822 27.0627C30.5964 27.308 30.4363 27.5205 30.2241 27.6706C30.0119 27.8207 29.7582 27.9008 29.4983 27.9V27.9Z" fill="black"/>
<path d="M20.1782 33.73C18.8307 33.7299 17.5184 33.2989 16.4332 32.5L6.53074 25.18C6.38496 25.0882 6.25973 24.9672 6.16293 24.8247C6.06612 24.6821 5.99982 24.5211 5.9682 24.3518C5.93657 24.1824 5.9403 24.0083 5.97915 23.8405C6.018 23.6726 6.09114 23.5146 6.19396 23.3764C6.29678 23.2381 6.42708 23.1226 6.57666 23.0371C6.72624 22.9516 6.89189 22.898 7.06319 22.8795C7.2345 22.8611 7.40776 22.8783 7.57211 22.93C7.73647 22.9817 7.88835 23.0668 8.01824 23.18L17.9182 30.505C18.5741 30.9887 19.3683 31.2484 20.1832 31.2457C20.9982 31.243 21.7906 30.978 22.4432 30.49L32.2382 22.97C32.5016 22.7745 32.8312 22.6904 33.156 22.7358C33.4808 22.7811 33.7748 22.9523 33.9746 23.2124C34.1743 23.4725 34.2639 23.8007 34.2239 24.1262C34.1839 24.4517 34.0175 24.7485 33.7607 24.9525L23.9482 32.465C22.8628 33.2859 21.5391 33.73 20.1782 33.73V33.73Z" fill="black"/>
<path d="M20.8458 16.85C20.6233 16.8498 20.405 16.7902 20.2133 16.6775L17.3583 15H12.6483C12.3167 15 11.9988 14.8683 11.7644 14.6339C11.53 14.3995 11.3983 14.0815 11.3983 13.75C11.3983 13.4185 11.53 13.1005 11.7644 12.8661C11.9988 12.6317 12.3167 12.5 12.6483 12.5H17.6983C17.9207 12.5002 18.139 12.5597 18.3308 12.6725L21.4808 14.5225C21.7173 14.6616 21.9015 14.8747 22.0049 15.1289C22.1084 15.3831 22.1253 15.6643 22.053 15.929C21.9808 16.1938 21.8235 16.4274 21.6053 16.5938C21.3871 16.7603 21.1202 16.8503 20.8458 16.85Z" fill="black"/>
<path d="M34.1982 27.5C33.9691 27.5 33.7444 27.4371 33.5487 27.318C33.3529 27.199 33.1936 27.0284 33.0882 26.825L25.3382 11.825C25.2621 11.678 25.2159 11.5173 25.2024 11.3523C25.1888 11.1873 25.2082 11.0212 25.2594 10.8638C25.3105 10.7063 25.3925 10.5606 25.5004 10.435C25.6084 10.3095 25.7402 10.2067 25.8882 10.1325L30.8882 7.6325C31.0351 7.55905 31.1951 7.51528 31.3589 7.50367C31.5227 7.49207 31.6873 7.51287 31.843 7.56487C31.9988 7.61688 32.1428 7.69908 32.2669 7.80677C32.3909 7.91446 32.4924 8.04553 32.5657 8.1925L40.0657 23.1925C40.212 23.4849 40.2379 23.8229 40.1379 24.1341C40.0379 24.4454 39.8199 24.7051 39.5307 24.8575L34.7807 27.3575C34.601 27.4516 34.4011 27.5005 34.1982 27.5V27.5ZM28.1407 11.8025L34.7382 24.5525L37.2832 23.21L30.8882 10.4275L28.1407 11.8025Z" fill="black"/>
<path d="M6.19825 27.5C5.99519 27.4997 5.79526 27.4499 5.61575 27.355L0.865749 24.855C0.576562 24.7025 0.358605 24.4429 0.258598 24.1316C0.15859 23.8204 0.184491 23.4824 0.330749 23.19L7.83075 8.19C7.90407 8.04303 8.00564 7.91196 8.12964 7.80427C8.25365 7.69658 8.39766 7.61438 8.55345 7.56237C8.70924 7.51036 8.87375 7.48957 9.03758 7.50117C9.20141 7.51277 9.36134 7.55655 9.50825 7.63L14.5082 10.13C14.6563 10.2042 14.7881 10.307 14.896 10.4325C15.004 10.5581 15.0859 10.7038 15.1371 10.8613C15.1883 11.0187 15.2077 11.1848 15.1941 11.3498C15.1806 11.5148 15.1344 11.6755 15.0582 11.8225L7.30825 26.8225C7.2032 27.0264 7.04407 27.1975 6.84829 27.317C6.6525 27.4365 6.42762 27.4998 6.19825 27.5V27.5ZM3.11325 23.215L5.65825 24.5575L12.2557 11.8075L9.50575 10.4325L3.11325 23.215Z" fill="black"/>
</g>
<defs>
<clipPath id="clip0_56_107">
<rect width="40" height="40" fill="white" transform="translate(0.198242)"/>
</clipPath>
</defs>
</svg>
