<svg width="35" height="40" viewBox="0 0 35 40" fill="none" xmlns="http://www.w3.org/2000/svg">
<path d="M13.25 40C12.9185 40 12.6005 39.8683 12.3661 39.6339C12.1317 39.3995 12 39.0815 12 38.75V33.9725L7.405 34.7225C7.04842 34.781 6.68339 34.7616 6.33505 34.6655C5.98672 34.5694 5.66335 34.3989 5.38724 34.1658C5.11113 33.9327 4.88883 33.6425 4.73566 33.3152C4.58249 32.9879 4.50209 32.6313 4.5 32.27V26.25H2C1.78684 26.25 1.57722 26.1955 1.39107 26.0916C1.20492 25.9878 1.04841 25.8381 0.936429 25.6567C0.824446 25.4753 0.760707 25.2683 0.751268 25.0554C0.741829 24.8424 0.787004 24.6306 0.8825 24.44L4.5 17.205V15C4.50025 12.5941 5.07923 10.2235 6.18809 8.08831C7.29694 5.95314 8.90314 4.11602 10.8711 2.73198C12.8391 1.34795 15.1112 0.457607 17.4955 0.136095C19.8799 -0.185417 22.3066 0.0713333 24.5709 0.884679C26.8352 1.69802 28.8706 3.0441 30.5054 4.80932C32.1402 6.57453 33.3264 8.70709 33.9639 11.027C34.6014 13.347 34.6714 15.7862 34.1682 18.1389C33.665 20.4917 32.6032 22.6888 31.0725 24.545C30.1011 25.6561 29.5453 27.0698 29.5 28.545V36.25C29.4999 36.5459 29.3948 36.8321 29.2034 37.0578C29.0121 37.2835 28.7469 37.434 28.455 37.4825L13.455 39.9825C13.3872 39.9938 13.3187 39.9996 13.25 40V40ZM13.25 31.25C13.5815 31.25 13.8995 31.3817 14.1339 31.6161C14.3683 31.8505 14.5 32.1685 14.5 32.5V37.275L27 35.1925V28.5475C27.0343 26.487 27.7948 24.5047 29.1475 22.95C30.4222 21.4028 31.3061 19.5717 31.7246 17.6112C32.1431 15.6507 32.0839 13.6182 31.5521 11.6854C31.0202 9.75256 30.0313 7.97598 28.6687 6.50555C27.3062 5.03512 25.6099 3.91397 23.7231 3.23668C21.8363 2.5594 19.8143 2.34585 17.8276 2.61406C15.841 2.88226 13.948 3.62435 12.3083 4.77772C10.6686 5.93108 9.33042 7.46189 8.40656 9.241C7.48269 11.0201 7.00027 12.9953 7 15V17.5C6.99999 17.6944 6.95462 17.8862 6.8675 18.06L4.0225 23.75H5.75C6.08152 23.75 6.39946 23.8817 6.63388 24.1161C6.8683 24.3505 7 24.6685 7 25V32.27L13.045 31.27C13.1127 31.2578 13.1812 31.2511 13.25 31.25V31.25Z" fill="black"/>
</svg>
