<svg width="41" height="40" viewBox="0 0 41 40" fill="none" xmlns="http://www.w3.org/2000/svg">
<g clip-path="url(#clip0_56_99)">
<path d="M35.3984 27.5C35.0669 27.5 34.749 27.3683 34.5146 27.1339C34.2801 26.8995 34.1484 26.5815 34.1484 26.25V20H6.64844V26.25C6.64844 26.5815 6.51674 26.8995 6.28232 27.1339C6.0479 27.3683 5.72996 27.5 5.39844 27.5C5.06692 27.5 4.74897 27.3683 4.51455 27.1339C4.28013 26.8995 4.14844 26.5815 4.14844 26.25V18.75C4.14844 18.4185 4.28013 18.1005 4.51455 17.8661C4.74897 17.6317 5.06692 17.5 5.39844 17.5H35.3984C35.73 17.5 36.0479 17.6317 36.2823 17.8661C36.5167 18.1005 36.6484 18.4185 36.6484 18.75V26.25C36.6484 26.5815 36.5167 26.8995 36.2823 27.1339C36.0479 27.3683 35.73 27.5 35.3984 27.5Z" fill="black"/>
<path d="M20.3984 27.5C20.0669 27.5 19.749 27.3683 19.5146 27.1339C19.2801 26.8995 19.1484 26.5815 19.1484 26.25V11.25C19.1484 10.9185 19.2801 10.6005 19.5146 10.3661C19.749 10.1317 20.0669 10 20.3984 10C20.73 10 21.0479 10.1317 21.2823 10.3661C21.5167 10.6005 21.6484 10.9185 21.6484 11.25V26.25C21.6484 26.5815 21.5167 26.8995 21.2823 27.1339C21.0479 27.3683 20.73 27.5 20.3984 27.5Z" fill="black"/>
<path d="M20.3984 35C19.4095 35 18.4428 34.7068 17.6206 34.1574C16.7983 33.6079 16.1575 32.827 15.779 31.9134C15.4006 30.9998 15.3016 29.9945 15.4945 29.0246C15.6874 28.0546 16.1636 27.1637 16.8629 26.4645C17.5622 25.7652 18.4531 25.289 19.423 25.0961C20.3929 24.9031 21.3982 25.0022 22.3119 25.3806C23.2255 25.759 24.0064 26.3999 24.5558 27.2222C25.1052 28.0444 25.3984 29.0111 25.3984 30C25.3984 31.3261 24.8717 32.5979 23.934 33.5355C22.9963 34.4732 21.7245 35 20.3984 35ZM20.3984 27.5C19.904 27.5 19.4206 27.6466 19.0095 27.9213C18.5984 28.196 18.278 28.5865 18.0887 29.0433C17.8995 29.5001 17.85 30.0028 17.9465 30.4877C18.0429 30.9727 18.281 31.4181 18.6307 31.7678C18.9803 32.1174 19.4258 32.3555 19.9107 32.452C20.3957 32.5484 20.8983 32.4989 21.3552 32.3097C21.812 32.1205 22.2024 31.8001 22.4771 31.3889C22.7518 30.9778 22.8984 30.4945 22.8984 30C22.8984 29.337 22.635 28.7011 22.1662 28.2322C21.6974 27.7634 21.0615 27.5 20.3984 27.5V27.5Z" fill="black"/>
<path d="M5.39844 35C4.40953 35 3.44283 34.7068 2.62059 34.1574C1.79834 33.6079 1.15748 32.827 0.779042 31.9134C0.400604 30.9998 0.301587 29.9945 0.494513 29.0246C0.687439 28.0546 1.16364 27.1637 1.86291 26.4645C2.56217 25.7652 3.45308 25.289 4.42299 25.0961C5.39289 24.9031 6.39823 25.0022 7.31186 25.3806C8.22549 25.759 9.00638 26.3999 9.55579 27.2222C10.1052 28.0444 10.3984 29.0111 10.3984 30C10.3984 31.3261 9.87166 32.5979 8.93397 33.5355C7.99629 34.4732 6.72452 35 5.39844 35V35ZM5.39844 27.5C4.90399 27.5 4.42064 27.6466 4.00951 27.9213C3.59839 28.196 3.27796 28.5865 3.08874 29.0433C2.89952 29.5001 2.85001 30.0028 2.94648 30.4877C3.04294 30.9727 3.28104 31.4181 3.63067 31.7678C3.9803 32.1174 4.42576 32.3555 4.91071 32.452C5.39567 32.5484 5.89833 32.4989 6.35515 32.3097C6.81196 32.1205 7.20241 31.8001 7.47711 31.3889C7.75182 30.9778 7.89844 30.4945 7.89844 30C7.89844 29.337 7.63505 28.7011 7.16621 28.2322C6.69737 27.7634 6.06148 27.5 5.39844 27.5Z" fill="black"/>
<path d="M35.3984 35C34.4095 35 33.4428 34.7068 32.6206 34.1574C31.7983 33.6079 31.1575 32.827 30.779 31.9134C30.4006 30.9998 30.3016 29.9945 30.4945 29.0246C30.6874 28.0546 31.1636 27.1637 31.8629 26.4645C32.5622 25.7652 33.4531 25.289 34.423 25.0961C35.3929 24.9031 36.3982 25.0022 37.3119 25.3806C38.2255 25.759 39.0064 26.3999 39.5558 27.2222C40.1052 28.0444 40.3984 29.0111 40.3984 30C40.3984 31.3261 39.8717 32.5979 38.934 33.5355C37.9963 34.4732 36.7245 35 35.3984 35ZM35.3984 27.5C34.904 27.5 34.4206 27.6466 34.0095 27.9213C33.5984 28.196 33.278 28.5865 33.0887 29.0433C32.8995 29.5001 32.85 30.0028 32.9465 30.4877C33.0429 30.9727 33.281 31.4181 33.6307 31.7678C33.9803 32.1174 34.4258 32.3555 34.9107 32.452C35.3957 32.5484 35.8983 32.4989 36.3551 32.3097C36.812 32.1205 37.2024 31.8001 37.4771 31.3889C37.7518 30.9778 37.8984 30.4945 37.8984 30C37.8984 29.337 37.635 28.7011 37.1662 28.2322C36.6974 27.7634 36.0615 27.5 35.3984 27.5Z" fill="black"/>
<path d="M20.3984 12.5C19.4095 12.5 18.4428 12.2068 17.6206 11.6574C16.7983 11.1079 16.1575 10.327 15.779 9.41342C15.4006 8.49979 15.3016 7.49446 15.4945 6.52455C15.6874 5.55465 16.1636 4.66373 16.8629 3.96447C17.5622 3.26521 18.4531 2.789 19.423 2.59608C20.3929 2.40315 21.3982 2.50217 22.3119 2.8806C23.2255 3.25904 24.0064 3.89991 24.5558 4.72215C25.1052 5.5444 25.3984 6.5111 25.3984 7.5C25.3984 8.82608 24.8717 10.0979 23.934 11.0355C22.9963 11.9732 21.7245 12.5 20.3984 12.5ZM20.3984 5C19.904 5 19.4206 5.14662 19.0095 5.42133C18.5984 5.69603 18.278 6.08648 18.0887 6.54329C17.8995 7.00011 17.85 7.50278 17.9465 7.98773C18.0429 8.47268 18.281 8.91814 18.6307 9.26777C18.9803 9.6174 19.4258 9.8555 19.9107 9.95197C20.3957 10.0484 20.8983 9.99892 21.3552 9.8097C21.812 9.62048 22.2024 9.30005 22.4771 8.88893C22.7518 8.4778 22.8984 7.99446 22.8984 7.5C22.8984 6.83696 22.635 6.20108 22.1662 5.73224C21.6974 5.26339 21.0615 5 20.3984 5V5Z" fill="black"/>
</g>
<defs>
<clipPath id="clip0_56_99">
<rect width="40" height="40" fill="white" transform="translate(0.398438)"/>
</clipPath>
</defs>
</svg>
