<svg width="30" height="40" viewBox="0 0 30 40" fill="none" xmlns="http://www.w3.org/2000/svg">
<path d="M15 22.5C14.0111 22.5 13.0444 22.2068 12.2222 21.6574C11.3999 21.1079 10.759 20.3271 10.3806 19.4134C10.0022 18.4998 9.90315 17.4945 10.0961 16.5246C10.289 15.5546 10.7652 14.6637 11.4645 13.9645C12.1637 13.2652 13.0546 12.789 14.0246 12.5961C14.9945 12.4031 15.9998 12.5022 16.9134 12.8806C17.827 13.259 18.6079 13.8999 19.1574 14.7222C19.7068 15.5444 20 16.5111 20 17.5C20 18.8261 19.4732 20.0979 18.5355 21.0355C17.5979 21.9732 16.3261 22.5 15 22.5ZM15 15C14.5055 15 14.0222 15.1466 13.6111 15.4213C13.2 15.696 12.8795 16.0865 12.6903 16.5433C12.5011 17.0001 12.4516 17.5028 12.548 17.9877C12.6445 18.4727 12.8826 18.9181 13.2322 19.2678C13.5819 19.6174 14.0273 19.8555 14.5123 19.952C14.9972 20.0484 15.4999 19.9989 15.9567 19.8097C16.4135 19.6205 16.804 19.3001 17.0787 18.8889C17.3534 18.4778 17.5 17.9945 17.5 17.5C17.5 16.837 17.2366 16.2011 16.7678 15.7322C16.2989 15.2634 15.663 15 15 15V15Z" fill="black"/>
<path d="M21.25 30H8.75C8.41848 30 8.10054 29.8683 7.86612 29.6339C7.6317 29.3995 7.5 29.0815 7.5 28.75C7.5 27.0924 8.15848 25.5027 9.33058 24.3306C10.5027 23.1585 12.0924 22.5 13.75 22.5H16.25C17.9076 22.5 19.4973 23.1585 20.6694 24.3306C21.8415 25.5027 22.5 27.0924 22.5 28.75C22.5 29.0815 22.3683 29.3995 22.1339 29.6339C21.8995 29.8683 21.5815 30 21.25 30ZM10.215 27.5H19.785C19.5265 26.769 19.0478 26.136 18.4147 25.6883C17.7817 25.2406 17.0254 25.0001 16.25 25H13.75C12.9746 25.0001 12.2183 25.2406 11.5853 25.6883C10.9522 26.136 10.4735 26.769 10.215 27.5V27.5Z" fill="black"/>
<path d="M27.5 40H2.5C1.83696 40 1.20107 39.7366 0.732233 39.2678C0.263392 38.7989 0 38.163 0 37.5V7.5C0 6.83696 0.263392 6.20107 0.732233 5.73223C1.20107 5.26339 1.83696 5 2.5 5H6.25C6.58152 5 6.89946 5.1317 7.13388 5.36612C7.3683 5.60054 7.5 5.91848 7.5 6.25C7.5 6.58152 7.3683 6.89946 7.13388 7.13388C6.89946 7.3683 6.58152 7.5 6.25 7.5H2.5V37.5H27.5V7.5H23.75C23.4185 7.5 23.1005 7.3683 22.8661 7.13388C22.6317 6.89946 22.5 6.58152 22.5 6.25C22.5 5.91848 22.6317 5.60054 22.8661 5.36612C23.1005 5.1317 23.4185 5 23.75 5H27.5C28.163 5 28.7989 5.26339 29.2678 5.73223C29.7366 6.20107 30 6.83696 30 7.5V37.5C30 38.163 29.7366 38.7989 29.2678 39.2678C28.7989 39.7366 28.163 40 27.5 40Z" fill="black"/>
<path d="M18.75 10H11.25C10.9185 10 10.6005 9.8683 10.3661 9.63388C10.1317 9.39946 10 9.08152 10 8.75V5C10 3.67392 10.5268 2.40215 11.4645 1.46447C12.4021 0.526784 13.6739 0 15 0C16.3261 0 17.5979 0.526784 18.5355 1.46447C19.4732 2.40215 20 3.67392 20 5V8.75C20 9.08152 19.8683 9.39946 19.6339 9.63388C19.3995 9.8683 19.0815 10 18.75 10ZM12.5 7.5H17.5V5C17.5 4.33696 17.2366 3.70107 16.7678 3.23223C16.2989 2.76339 15.663 2.5 15 2.5C14.337 2.5 13.7011 2.76339 13.2322 3.23223C12.7634 3.70107 12.5 4.33696 12.5 5V7.5Z" fill="black"/>
<path d="M21.25 35H8.75C8.41848 35 8.10054 34.8683 7.86612 34.6339C7.6317 34.3995 7.5 34.0815 7.5 33.75C7.5 33.4185 7.6317 33.1005 7.86612 32.8661C8.10054 32.6317 8.41848 32.5 8.75 32.5H21.25C21.5815 32.5 21.8995 32.6317 22.1339 32.8661C22.3683 33.1005 22.5 33.4185 22.5 33.75C22.5 34.0815 22.3683 34.3995 22.1339 34.6339C21.8995 34.8683 21.5815 35 21.25 35Z" fill="black"/>
</svg>
