<svg width="40" height="40" viewBox="0 0 40 40" fill="none" xmlns="http://www.w3.org/2000/svg">
<path d="M20 22.5C18.7791 22.5124 17.591 22.1046 16.635 21.345C16.391 21.1318 16.2394 20.8322 16.212 20.5094C16.1846 20.1866 16.2836 19.8658 16.4882 19.6145C16.6927 19.3633 16.9869 19.2013 17.3085 19.1627C17.6302 19.124 17.9543 19.2118 18.2125 19.4075C18.7231 19.8034 19.354 20.0125 20 20C21.355 20 22.5 19.1425 22.5 18.125C22.5 17.1075 21.355 16.25 20 16.25C18.7585 16.3256 17.5373 15.9087 16.6012 15.0897C15.6652 14.2706 15.0898 13.1155 15 11.875C15.0898 10.6345 15.6652 9.47936 16.6012 8.66032C17.5373 7.84128 18.7585 7.42436 20 7.49999C21.2209 7.48762 22.409 7.89542 23.365 8.65499C23.4988 8.75635 23.6107 8.88361 23.6942 9.02917C23.7778 9.17473 23.8311 9.33562 23.8511 9.50224C23.8711 9.66886 23.8574 9.83781 23.8107 9.999C23.764 10.1602 23.6853 10.3103 23.5794 10.4405C23.4734 10.5706 23.3423 10.6781 23.1939 10.7565C23.0456 10.8349 22.8829 10.8826 22.7157 10.8968C22.5485 10.911 22.3801 10.8913 22.2206 10.8391C22.0612 10.7868 21.9139 10.7029 21.7875 10.5925C21.2769 10.1966 20.646 9.98745 20 9.99999C18.645 9.99999 17.5 10.8575 17.5 11.875C17.5 12.8925 18.645 13.75 20 13.75C21.2415 13.6744 22.4627 14.0913 23.3988 14.9103C24.3348 15.7294 24.9102 16.8845 25 18.125C24.9102 19.3655 24.3348 20.5206 23.3988 21.3397C22.4627 22.1587 21.2415 22.5756 20 22.5V22.5Z" fill="black"/>
<path d="M20 10C19.6685 10 19.3505 9.8683 19.1161 9.63388C18.8817 9.39946 18.75 9.08152 18.75 8.75V6.25C18.75 5.91848 18.8817 5.60054 19.1161 5.36612C19.3505 5.1317 19.6685 5 20 5C20.3315 5 20.6495 5.1317 20.8839 5.36612C21.1183 5.60054 21.25 5.91848 21.25 6.25V8.75C21.25 9.08152 21.1183 9.39946 20.8839 9.63388C20.6495 9.8683 20.3315 10 20 10Z" fill="black"/>
<path d="M20 25C19.6685 25 19.3505 24.8683 19.1161 24.6339C18.8817 24.3995 18.75 24.0815 18.75 23.75V21.25C18.75 20.9185 18.8817 20.6005 19.1161 20.3661C19.3505 20.1317 19.6685 20 20 20C20.3315 20 20.6495 20.1317 20.8839 20.3661C21.1183 20.6005 21.25 20.9185 21.25 21.25V23.75C21.25 24.0815 21.1183 24.3995 20.8839 24.6339C20.6495 24.8683 20.3315 25 20 25Z" fill="black"/>
<path d="M26.25 30H13.75C13.4185 30 13.1005 29.8683 12.8661 29.6339C12.6317 29.3995 12.5 29.0815 12.5 28.75V27.905C12.5652 25.1111 11.7125 22.3729 10.0725 20.11C8.3928 17.9299 7.48761 15.2521 7.5 12.5C7.5 12.1685 7.6317 11.8505 7.86612 11.6161C8.10054 11.3817 8.41848 11.25 8.75 11.25C9.08152 11.25 9.39947 11.3817 9.63389 11.6161C9.86831 11.8505 10 12.1685 10 12.5C9.98955 14.7004 10.7126 16.8415 12.055 18.585C13.9654 21.165 14.9976 24.2898 15 27.5H25C25.001 24.2903 26.0314 21.1656 27.94 18.585C29.2842 16.8421 30.009 14.701 30 12.5C30 12.1685 30.1317 11.8505 30.3661 11.6161C30.6005 11.3817 30.9185 11.25 31.25 11.25C31.5815 11.25 31.8995 11.3817 32.1339 11.6161C32.3683 11.8505 32.5 12.1685 32.5 12.5C32.5118 15.2513 31.6067 17.9281 29.9275 20.1075C28.287 22.3711 27.4342 25.1102 27.5 27.905V28.75C27.5 29.0815 27.3683 29.3995 27.1339 29.6339C26.8995 29.8683 26.5815 30 26.25 30Z" fill="black"/>
<path d="M26.25 35H13.75C13.4185 35 13.1005 34.8683 12.8661 34.6339C12.6317 34.3995 12.5 34.0815 12.5 33.75C12.5 33.4185 12.6317 33.1005 12.8661 32.8661C13.1005 32.6317 13.4185 32.5 13.75 32.5H26.25C26.5815 32.5 26.8995 32.6317 27.1339 32.8661C27.3683 33.1005 27.5 33.4185 27.5 33.75C27.5 34.0815 27.3683 34.3995 27.1339 34.6339C26.8995 34.8683 26.5815 35 26.25 35Z" fill="black"/>
<path d="M32.4999 12.5H29.9999C29.9999 9.84784 28.9464 7.3043 27.071 5.42893C25.1956 3.55357 22.6521 2.5 19.9999 2.5C17.3478 2.5 14.8042 3.55357 12.9289 5.42893C11.0535 7.3043 9.99994 9.84784 9.99994 12.5H7.49994C7.49994 9.18479 8.8169 6.00537 11.1611 3.66117C13.5053 1.31696 16.6847 0 19.9999 0C23.3151 0 26.4946 1.31696 28.8388 3.66117C31.183 6.00537 32.4999 9.18479 32.4999 12.5V12.5Z" fill="black"/>
<path d="M22.5 40H17.5C16.1739 40 14.9021 39.4732 13.9645 38.5355C13.0268 37.5979 12.5 36.3261 12.5 35V28.75C12.5 28.4185 12.6317 28.1005 12.8661 27.8661C13.1005 27.6317 13.4185 27.5 13.75 27.5C14.0815 27.5 14.3995 27.6317 14.6339 27.8661C14.8683 28.1005 15 28.4185 15 28.75V35C15 35.663 15.2634 36.2989 15.7322 36.7678C16.2011 37.2366 16.837 37.5 17.5 37.5H22.5C23.163 37.5 23.7989 37.2366 24.2678 36.7678C24.7366 36.2989 25 35.663 25 35V28.75C25 28.4185 25.1317 28.1005 25.3661 27.8661C25.6005 27.6317 25.9185 27.5 26.25 27.5C26.5815 27.5 26.8995 27.6317 27.1339 27.8661C27.3683 28.1005 27.5 28.4185 27.5 28.75V35C27.5 36.3261 26.9732 37.5979 26.0355 38.5355C25.0979 39.4732 23.8261 40 22.5 40Z" fill="black"/>
</svg>
