<svg width="40" height="40" viewBox="0 0 40 40" fill="none" xmlns="http://www.w3.org/2000/svg">
<g clip-path="url(#clip0_56_275)">
<path d="M37.5 35H2.50001C2.17077 35.0034 1.84418 34.941 1.53936 34.8165C1.23453 34.6921 0.957604 34.508 0.724789 34.2752C0.491973 34.0424 0.307951 33.7655 0.183498 33.4607C0.0590445 33.1558 -0.00333724 32.8292 5.49798e-06 32.5V10C-0.00333724 9.67077 0.0590445 9.34418 0.183498 9.03936C0.307951 8.73453 0.491973 8.4576 0.724789 8.22479C0.957604 7.99197 1.23453 7.80795 1.53936 7.6835C1.84418 7.55904 2.17077 7.49666 2.50001 7.50001H11.25C11.5815 7.50001 11.8995 7.6317 12.1339 7.86612C12.3683 8.10054 12.5 8.41848 12.5 8.75001C12.5 9.08153 12.3683 9.39947 12.1339 9.63389C11.8995 9.86831 11.5815 10 11.25 10H2.50001V32.5H37.5V10H28.75C28.4185 10 28.1005 9.86831 27.8661 9.63389C27.6317 9.39947 27.5 9.08153 27.5 8.75001C27.5 8.41848 27.6317 8.10054 27.8661 7.86612C28.1005 7.6317 28.4185 7.50001 28.75 7.50001H37.5C37.8292 7.49666 38.1558 7.55904 38.4607 7.6835C38.7655 7.80795 39.0424 7.99197 39.2752 8.22479C39.508 8.4576 39.6921 8.73453 39.8165 9.03936C39.941 9.34418 40.0033 9.67077 40 10V32.5C40.0033 32.8292 39.941 33.1558 39.8165 33.4607C39.6921 33.7655 39.508 34.0424 39.2752 34.2752C39.0424 34.508 38.7655 34.6921 38.4607 34.8165C38.1558 34.941 37.8292 35.0034 37.5 35V35Z" fill="black"/>
<path d="M11.25 22.5C10.5083 22.5 9.7833 22.2801 9.16661 21.868C8.54993 21.456 8.06928 20.8703 7.78545 20.1851C7.50162 19.4998 7.42736 18.7458 7.57206 18.0184C7.71675 17.291 8.0739 16.6228 8.59835 16.0984C9.1228 15.5739 9.79098 15.2168 10.5184 15.0721C11.2458 14.9274 11.9998 15.0016 12.6851 15.2855C13.3703 15.5693 13.956 16.0499 14.368 16.6666C14.7801 17.2833 15 18.0083 15 18.75C15 19.7446 14.6049 20.6984 13.9017 21.4017C13.1984 22.1049 12.2446 22.5 11.25 22.5ZM11.25 17.5C11.0028 17.5 10.7611 17.5733 10.5555 17.7107C10.35 17.848 10.1898 18.0432 10.0952 18.2716C10.0005 18.5001 9.97579 18.7514 10.024 18.9939C10.0723 19.2363 10.1913 19.4591 10.3661 19.6339C10.5409 19.8087 10.7637 19.9278 11.0061 19.976C11.2486 20.0242 11.4999 19.9995 11.7284 19.9049C11.9568 19.8102 12.152 19.65 12.2893 19.4445C12.4267 19.2389 12.5 18.9972 12.5 18.75C12.5 18.4185 12.3683 18.1005 12.1339 17.8661C11.8995 17.6317 11.5815 17.5 11.25 17.5Z" fill="black"/>
<path d="M16.25 30H6.25C5.91848 30 5.60054 29.8683 5.36612 29.6339C5.1317 29.3995 5 29.0815 5 28.75V26.25C5.00015 26.0235 5.06187 25.8012 5.17856 25.607C5.29525 25.4128 5.46253 25.254 5.6625 25.1475C7.38215 24.229 9.30168 23.7485 11.2513 23.7485C13.2008 23.7485 15.1203 24.229 16.84 25.1475C17.0395 25.2543 17.2063 25.4133 17.3225 25.6075C17.4387 25.8016 17.5001 26.0237 17.5 26.25V28.75C17.5 29.0815 17.3683 29.3995 17.1339 29.6339C16.8995 29.8683 16.5815 30 16.25 30ZM7.5 27.5H15V27.0325C13.8173 26.5157 12.5406 26.2489 11.25 26.2489C9.95936 26.2489 8.68265 26.5157 7.5 27.0325V27.5Z" fill="black"/>
<path d="M31.25 22.5H21.25C20.9185 22.5 20.6005 22.3683 20.3661 22.1339C20.1317 21.8995 20 21.5815 20 21.25C20 20.9185 20.1317 20.6005 20.3661 20.3661C20.6005 20.1317 20.9185 20 21.25 20H31.25C31.5815 20 31.8995 20.1317 32.1339 20.3661C32.3683 20.6005 32.5 20.9185 32.5 21.25C32.5 21.5815 32.3683 21.8995 32.1339 22.1339C31.8995 22.3683 31.5815 22.5 31.25 22.5Z" fill="black"/>
<path d="M31.25 27.5H21.25C20.9185 27.5 20.6005 27.3683 20.3661 27.1339C20.1317 26.8995 20 26.5815 20 26.25C20 25.9185 20.1317 25.6005 20.3661 25.3661C20.6005 25.1317 20.9185 25 21.25 25H31.25C31.5815 25 31.8995 25.1317 32.1339 25.3661C32.3683 25.6005 32.5 25.9185 32.5 26.25C32.5 26.5815 32.3683 26.8995 32.1339 27.1339C31.8995 27.3683 31.5815 27.5 31.25 27.5Z" fill="black"/>
<path d="M23.75 12.5H16.25C15.9185 12.5 15.6005 12.3683 15.3661 12.1339C15.1317 11.8995 15 11.5815 15 11.25V7.5C15 6.17392 15.5268 4.90215 16.4645 3.96447C17.4021 3.02678 18.6739 2.5 20 2.5C21.3261 2.5 22.5979 3.02678 23.5355 3.96447C24.4732 4.90215 25 6.17392 25 7.5V11.25C25 11.5815 24.8683 11.8995 24.6339 12.1339C24.3995 12.3683 24.0815 12.5 23.75 12.5ZM17.5 10H22.5V7.5C22.5 6.83696 22.2366 6.20107 21.7678 5.73223C21.2989 5.26339 20.663 5 20 5C19.337 5 18.7011 5.26339 18.2322 5.73223C17.7634 6.20107 17.5 6.83696 17.5 7.5V10Z" fill="black"/>
</g>
<defs>
<clipPath id="clip0_56_275">
<rect width="40" height="40" fill="white"/>
</clipPath>
</defs>
</svg>
