<svg width="41" height="40" viewBox="0 0 41 40" fill="none" xmlns="http://www.w3.org/2000/svg">
<g clip-path="url(#clip0_56_51)">
<path d="M33.0996 10C32.1107 10 31.144 9.70676 30.3218 9.15735C29.4995 8.60794 28.8587 7.82705 28.4802 6.91342C28.1018 5.99979 28.0028 4.99446 28.1957 4.02455C28.3886 3.05465 28.8648 2.16373 29.5641 1.46447C30.2633 0.765206 31.1543 0.289002 32.1242 0.0960758C33.0941 -0.0968503 34.0994 0.00216641 35.013 0.380605C35.9267 0.759043 36.7076 1.39991 37.257 2.22215C37.8064 3.0444 38.0996 4.0111 38.0996 5C38.0996 6.32608 37.5728 7.59785 36.6351 8.53554C35.6975 9.47322 34.4257 10 33.0996 10ZM33.0996 2.5C32.6052 2.5 32.1218 2.64662 31.7107 2.92133C31.2996 3.19603 30.9791 3.58648 30.7899 4.04329C30.6007 4.50011 30.5512 5.00278 30.6476 5.48773C30.7441 5.97268 30.9822 6.41814 31.3318 6.76777C31.6815 7.1174 32.1269 7.3555 32.6119 7.45197C33.0968 7.54843 33.5995 7.49892 34.0563 7.3097C34.5131 7.12048 34.9036 6.80005 35.1783 6.38893C35.453 5.9778 35.5996 5.49446 35.5996 5C35.5996 4.33696 35.3362 3.70108 34.8674 3.23224C34.3985 2.76339 33.7627 2.5 33.0996 2.5Z" fill="black"/>
<path d="M34.4696 37.5H31.7196C31.1003 37.4994 30.5032 37.2689 30.0441 36.8532C29.585 36.4375 29.2965 35.8662 29.2346 35.25L28.4846 27.6275C28.4669 27.4638 28.4818 27.2982 28.5284 27.1402C28.5749 26.9822 28.6522 26.835 28.7558 26.707C28.8594 26.579 28.9873 26.4727 29.1321 26.3943C29.2769 26.3159 29.4358 26.2668 29.5996 26.25C29.9288 26.2205 30.2564 26.3213 30.5121 26.5308C30.7677 26.7402 30.9311 27.0415 30.9671 27.37L31.7171 34.995H34.4671L35.5996 23.625C35.6307 23.3156 35.776 23.0289 36.0071 22.8209C36.2383 22.6128 36.5387 22.4984 36.8496 22.5H37.9296L36.9721 15.035L36.0996 15L33.9771 17.1225C33.7427 17.3568 33.4248 17.4885 33.0934 17.4885C32.7619 17.4885 32.444 17.3568 32.2096 17.1225L29.7096 14.6225C29.4819 14.3867 29.3559 14.071 29.3588 13.7432C29.3616 13.4155 29.4931 13.102 29.7248 12.8702C29.9566 12.6385 30.2701 12.507 30.5979 12.5042C30.9256 12.5013 31.2414 12.6273 31.4771 12.855L33.0996 14.4825L34.7146 12.8675C34.8307 12.751 34.9686 12.6586 35.1205 12.5956C35.2724 12.5325 35.4352 12.5 35.5996 12.5H36.9696C37.5889 12.5006 38.186 12.7311 38.6451 13.1468C39.1042 13.5625 39.3927 14.1338 39.4546 14.75L40.5996 23.5925C40.6221 23.7694 40.6065 23.949 40.5538 24.1193C40.5011 24.2897 40.4126 24.4468 40.2942 24.5801C40.1758 24.7134 40.0303 24.8198 39.8673 24.8923C39.7044 24.9647 39.5279 25.0014 39.3496 25H37.9796L36.9546 35.25C36.8927 35.8662 36.6042 36.4375 36.1451 36.8532C35.686 37.2689 35.0889 37.4994 34.4696 37.5Z" fill="black"/>
<path d="M8.09961 10C7.11071 10 6.14401 9.70676 5.32176 9.15735C4.49951 8.60794 3.85865 7.82705 3.48021 6.91342C3.10178 5.99979 3.00276 4.99446 3.19569 4.02455C3.38861 3.05465 3.86482 2.16373 4.56408 1.46447C5.26334 0.765206 6.15425 0.289002 7.12416 0.0960758C8.09407 -0.0968503 9.0994 0.00216641 10.013 0.380605C10.9267 0.759043 11.7076 1.39991 12.257 2.22215C12.8064 3.0444 13.0996 4.0111 13.0996 5C13.0996 6.32608 12.5728 7.59785 11.6351 8.53554C10.6975 9.47322 9.42569 10 8.09961 10V10ZM8.09961 2.5C7.60516 2.5 7.12181 2.64662 6.71069 2.92133C6.29956 3.19603 5.97913 3.58648 5.78991 4.04329C5.60069 4.50011 5.55118 5.00278 5.64765 5.48773C5.74411 5.97268 5.98221 6.41814 6.33184 6.76777C6.68148 7.1174 7.12693 7.3555 7.61189 7.45197C8.09684 7.54843 8.59951 7.49892 9.05632 7.3097C9.51314 7.12048 9.90358 6.80005 10.1783 6.38893C10.453 5.9778 10.5996 5.49446 10.5996 5C10.5996 4.33696 10.3362 3.70108 9.86738 3.23224C9.39854 2.76339 8.76265 2.5 8.09961 2.5Z" fill="black"/>
<path d="M9.46962 37.5H6.71962C6.10028 37.4994 5.50322 37.2689 5.04412 36.8532C4.58501 36.4375 4.29655 35.8662 4.23462 35.25L3.21962 25H1.84962C1.67213 24.9998 1.49674 24.9618 1.33509 24.8885C1.17344 24.8152 1.02925 24.7083 0.912116 24.575C0.793152 24.4429 0.703741 24.2869 0.649852 24.1175C0.595964 23.948 0.578837 23.7691 0.599616 23.5925L1.73712 14.7175C1.80292 14.1043 2.0946 13.5376 2.55535 13.1277C3.01611 12.7177 3.61294 12.494 4.22962 12.5H5.59962C5.76388 12.4997 5.92659 12.5318 6.07844 12.5944C6.2303 12.657 6.36832 12.749 6.48462 12.865L8.09962 14.4825L9.71462 12.8675C9.95037 12.6398 10.2661 12.5138 10.5939 12.5167C10.9216 12.5195 11.2351 12.651 11.4669 12.8827C11.6986 13.1145 11.8301 13.428 11.833 13.7557C11.8358 14.0835 11.7098 14.3992 11.4821 14.635L8.98212 17.135C8.74771 17.3693 8.42982 17.501 8.09837 17.501C7.76691 17.501 7.44902 17.3693 7.21462 17.135L5.08212 15H4.22962L3.26962 22.5H4.34962C4.66057 22.4984 4.96095 22.6128 5.19209 22.8209C5.42322 23.0289 5.56852 23.3156 5.59962 23.625L6.72962 35H9.47962L10.2296 27.375C10.2391 27.2064 10.2825 27.0415 10.3574 26.8903C10.4323 26.739 10.5371 26.6044 10.6654 26.4947C10.7938 26.385 10.943 26.3025 11.1041 26.252C11.2652 26.2016 11.4348 26.1843 11.6028 26.2012C11.7708 26.2181 11.9336 26.2688 12.0814 26.3503C12.2292 26.4319 12.359 26.5425 12.4629 26.6756C12.5668 26.8086 12.6426 26.9613 12.6859 27.1245C12.7292 27.2877 12.7389 27.4579 12.7146 27.625L11.9646 35.25C11.9025 35.8679 11.6126 36.4406 11.1514 36.8566C10.6902 37.2725 10.0907 37.5019 9.46962 37.5Z" fill="black"/>
<path d="M20.5996 10C19.6107 10 18.644 9.70676 17.8218 9.15735C16.9995 8.60794 16.3587 7.82705 15.9802 6.91342C15.6018 5.99979 15.5028 4.99446 15.6957 4.02455C15.8886 3.05465 16.3648 2.16373 17.0641 1.46447C17.7633 0.765206 18.6543 0.289002 19.6242 0.0960758C20.5941 -0.0968503 21.5994 0.00216641 22.513 0.380605C23.4267 0.759043 24.2076 1.39991 24.757 2.22215C25.3064 3.0444 25.5996 4.0111 25.5996 5C25.5996 6.32608 25.0728 7.59785 24.1351 8.53554C23.1975 9.47322 21.9257 10 20.5996 10ZM20.5996 2.5C20.1052 2.5 19.6218 2.64662 19.2107 2.92133C18.7996 3.19603 18.4791 3.58648 18.2899 4.04329C18.1007 4.50011 18.0512 5.00278 18.1476 5.48773C18.2441 5.97268 18.4822 6.41814 18.8318 6.76777C19.1815 7.1174 19.6269 7.3555 20.1119 7.45197C20.5968 7.54843 21.0995 7.49892 21.5563 7.3097C22.0131 7.12048 22.4036 6.80005 22.6783 6.38893C22.953 5.9778 23.0996 5.49446 23.0996 5C23.0996 4.33696 22.8362 3.70108 22.3674 3.23224C21.8985 2.76339 21.2627 2.5 20.5996 2.5V2.5Z" fill="black"/>
<path d="M21.9696 40H19.2196C18.6003 39.9994 18.0032 39.7689 17.5441 39.3532C17.085 38.9375 16.7965 38.3662 16.7346 37.75L15.6971 25H14.3496C14.1713 25.0014 13.9948 24.9647 13.8319 24.8923C13.669 24.8198 13.5234 24.7134 13.405 24.5801C13.2866 24.4468 13.1981 24.2897 13.1454 24.1193C13.0928 23.949 13.0771 23.7694 13.0996 23.5925L14.2371 14.7175C14.3029 14.1043 14.5946 13.5376 15.0553 13.1277C15.5161 12.7177 16.1129 12.494 16.7296 12.5H18.0996C18.2639 12.4997 18.4266 12.5318 18.5784 12.5944C18.7303 12.657 18.8683 12.749 18.9846 12.865L20.5996 14.4825L22.2146 12.8675C22.3307 12.751 22.4686 12.6586 22.6205 12.5956C22.7724 12.5325 22.9352 12.5 23.0996 12.5H24.4696C25.0889 12.5006 25.686 12.7311 26.1451 13.1468C26.6042 13.5625 26.8927 14.1338 26.9546 14.75L28.0996 23.5925C28.1221 23.7694 28.1065 23.949 28.0538 24.1193C28.0011 24.2897 27.9126 24.4468 27.7942 24.5801C27.6758 24.7134 27.5303 24.8198 27.3674 24.8923C27.2044 24.9647 27.0279 25.0014 26.8496 25H25.5021L24.4571 37.7275C24.4004 38.3482 24.1139 38.9253 23.6537 39.3457C23.1935 39.7661 22.5929 39.9995 21.9696 40ZM15.7696 22.5H16.8496C17.1641 22.4989 17.4675 22.6165 17.6991 22.8292C17.9308 23.0418 18.0738 23.3341 18.0996 23.6475L19.2371 37.5225L21.9696 37.5L23.0996 23.6475C23.1254 23.3341 23.2684 23.0418 23.5001 22.8292C23.7318 22.6165 24.0351 22.4989 24.3496 22.5H25.4296L24.4721 15.035L23.5996 15L21.4771 17.1225C21.2427 17.3568 20.9248 17.4885 20.5934 17.4885C20.2619 17.4885 19.944 17.3568 19.7096 17.1225L17.5821 15H16.7296L15.7696 22.5Z" fill="black"/>
</g>
<defs>
<clipPath id="clip0_56_51">
<rect width="40" height="40" fill="white" transform="translate(0.599609)"/>
</clipPath>
</defs>
</svg>
