<svg width="24" height="14" viewBox="0 0 24 14" fill="none" xmlns="http://www.w3.org/2000/svg">
<path d="M14.8367 3.5092C15.5905 2.93981 16.5101 2.63326 17.4548 2.63648C19.8647 2.63648 21.8182 4.59008 21.8182 6.99995C21.8182 9.40981 19.8647 11.3634 17.4548 11.3634C16.5101 11.3667 15.5905 11.0601 14.8367 10.4907C14.3544 10.1296 13.6708 10.2278 13.3097 10.71C12.9489 11.1917 13.0465 11.8746 13.5276 12.2361C14.6583 13.0901 16.0378 13.5499 17.4548 13.5451C21.0696 13.5451 24 10.6147 24 6.99989C24 3.38509 21.0696 0.454675 17.4548 0.454675C16.0378 0.449919 14.6583 0.909721 13.5276 1.76372C13.0456 2.12519 12.948 2.80896 13.3094 3.29095C13.671 3.773 14.3547 3.87072 14.8367 3.5092V3.5092Z" fill="white"/>
<path d="M0.321587 7.77234L4.68505 12.1358C5.10359 12.5692 5.79421 12.5812 6.22752 12.1626C6.66089 11.7441 6.67291 11.0535 6.25437 10.6202C6.24557 10.6111 6.23663 10.6021 6.22752 10.5933L3.72505 8.09085H17.4548C18.0572 8.09085 18.5456 7.60247 18.5456 7C18.5456 6.39753 18.0572 5.90915 17.4548 5.90915H3.7251L6.22645 3.4078C6.65982 2.98926 6.67183 2.29869 6.2533 1.86532C5.83476 1.43196 5.14419 1.41994 4.71082 1.83848C4.70172 1.84727 4.69277 1.85622 4.68398 1.86532L0.320462 6.22874C-0.106102 6.65423 -0.106971 7.3449 0.318519 7.77147L0.320462 7.77341L0.321587 7.77234Z" fill="white"/>
</svg>
