<svg width="40" height="40" viewBox="0 0 40 40" fill="none" xmlns="http://www.w3.org/2000/svg">
<path d="M35 37.5H5C4.33696 37.5 3.70107 37.2366 3.23223 36.7678C2.76339 36.2989 2.5 35.663 2.5 35V32.6225C2.50377 30.8898 3.10601 29.2115 4.20481 27.8717C5.30361 26.5319 6.83151 25.6129 8.53 25.27L14 24.175C14.2823 24.1174 14.5361 23.964 14.7183 23.7407C14.9006 23.5175 15.0001 23.2382 15 22.95V21.7C14.6055 21.1049 14.2537 20.4825 13.9475 19.8375C13.7022 19.3093 13.4146 18.8018 13.0875 18.32C11.8617 17.2704 10.9794 15.8769 10.555 14.32C10.2808 13.3382 10.3936 12.2887 10.87 11.3875L10.9025 10.5C10.784 8.98443 10.9012 7.45964 11.25 5.98C11.9814 4.2586 13.1887 2.78157 14.7302 1.72233C16.2716 0.663089 18.0833 0.065597 19.9525 0C21.4319 0.0078225 22.8853 0.389661 24.1775 1.11C24.4519 1.20675 24.7361 1.27298 25.025 1.3075C25.8851 1.36408 26.7016 1.70636 27.345 2.28C27.8165 2.83241 28.1739 3.47272 28.3966 4.16398C28.6193 4.85524 28.7028 5.58376 28.6425 6.3075C28.9796 7.97624 29.1222 9.67843 29.0675 11.38C29.3248 11.8187 29.4897 12.3053 29.552 12.81C29.6144 13.3148 29.5729 13.8269 29.43 14.315C29.0045 15.872 28.1214 17.2655 26.895 18.315C26.5722 18.7916 26.288 19.2932 26.045 19.815C25.7426 20.4661 25.3934 21.0945 25 21.695V22.945C24.9999 23.2332 25.0994 23.5125 25.2817 23.7357C25.4639 23.959 25.7177 24.1124 26 24.17L31.4675 25.265C33.1673 25.6075 34.6964 26.5271 35.7958 27.868C36.8952 29.2089 37.4973 30.8885 37.5 32.6225V35C37.5 35.663 37.2366 36.2989 36.7678 36.7678C36.2989 37.2366 35.663 37.5 35 37.5ZM19.9675 2.5C18.6087 2.55909 17.2932 2.99518 16.1682 3.75946C15.0432 4.52375 14.1531 5.58607 13.5975 6.8275C13.3839 8.02408 13.3184 9.24241 13.4025 10.455L13.415 11.3825C13.4049 11.7813 13.2958 12.1714 13.0975 12.5175C12.9911 12.7144 12.9277 12.9316 12.9113 13.1548C12.8949 13.378 12.926 13.6022 13.0025 13.8125C13.3383 14.8769 13.9747 15.8215 14.835 16.5325C15.382 17.1874 15.8324 17.9174 16.1725 18.7C16.4403 19.2804 16.7591 19.8359 17.125 20.36C17.2434 20.4761 17.3375 20.6145 17.4019 20.7673C17.4663 20.9201 17.4996 21.0842 17.5 21.25V22.95C17.5001 23.817 17.1997 24.6573 16.65 25.3278C16.1003 25.9983 15.3352 26.4576 14.485 26.6275L9.02 27.7225C7.88695 27.949 6.86731 28.5609 6.13443 29.4542C5.40156 30.3475 5.0007 31.467 5 32.6225V35H35V32.6225C34.9999 31.4666 34.5993 30.3465 33.8664 29.4526C33.1334 28.5588 32.1135 27.9466 30.98 27.72L25.5125 26.6275C24.6628 26.4571 23.8983 25.9975 23.3491 25.3271C22.7999 24.6567 22.4998 23.8167 22.5 22.95V21.25C22.5 21.0838 22.5332 20.9192 22.5976 20.766C22.662 20.6127 22.7563 20.4739 22.875 20.3575C23.2382 19.8352 23.5537 19.2813 23.8175 18.7025C24.1536 17.9173 24.6025 17.1855 25.15 16.53C26.0089 15.8187 26.645 14.8754 26.9825 13.8125C27.0592 13.6018 27.0904 13.3772 27.074 13.1536C27.0576 12.9299 26.9941 12.7123 26.8875 12.515C26.6892 12.1689 26.5801 11.7788 26.57 11.38C26.6232 9.85649 26.4981 8.33199 26.1975 6.8375C26.1657 6.72862 26.1489 6.61592 26.1475 6.5025C26.125 4.785 25.845 4.34 25.51 3.9725C25.2179 3.87722 24.9174 3.81025 24.6125 3.7725C24.0424 3.70652 23.4873 3.54598 22.97 3.2975C22.0544 2.77784 21.0203 2.50316 19.9675 2.5V2.5Z" fill="black"/>
</svg>
