<svg width="40" height="40" viewBox="0 0 40 40" fill="none" xmlns="http://www.w3.org/2000/svg">
<g clip-path="url(#clip0_56_285)">
<path d="M33.775 33.925C33.4928 33.9253 33.2188 33.8302 32.9975 33.655C32.4012 33.1932 31.7066 32.875 30.9675 32.725L25.5 31.625C24.653 31.4521 23.8917 30.9919 23.345 30.3222C22.7983 29.6525 22.4998 28.8145 22.5 27.95V26.25C22.4997 26.0857 22.5318 25.923 22.5944 25.7712C22.657 25.6193 22.749 25.4813 22.865 25.365C23.2265 24.8469 23.5402 24.2972 23.8025 23.7225C24.1436 22.9273 24.6002 22.1868 25.1575 21.525C26.0016 20.8106 26.6308 19.8759 26.975 18.825C27.0502 18.6093 27.0806 18.3805 27.0642 18.1527C27.0479 17.9249 26.9852 17.7028 26.88 17.5C26.6897 17.1575 26.5851 16.7741 26.575 16.3825C26.6201 14.8632 26.4943 13.3437 26.2 11.8525C26.1689 11.746 26.1521 11.6359 26.15 11.525C26.1275 9.775 25.86 9.36 25.51 8.985C25.2166 8.88386 24.9132 8.81429 24.605 8.7775C24.0396 8.71134 23.4889 8.55255 22.975 8.3075C22.0589 7.79012 21.027 7.51237 19.975 7.5C18.6134 7.5506 17.2935 7.98293 16.1658 8.74767C15.0382 9.51241 14.1482 10.5787 13.5975 11.825C13.3833 13.0072 13.3194 14.2118 13.4075 15.41L13.425 16.375C13.4114 16.7708 13.3006 17.1571 13.1025 17.5C12.9936 17.6986 12.9279 17.918 12.9098 18.1438C12.8917 18.3695 12.9216 18.5966 12.9975 18.81C13.3455 19.8691 13.9808 20.8107 14.8325 21.53C15.3833 22.1869 15.837 22.9194 16.18 23.705C16.4478 24.2823 16.7665 24.8344 17.1325 25.355C17.2502 25.4723 17.3433 25.6118 17.4064 25.7655C17.4695 25.9192 17.5013 26.0839 17.5 26.25V27.95C17.5008 28.8149 17.2025 29.6535 16.6558 30.3237C16.109 30.9939 15.3474 31.4545 14.5 31.6275L9.03 32.725C8.29448 32.8753 7.60335 33.1926 7.01 33.6525C6.74929 33.8445 6.42422 33.9279 6.10326 33.8851C5.7823 33.8422 5.49049 33.6765 5.28928 33.4228C5.08807 33.1691 4.99315 32.8472 5.02453 32.5249C5.05591 32.2027 5.21113 31.9051 5.4575 31.695C6.35718 30.9926 7.40697 30.5074 8.525 30.2775L14.025 29.175C14.3073 29.1174 14.5611 28.964 14.7433 28.7407C14.9256 28.5175 15.0251 28.2382 15.025 27.95V26.7C14.6357 26.1131 14.2873 25.4999 13.9825 24.865C13.7317 24.3306 13.4383 23.8173 13.105 23.33C11.8746 22.2782 10.9852 20.884 10.55 19.325C10.2769 18.335 10.395 17.2778 10.88 16.3725L10.9125 15.47C10.7848 13.9613 10.9005 12.442 11.255 10.97C11.9912 9.25481 13.1986 7.78352 14.7371 6.72683C16.2757 5.67014 18.0824 5.07137 19.9475 5C21.4241 5.00722 22.8752 5.38547 24.1675 6.1C24.4435 6.19802 24.7294 6.26591 25.02 6.3025C25.8814 6.35885 26.699 6.70211 27.3425 7.2775C27.8173 7.83195 28.1771 8.47539 28.4007 9.17029C28.6243 9.8652 28.7074 10.5977 28.645 11.325C28.9817 12.9862 29.126 14.6807 29.075 16.375C29.3264 16.8188 29.487 17.3082 29.5475 17.8146C29.608 18.321 29.5672 18.8345 29.4275 19.325C28.9987 20.8708 28.124 22.256 26.9125 23.3075C26.5756 23.7951 26.282 24.3112 26.035 24.85C25.7333 25.4867 25.3875 26.1016 25 26.69V27.94C25.0005 28.2277 25.1003 28.5065 25.2825 28.7292C25.4646 28.9519 25.7181 29.105 26 29.1625L31.48 30.2625C32.6016 30.4922 33.6549 30.9782 34.5575 31.6825C34.7611 31.8437 34.9094 32.0643 34.9819 32.3137C35.0544 32.5631 35.0474 32.8288 34.9619 33.074C34.8764 33.3192 34.7166 33.5317 34.5048 33.682C34.293 33.8323 34.0397 33.9128 33.78 33.9125L33.775 33.925Z" fill="black"/>
<path d="M20 40C16.0444 40 12.1776 38.827 8.8886 36.6294C5.59962 34.4318 3.03617 31.3082 1.52242 27.6537C0.00866562 23.9992 -0.387401 19.9778 0.384303 16.0982C1.15601 12.2186 3.06082 8.65492 5.85787 5.85787C8.65492 3.06082 12.2186 1.15601 16.0982 0.384303C19.9778 -0.387401 23.9992 0.00866562 27.6537 1.52242C31.3082 3.03617 34.4318 5.59962 36.6294 8.8886C38.827 12.1776 40 16.0444 40 20C39.9941 25.3025 37.885 30.3861 34.1356 34.1356C30.3861 37.885 25.3025 39.9941 20 40ZM20 2.50001C16.5388 2.50001 13.1554 3.52637 10.2775 5.44929C7.39967 7.37222 5.15665 10.1053 3.83212 13.303C2.50758 16.5008 2.16103 20.0194 2.83627 23.4141C3.51151 26.8088 5.17822 29.927 7.62564 32.3744C10.0731 34.8218 13.1913 36.4885 16.5859 37.1638C19.9806 37.839 23.4993 37.4924 26.697 36.1679C29.8947 34.8434 32.6278 32.6003 34.5507 29.7225C36.4737 26.8446 37.5 23.4612 37.5 20C37.4947 15.3603 35.6493 10.9122 32.3685 7.63149C29.0878 4.35075 24.6397 2.5053 20 2.50001V2.50001Z" fill="black"/>
</g>
<defs>
<clipPath id="clip0_56_285">
<rect width="40" height="40" fill="white"/>
</clipPath>
</defs>
</svg>
