<svg width="40" height="40" viewBox="0 0 40 40" fill="none" xmlns="http://www.w3.org/2000/svg">
<g clip-path="url(#clip0_56_301)">
<path d="M38.75 32.5H31C30.6685 32.5 30.3505 32.3683 30.1161 32.1339C29.8817 31.8995 29.75 31.5815 29.75 31.25C29.75 30.9185 29.8817 30.6005 30.1161 30.3661C30.3505 30.1317 30.6685 30 31 30H37.5V28.25C37.5024 27.6781 37.3086 27.1227 36.951 26.6764C36.5934 26.2301 36.0936 25.9199 35.535 25.7975L29.0625 24.3975C28.7829 24.3374 28.5323 24.1833 28.3526 23.9608C28.1729 23.7384 28.0749 23.461 28.075 23.175V20.125C28.0747 19.9607 28.1068 19.798 28.1694 19.6462C28.232 19.4943 28.324 19.3563 28.44 19.24C28.7179 18.8235 28.962 18.3854 29.17 17.93C29.4533 17.2657 29.8314 16.6459 30.2925 16.09C30.9696 15.5292 31.4756 14.7894 31.7525 13.955C31.8054 13.8126 31.8268 13.6603 31.8151 13.5088C31.8035 13.3573 31.7591 13.2102 31.685 13.0775C31.5044 12.7646 31.4056 12.4112 31.3975 12.05C31.4464 10.82 31.3465 9.58855 31.1 8.3825C31.0673 8.27374 31.0497 8.16103 31.0475 8.0475C31.025 6.615 30.775 6.355 30.595 6.165C30.3872 6.10749 30.1759 6.06323 29.9625 6.0325C29.4754 5.97411 29.002 5.83291 28.5625 5.615C27.8442 5.22027 27.0395 5.00901 26.22 5C24.7505 5.09575 23.3644 5.7169 22.315 6.75C22.202 6.87484 22.0649 6.97555 21.9119 7.04608C21.759 7.11662 21.5934 7.15553 21.4251 7.16048C21.2568 7.16543 21.0892 7.13632 20.9324 7.07489C20.7756 7.01346 20.6328 6.92098 20.5127 6.803C20.3925 6.68502 20.2974 6.54398 20.2331 6.38834C20.1688 6.2327 20.1366 6.06567 20.1384 5.89728C20.1403 5.72888 20.1762 5.5626 20.2439 5.40841C20.3116 5.25422 20.4097 5.11531 20.5325 5C22.0467 3.49634 24.0636 2.60588 26.195 2.5C27.4439 2.50658 28.6715 2.82359 29.7675 3.4225C29.9698 3.49032 30.1783 3.53805 30.39 3.565C31.1633 3.61575 31.893 3.94115 32.4475 4.4825C32.8422 4.94209 33.1425 5.47493 33.3312 6.05058C33.5199 6.62624 33.5934 7.23344 33.5475 7.8375C33.8335 9.22244 33.9519 10.6368 33.9 12.05C34.1216 12.4088 34.2631 12.8112 34.3148 13.2297C34.3666 13.6483 34.3274 14.073 34.2 14.475C33.8315 15.7956 33.082 16.9782 32.045 17.875C31.8079 18.2528 31.595 18.6453 31.4075 19.05C31.1627 19.5675 30.8846 20.0685 30.575 20.55V22.16L36.075 23.3475C37.1933 23.5885 38.1944 24.2077 38.9094 25.1007C39.6244 25.9938 40.0095 27.106 40 28.25V31.25C40 31.5815 39.8683 31.8995 39.6339 32.1339C39.3994 32.3683 39.0815 32.5 38.75 32.5Z" fill="black"/>
<path d="M26.25 37.5H1.25C0.918479 37.5 0.600537 37.3683 0.366117 37.1339C0.131696 36.8995 0 36.5815 0 36.25V33.25C0.00521382 32.1093 0.398008 31.0042 1.11393 30.1161C1.82985 29.228 2.82638 28.6097 3.94 28.3625L9.44 27.17V25.55C9.13106 25.0724 8.85299 24.5756 8.6075 24.0625C8.41258 23.6489 8.18869 23.2496 7.9375 22.8675C6.90329 21.979 6.16099 20.7993 5.8075 19.4825C5.57091 18.6283 5.6702 17.7159 6.085 16.9325V16.3275C5.97628 15.0585 6.07422 13.7802 6.375 12.5425C6.99005 11.0919 8.00621 9.84695 9.30415 8.95376C10.6021 8.06057 12.1279 7.55624 13.7025 7.5C14.9552 7.50434 16.1862 7.82694 17.28 8.4375C17.4825 8.50005 17.6899 8.54522 17.9 8.5725C18.6543 8.62269 19.3692 8.9277 19.9275 9.4375C20.7337 10.3852 21.1358 11.6114 21.0475 12.8525C21.3242 14.2286 21.4416 15.632 21.3975 17.035C21.618 17.3985 21.7582 17.8049 21.8087 18.2271C21.8591 18.6492 21.8187 19.0773 21.69 19.4825C21.3347 20.8018 20.5897 21.9832 19.5525 22.8725C19.3094 23.2498 19.0922 23.6432 18.9025 24.05C18.6581 24.5677 18.38 25.0688 18.07 25.55V27.1725L23.57 28.365C24.6814 28.6141 25.6753 29.2329 26.3892 30.1203C27.1031 31.0077 27.4947 32.1111 27.5 33.25V36.25C27.5 36.5815 27.3683 36.8995 27.1339 37.1339C26.8995 37.3683 26.5815 37.5 26.25 37.5ZM2.5 35H25V33.25C24.9971 32.6799 24.8006 32.1276 24.4426 31.6838C24.0847 31.24 23.5866 30.931 23.03 30.8075L16.555 29.4025C16.2758 29.3419 16.0259 29.1876 15.8466 28.9652C15.6674 28.7427 15.5698 28.4656 15.57 28.18V25.1125C15.57 24.9469 15.603 24.7829 15.6669 24.6301C15.7309 24.4773 15.8245 24.3388 15.9425 24.2225C16.2189 23.8108 16.4622 23.3778 16.67 22.9275C16.9557 22.2632 17.3382 21.6448 17.805 21.0925C18.4778 20.5422 18.9792 19.8109 19.25 18.985C19.3675 18.415 19.2975 18.2775 19.1925 18.0725C19.0124 17.7577 18.9144 17.4026 18.9075 17.04C18.9499 15.8159 18.85 14.5911 18.61 13.39C18.5782 13.2811 18.5614 13.1684 18.56 13.055C18.5425 11.62 18.2975 11.3525 18.0975 11.1375C18.0475 11.1375 17.7225 11.0825 17.49 11.0425C16.9981 10.9857 16.5196 10.8454 16.075 10.6275C15.3565 10.2184 14.5443 10.0022 13.7175 10C12.6516 10.0456 11.6195 10.3868 10.7365 10.9855C9.85344 11.5842 9.15439 12.4167 8.7175 13.39C8.55365 14.3432 8.50413 15.3126 8.57 16.2775V17.0275C8.56287 17.3901 8.46488 17.7451 8.285 18.06C8.18 18.2675 8.11 18.4025 8.2275 18.97C8.49491 19.7957 8.9928 20.5278 9.6625 21.08C10.1304 21.633 10.5153 22.2511 10.805 22.915C11.0155 23.3667 11.2621 23.8006 11.5425 24.2125C11.7704 24.453 11.902 24.7688 11.9125 25.1V28.1675C11.9127 28.4531 11.8151 28.7302 11.6359 28.9527C11.4566 29.1751 11.2067 29.3294 10.9275 29.39L4.4525 30.795C3.89705 30.9225 3.40135 31.2348 3.04662 31.6808C2.69189 32.1268 2.49916 32.6801 2.5 33.25V35Z" fill="black"/>
</g>
<defs>
<clipPath id="clip0_56_301">
<rect width="40" height="40" fill="white"/>
</clipPath>
</defs>
</svg>
