<svg width="40" height="40" viewBox="0 0 40 40" fill="none" xmlns="http://www.w3.org/2000/svg">
<path d="M38.75 32.5H31C30.6685 32.5 30.3506 32.3683 30.1161 32.1339C29.8817 31.8995 29.75 31.5815 29.75 31.25C29.75 30.9185 29.8817 30.6005 30.1161 30.3661C30.3506 30.1317 30.6685 30 31 30H37.5V28.625C37.4984 28.0601 37.3055 27.5123 36.9528 27.071C36.6 26.6298 36.1082 26.321 35.5575 26.195L29.105 24.77C28.8272 24.7085 28.5787 24.5541 28.4005 24.3323C28.2223 24.1105 28.1251 23.8345 28.125 23.55V19.7C28.1241 19.3847 28.2423 19.0807 28.456 18.8489C28.6697 18.6171 28.9632 18.4746 29.2775 18.45C30.6394 18.393 31.9901 18.1782 33.3025 17.81C32.847 14.6495 32.1525 11.528 31.225 8.4725C31.1929 8.36448 31.1752 8.25267 31.1725 8.14C31.15 6.655 30.91 6.39 30.6725 6.14C30.6325 6.14 30.29 6.09 30.0575 6.05C29.5615 5.9932 29.0783 5.85466 28.6275 5.64C27.8927 5.22482 27.064 5.0045 26.22 5C24.7436 5.08569 23.3495 5.70808 22.3 6.75C22.1851 6.86819 22.048 6.96259 21.8967 7.02781C21.7453 7.09303 21.5825 7.12779 21.4177 7.13011C21.2529 7.13244 21.0892 7.10227 20.936 7.04134C20.7829 6.98041 20.6432 6.88991 20.525 6.775C20.4068 6.66009 20.3124 6.52303 20.2472 6.37164C20.182 6.22025 20.1472 6.0575 20.1449 5.89268C20.1426 5.72785 20.1727 5.56419 20.2337 5.41102C20.2946 5.25785 20.3851 5.11819 20.5 5C22.0191 3.48255 24.0523 2.59041 26.1975 2.5C27.4685 2.50638 28.7172 2.83403 29.8275 3.4525C30.038 3.51781 30.2539 3.56465 30.4725 3.5925C31.2237 3.64204 31.937 3.94021 32.5 4.44C32.916 4.91737 33.2332 5.47251 33.4331 6.07329C33.6331 6.67407 33.7119 7.30855 33.665 7.94C34.7105 11.3259 35.4337 14.803 35.825 18.325C35.825 19.72 34.345 20.455 30.625 20.8425V22.5475L36.095 23.755C37.2005 24.0059 38.1884 24.624 38.8976 25.5084C39.6068 26.3928 39.9954 27.4914 40 28.625V31.25C40 31.5815 39.8683 31.8995 39.6339 32.1339C39.3995 32.3683 39.0815 32.5 38.75 32.5Z" fill="black"/>
<path d="M26.25 37.5H1.25C0.918479 37.5 0.600537 37.3683 0.366117 37.1339C0.131696 36.8995 0 36.5815 0 36.25V33.25C0.00508616 32.1096 0.397523 31.0048 1.11295 30.1168C1.82838 29.2288 2.82434 28.6102 3.9375 28.3625L9.4375 27.17V25.55C9.12656 25.0689 8.84763 24.5678 8.6025 24.05C8.40683 23.6371 8.18209 23.2386 7.93 22.8575C6.89701 21.9694 6.15562 20.7907 5.8025 19.475C5.56565 18.6208 5.66495 17.7083 6.08 16.925V16.3275C5.97218 15.0583 6.07096 13.78 6.3725 12.5425C6.98824 11.0919 8.0049 9.84701 9.30322 8.95387C10.6015 8.06072 12.1276 7.55637 13.7025 7.5C14.9552 7.50402 16.1863 7.82663 17.28 8.4375C17.4825 8.49994 17.6899 8.5451 17.9 8.5725C18.6551 8.62272 19.3708 8.92768 19.93 9.4375C20.7374 10.3865 21.1397 11.6147 21.05 12.8575C21.3262 14.2337 21.4436 15.637 21.4 17.04C21.6198 17.4038 21.7594 17.8103 21.8094 18.2324C21.8594 18.6545 21.8187 19.0824 21.69 19.4875C21.3356 20.8066 20.5915 21.9881 19.555 22.8775C19.3123 23.2542 19.0951 23.6467 18.905 24.0525C18.6597 24.5702 18.3807 25.0712 18.07 25.5525V27.175L23.57 28.3675C24.6809 28.6165 25.6746 29.2349 26.3884 30.1218C27.1023 31.0087 27.4942 32.1115 27.5 33.25V36.25C27.5 36.5815 27.3683 36.8995 27.1339 37.1339C26.8995 37.3683 26.5815 37.5 26.25 37.5ZM2.5 35H25V33.25C24.9998 32.6791 24.8043 32.1255 24.4459 31.6812C24.0876 31.2368 23.5879 30.9285 23.03 30.8075L16.5525 29.4025C16.2733 29.3419 16.0234 29.1876 15.8441 28.9652C15.6649 28.7427 15.5673 28.4656 15.5675 28.18V25.1125C15.5672 24.9465 15.6 24.782 15.6639 24.6288C15.7279 24.4755 15.8217 24.3366 15.94 24.22C16.2183 23.809 16.4625 23.3759 16.67 22.925C16.9553 22.261 17.3369 21.6427 17.8025 21.09C18.4763 20.5412 18.9787 19.8106 19.25 18.985C19.37 18.415 19.3 18.2775 19.195 18.0725C19.0145 17.7578 18.9165 17.4027 18.91 17.04C18.9526 15.816 18.8536 14.5912 18.615 13.39C18.583 13.2811 18.5654 13.1685 18.5625 13.055C18.5425 11.62 18.3 11.3525 18.1 11.1375C18.055 11.1375 17.72 11.08 17.4975 11.0425C17.0056 10.9858 16.5271 10.8454 16.0825 10.6275C15.3617 10.2174 14.5468 10.0012 13.7175 10C12.6514 10.0458 11.619 10.3874 10.736 10.9866C9.85293 11.5857 9.15403 12.4188 8.7175 13.3925C8.55188 14.3447 8.50235 15.3134 8.57 16.2775V17.0275C8.56352 17.3902 8.46548 17.7453 8.285 18.06C8.18 18.2675 8.11 18.4025 8.2275 18.97C8.50017 19.7938 8.99815 20.5247 9.665 21.08C10.1318 21.6324 10.5158 22.2497 10.805 22.9125C11.016 23.3647 11.2626 23.7994 11.5425 24.2125C11.7712 24.4525 11.903 24.7686 11.9125 25.1V28.1675C11.9127 28.4531 11.8151 28.7302 11.6359 28.9527C11.4566 29.1751 11.2067 29.3294 10.9275 29.39L4.45 30.795C3.89371 30.9204 3.39702 31.2323 3.04234 31.6788C2.68766 32.1254 2.4963 32.6798 2.5 33.25V35Z" fill="black"/>
</svg>
