<svg width="40" height="40" viewBox="0 0 40 40" fill="none" xmlns="http://www.w3.org/2000/svg">
<g clip-path="url(#clip0_56_309)">
<path d="M32.5 10C31.5111 10 30.5444 9.70676 29.7222 9.15735C28.8999 8.60794 28.259 7.82705 27.8806 6.91342C27.5022 5.99979 27.4031 4.99446 27.5961 4.02455C27.789 3.05465 28.2652 2.16373 28.9645 1.46447C29.6637 0.765206 30.5546 0.289002 31.5246 0.0960758C32.4945 -0.0968503 33.4998 0.00216641 34.4134 0.380605C35.327 0.759043 36.1079 1.39991 36.6574 2.22215C37.2068 3.0444 37.5 4.0111 37.5 5C37.5 6.32608 36.9732 7.59785 36.0355 8.53554C35.0979 9.47322 33.8261 10 32.5 10ZM32.5 2.5C32.0055 2.5 31.5222 2.64662 31.1111 2.92133C30.7 3.19603 30.3795 3.58648 30.1903 4.04329C30.0011 4.50011 29.9516 5.00278 30.048 5.48773C30.1445 5.97268 30.3826 6.41814 30.7322 6.76777C31.0819 7.1174 31.5273 7.3555 32.0123 7.45197C32.4972 7.54843 32.9999 7.49892 33.4567 7.3097C33.9135 7.12048 34.304 6.80005 34.5787 6.38893C34.8534 5.9778 35 5.49446 35 5C35 4.33696 34.7366 3.70108 34.2678 3.23224C33.7989 2.76339 33.163 2.5 32.5 2.5Z" fill="black"/>
<path d="M33.875 37.5H31.125C30.5054 37.5035 29.9066 37.2768 29.4447 36.8638C28.9828 36.4509 28.6907 35.8811 28.625 35.265L27.975 30.1575C27.953 29.994 27.9635 29.8278 28.006 29.6684C28.0485 29.509 28.1221 29.3596 28.2226 29.2288C28.3232 29.098 28.4486 28.9883 28.5917 28.9062C28.7347 28.8241 28.8926 28.7712 29.0563 28.7504C29.22 28.7296 29.3861 28.7414 29.5452 28.7851C29.7042 28.8289 29.8531 28.9036 29.9831 29.0052C30.1131 29.1067 30.2218 29.233 30.3028 29.3767C30.3838 29.5204 30.4355 29.6787 30.455 29.8425L31.105 34.9675L33.855 35L35 26.09C35.0391 25.7869 35.1879 25.5087 35.4182 25.3078C35.6485 25.107 35.9445 24.9975 36.25 25H37.37L36.37 15H30C29.6685 15 29.3506 14.8683 29.1161 14.6339C28.8817 14.3995 28.75 14.0815 28.75 13.75C28.75 13.4185 28.8817 13.1005 29.1161 12.8661C29.3506 12.6317 29.6685 12.5 30 12.5H36.375C36.9946 12.4965 37.5934 12.7232 38.0553 13.1362C38.5172 13.5491 38.8094 14.1189 38.875 14.735L40 26.1275C40.0172 26.3017 39.9976 26.4775 39.9425 26.6436C39.8874 26.8097 39.798 26.9623 39.6802 27.0917C39.5624 27.2211 39.4187 27.3243 39.2585 27.3946C39.0982 27.4649 38.925 27.5009 38.75 27.5H37.3475L36.3625 35.2825C36.2931 35.8933 36.001 36.4571 35.5421 36.8662C35.0833 37.2752 34.4898 37.5009 33.875 37.5Z" fill="black"/>
<path d="M7.5 10C6.5111 10 5.5444 9.70676 4.72215 9.15735C3.89991 8.60794 3.25904 7.82705 2.8806 6.91342C2.50217 5.99979 2.40315 4.99446 2.59608 4.02455C2.789 3.05465 3.26521 2.16373 3.96447 1.46447C4.66373 0.765206 5.55465 0.289002 6.52455 0.0960758C7.49446 -0.0968503 8.49979 0.00216641 9.41342 0.380605C10.327 0.759043 11.1079 1.39991 11.6574 2.22215C12.2068 3.0444 12.5 4.0111 12.5 5C12.5 6.32608 11.9732 7.59785 11.0355 8.53554C10.0979 9.47322 8.82608 10 7.5 10V10ZM7.5 2.5C7.00555 2.5 6.5222 2.64662 6.11108 2.92133C5.69995 3.19603 5.37952 3.58648 5.1903 4.04329C5.00108 4.50011 4.95158 5.00278 5.04804 5.48773C5.1445 5.97268 5.3826 6.41814 5.73224 6.76777C6.08187 7.1174 6.52732 7.3555 7.01228 7.45197C7.49723 7.54843 7.9999 7.49892 8.45671 7.3097C8.91353 7.12048 9.30397 6.80005 9.57868 6.38893C9.85338 5.9778 10 5.49446 10 5C10 4.33696 9.73661 3.70108 9.26777 3.23224C8.79893 2.76339 8.16304 2.5 7.5 2.5Z" fill="black"/>
<path d="M8.87498 37.5H6.12498C5.50539 37.5035 4.90659 37.2768 4.44467 36.8638C3.98276 36.4509 3.69064 35.8811 3.62498 35.265L2.65248 27.5H1.24998C1.07499 27.5008 0.901771 27.4649 0.741537 27.3946C0.581304 27.3243 0.437624 27.2211 0.319795 27.0917C0.201966 26.9623 0.112614 26.8096 0.0575219 26.6436C0.00242977 26.4775 -0.0171751 26.3017 -2.39533e-05 26.1275L1.13248 14.75C1.19844 14.1327 1.49016 13.5616 1.95161 13.1463C2.41305 12.731 3.01167 12.5008 3.63248 12.5H9.99998C10.3315 12.5 10.6494 12.6317 10.8839 12.8661C11.1183 13.1005 11.25 13.4185 11.25 13.75C11.25 14.0815 11.1183 14.3995 10.8839 14.6339C10.6494 14.8683 10.3315 15 9.99998 15H3.62498L2.62498 25H3.74998C4.05555 24.9975 4.35146 25.107 4.58178 25.3078C4.8121 25.5087 4.96087 25.7869 4.99998 26.09L6.12748 34.9675L8.87498 35L9.53498 29.8425C9.55449 29.6787 9.60624 29.5204 9.68724 29.3767C9.76824 29.2329 9.87688 29.1067 10.0069 29.0052C10.1369 28.9036 10.2858 28.8288 10.4448 28.7851C10.6039 28.7414 10.77 28.7296 10.9337 28.7504C11.0974 28.7711 11.2553 28.8241 11.3984 28.9062C11.5414 28.9883 11.6668 29.098 11.7674 29.2288C11.8679 29.3596 11.9415 29.509 11.984 29.6684C12.0265 29.8278 12.037 29.994 12.015 30.1575L11.365 35.2825C11.2955 35.8937 11.003 36.4579 10.5436 36.867C10.0842 37.2761 9.49014 37.5015 8.87498 37.5Z" fill="black"/>
<path d="M20 10C19.0111 10 18.0444 9.70676 17.2222 9.15735C16.3999 8.60794 15.759 7.82705 15.3806 6.91342C15.0022 5.99979 14.9031 4.99446 15.0961 4.02455C15.289 3.05465 15.7652 2.16373 16.4645 1.46447C17.1637 0.765206 18.0546 0.289002 19.0246 0.0960758C19.9945 -0.0968503 20.9998 0.00216641 21.9134 0.380605C22.827 0.759043 23.6079 1.39991 24.1574 2.22215C24.7068 3.0444 25 4.0111 25 5C25 6.32608 24.4732 7.59785 23.5355 8.53554C22.5979 9.47322 21.3261 10 20 10ZM20 2.5C19.5055 2.5 19.0222 2.64662 18.6111 2.92133C18.2 3.19603 17.8795 3.58648 17.6903 4.04329C17.5011 4.50011 17.4516 5.00278 17.548 5.48773C17.6445 5.97268 17.8826 6.41814 18.2322 6.76777C18.5819 7.1174 19.0273 7.3555 19.5123 7.45197C19.9972 7.54843 20.4999 7.49892 20.9567 7.3097C21.4135 7.12048 21.804 6.80005 22.0787 6.38893C22.3534 5.9778 22.5 5.49446 22.5 5C22.5 4.33696 22.2366 3.70108 21.7678 3.23224C21.2989 2.76339 20.663 2.5 20 2.5V2.5Z" fill="black"/>
<path d="M21.3675 40H18.6325C18.0106 40.0031 17.4098 39.7743 16.9475 39.3583C16.4853 38.9422 16.1947 38.3688 16.1325 37.75L15.1175 27.5H13.75C13.5748 27.5009 13.4013 27.4649 13.2409 27.3944C13.0805 27.3239 12.9367 27.2205 12.8188 27.0909C12.7009 26.9612 12.6116 26.8082 12.5567 26.6418C12.5018 26.4754 12.4825 26.2993 12.5 26.125L13.645 14.75C13.7072 14.1312 13.9978 13.5578 14.46 13.1417C14.9223 12.7257 15.5231 12.4969 16.145 12.5H23.8675C24.4894 12.4969 25.0901 12.7257 25.5524 13.1417C26.0147 13.5578 26.3053 14.1312 26.3675 14.75L27.5 26.125C27.5175 26.2993 27.4982 26.4754 27.4433 26.6418C27.3883 26.8082 27.299 26.9612 27.1812 27.0909C27.0633 27.2205 26.9195 27.3239 26.7591 27.3944C26.5987 27.4649 26.4252 27.5009 26.25 27.5H24.8825L23.8575 37.75C23.7955 38.3671 23.5063 38.9391 23.0461 39.3549C22.586 39.7707 21.9877 40.0006 21.3675 40ZM15.1325 25H16.25C16.5609 24.9984 16.8613 25.1128 17.0925 25.3209C17.3236 25.5289 17.4689 25.8156 17.5 26.125L18.6325 37.5H21.3675L22.5 26.125C22.5311 25.8156 22.6764 25.5289 22.9075 25.3209C23.1386 25.1128 23.439 24.9984 23.75 25H24.8675L23.8675 15H16.1325L15.1325 25Z" fill="black"/>
</g>
<defs>
<clipPath id="clip0_56_309">
<rect width="40" height="40" fill="white"/>
</clipPath>
</defs>
</svg>
