<svg width="40" height="40" viewBox="0 0 40 40" fill="none" xmlns="http://www.w3.org/2000/svg">
<g clip-path="url(#clip0_56_293)">
<path d="M10 10C9.0111 10 8.0444 9.70676 7.22215 9.15735C6.39991 8.60794 5.75904 7.82705 5.3806 6.91342C5.00217 5.99979 4.90315 4.99446 5.09608 4.02455C5.289 3.05465 5.76521 2.16373 6.46447 1.46447C7.16373 0.765206 8.05465 0.289002 9.02455 0.0960758C9.99446 -0.0968503 10.9998 0.00216641 11.9134 0.380605C12.8271 0.759043 13.6079 1.39991 14.1574 2.22215C14.7068 3.0444 15 4.0111 15 5C15 6.32608 14.4732 7.59785 13.5355 8.53554C12.5979 9.47322 11.3261 10 10 10ZM10 2.5C9.50555 2.5 9.0222 2.64662 8.61108 2.92133C8.19995 3.19603 7.87952 3.58648 7.6903 4.04329C7.50108 4.50011 7.45158 5.00278 7.54804 5.48773C7.6445 5.97268 7.8826 6.41814 8.23224 6.76777C8.58187 7.1174 9.02732 7.3555 9.51228 7.45197C9.99723 7.54843 10.4999 7.49892 10.9567 7.3097C11.4135 7.12048 11.804 6.80005 12.0787 6.38893C12.3534 5.9778 12.5 5.49446 12.5 5C12.5 4.33696 12.2366 3.70108 11.7678 3.23224C11.2989 2.76339 10.663 2.5 10 2.5Z" fill="black"/>
<path d="M11.37 40H8.61998C8.00065 39.9994 7.40359 39.7689 6.94448 39.3532C6.48538 38.9375 6.19691 38.3662 6.13498 37.75L5.11998 27.5H3.74998C3.57476 27.5009 3.40131 27.4649 3.24089 27.3944C3.08047 27.3239 2.93666 27.2205 2.81879 27.0909C2.70092 26.9612 2.61163 26.8082 2.55671 26.6418C2.50178 26.4754 2.48246 26.2993 2.49998 26.125L3.64498 14.75C3.70691 14.1338 3.99538 13.5625 4.45448 13.1468C4.91359 12.7311 5.51065 12.5006 6.12998 12.5H7.49998C7.66424 12.4997 7.82695 12.5318 7.97881 12.5944C8.13066 12.6571 8.26868 12.749 8.38498 12.865L9.99998 14.4825L11.615 12.8675C11.7311 12.751 11.869 12.6586 12.0209 12.5956C12.1727 12.5325 12.3355 12.5 12.5 12.5H13.87C14.4893 12.5006 15.0864 12.7311 15.5455 13.1468C16.0046 13.5625 16.293 14.1338 16.355 14.75L17.5 26.125C17.5175 26.2993 17.4982 26.4754 17.4433 26.6418C17.3883 26.8082 17.299 26.9612 17.1812 27.0909C17.0633 27.2205 16.9195 27.3239 16.7591 27.3944C16.5987 27.4649 16.4252 27.5009 16.25 27.5H14.88L13.855 37.75C13.793 38.3662 13.5046 38.9375 13.0455 39.3532C12.5864 39.7689 11.9893 39.9994 11.37 40ZM5.11998 25H6.24998C6.56094 24.9984 6.86131 25.1128 7.09245 25.3209C7.32359 25.5289 7.46889 25.8156 7.49998 26.125L8.62998 37.5H11.38L12.5 26.125C12.5311 25.8156 12.6764 25.5289 12.9075 25.3209C13.1386 25.1128 13.439 24.9984 13.75 25H14.8675L13.8675 15H13.0175L10.8825 17.135C10.6481 17.3693 10.3302 17.501 9.99873 17.501C9.66728 17.501 9.34939 17.3693 9.11498 17.135L6.98248 15H6.12998L5.11998 25Z" fill="black"/>
<path d="M27.4999 10C26.511 10 25.5443 9.70676 24.7221 9.15735C23.8998 8.60794 23.259 7.82705 22.8805 6.91342C22.5021 5.99979 22.4031 4.99446 22.596 4.02455C22.7889 3.05465 23.2651 2.16373 23.9644 1.46447C24.6637 0.765206 25.5546 0.289002 26.5245 0.0960758C27.4944 -0.0968503 28.4997 0.00216641 29.4134 0.380605C30.327 0.759043 31.1079 1.39991 31.6573 2.22215C32.2067 3.0444 32.4999 4.0111 32.4999 5C32.4999 6.32608 31.9732 7.59785 31.0355 8.53554C30.0978 9.47322 28.826 10 27.4999 10ZM27.4999 2.5C27.0055 2.5 26.5221 2.64662 26.111 2.92133C25.6999 3.19603 25.3795 3.58648 25.1902 4.04329C25.001 4.50011 24.9515 5.00278 25.048 5.48773C25.1444 5.97268 25.3825 6.41814 25.7322 6.76777C26.0818 7.1174 26.5273 7.3555 27.0122 7.45197C27.4972 7.54843 27.9998 7.49892 28.4567 7.3097C28.9135 7.12048 29.3039 6.80005 29.5786 6.38893C29.8533 5.9778 29.9999 5.49446 29.9999 5C29.9999 4.33696 29.7365 3.70108 29.2677 3.23224C28.7989 2.76339 28.163 2.5 27.4999 2.5Z" fill="black"/>
<path d="M28.94 40H26.06C25.4682 39.9997 24.8957 39.7895 24.4443 39.4068C23.993 39.0241 23.692 38.4937 23.595 37.91L22.69 32.5H21.25C21.0518 32.5002 20.8564 32.4534 20.6799 32.3632C20.5034 32.2731 20.3509 32.1423 20.2349 31.9816C20.1189 31.821 20.0428 31.635 20.0128 31.4391C19.9828 31.2432 19.9998 31.043 20.0625 30.855L22.0175 25H21.25C21.0717 25.0014 20.8951 24.9647 20.7322 24.8923C20.5693 24.8198 20.4238 24.7134 20.3054 24.5801C20.187 24.4468 20.0985 24.2897 20.0458 24.1193C19.9931 23.949 19.9775 23.7694 20 23.5925L21.125 14.7175C21.1947 14.1045 21.4885 13.539 21.95 13.1297C22.4115 12.7203 23.0081 12.496 23.625 12.5H31.375C31.9931 12.5003 32.5894 12.728 33.0505 13.1397C33.5115 13.5514 33.805 14.1184 33.875 14.7325L35 23.5925C35.0224 23.7694 35.0068 23.949 34.9541 24.1193C34.9014 24.2897 34.8129 24.4468 34.6945 24.5801C34.5762 24.7134 34.4306 24.8198 34.2677 24.8923C34.1048 24.9647 33.9282 25.0014 33.75 25H32.9825L34.935 30.855C34.9975 31.0428 35.0146 31.2428 34.9847 31.4385C34.9549 31.6342 34.879 31.82 34.7632 31.9806C34.6475 32.1412 34.4953 32.2721 34.3192 32.3624C34.143 32.4527 33.9479 32.4998 33.75 32.5H32.31L31.4075 37.91C31.3103 38.4942 31.009 39.0249 30.5571 39.4076C30.1052 39.7904 29.5322 40.0003 28.94 40ZM22.9825 30H23.75C24.0458 30.0001 24.3321 30.1052 24.5578 30.2966C24.7834 30.4879 24.9339 30.7531 24.9825 31.045L26.06 37.5H28.94L30.0175 31.045C30.066 30.7531 30.2165 30.4879 30.4422 30.2966C30.6678 30.1052 30.9541 30.0001 31.25 30H32.0175L30.065 24.145C30.0024 23.9572 29.9853 23.7572 30.0152 23.5615C30.045 23.3658 30.121 23.18 30.2367 23.0194C30.3524 22.8587 30.5046 22.7279 30.6807 22.6376C30.8569 22.5473 31.052 22.5001 31.25 22.5H32.3325L31.385 15.0325L23.625 15L22.6675 22.5H23.75C23.9481 22.4997 24.1435 22.5466 24.32 22.6367C24.4965 22.7269 24.649 22.8577 24.765 23.0184C24.881 23.179 24.9571 23.365 24.9871 23.5609C25.0171 23.7568 25.0001 23.957 24.9375 24.145L22.9825 30Z" fill="black"/>
</g>
<defs>
<clipPath id="clip0_56_293">
<rect width="40" height="40" fill="white"/>
</clipPath>
</defs>
</svg>
