<svg width="41" height="40" viewBox="0 0 41 40" fill="none" xmlns="http://www.w3.org/2000/svg">
<g clip-path="url(#clip0_56_93)">
<path d="M6.84863 22.5H1.84863C1.51711 22.5 1.19917 22.3683 0.964749 22.1339C0.730329 21.8995 0.598633 21.5815 0.598633 21.25V13.75C0.598633 13.4185 0.730329 13.1005 0.964749 12.8661C1.19917 12.6317 1.51711 12.5 1.84863 12.5H6.84863C7.18015 12.5 7.4981 12.6317 7.73252 12.8661C7.96694 13.1005 8.09863 13.4185 8.09863 13.75C8.09863 14.0815 7.96694 14.3995 7.73252 14.6339C7.4981 14.8683 7.18015 15 6.84863 15H3.09863V20H6.84863C7.18015 20 7.4981 20.1317 7.73252 20.3661C7.96694 20.6005 8.09863 20.9185 8.09863 21.25C8.09863 21.5815 7.96694 21.8995 7.73252 22.1339C7.4981 22.3683 7.18015 22.5 6.84863 22.5Z" fill="black"/>
<path d="M19.3486 25H6.84863C6.51711 25 6.19917 24.8683 5.96475 24.6339C5.73033 24.3995 5.59863 24.0815 5.59863 23.75V11.25C5.59863 10.9185 5.73033 10.6005 5.96475 10.3661C6.19917 10.1317 6.51711 10 6.84863 10H19.3486C19.6802 10 19.9981 10.1317 20.2325 10.3661C20.4669 10.6005 20.5986 10.9185 20.5986 11.25V23.75C20.5986 24.0815 20.4669 24.3995 20.2325 24.6339C19.9981 24.8683 19.6802 25 19.3486 25ZM8.09863 22.5H18.0986V12.5H8.09863V22.5Z" fill="black"/>
<path d="M39.3486 35C39.1641 35 38.982 34.9593 38.8151 34.8806C38.6483 34.8019 38.5009 34.6873 38.3836 34.545C36.0444 31.7093 33.1372 29.395 29.8493 27.751C26.5614 26.1071 22.9657 25.1699 19.2936 25C19.1292 24.9929 18.9678 24.9535 18.8186 24.8839C18.6695 24.8143 18.5356 24.7159 18.4245 24.5944C18.3135 24.4729 18.2276 24.3307 18.1716 24.176C18.1157 24.0212 18.0909 23.8569 18.0986 23.6925C18.1019 23.5272 18.1388 23.3643 18.207 23.2137C18.2752 23.0631 18.3733 22.9279 18.4954 22.8164C18.6174 22.7049 18.7609 22.6193 18.917 22.5649C19.0731 22.5105 19.2387 22.4884 19.4036 22.5C26.4076 22.8236 33.0538 25.688 38.0986 30.5575V4.44248C33.0538 9.31192 26.4076 12.1764 19.4036 12.5C19.2374 12.5177 19.0694 12.4999 18.9106 12.4478C18.7518 12.3957 18.6058 12.3105 18.4825 12.1977C18.3591 12.085 18.2611 11.9473 18.1949 11.7938C18.1287 11.6404 18.0959 11.4746 18.0986 11.3075C18.0909 11.1431 18.1157 10.9788 18.1716 10.824C18.2276 10.6692 18.3135 10.527 18.4245 10.4055C18.5356 10.2841 18.6695 10.1857 18.8186 10.1161C18.9678 10.0465 19.1292 10.007 19.2936 9.99998C22.9657 9.83033 26.5616 8.89333 29.8495 7.24935C33.1375 5.60538 36.0446 3.29089 38.3836 0.454984C38.5473 0.256149 38.7684 0.112738 39.0168 0.0443634C39.2651 -0.024011 39.5285 -0.0140106 39.7709 0.0729969C40.0133 0.160004 40.2229 0.319771 40.3711 0.530448C40.5192 0.741124 40.5987 0.992425 40.5986 1.24998V33.75C40.5988 34.0076 40.5194 34.259 40.3713 34.4698C40.2232 34.6805 40.0136 34.8404 39.7711 34.9275C39.6354 34.9754 39.4925 34.9999 39.3486 35V35Z" fill="black"/>
<path d="M14.9686 40C14.8007 40 14.6332 39.9833 14.4686 39.95C14.0565 39.8672 13.6722 39.681 13.3517 39.4091C13.0311 39.1371 12.7849 38.7882 12.6361 38.395L7.30614 24.19C7.24835 24.0364 7.2214 23.8729 7.22682 23.7088C7.23223 23.5447 7.26991 23.3833 7.33769 23.2338C7.47459 22.9319 7.72583 22.6967 8.03614 22.58C8.34644 22.4633 8.69039 22.4747 8.99232 22.6116C9.29426 22.7485 9.52944 22.9997 9.64614 23.31L14.9686 37.5L17.9686 34.5L12.8486 24.31C12.7001 24.0117 12.6762 23.6665 12.7822 23.3505C12.8881 23.0345 13.1153 22.7735 13.4136 22.625C13.712 22.4765 14.0572 22.4526 14.3732 22.5585C14.6891 22.6645 14.9501 22.8917 15.0986 23.19L20.1986 33.39C20.4359 33.8593 20.5191 34.3914 20.4366 34.9107C20.354 35.43 20.1098 35.91 19.7386 36.2825L16.7386 39.26C16.5094 39.4972 16.2342 39.6851 15.9298 39.8123C15.6255 39.9395 15.2985 40.0034 14.9686 40V40Z" fill="black"/>
</g>
<defs>
<clipPath id="clip0_56_93">
<rect width="40" height="40" fill="white" transform="translate(0.598633)"/>
</clipPath>
</defs>
</svg>
