<svg width="40" height="40" viewBox="0 0 40 40" fill="none" xmlns="http://www.w3.org/2000/svg">
<path d="M16.25 40H1.25C0.918479 40 0.600537 39.8683 0.366117 39.6339C0.131696 39.3995 0 39.0815 0 38.75V18.75C0 18.4185 0.131696 18.1005 0.366117 17.8661C0.600537 17.6317 0.918479 17.5 1.25 17.5H16.25C16.5815 17.5 16.8995 17.6317 17.1339 17.8661C17.3683 18.1005 17.5 18.4185 17.5 18.75V38.75C17.5 39.0815 17.3683 39.3995 17.1339 39.6339C16.8995 39.8683 16.5815 40 16.25 40ZM2.5 37.5H15V20H2.5V37.5Z" fill="black"/>
<path d="M8.75 20C8.41848 20 8.10054 19.8683 7.86612 19.6339C7.6317 19.3995 7.5 19.0815 7.5 18.75V1.25C7.5 0.918479 7.6317 0.600537 7.86612 0.366117C8.10054 0.131696 8.41848 0 8.75 0L28.75 0C29.0815 0 29.3995 0.131696 29.6339 0.366117C29.8683 0.600537 30 0.918479 30 1.25V11.25C30 11.5815 29.8683 11.8995 29.6339 12.1339C29.3995 12.3683 29.0815 12.5 28.75 12.5C28.4185 12.5 28.1005 12.3683 27.8661 12.1339C27.6317 11.8995 27.5 11.5815 27.5 11.25V2.5H10V18.75C10 19.0815 9.8683 19.3995 9.63388 19.6339C9.39946 19.8683 9.08152 20 8.75 20Z" fill="black"/>
<path d="M38.75 40H16.25C15.9185 40 15.6005 39.8683 15.3661 39.6339C15.1317 39.3995 15 39.0815 15 38.75V23.75C15.0001 23.5441 15.0511 23.3415 15.1483 23.1601C15.2456 22.9786 15.3861 22.824 15.5575 22.71L22.5 18.08V11.25C22.5 10.9185 22.6317 10.6005 22.8661 10.3661C23.1005 10.1317 23.4185 10 23.75 10H38.75C39.0815 10 39.3995 10.1317 39.6339 10.3661C39.8683 10.6005 40 10.9185 40 11.25V38.75C40 39.0815 39.8683 39.3995 39.6339 39.6339C39.3995 39.8683 39.0815 40 38.75 40ZM17.5 37.5H37.5V12.5H25V18.75C24.9999 18.9559 24.9489 19.1585 24.8517 19.3399C24.7544 19.5214 24.6139 19.676 24.4425 19.79L17.5 24.42V37.5Z" fill="black"/>
<path d="M7.5 22.5H5V25H7.5V22.5Z" fill="black"/>
<path d="M12.5 22.5H10V25H12.5V22.5Z" fill="black"/>
<path d="M7.5 27.5H5V30H7.5V27.5Z" fill="black"/>
<path d="M12.5 27.5H10V30H12.5V27.5Z" fill="black"/>
<path d="M15 5H12.5V7.5H15V5Z" fill="black"/>
<path d="M20 5H17.5V7.5H20V5Z" fill="black"/>
<path d="M15 10H12.5V12.5H15V10Z" fill="black"/>
<path d="M20 10H17.5V12.5H20V10Z" fill="black"/>
<path d="M25 5H22.5V7.5H25V5Z" fill="black"/>
<path d="M33.75 32.5H28.75C28.4185 32.5 28.1005 32.3683 27.8661 32.1339C27.6317 31.8995 27.5 31.5815 27.5 31.25V26.25C27.5 25.9185 27.6317 25.6005 27.8661 25.3661C28.1005 25.1317 28.4185 25 28.75 25H33.75C34.0815 25 34.3995 25.1317 34.6339 25.3661C34.8683 25.6005 35 25.9185 35 26.25V31.25C35 31.5815 34.8683 31.8995 34.6339 32.1339C34.3995 32.3683 34.0815 32.5 33.75 32.5ZM30 30H32.5V27.5H30V30Z" fill="black"/>
<path d="M33.75 22.5H28.75C28.4185 22.5 28.1005 22.3683 27.8661 22.1339C27.6317 21.8995 27.5 21.5815 27.5 21.25V16.25C27.5 15.9185 27.6317 15.6005 27.8661 15.3661C28.1005 15.1317 28.4185 15 28.75 15H33.75C34.0815 15 34.3995 15.1317 34.6339 15.3661C34.8683 15.6005 35 15.9185 35 16.25V21.25C35 21.5815 34.8683 21.8995 34.6339 22.1339C34.3995 22.3683 34.0815 22.5 33.75 22.5ZM30 20H32.5V17.5H30V20Z" fill="black"/>
</svg>
