<svg width="40" height="40" viewBox="0 0 40 40" fill="none" xmlns="http://www.w3.org/2000/svg">
<path d="M8.75 35H1.25C0.918479 35 0.600537 34.8683 0.366117 34.6339C0.131696 34.3995 0 34.0815 0 33.75V26.25C0 25.9185 0.131696 25.6005 0.366117 25.3661C0.600537 25.1317 0.918479 25 1.25 25H8.75C9.08152 25 9.39946 25.1317 9.63388 25.3661C9.8683 25.6005 10 25.9185 10 26.25V33.75C10 34.0815 9.8683 34.3995 9.63388 34.6339C9.39946 34.8683 9.08152 35 8.75 35ZM2.5 32.5H7.5V27.5H2.5V32.5Z" fill="black"/>
<path d="M23.75 35H16.25C15.9185 35 15.6005 34.8683 15.3661 34.6339C15.1317 34.3995 15 34.0815 15 33.75V26.25C15 25.9185 15.1317 25.6005 15.3661 25.3661C15.6005 25.1317 15.9185 25 16.25 25H23.75C24.0815 25 24.3995 25.1317 24.6339 25.3661C24.8683 25.6005 25 25.9185 25 26.25V33.75C25 34.0815 24.8683 34.3995 24.6339 34.6339C24.3995 34.8683 24.0815 35 23.75 35ZM17.5 32.5H22.5V27.5H17.5V32.5Z" fill="black"/>
<path d="M23.75 12.5H16.25C15.9185 12.5 15.6005 12.3683 15.3661 12.1339C15.1317 11.8995 15 11.5815 15 11.25V3.75C15 3.41848 15.1317 3.10054 15.3661 2.86612C15.6005 2.6317 15.9185 2.5 16.25 2.5H23.75C24.0815 2.5 24.3995 2.6317 24.6339 2.86612C24.8683 3.10054 25 3.41848 25 3.75V11.25C25 11.5815 24.8683 11.8995 24.6339 12.1339C24.3995 12.3683 24.0815 12.5 23.75 12.5ZM17.5 10H22.5V5H17.5V10Z" fill="black"/>
<path d="M38.75 35H31.25C30.9185 35 30.6005 34.8683 30.3661 34.6339C30.1317 34.3995 30 34.0815 30 33.75V26.25C30 25.9185 30.1317 25.6005 30.3661 25.3661C30.6005 25.1317 30.9185 25 31.25 25H38.75C39.0815 25 39.3995 25.1317 39.6339 25.3661C39.8683 25.6005 40 25.9185 40 26.25V33.75C40 34.0815 39.8683 34.3995 39.6339 34.6339C39.3995 34.8683 39.0815 35 38.75 35ZM32.5 32.5H37.5V27.5H32.5V32.5Z" fill="black"/>
<path d="M35 27.5C34.6685 27.5 34.3505 27.3683 34.1161 27.1339C33.8817 26.8995 33.75 26.5815 33.75 26.25V20H6.25V26.25C6.25 26.5815 6.1183 26.8995 5.88388 27.1339C5.64946 27.3683 5.33152 27.5 5 27.5C4.66848 27.5 4.35054 27.3683 4.11612 27.1339C3.8817 26.8995 3.75 26.5815 3.75 26.25V18.75C3.75 18.4185 3.8817 18.1005 4.11612 17.8661C4.35054 17.6317 4.66848 17.5 5 17.5H35C35.3315 17.5 35.6495 17.6317 35.8839 17.8661C36.1183 18.1005 36.25 18.4185 36.25 18.75V26.25C36.25 26.5815 36.1183 26.8995 35.8839 27.1339C35.6495 27.3683 35.3315 27.5 35 27.5Z" fill="black"/>
<path d="M20 27.5C19.6685 27.5 19.3505 27.3683 19.1161 27.1339C18.8817 26.8995 18.75 26.5815 18.75 26.25V11.25C18.75 10.9185 18.8817 10.6005 19.1161 10.3661C19.3505 10.1317 19.6685 10 20 10C20.3315 10 20.6495 10.1317 20.8839 10.3661C21.1183 10.6005 21.25 10.9185 21.25 11.25V26.25C21.25 26.5815 21.1183 26.8995 20.8839 27.1339C20.6495 27.3683 20.3315 27.5 20 27.5Z" fill="black"/>
</svg>
