<svg width="41" height="40" viewBox="0 0 41 40" fill="none" xmlns="http://www.w3.org/2000/svg">
<g clip-path="url(#clip0_56_82)">
<path d="M39.5488 10H2.04883C1.71731 10 1.39937 9.8683 1.16494 9.63388C0.930524 9.39946 0.798828 9.08152 0.798828 8.75V3.75C0.798828 3.41848 0.930524 3.10054 1.16494 2.86612C1.39937 2.6317 1.71731 2.5 2.04883 2.5H39.5488C39.8803 2.5 40.1983 2.6317 40.4327 2.86612C40.6671 3.10054 40.7988 3.41848 40.7988 3.75V8.75C40.7988 9.08152 40.6671 9.39946 40.4327 9.63388C40.1983 9.8683 39.8803 10 39.5488 10ZM3.29883 7.5H38.2988V5H3.29883V7.5Z" fill="black"/>
<path d="M35.7988 30H5.79883C5.13579 30 4.4999 29.7366 4.03106 29.2678C3.56222 28.7989 3.29883 28.163 3.29883 27.5V8.75C3.29883 8.41848 3.43052 8.10054 3.66494 7.86612C3.89937 7.6317 4.21731 7.5 4.54883 7.5C4.88035 7.5 5.19829 7.6317 5.43271 7.86612C5.66713 8.10054 5.79883 8.41848 5.79883 8.75V27.5H35.7988V8.75C35.7988 8.41848 35.9305 8.10054 36.1649 7.86612C36.3994 7.6317 36.7173 7.5 37.0488 7.5C37.3803 7.5 37.6983 7.6317 37.9327 7.86612C38.1671 8.10054 38.2988 8.41848 38.2988 8.75V27.5C38.2988 28.163 38.0354 28.7989 37.5666 29.2678C37.0978 29.7366 36.4619 30 35.7988 30Z" fill="black"/>
<path d="M20.7988 35C20.4673 35 20.1494 34.8683 19.9149 34.6339C19.6805 34.3995 19.5488 34.0815 19.5488 33.75V28.75C19.5488 28.4185 19.6805 28.1005 19.9149 27.8661C20.1494 27.6317 20.4673 27.5 20.7988 27.5C21.1303 27.5 21.4483 27.6317 21.6827 27.8661C21.9171 28.1005 22.0488 28.4185 22.0488 28.75V33.75C22.0488 34.0815 21.9171 34.3995 21.6827 34.6339C21.4483 34.8683 21.1303 35 20.7988 35Z" fill="black"/>
<path d="M24.5488 37.5C24.3023 37.4998 24.0614 37.4267 23.8563 37.29L20.7988 35.25L17.7413 37.2875C17.4655 37.4715 17.1279 37.5384 16.8027 37.4734C16.4776 37.4085 16.1916 37.2171 16.0076 36.9413C15.8236 36.6654 15.7567 36.3278 15.8216 36.0027C15.8866 35.6775 16.078 35.3915 16.3538 35.2075L20.1038 32.7075C20.3092 32.5705 20.5506 32.4973 20.7976 32.4973C21.0445 32.4973 21.2859 32.5705 21.4913 32.7075L25.2413 35.2075C25.4656 35.3559 25.636 35.5726 25.7274 35.8255C25.8187 36.0784 25.826 36.3541 25.7482 36.6115C25.6705 36.8689 25.5118 37.0943 25.2957 37.2544C25.0797 37.4145 24.8177 37.5006 24.5488 37.5Z" fill="black"/>
<path d="M27.0488 25C25.8127 25 24.6043 24.6334 23.5765 23.9467C22.5487 23.2599 21.7476 22.2838 21.2746 21.1418C20.8015 19.9997 20.6778 18.7431 20.9189 17.5307C21.1601 16.3183 21.7553 15.2047 22.6294 14.3306C23.5035 13.4565 24.6171 12.8613 25.8295 12.6201C27.0419 12.3789 28.2986 12.5027 29.4406 12.9758C30.5826 13.4488 31.5588 14.2499 32.2455 15.2777C32.9323 16.3055 33.2988 17.5139 33.2988 18.75C33.2988 20.4076 32.6404 21.9973 31.4682 23.1694C30.2961 24.3415 28.7064 25 27.0488 25ZM27.0488 15C26.3072 15 25.5821 15.2199 24.9654 15.632C24.3488 16.044 23.8681 16.6297 23.5843 17.3149C23.3005 18.0002 23.2262 18.7542 23.3709 19.4816C23.5156 20.209 23.8727 20.8772 24.3972 21.4017C24.9216 21.9261 25.5898 22.2833 26.3172 22.4279C27.0447 22.5726 27.7987 22.4984 28.4839 22.2146C29.1691 21.9307 29.7548 21.4501 30.1668 20.8334C30.5789 20.2167 30.7988 19.4917 30.7988 18.75C30.7988 17.7554 30.4037 16.8016 29.7005 16.0984C28.9972 15.3951 28.0434 15 27.0488 15Z" fill="black"/>
<path d="M32.0488 20H27.0488C26.7173 20 26.3994 19.8683 26.1649 19.6339C25.9305 19.3995 25.7988 19.0815 25.7988 18.75V13.75C25.7988 13.4185 25.9305 13.1005 26.1649 12.8661C26.3994 12.6317 26.7173 12.5 27.0488 12.5C27.3803 12.5 27.6983 12.6317 27.9327 12.8661C28.1671 13.1005 28.2988 13.4185 28.2988 13.75V17.5H32.0488C32.3803 17.5 32.6983 17.6317 32.9327 17.8661C33.1671 18.1005 33.2988 18.4185 33.2988 18.75C33.2988 19.0815 33.1671 19.3995 32.9327 19.6339C32.6983 19.8683 32.3803 20 32.0488 20Z" fill="black"/>
<path d="M9.54883 25C9.21731 25 8.89937 24.8683 8.66494 24.6339C8.43052 24.3994 8.29883 24.0815 8.29883 23.75V18.985C8.29883 18.6535 8.43052 18.3355 8.66494 18.1011C8.89937 17.8667 9.21731 17.735 9.54883 17.735C9.88035 17.735 10.1983 17.8667 10.4327 18.1011C10.6671 18.3355 10.7988 18.6535 10.7988 18.985V23.75C10.7988 24.0815 10.6671 24.3994 10.4327 24.6339C10.1983 24.8683 9.88035 25 9.54883 25Z" fill="black"/>
<path d="M14.5488 25C14.2173 25 13.8994 24.8683 13.6649 24.6339C13.4305 24.3994 13.2988 24.0815 13.2988 23.75V13.985C13.2988 13.6535 13.4305 13.3355 13.6649 13.1011C13.8994 12.8667 14.2173 12.735 14.5488 12.735C14.8803 12.735 15.1983 12.8667 15.4327 13.1011C15.6671 13.3355 15.7988 13.6535 15.7988 13.985V23.75C15.7988 24.0815 15.6671 24.3994 15.4327 24.6339C15.1983 24.8683 14.8803 25 14.5488 25Z" fill="black"/>
</g>
<defs>
<clipPath id="clip0_56_82">
<rect width="40" height="40" fill="white" transform="translate(0.798828)"/>
</clipPath>
</defs>
</svg>
