<svg width="41" height="40" viewBox="0 0 41 40" fill="none" xmlns="http://www.w3.org/2000/svg">
<g clip-path="url(#clip0_56_62)">
<path d="M39.1494 10H1.64941C1.31789 10 0.999951 9.8683 0.765531 9.63388C0.53111 9.39946 0.399414 9.08152 0.399414 8.75V3.75C0.399414 3.41848 0.53111 3.10054 0.765531 2.86612C0.999951 2.6317 1.31789 2.5 1.64941 2.5H39.1494C39.4809 2.5 39.7989 2.6317 40.0333 2.86612C40.2677 3.10054 40.3994 3.41848 40.3994 3.75V8.75C40.3994 9.08152 40.2677 9.39946 40.0333 9.63388C39.7989 9.8683 39.4809 10 39.1494 10ZM2.89941 7.5H37.8994V5H2.89941V7.5Z" fill="black"/>
<path d="M35.3994 30H5.39941C4.73637 30 4.10049 29.7366 3.63165 29.2678C3.16281 28.7989 2.89941 28.163 2.89941 27.5V8.75C2.89941 8.41848 3.03111 8.10054 3.26553 7.86612C3.49995 7.6317 3.81789 7.5 4.14941 7.5C4.48093 7.5 4.79888 7.6317 5.0333 7.86612C5.26772 8.10054 5.39941 8.41848 5.39941 8.75V27.5H35.3994V8.75C35.3994 8.41848 35.5311 8.10054 35.7655 7.86612C36 7.6317 36.3179 7.5 36.6494 7.5C36.9809 7.5 37.2989 7.6317 37.5333 7.86612C37.7677 8.10054 37.8994 8.41848 37.8994 8.75V27.5C37.8994 28.163 37.636 28.7989 37.1672 29.2678C36.6983 29.7366 36.0625 30 35.3994 30Z" fill="black"/>
<path d="M20.3994 35C20.0679 35 19.75 34.8683 19.5155 34.6339C19.2811 34.3995 19.1494 34.0815 19.1494 33.75V28.75C19.1494 28.4185 19.2811 28.1005 19.5155 27.8661C19.75 27.6317 20.0679 27.5 20.3994 27.5C20.7309 27.5 21.0489 27.6317 21.2833 27.8661C21.5177 28.1005 21.6494 28.4185 21.6494 28.75V33.75C21.6494 34.0815 21.5177 34.3995 21.2833 34.6339C21.0489 34.8683 20.7309 35 20.3994 35Z" fill="black"/>
<path d="M24.1494 37.5C23.9029 37.4998 23.662 37.4267 23.4569 37.29L20.3994 35.25L17.3419 37.2875C17.0661 37.4715 16.7285 37.5384 16.4033 37.4734C16.0782 37.4085 15.7922 37.2171 15.6082 36.9413C15.4242 36.6654 15.3573 36.3278 15.4222 36.0027C15.4872 35.6775 15.6786 35.3915 15.9544 35.2075L19.7044 32.7075C19.9098 32.5705 20.1512 32.4973 20.3982 32.4973C20.6451 32.4973 20.8865 32.5705 21.0919 32.7075L24.8419 35.2075C25.0662 35.3559 25.2366 35.5726 25.3279 35.8255C25.4193 36.0784 25.4266 36.3541 25.3488 36.6115C25.2711 36.8689 25.1124 37.0943 24.8963 37.2544C24.6802 37.4145 24.4183 37.5006 24.1494 37.5Z" fill="black"/>
<path d="M29.1494 25C28.8179 25 28.5 24.8683 28.2655 24.6339C28.0311 24.3995 27.8994 24.0815 27.8994 23.75V13.75C27.8994 13.4185 28.0311 13.1005 28.2655 12.8661C28.5 12.6317 28.8179 12.5 29.1494 12.5C29.4809 12.5 29.7989 12.6317 30.0333 12.8661C30.2677 13.1005 30.3994 13.4185 30.3994 13.75V23.75C30.3994 24.0815 30.2677 24.3995 30.0333 24.6339C29.7989 24.8683 29.4809 25 29.1494 25Z" fill="black"/>
<path d="M20.3994 25C20.0679 25 19.75 24.8683 19.5155 24.6339C19.2811 24.3995 19.1494 24.0815 19.1494 23.75V18.75C19.1494 18.4185 19.2811 18.1005 19.5155 17.8661C19.75 17.6317 20.0679 17.5 20.3994 17.5C20.7309 17.5 21.0489 17.6317 21.2833 17.8661C21.5177 18.1005 21.6494 18.4185 21.6494 18.75V23.75C21.6494 24.0815 21.5177 24.3995 21.2833 24.6339C21.0489 24.8683 20.7309 25 20.3994 25Z" fill="black"/>
<path d="M11.6494 25C11.3179 25 11 24.8683 10.7655 24.6339C10.5311 24.3995 10.3994 24.0815 10.3994 23.75V21.25C10.3994 20.9185 10.5311 20.6005 10.7655 20.3661C11 20.1317 11.3179 20 11.6494 20C11.9809 20 12.2989 20.1317 12.5333 20.3661C12.7677 20.6005 12.8994 20.9185 12.8994 21.25V23.75C12.8994 24.0815 12.7677 24.3995 12.5333 24.6339C12.2989 24.8683 11.9809 25 11.6494 25Z" fill="black"/>
</g>
<defs>
<clipPath id="clip0_56_62">
<rect width="40" height="40" fill="white" transform="translate(0.399414)"/>
</clipPath>
</defs>
</svg>
