<svg width="27" height="26" viewBox="0 0 27 26" fill="none" xmlns="http://www.w3.org/2000/svg">
<path d="M11.365 15.6491L7.47011 15.6491C7.47011 15.6491 7.47006 15.6491 7.47002 15.6491C7.47002 15.6491 7.46997 15.6491 7.46993 15.6491C5.85924 15.6491 4.54875 14.3388 4.54875 12.7279C4.54875 11.9476 4.85268 11.214 5.40439 10.6623C5.95605 10.1106 6.68953 9.8068 7.46974 9.80666C7.46983 9.80666 7.46993 9.80666 7.47002 9.80666L11.3649 9.80662C11.9027 9.80657 12.3387 9.37058 12.3386 8.83283C12.3386 8.29512 11.9026 7.85914 11.3649 7.85909L7.46997 7.85914C7.4697 7.85914 7.46938 7.85918 7.4691 7.85918C6.16899 7.85941 4.94664 8.36586 4.0273 9.2852C3.10772 10.2048 2.60128 11.4274 2.60128 12.7279C2.60132 14.0703 3.14729 15.2874 4.0289 16.169C4.91052 17.0506 6.12772 17.5967 7.46997 17.5966L7.47002 17.5966C7.47006 17.5966 7.47011 17.5966 7.47011 17.5966L11.365 17.5965C11.9027 17.5965 12.3387 17.1605 12.3387 16.6227C12.3388 16.0851 11.9028 15.6491 11.365 15.6491Z" fill="black"/>
<path d="M22.5977 16.1706C23.5173 15.2511 24.0237 14.0284 24.0237 12.7279C24.0236 10.0432 21.8395 7.85918 19.155 7.85918C19.1548 7.85923 19.1547 7.85918 19.1546 7.85923L15.2598 7.85918C14.7221 7.85913 14.2861 8.29517 14.2861 8.83292C14.2861 9.10191 14.3951 9.34529 14.5713 9.52151C14.7475 9.69768 14.991 9.8067 15.2598 9.80666L19.1546 9.8067C19.1547 9.80666 19.1548 9.8067 19.155 9.8067C20.7657 9.8067 22.0762 11.1171 22.0762 12.7279C22.0762 13.5082 21.7723 14.2418 21.2206 14.7936C20.669 15.3452 19.9355 15.649 19.1552 15.6491C19.1551 15.6491 19.155 15.6491 19.1549 15.6491L15.26 15.6492C14.7223 15.6492 14.2863 16.0852 14.2863 16.623C14.2863 16.8919 14.3953 17.1353 14.5715 17.3115C14.7477 17.4877 14.9912 17.5967 15.2601 17.5967L19.155 17.5967C19.1553 17.5967 19.1556 17.5966 19.1559 17.5966C20.456 17.5964 21.6784 17.09 22.5977 16.1706Z" fill="black"/>
<path d="M8.44385 12.7279C8.44385 12.9968 8.55282 13.2402 8.729 13.4164C8.90522 13.5926 9.14869 13.7016 9.41759 13.7016L17.2075 13.7016C17.7453 13.7017 18.1812 13.2657 18.1812 12.7279C18.1812 12.1902 17.7453 11.7542 17.2075 11.7541L9.41763 11.7541C8.87979 11.7541 8.4438 12.1901 8.44385 12.7279Z" fill="black"/>
</svg>
