<svg width="33" height="33" viewBox="0 0 33 33" fill="none" xmlns="http://www.w3.org/2000/svg">
<rect width="33" height="33" rx="16.5" fill="#F3F3F4"/>
<path d="M22.0709 11.935L22.1416 11.8642L22.0709 11.7935L21.2066 10.9293L21.1359 10.8586L21.0652 10.9293L16.5001 15.4945L11.935 10.9293L11.8643 10.8586L11.7935 10.9293L10.9293 11.7935L10.8586 11.8642L10.9293 11.935L15.4944 16.5L10.9293 21.065L10.8586 21.1358L10.9293 21.2065L11.7935 22.0707L11.8643 22.1414L11.935 22.0707L16.5001 17.5057L21.0652 22.0707L21.1359 22.1414L21.2066 22.0707L22.0709 21.2065L22.1416 21.1358L22.0709 21.065L17.5058 16.5L22.0709 11.935Z" fill="#181818" stroke="#181818" stroke-width="0.2"/>
</svg>
