<svg width="40" height="40" viewBox="0 0 40 40" fill="none" xmlns="http://www.w3.org/2000/svg">
<g clip-path="url(#clip0_56_76)">
<path d="M26.249 10C25.9175 10 25.5996 9.8683 25.3651 9.63388C25.1307 9.39946 24.999 9.08152 24.999 8.75V5H14.999V8.75C14.999 9.08152 14.8673 9.39946 14.6329 9.63388C14.3985 9.8683 14.0805 10 13.749 10C13.4175 10 13.0996 9.8683 12.8651 9.63388C12.6307 9.39946 12.499 9.08152 12.499 8.75V3.75C12.499 3.41848 12.6307 3.10054 12.8651 2.86612C13.0996 2.6317 13.4175 2.5 13.749 2.5H26.249C26.5805 2.5 26.8985 2.6317 27.1329 2.86612C27.3673 3.10054 27.499 3.41848 27.499 3.75V8.75C27.499 9.08152 27.3673 9.39946 27.1329 9.63388C26.8985 9.8683 26.5805 10 26.249 10Z" fill="black"/>
<path d="M38.749 20H23.749C23.4175 20 23.0996 19.8683 22.8651 19.6339C22.6307 19.3995 22.499 19.0815 22.499 18.75C22.499 18.4185 22.6307 18.1005 22.8651 17.8661C23.0996 17.6317 23.4175 17.5 23.749 17.5H37.499V10H2.49902V17.5H16.249C16.5805 17.5 16.8985 17.6317 17.1329 17.8661C17.3673 18.1005 17.499 18.4185 17.499 18.75C17.499 19.0815 17.3673 19.3995 17.1329 19.6339C16.8985 19.8683 16.5805 20 16.249 20H1.24902C0.917503 20 0.59956 19.8683 0.36514 19.6339C0.13072 19.3995 -0.000976562 19.0815 -0.000976562 18.75V8.75C-0.000976562 8.41848 0.13072 8.10054 0.36514 7.86612C0.59956 7.6317 0.917503 7.5 1.24902 7.5H38.749C39.0805 7.5 39.3985 7.6317 39.6329 7.86612C39.8673 8.10054 39.999 8.41848 39.999 8.75V18.75C39.999 19.0815 39.8673 19.3995 39.6329 19.6339C39.3985 19.8683 39.0805 20 38.749 20Z" fill="black"/>
<path d="M34.999 37.5H4.99902C4.33598 37.5 3.7001 37.2366 3.23126 36.7678C2.76242 36.2989 2.49902 35.663 2.49902 35V18.75C2.49902 18.4185 2.63072 18.1005 2.86514 17.8661C3.09956 17.6317 3.4175 17.5 3.74902 17.5C4.08054 17.5 4.39849 17.6317 4.63291 17.8661C4.86733 18.1005 4.99902 18.4185 4.99902 18.75V35H34.999V18.75C34.999 18.4185 35.1307 18.1005 35.3651 17.8661C35.5996 17.6317 35.9175 17.5 36.249 17.5C36.5805 17.5 36.8985 17.6317 37.1329 17.8661C37.3673 18.1005 37.499 18.4185 37.499 18.75V35C37.499 35.663 37.2356 36.2989 36.7668 36.7678C36.2979 37.2366 35.6621 37.5 34.999 37.5Z" fill="black"/>
<path d="M23.749 22.5H16.249C15.9175 22.5 15.5996 22.3683 15.3651 22.1339C15.1307 21.8995 14.999 21.5815 14.999 21.25V16.25C14.999 15.9185 15.1307 15.6005 15.3651 15.3661C15.5996 15.1317 15.9175 15 16.249 15H23.749C24.0805 15 24.3985 15.1317 24.6329 15.3661C24.8673 15.6005 24.999 15.9185 24.999 16.25V21.25C24.999 21.5815 24.8673 21.8995 24.6329 22.1339C24.3985 22.3683 24.0805 22.5 23.749 22.5ZM17.499 20H22.499V17.5H17.499V20Z" fill="black"/>
</g>
<defs>
<clipPath id="clip0_56_76">
<rect width="40" height="40" fill="white" transform="translate(-0.000976562)"/>
</clipPath>
</defs>
</svg>
