<svg width="22" height="22" viewBox="0 0 22 22" fill="none" xmlns="http://www.w3.org/2000/svg">
<path d="M15.1447 9.45312C15.1447 8.97849 14.76 8.59375 14.2853 8.59375H5.43378C4.95914 8.59375 4.5744 8.97849 4.5744 9.45312C4.5744 9.92776 4.95914 10.3125 5.43378 10.3125H14.2853C14.76 10.3125 15.1447 9.92776 15.1447 9.45312Z" fill="#181818"/>
<path d="M5.43378 12.0312C4.95914 12.0312 4.5744 12.416 4.5744 12.8906C4.5744 13.3653 4.95914 13.75 5.43378 13.75H10.8096C11.2843 13.75 11.669 13.3653 11.669 12.8906C11.669 12.416 11.2843 12.0312 10.8096 12.0312H5.43378Z" fill="#181818"/>
<path d="M7.45331 20.2812H4.57918C3.63146 20.2812 2.86043 19.5102 2.86043 18.5625V3.4375C2.86043 2.48978 3.63146 1.71875 4.57918 1.71875H15.1447C16.0924 1.71875 16.8635 2.48978 16.8635 3.4375V8.72266C16.8635 9.19729 17.2482 9.58203 17.7228 9.58203C18.1975 9.58203 18.5822 9.19729 18.5822 8.72266V3.4375C18.5822 1.54206 17.0402 0 15.1447 0H4.57918C2.68374 0 1.14168 1.54206 1.14168 3.4375V18.5625C1.14168 20.4579 2.68374 22 4.57918 22H7.45331C7.92795 22 8.31269 21.6153 8.31269 21.1406C8.31269 20.666 7.92795 20.2812 7.45331 20.2812Z" fill="#181818"/>
<path d="M20.1044 12.4425C19.0992 11.4373 17.4636 11.4373 16.459 12.4419L11.7409 17.1495C11.6407 17.2495 11.5668 17.3726 11.5257 17.5081L10.4982 20.8908C10.4071 21.1907 10.4864 21.5164 10.7053 21.7407C10.8693 21.9088 11.092 22 11.3205 22C11.3969 22 11.4741 21.9898 11.5499 21.9687L15.0185 21.0079C15.1613 20.9684 15.2914 20.8926 15.3962 20.788L20.1044 16.0886C21.1096 15.0834 21.1096 13.4478 20.1044 12.4425ZM14.3419 19.4119L12.5969 19.8953L13.1076 18.214L16.2911 15.0375L17.5067 16.2531L14.3419 19.4119ZM18.8897 14.8728L18.7232 15.0389L17.5078 13.8236L17.6738 13.658C18.0088 13.3229 18.554 13.3229 18.8891 13.658C19.2242 13.993 19.2242 14.5382 18.8897 14.8728Z" fill="#181818"/>
<path d="M14.2853 5.15625H5.43378C4.95914 5.15625 4.5744 5.54099 4.5744 6.01562C4.5744 6.49026 4.95914 6.875 5.43378 6.875H14.2853C14.76 6.875 15.1447 6.49026 15.1447 6.01562C15.1447 5.54099 14.76 5.15625 14.2853 5.15625Z" fill="#181818"/>
</svg>
