<svg width="41" height="40" viewBox="0 0 41 40" fill="none" xmlns="http://www.w3.org/2000/svg">
<g clip-path="url(#clip0_56_71)">
<path d="M26.4492 40H1.44922C1.1177 40 0.799756 39.8683 0.565335 39.6339C0.330915 39.3995 0.199219 39.0815 0.199219 38.75V35.75C0.204433 34.6093 0.597226 33.5042 1.31315 32.6161C2.02907 31.728 3.0256 31.1097 4.13922 30.8625L9.63922 29.67V28.05C9.33028 27.5724 9.05221 27.0756 8.80672 26.5625C8.6118 26.1489 8.38791 25.7496 8.13672 25.3675C7.10251 24.479 6.36021 23.2993 6.00672 21.9825C5.77013 21.1283 5.86942 20.2159 6.28422 19.4325V18.8275C6.17549 17.5585 6.27343 16.2802 6.57422 15.0425C7.18927 13.5919 8.20542 12.347 9.50336 11.4538C10.8013 10.5606 12.3271 10.0562 13.9017 10C15.1544 10.0043 16.3854 10.3269 17.4792 10.9375C17.6817 11.0001 17.8891 11.0452 18.0992 11.0725C18.8536 11.1227 19.5685 11.4277 20.1267 11.9375C20.9329 12.8852 21.3351 14.1114 21.2467 15.3525C21.5234 16.7286 21.6408 18.132 21.5967 19.535C21.8172 19.8985 21.9574 20.3049 22.0079 20.7271C22.0583 21.1492 22.0179 21.5773 21.8892 21.9825C21.5339 23.3018 20.7889 24.4832 19.7517 25.3725C19.5086 25.7498 19.2914 26.1432 19.1017 26.55C18.8574 27.0677 18.5793 27.5688 18.2692 28.05V29.6725L23.7692 30.865C24.8806 31.1141 25.8745 31.7329 26.5884 32.6203C27.3023 33.5077 27.694 34.6111 27.6992 35.75V38.75C27.6992 39.0815 27.5675 39.3995 27.3331 39.6339C27.0987 39.8683 26.7807 40 26.4492 40ZM2.69922 37.5H25.1992V35.75C25.1963 35.1799 24.9998 34.6276 24.6419 34.1838C24.2839 33.74 23.7858 33.431 23.2292 33.3075L16.7542 31.9025C16.4751 31.8419 16.2251 31.6876 16.0459 31.4652C15.8666 31.2427 15.769 30.9656 15.7692 30.68V27.6125C15.7692 27.4469 15.8022 27.2829 15.8661 27.1301C15.9301 26.9773 16.0238 26.8388 16.1417 26.7225C16.4182 26.3108 16.6614 25.8778 16.8692 25.4275C17.155 24.7632 17.5374 24.1448 18.0042 23.5925C18.677 23.0422 19.1784 22.3109 19.4492 21.485C19.5667 20.915 19.4967 20.7775 19.3917 20.5725C19.2116 20.2577 19.1136 19.9026 19.1067 19.54C19.1491 18.3159 19.0492 17.0911 18.8092 15.89C18.7774 15.7811 18.7606 15.6684 18.7592 15.555C18.7417 14.12 18.4967 13.8525 18.2967 13.6375C18.2467 13.6175 17.9192 13.5825 17.6892 13.5425C17.1974 13.4857 16.7188 13.3454 16.2742 13.1275C15.5557 12.7184 14.7435 12.5022 13.9167 12.5C12.8509 12.5456 11.8187 12.8868 10.9357 13.4855C10.0527 14.0842 9.35361 14.9167 8.91672 15.89C8.75287 16.8432 8.70335 17.8126 8.76922 18.7775V19.5275C8.76209 19.8901 8.6641 20.2451 8.48422 20.56C8.37922 20.7675 8.30922 20.9025 8.42672 21.47C8.69413 22.2957 9.19202 23.0278 9.86172 23.58C10.3296 24.133 10.7145 24.7511 11.0042 25.415C11.2147 25.8667 11.4613 26.3006 11.7417 26.7125C11.9696 26.953 12.1013 27.2688 12.1117 27.6V30.6675C12.1119 30.9531 12.0143 31.2302 11.8351 31.4527C11.6559 31.6751 11.4059 31.8294 11.1267 31.89L4.65172 33.295C4.09627 33.4225 3.60057 33.7348 3.24584 34.1808C2.89111 34.6268 2.69838 35.1801 2.69922 35.75V37.5Z" fill="black"/>
<path d="M27.6992 22.5C26.9619 22.4975 26.2267 22.4221 25.5042 22.275C25.3434 22.2421 25.1905 22.1779 25.0545 22.0861C24.9184 21.9942 24.8018 21.8764 24.7112 21.7394C24.6207 21.6024 24.558 21.449 24.5268 21.2878C24.4956 21.1266 24.4964 20.9608 24.5292 20.8C24.5621 20.6391 24.6263 20.4863 24.7181 20.3502C24.81 20.2142 24.9278 20.0975 25.0648 20.007C25.2018 19.9165 25.3552 19.8538 25.5164 19.8226C25.6776 19.7913 25.8434 19.7921 26.0042 19.825C27.2736 20.0915 28.5865 20.0697 29.8463 19.7611C31.106 19.4525 32.2805 18.8651 33.2829 18.0421C34.2854 17.2191 35.0903 16.1816 35.6383 15.006C36.1863 13.8305 36.4634 12.5469 36.4492 11.25C36.4515 9.24037 35.7607 7.29145 34.4934 5.7318C33.2261 4.17215 31.4598 3.09717 29.4923 2.6881C27.5248 2.27903 25.4764 2.56089 23.6924 3.48616C21.9085 4.41143 20.4982 5.92351 19.6992 7.76747C19.5683 8.07214 19.3217 8.31231 19.0136 8.43515C18.7056 8.55798 18.3614 8.55342 18.0567 8.42247C17.7521 8.29152 17.5119 8.04491 17.3891 7.73688C17.2662 7.42885 17.2708 7.08464 17.4017 6.77997C18.2086 4.9164 19.5049 3.30598 21.1531 2.11956C22.8012 0.933148 24.7398 0.214981 26.7631 0.0412486C28.7864 -0.132484 30.819 0.244697 32.6453 1.13278C34.4716 2.02086 36.0235 3.38672 37.1362 5.08547C38.249 6.78421 38.8812 8.75249 38.9658 10.7815C39.0504 12.8105 38.5841 14.8246 37.6166 16.61C36.649 18.3955 35.2163 19.8857 33.4702 20.9227C31.7242 21.9597 29.73 22.5047 27.6992 22.5V22.5Z" fill="black"/>
<path d="M31.4492 16.25C31.285 16.2503 31.1223 16.2182 30.9704 16.1556C30.8185 16.093 30.6805 16.001 30.5642 15.885L26.8142 12.135C26.6982 12.0187 26.6063 11.8807 26.5436 11.7288C26.481 11.577 26.4489 11.4143 26.4492 11.25V6.25C26.4492 5.91848 26.5809 5.60054 26.8153 5.36612C27.0498 5.1317 27.3677 5 27.6992 5C28.0307 5 28.3487 5.1317 28.5831 5.36612C28.8175 5.60054 28.9492 5.91848 28.9492 6.25V10.7325L32.3342 14.1175C32.5086 14.2925 32.6273 14.5152 32.6752 14.7575C32.7231 14.9999 32.6982 15.251 32.6035 15.4791C32.5088 15.7073 32.3486 15.9023 32.1432 16.0395C31.9377 16.1767 31.6963 16.2499 31.4492 16.25V16.25Z" fill="black"/>
</g>
<defs>
<clipPath id="clip0_56_71">
<rect width="40" height="40" fill="white" transform="translate(0.199219)"/>
</clipPath>
</defs>
</svg>
