<svg width="64" height="22" viewBox="0 0 64 22" fill="none" xmlns="http://www.w3.org/2000/svg">
<path d="M24.3004 1.02837L15.9228 21.0191H10.4548L6.335 5.067C6.08138 4.08312 5.86463 3.72525 5.10413 3.3075C3.85838 2.634 1.80925 2.00212 0 1.60875L0.126625 1.0285H8.924C10.046 1.0285 11.0548 1.77687 11.3084 3.067L13.4867 14.6372L18.8673 1.0285H24.3004V1.02837ZM45.7186 14.4894C45.7429 9.21612 38.422 8.92912 38.4746 6.57C38.4889 5.84987 39.1714 5.08787 40.6661 4.8955C41.4084 4.79675 43.451 4.72437 45.7661 5.78725L46.6735 1.55C45.4279 1.09787 43.8268 0.664871 41.8368 0.664871C36.7256 0.664871 33.1275 3.3835 33.0971 7.27337C33.0636 10.15 35.6642 11.7551 37.6259 12.7131C39.6401 13.6934 40.3136 14.3192 40.3065 15.1984C40.2932 16.5401 38.6994 17.1265 37.2126 17.1529C34.612 17.1934 33.1036 16.4501 31.899 15.8891L30.9627 20.272C32.1692 20.826 34.4034 21.307 36.7154 21.3354C42.1477 21.3351 45.7015 18.6455 45.7186 14.4894ZM59.216 21.0192H64L59.8256 1.0285H55.4092C54.4169 1.0285 53.5803 1.60725 53.2076 2.49387L45.4524 21.0192H50.8805L51.958 18.0337H58.5933L59.216 21.0192ZM53.4455 13.9364L56.1686 6.43025L57.7352 13.9364H53.4455ZM31.6906 1.02837L27.4119 21.0191H22.2395L26.5193 1.02837H31.6906V1.02837Z" fill="black"/>
</svg>
