<svg width="31" height="40" viewBox="0 0 31 40" fill="none" xmlns="http://www.w3.org/2000/svg">
<path d="M8 10C10.7614 10 13 7.76142 13 5C13 2.23858 10.7614 0 8 0C5.23858 0 3 2.23858 3 5C3 7.76142 5.23858 10 8 10Z" fill="#181818"/>
<path d="M11.8675 12.5H10.5C10.3357 12.4997 10.173 12.5318 10.0212 12.5944C9.86931 12.6571 9.73129 12.749 9.615 12.865L8 14.48L6.385 12.865C6.2687 12.749 6.13068 12.6571 5.97882 12.5944C5.82697 12.5318 5.66426 12.4997 5.5 12.5H4.1325C3.51058 12.4969 2.90983 12.7257 2.44756 13.1417C1.98528 13.5578 1.69468 14.1312 1.6325 14.75L0.499996 26.125C0.482471 26.2993 0.501798 26.4754 0.556721 26.6418C0.611643 26.8082 0.700935 26.9612 0.818803 27.0909C0.936672 27.2205 1.08048 27.3239 1.2409 27.3944C1.40133 27.4649 1.57477 27.5009 1.75 27.5H3.1175L4.1425 37.75C4.20468 38.3688 4.49528 38.9422 4.95756 39.3583C5.41983 39.7743 6.02058 40.0031 6.6425 40H9.3675C9.98941 40.0031 10.5902 39.7743 11.0524 39.3583C11.5147 38.9422 11.8053 38.3688 11.8675 37.75L12.8925 27.5H14.25C14.4252 27.5009 14.5987 27.4649 14.7591 27.3944C14.9195 27.3239 15.0633 27.2205 15.1812 27.0909C15.2991 26.9612 15.3883 26.8082 15.4433 26.6418C15.4982 26.4754 15.5175 26.2993 15.5 26.125L14.355 14.75C14.293 14.1333 14.0042 13.5617 13.5446 13.1459C13.0849 12.7302 12.4873 12.5 11.8675 12.5Z" fill="#181818"/>
<path d="M29.81 7.6325L19.81 2.6325C19.6194 2.537 19.4076 2.49183 19.1946 2.50127C18.9817 2.51071 18.7747 2.57445 18.5933 2.68643C18.4119 2.79841 18.2622 2.95492 18.1584 3.14107C18.0545 3.32722 18 3.53684 18 3.75V38.75C18 39.0815 18.1317 39.3995 18.3661 39.6339C18.6005 39.8683 18.9185 40 19.25 40C19.5815 40 19.8995 39.8683 20.1339 39.6339C20.3683 39.3995 20.5 39.0815 20.5 38.75V13.5825L29.715 9.9125C29.9391 9.82322 30.1326 9.67098 30.2722 9.47415C30.4117 9.27733 30.4913 9.04434 30.5013 8.80328C30.5114 8.56223 30.4514 8.32342 30.3288 8.11568C30.2061 7.90793 30.0259 7.74012 29.81 7.6325Z" fill="#181818"/>
</svg>
