<svg width="28" height="40" viewBox="0 0 28 40" fill="none" xmlns="http://www.w3.org/2000/svg">
<path d="M8 10C10.7614 10 13 7.76142 13 5C13 2.23858 10.7614 0 8 0C5.23858 0 3 2.23858 3 5C3 7.76142 5.23858 10 8 10Z" fill="#181818"/>
<path d="M11.8675 12.5H10.5C10.3357 12.4997 10.173 12.5318 10.0212 12.5944C9.86933 12.6571 9.73131 12.749 9.61501 12.865L8.00001 14.48L6.38501 12.865C6.26871 12.749 6.13069 12.6571 5.97884 12.5944C5.82698 12.5318 5.66427 12.4997 5.50001 12.5H4.13251C3.51059 12.4969 2.90984 12.7257 2.44757 13.1417C1.9853 13.5578 1.6947 14.1312 1.63251 14.75L0.500011 26.125C0.482487 26.2993 0.501813 26.4754 0.556736 26.6418C0.611659 26.8082 0.70095 26.9612 0.818819 27.0909C0.936687 27.2205 1.0805 27.3239 1.24092 27.3944C1.40134 27.4649 1.57479 27.5009 1.75001 27.5H3.11751L4.14251 37.75C4.2047 38.3688 4.4953 38.9422 4.95757 39.3583C5.41984 39.7743 6.02059 40.0031 6.64251 40H9.36751C9.98943 40.0031 10.5902 39.7743 11.0525 39.3583C11.5147 38.9422 11.8053 38.3688 11.8675 37.75L12.8925 27.5H14.25C14.4252 27.5009 14.5987 27.4649 14.7591 27.3944C14.9195 27.3239 15.0633 27.2205 15.1812 27.0909C15.2991 26.9612 15.3884 26.8082 15.4433 26.6418C15.4982 26.4754 15.5175 26.2993 15.5 26.125L14.355 14.75C14.293 14.1333 14.0042 13.5617 13.5446 13.1459C13.085 12.7302 12.4873 12.5 11.8675 12.5Z" fill="#181818"/>
<path d="M27.7275 9.22L22.7275 2.97C22.715 2.955 22.6925 2.95 22.68 2.935C22.5662 2.7994 22.4241 2.69036 22.2636 2.61555C22.1032 2.54074 21.9283 2.50198 21.7513 2.50198C21.5742 2.50198 21.3993 2.54074 21.2389 2.61555C21.0784 2.69036 20.9363 2.7994 20.8225 2.935C20.81 2.95 20.7875 2.955 20.775 2.97L15.775 9.22C15.6724 9.3482 15.5961 9.49536 15.5503 9.65307C15.5046 9.81077 15.4904 9.97594 15.5085 10.1391C15.5451 10.4687 15.7111 10.7703 15.97 10.9775C16.2289 11.1847 16.5595 11.2806 16.8891 11.244C17.0523 11.2259 17.2104 11.1758 17.3542 11.0966C17.4981 11.0174 17.6249 10.9107 17.7275 10.7825L20.5 7.3125V36.25C20.5 36.5815 20.6317 36.8995 20.8661 37.1339C21.1005 37.3683 21.4185 37.5 21.75 37.5C22.0815 37.5 22.3995 37.3683 22.6339 37.1339C22.8683 36.8995 23 36.5815 23 36.25V7.3125L25.7725 10.78C25.8751 10.9082 26.0019 11.0149 26.1458 11.0941C26.2896 11.1733 26.4477 11.2234 26.6109 11.2415C26.7741 11.2596 26.9392 11.2454 27.0969 11.1997C27.2546 11.1539 27.4018 11.0776 27.53 10.975C27.6582 10.8724 27.7649 10.7456 27.8441 10.6017C27.9233 10.4579 27.9734 10.2998 27.9915 10.1366C28.0096 9.97344 27.9954 9.80827 27.9497 9.65056C27.9039 9.49286 27.8276 9.3457 27.725 9.2175L27.7275 9.22Z" fill="#181818"/>
</svg>
