<svg width="40" height="36" viewBox="0 0 40 36" fill="none" xmlns="http://www.w3.org/2000/svg">
<path d="M15 20.5C19.1421 20.5 22.5 17.1421 22.5 13C22.5 8.85786 19.1421 5.5 15 5.5C10.8579 5.5 7.5 8.85786 7.5 13C7.5 17.1421 10.8579 20.5 15 20.5Z" fill="#181818"/>
<path d="M29.5625 28.3025C25.4849 24.8721 20.3274 22.9911 14.9987 22.9911C9.67012 22.9911 4.51253 24.8721 0.434989 28.3025C0.297384 28.4188 0.187076 28.564 0.111896 28.7278C0.036717 28.8915 -0.0014896 29.0698 -1.06742e-05 29.25V32.7025C-0.0297553 33.0525 0.0122855 33.4049 0.123535 33.7381C0.234785 34.0713 0.412901 34.3782 0.646966 34.6401C0.881032 34.9021 1.16612 35.1134 1.48475 35.2613C1.80338 35.4091 2.14885 35.4904 2.49999 35.5H27.5C28.163 35.5 28.7989 35.2366 29.2678 34.7678C29.7366 34.2989 30 33.663 30 33V29.6075C30.0345 29.3709 30.0128 29.1295 29.9368 28.9028C29.8608 28.6761 29.7326 28.4705 29.5625 28.3025Z" fill="#181818"/>
<path d="M25 13C24.9998 13.8324 24.8948 14.6614 24.6875 15.4675C24.7925 15.4675 24.8925 15.5 25 15.5C26.2927 15.5017 27.5638 15.1693 28.6901 14.535C29.8165 13.9007 30.7597 12.986 31.4284 11.8798C32.0971 10.7735 32.4685 9.51321 32.5066 8.22112C32.5447 6.92903 32.2483 5.64902 31.6459 4.50528C31.0436 3.36153 30.1559 2.39288 29.0689 1.6933C27.9819 0.993716 26.7326 0.586951 25.4421 0.512467C24.1516 0.437982 22.8637 0.698307 21.7034 1.26819C20.5432 1.83806 19.5499 2.69815 18.82 3.765C20.6479 4.52057 22.2108 5.80126 23.3108 7.44509C24.4108 9.08892 24.9987 11.0221 25 13V13Z" fill="#181818"/>
<path d="M39.5625 23.3025C35.1149 19.5643 29.3982 17.6833 23.6 18.05C22.8746 19.2819 21.8965 20.3461 20.73 21.1725C24.6111 22.0745 28.2215 23.8879 31.2625 26.4625C31.658 26.8101 31.9734 27.2393 32.187 27.7205C32.4007 28.2017 32.5074 28.7235 32.5 29.25V30.5H37.5C38.163 30.5 38.7989 30.2366 39.2677 29.7678C39.7366 29.2989 40 28.663 40 28V24.25C39.9996 24.0699 39.9604 23.8919 39.8848 23.7284C39.8093 23.5649 39.6994 23.4196 39.5625 23.3025Z" fill="#181818"/>
</svg>
