<svg width="40" height="40" viewBox="0 0 40 40" fill="none" xmlns="http://www.w3.org/2000/svg">
<g clip-path="url(#clip0_9_1840)">
<path d="M37.5 0H2.5C1.83696 0 1.20107 0.263392 0.732233 0.732233C0.263392 1.20107 0 1.83696 0 2.5L0 30C0 30.663 0.263392 31.2989 0.732233 31.7678C1.20107 32.2366 1.83696 32.5 2.5 32.5H13.165L19.04 39.55C19.1573 39.6911 19.3042 39.8047 19.4704 39.8826C19.6365 39.9605 19.8177 40.0009 20.0012 40.0009C20.1848 40.0009 20.366 39.9605 20.5321 39.8826C20.6983 39.8047 20.8452 39.6911 20.9625 39.55L26.835 32.5H37.5C38.163 32.5 38.7989 32.2366 39.2678 31.7678C39.7366 31.2989 40 30.663 40 30V2.5C40 1.83696 39.7366 1.20107 39.2678 0.732233C38.7989 0.263392 38.163 0 37.5 0V0ZM20 5C20.9889 5 21.9556 5.29324 22.7779 5.84265C23.6001 6.39206 24.241 7.17295 24.6194 8.08658C24.9978 9.00021 25.0969 10.0055 24.9039 10.9755C24.711 11.9454 24.2348 12.8363 23.5355 13.5355C22.8363 14.2348 21.9454 14.711 20.9755 14.9039C20.0055 15.0969 19.0002 14.9978 18.0866 14.6194C17.173 14.241 16.3921 13.6001 15.8427 12.7779C15.2932 11.9556 15 10.9889 15 10C15 8.67392 15.5268 7.40215 16.4645 6.46447C17.4021 5.52678 18.6739 5 20 5V5ZM26.25 25H13.75C13.4185 25 13.1005 24.8683 12.8661 24.6339C12.6317 24.3995 12.5 24.0815 12.5 23.75C12.5 22.0924 13.1585 20.5027 14.3306 19.3306C15.5027 18.1585 17.0924 17.5 18.75 17.5H21.25C22.9076 17.5 24.4973 18.1585 25.6694 19.3306C26.8415 20.5027 27.5 22.0924 27.5 23.75C27.5 24.0815 27.3683 24.3995 27.1339 24.6339C26.8995 24.8683 26.5815 25 26.25 25Z" fill="#181818"/>
</g>
<defs>
<clipPath id="clip0_9_1840">
<rect width="40" height="40" fill="white"/>
</clipPath>
</defs>
</svg>
