<svg width="35" height="40" viewBox="0 0 35 40" fill="none" xmlns="http://www.w3.org/2000/svg">
<path d="M19.5 3.74183e-07C15.5232 0.0046319 11.7106 1.58647 8.89851 4.39851C6.08647 7.21056 4.50463 11.0232 4.5 15V17.205L0.8825 24.44C0.787004 24.6306 0.741829 24.8424 0.751268 25.0554C0.760707 25.2683 0.824446 25.4753 0.936429 25.6567C1.04841 25.8381 1.20492 25.9878 1.39107 26.0916C1.57722 26.1955 1.78684 26.25 2 26.25H4.5V32.27C4.50065 32.6322 4.57999 32.9899 4.73253 33.3184C4.88507 33.6469 5.10716 33.9384 5.38345 34.1726C5.65973 34.4068 5.98361 34.5781 6.33266 34.6748C6.6817 34.7715 7.04759 34.7912 7.405 34.7325L12 33.975V38.75C12 39.0815 12.1317 39.3995 12.3661 39.6339C12.6005 39.8683 12.9185 40 13.25 40C13.3187 40.0002 13.3873 39.9944 13.455 39.9825L28.455 37.4825C28.7469 37.434 29.0121 37.2835 29.2034 37.0578C29.3948 36.8321 29.4999 36.5459 29.5 36.25V28.5475C29.548 27.0729 30.1034 25.66 31.0725 24.5475C32.8835 22.3531 34.033 19.6889 34.3869 16.8658C34.7408 14.0427 34.2845 11.1772 33.0712 8.60366C31.858 6.03013 29.9378 3.85473 27.5348 2.33133C25.1319 0.807928 22.3452 -0.000635009 19.5 3.74183e-07V3.74183e-07ZM24.25 14.5L16.75 24.5C16.5717 24.7367 16.315 24.9023 16.0259 24.9673C15.7368 25.0323 15.434 24.9925 15.1715 24.8549C14.909 24.7174 14.7039 24.4911 14.5929 24.2163C14.4818 23.9416 14.4719 23.6363 14.565 23.355L16.515 17.5H13.25C13.0368 17.5 12.8272 17.4455 12.6411 17.3416C12.4549 17.2378 12.2984 17.0881 12.1864 16.9067C12.0744 16.7253 12.0107 16.5183 12.0013 16.3054C11.9918 16.0924 12.037 15.8806 12.1325 15.69L15.8825 8.19C15.9864 7.98263 16.146 7.80827 16.3433 7.68641C16.5407 7.56455 16.7681 7.50001 17 7.5H20.75C20.9632 7.50001 21.1728 7.55453 21.3589 7.65837C21.5451 7.76222 21.7016 7.91195 21.8136 8.09332C21.9256 8.2747 21.9893 8.4817 21.9987 8.69465C22.0082 8.9076 21.963 9.11943 21.8675 9.31L20.2725 12.5H23.25C23.4821 12.5 23.7097 12.5646 23.9072 12.6867C24.1046 12.8087 24.2642 12.9834 24.368 13.191C24.4718 13.3986 24.5158 13.6311 24.4949 13.8623C24.4741 14.0935 24.3893 14.3143 24.25 14.5Z" fill="#181818"/>
</svg>
