<svg width="40" height="40" viewBox="0 0 40 40" fill="none" xmlns="http://www.w3.org/2000/svg">
<g clip-path="url(#clip0_9_1851)">
<path d="M20 0C16.0444 0 12.1776 1.17298 8.8886 3.37061C5.59962 5.56824 3.03617 8.69181 1.52242 12.3463C0.00866562 16.0009 -0.387401 20.0222 0.384303 23.9018C1.15601 27.7814 3.06082 31.3451 5.85787 34.1421C8.65492 36.9392 12.2186 38.844 16.0982 39.6157C19.9778 40.3874 23.9992 39.9913 27.6537 38.4776C31.3082 36.9638 34.4318 34.4004 36.6294 31.1114C38.827 27.8224 40 23.9556 40 20C39.9941 14.6975 37.885 9.61388 34.1356 5.86444C30.3861 2.115 25.3025 0.00595527 20 0V0ZM20 2.5C23.3131 2.49731 26.5588 3.43584 29.3592 5.20631C32.1596 6.97678 34.3994 9.50634 35.8179 12.5004C37.2364 15.4945 37.7751 18.83 37.3714 22.1184C36.9677 25.4068 35.6381 28.5129 33.5375 31.075C32.8923 30.7081 32.1965 30.4385 31.4725 30.275L25.99 29.175C25.7068 29.1201 25.4517 28.9678 25.269 28.7445C25.0864 28.5212 24.9877 28.241 24.99 27.9525V26.525C30.4525 26.0025 31.24 24.8875 31.24 23.75C30.7661 19.5306 29.8948 15.3655 28.6375 11.31C28.6978 10.5851 28.6138 9.85545 28.3902 9.16327C28.1666 8.47109 27.808 7.83013 27.335 7.2775C26.6915 6.70211 25.8739 6.35885 25.0125 6.3025C24.7219 6.26591 24.436 6.19802 24.16 6.1C22.87 5.38669 21.4216 5.00847 19.9475 5C18.0671 5.07456 16.2471 5.68446 14.7015 6.75798C13.1559 7.83149 11.9489 9.324 11.2225 11.06C10.0058 15.204 9.17809 19.4524 8.75001 23.75C8.75001 25.3675 10.5775 26.22 15 26.61V27.95C15.0001 28.2382 14.9006 28.5175 14.7183 28.7407C14.5361 28.964 14.2824 29.1174 14 29.175L8.50001 30.275C7.77962 30.4387 7.08721 30.7074 6.44501 31.0725C4.34944 28.5077 3.02472 25.4009 2.6248 22.1131C2.22487 18.8253 2.76616 15.4915 4.18577 12.4992C5.60537 9.50678 7.84499 6.9787 10.6444 5.20868C13.4438 3.43866 16.688 2.49938 20 2.5V2.5Z" fill="#181818"/>
</g>
<defs>
<clipPath id="clip0_9_1851">
<rect width="40" height="40" fill="white"/>
</clipPath>
</defs>
</svg>
