<svg width="36" height="38" viewBox="0 0 36 38" fill="none" xmlns="http://www.w3.org/2000/svg">
<path d="M29.4725 25.275L24 24.1775C23.7177 24.1199 23.4639 23.9665 23.2817 23.7432C23.0994 23.52 22.9999 23.2407 23 22.9525V21.525C28.4625 21.005 29.25 19.8875 29.25 18.75C28.776 14.5305 27.9038 10.3652 26.645 6.31C26.7062 5.58506 26.6225 4.85519 26.3989 4.16288C26.1753 3.47058 25.8162 2.82968 25.3425 2.2775C24.7001 1.70196 23.8832 1.35864 23.0225 1.3025C22.7318 1.26642 22.4459 1.19851 22.17 1.1C20.877 0.384965 19.425 0.00669023 17.9475 0C16.0671 0.0745609 14.2471 0.684457 12.7015 1.75798C11.1559 2.83149 9.94891 4.324 9.2225 6.06C8.00583 10.204 7.17808 14.4524 6.75 18.75C6.75 20.3675 8.58 21.22 13 21.61V22.9525C13.0001 23.2407 12.9006 23.52 12.7183 23.7432C12.5361 23.9665 12.2823 24.1199 12 24.1775L6.5375 25.2725C4.83612 25.6108 3.3046 26.5283 2.20376 27.8689C1.10291 29.2096 0.500815 30.8903 0.5 32.625V35C0.5 35.663 0.763392 36.2989 1.23223 36.7678C1.70107 37.2366 2.33696 37.5 3 37.5H33C33.663 37.5 34.2989 37.2366 34.7678 36.7678C35.2366 36.2989 35.5 35.663 35.5 35V32.625C35.4991 30.8922 34.8981 29.2131 33.7993 27.8732C32.7005 26.5333 31.1716 25.6152 29.4725 25.275V25.275Z" fill="#181818"/>
</svg>
