<svg width="40" height="40" viewBox="0 0 40 40" fill="none" xmlns="http://www.w3.org/2000/svg">
<g clip-path="url(#clip0_9_1830)">
<path d="M15 10C17.7614 10 20 7.76142 20 5C20 2.23858 17.7614 0 15 0C12.2386 0 10 2.23858 10 5C10 7.76142 12.2386 10 15 10Z" fill="#181818"/>
<path d="M18.8675 12.5H17.5C17.3357 12.4997 17.173 12.5318 17.0212 12.5944C16.8693 12.6571 16.7313 12.749 16.615 12.865L15 14.48L13.385 12.865C13.2687 12.749 13.1307 12.6571 12.9788 12.5944C12.827 12.5318 12.6643 12.4997 12.5 12.5H11.1325C10.5106 12.4969 9.90983 12.7257 9.44756 13.1417C8.98528 13.5578 8.69468 14.1312 8.6325 14.75L7.5 26.125C7.48247 26.2993 7.5018 26.4754 7.55672 26.6418C7.61164 26.8082 7.70094 26.9612 7.8188 27.0909C7.93667 27.2205 8.08048 27.3239 8.2409 27.3944C8.40133 27.4649 8.57477 27.5009 8.75 27.5H10.1175L11.1425 37.75C11.2047 38.3688 11.4953 38.9422 11.9576 39.3583C12.4198 39.7743 13.0206 40.0031 13.6425 40H16.3675C16.9894 40.0031 17.5902 39.7743 18.0524 39.3583C18.5147 38.9422 18.8053 38.3688 18.8675 37.75L19.8925 27.5H21.25C21.4252 27.5009 21.5987 27.4649 21.7591 27.3944C21.9195 27.3239 22.0633 27.2205 22.1812 27.0909C22.2991 26.9612 22.3883 26.8082 22.4433 26.6418C22.4982 26.4754 22.5175 26.2993 22.5 26.125L21.355 14.75C21.293 14.1333 21.0042 13.5617 20.5446 13.1459C20.0849 12.7302 19.4873 12.5 18.8675 12.5Z" fill="#181818"/>
<path d="M34.7275 30.7825L29.7275 37.0325C29.715 37.0475 29.6925 37.0525 29.68 37.0675C29.5662 37.2031 29.4241 37.3121 29.2636 37.3869C29.1032 37.4618 28.9283 37.5005 28.7513 37.5005C28.5742 37.5005 28.3993 37.4618 28.2389 37.3869C28.0784 37.3121 27.9363 37.2031 27.8225 37.0675C27.81 37.0525 27.7875 37.0475 27.775 37.0325L22.775 30.7825C22.6724 30.6543 22.5961 30.5071 22.5503 30.3494C22.5046 30.1917 22.4904 30.0266 22.5085 29.8634C22.5266 29.7002 22.5767 29.5421 22.6559 29.3983C22.7351 29.2544 22.8418 29.1276 22.97 29.025C23.0982 28.9224 23.2454 28.8461 23.4031 28.8003C23.5608 28.7546 23.7259 28.7404 23.8891 28.7585C24.0523 28.7766 24.2104 28.8267 24.3542 28.9059C24.4981 28.9851 24.6249 29.0918 24.7275 29.22L27.5 32.6875V3.75C27.5 3.41848 27.6317 3.10054 27.8661 2.86612C28.1005 2.6317 28.4185 2.5 28.75 2.5C29.0815 2.5 29.3995 2.6317 29.6339 2.86612C29.8683 3.10054 30 3.41848 30 3.75V32.6875L32.7725 29.22C32.8751 29.0918 33.0019 28.9851 33.1458 28.9059C33.2896 28.8267 33.4477 28.7766 33.6109 28.7585C33.7741 28.7404 33.9392 28.7546 34.0969 28.8003C34.2546 28.8461 34.4018 28.9224 34.53 29.025C34.6582 29.1276 34.7649 29.2544 34.8441 29.3983C34.9233 29.5421 34.9734 29.7002 34.9915 29.8634C35.0096 30.0266 34.9954 30.1917 34.9497 30.3494C34.9039 30.5071 34.8276 30.6543 34.725 30.7825H34.7275Z" fill="#181818"/>
</g>
<defs>
<clipPath id="clip0_9_1830">
<rect width="40" height="40" fill="white"/>
</clipPath>
</defs>
</svg>
