<svg width="36" height="40" viewBox="0 0 36 40" fill="none" xmlns="http://www.w3.org/2000/svg">
<path d="M29.47 27.7675L24 26.6775C23.7177 26.6199 23.4639 26.4665 23.2817 26.2432C23.0994 26.02 22.9999 25.7407 23 25.4525V24.2025C23.3936 23.606 23.7437 22.9819 24.0475 22.335C24.2907 21.8133 24.5749 21.3117 24.8975 20.835C26.124 19.7856 27.0071 18.3921 27.4325 16.835C27.5756 16.347 27.6173 15.8348 27.555 15.33C27.4926 14.8252 27.3276 14.3386 27.07 13.9C27.1242 12.1984 26.9816 10.4963 26.645 8.8275C26.7047 8.104 26.6205 7.37585 26.3974 6.68503C26.1743 5.99422 25.8166 5.35441 25.345 4.8025C24.702 4.22837 23.8852 3.88601 23.025 3.83C22.736 3.79607 22.4517 3.72982 22.1775 3.6325C20.8874 2.90431 19.4339 2.5147 17.9525 2.5C16.0833 2.5656 14.2716 3.16309 12.7302 4.22233C11.1887 5.28157 9.98138 6.7586 9.25 8.48C8.90119 9.95964 8.78396 11.4844 8.9025 13L8.8675 13.8775C8.39107 14.7787 8.27833 15.8282 8.5525 16.81C8.97693 18.3669 9.85922 19.7604 11.085 20.81C11.4121 21.2918 11.6997 21.7993 11.945 22.3275C12.2523 22.9748 12.6048 23.5997 13 24.1975V25.4475C13.0001 25.7357 12.9006 26.015 12.7183 26.2382C12.5361 26.4615 12.2823 26.6149 12 26.6725L6.5325 27.765C4.83294 28.1089 3.3043 29.0292 2.2051 30.3703C1.10589 31.7114 0.503574 33.391 0.5 35.125V37.5C0.5 38.163 0.763392 38.7989 1.23223 39.2678C1.70107 39.7366 2.33696 40 3 40H33C33.663 40 34.2989 39.7366 34.7678 39.2678C35.2366 38.7989 35.5 38.163 35.5 37.5V35.125C35.496 33.3918 34.8937 31.7131 33.7951 30.3725C32.6964 29.032 31.1687 28.1118 29.47 27.7675V27.7675Z" fill="#181818"/>
<path d="M1.75 10C2.08152 10 2.39946 9.8683 2.63388 9.63388C2.8683 9.39946 3 9.08152 3 8.75V2.5H6.75C7.08152 2.5 7.39946 2.3683 7.63388 2.13388C7.8683 1.89946 8 1.58152 8 1.25C8 0.918479 7.8683 0.600537 7.63388 0.366117C7.39946 0.131696 7.08152 0 6.75 0L1.75 0C1.41848 0 1.10054 0.131696 0.866116 0.366117C0.631696 0.600537 0.5 0.918479 0.5 1.25V8.75C0.5 9.08152 0.631696 9.39946 0.866116 9.63388C1.10054 9.8683 1.41848 10 1.75 10Z" fill="#181818"/>
<path d="M1.75 25H6.75C7.08152 25 7.39946 24.8683 7.63388 24.6339C7.8683 24.3995 8 24.0815 8 23.75C8 23.4185 7.8683 23.1005 7.63388 22.8661C7.39946 22.6317 7.08152 22.5 6.75 22.5H3V16.25C3 15.9185 2.8683 15.6005 2.63388 15.3661C2.39946 15.1317 2.08152 15 1.75 15C1.41848 15 1.10054 15.1317 0.866116 15.3661C0.631696 15.6005 0.5 15.9185 0.5 16.25V23.75C0.5 24.0815 0.631696 24.3995 0.866116 24.6339C1.10054 24.8683 1.41848 25 1.75 25Z" fill="#181818"/>
<path d="M34.25 0H29.25C28.9185 0 28.6005 0.131696 28.3661 0.366117C28.1317 0.600537 28 0.918479 28 1.25C28 1.58152 28.1317 1.89946 28.3661 2.13388C28.6005 2.3683 28.9185 2.5 29.25 2.5H33V8.75C33 9.08152 33.1317 9.39946 33.3661 9.63388C33.6005 9.8683 33.9185 10 34.25 10C34.5815 10 34.8995 9.8683 35.1339 9.63388C35.3683 9.39946 35.5 9.08152 35.5 8.75V1.25C35.5 0.918479 35.3683 0.600537 35.1339 0.366117C34.8995 0.131696 34.5815 0 34.25 0V0Z" fill="#181818"/>
<path d="M34.25 15C33.9185 15 33.6005 15.1317 33.3661 15.3661C33.1317 15.6005 33 15.9185 33 16.25V22.5H29.25C28.9185 22.5 28.6005 22.6317 28.3661 22.8661C28.1317 23.1005 28 23.4185 28 23.75C28 24.0815 28.1317 24.3995 28.3661 24.6339C28.6005 24.8683 28.9185 25 29.25 25H34.25C34.5815 25 34.8995 24.8683 35.1339 24.6339C35.3683 24.3995 35.5 24.0815 35.5 23.75V16.25C35.5 15.9185 35.3683 15.6005 35.1339 15.3661C34.8995 15.1317 34.5815 15 34.25 15Z" fill="#181818"/>
</svg>
