<svg width="23" height="40" viewBox="0 0 23 40" fill="none" xmlns="http://www.w3.org/2000/svg">
<path d="M8 10C10.7614 10 13 7.76142 13 5C13 2.23858 10.7614 0 8 0C5.23858 0 3 2.23858 3 5C3 7.76142 5.23858 10 8 10Z" fill="#181818"/>
<path d="M11.8675 12.5H10.5C10.3357 12.4997 10.173 12.5318 10.0212 12.5944C9.86931 12.6571 9.73129 12.749 9.615 12.865L8 14.48L6.385 12.865C6.2687 12.749 6.13068 12.6571 5.97882 12.5944C5.82697 12.5318 5.66426 12.4997 5.5 12.5H4.1325C3.51058 12.4969 2.90983 12.7257 2.44756 13.1417C1.98528 13.5578 1.69468 14.1312 1.6325 14.75L0.499996 26.125C0.482471 26.2993 0.501798 26.4754 0.556721 26.6418C0.611643 26.8082 0.700935 26.9612 0.818803 27.0909C0.936672 27.2205 1.08048 27.3239 1.2409 27.3944C1.40133 27.4649 1.57477 27.5009 1.75 27.5H3.1175L4.1425 37.75C4.20468 38.3688 4.49528 38.9422 4.95756 39.3583C5.41983 39.7743 6.02058 40.0031 6.6425 40H9.3675C9.98941 40.0031 10.5902 39.7743 11.0524 39.3583C11.5147 38.9422 11.8053 38.3688 11.8675 37.75L12.8925 27.5H14.25C14.4252 27.5009 14.5987 27.4649 14.7591 27.3944C14.9195 27.3239 15.0633 27.2205 15.1812 27.0909C15.2991 26.9612 15.3883 26.8082 15.4433 26.6418C15.4982 26.4754 15.5175 26.2993 15.5 26.125L14.355 14.75C14.293 14.1333 14.0042 13.5617 13.5446 13.1459C13.0849 12.7302 12.4873 12.5 11.8675 12.5Z" fill="#181818"/>
<path d="M21.75 27.5H20.5V26.25C20.5 25.9185 20.3683 25.6005 20.1339 25.3661C19.8995 25.1317 19.5815 25 19.25 25C18.9185 25 18.6005 25.1317 18.3661 25.3661C18.1317 25.6005 18 25.9185 18 26.25V27.5H16.75C16.4185 27.5 16.1005 27.6317 15.8661 27.8661C15.6317 28.1005 15.5 28.4185 15.5 28.75V38.75C15.5 39.0815 15.6317 39.3995 15.8661 39.6339C16.1005 39.8683 16.4185 40 16.75 40H21.75C22.0815 40 22.3995 39.8683 22.6339 39.6339C22.8683 39.3995 23 39.0815 23 38.75V28.75C23 28.4185 22.8683 28.1005 22.6339 27.8661C22.3995 27.6317 22.0815 27.5 21.75 27.5Z" fill="#181818"/>
</svg>
