<svg width="38" height="28" viewBox="0 0 38 28" fill="none" xmlns="http://www.w3.org/2000/svg">
<path d="M37.3667 27.9333H0.633333C0.253333 27.9333 0 27.68 0 27.3V0.700014C0 0.320014 0.253333 0.0666809 0.633333 0.0666809H37.3667C37.7467 0.0666809 38 0.320014 38 0.700014V27.3C38 27.68 37.7467 27.9333 37.3667 27.9333ZM1.26667 26.6667H36.7333V1.33335H1.26667V26.6667Z" fill="black"/>
<path d="M4.43334 6.40003C4.05334 6.40003 3.8 6.14669 3.8 5.7667C3.8 5.3867 4.05334 5.13336 4.43334 5.13336C4.81334 5.13336 5.06667 5.3867 5.06667 5.7667C5.06667 6.14669 4.81334 6.40003 4.43334 6.40003Z" fill="black"/>
<path d="M4.43334 3.86667C4.05334 3.86667 3.8 3.61334 3.8 3.23334C3.8 2.85334 4.05334 2.60001 4.43334 2.60001C4.81334 2.60001 5.06667 2.85334 5.06667 3.23334C5.06667 3.61334 4.81334 3.86667 4.43334 3.86667Z" fill="black"/>
<path d="M6.96667 10.2C6.58667 10.2 6.33334 9.94668 6.33334 9.56668C6.33334 9.18668 6.58667 8.93335 6.96667 8.93335C7.34667 8.93335 7.6 9.18668 7.6 9.56668C7.6 9.94668 7.34667 10.2 6.96667 10.2Z" fill="black"/>
<path d="M1.9 12.7333C1.52 12.7333 1.26667 12.48 1.26667 12.1C1.26667 11.72 1.52 11.4667 1.9 11.4667C2.28 11.4667 2.53334 11.72 2.53334 12.1C2.53334 12.48 2.28 12.7333 1.9 12.7333Z" fill="black"/>
<path d="M1.9 15.2667C1.52 15.2667 1.26667 15.0133 1.26667 14.6333C1.26667 14.2533 1.52 14 1.9 14C2.28 14 2.53334 14.2533 2.53334 14.6333C2.53334 15.0133 2.28 15.2667 1.9 15.2667Z" fill="black"/>
<path d="M1.9 17.8C1.52 17.8 1.26667 17.5467 1.26667 17.1667C1.26667 16.7867 1.52 16.5334 1.9 16.5334C2.28 16.5334 2.53334 16.7867 2.53334 17.1667C2.53334 17.5467 2.28 17.8 1.9 17.8Z" fill="black"/>
<path d="M1.9 20.3333C1.52 20.3333 1.26667 20.08 1.26667 19.7C1.26667 19.32 1.52 19.0667 1.9 19.0667C2.28 19.0667 2.53334 19.32 2.53334 19.7C2.53334 20.08 2.28 20.3333 1.9 20.3333Z" fill="black"/>
<path d="M1.9 22.8667C1.52 22.8667 1.26667 22.6133 1.26667 22.2333C1.26667 21.8533 1.52 21.6 1.9 21.6C2.28 21.6 2.53334 21.8533 2.53334 22.2333C2.53334 22.6133 2.28 22.8667 1.9 22.8667Z" fill="black"/>
<path d="M1.9 25.4C1.52 25.4 1.26667 25.1467 1.26667 24.7667C1.26667 24.3867 1.52 24.1334 1.9 24.1334C2.28 24.1334 2.53334 24.3867 2.53334 24.7667C2.53334 25.1467 2.28 25.4 1.9 25.4Z" fill="black"/>
<path d="M9.5 8.93335C9.12 8.93335 8.86667 8.68002 8.86667 8.30002C8.86667 7.92002 9.12 7.66669 9.5 7.66669C9.88 7.66669 10.1333 7.92002 10.1333 8.30002C10.1333 8.68002 9.88 8.93335 9.5 8.93335Z" fill="black"/>
<path d="M9.5 11.4667C9.12 11.4667 8.86667 11.2133 8.86667 10.8333C8.86667 10.4533 9.12 10.2 9.5 10.2C9.88 10.2 10.1333 10.4533 10.1333 10.8333C10.1333 11.2133 9.88 11.4667 9.5 11.4667Z" fill="black"/>
<path d="M4.43334 14C4.05334 14 3.8 13.7467 3.8 13.3667C3.8 12.9867 4.05334 12.7333 4.43334 12.7333C4.81334 12.7333 5.06667 12.9867 5.06667 13.3667C5.06667 13.7467 4.81334 14 4.43334 14Z" fill="black"/>
<path d="M4.43334 16.5334C4.05334 16.5334 3.8 16.28 3.8 15.9C3.8 15.52 4.05334 15.2667 4.43334 15.2667C4.81334 15.2667 5.06667 15.52 5.06667 15.9C5.06667 16.28 4.81334 16.5334 4.43334 16.5334Z" fill="black"/>
<path d="M4.43334 19.0667C4.05334 19.0667 3.8 18.8133 3.8 18.4334C3.8 18.0534 4.05334 17.8 4.43334 17.8C4.81334 17.8 5.06667 18.0534 5.06667 18.4334C5.06667 18.8133 4.81334 19.0667 4.43334 19.0667Z" fill="black"/>
<path d="M4.43334 21.6C4.05334 21.6 3.8 21.3467 3.8 20.9667C3.8 20.5867 4.05334 20.3333 4.43334 20.3333C4.81334 20.3333 5.06667 20.5867 5.06667 20.9667C5.06667 21.3467 4.81334 21.6 4.43334 21.6Z" fill="black"/>
<path d="M4.43334 24.1333C4.05334 24.1333 3.8 23.88 3.8 23.5C3.8 23.12 4.05334 22.8667 4.43334 22.8667C4.81334 22.8667 5.06667 23.12 5.06667 23.5C5.06667 23.88 4.81334 24.1333 4.43334 24.1333Z" fill="black"/>
<path d="M4.43334 26.6667C4.05334 26.6667 3.8 26.4134 3.8 26.0334C3.8 25.6534 4.05334 25.4 4.43334 25.4C4.81334 25.4 5.06667 25.6534 5.06667 26.0334C5.06667 26.4134 4.81334 26.6667 4.43334 26.6667Z" fill="black"/>
<path d="M1.9 7.66669C1.52 7.66669 1.26667 7.41336 1.26667 7.03336C1.26667 6.65336 1.52 6.40002 1.9 6.40002C2.28 6.40002 2.53334 6.65336 2.53334 7.03336C2.53334 7.41336 2.28 7.66669 1.9 7.66669Z" fill="black"/>
<path d="M1.9 5.13334C1.52 5.13334 1.26667 4.88 1.26667 4.5C1.26667 4.12 1.52 3.86667 1.9 3.86667C2.28 3.86667 2.53334 4.12 2.53334 4.5C2.53334 4.88 2.28 5.13334 1.9 5.13334Z" fill="black"/>
<path d="M12.0333 10.2C11.6533 10.2 11.4 9.94668 11.4 9.56668C11.4 9.18668 11.6533 8.93335 12.0333 8.93335C12.4133 8.93335 12.6667 9.18668 12.6667 9.56668C12.6667 9.94668 12.4133 10.2 12.0333 10.2Z" fill="black"/>
<path d="M4.43334 11.4667C4.05334 11.4667 3.8 11.2133 3.8 10.8333C3.8 10.4533 4.05334 10.2 4.43334 10.2C4.81334 10.2 5.06667 10.4533 5.06667 10.8333C5.06667 11.2133 4.81334 11.4667 4.43334 11.4667Z" fill="black"/>
<path d="M6.96667 15.2667C6.58667 15.2667 6.33334 15.0133 6.33334 14.6333C6.33334 14.2533 6.58667 14 6.96667 14C7.34667 14 7.6 14.2533 7.6 14.6333C7.6 15.0133 7.34667 15.2667 6.96667 15.2667Z" fill="black"/>
<path d="M6.96667 17.8C6.58667 17.8 6.33334 17.5467 6.33334 17.1667C6.33334 16.7867 6.58667 16.5334 6.96667 16.5334C7.34667 16.5334 7.6 16.7867 7.6 17.1667C7.6 17.5467 7.34667 17.8 6.96667 17.8Z" fill="black"/>
<path d="M6.96667 20.3333C6.58667 20.3333 6.33334 20.08 6.33334 19.7C6.33334 19.32 6.58667 19.0667 6.96667 19.0667C7.34667 19.0667 7.6 19.32 7.6 19.7C7.6 20.08 7.34667 20.3333 6.96667 20.3333Z" fill="black"/>
<path d="M6.96667 22.8667C6.58667 22.8667 6.33334 22.6133 6.33334 22.2333C6.33334 21.8533 6.58667 21.6 6.96667 21.6C7.34667 21.6 7.6 21.8533 7.6 22.2333C7.6 22.6133 7.34667 22.8667 6.96667 22.8667Z" fill="black"/>
<path d="M6.96667 25.4C6.58667 25.4 6.33334 25.1467 6.33334 24.7667C6.33334 24.3867 6.58667 24.1334 6.96667 24.1334C7.34667 24.1334 7.6 24.3867 7.6 24.7667C7.6 25.1467 7.34667 25.4 6.96667 25.4Z" fill="black"/>
<path d="M6.96667 7.66669C6.58667 7.66669 6.33334 7.41336 6.33334 7.03336C6.33334 6.65336 6.58667 6.40002 6.96667 6.40002C7.34667 6.40002 7.6 6.65336 7.6 7.03336C7.6 7.41336 7.34667 7.66669 6.96667 7.66669Z" fill="black"/>
<path d="M6.96667 5.13334C6.58667 5.13334 6.33334 4.88 6.33334 4.5C6.33334 4.12 6.58667 3.86667 6.96667 3.86667C7.34667 3.86667 7.6 4.12 7.6 4.5C7.6 4.88 7.34667 5.13334 6.96667 5.13334Z" fill="black"/>
<path d="M1.9 10.2C1.52 10.2 1.26667 9.94668 1.26667 9.56668C1.26667 9.18668 1.52 8.93335 1.9 8.93335C2.28 8.93335 2.53334 9.18668 2.53334 9.56668C2.53334 9.94668 2.28 10.2 1.9 10.2Z" fill="black"/>
<path d="M9.5 14C9.12 14 8.86667 13.7467 8.86667 13.3667C8.86667 12.9867 9.12 12.7333 9.5 12.7333C9.88 12.7333 10.1333 12.9867 10.1333 13.3667C10.1333 13.7467 9.88 14 9.5 14Z" fill="black"/>
<path d="M9.5 16.5334C9.12 16.5334 8.86667 16.28 8.86667 15.9C8.86667 15.52 9.12 15.2667 9.5 15.2667C9.88 15.2667 10.1333 15.52 10.1333 15.9C10.1333 16.28 9.88 16.5334 9.5 16.5334Z" fill="black"/>
<path d="M9.5 19.0667C9.12 19.0667 8.86667 18.8133 8.86667 18.4334C8.86667 18.0534 9.12 17.8 9.5 17.8C9.88 17.8 10.1333 18.0534 10.1333 18.4334C10.1333 18.8133 9.88 19.0667 9.5 19.0667Z" fill="black"/>
<path d="M9.5 21.6C9.12 21.6 8.86667 21.3467 8.86667 20.9667C8.86667 20.5867 9.12 20.3333 9.5 20.3333C9.88 20.3333 10.1333 20.5867 10.1333 20.9667C10.1333 21.3467 9.88 21.6 9.5 21.6Z" fill="black"/>
<path d="M9.5 24.1333C9.12 24.1333 8.86667 23.88 8.86667 23.5C8.86667 23.12 9.12 22.8667 9.5 22.8667C9.88 22.8667 10.1333 23.12 10.1333 23.5C10.1333 23.88 9.88 24.1333 9.5 24.1333Z" fill="black"/>
<path d="M9.5 26.6667C9.12 26.6667 8.86667 26.4134 8.86667 26.0334C8.86667 25.6534 9.12 25.4 9.5 25.4C9.88 25.4 10.1333 25.6534 10.1333 26.0334C10.1333 26.4134 9.88 26.6667 9.5 26.6667Z" fill="black"/>
<path d="M9.5 6.40003C9.12 6.40003 8.86667 6.14669 8.86667 5.7667C8.86667 5.3867 9.12 5.13336 9.5 5.13336C9.88 5.13336 10.1333 5.3867 10.1333 5.7667C10.1333 6.14669 9.88 6.40003 9.5 6.40003Z" fill="black"/>
<path d="M9.5 3.86667C9.12 3.86667 8.86667 3.61334 8.86667 3.23334C8.86667 2.85334 9.12 2.60001 9.5 2.60001C9.88 2.60001 10.1333 2.85334 10.1333 3.23334C10.1333 3.61334 9.88 3.86667 9.5 3.86667Z" fill="black"/>
<path d="M4.43334 8.93335C4.05334 8.93335 3.8 8.68002 3.8 8.30002C3.8 7.92002 4.05334 7.66669 4.43334 7.66669C4.81334 7.66669 5.06667 7.92002 5.06667 8.30002C5.06667 8.68002 4.81334 8.93335 4.43334 8.93335Z" fill="black"/>
<path d="M6.96667 12.7333C6.58667 12.7333 6.33334 12.48 6.33334 12.1C6.33334 11.72 6.58667 11.4667 6.96667 11.4667C7.34667 11.4667 7.6 11.72 7.6 12.1C7.6 12.48 7.34667 12.7333 6.96667 12.7333Z" fill="black"/>
<path d="M12.0333 15.2667C11.6533 15.2667 11.4 15.0133 11.4 14.6333C11.4 14.2533 11.6533 14 12.0333 14C12.4133 14 12.6667 14.2533 12.6667 14.6333C12.6667 15.0133 12.4133 15.2667 12.0333 15.2667Z" fill="black"/>
<path d="M12.0333 17.8C11.6533 17.8 11.4 17.5467 11.4 17.1667C11.4 16.7867 11.6533 16.5334 12.0333 16.5334C12.4133 16.5334 12.6667 16.7867 12.6667 17.1667C12.6667 17.5467 12.4133 17.8 12.0333 17.8Z" fill="black"/>
<path d="M12.0333 20.3333C11.6533 20.3333 11.4 20.08 11.4 19.7C11.4 19.32 11.6533 19.0667 12.0333 19.0667C12.4133 19.0667 12.6667 19.32 12.6667 19.7C12.6667 20.08 12.4133 20.3333 12.0333 20.3333Z" fill="black"/>
<path d="M12.0333 22.8667C11.6533 22.8667 11.4 22.6133 11.4 22.2333C11.4 21.8533 11.6533 21.6 12.0333 21.6C12.4133 21.6 12.6667 21.8533 12.6667 22.2333C12.6667 22.6133 12.4133 22.8667 12.0333 22.8667Z" fill="black"/>
<path d="M12.0333 25.4C11.6533 25.4 11.4 25.1467 11.4 24.7667C11.4 24.3867 11.6533 24.1334 12.0333 24.1334C12.4133 24.1334 12.6667 24.3867 12.6667 24.7667C12.6667 25.1467 12.4133 25.4 12.0333 25.4Z" fill="black"/>
<path d="M12.0333 7.66669C11.6533 7.66669 11.4 7.41336 11.4 7.03336C11.4 6.65336 11.6533 6.40002 12.0333 6.40002C12.4133 6.40002 12.6667 6.65336 12.6667 7.03336C12.6667 7.41336 12.4133 7.66669 12.0333 7.66669Z" fill="black"/>
<path d="M12.0333 12.7333C11.6533 12.7333 11.4 12.48 11.4 12.1C11.4 11.72 11.6533 11.4667 12.0333 11.4667C12.4133 11.4667 12.6667 11.72 12.6667 12.1C12.6667 12.48 12.4133 12.7333 12.0333 12.7333Z" fill="black"/>
<path d="M17.1 17.8C16.72 17.8 16.4667 17.5467 16.4667 17.1667C16.4667 16.7867 16.72 16.5334 17.1 16.5334C17.48 16.5334 17.7333 16.7867 17.7333 17.1667C17.7333 17.5467 17.48 17.8 17.1 17.8Z" fill="black"/>
<path d="M20.9 6.40003C20.52 6.40003 20.2667 6.14669 20.2667 5.7667C20.2667 5.3867 20.52 5.13336 20.9 5.13336C21.28 5.13336 21.5333 5.3867 21.5333 5.7667C21.5333 6.14669 21.28 6.40003 20.9 6.40003Z" fill="black"/>
<path d="M24.7 5.13334C24.32 5.13334 24.0667 4.88 24.0667 4.5C24.0667 4.12 24.32 3.86667 24.7 3.86667C25.08 3.86667 25.3333 4.12 25.3333 4.5C25.3333 4.88 25.08 5.13334 24.7 5.13334Z" fill="black"/>
<path d="M24.7 10.2C24.32 10.2 24.0667 9.94668 24.0667 9.56668C24.0667 9.18668 24.32 8.93335 24.7 8.93335C25.08 8.93335 25.3333 9.18668 25.3333 9.56668C25.3333 9.94668 25.08 10.2 24.7 10.2Z" fill="black"/>
<path d="M24.7 17.8C24.32 17.8 24.0667 17.5467 24.0667 17.1667C24.0667 16.7867 24.32 16.5334 24.7 16.5334C25.08 16.5334 25.3333 16.7867 25.3333 17.1667C25.3333 17.5467 25.08 17.8 24.7 17.8Z" fill="black"/>
<path d="M24.7 24.1333C24.32 24.1333 24.0667 23.88 24.0667 23.5C24.0667 23.12 24.32 22.8667 24.7 22.8667C25.08 22.8667 25.3333 23.12 25.3333 23.5C25.3333 23.88 25.08 24.1333 24.7 24.1333Z" fill="black"/>
<path d="M28.5 3.86667C28.12 3.86667 27.8667 3.61334 27.8667 3.23334C27.8667 2.85334 28.12 2.60001 28.5 2.60001C28.88 2.60001 29.1333 2.85334 29.1333 3.23334C29.1333 3.61334 28.88 3.86667 28.5 3.86667Z" fill="black"/>
<path d="M28.5 8.93335C28.12 8.93335 27.8667 8.68002 27.8667 8.30002C27.8667 7.92002 28.12 7.66669 28.5 7.66669C28.88 7.66669 29.1333 7.92002 29.1333 8.30002C29.1333 8.68002 28.88 8.93335 28.5 8.93335Z" fill="black"/>
<path d="M28.5 16.5334C28.12 16.5334 27.8667 16.28 27.8667 15.9C27.8667 15.52 28.12 15.2667 28.5 15.2667C28.88 15.2667 29.1333 15.52 29.1333 15.9C29.1333 16.28 28.88 16.5334 28.5 16.5334Z" fill="black"/>
<path d="M28.5 22.8667C28.12 22.8667 27.8667 22.6133 27.8667 22.2333C27.8667 21.8533 28.12 21.6 28.5 21.6C28.88 21.6 29.1333 21.8533 29.1333 22.2333C29.1333 22.6133 28.88 22.8667 28.5 22.8667Z" fill="black"/>
<path d="M20.9 14C20.52 14 20.2667 13.7467 20.2667 13.3667C20.2667 12.9867 20.52 12.7333 20.9 12.7333C21.28 12.7333 21.5333 12.9867 21.5333 13.3667C21.5333 13.7467 21.28 14 20.9 14Z" fill="black"/>
<path d="M20.9 21.6C20.52 21.6 20.2667 21.3467 20.2667 20.9667C20.2667 20.5867 20.52 20.3333 20.9 20.3333C21.28 20.3333 21.5333 20.5867 21.5333 20.9667C21.5333 21.3467 21.28 21.6 20.9 21.6Z" fill="black"/>
<path d="M17.1 26.6667C16.72 26.6667 16.4667 26.4134 16.4667 26.0334C16.4667 25.6534 16.72 25.4 17.1 25.4C17.48 25.4 17.7333 25.6534 17.7333 26.0334C17.7333 26.4134 17.48 26.6667 17.1 26.6667Z" fill="black"/>
<path d="M17.1 2.60001C16.72 2.60001 16.4667 2.34668 16.4667 1.96668C16.4667 1.58668 16.72 1.33334 17.1 1.33334C17.48 1.33334 17.7333 1.58668 17.7333 1.96668C17.7333 2.34668 17.48 2.60001 17.1 2.60001Z" fill="black"/>
<path d="M17.1 7.66669C16.72 7.66669 16.4667 7.41336 16.4667 7.03336C16.4667 6.65336 16.72 6.40002 17.1 6.40002C17.48 6.40002 17.7333 6.65336 17.7333 7.03336C17.7333 7.41336 17.48 7.66669 17.1 7.66669Z" fill="black"/>
<path d="M17.1 12.7333C16.72 12.7333 16.4667 12.48 16.4667 12.1C16.4667 11.72 16.72 11.4667 17.1 11.4667C17.48 11.4667 17.7333 11.72 17.7333 12.1C17.7333 12.48 17.48 12.7333 17.1 12.7333Z" fill="black"/>
<path d="M14.5667 19.0667C14.1867 19.0667 13.9333 18.8133 13.9333 18.4334C13.9333 18.0534 14.1867 17.8 14.5667 17.8C14.9467 17.8 15.2 18.0534 15.2 18.4334C15.2 18.8133 14.9467 19.0667 14.5667 19.0667Z" fill="black"/>
<path d="M17.1 21.6C16.72 21.6 16.4667 21.3467 16.4667 20.9667C16.4667 20.5867 16.72 20.3333 17.1 20.3333C17.48 20.3333 17.7333 20.5867 17.7333 20.9667C17.7333 21.3467 17.48 21.6 17.1 21.6Z" fill="black"/>
<path d="M12.0333 5.13334C11.6533 5.13334 11.4 4.88 11.4 4.5C11.4 4.12 11.6533 3.86667 12.0333 3.86667C12.4133 3.86667 12.6667 4.12 12.6667 4.5C12.6667 4.88 12.4133 5.13334 12.0333 5.13334Z" fill="black"/>
<path d="M1.9 2.60001C1.52 2.60001 1.26667 2.34668 1.26667 1.96668C1.26667 1.58668 1.52 1.33334 1.9 1.33334C2.28 1.33334 2.53334 1.58668 2.53334 1.96668C2.53334 2.34668 2.28 2.60001 1.9 2.60001Z" fill="black"/>
<path d="M6.96667 2.60001C6.58667 2.60001 6.33334 2.34668 6.33334 1.96668C6.33334 1.58668 6.58667 1.33334 6.96667 1.33334C7.34667 1.33334 7.6 1.58668 7.6 1.96668C7.6 2.34668 7.34667 2.60001 6.96667 2.60001Z" fill="black"/>
<path d="M12.0333 2.60001C11.6533 2.60001 11.4 2.34668 11.4 1.96668C11.4 1.58668 11.6533 1.33334 12.0333 1.33334C12.4133 1.33334 12.6667 1.58668 12.6667 1.96668C12.6667 2.34668 12.4133 2.60001 12.0333 2.60001Z" fill="black"/>
<path d="M14.5667 5.13334C14.1867 5.13334 13.9333 4.88 13.9333 4.5C13.9333 4.12 14.1867 3.86667 14.5667 3.86667C14.9467 3.86667 15.2 4.12 15.2 4.5C15.2 4.88 14.9467 5.13334 14.5667 5.13334Z" fill="black"/>
<path d="M14.5667 10.2C14.1867 10.2 13.9333 9.94668 13.9333 9.56668C13.9333 9.18668 14.1867 8.93335 14.5667 8.93335C14.9467 8.93335 15.2 9.18668 15.2 9.56668C15.2 9.94668 14.9467 10.2 14.5667 10.2Z" fill="black"/>
<path d="M14.5667 16.5334C14.1867 16.5334 13.9333 16.28 13.9333 15.9C13.9333 15.52 14.1867 15.2667 14.5667 15.2667C14.9467 15.2667 15.2 15.52 15.2 15.9C15.2 16.28 14.9467 16.5334 14.5667 16.5334Z" fill="black"/>
<path d="M14.5667 24.1333C14.1867 24.1333 13.9333 23.88 13.9333 23.5C13.9333 23.12 14.1867 22.8667 14.5667 22.8667C14.9467 22.8667 15.2 23.12 15.2 23.5C15.2 23.88 14.9467 24.1333 14.5667 24.1333Z" fill="black"/>
</svg>
