<svg width="38" height="36" viewBox="0 0 38 36" fill="none" xmlns="http://www.w3.org/2000/svg">
<path d="M18.3667 31.3H14.5667C13.68 31.3 12.7933 30.92 12.0333 30.16L7.47333 25.4733C5.95333 23.9533 5.95333 21.5467 7.47333 20.0267L25.5867 1.02668C25.7133 0.900013 25.84 0.773346 26.0933 0.773346C26.3467 0.773346 26.4733 0.900013 26.6 0.900013L38 12.3C38.2533 12.5533 38.2533 12.9333 38 13.1867L21.1533 30.16C20.52 30.92 19.38 31.3 18.3667 31.3ZM25.9667 2.42001L8.36 20.9133C7.34667 21.9267 7.34667 23.5733 8.36 24.5867L12.92 29.2733C13.4267 29.78 13.9333 30.0333 14.5667 30.0333H18.3667C19 30.0333 19.76 29.78 20.2667 29.2733L36.48 12.9333L25.9667 2.42001Z" fill="black"/>
<path d="M24.7 26.2333C24.5733 26.2333 24.32 26.2333 24.1933 26.1067L13.4267 15.34C13.1733 15.0867 13.1733 14.7067 13.4267 14.4533C13.68 14.2 14.06 14.2 14.3133 14.4533L25.08 25.22C25.3333 25.4733 25.3333 25.8533 25.08 26.1067C25.08 26.2333 24.8267 26.2333 24.7 26.2333Z" fill="black"/>
<path d="M8.23333 31.3H0.633333C0.253333 31.3 0 31.0467 0 30.6667C0 30.2867 0.253333 30.0334 0.633333 30.0334H8.23333C8.61333 30.0334 8.86667 30.2867 8.86667 30.6667C8.86667 31.0467 8.61333 31.3 8.23333 31.3Z" fill="black"/>
<path d="M23.4333 35.1H8.23333C7.85333 35.1 7.6 34.8467 7.6 34.4667C7.6 34.0867 7.85333 33.8333 8.23333 33.8333H23.4333C23.8133 33.8333 24.0667 34.0867 24.0667 34.4667C24.0667 34.8467 23.8133 35.1 23.4333 35.1Z" fill="black"/>
</svg>
