<svg width="38" height="38" viewBox="0 0 38 38" fill="none" xmlns="http://www.w3.org/2000/svg">
<path d="M3.8 37.3667C3.42 37.3667 3.16667 37.1133 3.16667 36.7333V1.26666C3.16667 0.886665 3.42 0.633331 3.8 0.633331C4.18 0.633331 4.43333 0.886665 4.43333 1.26666V36.7333C4.43333 37.1133 4.18 37.3667 3.8 37.3667Z" fill="black"/>
<path d="M13.9333 37.3667C13.5533 37.3667 13.3 37.1133 13.3 36.7333V1.26666C13.3 0.886665 13.5533 0.633331 13.9333 0.633331C14.3133 0.633331 14.5667 0.886665 14.5667 1.26666V36.7333C14.5667 37.1133 14.3133 37.3667 13.9333 37.3667Z" fill="black"/>
<path d="M24.0667 37.3667C23.6867 37.3667 23.4333 37.1133 23.4333 36.7333V1.26666C23.4333 0.886665 23.6867 0.633331 24.0667 0.633331C24.4467 0.633331 24.7 0.886665 24.7 1.26666V36.7333C24.7 37.1133 24.4467 37.3667 24.0667 37.3667Z" fill="black"/>
<path d="M34.2 37.3667C33.82 37.3667 33.5667 37.1133 33.5667 36.7333V1.26666C33.5667 0.886665 33.82 0.633331 34.2 0.633331C34.58 0.633331 34.8333 0.886665 34.8333 1.26666V36.7333C34.8333 37.1133 34.58 37.3667 34.2 37.3667Z" fill="black"/>
<path d="M36.7333 34.8333H1.26667C0.886667 34.8333 0.633333 34.58 0.633333 34.2C0.633333 33.82 0.886667 33.5667 1.26667 33.5667H36.7333C37.1133 33.5667 37.3667 33.82 37.3667 34.2C37.3667 34.58 37.1133 34.8333 36.7333 34.8333Z" fill="black"/>
<path d="M36.7333 24.7H1.26667C0.886667 24.7 0.633333 24.4467 0.633333 24.0667C0.633333 23.6867 0.886667 23.4333 1.26667 23.4333H36.7333C37.1133 23.4333 37.3667 23.6867 37.3667 24.0667C37.3667 24.4467 37.1133 24.7 36.7333 24.7Z" fill="black"/>
<path d="M36.7333 14.5667H1.26667C0.886667 14.5667 0.633333 14.3133 0.633333 13.9333C0.633333 13.5533 0.886667 13.3 1.26667 13.3H36.7333C37.1133 13.3 37.3667 13.5533 37.3667 13.9333C37.3667 14.3133 37.1133 14.5667 36.7333 14.5667Z" fill="black"/>
<path d="M36.7333 4.43332H1.26667C0.886667 4.43332 0.633333 4.17999 0.633333 3.79999C0.633333 3.41999 0.886667 3.16666 1.26667 3.16666H36.7333C37.1133 3.16666 37.3667 3.41999 37.3667 3.79999C37.3667 4.17999 37.1133 4.43332 36.7333 4.43332Z" fill="black"/>
</svg>
