<svg width="38" height="36" viewBox="0 0 38 36" fill="none" xmlns="http://www.w3.org/2000/svg">
<path d="M30.9067 6.85332C30.78 6.85332 30.5267 6.85332 30.4 6.72665C23.56 -0.113347 14.1867 -0.113347 7.34667 6.72665C7.09333 6.97999 6.71333 6.97999 6.46 6.72665C6.20666 6.47332 6.33333 6.09332 6.46 5.83999C13.8067 -1.50668 23.94 -1.50668 31.2867 5.83999C31.54 6.09332 31.54 6.47332 31.2867 6.72665C31.2867 6.85332 31.0333 6.85332 30.9067 6.85332Z" fill="black"/>
<path d="M31.6667 7.86666H25.3333C24.9533 7.86666 24.7 7.61333 24.7 7.23333C24.7 6.85333 24.9533 6.6 25.3333 6.6H31.0333V0.899996C31.0333 0.519996 31.2867 0.266663 31.6667 0.266663C32.0467 0.266663 32.3 0.519996 32.3 0.899996V7.23333C32.3 7.61333 32.0467 7.86666 31.6667 7.86666Z" fill="black"/>
<path d="M1.26667 35.7333C1.14 35.7333 1.14 35.7333 1.01334 35.7333C0.760002 35.6067 0.633335 35.3533 0.633335 35.1V7.23334C0.633335 6.98001 0.760002 6.72667 1.01334 6.60001C1.26667 6.60001 1.52 6.60001 1.77334 6.72667L15.7067 20.66C15.96 20.9133 15.96 21.2933 15.7067 21.5467L1.77334 35.48C1.64667 35.6067 1.39334 35.7333 1.26667 35.7333ZM1.9 8.75334V33.58L14.3133 21.1667L1.9 8.75334Z" fill="black"/>
<path d="M36.7333 35.7333C36.6067 35.7333 36.3533 35.6067 36.2267 35.6067L22.2933 21.6733C22.04 21.42 22.04 21.04 22.2933 20.7867L36.2267 6.85334C36.48 6.60001 36.7333 6.60001 36.9867 6.60001C37.24 6.72667 37.3667 6.98001 37.3667 7.23334V35.1C37.3667 35.3533 37.24 35.6067 36.9867 35.7333C36.86 35.7333 36.86 35.7333 36.7333 35.7333ZM23.6867 21.1667L36.1 33.58V8.75334L23.6867 21.1667Z" fill="black"/>
<path d="M19 34.4667C18.62 34.4667 18.3667 34.2133 18.3667 33.8333V30.0333C18.3667 29.6533 18.62 29.4 19 29.4C19.38 29.4 19.6333 29.6533 19.6333 30.0333V33.8333C19.6333 34.2133 19.38 34.4667 19 34.4667Z" fill="black"/>
<path d="M19 26.8667C18.62 26.8667 18.3667 26.6133 18.3667 26.2333V22.4333C18.3667 22.0533 18.62 21.8 19 21.8C19.38 21.8 19.6333 22.0533 19.6333 22.4333V26.2333C19.6333 26.6133 19.38 26.8667 19 26.8667Z" fill="black"/>
<path d="M19 19.2667C18.62 19.2667 18.3667 19.0133 18.3667 18.6333V14.8333C18.3667 14.4533 18.62 14.2 19 14.2C19.38 14.2 19.6333 14.4533 19.6333 14.8333V18.6333C19.6333 19.0133 19.38 19.2667 19 19.2667Z" fill="black"/>
<path d="M19 11.6667C18.62 11.6667 18.3667 11.4133 18.3667 11.0333V7.23334C18.3667 6.85334 18.62 6.60001 19 6.60001C19.38 6.60001 19.6333 6.85334 19.6333 7.23334V11.0333C19.6333 11.4133 19.38 11.6667 19 11.6667Z" fill="black"/>
</svg>
