<svg width="38" height="38" viewBox="0 0 38 38" fill="none" xmlns="http://www.w3.org/2000/svg">
<g clip-path="url(#clip0_2_642)">
<path d="M2.53334 38C2.40667 38 2.15334 37.8733 2.02667 37.8733L0.12667 35.9733C-0.126664 35.72 -0.126664 35.4667 3.00242e-06 35.2133L1.9 32.0467C2.28 31.54 2.53334 30.2733 2.53334 29.7667V29.1333C2.53334 28.12 3.29334 26.22 3.92667 25.46L15.3267 14.06C15.58 13.8067 15.96 13.8067 16.2133 14.06L23.8133 21.66C23.94 21.7867 23.94 21.9133 23.94 22.1667C23.94 22.2933 23.8133 22.5467 23.6867 22.6733C23.56 22.8 15.0733 31.16 12.2867 34.0733C11.78 34.8333 9.88 35.4667 8.86667 35.4667H8.23334C7.72667 35.4667 6.46 35.72 6.08 35.9733L2.91334 37.8733C2.78667 38 2.66 38 2.53334 38ZM1.39334 35.34L2.53334 36.48L5.32 34.8333C5.95334 34.4533 7.47334 34.2 8.23334 34.2H8.86667C9.62667 34.2 11.1467 33.5667 11.5267 33.1867C13.9333 30.6533 20.6467 23.94 22.5467 22.1667L15.8333 15.4533L4.94 26.3467C4.43334 26.8533 3.8 28.5 3.8 29.1333V29.7667C3.8 30.5267 3.54667 32.0467 3.04 32.68L1.39334 35.34Z" fill="black"/>
<path d="M24.7 24.0667C24.5733 24.0667 24.32 24.0667 24.1933 23.94L14.06 13.8067C13.8067 13.5533 13.8067 13.1733 14.06 12.92L17.86 9.11999C18.1133 8.86666 18.4933 8.86666 18.7467 9.11999L28.88 19.2533C29.1333 19.5067 29.1333 19.8867 28.88 20.14L25.08 23.94C24.9533 24.0667 24.8267 24.0667 24.7 24.0667ZM15.4533 13.3L24.7 22.5467L27.6133 19.6333L18.3667 10.3867L15.4533 13.3Z" fill="black"/>
<path d="M27.2333 19C27.1067 19 26.8533 19 26.7267 18.8733L19.1267 11.2733C18.8733 11.02 18.8733 10.64 19.1267 10.3867L27.9933 1.52C28.88 0.506667 30.2733 0 31.6667 0C33.3133 0 35.0867 0.506667 35.9733 1.39333C36.48 1.9 36.9867 2.66 37.3667 3.42C38.2533 5.32 38.5067 7.98 37.24 9.24667L27.74 18.7467C27.4867 19 27.36 19 27.2333 19ZM20.52 10.7667L27.2333 17.48L36.2267 8.48667C36.86 7.85333 36.86 5.82667 36.1 4.05333C35.8467 3.42 35.4667 2.78667 34.96 2.40667C34.4533 1.77333 33.06 1.26667 31.6667 1.26667C30.6533 1.26667 29.64 1.64667 28.88 2.40667L20.52 10.7667Z" fill="black"/>
<path d="M6.96667 31.6667C6.58667 31.6667 6.33334 31.4133 6.33334 31.0333V29.7667C6.33334 28.7533 7.09334 27.4867 7.72667 26.7267L11.5267 22.9267C11.78 22.6733 12.16 22.6733 12.4133 22.9267C12.6667 23.18 12.6667 23.56 12.4133 23.8133L8.61334 27.6133C8.10667 28.2467 7.6 29.1333 7.6 29.7667V31.0333C7.6 31.4133 7.34667 31.6667 6.96667 31.6667Z" fill="black"/>
</g>
<defs>
<clipPath id="clip0_2_642">
<rect width="38" height="38" fill="white"/>
</clipPath>
</defs>
</svg>
