<svg width="32" height="38" viewBox="0 0 32 38" fill="none" xmlns="http://www.w3.org/2000/svg">
<path d="M18.5333 5.06665C18.1533 5.06665 17.9 4.81332 17.9 4.43332C17.9 4.05332 18.1533 3.79999 18.5333 3.79999C18.9133 3.79999 19.1667 4.05332 19.1667 4.43332C19.1667 4.81332 18.9133 5.06665 18.5333 5.06665Z" fill="black"/>
<path d="M18.5333 7.60001C18.1533 7.60001 17.9 7.34668 17.9 6.96668C17.9 6.58668 18.1533 6.33334 18.5333 6.33334C18.9133 6.33334 19.1667 6.58668 19.1667 6.96668C19.1667 7.34668 18.9133 7.60001 18.5333 7.60001Z" fill="black"/>
<path d="M21.0667 2.53333C20.6867 2.53333 20.4333 2.28 20.4333 1.9C20.4333 1.52 20.6867 1.26666 21.0667 1.26666C21.4467 1.26666 21.7 1.52 21.7 1.9C21.7 2.28 21.4467 2.53333 21.0667 2.53333Z" fill="black"/>
<path d="M21.0667 6.33335C20.6867 6.33335 20.4333 6.08001 20.4333 5.70001C20.4333 5.32001 20.6867 5.06668 21.0667 5.06668C21.4467 5.06668 21.7 5.32001 21.7 5.70001C21.7 6.08001 21.4467 6.33335 21.0667 6.33335Z" fill="black"/>
<path d="M17.2667 6.33335C16.8867 6.33335 16.6333 6.08001 16.6333 5.70001C16.6333 5.32001 16.8867 5.06668 17.2667 5.06668C17.6467 5.06668 17.9 5.32001 17.9 5.70001C17.9 6.08001 17.6467 6.33335 17.2667 6.33335Z" fill="black"/>
<path d="M21.0667 10.1333C20.6867 10.1333 20.4333 9.88 20.4333 9.5C20.4333 9.12 20.6867 8.86667 21.0667 8.86667C21.4467 8.86667 21.7 9.12 21.7 9.5C21.7 9.88 21.4467 10.1333 21.0667 10.1333Z" fill="black"/>
<path d="M23.6 3.79999C23.22 3.79999 22.9667 3.54666 22.9667 3.16666C22.9667 2.78666 23.22 2.53333 23.6 2.53333C23.98 2.53333 24.2333 2.78666 24.2333 3.16666C24.2333 3.54666 23.98 3.79999 23.6 3.79999Z" fill="black"/>
<path d="M24.8667 1.26667C24.4867 1.26667 24.2333 1.01333 24.2333 0.633333C24.2333 0.253333 24.4867 0 24.8667 0C25.2467 0 25.5 0.253333 25.5 0.633333C25.5 1.01333 25.2467 1.26667 24.8667 1.26667Z" fill="black"/>
<path d="M23.6 8.86667C23.22 8.86667 22.9667 8.61334 22.9667 8.23334C22.9667 7.85334 23.22 7.60001 23.6 7.60001C23.98 7.60001 24.2333 7.85334 24.2333 8.23334C24.2333 8.61334 23.98 8.86667 23.6 8.86667Z" fill="black"/>
<path d="M23.6 12.6667C23.22 12.6667 22.9667 12.4133 22.9667 12.0333C22.9667 11.6533 23.22 11.4 23.6 11.4C23.98 11.4 24.2333 11.6533 24.2333 12.0333C24.2333 12.4133 23.98 12.6667 23.6 12.6667Z" fill="black"/>
<path d="M26.1333 6.33335C25.7533 6.33335 25.5 6.08001 25.5 5.70001C25.5 5.32001 25.7533 5.06668 26.1333 5.06668C26.5133 5.06668 26.7667 5.32001 26.7667 5.70001C26.7667 6.08001 26.5133 6.33335 26.1333 6.33335Z" fill="black"/>
<path d="M26.1333 15.2C25.7533 15.2 25.5 14.9467 25.5 14.5667C25.5 14.1867 25.7533 13.9333 26.1333 13.9333C26.5133 13.9333 26.7667 14.1867 26.7667 14.5667C26.7667 14.9467 26.5133 15.2 26.1333 15.2Z" fill="black"/>
<path d="M31.2 6.33335C30.82 6.33335 30.5667 6.08001 30.5667 5.70001C30.5667 5.32001 30.82 5.06668 31.2 5.06668C31.58 5.06668 31.8333 5.32001 31.8333 5.70001C31.8333 6.08001 31.58 6.33335 31.2 6.33335Z" fill="black"/>
<path d="M31.2 1.26667C30.82 1.26667 30.5667 1.01333 30.5667 0.633333C30.5667 0.253333 30.82 0 31.2 0C31.58 0 31.8333 0.253333 31.8333 0.633333C31.8333 1.01333 31.58 1.26667 31.2 1.26667Z" fill="black"/>
<path d="M31.2 11.4C30.82 11.4 30.5667 11.1467 30.5667 10.7667C30.5667 10.3867 30.82 10.1333 31.2 10.1333C31.58 10.1333 31.8333 10.3867 31.8333 10.7667C31.8333 11.1467 31.58 11.4 31.2 11.4Z" fill="black"/>
<path d="M31.2 16.4667C30.82 16.4667 30.5667 16.2133 30.5667 15.8333C30.5667 15.4533 30.82 15.2 31.2 15.2C31.58 15.2 31.8333 15.4533 31.8333 15.8333C31.8333 16.2133 31.58 16.4667 31.2 16.4667Z" fill="black"/>
<path d="M28.6667 2.53333C28.2867 2.53333 28.0333 2.28 28.0333 1.9C28.0333 1.52 28.2867 1.26666 28.6667 1.26666C29.0467 1.26666 29.3 1.52 29.3 1.9C29.3 2.28 29.0467 2.53333 28.6667 2.53333Z" fill="black"/>
<path d="M28.6667 7.60001C28.2867 7.60001 28.0333 7.34668 28.0333 6.96668C28.0333 6.58668 28.2867 6.33334 28.6667 6.33334C29.0467 6.33334 29.3 6.58668 29.3 6.96668C29.3 7.34668 29.0467 7.60001 28.6667 7.60001Z" fill="black"/>
<path d="M26.1333 11.4C25.7533 11.4 25.5 11.1467 25.5 10.7667C25.5 10.3867 25.7533 10.1333 26.1333 10.1333C26.5133 10.1333 26.7667 10.3867 26.7667 10.7667C26.7667 11.1467 26.5133 11.4 26.1333 11.4Z" fill="black"/>
<path d="M10.9333 12.6667H7.13333C6.75333 12.6667 6.5 12.4133 6.5 12.0333V8.23334C6.5 7.85334 6.75333 7.60001 7.13333 7.60001C7.51333 7.60001 7.76667 7.85334 7.76667 8.23334V11.4H10.3V8.23334C10.3 7.85334 10.5533 7.60001 10.9333 7.60001C11.3133 7.60001 11.5667 7.85334 11.5667 8.23334V12.0333C11.5667 12.4133 11.3133 12.6667 10.9333 12.6667Z" fill="black"/>
<path d="M14.1 38H3.96666C1.81333 38 0.166664 36.3533 0.166664 34.2V15.2C0.166664 13.0467 1.81333 11.4 3.96666 11.4H14.1C16.2533 11.4 17.9 13.0467 17.9 15.2V34.2C17.9 36.3533 16.1267 38 14.1 38ZM3.96666 12.6667C2.57333 12.6667 1.43333 13.8067 1.43333 15.2V34.2C1.43333 35.5933 2.57333 36.7333 3.96666 36.7333H14.1C15.4933 36.7333 16.6333 35.5933 16.6333 34.2V15.2C16.6333 13.8067 15.4933 12.6667 14.1 12.6667H3.96666Z" fill="black"/>
<path d="M12.2 8.86666H5.86666C5.48666 8.86666 5.23333 8.61333 5.23333 8.23333V5.06666C5.23333 2.91333 6.88 1.26666 9.03333 1.26666H12.2C12.58 1.26666 12.8333 1.52 12.8333 1.9V8.23333C12.8333 8.61333 12.58 8.86666 12.2 8.86666ZM6.5 7.6H11.5667V2.53333H9.03333C7.64 2.53333 6.5 3.67333 6.5 5.06666V7.6Z" fill="black"/>
<path d="M17.2667 30.4H0.799997C0.419997 30.4 0.166664 30.1467 0.166664 29.7667V19.6333C0.166664 19.2533 0.419997 19 0.799997 19H17.2667C17.6467 19 17.9 19.2533 17.9 19.6333V29.7667C17.9 30.1467 17.6467 30.4 17.2667 30.4ZM1.43333 29.1333H16.6333V20.2667H1.43333V29.1333Z" fill="black"/>
</svg>
