<svg width="36" height="38" viewBox="0 0 36 38" fill="none" xmlns="http://www.w3.org/2000/svg">
<path d="M6.69817 5.14583H5.56608C3.351 5.14583 1.55075 6.94766 1.55075 9.16116V32.5248C1.55075 34.7399 3.35258 36.5402 5.56608 36.5402H23.0888C25.3039 36.5402 27.1042 34.7383 27.1042 32.5248V5.14583C27.1042 5.14583 6.69025 5.26933 6.69817 5.14583Z" fill="#2196F3"/>
<path d="M26.7083 0.663422H12.2604C10.5108 0.663422 9.09375 2.0805 9.09375 3.83009V26.2533C9.09375 28.0028 10.5108 29.4199 12.2604 29.4199H31.6562C33.4058 29.4199 34.8229 28.0028 34.8229 26.2533V3.83009C34.8229 2.0805 33.4058 0.663422 31.6562 0.663422H26.7083Z" fill="#ECEFF1"/>
<path d="M31.0625 30.0833H12.8542C10.4522 30.0833 8.5 28.1311 8.5 25.7292V4.35417C8.5 1.95225 10.4522 0 12.8542 0H31.0625C33.4644 0 35.4167 1.95225 35.4167 4.35417V25.7292C35.4167 28.1311 33.4644 30.0833 31.0625 30.0833ZM12.8542 2.375C11.7632 2.375 10.875 3.26325 10.875 4.35417V25.7292C10.875 26.8201 11.7632 27.7083 12.8542 27.7083H31.0625C32.1534 27.7083 33.0417 26.8201 33.0417 25.7292V4.35417C33.0417 3.26325 32.1534 2.375 31.0625 2.375H12.8542Z" fill="black"/>
<path d="M23.9375 38H4.9375C2.53558 38 0.583334 36.0477 0.583334 33.6458V8.3125C0.583334 5.91058 2.53558 3.95833 4.9375 3.95833H5.72917C6.38467 3.95833 6.91667 4.49033 6.91667 5.14583C6.91667 5.80133 6.38467 6.33333 5.72917 6.33333H4.9375C3.84658 6.33333 2.95833 7.22158 2.95833 8.3125V33.6458C2.95833 34.7367 3.84658 35.625 4.9375 35.625H23.9375C25.0284 35.625 25.9167 34.7367 25.9167 33.6458V32.8542C25.9167 32.1987 26.4487 31.6667 27.1042 31.6667C27.7597 31.6667 28.2917 32.1987 28.2917 32.8542V33.6458C28.2917 36.0477 26.3394 38 23.9375 38Z" fill="black"/>
<path d="M27.8958 13.4583H16.0208C15.3653 13.4583 14.8333 12.9263 14.8333 12.2708C14.8333 11.6153 15.3653 11.0833 16.0208 11.0833H27.8958C28.5513 11.0833 29.0833 11.6153 29.0833 12.2708C29.0833 12.9263 28.5513 13.4583 27.8958 13.4583Z" fill="black"/>
<path d="M27.8958 18.2083H16.0208C15.3653 18.2083 14.8333 17.6763 14.8333 17.0208C14.8333 16.3653 15.3653 15.8333 16.0208 15.8333H27.8958C28.5513 15.8333 29.0833 16.3653 29.0833 17.0208C29.0833 17.6763 28.5513 18.2083 27.8958 18.2083Z" fill="black"/>
<path d="M27.8958 22.9583H16.0208C15.3653 22.9583 14.8333 22.4263 14.8333 21.7708C14.8333 21.1153 15.3653 20.5833 16.0208 20.5833H27.8958C28.5513 20.5833 29.0833 21.1153 29.0833 21.7708C29.0833 22.4263 28.5513 22.9583 27.8958 22.9583Z" fill="black"/>
</svg>
