<svg width="30" height="38" viewBox="0 0 30 38" fill="none" xmlns="http://www.w3.org/2000/svg">
<path d="M28.87 17.0367L20.2931 10.5925C20.2393 10.5498 20.1458 10.4532 20.1458 10.2917C20.1458 10.1302 20.2393 10.0336 20.2725 10.0051L28.8716 3.54508C29.364 3.17458 29.6458 2.603 29.6458 1.97758C29.6458 0.88825 28.7576 0 27.6667 0H1.9375C1.282 0 0.75 0.532 0.75 1.1875V19.3958C0.75 20.0513 1.282 20.5833 1.9375 20.5833H27.6667C28.7576 20.5833 29.6458 19.6951 29.6458 18.6042C29.6458 17.9788 29.3624 17.4088 28.87 17.0367V17.0367Z" fill="#FFC107"/>
<path d="M1.9375 38C1.282 38 0.75 37.468 0.75 36.8125V1.1875C0.75 0.532 1.282 0 1.9375 0C2.593 0 3.125 0.532 3.125 1.1875V36.8125C3.125 37.468 2.593 38 1.9375 38Z" fill="black"/>
<path d="M27.6667 20.5833H1.9375C1.282 20.5833 0.75 20.0513 0.75 19.3958C0.75 18.7403 1.282 18.2083 1.9375 18.2083H26.4744L18.8475 12.4767C18.1556 11.9352 17.7708 11.1435 17.7708 10.2917C17.7708 9.43983 18.1556 8.64975 18.8269 8.1225L26.476 2.375H1.9375C1.282 2.375 0.75 1.843 0.75 1.1875C0.75 0.532 1.282 0 1.9375 0H27.6667C28.7576 0 29.6458 0.88825 29.6458 1.97917C29.6458 2.60617 29.3624 3.17775 28.8684 3.54825L20.2725 10.0067C20.2393 10.0352 20.1458 10.1318 20.1458 10.2917C20.1458 10.4532 20.2393 10.5498 20.2931 10.5925L28.87 17.0367C29.364 17.404 29.6458 17.9756 29.6458 18.6026C29.6458 19.6951 28.7576 20.5833 27.6667 20.5833V20.5833ZM27.6667 2.375H27.6825H27.6667ZM27.4434 1.64825C27.4418 1.64825 27.4418 1.64825 27.4434 1.64825V1.64825Z" fill="black"/>
</svg>
