<svg width="38" height="38" viewBox="0 0 38 38" fill="none" xmlns="http://www.w3.org/2000/svg">
<path d="M19 0C8.52308 0 0 8.52308 0 19C0 29.4769 8.52308 38 19 38C29.4769 38 38 29.4769 38 19C38 8.52308 29.4769 0 19 0Z" fill="#607D8B"/>
<path d="M19 9.89584C18.3445 9.89584 17.8125 9.36384 17.8125 8.70834V5.54167C17.8125 4.88617 18.3445 4.35417 19 4.35417C19.6555 4.35417 20.1875 4.88617 20.1875 5.54167V8.70834C20.1875 9.36384 19.6555 9.89584 19 9.89584Z" fill="black"/>
<path d="M19 33.6458C18.3445 33.6458 17.8125 33.1138 17.8125 32.4583V29.2917C17.8125 28.6362 18.3445 28.1042 19 28.1042C19.6555 28.1042 20.1875 28.6362 20.1875 29.2917V32.4583C20.1875 33.1138 19.6555 33.6458 19 33.6458Z" fill="black"/>
<path d="M10.0858 15.0417C9.88475 15.0417 9.6805 14.991 9.49366 14.8818L6.75133 13.2984C6.18291 12.9707 5.98816 12.2455 6.31591 11.6771C6.64366 11.1103 7.36725 10.9123 7.93725 11.2433L10.6796 12.8266C11.2464 13.1543 11.4412 13.8811 11.1134 14.4479C10.8965 14.8295 10.4975 15.0417 10.0858 15.0417Z" fill="black"/>
<path d="M30.6533 26.9167C30.4522 26.9167 30.248 26.866 30.0612 26.7568L27.3188 25.1734C26.752 24.8457 26.5572 24.1189 26.885 23.5521C27.2112 22.9837 27.9379 22.7889 28.5063 23.1183L31.2487 24.7016C31.8155 25.0293 32.0102 25.7561 31.6825 26.3229C31.464 26.7045 31.065 26.9167 30.6533 26.9167V26.9167Z" fill="black"/>
<path d="M7.34667 26.9167C6.935 26.9167 6.536 26.7045 6.3175 26.3229C5.98975 25.7545 6.1845 25.0293 6.75134 24.7016L9.49367 23.1182C10.0621 22.7889 10.7888 22.9852 11.115 23.5521C11.4428 24.1205 11.248 24.8457 10.6812 25.1734L7.93884 26.7567C7.752 26.866 7.54775 26.9167 7.34667 26.9167Z" fill="black"/>
<path d="M27.9142 15.0417C27.5025 15.0417 27.1035 14.8295 26.885 14.4479C26.5572 13.8795 26.752 13.1543 27.3188 12.8266L30.0612 11.2433C30.6296 10.9123 31.3547 11.1103 31.6825 11.6771C32.0102 12.2455 31.8155 12.9707 31.2487 13.2984L28.5063 14.8818C28.3195 14.991 28.1152 15.0417 27.9142 15.0417V15.0417Z" fill="black"/>
<path d="M19 38C8.52308 38 0 29.4769 0 19C0 8.52308 8.52308 0 19 0C29.4769 0 38 8.52308 38 19C38 29.4769 29.4769 38 19 38ZM19 2.375C9.8325 2.375 2.375 9.8325 2.375 19C2.375 28.1675 9.8325 35.625 19 35.625C28.1675 35.625 35.625 28.1675 35.625 19C35.625 9.8325 28.1675 2.375 19 2.375Z" fill="black"/>
</svg>
