<svg width="38" height="38" viewBox="0 0 38 38" fill="none" xmlns="http://www.w3.org/2000/svg">
<path d="M19 30.0833C25.1212 30.0833 30.0833 25.1212 30.0833 19C30.0833 12.8788 25.1212 7.91667 19 7.91667C12.8788 7.91667 7.91666 12.8788 7.91666 19C7.91666 25.1212 12.8788 30.0833 19 30.0833Z" fill="#FFC107"/>
<path d="M19 31.6667C12.0159 31.6667 6.33334 25.9841 6.33334 19C6.33334 12.0159 12.0159 6.33333 19 6.33333C25.9841 6.33333 31.6667 12.0159 31.6667 19C31.6667 25.9841 25.9841 31.6667 19 31.6667ZM19 8.70833C13.3253 8.70833 8.70834 13.3253 8.70834 19C8.70834 24.6747 13.3253 29.2917 19 29.2917C24.6747 29.2917 29.2917 24.6747 29.2917 19C29.2917 13.3253 24.6747 8.70833 19 8.70833Z" fill="black"/>
<path d="M19 4.75C18.3445 4.75 17.8125 4.218 17.8125 3.5625V1.1875C17.8125 0.532 18.3445 0 19 0C19.6555 0 20.1875 0.532 20.1875 1.1875V3.5625C20.1875 4.218 19.6555 4.75 19 4.75Z" fill="black"/>
<path d="M19 4.75C18.3445 4.75 17.8125 4.218 17.8125 3.5625V1.1875C17.8125 0.532 18.3445 0 19 0C19.6555 0 20.1875 0.532 20.1875 1.1875V3.5625C20.1875 4.218 19.6555 4.75 19 4.75Z" fill="black"/>
<path d="M19 4.75C18.3445 4.75 17.8125 4.218 17.8125 3.5625V1.1875C17.8125 0.532 18.3445 0 19 0C19.6555 0 20.1875 0.532 20.1875 1.1875V3.5625C20.1875 4.218 19.6555 4.75 19 4.75Z" fill="black"/>
<path d="M19 4.75C18.3445 4.75 17.8125 4.218 17.8125 3.5625V1.1875C17.8125 0.532 18.3445 0 19 0C19.6555 0 20.1875 0.532 20.1875 1.1875V3.5625C20.1875 4.218 19.6555 4.75 19 4.75Z" fill="black"/>
<path d="M5.63033 12.4687C5.42925 12.4687 5.225 12.4181 5.03816 12.3088L2.97983 11.1213C2.41141 10.7936 2.21666 10.0684 2.54441 9.5C2.87058 8.93316 3.59575 8.73683 4.16575 9.06616L6.22408 10.2537C6.7925 10.5814 6.98725 11.3066 6.6595 11.875C6.43941 12.2566 6.04041 12.4687 5.63033 12.4687V12.4687Z" fill="black"/>
<path d="M34.4248 29.0937C34.2237 29.0937 34.0195 29.0431 33.8327 28.9338L31.7743 27.7463C31.2075 27.4186 31.0127 26.6918 31.3405 26.125C31.6667 25.5582 32.3934 25.3602 32.9618 25.6912L35.0202 26.8787C35.587 27.2064 35.7817 27.9332 35.454 28.5C35.2355 28.8816 34.8365 29.0937 34.4248 29.0937V29.0937Z" fill="black"/>
<path d="M5.63033 12.4687C5.42925 12.4687 5.225 12.4181 5.03816 12.3088L2.97983 11.1213C2.41141 10.7936 2.21666 10.0684 2.54441 9.5C2.87058 8.93316 3.59575 8.73683 4.16575 9.06616L6.22408 10.2537C6.7925 10.5814 6.98725 11.3066 6.6595 11.875C6.43941 12.2566 6.04041 12.4687 5.63033 12.4687V12.4687Z" fill="black"/>
<path d="M34.4248 29.0937C34.2237 29.0937 34.0195 29.0431 33.8327 28.9338L31.7743 27.7463C31.2075 27.4186 31.0127 26.6918 31.3405 26.125C31.6667 25.5582 32.3934 25.3602 32.9618 25.6912L35.0202 26.8787C35.587 27.2064 35.7817 27.9332 35.454 28.5C35.2355 28.8816 34.8365 29.0937 34.4248 29.0937V29.0937Z" fill="black"/>
<path d="M5.63033 12.4687C5.42925 12.4687 5.225 12.4181 5.03816 12.3088L2.97983 11.1213C2.41141 10.7936 2.21666 10.0684 2.54441 9.5C2.87058 8.93316 3.59575 8.73683 4.16575 9.06616L6.22408 10.2537C6.7925 10.5814 6.98725 11.3066 6.6595 11.875C6.43941 12.2566 6.04041 12.4687 5.63033 12.4687V12.4687Z" fill="black"/>
<path d="M34.4248 29.0937C34.2237 29.0937 34.0195 29.0431 33.8327 28.9338L31.7743 27.7463C31.2075 27.4186 31.0127 26.6918 31.3405 26.125C31.6667 25.5582 32.3934 25.3602 32.9618 25.6912L35.0202 26.8787C35.587 27.2064 35.7817 27.9332 35.454 28.5C35.2355 28.8816 34.8365 29.0937 34.4248 29.0937V29.0937Z" fill="black"/>
<path d="M5.63033 12.4687C5.42925 12.4687 5.225 12.4181 5.03816 12.3088L2.97983 11.1213C2.41141 10.7936 2.21666 10.0684 2.54441 9.5C2.87058 8.93316 3.59575 8.73683 4.16575 9.06616L6.22408 10.2537C6.7925 10.5814 6.98725 11.3066 6.6595 11.875C6.43941 12.2566 6.04041 12.4687 5.63033 12.4687V12.4687Z" fill="black"/>
<path d="M34.4248 29.0937C34.2237 29.0937 34.0195 29.0431 33.8327 28.9338L31.7743 27.7463C31.2075 27.4186 31.0127 26.6918 31.3405 26.125C31.6667 25.5582 32.3934 25.3602 32.9618 25.6912L35.0202 26.8787C35.587 27.2064 35.7817 27.9332 35.454 28.5C35.2355 28.8816 34.8365 29.0937 34.4248 29.0937V29.0937Z" fill="black"/>
<path d="M3.57517 29.0937C3.1635 29.0937 2.7645 28.8816 2.546 28.5C2.21825 27.9316 2.413 27.2064 2.97984 26.8787L5.03817 25.6912C5.60817 25.3602 6.33334 25.5582 6.6595 26.125C6.98725 26.6934 6.7925 27.4186 6.22567 27.7463L4.16734 28.9338C3.9805 29.0431 3.77625 29.0937 3.57517 29.0937V29.0937Z" fill="black"/>
<path d="M32.3697 12.4687C31.958 12.4687 31.559 12.2566 31.3405 11.875C31.0127 11.3066 31.2075 10.5814 31.7743 10.2537L33.8327 9.06616C34.4027 8.73683 35.1294 8.93316 35.4556 9.5C35.7833 10.0684 35.5886 10.7936 35.0217 11.1213L32.9634 12.3088C32.775 12.4181 32.5707 12.4687 32.3697 12.4687Z" fill="black"/>
<path d="M3.57517 29.0937C3.1635 29.0937 2.7645 28.8816 2.546 28.5C2.21825 27.9316 2.413 27.2064 2.97984 26.8787L5.03817 25.6912C5.60817 25.3602 6.33334 25.5582 6.6595 26.125C6.98725 26.6934 6.7925 27.4186 6.22567 27.7463L4.16734 28.9338C3.9805 29.0431 3.77625 29.0937 3.57517 29.0937V29.0937Z" fill="black"/>
<path d="M32.3697 12.4687C31.958 12.4687 31.559 12.2566 31.3405 11.875C31.0127 11.3066 31.2075 10.5814 31.7743 10.2537L33.8327 9.06616C34.4027 8.73683 35.1294 8.93316 35.4556 9.5C35.7833 10.0684 35.5886 10.7936 35.0217 11.1213L32.9634 12.3088C32.775 12.4181 32.5707 12.4687 32.3697 12.4687Z" fill="black"/>
<path d="M3.57517 29.0937C3.1635 29.0937 2.7645 28.8816 2.546 28.5C2.21825 27.9316 2.413 27.2064 2.97984 26.8787L5.03817 25.6912C5.60817 25.3602 6.33334 25.5582 6.6595 26.125C6.98725 26.6934 6.7925 27.4186 6.22567 27.7463L4.16734 28.9338C3.9805 29.0431 3.77625 29.0937 3.57517 29.0937V29.0937Z" fill="black"/>
<path d="M32.3697 12.4687C31.958 12.4687 31.559 12.2566 31.3405 11.875C31.0127 11.3066 31.2075 10.5814 31.7743 10.2537L33.8327 9.06616C34.4027 8.73683 35.1294 8.93316 35.4556 9.5C35.7833 10.0684 35.5886 10.7936 35.0217 11.1213L32.9634 12.3088C32.775 12.4181 32.5707 12.4687 32.3697 12.4687Z" fill="black"/>
<path d="M3.57517 29.0937C3.1635 29.0937 2.7645 28.8816 2.546 28.5C2.21825 27.9316 2.413 27.2064 2.97984 26.8787L5.03817 25.6912C5.60817 25.3602 6.33334 25.5582 6.6595 26.125C6.98725 26.6934 6.7925 27.4186 6.22567 27.7463L4.16734 28.9338C3.9805 29.0431 3.77625 29.0937 3.57517 29.0937V29.0937Z" fill="black"/>
<path d="M32.3697 12.4687C31.958 12.4687 31.559 12.2566 31.3405 11.875C31.0127 11.3066 31.2075 10.5814 31.7743 10.2537L33.8327 9.06616C34.4027 8.73683 35.1294 8.93316 35.4556 9.5C35.7833 10.0684 35.5886 10.7936 35.0217 11.1213L32.9634 12.3088C32.775 12.4181 32.5707 12.4687 32.3697 12.4687Z" fill="black"/>
<path d="M19 38C18.3445 38 17.8125 37.468 17.8125 36.8125V34.4375C17.8125 33.782 18.3445 33.25 19 33.25C19.6555 33.25 20.1875 33.782 20.1875 34.4375V36.8125C20.1875 37.468 19.6555 38 19 38Z" fill="black"/>
</svg>
