<svg width="38" height="38" viewBox="0 0 38 38" fill="none" xmlns="http://www.w3.org/2000/svg">
<path d="M26.1377 0H10.6875C8.28242 0 6.33333 1.94908 6.33333 4.35417V10.6875C6.33333 11.343 6.86533 11.875 7.52083 11.875H30.4792C31.1347 11.875 31.6667 11.343 31.6667 10.6875V8.11458V5.529C31.6667 2.47633 29.1903 0 26.1377 0Z" fill="#ECEFF1"/>
<path d="M33.6458 9.5H4.35417C1.95225 9.5 0 11.4523 0 13.8542V24.1458C0 26.5478 1.95225 28.5 4.35417 28.5H33.6458C36.0478 28.5 38 26.5478 38 24.1458V13.8542C38 11.4523 36.0478 9.5 33.6458 9.5Z" fill="#607D8B"/>
<path d="M30.4792 20.5833H7.52083C6.86533 20.5833 6.33333 21.1153 6.33333 21.7708V33.6458C6.33333 36.0478 8.28558 38 10.6875 38H27.3125C29.7144 38 31.6667 36.0478 31.6667 33.6458V21.7708C31.6667 21.1153 31.1347 20.5833 30.4792 20.5833Z" fill="#ECEFF1"/>
<path d="M33.6458 28.5H30.4792C29.8237 28.5 29.2917 27.968 29.2917 27.3125C29.2917 26.657 29.8237 26.125 30.4792 26.125H33.6458C34.7368 26.125 35.625 25.2368 35.625 24.1458V13.8542C35.625 12.7633 34.7368 11.875 33.6458 11.875H4.35417C3.26325 11.875 2.375 12.7633 2.375 13.8542V24.1458C2.375 25.2368 3.26325 26.125 4.35417 26.125H7.52083C8.17633 26.125 8.70833 26.657 8.70833 27.3125C8.70833 27.968 8.17633 28.5 7.52083 28.5H4.35417C1.95225 28.5 0 26.5478 0 24.1458V13.8542C0 11.4523 1.95225 9.5 4.35417 9.5H33.6458C36.0478 9.5 38 11.4523 38 13.8542V24.1458C38 26.5478 36.0478 28.5 33.6458 28.5Z" fill="black"/>
<path d="M27.3125 38H10.6875C8.28558 38 6.33333 36.0478 6.33333 33.6458V21.7708C6.33333 21.1153 6.86533 20.5833 7.52083 20.5833H30.4792C31.1347 20.5833 31.6667 21.1153 31.6667 21.7708V33.6458C31.6667 36.0478 29.7144 38 27.3125 38ZM8.70833 22.9583V33.6458C8.70833 34.7368 9.59658 35.625 10.6875 35.625H27.3125C28.4034 35.625 29.2917 34.7368 29.2917 33.6458V22.9583H8.70833Z" fill="black"/>
<path d="M25.7292 28.5H12.2708C11.6153 28.5 11.0833 27.968 11.0833 27.3125C11.0833 26.657 11.6153 26.125 12.2708 26.125H25.7292C26.3847 26.125 26.9167 26.657 26.9167 27.3125C26.9167 27.968 26.3847 28.5 25.7292 28.5Z" fill="black"/>
<path d="M25.7292 33.25H12.2708C11.6153 33.25 11.0833 32.718 11.0833 32.0625C11.0833 31.407 11.6153 30.875 12.2708 30.875H25.7292C26.3847 30.875 26.9167 31.407 26.9167 32.0625C26.9167 32.718 26.3847 33.25 25.7292 33.25Z" fill="black"/>
<path d="M30.4792 11.875C29.8237 11.875 29.2917 11.343 29.2917 10.6875V4.35417C29.2917 3.26325 28.4034 2.375 27.3125 2.375H10.6875C9.59658 2.375 8.70833 3.26325 8.70833 4.35417V10.6875C8.70833 11.343 8.17633 11.875 7.52083 11.875C6.86533 11.875 6.33333 11.343 6.33333 10.6875V4.35417C6.33333 1.95225 8.28558 0 10.6875 0H27.3125C29.7144 0 31.6667 1.95225 31.6667 4.35417V10.6875C31.6667 11.343 31.1347 11.875 30.4792 11.875Z" fill="black"/>
</svg>
