<svg width="40" height="40" viewBox="0 0 40 40" fill="none" xmlns="http://www.w3.org/2000/svg">
<path d="M10 36C9.86668 36 9.60001 36 9.46668 35.8667L4.13334 30.5333C3.86668 30.2667 3.86668 29.8667 4.13334 29.6C4.40001 29.3333 4.80001 29.3333 5.06668 29.6L10.4 34.9333C10.6667 35.2 10.6667 35.6 10.4 35.8667C10.4 35.8667 10.1333 36 10 36Z" fill="black"/>
<path d="M0.666674 40C0.53334 40 0.266674 39.8667 0.13334 39.8667C7.12176e-06 39.6 7.12176e-06 39.3333 0.13334 39.0667L4.13334 29.7333C4.13334 29.6 4.26667 29.6 4.26667 29.4667L32.2667 1.46667C34.2667 -0.399998 36.8 -0.533331 38.5333 1.2C39.4667 2 40 3.06667 40 4.26667C40 5.6 39.4667 6.8 38.5333 7.86667C36.2667 10.1333 32.6667 13.7333 28.8 17.6C21.0667 25.2 11.3333 34.6667 10.6667 35.6C10.5333 35.7333 10.5333 35.8667 10.4 35.8667L1.06667 39.8667C0.800007 40 0.800007 40 0.666674 40ZM5.20001 30.4L1.86667 38.1333L9.60001 34.8C10.5333 33.7333 14 30.2667 27.7333 16.5333C31.6 12.8 35.2 9.2 37.4667 6.93334C38.2667 6.13334 38.6667 5.2 38.6667 4.26667C38.6667 3.46667 38.2667 2.8 37.6 2.13334C36.2667 0.666669 34.4 1.2 33.2 2.4L5.20001 30.4Z" fill="black"/>
<path d="M14 17.3333C13.8667 17.3333 13.6 17.3333 13.4667 17.2C13.2 16.9333 13.2 16.5333 13.4667 16.2667L24.8 4.93334C25.0667 4.66667 25.4667 4.66667 25.7333 4.93334L34.4 13.6C34.6667 13.8667 34.6667 14.2667 34.4 14.5333C34.1333 14.8 33.7333 14.8 33.4667 14.5333L25.3333 6.26667L14.5333 17.0667C14.4 17.2 14.1333 17.3333 14 17.3333Z" fill="black"/>
</svg>
