<svg width="40" height="38" viewBox="0 0 40 38" fill="none" xmlns="http://www.w3.org/2000/svg">
<path d="M32.5334 7.26667C32.4 7.26667 32.1334 7.26667 32 7.13333C24.8 -0.066665 14.9334 -0.066665 7.73335 7.13333C7.46668 7.4 7.06668 7.4 6.80002 7.13333C6.53335 6.86667 6.66668 6.46667 6.80002 6.2C14.5334 -1.53333 25.2 -1.53333 32.9334 6.2C33.2 6.46667 33.2 6.86667 32.9334 7.13333C32.9334 7.26667 32.6667 7.26667 32.5334 7.26667Z" fill="black"/>
<path d="M33.3333 8.33334H26.6667C26.2667 8.33334 26 8.06667 26 7.66667C26 7.26667 26.2667 7 26.6667 7H32.6667V1C32.6667 0.600003 32.9333 0.333336 33.3333 0.333336C33.7333 0.333336 34 0.600003 34 1V7.66667C34 8.06667 33.7333 8.33334 33.3333 8.33334Z" fill="black"/>
<path d="M1.33335 37.6667C1.20002 37.6667 1.20002 37.6667 1.06669 37.6667C0.80002 37.5333 0.666687 37.2667 0.666687 37V7.66667C0.666687 7.4 0.80002 7.13333 1.06669 7C1.33335 7 1.60002 7 1.86669 7.13333L16.5334 21.8C16.8 22.0667 16.8 22.4667 16.5334 22.7333L1.86669 37.4C1.73335 37.5333 1.46669 37.6667 1.33335 37.6667ZM2.00002 9.26667V35.4L15.0667 22.3333L2.00002 9.26667Z" fill="black"/>
<path d="M38.6667 37.6667C38.5333 37.6667 38.2667 37.5333 38.1333 37.5333L23.4667 22.8667C23.2 22.6 23.2 22.2 23.4667 21.9333L38.1333 7.26667C38.4 7 38.6667 7 38.9333 7C39.2 7.13333 39.3333 7.4 39.3333 7.66667V37C39.3333 37.2667 39.2 37.5333 38.9333 37.6667C38.8 37.6667 38.8 37.6667 38.6667 37.6667ZM24.9333 22.3333L38 35.4V9.26667L24.9333 22.3333Z" fill="black"/>
<path d="M20 36.3333C19.6 36.3333 19.3334 36.0667 19.3334 35.6667V31.6667C19.3334 31.2667 19.6 31 20 31C20.4 31 20.6667 31.2667 20.6667 31.6667V35.6667C20.6667 36.0667 20.4 36.3333 20 36.3333Z" fill="black"/>
<path d="M20 28.3333C19.6 28.3333 19.3334 28.0667 19.3334 27.6667V23.6667C19.3334 23.2667 19.6 23 20 23C20.4 23 20.6667 23.2667 20.6667 23.6667V27.6667C20.6667 28.0667 20.4 28.3333 20 28.3333Z" fill="black"/>
<path d="M20 20.3333C19.6 20.3333 19.3334 20.0667 19.3334 19.6667V15.6667C19.3334 15.2667 19.6 15 20 15C20.4 15 20.6667 15.2667 20.6667 15.6667V19.6667C20.6667 20.0667 20.4 20.3333 20 20.3333Z" fill="black"/>
<path d="M20 12.3333C19.6 12.3333 19.3334 12.0667 19.3334 11.6667V7.66667C19.3334 7.26667 19.6 7 20 7C20.4 7 20.6667 7.26667 20.6667 7.66667V11.6667C20.6667 12.0667 20.4 12.3333 20 12.3333Z" fill="black"/>
</svg>
