<svg width="34" height="40" viewBox="0 0 34 40" fill="none" xmlns="http://www.w3.org/2000/svg">
<path d="M19.6667 5.33333C19.2667 5.33333 19 5.06667 19 4.66667C19 4.26667 19.2667 4 19.6667 4C20.0667 4 20.3333 4.26667 20.3333 4.66667C20.3333 5.06667 20.0667 5.33333 19.6667 5.33333Z" fill="black"/>
<path d="M19.6667 8C19.2667 8 19 7.73333 19 7.33333C19 6.93333 19.2667 6.66666 19.6667 6.66666C20.0667 6.66666 20.3333 6.93333 20.3333 7.33333C20.3333 7.73333 20.0667 8 19.6667 8Z" fill="black"/>
<path d="M22.3334 2.66667C21.9334 2.66667 21.6667 2.4 21.6667 2C21.6667 1.6 21.9334 1.33334 22.3334 1.33334C22.7334 1.33334 23 1.6 23 2C23 2.4 22.7334 2.66667 22.3334 2.66667Z" fill="black"/>
<path d="M22.3334 6.66667C21.9334 6.66667 21.6667 6.4 21.6667 6C21.6667 5.6 21.9334 5.33334 22.3334 5.33334C22.7334 5.33334 23 5.6 23 6C23 6.4 22.7334 6.66667 22.3334 6.66667Z" fill="black"/>
<path d="M18.3334 6.66667C17.9334 6.66667 17.6667 6.4 17.6667 6C17.6667 5.6 17.9334 5.33334 18.3334 5.33334C18.7334 5.33334 19 5.6 19 6C19 6.4 18.7334 6.66667 18.3334 6.66667Z" fill="black"/>
<path d="M22.3334 10.6667C21.9334 10.6667 21.6667 10.4 21.6667 10C21.6667 9.6 21.9334 9.33334 22.3334 9.33334C22.7334 9.33334 23 9.6 23 10C23 10.4 22.7334 10.6667 22.3334 10.6667Z" fill="black"/>
<path d="M25 4C24.6 4 24.3333 3.73333 24.3333 3.33333C24.3333 2.93333 24.6 2.66666 25 2.66666C25.4 2.66666 25.6667 2.93333 25.6667 3.33333C25.6667 3.73333 25.4 4 25 4Z" fill="black"/>
<path d="M26.3334 1.33333C25.9334 1.33333 25.6667 1.06667 25.6667 0.666667C25.6667 0.266667 25.9334 0 26.3334 0C26.7334 0 27 0.266667 27 0.666667C27 1.06667 26.7334 1.33333 26.3334 1.33333Z" fill="black"/>
<path d="M25 9.33333C24.6 9.33333 24.3333 9.06667 24.3333 8.66667C24.3333 8.26667 24.6 8 25 8C25.4 8 25.6667 8.26667 25.6667 8.66667C25.6667 9.06667 25.4 9.33333 25 9.33333Z" fill="black"/>
<path d="M25 13.3333C24.6 13.3333 24.3333 13.0667 24.3333 12.6667C24.3333 12.2667 24.6 12 25 12C25.4 12 25.6667 12.2667 25.6667 12.6667C25.6667 13.0667 25.4 13.3333 25 13.3333Z" fill="black"/>
<path d="M27.6667 6.66667C27.2667 6.66667 27 6.4 27 6C27 5.6 27.2667 5.33334 27.6667 5.33334C28.0667 5.33334 28.3333 5.6 28.3333 6C28.3333 6.4 28.0667 6.66667 27.6667 6.66667Z" fill="black"/>
<path d="M27.6667 16C27.2667 16 27 15.7333 27 15.3333C27 14.9333 27.2667 14.6667 27.6667 14.6667C28.0667 14.6667 28.3333 14.9333 28.3333 15.3333C28.3333 15.7333 28.0667 16 27.6667 16Z" fill="black"/>
<path d="M33 6.66667C32.6 6.66667 32.3333 6.4 32.3333 6C32.3333 5.6 32.6 5.33334 33 5.33334C33.4 5.33334 33.6667 5.6 33.6667 6C33.6667 6.4 33.4 6.66667 33 6.66667Z" fill="black"/>
<path d="M33 1.33333C32.6 1.33333 32.3333 1.06667 32.3333 0.666667C32.3333 0.266667 32.6 0 33 0C33.4 0 33.6667 0.266667 33.6667 0.666667C33.6667 1.06667 33.4 1.33333 33 1.33333Z" fill="black"/>
<path d="M33 12C32.6 12 32.3333 11.7333 32.3333 11.3333C32.3333 10.9333 32.6 10.6667 33 10.6667C33.4 10.6667 33.6667 10.9333 33.6667 11.3333C33.6667 11.7333 33.4 12 33 12Z" fill="black"/>
<path d="M33 17.3333C32.6 17.3333 32.3333 17.0667 32.3333 16.6667C32.3333 16.2667 32.6 16 33 16C33.4 16 33.6667 16.2667 33.6667 16.6667C33.6667 17.0667 33.4 17.3333 33 17.3333Z" fill="black"/>
<path d="M30.3334 2.66667C29.9334 2.66667 29.6667 2.4 29.6667 2C29.6667 1.6 29.9334 1.33334 30.3334 1.33334C30.7334 1.33334 31 1.6 31 2C31 2.4 30.7334 2.66667 30.3334 2.66667Z" fill="black"/>
<path d="M30.3334 8C29.9334 8 29.6667 7.73333 29.6667 7.33333C29.6667 6.93333 29.9334 6.66666 30.3334 6.66666C30.7334 6.66666 31 6.93333 31 7.33333C31 7.73333 30.7334 8 30.3334 8Z" fill="black"/>
<path d="M27.6667 12C27.2667 12 27 11.7333 27 11.3333C27 10.9333 27.2667 10.6667 27.6667 10.6667C28.0667 10.6667 28.3333 10.9333 28.3333 11.3333C28.3333 11.7333 28.0667 12 27.6667 12Z" fill="black"/>
<path d="M11.6667 13.3333H7.66667C7.26667 13.3333 7 13.0667 7 12.6667V8.66667C7 8.26667 7.26667 8 7.66667 8C8.06667 8 8.33333 8.26667 8.33333 8.66667V12H11V8.66667C11 8.26667 11.2667 8 11.6667 8C12.0667 8 12.3333 8.26667 12.3333 8.66667V12.6667C12.3333 13.0667 12.0667 13.3333 11.6667 13.3333Z" fill="black"/>
<path d="M15 40H4.33334C2.06668 40 0.333344 38.2667 0.333344 36V16C0.333344 13.7333 2.06668 12 4.33334 12H15C17.2667 12 19 13.7333 19 16V36C19 38.2667 17.1333 40 15 40ZM4.33334 13.3333C2.86668 13.3333 1.66668 14.5333 1.66668 16V36C1.66668 37.4667 2.86668 38.6667 4.33334 38.6667H15C16.4667 38.6667 17.6667 37.4667 17.6667 36V16C17.6667 14.5333 16.4667 13.3333 15 13.3333H4.33334Z" fill="black"/>
<path d="M13 9.33334H6.33335C5.93335 9.33334 5.66669 9.06667 5.66669 8.66667V5.33334C5.66669 3.06667 7.40002 1.33334 9.66669 1.33334H13C13.4 1.33334 13.6667 1.6 13.6667 2V8.66667C13.6667 9.06667 13.4 9.33334 13 9.33334ZM7.00002 8H12.3334V2.66667H9.66669C8.20002 2.66667 7.00002 3.86667 7.00002 5.33334V8Z" fill="black"/>
<path d="M18.3333 32H1.00001C0.60001 32 0.333344 31.7333 0.333344 31.3333V20.6667C0.333344 20.2667 0.60001 20 1.00001 20H18.3333C18.7333 20 19 20.2667 19 20.6667V31.3333C19 31.7333 18.7333 32 18.3333 32ZM1.66668 30.6667H17.6667V21.3333H1.66668V30.6667Z" fill="black"/>
</svg>
