<svg width="40" height="40" viewBox="0 0 40 40" fill="none" xmlns="http://www.w3.org/2000/svg">
<g clip-path="url(#clip0_9_1629)">
<path d="M2.66666 40C2.53333 40 2.26666 39.8667 2.13333 39.8667L0.133328 37.8667C-0.133338 37.6 -0.133338 37.3333 -4.87504e-06 37.0667L2 33.7333C2.4 33.2 2.66666 31.8667 2.66666 31.3333V30.6667C2.66666 29.6 3.46666 27.6 4.13333 26.8L16.1333 14.8C16.4 14.5333 16.8 14.5333 17.0667 14.8L25.0667 22.8C25.2 22.9333 25.2 23.0667 25.2 23.3333C25.2 23.4667 25.0667 23.7333 24.9333 23.8667C24.8 24 15.8667 32.8 12.9333 35.8667C12.4 36.6667 10.4 37.3333 9.33333 37.3333H8.66666C8.13333 37.3333 6.8 37.6 6.4 37.8667L3.06666 39.8667C2.93333 40 2.8 40 2.66666 40ZM1.46666 37.2L2.66666 38.4L5.59999 36.6667C6.26666 36.2667 7.86666 36 8.66666 36H9.33333C10.1333 36 11.7333 35.3333 12.1333 34.9333C14.6667 32.2667 21.7333 25.2 23.7333 23.3333L16.6667 16.2667L5.2 27.7333C4.66666 28.2667 4 30 4 30.6667V31.3333C4 32.1333 3.73333 33.7333 3.2 34.4L1.46666 37.2Z" fill="black"/>
<path d="M26 25.3333C25.8667 25.3333 25.6 25.3333 25.4667 25.2L14.8 14.5333C14.5333 14.2667 14.5333 13.8667 14.8 13.6L18.8 9.6C19.0667 9.33333 19.4667 9.33333 19.7333 9.6L30.4 20.2667C30.6667 20.5333 30.6667 20.9333 30.4 21.2L26.4 25.2C26.2667 25.3333 26.1333 25.3333 26 25.3333ZM16.2667 14L26 23.7333L29.0667 20.6667L19.3333 10.9333L16.2667 14Z" fill="black"/>
<path d="M28.6667 20C28.5333 20 28.2667 20 28.1333 19.8667L20.1333 11.8667C19.8667 11.6 19.8667 11.2 20.1333 10.9333L29.4667 1.6C30.4 0.533333 31.8667 0 33.3333 0C35.0667 0 36.9333 0.533333 37.8667 1.46667C38.4 2 38.9333 2.8 39.3333 3.6C40.2667 5.6 40.5333 8.4 39.2 9.73333L29.2 19.7333C28.9333 20 28.8 20 28.6667 20ZM21.6 11.3333L28.6667 18.4L38.1333 8.93333C38.8 8.26667 38.8 6.13333 38 4.26667C37.7333 3.6 37.3333 2.93333 36.8 2.53333C36.2667 1.86667 34.8 1.33333 33.3333 1.33333C32.2667 1.33333 31.2 1.73333 30.4 2.53333L21.6 11.3333Z" fill="black"/>
<path d="M7.33332 33.3333C6.93332 33.3333 6.66666 33.0667 6.66666 32.6667V31.3333C6.66666 30.2667 7.46666 28.9333 8.13332 28.1333L12.1333 24.1333C12.4 23.8667 12.8 23.8667 13.0667 24.1333C13.3333 24.4 13.3333 24.8 13.0667 25.0667L9.06666 29.0667C8.53332 29.7333 7.99999 30.6667 7.99999 31.3333V32.6667C7.99999 33.0667 7.73332 33.3333 7.33332 33.3333Z" fill="black"/>
</g>
<defs>
<clipPath id="clip0_9_1629">
<rect width="40" height="40" fill="white"/>
</clipPath>
</defs>
</svg>
