<svg width="40" height="40" viewBox="0 0 40 40" fill="none" xmlns="http://www.w3.org/2000/svg">
<path d="M3.99998 39.3333C3.59998 39.3333 3.33331 39.0667 3.33331 38.6667V1.33333C3.33331 0.933331 3.59998 0.666664 3.99998 0.666664C4.39998 0.666664 4.66665 0.933331 4.66665 1.33333V38.6667C4.66665 39.0667 4.39998 39.3333 3.99998 39.3333Z" fill="black"/>
<path d="M14.6667 39.3333C14.2667 39.3333 14 39.0667 14 38.6667V1.33333C14 0.933331 14.2667 0.666664 14.6667 0.666664C15.0667 0.666664 15.3333 0.933331 15.3333 1.33333V38.6667C15.3333 39.0667 15.0667 39.3333 14.6667 39.3333Z" fill="black"/>
<path d="M25.3333 39.3333C24.9333 39.3333 24.6667 39.0667 24.6667 38.6667V1.33333C24.6667 0.933331 24.9333 0.666664 25.3333 0.666664C25.7333 0.666664 26 0.933331 26 1.33333V38.6667C26 39.0667 25.7333 39.3333 25.3333 39.3333Z" fill="black"/>
<path d="M36 39.3333C35.6 39.3333 35.3333 39.0667 35.3333 38.6667V1.33333C35.3333 0.933331 35.6 0.666664 36 0.666664C36.4 0.666664 36.6666 0.933331 36.6666 1.33333V38.6667C36.6666 39.0667 36.4 39.3333 36 39.3333Z" fill="black"/>
<path d="M38.6667 36.6667H1.33332C0.933323 36.6667 0.666656 36.4 0.666656 36C0.666656 35.6 0.933323 35.3333 1.33332 35.3333H38.6667C39.0667 35.3333 39.3333 35.6 39.3333 36C39.3333 36.4 39.0667 36.6667 38.6667 36.6667Z" fill="black"/>
<path d="M38.6667 26H1.33332C0.933323 26 0.666656 25.7333 0.666656 25.3333C0.666656 24.9333 0.933323 24.6667 1.33332 24.6667H38.6667C39.0667 24.6667 39.3333 24.9333 39.3333 25.3333C39.3333 25.7333 39.0667 26 38.6667 26Z" fill="black"/>
<path d="M38.6667 15.3333H1.33332C0.933323 15.3333 0.666656 15.0667 0.666656 14.6667C0.666656 14.2667 0.933323 14 1.33332 14H38.6667C39.0667 14 39.3333 14.2667 39.3333 14.6667C39.3333 15.0667 39.0667 15.3333 38.6667 15.3333Z" fill="black"/>
<path d="M38.6667 4.66666H1.33332C0.933323 4.66666 0.666656 4.39999 0.666656 3.99999C0.666656 3.59999 0.933323 3.33333 1.33332 3.33333H38.6667C39.0667 3.33333 39.3333 3.59999 39.3333 3.99999C39.3333 4.39999 39.0667 4.66666 38.6667 4.66666Z" fill="black"/>
</svg>
