<svg width="40" height="40" viewBox="0 0 40 40" fill="none" xmlns="http://www.w3.org/2000/svg">
<path d="M24.6667 33.3333H14C13.6 33.3333 13.3334 33.0667 13.3334 32.6667C13.3334 32.2667 13.6 32 14 32C15.8667 32 16 30.1333 16 29.3333V13.3333H10.6667C9.86669 13.3333 8.00002 13.4667 8.00002 15.3333C8.00002 15.7333 7.73335 16 7.33335 16C6.93335 16 6.66669 15.7333 6.66669 15.3333V7.33333C6.66669 6.93333 6.93335 6.66666 7.33335 6.66666H32.6667C33.0667 6.66666 33.3334 6.93333 33.3334 7.33333V15.3333C33.3334 15.7333 33.0667 16 32.6667 16C32.2667 16 32 15.7333 32 15.3333C32 13.8667 30 13.3333 28.6667 13.3333H22.6667V29.3333C22.6667 30.1333 22.8 32 24.6667 32C25.0667 32 25.3334 32.2667 25.3334 32.6667C25.3334 33.0667 25.0667 33.3333 24.6667 33.3333ZM16.6667 32H22.1334C21.7334 31.3333 21.4667 30.4 21.4667 29.3333V12.6667C21.3334 12.2667 21.6 12 22 12H28.6667C29.8667 12 31.0667 12.2667 32 12.9333V8H8.00002V12.6667C8.66669 12.2667 9.60002 12 10.6667 12H16.6667C17.0667 12 17.3334 12.2667 17.3334 12.6667V29.3333C17.3334 30.4 17.0667 31.3333 16.6667 32Z" fill="black"/>
<path d="M12.6666 2.66667H9.99998C9.59998 2.66667 9.33331 2.4 9.33331 2C9.33331 1.6 9.59998 1.33334 9.99998 1.33334H12.6666C13.0666 1.33334 13.3333 1.6 13.3333 2C13.3333 2.4 13.0666 2.66667 12.6666 2.66667Z" fill="black"/>
<path d="M22 2.66667H19.3334C18.9334 2.66667 18.6667 2.4 18.6667 2C18.6667 1.6 18.9334 1.33334 19.3334 1.33334H22C22.4 1.33334 22.6667 1.6 22.6667 2C22.6667 2.4 22.4 2.66667 22 2.66667Z" fill="black"/>
<path d="M31.3333 2.66667H28.6667C28.2667 2.66667 28 2.4 28 2C28 1.6 28.2667 1.33334 28.6667 1.33334H31.3333C31.7333 1.33334 32 1.6 32 2C32 2.4 31.7333 2.66667 31.3333 2.66667Z" fill="black"/>
<path d="M11.3333 38.6667H8.66667C8.26667 38.6667 8 38.4 8 38C8 37.6 8.26667 37.3333 8.66667 37.3333H11.3333C11.7333 37.3333 12 37.6 12 38C12 38.4 11.7333 38.6667 11.3333 38.6667Z" fill="black"/>
<path d="M20.6666 38.6667H18C17.6 38.6667 17.3333 38.4 17.3333 38C17.3333 37.6 17.6 37.3333 18 37.3333H20.6666C21.0666 37.3333 21.3333 37.6 21.3333 38C21.3333 38.4 21.0666 38.6667 20.6666 38.6667Z" fill="black"/>
<path d="M30 38.6667H27.3334C26.9334 38.6667 26.6667 38.4 26.6667 38C26.6667 37.6 26.9334 37.3333 27.3334 37.3333H30C30.4 37.3333 30.6667 37.6 30.6667 38C30.6667 38.4 30.4 38.6667 30 38.6667Z" fill="black"/>
<path d="M1.99998 30.6667C1.59998 30.6667 1.33331 30.4 1.33331 30V27.3333C1.33331 26.9333 1.59998 26.6667 1.99998 26.6667C2.39998 26.6667 2.66665 26.9333 2.66665 27.3333V30C2.66665 30.4 2.39998 30.6667 1.99998 30.6667Z" fill="black"/>
<path d="M1.99998 21.3333C1.59998 21.3333 1.33331 21.0667 1.33331 20.6667V18C1.33331 17.6 1.59998 17.3333 1.99998 17.3333C2.39998 17.3333 2.66665 17.6 2.66665 18V20.6667C2.66665 21.0667 2.39998 21.3333 1.99998 21.3333Z" fill="black"/>
<path d="M1.99998 12C1.59998 12 1.33331 11.7333 1.33331 11.3333V8.66667C1.33331 8.26667 1.59998 8 1.99998 8C2.39998 8 2.66665 8.26667 2.66665 8.66667V11.3333C2.66665 11.7333 2.39998 12 1.99998 12Z" fill="black"/>
<path d="M38 32C37.6 32 37.3333 31.7333 37.3333 31.3333V28.6667C37.3333 28.2667 37.6 28 38 28C38.4 28 38.6666 28.2667 38.6666 28.6667V31.3333C38.6666 31.7333 38.4 32 38 32Z" fill="black"/>
<path d="M38 22.6667C37.6 22.6667 37.3333 22.4 37.3333 22V19.3333C37.3333 18.9333 37.6 18.6667 38 18.6667C38.4 18.6667 38.6666 18.9333 38.6666 19.3333V22C38.6666 22.4 38.4 22.6667 38 22.6667Z" fill="black"/>
<path d="M38 13.3333C37.6 13.3333 37.3333 13.0667 37.3333 12.6667V10C37.3333 9.6 37.6 9.33334 38 9.33334C38.4 9.33334 38.6666 9.6 38.6666 10V12.6667C38.6666 13.0667 38.4 13.3333 38 13.3333Z" fill="black"/>
<path d="M39.3334 5.33333H35.3334C34.9334 5.33333 34.6667 5.06667 34.6667 4.66667V0.666667C34.6667 0.266667 34.9334 0 35.3334 0H39.3334C39.7334 0 40 0.266667 40 0.666667V4.66667C40 5.06667 39.7334 5.33333 39.3334 5.33333ZM36 4H38.6667V1.33333H36V4Z" fill="black"/>
<path d="M4.66667 5.33333H0.666667C0.266667 5.33333 0 5.06667 0 4.66667V0.666667C0 0.266667 0.266667 0 0.666667 0H4.66667C5.06667 0 5.33333 0.266667 5.33333 0.666667V4.66667C5.33333 5.06667 5.06667 5.33333 4.66667 5.33333ZM1.33333 4H4V1.33333H1.33333V4Z" fill="black"/>
<path d="M39.3334 40H35.3334C34.9334 40 34.6667 39.7333 34.6667 39.3333V35.3333C34.6667 34.9333 34.9334 34.6667 35.3334 34.6667H39.3334C39.7334 34.6667 40 34.9333 40 35.3333V39.3333C40 39.7333 39.7334 40 39.3334 40ZM36 38.6667H38.6667V36H36V38.6667Z" fill="black"/>
<path d="M4.66667 40H0.666667C0.266667 40 0 39.7333 0 39.3333V35.3333C0 34.9333 0.266667 34.6667 0.666667 34.6667H4.66667C5.06667 34.6667 5.33333 34.9333 5.33333 35.3333V39.3333C5.33333 39.7333 5.06667 40 4.66667 40ZM1.33333 38.6667H4V36H1.33333V38.6667Z" fill="black"/>
</svg>
