<svg width="40" height="40" viewBox="0 0 40 40" fill="none" xmlns="http://www.w3.org/2000/svg">
<path d="M26 34.6667H5.99998C5.59998 34.6667 5.33331 34.4 5.33331 34C5.33331 33.6 5.59998 33.3333 5.99998 33.3333H25.7333L33.3333 25.7333V6C33.3333 5.6 33.6 5.33334 34 5.33334C34.4 5.33334 34.6666 5.6 34.6666 6V26C34.6666 26.1333 34.5333 26.4 34.5333 26.5333L26.5333 34.5333C26.4 34.5333 26.1333 34.6667 26 34.6667Z" fill="black"/>
<path d="M0.666667 40C0.533333 40 0.4 40 0.266667 39.8667C0.133333 39.7333 0 39.6 0 39.3333V0.666667C0 0.266667 0.266667 0 0.666667 0H39.3333C39.6 0 39.7333 0.133333 39.8667 0.266667C40 0.4 40 0.666667 40 0.8L38.6667 6.13333C38.5333 6.4 38.2667 6.66667 38 6.66667H6.66667V38C6.66667 38.2667 6.4 38.5333 6.13333 38.6667L0.8 40C0.8 40 0.666667 40 0.666667 40ZM1.33333 1.33333V38.5333L5.33333 37.4667V6C5.33333 5.6 5.6 5.33333 6 5.33333H37.4667L38.5333 1.33333H1.33333Z" fill="black"/>
<path d="M6 6.66667H0.666667C0.266667 6.66667 0 6.4 0 6C0 5.6 0.266667 5.33333 0.666667 5.33333H5.33333V0.666667C5.33333 0.266667 5.6 0 6 0C6.4 0 6.66667 0.266667 6.66667 0.666667V6C6.66667 6.4 6.4 6.66667 6 6.66667Z" fill="black"/>
<path d="M6 34.6667H4.66667C4.26667 34.6667 4 34.4 4 34C4 33.6 4.26667 33.3333 4.66667 33.3333H6C6.4 33.3333 6.66667 33.6 6.66667 34C6.66667 34.4 6.4 34.6667 6 34.6667Z" fill="black"/>
<path d="M6 30.6667H4.66667C4.26667 30.6667 4 30.4 4 30C4 29.6 4.26667 29.3333 4.66667 29.3333H6C6.4 29.3333 6.66667 29.6 6.66667 30C6.66667 30.4 6.4 30.6667 6 30.6667Z" fill="black"/>
<path d="M6 26.6667H4.66667C4.26667 26.6667 4 26.4 4 26C4 25.6 4.26667 25.3333 4.66667 25.3333H6C6.4 25.3333 6.66667 25.6 6.66667 26C6.66667 26.4 6.4 26.6667 6 26.6667Z" fill="black"/>
<path d="M6 22.6667H4.66667C4.26667 22.6667 4 22.4 4 22C4 21.6 4.26667 21.3333 4.66667 21.3333H6C6.4 21.3333 6.66667 21.6 6.66667 22C6.66667 22.4 6.4 22.6667 6 22.6667Z" fill="black"/>
<path d="M6 18.6667H4.66667C4.26667 18.6667 4 18.4 4 18C4 17.6 4.26667 17.3333 4.66667 17.3333H6C6.4 17.3333 6.66667 17.6 6.66667 18C6.66667 18.4 6.4 18.6667 6 18.6667Z" fill="black"/>
<path d="M6 14.6667H4.66667C4.26667 14.6667 4 14.4 4 14C4 13.6 4.26667 13.3333 4.66667 13.3333H6C6.4 13.3333 6.66667 13.6 6.66667 14C6.66667 14.4 6.4 14.6667 6 14.6667Z" fill="black"/>
<path d="M6 10.6667H4.66667C4.26667 10.6667 4 10.4 4 10C4 9.6 4.26667 9.33334 4.66667 9.33334H6C6.4 9.33334 6.66667 9.6 6.66667 10C6.66667 10.4 6.4 10.6667 6 10.6667Z" fill="black"/>
<path d="M9.99998 6.66667C9.59998 6.66667 9.33331 6.4 9.33331 6V4.66667C9.33331 4.26667 9.59998 4 9.99998 4C10.4 4 10.6666 4.26667 10.6666 4.66667V6C10.6666 6.4 10.4 6.66667 9.99998 6.66667Z" fill="black"/>
<path d="M14 6.66667C13.6 6.66667 13.3333 6.4 13.3333 6V4.66667C13.3333 4.26667 13.6 4 14 4C14.4 4 14.6666 4.26667 14.6666 4.66667V6C14.6666 6.4 14.4 6.66667 14 6.66667Z" fill="black"/>
<path d="M18 6.66667C17.6 6.66667 17.3333 6.4 17.3333 6V4.66667C17.3333 4.26667 17.6 4 18 4C18.4 4 18.6666 4.26667 18.6666 4.66667V6C18.6666 6.4 18.4 6.66667 18 6.66667Z" fill="black"/>
<path d="M22 6.66667C21.6 6.66667 21.3333 6.4 21.3333 6V4.66667C21.3333 4.26667 21.6 4 22 4C22.4 4 22.6666 4.26667 22.6666 4.66667V6C22.6666 6.4 22.4 6.66667 22 6.66667Z" fill="black"/>
<path d="M26 6.4C25.6 6.4 25.3333 6.13333 25.3333 5.73333V4.66667C25.3333 4.26667 25.6 4 26 4C26.4 4 26.6666 4.26667 26.6666 4.66667V5.73333C26.6666 6 26.4 6.4 26 6.4Z" fill="black"/>
<path d="M30 6.4C29.6 6.4 29.3333 6.13333 29.3333 5.73333V4.66667C29.3333 4.26667 29.6 4 30 4C30.4 4 30.6666 4.26667 30.6666 4.66667V5.73333C30.6666 6 30.4 6.4 30 6.4Z" fill="black"/>
<path d="M34 6.66667C33.6 6.66667 33.3333 6.4 33.3333 6V4.66667C33.3333 4.26667 33.6 4 34 4C34.4 4 34.6666 4.26667 34.6666 4.66667V6C34.6666 6.4 34.4 6.66667 34 6.66667Z" fill="black"/>
<path d="M26 34C25.6 34 25.3333 33.7333 25.3333 33.3333V26C25.3333 25.6 25.6 25.3333 26 25.3333H34C34.4 25.3333 34.6666 25.6 34.6666 26C34.6666 26.4 34.4 26.6667 34 26.6667H26.6666V33.3333C26.6666 33.7333 26.4 34 26 34Z" fill="black"/>
<path d="M10 21.3333H8.66667C8.26667 21.3333 8 21.0667 8 20.6667C8 20.2667 8.26667 20 8.66667 20H10C10.4 20 10.6667 20.2667 10.6667 20.6667C10.6667 21.0667 10.4 21.3333 10 21.3333Z" fill="black"/>
<path d="M15.3333 21.3333H14C13.6 21.3333 13.3333 21.0667 13.3333 20.6667C13.3333 20.2667 13.6 20 14 20H15.3333C15.7333 20 16 20.2667 16 20.6667C16 21.0667 15.7333 21.3333 15.3333 21.3333Z" fill="black"/>
<path d="M20.6667 21.3333H19.3334C18.9334 21.3333 18.6667 21.0667 18.6667 20.6667C18.6667 20.2667 18.9334 20 19.3334 20H20V19.3333C20 18.9333 20.2667 18.6667 20.6667 18.6667C21.0667 18.6667 21.3334 18.9333 21.3334 19.3333V20.6667C21.3334 21.0667 21.0667 21.3333 20.6667 21.3333Z" fill="black"/>
<path d="M20.6667 16C20.2667 16 20 15.7333 20 15.3333V14C20 13.6 20.2667 13.3333 20.6667 13.3333C21.0667 13.3333 21.3333 13.6 21.3333 14V15.3333C21.3333 15.7333 21.0667 16 20.6667 16Z" fill="black"/>
<path d="M20.6667 10.6667C20.2667 10.6667 20 10.4 20 10V8.66667C20 8.26667 20.2667 8 20.6667 8C21.0667 8 21.3333 8.26667 21.3333 8.66667V10C21.3333 10.4 21.0667 10.6667 20.6667 10.6667Z" fill="black"/>
</svg>
