<svg width="40" height="37" viewBox="0 0 40 37" fill="none" xmlns="http://www.w3.org/2000/svg">
<path d="M19.3333 33H15.3333C14.4 33 13.4667 32.6 12.6667 31.8L7.86666 26.8667C6.26666 25.2667 6.26666 22.7333 7.86666 21.1333L26.9333 1.13334C27.0667 1 27.2 0.866669 27.4667 0.866669C27.7333 0.866669 27.8667 1 28 1L40 13C40.2667 13.2667 40.2667 13.6667 40 13.9333L22.2667 31.8C21.6 32.6 20.4 33 19.3333 33ZM27.3333 2.6L8.79999 22.0667C7.73332 23.1333 7.73332 24.8667 8.79999 25.9333L13.6 30.8667C14.1333 31.4 14.6667 31.6667 15.3333 31.6667H19.3333C20 31.6667 20.8 31.4 21.3333 30.8667L38.4 13.6667L27.3333 2.6Z" fill="black"/>
<path d="M26 27.6667C25.8667 27.6667 25.6 27.6667 25.4667 27.5333L14.1333 16.2C13.8667 15.9333 13.8667 15.5333 14.1333 15.2667C14.4 15 14.8 15 15.0667 15.2667L26.4 26.6C26.6667 26.8667 26.6667 27.2667 26.4 27.5333C26.4 27.6667 26.1333 27.6667 26 27.6667Z" fill="black"/>
<path d="M8.66667 33H0.666667C0.266667 33 0 32.7333 0 32.3333C0 31.9333 0.266667 31.6667 0.666667 31.6667H8.66667C9.06667 31.6667 9.33333 31.9333 9.33333 32.3333C9.33333 32.7333 9.06667 33 8.66667 33Z" fill="black"/>
<path d="M24.6667 37H8.66667C8.26667 37 8 36.7333 8 36.3333C8 35.9333 8.26667 35.6667 8.66667 35.6667H24.6667C25.0667 35.6667 25.3333 35.9333 25.3333 36.3333C25.3333 36.7333 25.0667 37 24.6667 37Z" fill="black"/>
</svg>
