<svg width="40" height="40" viewBox="0 0 40 40" fill="none" xmlns="http://www.w3.org/2000/svg">
<path d="M38 26.6667H1.33333C0.933333 26.6667 0.666666 26.4 0.666666 26C0.666666 25.6 0.933333 25.3333 1.33333 25.3333H38C38.4 25.3333 38.6667 25.6 38.6667 26C38.6667 26.4 38.4 26.6667 38 26.6667Z" fill="black"/>
<path d="M21.3333 39.7333C20.9333 39.7333 20.6667 39.4667 20.6667 39.0667V32.6667C20.6667 32.2667 20.9333 32 21.3333 32C21.7333 32 22 32.2667 22 32.6667V39.0667C22 39.3333 21.7333 39.7333 21.3333 39.7333Z" fill="black"/>
<path d="M29.3333 40C28.9333 40 28.6667 39.7333 28.6667 39.3333V32.6667C28.6667 32.2667 28.9333 32 29.3333 32C29.7333 32 30 32.2667 30 32.6667V39.3333C30 39.7333 29.7333 40 29.3333 40Z" fill="black"/>
<path d="M38.6667 40H13.3333C13.0667 40 12.8 39.8667 12.6667 39.6L10.6667 34.4L8.66667 39.4667C8.53333 39.8667 8.26667 40 8 40H1.33333C0.933333 40 0.666666 39.7333 0.666666 39.3333V22C0.666666 18 4 14.6667 8 14.6667H15.2L14 6.13333C14 2.8 16.8 0 20 0C23.2 0 26 2.8 26 6L24.8 14.6667H32C36 14.6667 39.3333 18 39.3333 22V39.3333C39.3333 39.7333 39.0667 40 38.6667 40ZM13.7333 38.6667H38V22C38 18.6667 35.3333 16 32 16H24C23.8667 16 23.6 15.8667 23.4667 15.7333C23.3333 15.6 23.3333 15.3333 23.3333 15.2L24.6667 5.86667C24.6667 3.6 22.4 1.33333 20 1.33333C17.6 1.33333 15.3333 3.6 15.3333 6L16.6667 15.2C16.6667 15.3333 16.6667 15.6 16.5333 15.7333C16.4 15.8667 16.1333 16 16 16H8C4.66667 16 2 18.6667 2 22V38.6667H7.6L10.1333 32.4C10.4 31.8667 11.2 31.8667 11.3333 32.4L13.7333 38.6667Z" fill="black"/>
</svg>
