<svg width="40" height="30" viewBox="0 0 40 30" fill="none" xmlns="http://www.w3.org/2000/svg">
<path d="M39.3333 29.6667H0.666667C0.266667 29.6667 0 29.4 0 29V1C0 0.600003 0.266667 0.333336 0.666667 0.333336H39.3333C39.7333 0.333336 40 0.600003 40 1V29C40 29.4 39.7333 29.6667 39.3333 29.6667ZM1.33333 28.3333H38.6667V1.66667H1.33333V28.3333Z" fill="black"/>
<path d="M4.66667 7C4.26667 7 4 6.73334 4 6.33334C4 5.93334 4.26667 5.66667 4.66667 5.66667C5.06667 5.66667 5.33333 5.93334 5.33333 6.33334C5.33333 6.73334 5.06667 7 4.66667 7Z" fill="black"/>
<path d="M4.66667 4.33333C4.26667 4.33333 4 4.06667 4 3.66667C4 3.26667 4.26667 3 4.66667 3C5.06667 3 5.33333 3.26667 5.33333 3.66667C5.33333 4.06667 5.06667 4.33333 4.66667 4.33333Z" fill="black"/>
<path d="M7.33333 11C6.93333 11 6.66666 10.7333 6.66666 10.3333C6.66666 9.93334 6.93333 9.66667 7.33333 9.66667C7.73333 9.66667 8 9.93334 8 10.3333C8 10.7333 7.73333 11 7.33333 11Z" fill="black"/>
<path d="M2 13.6667C1.6 13.6667 1.33334 13.4 1.33334 13C1.33334 12.6 1.6 12.3333 2 12.3333C2.4 12.3333 2.66667 12.6 2.66667 13C2.66667 13.4 2.4 13.6667 2 13.6667Z" fill="black"/>
<path d="M2 16.3333C1.6 16.3333 1.33334 16.0667 1.33334 15.6667C1.33334 15.2667 1.6 15 2 15C2.4 15 2.66667 15.2667 2.66667 15.6667C2.66667 16.0667 2.4 16.3333 2 16.3333Z" fill="black"/>
<path d="M2 19C1.6 19 1.33334 18.7333 1.33334 18.3333C1.33334 17.9333 1.6 17.6667 2 17.6667C2.4 17.6667 2.66667 17.9333 2.66667 18.3333C2.66667 18.7333 2.4 19 2 19Z" fill="black"/>
<path d="M2 21.6667C1.6 21.6667 1.33334 21.4 1.33334 21C1.33334 20.6 1.6 20.3333 2 20.3333C2.4 20.3333 2.66667 20.6 2.66667 21C2.66667 21.4 2.4 21.6667 2 21.6667Z" fill="black"/>
<path d="M2 24.3333C1.6 24.3333 1.33334 24.0667 1.33334 23.6667C1.33334 23.2667 1.6 23 2 23C2.4 23 2.66667 23.2667 2.66667 23.6667C2.66667 24.0667 2.4 24.3333 2 24.3333Z" fill="black"/>
<path d="M2 27C1.6 27 1.33334 26.7333 1.33334 26.3333C1.33334 25.9333 1.6 25.6667 2 25.6667C2.4 25.6667 2.66667 25.9333 2.66667 26.3333C2.66667 26.7333 2.4 27 2 27Z" fill="black"/>
<path d="M10 9.66667C9.6 9.66667 9.33334 9.4 9.33334 9C9.33334 8.6 9.6 8.33334 10 8.33334C10.4 8.33334 10.6667 8.6 10.6667 9C10.6667 9.4 10.4 9.66667 10 9.66667Z" fill="black"/>
<path d="M10 12.3333C9.6 12.3333 9.33334 12.0667 9.33334 11.6667C9.33334 11.2667 9.6 11 10 11C10.4 11 10.6667 11.2667 10.6667 11.6667C10.6667 12.0667 10.4 12.3333 10 12.3333Z" fill="black"/>
<path d="M4.66667 15C4.26667 15 4 14.7333 4 14.3333C4 13.9333 4.26667 13.6667 4.66667 13.6667C5.06667 13.6667 5.33333 13.9333 5.33333 14.3333C5.33333 14.7333 5.06667 15 4.66667 15Z" fill="black"/>
<path d="M4.66667 17.6667C4.26667 17.6667 4 17.4 4 17C4 16.6 4.26667 16.3333 4.66667 16.3333C5.06667 16.3333 5.33333 16.6 5.33333 17C5.33333 17.4 5.06667 17.6667 4.66667 17.6667Z" fill="black"/>
<path d="M4.66667 20.3333C4.26667 20.3333 4 20.0667 4 19.6667C4 19.2667 4.26667 19 4.66667 19C5.06667 19 5.33333 19.2667 5.33333 19.6667C5.33333 20.0667 5.06667 20.3333 4.66667 20.3333Z" fill="black"/>
<path d="M4.66667 23C4.26667 23 4 22.7333 4 22.3333C4 21.9333 4.26667 21.6667 4.66667 21.6667C5.06667 21.6667 5.33333 21.9333 5.33333 22.3333C5.33333 22.7333 5.06667 23 4.66667 23Z" fill="black"/>
<path d="M4.66667 25.6667C4.26667 25.6667 4 25.4 4 25C4 24.6 4.26667 24.3333 4.66667 24.3333C5.06667 24.3333 5.33333 24.6 5.33333 25C5.33333 25.4 5.06667 25.6667 4.66667 25.6667Z" fill="black"/>
<path d="M4.66667 28.3333C4.26667 28.3333 4 28.0667 4 27.6667C4 27.2667 4.26667 27 4.66667 27C5.06667 27 5.33333 27.2667 5.33333 27.6667C5.33333 28.0667 5.06667 28.3333 4.66667 28.3333Z" fill="black"/>
<path d="M2 8.33333C1.6 8.33333 1.33334 8.06667 1.33334 7.66667C1.33334 7.26667 1.6 7 2 7C2.4 7 2.66667 7.26667 2.66667 7.66667C2.66667 8.06667 2.4 8.33333 2 8.33333Z" fill="black"/>
<path d="M2 5.66667C1.6 5.66667 1.33334 5.4 1.33334 5C1.33334 4.6 1.6 4.33334 2 4.33334C2.4 4.33334 2.66667 4.6 2.66667 5C2.66667 5.4 2.4 5.66667 2 5.66667Z" fill="black"/>
<path d="M12.6667 11C12.2667 11 12 10.7333 12 10.3333C12 9.93334 12.2667 9.66667 12.6667 9.66667C13.0667 9.66667 13.3333 9.93334 13.3333 10.3333C13.3333 10.7333 13.0667 11 12.6667 11Z" fill="black"/>
<path d="M4.66667 12.3333C4.26667 12.3333 4 12.0667 4 11.6667C4 11.2667 4.26667 11 4.66667 11C5.06667 11 5.33333 11.2667 5.33333 11.6667C5.33333 12.0667 5.06667 12.3333 4.66667 12.3333Z" fill="black"/>
<path d="M7.33333 16.3333C6.93333 16.3333 6.66666 16.0667 6.66666 15.6667C6.66666 15.2667 6.93333 15 7.33333 15C7.73333 15 8 15.2667 8 15.6667C8 16.0667 7.73333 16.3333 7.33333 16.3333Z" fill="black"/>
<path d="M7.33333 19C6.93333 19 6.66666 18.7333 6.66666 18.3333C6.66666 17.9333 6.93333 17.6667 7.33333 17.6667C7.73333 17.6667 8 17.9333 8 18.3333C8 18.7333 7.73333 19 7.33333 19Z" fill="black"/>
<path d="M7.33333 21.6667C6.93333 21.6667 6.66666 21.4 6.66666 21C6.66666 20.6 6.93333 20.3333 7.33333 20.3333C7.73333 20.3333 8 20.6 8 21C8 21.4 7.73333 21.6667 7.33333 21.6667Z" fill="black"/>
<path d="M7.33333 24.3333C6.93333 24.3333 6.66666 24.0667 6.66666 23.6667C6.66666 23.2667 6.93333 23 7.33333 23C7.73333 23 8 23.2667 8 23.6667C8 24.0667 7.73333 24.3333 7.33333 24.3333Z" fill="black"/>
<path d="M7.33333 27C6.93333 27 6.66666 26.7333 6.66666 26.3333C6.66666 25.9333 6.93333 25.6667 7.33333 25.6667C7.73333 25.6667 8 25.9333 8 26.3333C8 26.7333 7.73333 27 7.33333 27Z" fill="black"/>
<path d="M7.33333 8.33333C6.93333 8.33333 6.66666 8.06667 6.66666 7.66667C6.66666 7.26667 6.93333 7 7.33333 7C7.73333 7 8 7.26667 8 7.66667C8 8.06667 7.73333 8.33333 7.33333 8.33333Z" fill="black"/>
<path d="M7.33333 5.66667C6.93333 5.66667 6.66666 5.4 6.66666 5C6.66666 4.6 6.93333 4.33334 7.33333 4.33334C7.73333 4.33334 8 4.6 8 5C8 5.4 7.73333 5.66667 7.33333 5.66667Z" fill="black"/>
<path d="M2 11C1.6 11 1.33334 10.7333 1.33334 10.3333C1.33334 9.93334 1.6 9.66667 2 9.66667C2.4 9.66667 2.66667 9.93334 2.66667 10.3333C2.66667 10.7333 2.4 11 2 11Z" fill="black"/>
<path d="M10 15C9.6 15 9.33334 14.7333 9.33334 14.3333C9.33334 13.9333 9.6 13.6667 10 13.6667C10.4 13.6667 10.6667 13.9333 10.6667 14.3333C10.6667 14.7333 10.4 15 10 15Z" fill="black"/>
<path d="M10 17.6667C9.6 17.6667 9.33334 17.4 9.33334 17C9.33334 16.6 9.6 16.3333 10 16.3333C10.4 16.3333 10.6667 16.6 10.6667 17C10.6667 17.4 10.4 17.6667 10 17.6667Z" fill="black"/>
<path d="M10 20.3333C9.6 20.3333 9.33334 20.0667 9.33334 19.6667C9.33334 19.2667 9.6 19 10 19C10.4 19 10.6667 19.2667 10.6667 19.6667C10.6667 20.0667 10.4 20.3333 10 20.3333Z" fill="black"/>
<path d="M10 23C9.6 23 9.33334 22.7333 9.33334 22.3333C9.33334 21.9333 9.6 21.6667 10 21.6667C10.4 21.6667 10.6667 21.9333 10.6667 22.3333C10.6667 22.7333 10.4 23 10 23Z" fill="black"/>
<path d="M10 25.6667C9.6 25.6667 9.33334 25.4 9.33334 25C9.33334 24.6 9.6 24.3333 10 24.3333C10.4 24.3333 10.6667 24.6 10.6667 25C10.6667 25.4 10.4 25.6667 10 25.6667Z" fill="black"/>
<path d="M10 28.3333C9.6 28.3333 9.33334 28.0667 9.33334 27.6667C9.33334 27.2667 9.6 27 10 27C10.4 27 10.6667 27.2667 10.6667 27.6667C10.6667 28.0667 10.4 28.3333 10 28.3333Z" fill="black"/>
<path d="M10 7C9.6 7 9.33334 6.73334 9.33334 6.33334C9.33334 5.93334 9.6 5.66667 10 5.66667C10.4 5.66667 10.6667 5.93334 10.6667 6.33334C10.6667 6.73334 10.4 7 10 7Z" fill="black"/>
<path d="M10 4.33333C9.6 4.33333 9.33334 4.06667 9.33334 3.66667C9.33334 3.26667 9.6 3 10 3C10.4 3 10.6667 3.26667 10.6667 3.66667C10.6667 4.06667 10.4 4.33333 10 4.33333Z" fill="black"/>
<path d="M4.66667 9.66667C4.26667 9.66667 4 9.4 4 9C4 8.6 4.26667 8.33334 4.66667 8.33334C5.06667 8.33334 5.33333 8.6 5.33333 9C5.33333 9.4 5.06667 9.66667 4.66667 9.66667Z" fill="black"/>
<path d="M7.33333 13.6667C6.93333 13.6667 6.66666 13.4 6.66666 13C6.66666 12.6 6.93333 12.3333 7.33333 12.3333C7.73333 12.3333 8 12.6 8 13C8 13.4 7.73333 13.6667 7.33333 13.6667Z" fill="black"/>
<path d="M12.6667 16.3333C12.2667 16.3333 12 16.0667 12 15.6667C12 15.2667 12.2667 15 12.6667 15C13.0667 15 13.3333 15.2667 13.3333 15.6667C13.3333 16.0667 13.0667 16.3333 12.6667 16.3333Z" fill="black"/>
<path d="M12.6667 19C12.2667 19 12 18.7333 12 18.3333C12 17.9333 12.2667 17.6667 12.6667 17.6667C13.0667 17.6667 13.3333 17.9333 13.3333 18.3333C13.3333 18.7333 13.0667 19 12.6667 19Z" fill="black"/>
<path d="M12.6667 21.6667C12.2667 21.6667 12 21.4 12 21C12 20.6 12.2667 20.3333 12.6667 20.3333C13.0667 20.3333 13.3333 20.6 13.3333 21C13.3333 21.4 13.0667 21.6667 12.6667 21.6667Z" fill="black"/>
<path d="M12.6667 24.3333C12.2667 24.3333 12 24.0667 12 23.6667C12 23.2667 12.2667 23 12.6667 23C13.0667 23 13.3333 23.2667 13.3333 23.6667C13.3333 24.0667 13.0667 24.3333 12.6667 24.3333Z" fill="black"/>
<path d="M12.6667 27C12.2667 27 12 26.7333 12 26.3333C12 25.9333 12.2667 25.6667 12.6667 25.6667C13.0667 25.6667 13.3333 25.9333 13.3333 26.3333C13.3333 26.7333 13.0667 27 12.6667 27Z" fill="black"/>
<path d="M12.6667 8.33333C12.2667 8.33333 12 8.06667 12 7.66667C12 7.26667 12.2667 7 12.6667 7C13.0667 7 13.3333 7.26667 13.3333 7.66667C13.3333 8.06667 13.0667 8.33333 12.6667 8.33333Z" fill="black"/>
<path d="M12.6667 13.6667C12.2667 13.6667 12 13.4 12 13C12 12.6 12.2667 12.3333 12.6667 12.3333C13.0667 12.3333 13.3333 12.6 13.3333 13C13.3333 13.4 13.0667 13.6667 12.6667 13.6667Z" fill="black"/>
<path d="M18 19C17.6 19 17.3333 18.7333 17.3333 18.3333C17.3333 17.9333 17.6 17.6667 18 17.6667C18.4 17.6667 18.6667 17.9333 18.6667 18.3333C18.6667 18.7333 18.4 19 18 19Z" fill="black"/>
<path d="M22 7C21.6 7 21.3333 6.73334 21.3333 6.33334C21.3333 5.93334 21.6 5.66667 22 5.66667C22.4 5.66667 22.6667 5.93334 22.6667 6.33334C22.6667 6.73334 22.4 7 22 7Z" fill="black"/>
<path d="M26 5.66667C25.6 5.66667 25.3333 5.4 25.3333 5C25.3333 4.6 25.6 4.33334 26 4.33334C26.4 4.33334 26.6667 4.6 26.6667 5C26.6667 5.4 26.4 5.66667 26 5.66667Z" fill="black"/>
<path d="M26 11C25.6 11 25.3333 10.7333 25.3333 10.3333C25.3333 9.93334 25.6 9.66667 26 9.66667C26.4 9.66667 26.6667 9.93334 26.6667 10.3333C26.6667 10.7333 26.4 11 26 11Z" fill="black"/>
<path d="M26 19C25.6 19 25.3333 18.7333 25.3333 18.3333C25.3333 17.9333 25.6 17.6667 26 17.6667C26.4 17.6667 26.6667 17.9333 26.6667 18.3333C26.6667 18.7333 26.4 19 26 19Z" fill="black"/>
<path d="M26 25.6667C25.6 25.6667 25.3333 25.4 25.3333 25C25.3333 24.6 25.6 24.3333 26 24.3333C26.4 24.3333 26.6667 24.6 26.6667 25C26.6667 25.4 26.4 25.6667 26 25.6667Z" fill="black"/>
<path d="M30 4.33333C29.6 4.33333 29.3333 4.06667 29.3333 3.66667C29.3333 3.26667 29.6 3 30 3C30.4 3 30.6667 3.26667 30.6667 3.66667C30.6667 4.06667 30.4 4.33333 30 4.33333Z" fill="black"/>
<path d="M30 9.66667C29.6 9.66667 29.3333 9.4 29.3333 9C29.3333 8.6 29.6 8.33334 30 8.33334C30.4 8.33334 30.6667 8.6 30.6667 9C30.6667 9.4 30.4 9.66667 30 9.66667Z" fill="black"/>
<path d="M30 17.6667C29.6 17.6667 29.3333 17.4 29.3333 17C29.3333 16.6 29.6 16.3333 30 16.3333C30.4 16.3333 30.6667 16.6 30.6667 17C30.6667 17.4 30.4 17.6667 30 17.6667Z" fill="black"/>
<path d="M30 24.3333C29.6 24.3333 29.3333 24.0667 29.3333 23.6667C29.3333 23.2667 29.6 23 30 23C30.4 23 30.6667 23.2667 30.6667 23.6667C30.6667 24.0667 30.4 24.3333 30 24.3333Z" fill="black"/>
<path d="M22 15C21.6 15 21.3333 14.7333 21.3333 14.3333C21.3333 13.9333 21.6 13.6667 22 13.6667C22.4 13.6667 22.6667 13.9333 22.6667 14.3333C22.6667 14.7333 22.4 15 22 15Z" fill="black"/>
<path d="M22 23C21.6 23 21.3333 22.7333 21.3333 22.3333C21.3333 21.9333 21.6 21.6667 22 21.6667C22.4 21.6667 22.6667 21.9333 22.6667 22.3333C22.6667 22.7333 22.4 23 22 23Z" fill="black"/>
<path d="M18 28.3333C17.6 28.3333 17.3333 28.0667 17.3333 27.6667C17.3333 27.2667 17.6 27 18 27C18.4 27 18.6667 27.2667 18.6667 27.6667C18.6667 28.0667 18.4 28.3333 18 28.3333Z" fill="black"/>
<path d="M18 3C17.6 3 17.3333 2.73334 17.3333 2.33334C17.3333 1.93334 17.6 1.66667 18 1.66667C18.4 1.66667 18.6667 1.93334 18.6667 2.33334C18.6667 2.73334 18.4 3 18 3Z" fill="black"/>
<path d="M18 8.33333C17.6 8.33333 17.3333 8.06667 17.3333 7.66667C17.3333 7.26667 17.6 7 18 7C18.4 7 18.6667 7.26667 18.6667 7.66667C18.6667 8.06667 18.4 8.33333 18 8.33333Z" fill="black"/>
<path d="M18 13.6667C17.6 13.6667 17.3333 13.4 17.3333 13C17.3333 12.6 17.6 12.3333 18 12.3333C18.4 12.3333 18.6667 12.6 18.6667 13C18.6667 13.4 18.4 13.6667 18 13.6667Z" fill="black"/>
<path d="M15.3333 20.3333C14.9333 20.3333 14.6667 20.0667 14.6667 19.6667C14.6667 19.2667 14.9333 19 15.3333 19C15.7333 19 16 19.2667 16 19.6667C16 20.0667 15.7333 20.3333 15.3333 20.3333Z" fill="black"/>
<path d="M18 23C17.6 23 17.3333 22.7333 17.3333 22.3333C17.3333 21.9333 17.6 21.6667 18 21.6667C18.4 21.6667 18.6667 21.9333 18.6667 22.3333C18.6667 22.7333 18.4 23 18 23Z" fill="black"/>
<path d="M12.6667 5.66667C12.2667 5.66667 12 5.4 12 5C12 4.6 12.2667 4.33334 12.6667 4.33334C13.0667 4.33334 13.3333 4.6 13.3333 5C13.3333 5.4 13.0667 5.66667 12.6667 5.66667Z" fill="black"/>
<path d="M2 3C1.6 3 1.33334 2.73334 1.33334 2.33334C1.33334 1.93334 1.6 1.66667 2 1.66667C2.4 1.66667 2.66667 1.93334 2.66667 2.33334C2.66667 2.73334 2.4 3 2 3Z" fill="black"/>
<path d="M7.33333 3C6.93333 3 6.66666 2.73334 6.66666 2.33334C6.66666 1.93334 6.93333 1.66667 7.33333 1.66667C7.73333 1.66667 8 1.93334 8 2.33334C8 2.73334 7.73333 3 7.33333 3Z" fill="black"/>
<path d="M12.6667 3C12.2667 3 12 2.73334 12 2.33334C12 1.93334 12.2667 1.66667 12.6667 1.66667C13.0667 1.66667 13.3333 1.93334 13.3333 2.33334C13.3333 2.73334 13.0667 3 12.6667 3Z" fill="black"/>
<path d="M15.3333 5.66667C14.9333 5.66667 14.6667 5.4 14.6667 5C14.6667 4.6 14.9333 4.33334 15.3333 4.33334C15.7333 4.33334 16 4.6 16 5C16 5.4 15.7333 5.66667 15.3333 5.66667Z" fill="black"/>
<path d="M15.3333 11C14.9333 11 14.6667 10.7333 14.6667 10.3333C14.6667 9.93334 14.9333 9.66667 15.3333 9.66667C15.7333 9.66667 16 9.93334 16 10.3333C16 10.7333 15.7333 11 15.3333 11Z" fill="black"/>
<path d="M15.3333 17.6667C14.9333 17.6667 14.6667 17.4 14.6667 17C14.6667 16.6 14.9333 16.3333 15.3333 16.3333C15.7333 16.3333 16 16.6 16 17C16 17.4 15.7333 17.6667 15.3333 17.6667Z" fill="black"/>
<path d="M15.3333 25.6667C14.9333 25.6667 14.6667 25.4 14.6667 25C14.6667 24.6 14.9333 24.3333 15.3333 24.3333C15.7333 24.3333 16 24.6 16 25C16 25.4 15.7333 25.6667 15.3333 25.6667Z" fill="black"/>
</svg>
