<svg width="38" height="32" viewBox="0 0 38 32" fill="none" xmlns="http://www.w3.org/2000/svg">
<path d="M38 4.40512C36.5705 5.0285 35.0588 5.44283 33.5112 5.63537C35.1412 4.66685 36.3603 3.1352 36.9384 1.32949C35.4109 2.23445 33.7403 2.87219 31.9984 3.21525C30.9295 2.07679 29.5433 1.28573 28.0195 0.944636C26.4956 0.603545 24.9044 0.728161 23.4522 1.30233C22.0001 1.87649 20.7539 2.87372 19.8753 4.16468C18.9967 5.45565 18.5263 6.98081 18.525 8.54237C18.519 9.1394 18.5795 9.73525 18.7055 10.3189C15.6062 10.1683 12.5736 9.36502 9.8061 7.96163C7.03862 6.55825 4.59863 4.58636 2.64575 2.17499C1.64457 3.8884 1.33482 5.91923 1.77969 7.85319C2.22456 9.78715 3.39054 11.4785 5.03975 12.5822C3.80733 12.5522 2.60018 12.2264 1.52 11.6322V11.7177C1.52446 13.5151 2.14764 15.256 3.28476 16.6479C4.42187 18.0398 6.00357 18.9977 7.76388 19.3605C7.09709 19.5388 6.40919 19.6259 5.719 19.6194C5.22401 19.6286 4.72949 19.584 4.24412 19.4864C4.74779 21.0324 5.71817 22.3843 7.02175 23.3561C8.32534 24.328 9.89805 24.872 11.5235 24.9132C8.76629 27.0707 5.36534 28.2414 1.86438 28.2382C1.24122 28.2417 0.618485 28.2052 0 28.129C3.56251 30.4239 7.71333 31.6381 11.951 31.625C14.868 31.6452 17.76 31.0856 20.459 29.9788C23.1579 28.8719 25.6101 27.2399 27.673 25.1774C29.736 23.1149 31.3685 20.6631 32.476 17.9644C33.5834 15.2656 34.1436 12.3738 34.124 9.45674C34.124 9.11237 34.1121 8.77987 34.0955 8.44974C35.6316 7.34952 36.9546 5.97899 38 4.40512V4.40512Z" fill="#03A9F4"/>
</svg>
