<svg width="38" height="38" viewBox="0 0 38 38" fill="none" xmlns="http://www.w3.org/2000/svg">
<g clip-path="url(#clip0_2_767)">
<path d="M37.3255 19.1971C37.2916 14.4242 35.3632 9.86019 31.9644 6.50905C28.5656 3.15792 23.9748 1.29411 19.2019 1.32761C18.1672 1.328 17.1344 1.41539 16.1144 1.58886C14.4326 0.544657 12.4913 -0.00589891 10.5118 -1.31557e-05C9.14099 -0.0097159 7.78174 0.250677 6.51161 0.766297C5.24148 1.28192 4.08536 2.04267 3.10924 3.00511C2.13313 3.96755 1.35615 5.11283 0.822663 6.37555C0.289177 7.63828 0.00963649 8.99372 1.94559e-06 10.3645C-0.0011371 12.2101 0.497881 14.0215 1.444 15.6061C1.19967 16.7875 1.07632 17.9907 1.07588 19.1971C1.09235 21.5606 1.5742 23.8978 2.49393 26.075C3.41365 28.2523 4.75323 30.2271 6.43617 31.8867C8.11912 33.5463 10.1125 34.8581 12.3024 35.7473C14.4924 36.6365 16.836 37.0856 19.1995 37.069C20.3146 37.0695 21.4274 36.9694 22.5245 36.7697C24.0544 37.5797 25.7596 38.0021 27.4906 38C30.2582 38.019 32.92 36.938 34.8908 34.9949C36.8615 33.0517 37.9799 30.4054 38 27.6379C38.0014 26.04 37.6272 24.4641 36.9075 23.0375C37.1868 21.7765 37.3269 20.4887 37.3255 19.1971V19.1971Z" fill="#03A9F4"/>
<path d="M28.5 27.7376C27.5594 28.9873 26.2814 29.9423 24.8164 30.4902C23.0107 31.1825 21.0877 31.5173 19.1544 31.4759C16.9143 31.5544 14.6881 31.0933 12.6635 30.1316C11.4752 29.5109 10.4524 28.6152 9.68049 27.5191C8.96724 26.5894 8.56205 25.4602 8.52149 24.2891C8.51847 23.9723 8.58299 23.6585 8.71076 23.3685C8.83853 23.0786 9.02662 22.8192 9.26249 22.6076C9.78062 22.1366 10.4628 21.8876 11.1625 21.9141C11.7428 21.8989 12.3092 22.0928 12.7585 22.4604C13.2262 22.8824 13.5903 23.4066 13.8225 23.9922C14.0956 24.6367 14.444 25.2465 14.8604 25.8091C15.2671 26.3136 15.7893 26.7127 16.3827 26.9729C17.2173 27.3116 18.1142 27.4695 19.0142 27.436C20.2985 27.4897 21.5695 27.1589 22.6646 26.486C23.0637 26.264 23.3976 25.9412 23.633 25.5499C23.8685 25.1586 23.9973 24.7125 24.0065 24.2559C24.0199 23.9403 23.9648 23.6256 23.8451 23.3333C23.7254 23.041 23.5439 22.778 23.313 22.5625C22.7513 22.0765 22.0897 21.7198 21.375 21.5175C20.5509 21.2657 19.4346 20.9902 18.05 20.7052C16.4264 20.3874 14.8361 19.9183 13.3 19.304C12.0926 18.826 11.0233 18.0546 10.1887 17.0596C9.39424 16.0375 8.98252 14.7696 9.02499 13.4757C9.01096 12.1658 9.44503 10.8904 10.2552 9.861C11.1754 8.73907 12.3964 7.90283 13.775 7.45037C15.4833 6.87032 17.2794 6.59146 19.0831 6.62625C20.5125 6.60072 21.9378 6.78639 23.313 7.17725C24.3905 7.48415 25.4041 7.9821 26.3055 8.64737C27.0214 9.17048 27.6213 9.83595 28.0677 10.602C28.4247 11.223 28.6199 11.9237 28.6354 12.6397C28.6328 12.9622 28.5658 13.2809 28.4381 13.5771C28.3104 13.8732 28.1247 14.1408 27.892 14.364C27.652 14.6144 27.3625 14.8121 27.0419 14.9445C26.7214 15.077 26.3768 15.1414 26.03 15.1335C25.4694 15.1703 24.9146 15.0014 24.4696 14.6585C24.0377 14.2418 23.6724 13.7612 23.3866 13.2335C22.9956 12.461 22.4403 11.7833 21.7597 11.248C20.8449 10.7134 19.7876 10.4737 18.7316 10.5616C17.6333 10.5099 16.5434 10.7754 15.5919 11.3264C15.2703 11.4874 14.997 11.7307 14.7997 12.0314C14.6025 12.3321 14.4882 12.6796 14.4685 13.0387C14.4581 13.4176 14.5875 13.787 14.8319 14.0766C15.13 14.4198 15.4975 14.6958 15.9101 14.8865C16.3768 15.1198 16.8652 15.3068 17.3684 15.4446C17.8719 15.5824 18.715 15.789 19.8764 16.0526C21.3441 16.3614 22.6907 16.7105 23.883 17.0881C24.9749 17.4133 26.0187 17.8821 26.9871 18.4822C27.8304 19.0145 28.5314 19.744 29.0296 20.6079C29.5434 21.5737 29.7972 22.6565 29.7659 23.75C29.7792 25.1801 29.3357 26.5771 28.5 27.7376V27.7376Z" fill="#FAFAFA"/>
</g>
<defs>
<clipPath id="clip0_2_767">
<rect width="38" height="38" fill="white"/>
</clipPath>
</defs>
</svg>
