<svg width="38" height="27" viewBox="0 0 38 27" fill="none" xmlns="http://www.w3.org/2000/svg">
<path fill-rule="evenodd" clip-rule="evenodd" d="M36.385 2.6425C35.3542 0.809 34.2475 0.47175 31.958 0.3435C29.6685 0.21525 23.9614 0.125 19 0.125C14.0386 0.125 8.3125 0.189125 6.03725 0.341125C3.762 0.493125 2.64338 0.816125 1.6055 2.64013C0.567625 4.46413 0 7.62762 0 13.1875V13.2089C0 18.7379 0.54625 21.9156 1.60787 23.7277C2.6695 25.5399 3.76675 25.8937 6.03962 26.0481C8.3125 26.2025 14.0386 26.25 19 26.25C23.9614 26.25 29.6875 26.1716 31.9556 26.041C34.2237 25.9104 35.3519 25.5541 36.3826 23.7206C37.4585 21.9085 37.9976 18.7331 37.9976 13.2017V13.1875C38 7.62762 37.4585 4.47362 36.385 2.6425Z" fill="#F44336"/>
<path fill-rule="evenodd" clip-rule="evenodd" d="M14.25 20.3125V6.0625L26.125 13.1875L14.25 20.3125Z" fill="#FAFAFA"/>
</svg>
